<svg xmlns="http://www.w3.org/2000/svg" xmlns:xlink="http://www.w3.org/1999/xlink" width="380.179" height="310.9" viewBox="0 0 285.134 233.175"><defs><path id="b" d="M6.313-6.516H1L.594-4.969l.172.032c.53-1.079.843-1.25 2.375-1.22L1.703-.89c-.156.516-.39.688-1.062.735V0h2.89v-.156c-.156-.016-.312-.031-.375-.031-.39-.032-.515-.125-.515-.422 0-.125.03-.25.125-.594L4.14-6.156h.547c.718 0 1.046.25 1.046.797 0 .14-.015.28-.03.453l.171.015Zm0 0"/><path id="c" d="M6.531-6.516H4.453v.172c.484.047.61.125.61.36 0 .125-.063.25-.204.406L3.422-3.922 2.828-5.39c-.11-.25-.14-.421-.14-.546 0-.25.156-.344.703-.407v-.172H.75v.172c.578.047.734.14.922.61l1.062 2.609c-.375.422-.703.813-.828.969-1.39 1.64-1.672 1.89-2.203 2V0h2.14v-.156c-.484 0-.64-.094-.64-.344 0-.14.078-.312.203-.469l1.5-1.719.672 1.657c.078.172.11.328.11.484 0 .281-.094.344-.75.39V0h2.718v-.156c-.703-.078-.797-.14-1.047-.735L3.594-3.469 5.28-5.406c.516-.578.813-.797 1.25-.938Zm0 0"/><path id="d" d="M.906-6.344c.563.078.594.11.766.657l.766 2.671-.61 2.125c-.172.532-.39.688-1.047.735V0h2.875v-.156c-.156-.016-.297-.016-.36-.031-.39-.016-.53-.125-.53-.375 0-.204.078-.5.312-1.282.031-.093.047-.156.063-.203l.28-1L5.61-5.734c.329-.407.407-.47.704-.61v-.172H4.422v.172c.125 0 .234.016.266.032.296.015.421.109.421.265 0 .281-.453.922-1.484 2.125-.172.203-.234.281-.39.469-.11-.438-.141-.578-.297-1.11-.25-.843-.36-1.28-.36-1.421 0-.25.11-.313.719-.36v-.172H.907Zm0 0"/><path id="e" d="m6.5-4.64.375-1.985h-.219c-.078.172-.172.219-.375.219a2 2 0 0 1-.406-.063c-.453-.11-.844-.172-1.172-.172-2.125 0-4.047 2-4.047 4.22 0 1.53 1.078 2.593 2.61 2.593 1.015 0 1.812-.438 2.718-1.484l-.171-.141c-.891.89-1.47 1.187-2.297 1.187-1.11 0-1.735-.765-1.735-2.046 0-1.188.469-2.391 1.25-3.204.485-.484 1.11-.765 1.766-.765.922 0 1.422.547 1.516 1.61Zm0 0"/><path id="f" d="M1.297-6.344c.61.047.766.14.766.407 0 .14-.032.39-.11.64L.734-.89c-.187.579-.25.625-.812.735V0h2.516c1.171 0 2.234-.312 3-.875.968-.703 1.546-1.797 1.546-2.953 0-1.64-1.14-2.688-2.921-2.688H1.297Zm1.828.422c.063-.219.203-.281.61-.281.562 0 1.062.125 1.374.36.5.359.766.984.766 1.78 0 1.079-.422 2.188-1.094 2.86-.593.61-1.406.906-2.437.906-.453 0-.656-.11-.656-.375 0-.125.062-.344.218-.937Zm0 0"/><path id="g" d="M5.625-.156c-.578-.047-.625-.14-.766-.86l-.937-5.64h-.25L.782-1.672C-.017-.344-.11-.234-.517-.156V0H1.36v-.156C.844-.203.766-.266.766-.516c0-.187.03-.265.203-.609L1.53-2.25h2.203l.188 1.297c.015.094.031.187.031.265 0 .375-.14.47-.781.532V0h2.453ZM1.75-2.61l1.484-2.594.438 2.594Zm0 0"/><path id="h" d="M1.453-6.344c.578.063.703.157.703.407 0 .14-.031.359-.156.796L.813-.89C.64-.297.563-.234 0-.156V0h2.438v-.156c-.626-.094-.672-.125-.672-.469 0-.11.015-.219.125-.578l.515-1.922c.25.063.516.078.922.078.813 0 1.485-.156 1.922-.469.484-.375.781-.921.781-1.515 0-.953-.75-1.485-2.11-1.485H1.454Zm1.75.407c.063-.204.188-.266.469-.266.39 0 .765.094.969.234.25.172.359.469.359.938 0 .656-.219 1.11-.656 1.375-.313.172-.703.25-1.328.25-.172 0-.25-.016-.516-.047Zm0 0"/><path id="i" d="M-.078 0h2.812c1.563 0 2.641-.812 2.641-2 0-.36-.125-.719-.344-.937-.203-.22-.39-.344-.922-.563.72-.172 1-.281 1.329-.562q.42-.375.421-.985c0-.937-.703-1.469-1.984-1.469H1.297v.172c.61.047.766.125.766.407 0 .14-.032.39-.11.64L.734-.89c-.187.579-.25.625-.812.735Zm2.453-3.297c.64 0 1.063.031 1.266.11.406.171.656.609.656 1.156 0 1.078-.734 1.734-1.953 1.734-.422 0-.64-.156-.64-.422 0-.125.124-.593.343-1.39.14-.453.203-.688.328-1.188m.75-2.64c.063-.22.172-.266.563-.266.796 0 1.171.328 1.171 1.062 0 .579-.25 1.016-.671 1.25-.344.204-.813.266-1.72.266Zm0 0"/><clipPath id="a"><path d="M87 0h198.133v198H87Zm0 0"/></clipPath></defs><path fill="#fff" d="M0 0h285.133v233.176H0Zm0 0"/><path fill="none" stroke="#000" stroke-linecap="round" stroke-linejoin="round" stroke-miterlimit="10" stroke-width=".797" d="M98.836 84.57 30.28 178.93h198.43Zm0 0"/><path fill="none" stroke="#000" stroke-miterlimit="10" stroke-width=".797" d="M159.727 151.805c0-37.313-30.25-67.563-67.567-67.563-37.312 0-67.562 30.25-67.562 67.563 0 37.316 30.25 67.562 67.562 67.562 37.317 0 67.567-30.246 67.567-67.562Zm0 0"/><path fill="none" stroke="#000" stroke-miterlimit="10" stroke-width=".797" d="M239.477 138.652c0-44.582-36.137-80.718-80.72-80.718-44.577 0-80.714 36.136-80.714 80.718 0 44.578 36.137 80.715 80.715 80.715 44.582 0 80.719-36.137 80.719-80.715Zm0 0"/><g clip-path="url(#a)"><path fill="none" stroke="#000" stroke-miterlimit="10" stroke-width=".797" d="M284.238 93.758c0-51.285-41.574-92.863-92.863-92.863S98.512 42.473 98.512 93.758c0 51.289 41.574 92.867 92.863 92.867s92.863-41.578 92.863-92.867Zm0 0"/></g><path fill="none" stroke="#000" stroke-miterlimit="10" stroke-width=".797" d="M118.191 128.11c0-32.391-26.254-58.65-58.644-58.65S.898 95.72.898 128.11s26.258 58.644 58.649 58.644c32.39 0 58.644-26.254 58.644-58.645Zm0 0"/><path fill="none" stroke="#000" stroke-linecap="round" stroke-miterlimit="10" stroke-width=".797" d="m115.086 146.938 38.957 31.992M115.086 146.938 88.809 178.93M92.16 219.367h66.598"/><path stroke="#000" stroke-miterlimit="10" stroke-width=".399" d="M99.832 84.57a1 1 0 0 0-.996-.996.995.995 0 1 0 .996.996ZM31.277 178.93a.995.995 0 1 0-1.99-.002.995.995 0 0 0 1.99.002ZM229.707 178.93a.995.995 0 1 0-1.994-.002.995.995 0 0 0 1.994.002ZM93.156 219.367a1 1 0 0 0-.996-.996 1 1 0 0 0-.996.996c0 .551.45 1 .996 1 .55 0 .996-.449.996-1ZM159.758 219.367c0-.547-.45-.996-1-.996a1 1 0 0 0-.996.996c0 .551.449 1 .996 1 .55 0 1-.449 1-1ZM155.04 178.93c0-.551-.45-.996-.997-.996a.995.995 0 1 0 .996.996ZM89.805 178.93a.995.995 0 1 0-1.99-.002.995.995 0 0 0 1.99.002ZM116.082 146.938a.995.995 0 1 0-1.99-.002.995.995 0 0 0 1.99.001Zm0 0"/><use xlink:href="#b" x="95.434" y="81.054"/><use xlink:href="#c" x="88.649" y="229.354"/><use xlink:href="#d" x="155.107" y="229.354"/><use xlink:href="#e" x="150.359" y="189.145"/><use xlink:href="#f" x="85.212" y="188.916"/><use xlink:href="#g" x="20.675" y="189.145"/><use xlink:href="#h" x="118.605" y="143.417"/><use xlink:href="#i" x="232.226" y="188.916"/></svg>