<svg xmlns="http://www.w3.org/2000/svg" xmlns:xlink="http://www.w3.org/1999/xlink" width="344.903" height="436.079" viewBox="0 0 258.677 327.059"><defs><path id="a" d="m4.672-4.672.39-1.984h-.234c-.14.218-.219.265-.437.265-.125 0-.235-.03-.47-.109-.218-.094-.53-.14-.843-.14-1.031 0-1.765.687-1.765 1.671 0 .532.14.828.734 1.453.094.094.219.235.39.422.188.188.329.344.391.422.469.485.594.75.594 1.172 0 .75-.547 1.328-1.281 1.328-.828 0-1.453-.703-1.453-1.656 0-.078.015-.156.015-.219l-.187-.031L.172.156h.172c.078-.234.187-.328.39-.328.11 0 .25.031.516.125.453.172.719.219 1.031.219 1.14 0 2.016-.86 2.016-1.984 0-.657-.234-1.032-1.125-1.954-.906-.906-.985-1.046-.985-1.53 0-.626.422-1.016 1.094-1.016q.563 0 .89.375c.22.25.298.578.313 1.25Zm0 0"/><path id="b" d="M1.453-6.344c.578.063.703.157.703.407 0 .14-.031.359-.156.796L.813-.89C.64-.297.563-.234 0-.156V0h2.438v-.156c-.626-.094-.672-.125-.672-.469 0-.11.015-.219.125-.578l.515-1.922c.25.063.516.078.922.078.813 0 1.485-.156 1.922-.469.484-.375.781-.921.781-1.515 0-.953-.75-1.485-2.11-1.485H1.454Zm1.75.407c.063-.204.188-.266.469-.266.39 0 .765.094.969.234.25.172.359.469.359.938 0 .656-.219 1.11-.656 1.375-.313.172-.703.25-1.328.25-.172 0-.25-.016-.516-.047Zm0 0"/><path id="d" d="M5.625-.156c-.578-.047-.625-.14-.766-.86l-.937-5.64h-.25L.782-1.672C-.017-.344-.11-.234-.517-.156V0H1.36v-.156C.844-.203.766-.266.766-.516c0-.187.03-.265.203-.609L1.53-2.25h2.203l.188 1.297c.015.094.031.187.031.265 0 .375-.14.47-.781.532V0h2.453ZM1.75-2.61l1.484-2.594.438 2.594Zm0 0"/><path id="e" d="M6.313-6.516H1.359v.172c.625.047.782.14.782.407 0 .109-.063.453-.11.64L.797-.89c-.172.563-.25.625-.813.735V0h5.063l.61-1.61-.157-.077c-.469.625-.719.89-1.156 1.093-.36.172-1.047.266-1.797.266-.547 0-.797-.094-.797-.344 0-.11.11-.578.36-1.453.14-.437.218-.766.328-1.14.343.015.656.03.765.03.39-.015.672.047.781.141.047.047.079.14.079.313 0 .172-.032.297-.079.515l.204.047.671-2.312-.171-.032c-.375.844-.47.907-1.375.938-.126 0-.438.016-.797.031l.672-2.328c.046-.219.156-.266.718-.266 1.563 0 1.922.141 1.922.735 0 .125-.016.281-.031.453l.219.016Zm0 0"/><path id="f" d="M5.656-.156c-.437-.031-.64-.203-.828-.719l-.937-2.437c.78-.172 1.109-.313 1.468-.641.329-.281.5-.672.5-1.125 0-.922-.734-1.438-2.078-1.438H1.313v.172c.421.047.468.063.578.14.078.048.14.157.14.266 0 .125-.062.36-.125.641L.672-.89C.5-.312.422-.25-.125-.156V0h2.422v-.156c-.61-.078-.672-.14-.672-.469 0-.094.031-.219.125-.578l.547-2.078.656.047L4.172 0h1.484ZM3.078-5.937c.047-.204.188-.266.5-.266.828 0 1.235.375 1.235 1.11 0 .984-.641 1.5-1.875 1.5a2.3 2.3 0 0 1-.516-.063Zm0 0"/><path id="g" d="M-.078 0h2.812c1.563 0 2.641-.812 2.641-2 0-.36-.125-.719-.344-.937-.203-.22-.39-.344-.922-.563.72-.172 1-.281 1.329-.562q.42-.375.421-.985c0-.937-.703-1.469-1.984-1.469H1.297v.172c.61.047.766.125.766.407 0 .14-.032.39-.11.64L.734-.89c-.187.579-.25.625-.812.735Zm2.453-3.297c.64 0 1.063.031 1.266.11.406.171.656.609.656 1.156 0 1.078-.734 1.734-1.953 1.734-.422 0-.64-.156-.64-.422 0-.125.124-.593.343-1.39.14-.453.203-.688.328-1.188m.75-2.64c.063-.22.172-.266.563-.266.796 0 1.171.328 1.171 1.062 0 .579-.25 1.016-.671 1.25-.344.204-.813.266-1.72.266Zm0 0"/><path id="h" d="M6.438-6.516h-4.97v.172c.641.047.766.11.766.407 0 .14-.046.39-.109.64L.891-.89c-.172.594-.25.657-.813.735V0h2.516v-.156c-.578-.031-.766-.14-.766-.438 0-.078.031-.234.094-.453l.625-2.219c.36.016.578.032.797.032.39 0 .469 0 .547.046.156.079.218.204.218.407 0 .156-.015.281-.078.594l.172.046.766-2.328-.188-.062c-.437.906-.468.906-2.156.937l.672-2.328c.047-.203.187-.266.594-.266 1.687 0 2.047.141 2.047.75 0 .063 0 .11-.016.25-.016.047-.016.063-.016.188l.203.016Zm0 0"/><path id="i" d="M1.297-6.344c.61.047.766.14.766.407 0 .14-.032.39-.11.64L.734-.89c-.187.579-.25.625-.812.735V0h2.516c1.171 0 2.234-.312 3-.875.968-.703 1.546-1.797 1.546-2.953 0-1.64-1.14-2.688-2.921-2.688H1.297Zm1.828.422c.063-.219.203-.281.61-.281.562 0 1.062.125 1.374.36.5.359.766.984.766 1.78 0 1.079-.422 2.188-1.094 2.86-.593.61-1.406.906-2.437.906-.453 0-.656-.11-.656-.375 0-.125.062-.344.218-.937Zm0 0"/><path id="j" d="M6.531-6.516H4.453v.172c.484.047.61.125.61.36 0 .125-.063.25-.204.406L3.422-3.922 2.828-5.39c-.11-.25-.14-.421-.14-.546 0-.25.156-.344.703-.407v-.172H.75v.172c.578.047.734.14.922.61l1.062 2.609c-.375.422-.703.813-.828.969-1.39 1.64-1.672 1.89-2.203 2V0h2.14v-.156c-.484 0-.64-.094-.64-.344 0-.14.078-.312.203-.469l1.5-1.719.672 1.657c.078.172.11.328.11.484 0 .281-.094.344-.75.39V0h2.718v-.156c-.703-.078-.797-.14-1.047-.735L3.594-3.469 5.28-5.406c.516-.578.813-.797 1.25-.938Zm0 0"/><path id="k" d="M6.313-6.516H1L.594-4.969l.172.032c.53-1.079.843-1.25 2.375-1.22L1.703-.89c-.156.516-.39.688-1.062.735V0h2.89v-.156c-.156-.016-.312-.031-.375-.031-.39-.032-.515-.125-.515-.422 0-.125.03-.25.125-.594L4.14-6.156h.547c.718 0 1.046.25 1.046.797 0 .14-.015.28-.03.453l.171.015Zm0 0"/><path id="l" d="m6.5-4.64.375-1.985h-.219c-.078.172-.172.219-.375.219a2 2 0 0 1-.406-.063c-.453-.11-.844-.172-1.172-.172-2.125 0-4.047 2-4.047 4.22 0 1.53 1.078 2.593 2.61 2.593 1.015 0 1.812-.438 2.718-1.484l-.171-.141c-.891.89-1.47 1.187-2.297 1.187-1.11 0-1.735-.765-1.735-2.046 0-1.188.469-2.391 1.25-3.204.485-.484 1.11-.765 1.766-.765.922 0 1.422.547 1.516 1.61Zm0 0"/><path id="m" d="M.906-6.344c.563.078.594.11.766.657l.766 2.671-.61 2.125c-.172.532-.39.688-1.047.735V0h2.875v-.156c-.156-.016-.297-.016-.36-.031-.39-.016-.53-.125-.53-.375 0-.204.078-.5.312-1.282.031-.093.047-.156.063-.203l.28-1L5.61-5.734c.329-.407.407-.47.704-.61v-.172H4.422v.172c.125 0 .234.016.266.032.296.015.421.109.421.265 0 .281-.453.922-1.484 2.125-.172.203-.234.281-.39.469-.11-.438-.141-.578-.297-1.11-.25-.843-.36-1.28-.36-1.421 0-.25.11-.313.719-.36v-.172H.907Zm0 0"/><path id="n" d="M2.781.156c.766-.047 1.14-.14 1.703-.453C5.97-1.125 6.97-2.734 6.97-4.313c0-1.343-.953-2.328-2.282-2.328-.796 0-1.703.407-2.5 1.125-1 .938-1.593 2.141-1.593 3.313 0 .812.297 1.5.844 1.906.25.219.468.313.921.422-.906.797-1 .875-1.765 1.406l.094.157a2.25 2.25 0 0 1 1.14-.313c.203 0 .5.063.938.188.609.156 1.14.265 1.515.265.547 0 1.235-.266 1.75-.656.235-.188.375-.328.625-.688l-.14-.109c-.563.578-.97.766-1.688.766-.266 0-.469-.032-1.234-.22C3.078.798 2.609.704 2.547.72 2.516.734 2.5.734 2.5.734h-.25Zm1.86-6.468c.797 0 1.28.578 1.28 1.53 0 1.048-.468 2.516-1.109 3.438-.546.782-1.156 1.172-1.89 1.172-.813 0-1.281-.61-1.281-1.656 0-.938.5-2.422 1.093-3.297.563-.812 1.172-1.187 1.907-1.187m0 0"/><path id="c" d="M1.86-3.5c.046-.094.077-.156.077-.234 0-.22-.203-.391-.421-.391-.203 0-.344.14-.391.328L.25-.562c0 .015-.031.093-.031.093 0 .078.187.14.25.14.047 0 .047-.03.094-.124Zm0 0"/></defs><path fill="#fff" d="M0 0h258.676v327.059H0Zm0 0"/><path fill="none" stroke="#00b200" stroke-miterlimit="10" stroke-width=".399" d="m187.059 16.645-4.926 2.808 2.808 4.922 4.926-2.805-2.808-4.925M91.535 221.14l-3.27-4.628 4.63-3.274 3.27 4.63-4.63 3.273M206.05 197.742l-5.19-2.281 2.28-5.191 5.188 2.28-2.277 5.192M114.734 157.633l-3.097-4.746 4.746-3.102 3.097 4.746-4.746 3.102M192.477 149.77l-5.032-2.606 2.606-5.035 5.035 2.605-2.61 5.036"/><path fill="none" stroke="#000" stroke-miterlimit="10" stroke-width=".797" d="M242.684 114.242C242.684 51.641 191.938.898 129.34.898S15.996 51.641 15.996 114.242c0 62.598 50.746 113.344 113.344 113.344s113.344-50.746 113.344-113.344Zm0 0"/><path fill="none" stroke="#000" stroke-miterlimit="10" stroke-width=".797" d="M225.902 84.96c0-43.765-35.476-79.245-79.246-79.245S67.41 41.195 67.41 84.96c0 43.77 35.477 79.25 79.246 79.25 43.77 0 79.246-35.48 79.246-79.25Zm0 0"/><path fill="none" stroke="#000" stroke-linecap="round" stroke-linejoin="round" stroke-miterlimit="10" stroke-width=".797" d="M187.059 16.645 15.953 114.242h226.774Zm0 0"/><path fill="none" stroke="#000" stroke-linecap="round" stroke-miterlimit="10" stroke-width=".797" d="M15.953 114.242 155.828 312.07M242.727 114.242 155.828 312.07M15.953 114.242l190.098 83.5M242.727 114.242 91.535 221.141"/><path fill="none" stroke="#00b200" stroke-dasharray="2.98883 1.99255" stroke-linecap="round" stroke-miterlimit="10" stroke-width=".797" d="M67.285 84.96h158.742M67.285 84.96l88.543 135.606M226.027 84.96l-70.199 135.606M67.285 84.96l125.192 64.81M226.027 84.96l-111.293 72.673M155.828 312.07V130.797"/><path stroke="#000" stroke-miterlimit="10" stroke-width=".399" d="M16.95 114.242a.995.995 0 1 0-1.991-.001.995.995 0 0 0 1.99.001ZM243.723 114.242a.995.995 0 1 0-1.99-.001.995.995 0 0 0 1.99.001ZM207.047 197.742a.995.995 0 1 0-1.99-.001.995.995 0 0 0 1.99.001ZM92.531 221.14a.995.995 0 1 0-1.99-.001.995.995 0 0 0 1.99.002ZM188.055 16.645a.995.995 0 1 0-1.99-.002.995.995 0 0 0 1.99.002ZM156.824 312.07a1 1 0 0 0-.996-.996 1 1 0 0 0-.996.996c0 .551.45 1 .996 1 .55 0 .996-.449.996-1ZM115.73 157.633a.995.995 0 1 0-1.99-.002.995.995 0 0 0 1.99.002ZM193.473 149.77a.995.995 0 1 0-1.99-.002.995.995 0 0 0 1.99.002Zm0 0"/><path fill="#00b200" stroke="#004c00" stroke-miterlimit="10" stroke-width=".399" d="M68.281 84.96a.995.995 0 1 0-1.99 0 .995.995 0 0 0 1.99 0ZM227.023 84.96a.995.995 0 1 0-1.99 0 .995.995 0 0 0 1.99 0ZM156.824 175.684a.995.995 0 1 0-1.99-.002.995.995 0 0 0 1.99.002ZM156.824 220.566a.995.995 0 1 0-1.99-.001.995.995 0 0 0 1.99.001ZM156.824 130.797a.995.995 0 1 0-1.99-.002.995.995 0 0 0 1.99.002Zm0 0"/><use xlink:href="#a" x="153.297" y="127.109"/><use xlink:href="#b" x="151.522" y="323.238"/><use xlink:href="#c" x="157.609" y="319.622"/><use xlink:href="#d" x="3.821" y="118.066"/><use xlink:href="#c" x="9.908" y="114.449"/><use xlink:href="#e" x="56.95" y="88.195"/><use xlink:href="#f" x="146.221" y="223.798"/><use xlink:href="#g" x="246.244" y="118.066"/><use xlink:href="#c" x="252.331" y="114.449"/><use xlink:href="#h" x="229.544" y="88.195"/><use xlink:href="#i" x="78.298" y="232.308"/><use xlink:href="#c" x="85.491" y="228.692"/><use xlink:href="#j" x="101.665" y="168.8"/><use xlink:href="#c" x="108.689" y="165.183"/><use xlink:href="#k" x="190.577" y="13.126"/><use xlink:href="#l" x="209.069" y="208.909"/><use xlink:href="#c" x="215.933" y="205.293"/><use xlink:href="#m" x="195.498" y="160.938"/><use xlink:href="#c" x="202.302" y="157.322"/><use xlink:href="#n" x="159.348" y="185.896"/></svg>