<svg xmlns="http://www.w3.org/2000/svg" xmlns:xlink="http://www.w3.org/1999/xlink" width="517.354" height="654.118" viewBox="0 0 388.015 490.589"><defs><path id="a" d="m6.984-6.984.61-2.985H7.25c-.219.313-.344.39-.672.39-.187 0-.344-.046-.687-.155-.328-.141-.813-.22-1.282-.22-1.546 0-2.656 1.032-2.656 2.5 0 .813.234 1.235 1.125 2.188.14.141.328.344.578.641.266.281.485.5.594.625.688.734.89 1.11.89 1.766C5.14-1.125 4.298-.25 3.22-.25c-1.25 0-2.188-1.062-2.188-2.484 0-.125.016-.235.032-.344L.766-3.11.25.219h.266c.109-.344.28-.485.578-.485.156 0 .39.063.765.188.688.25 1.094.344 1.563.344 1.719 0 3.016-1.297 3.016-2.985 0-.969-.344-1.547-1.688-2.906S3.266-7.203 3.266-7.937c0-.938.64-1.516 1.656-1.516.547 0 1.016.187 1.328.547.328.375.438.89.469 1.875Zm0 0"/><path id="b" d="M2.188-9.516c.843.11 1.046.235 1.046.625 0 .22-.046.532-.25 1.204L1.22-1.344C.953-.454.844-.359 0-.234V0h3.656v-.234C2.72-.375 2.641-.422 2.641-.922c0-.187.03-.328.187-.875l.781-2.875c.375.094.766.11 1.375.11 1.235 0 2.235-.25 2.875-.704.75-.562 1.172-1.375 1.172-2.265 0-1.438-1.11-2.219-3.14-2.219H2.188Zm2.625.625c.093-.312.265-.421.687-.421.578 0 1.14.156 1.453.359.375.281.547.719.547 1.422 0 .968-.344 1.656-1 2.047-.469.25-1.047.375-1.969.375-.265 0-.375-.016-.781-.079Zm0 0"/><path id="d" d="M8.422-.234c-.844-.078-.938-.203-1.125-1.297L5.89-9.984H5.5L1.172-2.516C-.016-.516-.172-.359-.766-.234V0h2.797v-.234c-.765-.078-.875-.157-.875-.532 0-.28.032-.421.297-.921l.844-1.688h3.297l.297 1.953c.015.14.03.266.03.39 0 .563-.218.704-1.171.798V0h3.672ZM2.609-3.906l2.25-3.89.657 3.89Zm0 0"/><path id="e" d="M9.469-9.75H2.047v.234c.922.094 1.156.204 1.156.61 0 .172-.094.687-.172.953l-1.844 6.61C.938-.5.829-.392-.016-.235V0h7.579l.921-2.422-.234-.125c-.703.969-1.094 1.36-1.734 1.656-.563.25-1.578.391-2.688.391-.844 0-1.203-.14-1.203-.5 0-.172.172-.86.547-2.187.187-.657.328-1.141.469-1.72.53.032.984.048 1.172.048.578-.016 1 .078 1.156.234.078.063.11.203.11.453 0 .266-.032.453-.11.781l.312.079 1.016-3.47-.281-.062c-.563 1.266-.703 1.36-2.063 1.422-.172 0-.656.016-1.172.031l.985-3.484c.093-.328.25-.39 1.093-.39 2.344 0 2.86.203 2.86 1.093 0 .188-.016.422-.031.672L9-7.469Zm0 0"/><path id="f" d="M8.469-.234c-.656-.047-.953-.297-1.235-1.078L5.844-4.97c1.14-.265 1.64-.468 2.172-.953.5-.422.765-1.016.765-1.687 0-1.391-1.11-2.141-3.11-2.141H1.97v.234c.625.094.703.11.86.204.108.078.202.265.202.421 0 .188-.078.547-.172.938l-1.843 6.61C.75-.47.64-.376-.187-.235V0h3.64v-.234C2.547-.36 2.438-.437 2.438-.922c0-.156.046-.344.171-.875l.844-3.125.969.078L6.266 0h2.203ZM4.594-8.891c.093-.312.297-.421.765-.421 1.25 0 1.86.578 1.86 1.671 0 1.485-.953 2.25-2.828 2.25-.235 0-.407-.015-.766-.078Zm0 0"/><path id="g" d="M-.125 0h4.219c2.343 0 3.953-1.219 3.953-2.984 0-.563-.172-1.078-.5-1.407-.297-.343-.594-.53-1.375-.859 1.062-.25 1.484-.422 1.969-.844.422-.36.64-.86.64-1.468 0-1.422-1.062-2.188-2.984-2.188h-3.86v.234c.938.079 1.157.188 1.157.61 0 .234-.063.594-.172.953l-1.828 6.61C.828-.485.719-.392-.125-.235Zm3.688-4.937c.968 0 1.593.046 1.89.171.61.25.984.907.984 1.72 0 1.608-1.109 2.593-2.921 2.593-.625 0-.97-.219-.97-.625 0-.172.188-.89.532-2.094.188-.672.281-1.015.485-1.765m1.109-3.954c.094-.328.266-.421.86-.421 1.187 0 1.75.515 1.75 1.624 0 .844-.36 1.5-1 1.86-.516.297-1.235.406-2.579.406Zm0 0"/><path id="h" d="M9.64-9.75H2.204v.234c.969.094 1.14.188 1.14.61 0 .234-.062.594-.155.953l-1.844 6.61C1.078-.454.969-.36.125-.235V0h3.766v-.234C3.016-.281 2.75-.454 2.75-.891c0-.125.047-.343.14-.671l.922-3.344c.547.031.876.047 1.204.047.578 0 .687.015.828.078.218.125.328.312.328.61 0 .25-.031.421-.125.89l.25.062 1.14-3.484-.265-.078c-.672 1.343-.719 1.36-3.234 1.39l.984-3.484c.094-.297.312-.39.922-.39 2.5 0 3.047.203 3.047 1.124 0 .094 0 .157-.016.36-.016.093-.016.11-.031.281l.312.031Zm0 0"/><path id="i" d="M1.938-9.516c.937.094 1.156.204 1.156.61 0 .234-.063.594-.172.953l-1.828 6.61C.828-.485.719-.392-.125-.235V0h3.781C5.406 0 7-.469 8.156-1.297 9.61-2.359 10.453-4 10.453-5.734c0-2.453-1.703-4.016-4.36-4.016H1.939Zm2.734.641c.094-.328.312-.437.922-.437.843 0 1.593.203 2.062.562.735.531 1.14 1.469 1.14 2.656 0 1.61-.624 3.282-1.64 4.297-.875.906-2.093 1.344-3.64 1.344-.688 0-.97-.156-.97-.547 0-.187.063-.531.329-1.422Zm0 0"/><path id="j" d="M9.781-9.75h-3.11v.234c.735.094.923.188.923.532 0 .203-.094.375-.297.625L5.125-5.875 4.25-8.062c-.172-.391-.234-.641-.234-.844 0-.375.234-.5 1.062-.61v-.234H1.141v.234c.859.079 1.078.22 1.375.907l1.578 3.937c-.547.625-1.047 1.203-1.235 1.453C.781-.78.36-.406-.437-.234V0h3.203v-.234c-.72 0-.97-.141-.97-.516 0-.219.11-.469.313-.703l2.25-2.563 1 2.47c.11.265.172.5.172.718 0 .437-.156.516-1.14.594V0h4.078v-.234c-1.047-.125-1.172-.22-1.547-1.11L5.39-5.204l2.53-2.89c.766-.875 1.22-1.219 1.86-1.422Zm0 0"/><path id="k" d="M9.453-9.75H1.516L.875-7.453l.281.062C1.938-9 2.422-9.266 4.703-9.234l-2.156 7.89C2.312-.547 1.953-.312.969-.234V0h4.328v-.234c-.25-.016-.469-.047-.563-.047-.593-.047-.78-.188-.78-.625 0-.203.046-.375.187-.89l2.078-7.438h.812c1.078 0 1.563.375 1.563 1.218 0 .188-.016.407-.047.672l.25.032Zm0 0"/><path id="l" d="m9.734-6.953.563-2.969h-.313c-.125.25-.28.328-.578.328-.11 0-.297-.031-.61-.094-.671-.171-1.265-.265-1.75-.265-3.171 0-6.062 3-6.062 6.328 0 2.281 1.61 3.89 3.907 3.89 1.53 0 2.734-.656 4.078-2.218l-.266-.219C7.36-.844 6.5-.406 5.266-.406c-1.657 0-2.61-1.125-2.61-3.063 0-1.781.719-3.578 1.89-4.797.72-.734 1.657-1.14 2.641-1.14 1.375 0 2.141.797 2.282 2.422Zm0 0"/><path id="m" d="M1.36-9.516c.843.125.874.172 1.14.985l1.14 4.015-.906 3.172c-.25.813-.578 1.047-1.562 1.11V0h4.312v-.234a8 8 0 0 1-.546-.047c-.579-.031-.782-.188-.782-.563 0-.312.094-.75.453-1.922.047-.125.079-.234.094-.296l.438-1.516L8.406-8.61c.485-.594.594-.703 1.047-.907v-.234H6.625v.234c.188.016.344.032.406.047.438.047.625.156.625.422 0 .39-.687 1.375-2.234 3.172-.25.297-.344.422-.563.688-.187-.657-.234-.844-.468-1.641-.375-1.281-.532-1.922-.532-2.156 0-.344.172-.438 1.063-.532v-.234H1.359Zm0 0"/><path id="n" d="M4.172.234C5.312.172 5.89.016 6.719-.453c2.218-1.234 3.718-3.656 3.718-6.016 0-2.015-1.437-3.484-3.421-3.484-1.188 0-2.532.625-3.735 1.687-1.5 1.407-2.39 3.22-2.39 4.97 0 1.218.453 2.234 1.265 2.859.39.312.719.468 1.375.609C2.171 1.375 2.031 1.5.875 2.297l.156.234a3.36 3.36 0 0 1 1.719-.469c.297 0 .734.094 1.39.266.907.25 1.72.406 2.266.406.828 0 1.875-.39 2.625-.984.36-.266.563-.484.953-1.016L9.75.563c-.828.875-1.437 1.156-2.516 1.156-.39 0-.703-.063-1.843-.328-.782-.203-1.485-.328-1.563-.313-.062.016-.094.016-.094.016H3.36Zm2.781-9.687c1.188 0 1.922.86 1.922 2.281 0 1.578-.703 3.781-1.656 5.156C6.39-.844 5.469-.25 4.375-.25c-1.203 0-1.906-.922-1.906-2.484 0-1.422.734-3.641 1.64-4.938.829-1.219 1.75-1.781 2.844-1.781m0 0"/><path id="c" d="M2.797-5.25c.062-.14.094-.234.094-.344 0-.328-.282-.593-.625-.593-.313 0-.5.218-.578.5L.359-.86c0 .03-.03.156-.03.156 0 .125.28.203.374.203.063 0 .078-.031.14-.172Zm0 0"/></defs><path fill="#fff" d="M0 0h388.016v490.59H0Zm0 0"/><path fill="none" stroke="#00b200" stroke-miterlimit="10" stroke-width=".5985" d="m280.59 24.965-7.387 4.215 4.211 7.386 7.387-4.214-4.211-7.387M137.305 331.71l-4.91-6.944 6.945-4.907 4.91 6.942-6.945 4.91M309.074 296.613l-7.785-3.422 3.422-7.785 7.785 3.418-3.422 7.79M172.102 236.445l-4.649-7.117 7.121-4.648 4.649 7.117-7.121 4.648M288.719 224.656l-7.555-3.91 3.91-7.555 7.551 3.91-3.906 7.555"/><path fill="none" stroke="#000" stroke-miterlimit="10" stroke-width="1.1955" d="M364.027 171.363c0-93.898-76.117-170.02-170.015-170.02-93.899 0-170.016 76.122-170.016 170.02S100.113 341.38 194.012 341.38s170.015-76.117 170.015-170.016Zm0 0"/><path fill="none" stroke="#000" stroke-miterlimit="10" stroke-width="1.1955" d="M338.855 127.441c0-65.652-53.218-118.87-118.87-118.87-65.653 0-118.872 53.218-118.872 118.87 0 65.653 53.219 118.871 118.871 118.871 65.653 0 118.871-53.218 118.871-118.87Zm0 0"/><path fill="none" stroke="#000" stroke-linecap="round" stroke-linejoin="round" stroke-miterlimit="10" stroke-width="1.1955" d="M280.59 24.965 23.93 171.363h340.16Zm0 0"/><path fill="none" stroke="#000" stroke-linecap="round" stroke-miterlimit="10" stroke-width="1.1955" d="M23.93 171.363 233.746 468.11M364.09 171.363 233.746 468.11M23.93 171.363l285.144 125.25M364.09 171.363 137.305 331.711"/><path fill="none" stroke="#00b200" stroke-dasharray="4.483245 2.9888250000000003" stroke-linecap="round" stroke-miterlimit="10" stroke-width="1.1955" d="M100.926 127.441h238.113M100.926 127.441l132.82 203.407M339.04 127.441 233.745 330.848M100.926 127.441l187.793 97.215M339.04 127.441 172.101 236.445M233.746 468.11V196.194"/><path stroke="#000" stroke-miterlimit="10" stroke-width=".5985" d="M25.426 171.363a1.496 1.496 0 0 0-2.992 0 1.495 1.495 0 0 0 2.992 0ZM365.586 171.363a1.494 1.494 0 1 0-2.988-.004 1.494 1.494 0 0 0 2.988.004ZM310.57 296.613a1.493 1.493 0 1 0-2.988 0c0 .825.668 1.492 1.492 1.492s1.496-.667 1.496-1.492ZM138.8 331.71c0-.823-.671-1.495-1.495-1.495a1.495 1.495 0 1 0 1.496 1.496ZM282.082 24.965c0-.824-.668-1.492-1.492-1.492a1.494 1.494 0 1 0 1.492 1.492ZM235.238 468.11a1.494 1.494 0 1 0-2.99-.005 1.494 1.494 0 0 0 2.99.004ZM173.598 236.445c0-.824-.668-1.492-1.496-1.492-.825 0-1.493.668-1.493 1.492a1.494 1.494 0 1 0 2.988 0ZM290.21 224.656a1.494 1.494 0 1 0-2.99-.005 1.494 1.494 0 0 0 2.99.005Zm0 0"/><path fill="#00b200" stroke="#004c00" stroke-miterlimit="10" stroke-width=".5985" d="M102.422 127.441c0-.824-.668-1.492-1.496-1.492-.824 0-1.492.668-1.492 1.492a1.494 1.494 0 1 0 2.988 0ZM340.535 127.441c0-.824-.668-1.492-1.496-1.492-.824 0-1.492.668-1.492 1.492a1.494 1.494 0 1 0 2.988 0ZM235.238 263.523a1.495 1.495 0 1 0-2.99-.001 1.495 1.495 0 0 0 2.99.001ZM235.238 330.848c0-.825-.668-1.493-1.492-1.493a1.494 1.494 0 1 0 1.492 1.492ZM235.238 196.195c0-.824-.668-1.492-1.492-1.492a1.494 1.494 0 1 0 1.492 1.492Zm0 0"/><use xlink:href="#a" x="229.946" y="190.663"/><use xlink:href="#b" x="227.283" y="484.857"/><use xlink:href="#c" x="236.413" y="479.433"/><use xlink:href="#d" x="5.731" y="177.099"/><use xlink:href="#c" x="14.862" y="171.673"/><use xlink:href="#e" x="85.425" y="132.292"/><use xlink:href="#f" x="219.332" y="335.697"/><use xlink:href="#g" x="369.366" y="177.099"/><use xlink:href="#c" x="378.497" y="171.673"/><use xlink:href="#h" x="344.316" y="132.292"/><use xlink:href="#i" x="117.447" y="348.462"/><use xlink:href="#c" x="128.237" y="343.038"/><use xlink:href="#j" x="152.498" y="253.2"/><use xlink:href="#c" x="163.034" y="247.774"/><use xlink:href="#k" x="285.865" y="19.689"/><use xlink:href="#l" x="313.603" y="313.363"/><use xlink:href="#c" x="323.899" y="307.94"/><use xlink:href="#m" x="293.247" y="241.407"/><use xlink:href="#c" x="303.453" y="235.983"/><use xlink:href="#n" x="239.022" y="278.844"/></svg>