<svg xmlns="http://www.w3.org/2000/svg" xmlns:xlink="http://www.w3.org/1999/xlink" width="570.268" height="466.35" viewBox="0 0 427.701 349.762"><defs><path id="b" d="M9.453-9.75H1.516L.875-7.453l.281.062C1.938-9 2.422-9.266 4.703-9.234l-2.156 7.89C2.312-.547 1.953-.312.969-.234V0h4.328v-.234c-.25-.016-.469-.047-.563-.047-.593-.047-.78-.188-.78-.625 0-.203.046-.375.187-.89l2.078-7.438h.812c1.078 0 1.563.375 1.563 1.218 0 .188-.016.407-.047.672l.25.032Zm0 0"/><path id="c" d="M9.781-9.75h-3.11v.234c.735.094.923.188.923.532 0 .203-.094.375-.297.625L5.125-5.875 4.25-8.062c-.172-.391-.234-.641-.234-.844 0-.375.234-.5 1.062-.61v-.234H1.141v.234c.859.079 1.078.22 1.375.907l1.578 3.937c-.547.625-1.047 1.203-1.235 1.453C.781-.78.36-.406-.437-.234V0h3.203v-.234c-.72 0-.97-.141-.97-.516 0-.219.11-.469.313-.703l2.25-2.563 1 2.47c.11.265.172.5.172.718 0 .437-.156.516-1.14.594V0h4.078v-.234c-1.047-.125-1.172-.22-1.547-1.11L5.39-5.204l2.53-2.89c.766-.875 1.22-1.219 1.86-1.422Zm0 0"/><path id="d" d="M1.36-9.516c.843.125.874.172 1.14.985l1.14 4.015-.906 3.172c-.25.813-.578 1.047-1.562 1.11V0h4.312v-.234a8 8 0 0 1-.546-.047c-.579-.031-.782-.188-.782-.563 0-.312.094-.75.453-1.922.047-.125.079-.234.094-.296l.438-1.516L8.406-8.61c.485-.594.594-.703 1.047-.907v-.234H6.625v.234c.188.016.344.032.406.047.438.047.625.156.625.422 0 .39-.687 1.375-2.234 3.172-.25.297-.344.422-.563.688-.187-.657-.234-.844-.468-1.641-.375-1.281-.532-1.922-.532-2.156 0-.344.172-.438 1.063-.532v-.234H1.359Zm0 0"/><path id="e" d="m9.734-6.953.563-2.969h-.313c-.125.25-.28.328-.578.328-.11 0-.297-.031-.61-.094-.671-.171-1.265-.265-1.75-.265-3.171 0-6.062 3-6.062 6.328 0 2.281 1.61 3.89 3.907 3.89 1.53 0 2.734-.656 4.078-2.218l-.266-.219C7.36-.844 6.5-.406 5.266-.406c-1.657 0-2.61-1.125-2.61-3.063 0-1.781.719-3.578 1.89-4.797.72-.734 1.657-1.14 2.641-1.14 1.375 0 2.141.797 2.282 2.422Zm0 0"/><path id="f" d="M1.938-9.516c.937.094 1.156.204 1.156.61 0 .234-.063.594-.172.953l-1.828 6.61C.828-.485.719-.392-.125-.235V0h3.781C5.406 0 7-.469 8.156-1.297 9.61-2.359 10.453-4 10.453-5.734c0-2.453-1.703-4.016-4.36-4.016H1.939Zm2.734.641c.094-.328.312-.437.922-.437.843 0 1.593.203 2.062.562.735.531 1.14 1.469 1.14 2.656 0 1.61-.624 3.282-1.64 4.297-.875.906-2.093 1.344-3.64 1.344-.688 0-.97-.156-.97-.547 0-.187.063-.531.329-1.422Zm0 0"/><path id="g" d="M8.422-.234c-.844-.078-.938-.203-1.125-1.297L5.89-9.984H5.5L1.172-2.516C-.016-.516-.172-.359-.766-.234V0h2.797v-.234c-.765-.078-.875-.157-.875-.532 0-.28.032-.421.297-.921l.844-1.688h3.297l.297 1.953c.015.14.03.266.03.39 0 .563-.218.704-1.171.798V0h3.672ZM2.609-3.906l2.25-3.89.657 3.89Zm0 0"/><path id="h" d="M2.188-9.516c.843.11 1.046.235 1.046.625 0 .22-.046.532-.25 1.204L1.22-1.344C.953-.454.844-.359 0-.234V0h3.656v-.234C2.72-.375 2.641-.422 2.641-.922c0-.187.03-.328.187-.875l.781-2.875c.375.094.766.11 1.375.11 1.235 0 2.235-.25 2.875-.704.75-.562 1.172-1.375 1.172-2.265 0-1.438-1.11-2.219-3.14-2.219H2.188Zm2.625.625c.093-.312.265-.421.687-.421.578 0 1.14.156 1.453.359.375.281.547.719.547 1.422 0 .968-.344 1.656-1 2.047-.469.25-1.047.375-1.969.375-.265 0-.375-.016-.781-.079Zm0 0"/><path id="i" d="M-.125 0h4.219c2.343 0 3.953-1.219 3.953-2.984 0-.563-.172-1.078-.5-1.407-.297-.343-.594-.53-1.375-.859 1.062-.25 1.484-.422 1.969-.844.422-.36.64-.86.64-1.468 0-1.422-1.062-2.188-2.984-2.188h-3.86v.234c.938.079 1.157.188 1.157.61 0 .234-.063.594-.172.953l-1.828 6.61C.828-.485.719-.392-.125-.235Zm3.688-4.937c.968 0 1.593.046 1.89.171.61.25.984.907.984 1.72 0 1.608-1.109 2.593-2.921 2.593-.625 0-.97-.219-.97-.625 0-.172.188-.89.532-2.094.188-.672.281-1.015.485-1.765m1.109-3.954c.094-.328.266-.421.86-.421 1.187 0 1.75.515 1.75 1.624 0 .844-.36 1.5-1 1.86-.516.297-1.235.406-2.579.406Zm0 0"/><clipPath id="a"><path d="M130 0h297.7v297H130Zm0 0"/></clipPath></defs><path fill="none" stroke="#000" stroke-linecap="round" stroke-linejoin="round" stroke-miterlimit="10" stroke-width="1.1955" d="M148.254 126.86 45.422 268.394h297.64Zm0 0"/><path fill="none" stroke="#000" stroke-miterlimit="10" stroke-width="1.1955" d="M239.59 227.707c0-55.973-45.375-101.344-101.348-101.344S36.898 171.734 36.898 227.707 82.27 329.055 138.242 329.055c55.973 0 101.348-45.375 101.348-101.348Zm0 0"/><path fill="none" stroke="#000" stroke-miterlimit="10" stroke-width="1.1955" d="M359.215 207.977c0-66.868-54.207-121.075-121.074-121.075-66.871 0-121.078 54.207-121.078 121.075 0 66.87 54.207 121.078 121.078 121.078 66.867 0 121.074-54.207 121.074-121.078Zm0 0"/><g clip-path="url(#a)"><path fill="none" stroke="#000" stroke-miterlimit="10" stroke-width="1.1955" d="M426.36 140.64c0-76.933-62.364-139.296-139.297-139.296-76.93 0-139.293 62.363-139.293 139.297 0 76.93 62.363 139.293 139.293 139.293 76.933 0 139.296-62.364 139.296-139.293Zm0 0"/></g><path fill="none" stroke="#000" stroke-miterlimit="10" stroke-width="1.1955" d="M177.29 192.164c0-48.586-39.384-87.973-87.97-87.973S1.348 143.578 1.348 192.164s39.386 87.969 87.972 87.969 87.97-39.383 87.97-87.969Zm0 0"/><path fill="none" stroke="#000" stroke-linecap="round" stroke-miterlimit="10" stroke-width="1.1955" d="m172.629 220.406 58.434 47.989M172.629 220.406l-39.414 47.989M138.242 329.055h99.899"/><path stroke="#000" stroke-miterlimit="10" stroke-width=".5985" d="M149.75 126.86a1.494 1.494 0 1 0-2.987-.005 1.494 1.494 0 0 0 2.987.004ZM46.918 268.395c0-.825-.672-1.497-1.496-1.497a1.495 1.495 0 1 0 1.496 1.497ZM344.559 268.395a1.495 1.495 0 1 0-2.986-.001 1.495 1.495 0 0 0 2.986 0ZM139.738 329.055a1.493 1.493 0 1 0-2.988 0c0 .824.668 1.492 1.492 1.492s1.496-.668 1.496-1.492ZM239.633 329.055a1.494 1.494 0 1 0-2.99-.005 1.494 1.494 0 0 0 2.99.005ZM232.559 268.395c0-.825-.672-1.497-1.496-1.497-.825 0-1.497.672-1.497 1.497 0 .824.672 1.496 1.497 1.496.824 0 1.496-.672 1.496-1.496ZM134.707 268.395c0-.825-.668-1.497-1.492-1.497s-1.496.672-1.496 1.497c0 .824.672 1.496 1.496 1.496s1.492-.672 1.492-1.496ZM174.125 220.406a1.493 1.493 0 1 0-2.988 0c0 .824.668 1.492 1.492 1.492s1.496-.668 1.496-1.492Zm0 0"/><use xlink:href="#b" x="143.151" y="121.581"/><use xlink:href="#c" x="132.974" y="344.031"/><use xlink:href="#d" x="232.661" y="344.031"/><use xlink:href="#e" x="225.538" y="283.717"/><use xlink:href="#f" x="127.818" y="283.374"/><use xlink:href="#g" x="31.012" y="283.717"/><use xlink:href="#h" x="177.907" y="215.125"/><use xlink:href="#i" x="348.339" y="283.374"/></svg>