<svg xmlns="http://www.w3.org/2000/svg" xmlns:xlink="http://www.w3.org/1999/xlink" width="767.122" height="271.904" viewBox="0 0 575.341 203.928"><defs><path id="a" d="M8.656-7.469 7.312-4.906c-.078-1.797-.828-2.75-2.187-2.75-.687 0-1.469.281-2.11.75-.953.703-1.546 1.781-1.796 3.265C.829-1.266 1.766.188 3.703.188c1.313 0 2.39-.672 3.219-2 .031.28.094.562.187.937.266.828.485 1.063.954 1.063.5 0 .89-.313 1.187-.938.172-.344.266-.672.422-1.5h-.39c-.157.75-.532 1.313-.907 1.313-.5 0-.844-.797-.86-1.829l2.47-4.703Zm-2 3.875-.5.969c-.765 1.516-1.5 2.25-2.234 2.25-.469 0-.89-.297-1.047-.734-.234-.61-.25-1.547-.062-2.625.171-1.078.53-1.985 1.03-2.641.345-.437.72-.64 1.188-.64 1.063 0 1.594.843 1.625 2.546Zm0 0"/><path id="b" d="M1.031.922C.906 1.719.61 2.75.36 3.312h1.235c.234-.343.36-.75.547-1.906l.343-2.031c.688.594 1.313.813 2.172.813 1.782 0 3.219-1.313 3.547-3.235.266-1.594-.328-2.719-1.86-3.422 1.235-.61 1.891-1.297 2.032-2.156.219-1.328-.937-2.422-2.531-2.422-1.61 0-2.985 1.047-3.219 2.469Zm2.797-9.64C4-9.767 4.75-10.5 5.641-10.5c.937 0 1.468.86 1.265 2.063-.125.796-.687 1.64-1.078 1.64-.047 0-.094 0-.328-.062a2 2 0 0 0-.437-.063c-.36 0-.704.25-.75.531s.203.454.578.454c.093 0 .172 0 .343-.032.172-.047.329-.062.438-.062.203 0 .297.031.375.11.562.64.781 1.765.578 3-.25 1.483-1.047 2.374-2.156 2.374a2.23 2.23 0 0 1-1.844-.937Zm0 0"/><path id="c" d="m6.875-7.469-2.516 5.14-.062-2.296c-.063-2.297-.422-3.031-1.422-3.031-.437 0-.875.203-1.172.547-.422.468-.547.828-.781 2.093l-.031.188h.328c.093-.406.156-.625.234-.828.266-.485.672-.782 1.11-.782.39 0 .64.25.828.86.218.781.39 2.14.343 3.25L3.72-1.094c-.078.157-.328.625-.75 1.438-.438.828-.594 1.25-.688 1.765-.11.704.125 1.157.61 1.157.609 0 1.14-.75 1.343-1.953.079-.47.11-1.172.141-2.297l4.11-6.485Zm0 0"/><path id="d" d="M1.328-5.203c.61-.766.89-.938 1.61-.938h.687l-.953 3.313c-.11.422-.375.75-.953 1.219-.532.422-.719.656-.766.984-.078.453.219.813.688.813s.89-.344 1.187-.985c.203-.39.656-1.906 1.047-3.422l.5-1.922H6c-.375 1.188-.781 2.797-.922 3.641C4.797-.828 5.203.188 6.11.188c.579 0 1.172-.391 1.657-1.094.265-.422.375-.703.547-1.453h-.36c-.187.718-.531 1.093-1.031 1.093-.297 0-.578-.218-.688-.53-.093-.266-.093-.5-.015-1 .187-1.126.5-2.516.75-3.345h1.875l.219-1.328H3.827c-.797 0-1.094.11-1.61.516-.484.422-.796.86-1.187 1.75Zm0 0"/><path id="e" d="M9.844-3.437c.25 0 .515 0 .515-.297s-.265-.297-.515-.297H1.766c-.25 0-.532 0-.532.297s.282.297.532.297Zm0 0"/><path id="f" d="M8.422-.234c-.844-.078-.938-.203-1.125-1.297L5.89-9.984H5.5L1.172-2.516C-.016-.516-.172-.359-.766-.234V0h2.797v-.234c-.765-.078-.875-.157-.875-.532 0-.28.032-.421.297-.921l.844-1.688h3.297l.297 1.953c.015.14.03.266.03.39 0 .563-.218.704-1.171.798V0h3.672ZM2.609-3.906l2.25-3.89.657 3.89Zm0 0"/><path id="g" d="m9.734-6.953.563-2.969h-.313c-.125.25-.28.328-.578.328-.11 0-.297-.031-.61-.094-.671-.171-1.265-.265-1.75-.265-3.171 0-6.062 3-6.062 6.328 0 2.281 1.61 3.89 3.907 3.89 1.53 0 2.734-.656 4.078-2.218l-.266-.219C7.36-.844 6.5-.406 5.266-.406c-1.657 0-2.61-1.125-2.61-3.063 0-1.781.719-3.578 1.89-4.797.72-.734 1.657-1.14 2.641-1.14 1.375 0 2.141.797 2.282 2.422Zm0 0"/><path id="h" d="M1.938-9.516c.937.094 1.156.204 1.156.61 0 .234-.063.594-.172.953l-1.828 6.61C.828-.485.719-.392-.125-.235V0h3.781C5.406 0 7-.469 8.156-1.297 9.61-2.359 10.453-4 10.453-5.734c0-2.453-1.703-4.016-4.36-4.016H1.939Zm2.734.641c.094-.328.312-.437.922-.437.843 0 1.593.203 2.062.562.735.531 1.14 1.469 1.14 2.656 0 1.61-.624 3.282-1.64 4.297-.875.906-2.093 1.344-3.64 1.344-.688 0-.97-.156-.97-.547 0-.187.063-.531.329-1.422Zm0 0"/><path id="i" d="M-.125 0h4.219c2.343 0 3.953-1.219 3.953-2.984 0-.563-.172-1.078-.5-1.407-.297-.343-.594-.53-1.375-.859 1.062-.25 1.484-.422 1.969-.844.422-.36.64-.86.64-1.468 0-1.422-1.062-2.188-2.984-2.188h-3.86v.234c.938.079 1.157.188 1.157.61 0 .234-.063.594-.172.953l-1.828 6.61C.828-.485.719-.392-.125-.235Zm3.688-4.937c.968 0 1.593.046 1.89.171.61.25.984.907.984 1.72 0 1.608-1.109 2.593-2.921 2.593-.625 0-.97-.219-.97-.625 0-.172.188-.89.532-2.094.188-.672.281-1.015.485-1.765m1.109-3.954c.094-.328.266-.421.86-.421 1.187 0 1.75.515 1.75 1.624 0 .844-.36 1.5-1 1.86-.516.297-1.235.406-2.579.406Zm0 0"/><path id="j" d="M13.047-9.75h-2.5L5.53-2.39l-.828-7.36H2v.234c.75.047 1.11.204 1.11.547 0 .125-.063.344-.157.625-.031.047-.062.219-.125.438-.015.047-.031.11-.047.172L1.187-2.187C.734-.625.517-.328-.266-.234V0h2.954v-.234c-.766-.063-1.063-.25-1.063-.657 0-.156.063-.546.14-.796l1.766-6.47L4.437 0h.25l5.641-8.375-1.937 7.016c-.235.797-.532 1.015-1.5 1.125V0h4.078v-.234C9.953-.328 9.813-.422 9.813-.875c0-.266.03-.453.171-.922l1.829-6.61c.265-.905.343-.968 1.234-1.109Zm0 0"/><path id="k" d="M9.469-9.75H2.047v.234c.922.094 1.156.204 1.156.61 0 .172-.094.687-.172.953l-1.844 6.61C.938-.5.829-.392-.016-.235V0h7.579l.921-2.422-.234-.125c-.703.969-1.094 1.36-1.734 1.656-.563.25-1.578.391-2.688.391-.844 0-1.203-.14-1.203-.5 0-.172.172-.86.547-2.187.187-.657.328-1.141.469-1.72.53.032.984.048 1.172.048.578-.016 1 .078 1.156.234.078.063.11.203.11.453 0 .266-.032.453-.11.781l.312.079 1.016-3.47-.281-.062c-.563 1.266-.703 1.36-2.063 1.422-.172 0-.656.016-1.172.031l.985-3.484c.093-.328.25-.39 1.093-.39 2.344 0 2.86.203 2.86 1.093 0 .188-.016.422-.031.672L9-7.469Zm0 0"/><path id="l" d="M10.86-9.75H7.89v.234c.844.079 1.048.22 1.048.766 0 .172-.032.36-.141.656-.016.047-.031.11-.031.11L7.25-2.297 4.14-9.75H1.735v.234c.704.063 1.016.25 1.282.844L1.234-2.453C.672-.531.547-.36-.296-.234V0h2.952v-.234C1.891-.297 1.61-.47 1.61-.875c0-.203.047-.5.141-.812l1.703-6.297L6.891.219h.265l2.157-7.516c.546-1.922.609-2.016 1.546-2.219Zm0 0"/></defs><path fill="#fff" d="M0 0h575.34v203.93H0Zm0 0"/><path fill="none" stroke="red" stroke-miterlimit="10" stroke-width=".5985" d="M252.29 166.95a16.16 16.16 0 0 0-17.618 7.1"/><use xlink:href="#a" x="233.97" y="163.706" fill="red"/><path fill="none" stroke="red" stroke-miterlimit="10" stroke-width=".5985" d="M381.059 171.285a16.16 16.16 0 0 0-18.735-3.113"/><use xlink:href="#a" x="368.184" y="162.274" fill="red"/><path fill="none" stroke="#00f" stroke-miterlimit="10" stroke-width=".5985" d="M274.973 29.469a16.16 16.16 0 0 0 9.87 7.258"/><use xlink:href="#b" x="266.994" y="47.712" fill="#00f"/><path fill="none" stroke="#00f" stroke-miterlimit="10" stroke-width=".5985" d="M387.727 182.621a18.17 18.17 0 0 0-5.23-12.754"/><use xlink:href="#b" x="390.687" y="175.779" fill="#00f"/><path fill="none" stroke="#00adef" stroke-miterlimit="10" stroke-width=".5985" d="M295.988 35.5a16.2 16.2 0 0 0 6.567-6.031"/><use xlink:href="#c" x="302.835" y="42.386" fill="#00adef"/><path fill="none" stroke="#00adef" stroke-miterlimit="10" stroke-width=".5985" d="M232.96 172.98a18.2 18.2 0 0 0-2.769 9.641"/><use xlink:href="#c" x="217.501" y="176.821" fill="#00adef"/><path fill="none" stroke="#ec008c" stroke-miterlimit="10" stroke-width=".5985" d="M42.832 182.621c0-3.45-.953-6.836-2.75-9.781M45.672 182.621c0-3.973-1.098-7.871-3.168-11.262M537.445 172.84a18.8 18.8 0 0 0-2.75 9.781M535.02 171.36a21.65 21.65 0 0 0-3.165 11.261"/><use xlink:href="#d" x="50.722" y="180.489" fill="#ec008c"/><use xlink:href="#e" x="62.212" y="180.489" fill="#ec008c"/><use xlink:href="#a" x="75.9" y="180.489" fill="#ec008c"/><use xlink:href="#e" x="88.645" y="180.489" fill="#ec008c"/><use xlink:href="#b" x="102.332" y="180.489" fill="#ec008c"/><use xlink:href="#e" x="114.45" y="180.489" fill="#ec008c"/><use xlink:href="#c" x="128.136" y="180.489" fill="#ec008c"/><use xlink:href="#d" x="442.005" y="180.489" fill="#ec008c"/><use xlink:href="#e" x="453.495" y="180.489" fill="#ec008c"/><use xlink:href="#a" x="467.181" y="180.489" fill="#ec008c"/><use xlink:href="#e" x="479.926" y="180.489" fill="#ec008c"/><use xlink:href="#b" x="493.614" y="180.489" fill="#ec008c"/><use xlink:href="#e" x="505.731" y="180.489" fill="#ec008c"/><use xlink:href="#c" x="519.418" y="180.489" fill="#ec008c"/><path fill="none" stroke="#000" stroke-linecap="round" stroke-linejoin="round" stroke-miterlimit="10" stroke-width="1.1955" d="m288.762 21.05-151.157 92.263 110.766 69.308h121.176l70.371-69.308Zm0 0"/><path fill="none" stroke="#000" stroke-linecap="round" stroke-miterlimit="10" stroke-width="1.1955" d="m288.762 21.05-40.39 161.571M288.762 21.05l80.785 161.571"/><path fill="none" stroke="#00b200" stroke-dasharray="4.483245 2.9888250000000003" stroke-linecap="round" stroke-miterlimit="10" stroke-width="1.1955" d="M248.371 182.621H24.055M369.547 182.621h183.926M137.605 113.313 24.055 182.62M439.918 113.313l113.555 69.308"/><path stroke="#000" stroke-miterlimit="10" stroke-width=".5985" d="M290.258 21.05c0-.823-.668-1.491-1.496-1.491-.825 0-1.492.668-1.492 1.492a1.495 1.495 0 1 0 2.988 0ZM139.102 113.313a1.495 1.495 0 1 0-2.986-.001 1.495 1.495 0 0 0 2.986 0ZM249.863 182.621c0-.824-.668-1.492-1.492-1.492a1.494 1.494 0 1 0 1.492 1.492ZM371.043 182.621c0-.824-.668-1.492-1.496-1.492-.824 0-1.492.668-1.492 1.492a1.494 1.494 0 1 0 2.988 0ZM441.414 113.313c0-.825-.672-1.497-1.496-1.497s-1.496.672-1.496 1.497c0 .824.672 1.496 1.496 1.496s1.496-.672 1.496-1.496Zm0 0"/><path fill="#00b200" stroke="#004c00" stroke-miterlimit="10" stroke-width=".5985" d="M25.547 182.621c0-.824-.668-1.492-1.492-1.492a1.495 1.495 0 1 0 0 2.988c.824 0 1.492-.668 1.492-1.496ZM554.965 182.621c0-.824-.668-1.492-1.492-1.492a1.494 1.494 0 1 0 1.492 1.492Zm0 0"/><use xlink:href="#f" x="284.196" y="15.774"/><use xlink:href="#g" x="242.847" y="197.943"/><use xlink:href="#h" x="364.151" y="197.6"/><use xlink:href="#i" x="123.198" y="108.033"/><use xlink:href="#j" x="5.731" y="197.6"/><use xlink:href="#k" x="445.194" y="108.033"/><use xlink:href="#l" x="558.745" y="197.6"/></svg>