<svg xmlns="http://www.w3.org/2000/svg" xmlns:xlink="http://www.w3.org/1999/xlink" width="511.415" height="181.269" viewBox="0 0 383.561 135.952"><defs><path id="a" d="M5.766-4.984 4.89-3.266c-.063-1.203-.563-1.843-1.47-1.843-.452 0-.983.187-1.405.5C1.375-4.141.984-3.422.813-2.437.547-.844 1.188.124 2.484.124c.875 0 1.579-.437 2.141-1.328.016.187.063.36.125.61.172.562.313.718.64.718.329 0 .594-.203.782-.625.11-.234.172-.453.281-1h-.266c-.093.5-.343.875-.593.875-.328 0-.578-.531-.578-1.219l1.64-3.14ZM4.453-2.406l-.344.656c-.515 1.016-.984 1.5-1.484 1.5a.77.77 0 0 1-.703-.484c-.156-.407-.172-1.047-.047-1.766.11-.703.36-1.312.688-1.75.234-.297.484-.437.796-.437.704 0 1.063.578 1.079 1.703Zm0 0"/><path id="b" d="M.672.625a8.4 8.4 0 0 1-.438 1.594h.813c.187-.235.25-.5.375-1.281l.234-1.36c.453.406.875.547 1.453.547 1.188 0 2.157-.875 2.375-2.156.172-1.063-.234-1.813-1.25-2.281.813-.407 1.25-.875 1.344-1.438.156-.89-.61-1.625-1.672-1.625-1.078 0-2.015.703-2.172 1.656Zm1.875-6.453c.125-.688.625-1.188 1.219-1.188.625 0 .984.579.843 1.391-.078.516-.468 1.094-.734 1.094-.031 0-.047 0-.203-.047-.14-.031-.219-.031-.297-.031-.25 0-.453.156-.484.343-.032.188.125.313.375.313.062 0 .109-.016.234-.031.11-.032.219-.047.297-.047.125 0 .187.031.234.078.39.422.532 1.187.39 2-.171 1-.702 1.578-1.437 1.578-.5 0-.968-.219-1.234-.61Zm0 0"/><path id="c" d="M4.594-4.984 2.922-1.562l-.047-1.532c-.062-1.515-.281-2.015-.953-2.015-.297 0-.594.14-.781.359-.282.313-.375.563-.532 1.406l-.03.125h.218c.078-.265.125-.422.172-.562.172-.313.453-.516.734-.516.266 0 .438.172.563.578A8 8 0 0 1 2.5-1.562l-.016.828c-.046.109-.218.422-.5.968-.28.547-.39.829-.453 1.172-.078.469.078.782.407.782.406 0 .75-.516.89-1.313.047-.312.078-.781.078-1.531l2.75-4.328Zm0 0"/><path id="d" d="M.875-3.469c.422-.515.61-.625 1.094-.625h.453l-.64 2.203c-.079.282-.235.5-.626.813-.36.281-.484.437-.515.656a.448.448 0 0 0 .453.547c.312 0 .593-.219.797-.656.125-.25.437-1.266.687-2.281l.344-1.282H4c-.25.782-.516 1.86-.61 2.422C3.204-.547 3.47.125 4.079.125c.39 0 .781-.266 1.11-.734.187-.282.25-.47.359-.97h-.234c-.125.485-.36.735-.704.735-.187 0-.375-.14-.453-.36-.047-.171-.062-.327 0-.655.125-.766.328-1.688.485-2.235h1.265l.14-.89h-3.5c-.53 0-.718.062-1.062.343-.328.282-.546.579-.812 1.172Zm0 0"/><path id="e" d="M6.563-2.297c.171 0 .359 0 .359-.203 0-.187-.188-.187-.36-.187h-5.39c-.172 0-.344 0-.344.187 0 .203.172.203.344.203Zm0 0"/><path id="f" d="M5.625-.156c-.578-.047-.625-.14-.766-.86l-.937-5.64h-.25L.782-1.672C-.017-.344-.11-.234-.517-.156V0H1.36v-.156C.844-.203.766-.266.766-.516c0-.187.03-.265.203-.609L1.53-2.25h2.203l.188 1.297c.015.094.031.187.031.265 0 .375-.14.47-.781.532V0h2.453ZM1.75-2.61l1.484-2.594.438 2.594Zm0 0"/><path id="g" d="m6.5-4.64.375-1.985h-.219c-.078.172-.172.219-.375.219a2 2 0 0 1-.406-.063c-.453-.11-.844-.172-1.172-.172-2.125 0-4.047 2-4.047 4.22 0 1.53 1.078 2.593 2.61 2.593 1.015 0 1.812-.438 2.718-1.484l-.171-.141c-.891.89-1.47 1.187-2.297 1.187-1.11 0-1.735-.765-1.735-2.046 0-1.188.469-2.391 1.25-3.204.485-.484 1.11-.765 1.766-.765.922 0 1.422.547 1.516 1.61Zm0 0"/><path id="h" d="M1.297-6.344c.61.047.766.14.766.407 0 .14-.032.39-.11.64L.734-.89c-.187.579-.25.625-.812.735V0h2.516c1.171 0 2.234-.312 3-.875.968-.703 1.546-1.797 1.546-2.953 0-1.64-1.14-2.688-2.921-2.688H1.297Zm1.828.422c.063-.219.203-.281.61-.281.562 0 1.062.125 1.374.36.5.359.766.984.766 1.78 0 1.079-.422 2.188-1.094 2.86-.593.61-1.406.906-2.437.906-.453 0-.656-.11-.656-.375 0-.125.062-.344.218-.937Zm0 0"/><path id="i" d="M-.078 0h2.812c1.563 0 2.641-.812 2.641-2 0-.36-.125-.719-.344-.937-.203-.22-.39-.344-.922-.563.72-.172 1-.281 1.329-.562q.42-.375.421-.985c0-.937-.703-1.469-1.984-1.469H1.297v.172c.61.047.766.125.766.407 0 .14-.032.39-.11.64L.734-.89c-.187.579-.25.625-.812.735Zm2.453-3.297c.64 0 1.063.031 1.266.11.406.171.656.609.656 1.156 0 1.078-.734 1.734-1.953 1.734-.422 0-.64-.156-.64-.422 0-.125.124-.593.343-1.39.14-.453.203-.688.328-1.188m.75-2.64c.063-.22.172-.266.563-.266.796 0 1.171.328 1.171 1.062 0 .579-.25 1.016-.671 1.25-.344.204-.813.266-1.72.266Zm0 0"/><path id="j" d="M8.703-6.516H7.031L3.688-1.594 3.14-6.516H1.328v.172c.5.032.75.14.75.36 0 .078-.047.234-.11.406a3 3 0 0 0-.077.297.3.3 0 0 0-.032.125L.797-1.453C.484-.422.344-.22-.172-.156V0h1.969v-.156c-.516-.047-.703-.156-.703-.438 0-.11.031-.36.078-.531l1.187-4.312L2.953 0h.172l3.766-5.594L5.609-.906c-.171.531-.359.672-1.015.75V0h2.718v-.156c-.671-.063-.765-.125-.765-.438 0-.156.016-.297.11-.61L7.89-5.608c.172-.594.218-.657.812-.735Zm0 0"/><path id="k" d="M6.313-6.516H1.359v.172c.625.047.782.14.782.407 0 .109-.063.453-.11.64L.797-.89c-.172.563-.25.625-.813.735V0h5.063l.61-1.61-.157-.077c-.469.625-.719.89-1.156 1.093-.36.172-1.047.266-1.797.266-.547 0-.797-.094-.797-.344 0-.11.11-.578.36-1.453.14-.437.218-.766.328-1.14.343.015.656.03.765.03.39-.015.672.047.781.141.047.047.079.14.079.313 0 .172-.032.297-.079.515l.204.047.671-2.312-.171-.032c-.375.844-.47.907-1.375.938-.126 0-.438.016-.797.031l.672-2.328c.046-.219.156-.266.718-.266 1.563 0 1.922.141 1.922.735 0 .125-.016.281-.031.453l.219.016Zm0 0"/><path id="l" d="M7.25-6.516H5.266v.172c.562.047.703.14.703.5 0 .125-.032.235-.094.438-.016.031-.016.078-.016.078L4.83-1.531 2.765-6.516h-1.61v.172c.469.032.672.157.86.547L.828-1.64C.453-.359.375-.234-.203-.156V0H1.78v-.156c-.515-.047-.703-.156-.703-.438 0-.125.031-.328.094-.531l1.125-4.203L4.594.156h.187l1.422-5.015c.375-1.297.422-1.344 1.047-1.485Zm0 0"/></defs><path fill="#fff" d="M0 0h383.563v135.953H0Zm0 0"/><path fill="none" stroke="red" stroke-miterlimit="10" stroke-width=".399" d="M168.191 111.297a10.77 10.77 0 0 0-11.742 4.738"/><use xlink:href="#a" x="155.98" y="109.137" fill="red"/><path fill="none" stroke="red" stroke-miterlimit="10" stroke-width=".399" d="M254.04 114.191a10.775 10.775 0 0 0-12.493-2.078"/><use xlink:href="#a" x="245.456" y="108.183" fill="red"/><path fill="none" stroke="#00f" stroke-miterlimit="10" stroke-width=".399" d="M183.316 19.645a10.78 10.78 0 0 0 6.579 4.84"/><use xlink:href="#b" x="177.996" y="31.808" fill="#00f"/><path fill="none" stroke="#00f" stroke-miterlimit="10" stroke-width=".399" d="M258.484 121.746c0-3.18-1.254-6.234-3.484-8.5"/><use xlink:href="#b" x="260.458" y="117.186" fill="#00f"/><path fill="none" stroke="#00adef" stroke-miterlimit="10" stroke-width=".399" d="M197.324 23.668a10.76 10.76 0 0 0 4.38-4.023"/><use xlink:href="#c" x="201.89" y="28.257" fill="#00adef"/><path fill="none" stroke="#00adef" stroke-miterlimit="10" stroke-width=".399" d="M155.309 115.32a12.1 12.1 0 0 0-1.848 6.43"/><use xlink:href="#c" x="145.001" y="117.881" fill="#00adef"/><path fill="none" stroke="#ec008c" stroke-miterlimit="10" stroke-width=".399" d="M28.555 121.746c0-2.297-.637-4.555-1.836-6.52M30.445 121.746c0-2.644-.73-5.246-2.11-7.504M358.297 115.227a12.5 12.5 0 0 0-1.836 6.52M356.68 114.242a14.4 14.4 0 0 0-2.11 7.504"/><use xlink:href="#d" x="33.815" y="120.326" fill="#ec008c"/><use xlink:href="#e" x="41.475" y="120.326" fill="#ec008c"/><use xlink:href="#a" x="50.6" y="120.326" fill="#ec008c"/><use xlink:href="#e" x="59.097" y="120.326" fill="#ec008c"/><use xlink:href="#b" x="68.221" y="120.326" fill="#ec008c"/><use xlink:href="#e" x="76.3" y="120.326" fill="#ec008c"/><use xlink:href="#c" x="85.424" y="120.326" fill="#ec008c"/><use xlink:href="#d" x="294.67" y="120.326" fill="#ec008c"/><use xlink:href="#e" x="302.33" y="120.326" fill="#ec008c"/><use xlink:href="#a" x="311.454" y="120.326" fill="#ec008c"/><use xlink:href="#e" x="319.951" y="120.326" fill="#ec008c"/><use xlink:href="#b" x="329.076" y="120.326" fill="#ec008c"/><use xlink:href="#e" x="337.154" y="120.326" fill="#ec008c"/><use xlink:href="#c" x="346.279" y="120.326" fill="#ec008c"/><path fill="none" stroke="#000" stroke-linecap="round" stroke-linejoin="round" stroke-miterlimit="10" stroke-width=".797" d="M192.508 14.035 91.738 75.543l73.84 46.203h80.785l46.914-46.203Zm0 0"/><path fill="none" stroke="#000" stroke-linecap="round" stroke-miterlimit="10" stroke-width=".797" d="m192.508 14.035-26.93 107.711M192.508 14.035l53.855 107.711"/><path fill="none" stroke="#00b200" stroke-dasharray="2.98883 1.99255" stroke-linecap="round" stroke-miterlimit="10" stroke-width=".797" d="M165.578 121.746H16.035M246.363 121.746H368.98M91.738 75.543l-75.703 46.203M293.277 75.543l75.703 46.203"/><path stroke="#000" stroke-miterlimit="10" stroke-width=".399" d="M193.504 14.035a.995.995 0 1 0-1.99-.002.995.995 0 0 0 1.99.002ZM92.734 75.543a.995.995 0 1 0-1.99-.002.995.995 0 0 0 1.99.002ZM166.578 121.746c0-.547-.45-.996-1-.996a1 1 0 0 0-.996.996c0 .55.45 1 .996 1 .55 0 1-.45 1-1ZM247.363 121.746c0-.547-.449-.996-1-.996a1 1 0 0 0-.996.996c0 .55.45 1 .996 1 .551 0 1-.45 1-1ZM294.273 75.543a.995.995 0 1 0-1.99-.002.995.995 0 0 0 1.99.002Zm0 0"/><path fill="#00b200" stroke="#004c00" stroke-miterlimit="10" stroke-width=".399" d="M17.031 121.746a1 1 0 0 0-.996-.996.998.998 0 0 0 0 1.996c.55 0 .996-.45.996-1ZM369.977 121.746a1 1 0 0 0-.997-.996.998.998 0 0 0 0 1.996c.551 0 .997-.45.997-1Zm0 0"/><use xlink:href="#f" x="189.464" y="10.516"/><use xlink:href="#g" x="161.898" y="131.962"/><use xlink:href="#h" x="242.767" y="131.733"/><use xlink:href="#i" x="82.132" y="72.022"/><use xlink:href="#j" x="3.821" y="131.733"/><use xlink:href="#k" x="296.796" y="72.022"/><use xlink:href="#l" x="372.497" y="131.733"/></svg>