<svg xmlns="http://www.w3.org/2000/svg" xmlns:xlink="http://www.w3.org/1999/xlink" width="319.648" height="231.689" viewBox="0 0 239.736 173.767"><defs><path id="a" d="M5.766-4.984 4.89-3.266c-.063-1.203-.563-1.843-1.47-1.843-.452 0-.983.187-1.405.5C1.375-4.141.984-3.422.813-2.437.547-.844 1.188.124 2.484.124c.875 0 1.579-.437 2.141-1.328.016.187.063.36.125.61.172.562.313.718.64.718.329 0 .594-.203.782-.625.11-.234.172-.453.281-1h-.266c-.093.5-.343.875-.593.875-.328 0-.578-.531-.578-1.219l1.64-3.14ZM4.453-2.406l-.344.656c-.515 1.016-.984 1.5-1.484 1.5a.77.77 0 0 1-.703-.484c-.156-.407-.172-1.047-.047-1.766.11-.703.36-1.312.688-1.75.234-.297.484-.437.796-.437.704 0 1.063.578 1.079 1.703Zm0 0"/><path id="b" d="M.672.625a8.4 8.4 0 0 1-.438 1.594h.813c.187-.235.25-.5.375-1.281l.234-1.36c.453.406.875.547 1.453.547 1.188 0 2.157-.875 2.375-2.156.172-1.063-.234-1.813-1.25-2.281.813-.407 1.25-.875 1.344-1.438.156-.89-.61-1.625-1.672-1.625-1.078 0-2.015.703-2.172 1.656Zm1.875-6.453c.125-.688.625-1.188 1.219-1.188.625 0 .984.579.843 1.391-.078.516-.468 1.094-.734 1.094-.031 0-.047 0-.203-.047-.14-.031-.219-.031-.297-.031-.25 0-.453.156-.484.343-.032.188.125.313.375.313.062 0 .109-.016.234-.031.11-.032.219-.047.297-.047.125 0 .187.031.234.078.39.422.532 1.187.39 2-.171 1-.702 1.578-1.437 1.578-.5 0-.968-.219-1.234-.61Zm0 0"/><path id="c" d="M4.594-4.984 2.922-1.562l-.047-1.532c-.062-1.515-.281-2.015-.953-2.015-.297 0-.594.14-.781.359-.282.313-.375.563-.532 1.406l-.03.125h.218c.078-.265.125-.422.172-.562.172-.313.453-.516.734-.516.266 0 .438.172.563.578A8 8 0 0 1 2.5-1.562l-.016.828c-.046.109-.218.422-.5.968-.28.547-.39.829-.453 1.172-.078.469.078.782.407.782.406 0 .75-.516.89-1.313.047-.312.078-.781.078-1.531l2.75-4.328Zm0 0"/><path id="d" d="M5.625-.156c-.578-.047-.625-.14-.766-.86l-.937-5.64h-.25L.782-1.672C-.017-.344-.11-.234-.517-.156V0H1.36v-.156C.844-.203.766-.266.766-.516c0-.187.03-.265.203-.609L1.53-2.25h2.203l.188 1.297c.015.094.031.187.031.265 0 .375-.14.47-.781.532V0h2.453ZM1.75-2.61l1.484-2.594.438 2.594Zm0 0"/><path id="e" d="M6.438-6.516h-4.97v.172c.641.047.766.11.766.407 0 .14-.046.39-.109.64L.891-.89c-.172.594-.25.657-.813.735V0h2.516v-.156c-.578-.031-.766-.14-.766-.438 0-.078.031-.234.094-.453l.625-2.219c.36.016.578.032.797.032.39 0 .469 0 .547.046.156.079.218.204.218.407 0 .156-.015.281-.078.594l.172.046.766-2.328-.188-.062c-.437.906-.468.906-2.156.937l.672-2.328c.047-.203.187-.266.594-.266 1.687 0 2.047.141 2.047.75 0 .063 0 .11-.016.25-.016.047-.016.063-.016.188l.203.016Zm0 0"/><path id="f" d="M-.078 0h2.812c1.563 0 2.641-.812 2.641-2 0-.36-.125-.719-.344-.937-.203-.22-.39-.344-.922-.563.72-.172 1-.281 1.329-.562q.42-.375.421-.985c0-.937-.703-1.469-1.984-1.469H1.297v.172c.61.047.766.125.766.407 0 .14-.032.39-.11.64L.734-.89c-.187.579-.25.625-.812.735Zm2.453-3.297c.64 0 1.063.031 1.266.11.406.171.656.609.656 1.156 0 1.078-.734 1.734-1.953 1.734-.422 0-.64-.156-.64-.422 0-.125.124-.593.343-1.39.14-.453.203-.688.328-1.188m.75-2.64c.063-.22.172-.266.563-.266.796 0 1.171.328 1.171 1.062 0 .579-.25 1.016-.671 1.25-.344.204-.813.266-1.72.266Zm0 0"/><path id="g" d="M6.313-6.516H1.359v.172c.625.047.782.14.782.407 0 .109-.063.453-.11.64L.797-.89c-.172.563-.25.625-.813.735V0h5.063l.61-1.61-.157-.077c-.469.625-.719.89-1.156 1.093-.36.172-1.047.266-1.797.266-.547 0-.797-.094-.797-.344 0-.11.11-.578.36-1.453.14-.437.218-.766.328-1.14.343.015.656.03.765.03.39-.015.672.047.781.141.047.047.079.14.079.313 0 .172-.032.297-.079.515l.204.047.671-2.312-.171-.032c-.375.844-.47.907-1.375.938-.126 0-.438.016-.797.031l.672-2.328c.046-.219.156-.266.718-.266 1.563 0 1.922.141 1.922.735 0 .125-.016.281-.031.453l.219.016Zm0 0"/><path id="h" d="m6.5-4.64.375-1.985h-.219c-.078.172-.172.219-.375.219a2 2 0 0 1-.406-.063c-.453-.11-.844-.172-1.172-.172-2.125 0-4.047 2-4.047 4.22 0 1.53 1.078 2.593 2.61 2.593 1.015 0 1.812-.438 2.718-1.484l-.171-.141c-.891.89-1.47 1.187-2.297 1.187-1.11 0-1.735-.765-1.735-2.046 0-1.188.469-2.391 1.25-3.204.485-.484 1.11-.765 1.766-.765.922 0 1.422.547 1.516 1.61Zm0 0"/><path id="i" d="M1.297-6.344c.61.047.766.14.766.407 0 .14-.032.39-.11.64L.734-.89c-.187.579-.25.625-.812.735V0h2.516c1.171 0 2.234-.312 3-.875.968-.703 1.546-1.797 1.546-2.953 0-1.64-1.14-2.688-2.921-2.688H1.297Zm1.828.422c.063-.219.203-.281.61-.281.562 0 1.062.125 1.374.36.5.359.766.984.766 1.78 0 1.079-.422 2.188-1.094 2.86-.593.61-1.406.906-2.437.906-.453 0-.656-.11-.656-.375 0-.125.062-.344.218-.937Zm0 0"/></defs><path fill="#fff" d="M0 0h239.734v173.766H0Zm0 0"/><path fill="none" stroke="red" stroke-miterlimit="10" stroke-width=".399" d="M93.906 116.422a11.34 11.34 0 0 0-12.36 4.984"/><use xlink:href="#a" x="81.24" y="114.022" fill="red"/><path fill="none" stroke="red" stroke-miterlimit="10" stroke-width=".399" d="M184.277 119.465a11.34 11.34 0 0 0-13.148-2.184"/><use xlink:href="#a" x="175.428" y="113.018" fill="red"/><path fill="none" stroke="#00f" stroke-miterlimit="10" stroke-width=".399" d="M109.828 19.941a11.35 11.35 0 0 0 6.926 5.094"/><use xlink:href="#b" x="104.405" y="32.608" fill="#00f"/><path fill="none" stroke="#00f" stroke-miterlimit="10" stroke-width=".399" d="M164.86 127.422a11.34 11.34 0 0 0 3.261 7.957"/><use xlink:href="#b" x="155.802" y="136.992" fill="#00f"/><path fill="none" stroke="#00adef" stroke-miterlimit="10" stroke-width=".399" d="M124.574 24.176a11.4 11.4 0 0 0 4.61-4.235"/><use xlink:href="#c" x="129.51" y="28.936" fill="#00adef"/><path fill="none" stroke="#00adef" stroke-miterlimit="10" stroke-width=".399" d="M100.77 133.434a11.3 11.3 0 0 0 1.726-6.012"/><use xlink:href="#c" x="106.407" y="133.84" fill="#00adef"/><path fill="none" stroke="#ff7f00" stroke-miterlimit="10" stroke-width=".399" d="M24.598 85.77a13.17 13.17 0 0 0 .074-13.852"/><path fill="none" stroke="#ff7f00" stroke-miterlimit="10" stroke-width=".399" d="M26.285 86.828a15.17 15.17 0 0 0 .09-15.95M170.305 115.637a13.18 13.18 0 0 0-7.285 11.785"/><path fill="none" stroke="#ff7f00" stroke-miterlimit="10" stroke-width=".399" d="M169.414 113.855a15.17 15.17 0 0 0-8.387 13.567"/><path fill="none" stroke="#ec008c" stroke-miterlimit="10" stroke-width=".399" d="M213.484 71.398a14.175 14.175 0 0 0 2 17.329"/><path fill="none" stroke="#ec008c" stroke-miterlimit="10" stroke-width=".399" d="M214.336 71.918a13.18 13.18 0 0 0 1.86 16.11"/><path fill="none" stroke="#ec008c" stroke-miterlimit="10" stroke-width=".399" d="M212.637 70.879a15.16 15.16 0 0 0 2.14 18.547M105.332 127.422c0-6.504-4.43-12.176-10.738-13.75"/><path fill="none" stroke="#ec008c" stroke-miterlimit="10" stroke-width=".399" d="M104.336 127.422a13.18 13.18 0 0 0-9.98-12.785"/><path fill="none" stroke="#ec008c" stroke-miterlimit="10" stroke-width=".399" d="M106.328 127.422c0-6.961-4.738-13.031-11.492-14.719"/><path fill="none" stroke="#000" stroke-linecap="round" stroke-linejoin="round" stroke-miterlimit="10" stroke-width=".797" d="M119.504 14.035 13.426 78.781l77.73 48.64H176.2l49.383-48.64Zm0 0"/><path fill="none" stroke="#000" stroke-linecap="round" stroke-miterlimit="10" stroke-width=".797" d="M119.504 14.035 91.156 127.422M119.504 14.035l56.695 113.387"/><path fill="none" stroke="#00b200" stroke-dasharray="2.98883 1.99255" stroke-linecap="round" stroke-miterlimit="10" stroke-width=".797" d="m91.156 127.422 52.004 32.539M176.2 127.422l-33.04 32.539"/><path stroke="#000" stroke-miterlimit="10" stroke-width=".399" d="M120.5 14.035a.995.995 0 1 0-1.99-.002.995.995 0 0 0 1.99.002ZM14.422 78.781a.995.995 0 1 0-1.99-.001.995.995 0 0 0 1.99.001ZM92.152 127.422a.995.995 0 1 0-1.99-.002.995.995 0 0 0 1.99.002ZM177.195 127.422a.995.995 0 1 0-1.99-.002.995.995 0 0 0 1.99.002ZM226.578 78.781a.995.995 0 1 0-1.99-.001.995.995 0 0 0 1.99.001Zm0 0"/><path fill="#00b200" stroke="#004c00" stroke-miterlimit="10" stroke-width=".399" d="M144.156 159.96a.995.995 0 1 0-1.99 0 .995.995 0 0 0 1.99 0Zm0 0"/><use xlink:href="#d" x="116.461" y="10.516"/><use xlink:href="#e" x="139.697" y="169.946"/><use xlink:href="#f" x="3.821" y="82.014"/><use xlink:href="#g" x="229.101" y="82.014"/><use xlink:href="#h" x="80.774" y="137.636"/><use xlink:href="#i" x="179.717" y="137.407"/></svg>