<svg xmlns="http://www.w3.org/2000/svg" xmlns:xlink="http://www.w3.org/1999/xlink" width="479.472" height="347.534" viewBox="0 0 359.604 260.651"><defs><path id="a" d="M8.656-7.469 7.312-4.906c-.078-1.797-.828-2.75-2.187-2.75-.687 0-1.469.281-2.11.75-.953.703-1.546 1.781-1.796 3.265C.829-1.266 1.766.188 3.703.188c1.313 0 2.39-.672 3.219-2 .031.28.094.562.187.937.266.828.485 1.063.954 1.063.5 0 .89-.313 1.187-.938.172-.344.266-.672.422-1.5h-.39c-.157.75-.532 1.313-.907 1.313-.5 0-.844-.797-.86-1.829l2.47-4.703Zm-2 3.875-.5.969c-.765 1.516-1.5 2.25-2.234 2.25-.469 0-.89-.297-1.047-.734-.234-.61-.25-1.547-.062-2.625.171-1.078.53-1.985 1.03-2.641.345-.437.72-.64 1.188-.64 1.063 0 1.594.843 1.625 2.546Zm0 0"/><path id="b" d="M1.031.922C.906 1.719.61 2.75.36 3.312h1.235c.234-.343.36-.75.547-1.906l.343-2.031c.688.594 1.313.813 2.172.813 1.782 0 3.219-1.313 3.547-3.235.266-1.594-.328-2.719-1.86-3.422 1.235-.61 1.891-1.297 2.032-2.156.219-1.328-.937-2.422-2.531-2.422-1.61 0-2.985 1.047-3.219 2.469Zm2.797-9.64C4-9.767 4.75-10.5 5.641-10.5c.937 0 1.468.86 1.265 2.063-.125.796-.687 1.64-1.078 1.64-.047 0-.094 0-.328-.062a2 2 0 0 0-.437-.063c-.36 0-.704.25-.75.531s.203.454.578.454c.093 0 .172 0 .343-.032.172-.047.329-.062.438-.062.203 0 .297.031.375.11.562.64.781 1.765.578 3-.25 1.483-1.047 2.374-2.156 2.374a2.23 2.23 0 0 1-1.844-.937Zm0 0"/><path id="c" d="m6.875-7.469-2.516 5.14-.062-2.296c-.063-2.297-.422-3.031-1.422-3.031-.437 0-.875.203-1.172.547-.422.468-.547.828-.781 2.093l-.031.188h.328c.093-.406.156-.625.234-.828.266-.485.672-.782 1.11-.782.39 0 .64.25.828.86.218.781.39 2.14.343 3.25L3.72-1.094c-.078.157-.328.625-.75 1.438-.438.828-.594 1.25-.688 1.765-.11.704.125 1.157.61 1.157.609 0 1.14-.75 1.343-1.953.079-.47.11-1.172.141-2.297l4.11-6.485Zm0 0"/><path id="d" d="M8.422-.234c-.844-.078-.938-.203-1.125-1.297L5.89-9.984H5.5L1.172-2.516C-.016-.516-.172-.359-.766-.234V0h2.797v-.234c-.765-.078-.875-.157-.875-.532 0-.28.032-.421.297-.921l.844-1.688h3.297l.297 1.953c.015.14.03.266.03.39 0 .563-.218.704-1.171.798V0h3.672ZM2.609-3.906l2.25-3.89.657 3.89Zm0 0"/><path id="e" d="M9.64-9.75H2.204v.234c.969.094 1.14.188 1.14.61 0 .234-.062.594-.155.953l-1.844 6.61C1.078-.454.969-.36.125-.235V0h3.766v-.234C3.016-.281 2.75-.454 2.75-.891c0-.125.047-.343.14-.671l.922-3.344c.547.031.876.047 1.204.047.578 0 .687.015.828.078.218.125.328.312.328.61 0 .25-.031.421-.125.89l.25.062 1.14-3.484-.265-.078c-.672 1.343-.719 1.36-3.234 1.39l.984-3.484c.094-.297.312-.39.922-.39 2.5 0 3.047.203 3.047 1.124 0 .094 0 .157-.016.36-.016.093-.016.11-.031.281l.312.031Zm0 0"/><path id="f" d="M-.125 0h4.219c2.343 0 3.953-1.219 3.953-2.984 0-.563-.172-1.078-.5-1.407-.297-.343-.594-.53-1.375-.859 1.062-.25 1.484-.422 1.969-.844.422-.36.64-.86.64-1.468 0-1.422-1.062-2.188-2.984-2.188h-3.86v.234c.938.079 1.157.188 1.157.61 0 .234-.063.594-.172.953l-1.828 6.61C.828-.485.719-.392-.125-.235Zm3.688-4.937c.968 0 1.593.046 1.89.171.61.25.984.907.984 1.72 0 1.608-1.109 2.593-2.921 2.593-.625 0-.97-.219-.97-.625 0-.172.188-.89.532-2.094.188-.672.281-1.015.485-1.765m1.109-3.954c.094-.328.266-.421.86-.421 1.187 0 1.75.515 1.75 1.624 0 .844-.36 1.5-1 1.86-.516.297-1.235.406-2.579.406Zm0 0"/><path id="g" d="M9.469-9.75H2.047v.234c.922.094 1.156.204 1.156.61 0 .172-.094.687-.172.953l-1.844 6.61C.938-.5.829-.392-.016-.235V0h7.579l.921-2.422-.234-.125c-.703.969-1.094 1.36-1.734 1.656-.563.25-1.578.391-2.688.391-.844 0-1.203-.14-1.203-.5 0-.172.172-.86.547-2.187.187-.657.328-1.141.469-1.72.53.032.984.048 1.172.048.578-.016 1 .078 1.156.234.078.063.11.203.11.453 0 .266-.032.453-.11.781l.312.079 1.016-3.47-.281-.062c-.563 1.266-.703 1.36-2.063 1.422-.172 0-.656.016-1.172.031l.985-3.484c.093-.328.25-.39 1.093-.39 2.344 0 2.86.203 2.86 1.093 0 .188-.016.422-.031.672L9-7.469Zm0 0"/><path id="h" d="m9.734-6.953.563-2.969h-.313c-.125.25-.28.328-.578.328-.11 0-.297-.031-.61-.094-.671-.171-1.265-.265-1.75-.265-3.171 0-6.062 3-6.062 6.328 0 2.281 1.61 3.89 3.907 3.89 1.53 0 2.734-.656 4.078-2.218l-.266-.219C7.36-.844 6.5-.406 5.266-.406c-1.657 0-2.61-1.125-2.61-3.063 0-1.781.719-3.578 1.89-4.797.72-.734 1.657-1.14 2.641-1.14 1.375 0 2.141.797 2.282 2.422Zm0 0"/><path id="i" d="M1.938-9.516c.937.094 1.156.204 1.156.61 0 .234-.063.594-.172.953l-1.828 6.61C.828-.485.719-.392-.125-.235V0h3.781C5.406 0 7-.469 8.156-1.297 9.61-2.359 10.453-4 10.453-5.734c0-2.453-1.703-4.016-4.36-4.016H1.939Zm2.734.641c.094-.328.312-.437.922-.437.843 0 1.593.203 2.062.562.735.531 1.14 1.469 1.14 2.656 0 1.61-.624 3.282-1.64 4.297-.875.906-2.093 1.344-3.64 1.344-.688 0-.97-.156-.97-.547 0-.187.063-.531.329-1.422Zm0 0"/></defs><path fill="#fff" d="M0 0h359.605v260.652H0Zm0 0"/><path fill="none" stroke="red" stroke-miterlimit="10" stroke-width=".5985" d="M140.863 174.633a17 17 0 0 0-18.543 7.476"/><use xlink:href="#a" x="121.86" y="171.033" fill="red"/><path fill="none" stroke="red" stroke-miterlimit="10" stroke-width=".5985" d="M276.414 179.2a17 17 0 0 0-19.723-3.278"/><use xlink:href="#a" x="263.142" y="169.527" fill="red"/><path fill="none" stroke="#00f" stroke-miterlimit="10" stroke-width=".5985" d="M164.742 29.91a17 17 0 0 0 10.39 7.64"/><use xlink:href="#b" x="156.607" y="48.912" fill="#00f"/><path fill="none" stroke="#00f" stroke-miterlimit="10" stroke-width=".5985" d="M247.29 191.133c0 4.465 1.757 8.75 4.89 11.933"/><use xlink:href="#b" x="233.703" y="205.488" fill="#00f"/><path fill="none" stroke="#00adef" stroke-miterlimit="10" stroke-width=".5985" d="M186.863 36.262a17 17 0 0 0 6.91-6.352"/><use xlink:href="#c" x="194.265" y="43.404" fill="#00adef"/><path fill="none" stroke="#00adef" stroke-miterlimit="10" stroke-width=".5985" d="M151.152 200.152a17 17 0 0 0 2.594-9.02"/><use xlink:href="#c" x="159.611" y="200.76" fill="#00adef"/><path fill="none" stroke="#ff7f00" stroke-miterlimit="10" stroke-width=".5985" d="M36.895 128.656a19.77 19.77 0 0 0 .117-20.781"/><path fill="none" stroke="#ff7f00" stroke-miterlimit="10" stroke-width=".5985" d="M39.43 130.242a22.76 22.76 0 0 0 .133-23.926M255.457 173.453a19.77 19.77 0 0 0-10.926 17.68"/><path fill="none" stroke="#ff7f00" stroke-miterlimit="10" stroke-width=".5985" d="M254.121 170.781a22.75 22.75 0 0 0-12.578 20.352"/><path fill="none" stroke="#ec008c" stroke-miterlimit="10" stroke-width=".5985" d="M320.23 107.098a21.26 21.26 0 0 0 2.997 25.992"/><path fill="none" stroke="#ec008c" stroke-miterlimit="10" stroke-width=".5985" d="M321.504 107.875a19.766 19.766 0 0 0 2.789 24.164"/><path fill="none" stroke="#ec008c" stroke-miterlimit="10" stroke-width=".5985" d="M318.953 106.316a22.76 22.76 0 0 0 3.211 27.82M157.996 191.133c0-9.754-6.64-18.262-16.101-20.625"/><path fill="none" stroke="#ec008c" stroke-miterlimit="10" stroke-width=".5985" d="M156.504 191.133c0-9.07-6.176-16.977-14.973-19.176"/><path fill="none" stroke="#ec008c" stroke-miterlimit="10" stroke-width=".5985" d="M159.492 191.133c0-10.442-7.11-19.543-17.238-22.078"/><path fill="none" stroke="#000" stroke-linecap="round" stroke-linejoin="round" stroke-miterlimit="10" stroke-width="1.1955" d="M179.258 21.05 20.14 118.173l116.597 72.96h127.559l74.078-72.96Zm0 0"/><path fill="none" stroke="#000" stroke-linecap="round" stroke-miterlimit="10" stroke-width="1.1955" d="m179.258 21.05-42.52 170.083M179.258 21.05l85.039 170.083"/><path fill="none" stroke="#00b200" stroke-dasharray="4.483245 2.9888250000000003" stroke-linecap="round" stroke-miterlimit="10" stroke-width="1.1955" d="m136.738 191.133 78.004 48.808M264.297 191.133l-49.555 48.808"/><path stroke="#000" stroke-miterlimit="10" stroke-width=".5985" d="M180.75 21.05c0-.823-.668-1.495-1.492-1.495s-1.496.672-1.496 1.496.672 1.496 1.496 1.496 1.492-.672 1.492-1.496ZM21.633 118.172c0-.824-.668-1.496-1.492-1.496-.825 0-1.496.672-1.496 1.496a1.495 1.495 0 0 0 2.988 0ZM138.23 191.133a1.494 1.494 0 1 0-2.99-.005 1.494 1.494 0 0 0 2.99.005ZM265.793 191.133a1.493 1.493 0 1 0-2.988 0c0 .824.668 1.492 1.492 1.492s1.496-.668 1.496-1.492ZM339.867 118.172c0-.824-.668-1.496-1.492-1.496s-1.496.672-1.496 1.496a1.495 1.495 0 0 0 2.988 0Zm0 0"/><path fill="#00b200" stroke="#004c00" stroke-miterlimit="10" stroke-width=".5985" d="M216.234 239.941c0-.824-.668-1.492-1.492-1.492-.828 0-1.496.668-1.496 1.492 0 .825.668 1.496 1.496 1.496.824 0 1.492-.671 1.492-1.496Zm0 0"/><use xlink:href="#d" x="174.691" y="15.774"/><use xlink:href="#e" x="209.546" y="254.919"/><use xlink:href="#f" x="5.731" y="123.021"/><use xlink:href="#g" x="343.651" y="123.021"/><use xlink:href="#h" x="121.161" y="206.454"/><use xlink:href="#i" x="269.575" y="206.111"/></svg>