<svg xmlns="http://www.w3.org/2000/svg" xmlns:xlink="http://www.w3.org/1999/xlink" width="495.588" height="448.646" viewBox="0 0 371.691 336.485"><defs><path id="b" d="M10.781-9.75H7.47v.234c.172.016.343.047.406.047.36.031.5.125.5.281 0 .36-.812 1.172-2.14 2.094L3.952-5.516l.797-2.89c.219-.75.625-1.047 1.516-1.11v-.234H2.188v.234c.921.094 1.14.204 1.14.641 0 .219-.062.563-.156.922l-1.844 6.61C1.062-.454.984-.376.11-.235V0h3.704v-.234c-.938-.11-1.079-.203-1.079-.657 0-.156.032-.296.125-.593l.079-.313.937-3.406 1.797 3.11c.36.609.578 1.14.578 1.421 0 .219-.219.344-.687.39-.079 0-.25.016-.438.048V0h4.11v-.234c-.938-.094-1.032-.141-1.454-.844L5.188-5.594l4.484-3.39c.406-.313.75-.47 1.11-.532Zm0 0"/><path id="f" d="M-.125 0h4.219c2.343 0 3.953-1.219 3.953-2.984 0-.563-.172-1.078-.5-1.407-.297-.343-.594-.53-1.375-.859 1.062-.25 1.484-.422 1.969-.844.422-.36.64-.86.64-1.468 0-1.422-1.062-2.188-2.984-2.188h-3.86v.234c.938.079 1.157.188 1.157.61 0 .234-.063.594-.172.953l-1.828 6.61C.828-.485.719-.392-.125-.235Zm3.688-4.937c.968 0 1.593.046 1.89.171.61.25.984.907.984 1.72 0 1.608-1.109 2.593-2.921 2.593-.625 0-.97-.219-.97-.625 0-.172.188-.89.532-2.094.188-.672.281-1.015.485-1.765m1.109-3.954c.094-.328.266-.421.86-.421 1.187 0 1.75.515 1.75 1.624 0 .844-.36 1.5-1 1.86-.516.297-1.235.406-2.579.406Zm0 0"/><path id="g" d="M1.938-9.516c.937.094 1.156.204 1.156.61 0 .234-.063.594-.172.953l-1.828 6.61C.828-.485.719-.392-.125-.235V0h3.781C5.406 0 7-.469 8.156-1.297 9.61-2.359 10.453-4 10.453-5.734c0-2.453-1.703-4.016-4.36-4.016H1.939Zm2.734.641c.094-.328.312-.437.922-.437.843 0 1.593.203 2.062.562.735.531 1.14 1.469 1.14 2.656 0 1.61-.624 3.282-1.64 4.297-.875.906-2.093 1.344-3.64 1.344-.688 0-.97-.156-.97-.547 0-.187.063-.531.329-1.422Zm0 0"/><path id="h" d="m9.734-6.953.563-2.969h-.313c-.125.25-.28.328-.578.328-.11 0-.297-.031-.61-.094-.671-.171-1.265-.265-1.75-.265-3.171 0-6.062 3-6.062 6.328 0 2.281 1.61 3.89 3.907 3.89 1.53 0 2.734-.656 4.078-2.218l-.266-.219C7.36-.844 6.5-.406 5.266-.406c-1.657 0-2.61-1.125-2.61-3.063 0-1.781.719-3.578 1.89-4.797.72-.734 1.657-1.14 2.641-1.14 1.375 0 2.141.797 2.282 2.422Zm0 0"/><path id="i" d="M9.469-9.75H2.047v.234c.922.094 1.156.204 1.156.61 0 .172-.094.687-.172.953l-1.844 6.61C.938-.5.829-.392-.016-.235V0h7.579l.921-2.422-.234-.125c-.703.969-1.094 1.36-1.734 1.656-.563.25-1.578.391-2.688.391-.844 0-1.203-.14-1.203-.5 0-.172.172-.86.547-2.187.187-.657.328-1.141.469-1.72.53.032.984.048 1.172.048.578-.016 1 .078 1.156.234.078.063.11.203.11.453 0 .266-.032.453-.11.781l.312.079 1.016-3.47-.281-.062c-.563 1.266-.703 1.36-2.063 1.422-.172 0-.656.016-1.172.031l.985-3.484c.093-.328.25-.39 1.093-.39 2.344 0 2.86.203 2.86 1.093 0 .188-.016.422-.031.672L9-7.469Zm0 0"/><path id="j" d="M9.64-9.75H2.204v.234c.969.094 1.14.188 1.14.61 0 .234-.062.594-.155.953l-1.844 6.61C1.078-.454.969-.36.125-.235V0h3.766v-.234C3.016-.281 2.75-.454 2.75-.891c0-.125.047-.343.14-.671l.922-3.344c.547.031.876.047 1.204.047.578 0 .687.015.828.078.218.125.328.312.328.61 0 .25-.031.421-.125.89l.25.062 1.14-3.484-.265-.078c-.672 1.343-.719 1.36-3.234 1.39l.984-3.484c.094-.297.312-.39.922-.39 2.5 0 3.047.203 3.047 1.124 0 .094 0 .157-.016.36-.016.093-.016.11-.031.281l.312.031Zm0 0"/><path id="k" d="M4.172.234C5.312.172 5.89.016 6.719-.453c2.218-1.234 3.718-3.656 3.718-6.016 0-2.015-1.437-3.484-3.421-3.484-1.188 0-2.532.625-3.735 1.687-1.5 1.407-2.39 3.22-2.39 4.97 0 1.218.453 2.234 1.265 2.859.39.312.719.468 1.375.609C2.171 1.375 2.031 1.5.875 2.297l.156.234a3.36 3.36 0 0 1 1.719-.469c.297 0 .734.094 1.39.266.907.25 1.72.406 2.266.406.828 0 1.875-.39 2.625-.984.36-.266.563-.484.953-1.016L9.75.563c-.828.875-1.437 1.156-2.516 1.156-.39 0-.703-.063-1.843-.328-.782-.203-1.485-.328-1.563-.313-.062.016-.094.016-.094.016H3.36Zm2.781-9.687c1.188 0 1.922.86 1.922 2.281 0 1.578-.703 3.781-1.656 5.156C6.39-.844 5.469-.25 4.375-.25c-1.203 0-1.906-.922-1.906-2.484 0-1.422.734-3.641 1.64-4.938.829-1.219 1.75-1.781 2.844-1.781m0 0"/><path id="l" d="M2.188-9.516c.843.11 1.046.235 1.046.625 0 .22-.046.532-.25 1.204L1.22-1.344C.953-.454.844-.359 0-.234V0h3.656v-.234C2.72-.375 2.641-.422 2.641-.922c0-.187.03-.328.187-.875l.781-2.875c.375.094.766.11 1.375.11 1.235 0 2.235-.25 2.875-.704.75-.562 1.172-1.375 1.172-2.265 0-1.438-1.11-2.219-3.14-2.219H2.188Zm2.625.625c.093-.312.265-.421.687-.421.578 0 1.14.156 1.453.359.375.281.547.719.547 1.422 0 .968-.344 1.656-1 2.047-.469.25-1.047.375-1.969.375-.265 0-.375-.016-.781-.079Zm0 0"/><path id="m" d="M8.422-.234c-.844-.078-.938-.203-1.125-1.297L5.89-9.984H5.5L1.172-2.516C-.016-.516-.172-.359-.766-.234V0h2.797v-.234c-.765-.078-.875-.157-.875-.532 0-.28.032-.421.297-.921l.844-1.688h3.297l.297 1.953c.015.14.03.266.03.39 0 .563-.218.704-1.171.798V0h3.672ZM2.609-3.906l2.25-3.89.657 3.89Zm0 0"/><path id="n" d="M9.453-9.75H1.516L.875-7.453l.281.062C1.938-9 2.422-9.266 4.703-9.234l-2.156 7.89C2.312-.547 1.953-.312.969-.234V0h4.328v-.234c-.25-.016-.469-.047-.563-.047-.593-.047-.78-.188-.78-.625 0-.203.046-.375.187-.89l2.078-7.438h.812c1.078 0 1.563.375 1.563 1.218 0 .188-.016.407-.047.672l.25.032Zm0 0"/><path id="o" d="m6.984-6.984.61-2.985H7.25c-.219.313-.344.39-.672.39-.187 0-.344-.046-.687-.155-.328-.141-.813-.22-1.282-.22-1.546 0-2.656 1.032-2.656 2.5 0 .813.234 1.235 1.125 2.188.14.141.328.344.578.641.266.281.485.5.594.625.688.734.89 1.11.89 1.766C5.14-1.125 4.298-.25 3.22-.25c-1.25 0-2.188-1.062-2.188-2.484 0-.125.016-.235.032-.344L.766-3.11.25.219h.266c.109-.344.28-.485.578-.485.156 0 .39.063.765.188.688.25 1.094.344 1.563.344 1.719 0 3.016-1.297 3.016-2.985 0-.969-.344-1.547-1.688-2.906S3.266-7.203 3.266-7.937c0-.938.64-1.516 1.656-1.516.547 0 1.016.187 1.328.547.328.375.438.89.469 1.875Zm0 0"/><path id="c" d="M4.938 3.578c0-.031 0-.062-.25-.328-1.86-1.875-2.344-4.703-2.344-6.984 0-2.594.562-5.203 2.406-7.063.188-.187.188-.219.188-.25 0-.11-.047-.156-.141-.156-.156 0-1.5 1.015-2.375 2.906-.766 1.656-.938 3.313-.938 4.563 0 1.172.157 2.968.985 4.656.89 1.844 2.172 2.812 2.328 2.812.094 0 .14-.046.14-.156m0 0"/><path id="e" d="M4.313-3.734c0-1.172-.157-2.97-.985-4.657-.89-1.843-2.172-2.812-2.328-2.812-.094 0-.156.062-.156.156 0 .031 0 .063.297.344C2.594-9.234 3.453-6.86 3.453-3.734c0 2.547-.562 5.187-2.406 7.062-.203.188-.203.219-.203.25 0 .094.062.156.156.156.156 0 1.5-1.015 2.375-2.906.766-1.656.938-3.312.938-4.562m0 0"/><path id="d" d="M2.797-5.25c.062-.14.094-.234.094-.344 0-.328-.282-.593-.625-.593-.313 0-.5.218-.578.5L.359-.86c0 .03-.03.156-.03.156 0 .125.28.203.374.203.063 0 .078-.031.14-.172Zm0 0"/><clipPath id="a"><path d="M121 29h250.691v266H121Zm0 0"/></clipPath></defs><path fill="#fff" d="M0 0h371.691v336.484H0Zm0 0"/><path fill="#0f0" fill-opacity=".3" d="m98.598 26.215 54.629 79.832-10.63 85.844Zm0 0"/><path fill="#fff200" fill-opacity=".3" d="m142.598 191.89-6.59 53.235-35.93 31.805Zm0 0"/><path fill="none" stroke="#000" stroke-linecap="round" stroke-linejoin="round" stroke-miterlimit="10" stroke-width="1.1955" d="m142.598 191.89-42.52 85.04 75.262 38.25 94.82-38.25Zm0 0"/><path fill="none" stroke="#000" stroke-linecap="round" stroke-linejoin="round" stroke-miterlimit="10" stroke-width="1.1955" d="m142.598 191.89-12.414 100.34H232.23Zm0 0"/><path fill="none" stroke="#000" stroke-linecap="round" stroke-miterlimit="10" stroke-width="1.1955" d="m142.598 191.89 32.742 123.29M100.078 276.93H270.16M142.598 191.89l-43.309-48.472M142.598 191.89l10.629-85.843"/><path fill="none" stroke="#000" stroke-miterlimit="10" stroke-width="1.1955" d="M145 210.328c0-39.672-32.16-71.828-71.828-71.828S1.348 170.656 1.348 210.328c0 39.668 32.156 71.824 71.824 71.824S145 249.996 145 210.328Zm0 0"/><g clip-path="url(#a)"><path fill="none" stroke="#000" stroke-miterlimit="10" stroke-width="1.1955" d="M370.344 162.16c0-63.953-51.844-115.8-115.797-115.8-63.957 0-115.8 51.847-115.8 115.8 0 63.957 51.843 115.8 115.8 115.8 63.953 0 115.797-51.843 115.797-115.8Zm0 0"/></g><path fill="none" stroke="red" stroke-dasharray="4.483245 2.9888250000000003" stroke-linecap="round" stroke-miterlimit="10" stroke-width="1.1955" d="m98.598 26.215 44 165.676M98.598 26.215l1.48 250.715M98.598 26.215 270.16 276.93"/><path fill="none" stroke="#00f" stroke-dasharray="4.483245 2.9888250000000003" stroke-linecap="round" stroke-miterlimit="10" stroke-width="1.1955" d="m100.078 276.93 35.93-31.805M270.16 276.93l-57.73-6.883"/><path stroke="#000" stroke-miterlimit="10" stroke-width=".5985" d="M144.094 191.89a1.494 1.494 0 1 0-2.988-.004 1.494 1.494 0 0 0 2.988.005ZM101.574 276.93a1.495 1.495 0 0 0-2.988 0c0 .824.668 1.496 1.492 1.496s1.496-.672 1.496-1.496ZM176.836 315.18a1.496 1.496 0 0 0-2.992 0 1.495 1.495 0 0 0 2.992 0ZM271.652 276.93c0-.825-.668-1.493-1.492-1.493s-1.496.668-1.496 1.493c0 .824.672 1.496 1.496 1.496s1.492-.672 1.492-1.496ZM131.676 292.23a1.494 1.494 0 1 0-2.99-.005 1.494 1.494 0 0 0 2.99.005ZM233.727 292.23a1.494 1.494 0 1 0-2.988-.004 1.494 1.494 0 0 0 2.988.004ZM100.785 143.418a1.494 1.494 0 1 0-2.987-.005 1.494 1.494 0 0 0 2.987.005ZM154.719 106.047a1.495 1.495 0 1 0-2.991-.002 1.495 1.495 0 0 0 2.99.002Zm0 0"/><path fill="#3990b5" stroke="#475762" stroke-miterlimit="10" stroke-width=".5985" d="M100.094 26.215a1.495 1.495 0 1 0-2.991.006 1.495 1.495 0 0 0 2.99-.006ZM137.504 245.125c0-.824-.668-1.492-1.496-1.492-.824 0-1.492.668-1.492 1.492a1.495 1.495 0 1 0 2.988 0ZM213.926 270.047c0-.824-.668-1.492-1.496-1.492-.825 0-1.493.668-1.493 1.492a1.495 1.495 0 1 0 2.989 0Zm0 0"/><use xlink:href="#b" x="79.287" y="17.205"/><use xlink:href="#c" x="91.737" y="17.205"/><use xlink:href="#b" x="97.534" y="17.205"/><use xlink:href="#d" x="108.324" y="11.781"/><use xlink:href="#e" x="112.113" y="17.205"/><use xlink:href="#f" x="95.514" y="291.909"/><use xlink:href="#g" x="264.764" y="291.909"/><use xlink:href="#h" x="169.818" y="330.5"/><use xlink:href="#i" x="125.072" y="307.207"/><use xlink:href="#j" x="227.038" y="307.207"/><use xlink:href="#k" x="158.505" y="109.71"/><use xlink:href="#l" x="84.88" y="158.397"/><use xlink:href="#m" x="147.879" y="186.612"/><use xlink:href="#n" x="217.71" y="264.768"/><use xlink:href="#o" x="141.29" y="260.448"/></svg>