<svg xmlns="http://www.w3.org/2000/svg" xmlns:xlink="http://www.w3.org/1999/xlink" width="407.14" height="282.238" viewBox="0 0 305.355 211.679"><defs><path id="a" d="M1.031.922C.906 1.719.61 2.75.36 3.312h1.235c.234-.343.36-.75.547-1.906l.343-2.031c.688.594 1.313.813 2.172.813 1.782 0 3.219-1.313 3.547-3.235.266-1.594-.328-2.719-1.86-3.422 1.235-.61 1.891-1.297 2.032-2.156.219-1.328-.937-2.422-2.531-2.422-1.61 0-2.985 1.047-3.219 2.469Zm2.797-9.64C4-9.767 4.75-10.5 5.641-10.5c.937 0 1.468.86 1.265 2.063-.125.796-.687 1.64-1.078 1.64-.047 0-.094 0-.328-.062a2 2 0 0 0-.437-.063c-.36 0-.704.25-.75.531s.203.454.578.454c.093 0 .172 0 .343-.032.172-.047.329-.062.438-.062.203 0 .297.031.375.11.562.64.781 1.765.578 3-.25 1.483-1.047 2.374-2.156 2.374a2.23 2.23 0 0 1-1.844-.937Zm0 0"/><path id="b" d="M8.656-7.469 7.312-4.906c-.078-1.797-.828-2.75-2.187-2.75-.687 0-1.469.281-2.11.75-.953.703-1.546 1.781-1.796 3.265C.829-1.266 1.766.188 3.703.188c1.313 0 2.39-.672 3.219-2 .031.28.094.562.187.937.266.828.485 1.063.954 1.063.5 0 .89-.313 1.187-.938.172-.344.266-.672.422-1.5h-.39c-.157.75-.532 1.313-.907 1.313-.5 0-.844-.797-.86-1.829l2.47-4.703Zm-2 3.875-.5.969c-.765 1.516-1.5 2.25-2.234 2.25-.469 0-.89-.297-1.047-.734-.234-.61-.25-1.547-.062-2.625.171-1.078.53-1.985 1.03-2.641.345-.437.72-.64 1.188-.64 1.063 0 1.594.843 1.625 2.546Zm0 0"/><path id="c" d="M5.656-10.25c-.578 0-1.218.234-1.86.703-1.155.828-1.968 2.438-2.312 4.531-.328 1.954-.093 3.485.641 4.344.484.547 1.14.86 1.781.86.594 0 1.219-.235 1.86-.704 1.125-.812 1.968-2.406 2.312-4.421.344-2.047.11-3.579-.64-4.438-.5-.562-1.125-.875-1.782-.875m.828 5.594c-.312 1.703-.656 2.672-1.218 3.468C4.922-.733 4.375-.39 4-.39s-.797-.359-.969-.796c-.312-.797-.328-1.766-.062-3.47ZM3.11-5.5c.282-1.625.657-2.61 1.204-3.39.328-.438.875-.797 1.25-.797s.812.359.984.796c.297.782.312 1.766.078 3.391Zm0 0"/><path id="e" d="M10.86-9.75H7.89v.234c.844.079 1.048.22 1.048.766 0 .172-.032.36-.141.656-.016.047-.031.11-.031.11L7.25-2.297 4.14-9.75H1.735v.234c.704.063 1.016.25 1.282.844L1.234-2.453C.672-.531.547-.36-.296-.234V0h2.952v-.234C1.891-.297 1.61-.47 1.61-.875c0-.203.047-.5.141-.812l1.703-6.297L6.891.219h.265l2.157-7.516c.546-1.922.609-2.016 1.546-2.219Zm0 0"/><path id="f" d="M13.047-9.75h-2.5L5.53-2.39l-.828-7.36H2v.234c.75.047 1.11.204 1.11.547 0 .125-.063.344-.157.625-.031.047-.062.219-.125.438-.015.047-.031.11-.047.172L1.187-2.187C.734-.625.517-.328-.266-.234V0h2.954v-.234c-.766-.063-1.063-.25-1.063-.657 0-.156.063-.546.14-.796l1.766-6.47L4.437 0h.25l5.641-8.375-1.937 7.016c-.235.797-.532 1.015-1.5 1.125V0h4.078v-.234C9.953-.328 9.813-.422 9.813-.875c0-.266.03-.453.171-.922l1.829-6.61c.265-.905.343-.968 1.234-1.109Zm0 0"/><path id="g" d="M8.422-.234c-.844-.078-.938-.203-1.125-1.297L5.89-9.984H5.5L1.172-2.516C-.016-.516-.172-.359-.766-.234V0h2.797v-.234c-.765-.078-.875-.157-.875-.532 0-.28.032-.421.297-.921l.844-1.688h3.297l.297 1.953c.015.14.03.266.03.39 0 .563-.218.704-1.171.798V0h3.672ZM2.609-3.906l2.25-3.89.657 3.89Zm0 0"/><path id="h" d="m9.734-6.953.563-2.969h-.313c-.125.25-.28.328-.578.328-.11 0-.297-.031-.61-.094-.671-.171-1.265-.265-1.75-.265-3.171 0-6.062 3-6.062 6.328 0 2.281 1.61 3.89 3.907 3.89 1.53 0 2.734-.656 4.078-2.218l-.266-.219C7.36-.844 6.5-.406 5.266-.406c-1.657 0-2.61-1.125-2.61-3.063 0-1.781.719-3.578 1.89-4.797.72-.734 1.657-1.14 2.641-1.14 1.375 0 2.141.797 2.282 2.422Zm0 0"/><path id="j" d="M4.172.234C5.312.172 5.89.016 6.719-.453c2.218-1.234 3.718-3.656 3.718-6.016 0-2.015-1.437-3.484-3.421-3.484-1.188 0-2.532.625-3.735 1.687-1.5 1.407-2.39 3.22-2.39 4.97 0 1.218.453 2.234 1.265 2.859.39.312.719.468 1.375.609C2.171 1.375 2.031 1.5.875 2.297l.156.234a3.36 3.36 0 0 1 1.719-.469c.297 0 .734.094 1.39.266.907.25 1.72.406 2.266.406.828 0 1.875-.39 2.625-.984.36-.266.563-.484.953-1.016L9.75.563c-.828.875-1.437 1.156-2.516 1.156-.39 0-.703-.063-1.843-.328-.782-.203-1.485-.328-1.563-.313-.062.016-.094.016-.094.016H3.36Zm2.781-9.687c1.188 0 1.922.86 1.922 2.281 0 1.578-.703 3.781-1.656 5.156C6.39-.844 5.469-.25 4.375-.25c-1.203 0-1.906-.922-1.906-2.484 0-1.422.734-3.641 1.64-4.938.829-1.219 1.75-1.781 2.844-1.781m0 0"/><path id="k" d="M2.188-9.516c.843.11 1.046.235 1.046.625 0 .22-.046.532-.25 1.204L1.22-1.344C.953-.454.844-.359 0-.234V0h3.656v-.234C2.72-.375 2.641-.422 2.641-.922c0-.187.03-.328.187-.875l.781-2.875c.375.094.766.11 1.375.11 1.235 0 2.235-.25 2.875-.704.75-.562 1.172-1.375 1.172-2.265 0-1.438-1.11-2.219-3.14-2.219H2.188Zm2.625.625c.093-.312.265-.421.687-.421.578 0 1.14.156 1.453.359.375.281.547.719.547 1.422 0 .968-.344 1.656-1 2.047-.469.25-1.047.375-1.969.375-.265 0-.375-.016-.781-.079Zm0 0"/><path id="l" d="M1.938-9.516c.937.094 1.156.204 1.156.61 0 .234-.063.594-.172.953l-1.828 6.61C.828-.485.719-.392-.125-.235V0h3.781C5.406 0 7-.469 8.156-1.297 9.61-2.359 10.453-4 10.453-5.734c0-2.453-1.703-4.016-4.36-4.016H1.939Zm2.734.641c.094-.328.312-.437.922-.437.843 0 1.593.203 2.062.562.735.531 1.14 1.469 1.14 2.656 0 1.61-.624 3.282-1.64 4.297-.875.906-2.093 1.344-3.64 1.344-.688 0-.97-.156-.97-.547 0-.187.063-.531.329-1.422Zm0 0"/><path id="m" d="M-.125 0h4.219c2.343 0 3.953-1.219 3.953-2.984 0-.563-.172-1.078-.5-1.407-.297-.343-.594-.53-1.375-.859 1.062-.25 1.484-.422 1.969-.844.422-.36.64-.86.64-1.468 0-1.422-1.062-2.188-2.984-2.188h-3.86v.234c.938.079 1.157.188 1.157.61 0 .234-.063.594-.172.953l-1.828 6.61C.828-.485.719-.392-.125-.235Zm3.688-4.937c.968 0 1.593.046 1.89.171.61.25.984.907.984 1.72 0 1.608-1.109 2.593-2.921 2.593-.625 0-.97-.219-.97-.625 0-.172.188-.89.532-2.094.188-.672.281-1.015.485-1.765m1.109-3.954c.094-.328.266-.421.86-.421 1.187 0 1.75.515 1.75 1.624 0 .844-.36 1.5-1 1.86-.516.297-1.235.406-2.579.406Zm0 0"/><path id="n" d="M9.64-9.75H2.204v.234c.969.094 1.14.188 1.14.61 0 .234-.062.594-.155.953l-1.844 6.61C1.078-.454.969-.36.125-.235V0h3.766v-.234C3.016-.281 2.75-.454 2.75-.891c0-.125.047-.343.14-.671l.922-3.344c.547.031.876.047 1.204.047.578 0 .687.015.828.078.218.125.328.312.328.61 0 .25-.031.421-.125.89l.25.062 1.14-3.484-.265-.078c-.672 1.343-.719 1.36-3.234 1.39l.984-3.484c.094-.297.312-.39.922-.39 2.5 0 3.047.203 3.047 1.124 0 .094 0 .157-.016.36-.016.093-.016.11-.031.281l.312.031Zm0 0"/><path id="o" d="M9.469-9.75H2.047v.234c.922.094 1.156.204 1.156.61 0 .172-.094.687-.172.953l-1.844 6.61C.938-.5.829-.392-.016-.235V0h7.579l.921-2.422-.234-.125c-.703.969-1.094 1.36-1.734 1.656-.563.25-1.578.391-2.688.391-.844 0-1.203-.14-1.203-.5 0-.172.172-.86.547-2.187.187-.657.328-1.141.469-1.72.53.032.984.048 1.172.048.578-.016 1 .078 1.156.234.078.063.11.203.11.453 0 .266-.032.453-.11.781l.312.079 1.016-3.47-.281-.062c-.563 1.266-.703 1.36-2.063 1.422-.172 0-.656.016-1.172.031l.985-3.484c.093-.328.25-.39 1.093-.39 2.344 0 2.86.203 2.86 1.093 0 .188-.016.422-.031.672L9-7.469Zm0 0"/><path id="i" d="M3.047-4.719c0-.156 0-.422-.281-.422-.172 0-.328.141-.282.282v.14L2.641-3 1.219-4.031c-.094-.047-.125-.078-.203-.078-.157 0-.297.156-.297.312 0 .172.11.219.219.281l1.578.75-1.532.735c-.171.094-.265.14-.265.312 0 .157.14.297.297.297.078 0 .109 0 .375-.203l1.25-.89-.172 1.859c0 .219.203.281.281.281.14 0 .297-.078.297-.281l-.156-1.86L4.297-1.5c.11.063.125.078.203.078.156 0 .297-.156.297-.297 0-.172-.094-.234-.234-.297-.657-.328-.672-.328-1.547-.734L4.53-3.5c.188-.078.266-.125.266-.297 0-.156-.14-.312-.297-.312-.078 0-.094 0-.375.218L2.891-3Zm0 0"/><clipPath id="d"><path d="M135 48h167v163.68H135Zm0 0"/></clipPath></defs><path fill="#fff200" fill-opacity=".3" d="M26.418 190.113h21.258c0-4.394-1.364-8.683-3.899-12.273Zm0 0"/><path fill="none" stroke="#000" stroke-miterlimit="10" stroke-width=".5985" d="M47.676 190.113c0-4.394-1.364-8.683-3.899-12.273"/><use xlink:href="#a" x="51.786" y="184.332"/><path fill="#00f" fill-opacity=".3" d="m51.93 24.285 18.246 10.906a21.24 21.24 0 0 0 3.011-10.906Zm0 0"/><path fill="none" stroke="#000" stroke-miterlimit="10" stroke-width=".5985" d="M70.176 35.191a21.24 21.24 0 0 0 3.012-10.906"/><use xlink:href="#b" x="77.332" y="36.334"/><path fill="red" fill-opacity=".3" d="M222.012 24.285H200.75a21.27 21.27 0 0 0 7.594 16.285ZM247.523 190.113l-13.668-16.285a21.26 21.26 0 0 0-7.593 16.285ZM82.86 190.113h21.261a21.26 21.26 0 0 0-7.594-16.285ZM108.371 24.285 122.04 40.57a21.27 21.27 0 0 0 7.594-16.285Zm0 0"/><path fill="none" stroke="#000" stroke-miterlimit="10" stroke-width=".5985" d="M200.75 24.285a21.27 21.27 0 0 0 7.594 16.285M233.855 173.828a21.26 21.26 0 0 0-7.593 16.285M104.121 190.113a21.26 21.26 0 0 0-7.594-16.285M122.04 40.57a21.27 21.27 0 0 0 7.593-16.285"/><use xlink:href="#c" x="188.353" y="42.78"/><use xlink:href="#c" x="213.867" y="181.653"/><use xlink:href="#c" x="107.01" y="181.653"/><use xlink:href="#c" x="132.522" y="42.78"/><path fill="red" fill-opacity=".3" d="M165.191 91.996H182.2c0-5.027-2.226-9.797-6.074-13.027Zm0 0"/><path fill="none" stroke="#000" stroke-miterlimit="10" stroke-width=".5985" d="M182.2 91.996c0-5.027-2.227-9.797-6.075-13.027"/><path fill="red" fill-opacity=".3" d="m165.191 91.996 13.664 16.285a21.26 21.26 0 0 0 7.594-16.285Zm0 0"/><path fill="none" stroke="#000" stroke-miterlimit="10" stroke-width=".5985" d="M178.855 108.281a21.26 21.26 0 0 0 7.594-16.285"/><path fill="#fff200" fill-opacity=".3" d="M165.191 91.996h29.766c0-6.152-1.91-12.156-5.465-17.18Zm0 0"/><path fill="none" stroke="#000" stroke-miterlimit="10" stroke-width=".5985" d="M194.957 91.996c0-6.152-1.91-12.156-5.465-17.18"/><path fill="#00f" fill-opacity=".3" d="m165.191 91.996 29.196 17.457a34.05 34.05 0 0 0 4.82-17.457Zm0 0"/><path fill="none" stroke="#000" stroke-miterlimit="10" stroke-width=".5985" d="M194.387 109.453a34.05 34.05 0 0 0 4.82-17.457"/><path fill="none" stroke="#000" stroke-linecap="round" stroke-linejoin="round" stroke-miterlimit="10" stroke-width="1.1955" d="M247.523 190.113H26.418L51.93 24.285h170.082Zm0 0"/><path fill="none" stroke="#000" stroke-linecap="round" stroke-miterlimit="10" stroke-width="1.1955" d="m165.191 91.996 82.332 98.117M248.406 33.164 26.418 190.114M277.848 159.355 51.93 24.285M165.191 91.996l56.82-67.71M165.191 91.996h106.301"/><g clip-path="url(#d)"><path fill="none" stroke="#000" stroke-dasharray="4.483245 2.9888250000000003" stroke-miterlimit="10" stroke-width="1.1955" d="M284.258 131c0-36.406-29.512-65.918-65.918-65.918-36.402 0-65.914 29.512-65.914 65.918 0 36.402 29.512 65.914 65.914 65.914 36.406 0 65.918-29.512 65.918-65.914Zm0 0"/></g><path fill="none" stroke="#000" stroke-dasharray="4.483245 2.9888250000000003" stroke-miterlimit="10" stroke-width="1.1955" d="M273.078 78.902c0-30.23-24.504-54.738-54.738-54.738-30.23 0-54.735 24.508-54.735 54.738s24.504 54.735 54.735 54.735c30.234 0 54.738-24.504 54.738-54.735Zm0 0"/><path fill="none" stroke="#00b200" stroke-dasharray="4.483245 2.9888250000000003" stroke-linecap="round" stroke-linejoin="round" stroke-miterlimit="10" stroke-width="1.1955" d="M165.191 91.996 82.86 190.113l25.512-165.828Zm0 0"/><path stroke="#000" stroke-miterlimit="10" stroke-width=".5985" d="M166.688 91.996a1.495 1.495 0 1 0-1.497 1.496c.825 0 1.496-.672 1.496-1.496ZM249.016 190.113a1.495 1.495 0 1 0-2.989 0c0 .825.668 1.492 1.496 1.492.825 0 1.493-.667 1.493-1.492ZM272.984 91.996c0-.824-.668-1.492-1.492-1.492s-1.496.668-1.496 1.492.672 1.496 1.496 1.496 1.492-.672 1.492-1.496ZM223.504 24.285a1.495 1.495 0 1 0-2.988 0c0 .824.668 1.492 1.496 1.492.824 0 1.492-.668 1.492-1.492ZM279.344 159.355a1.494 1.494 0 1 0-2.988-.004 1.494 1.494 0 0 0 2.988.004ZM249.902 33.164c0-.824-.668-1.496-1.496-1.496a1.495 1.495 0 1 0 1.496 1.496ZM27.91 190.113a1.495 1.495 0 1 0-2.988 0c0 .825.668 1.492 1.496 1.492.824 0 1.492-.667 1.492-1.492ZM53.422 24.285c0-.824-.668-1.496-1.492-1.496-.825 0-1.496.672-1.496 1.496a1.495 1.495 0 0 0 2.988 0Zm0 0"/><path fill="#3990b5" stroke="#475762" stroke-miterlimit="10" stroke-width=".5985" d="M84.355 190.113c0-.824-.671-1.496-1.496-1.496a1.495 1.495 0 0 0 0 2.988c.825 0 1.496-.667 1.496-1.492ZM109.867 24.285c0-.824-.668-1.496-1.496-1.496a1.495 1.495 0 0 0 0 2.988c.828 0 1.496-.668 1.496-1.492Zm0 0"/><use xlink:href="#e" x="102.941" y="18.753"/><use xlink:href="#f" x="76.337" y="205.09"/><use xlink:href="#g" x="150.78" y="97.019"/><use xlink:href="#h" x="276.022" y="97.147"/><use xlink:href="#i" x="286.318" y="91.724"/><use xlink:href="#j" x="29.584" y="16.287"/><use xlink:href="#i" x="40.374" y="10.863"/><use xlink:href="#k" x="5.731" y="205.947"/><use xlink:href="#i" x="14.862" y="200.523"/><use xlink:href="#l" x="227.287" y="19.006"/><use xlink:href="#i" x="238.077" y="13.582"/><use xlink:href="#m" x="252.799" y="205.947"/><use xlink:href="#i" x="261.932" y="200.523"/><use xlink:href="#n" x="253.686" y="27.887"/><use xlink:href="#i" x="264.072" y="22.461"/><use xlink:href="#o" x="283.127" y="175.19"/><use xlink:href="#i" x="293.348" y="169.764"/></svg>