<svg xmlns="http://www.w3.org/2000/svg" xmlns:xlink="http://www.w3.org/1999/xlink" width="203.57" height="141.119" style="background-color:#fff" viewBox="0 0 203.57 141.119"><defs><path id="a" d="M.688.625C.594 1.141.406 1.828.233 2.219h.829c.156-.235.234-.5.359-1.281l.234-1.36c.453.406.875.547 1.453.547 1.188 0 2.157-.875 2.36-2.156.187-1.063-.219-1.813-1.235-2.281.813-.407 1.266-.875 1.344-1.438.156-.89-.61-1.625-1.672-1.625-1.078 0-2 .703-2.156 1.656Zm1.875-6.453c.109-.688.609-1.188 1.203-1.188.625 0 .984.579.843 1.391-.078.516-.468 1.094-.718 1.094-.032 0-.063 0-.22-.047-.14-.031-.218-.031-.296-.031-.25 0-.453.156-.5.343-.031.188.14.313.39.313.063 0 .11-.016.22-.031.124-.032.218-.047.296-.047.14 0 .203.031.25.078.39.422.532 1.187.39 2-.171 1-.702 1.578-1.437 1.578-.5 0-.953-.219-1.234-.61Zm0 0"/><path id="b" d="m5.781-4.984-.89 1.718c-.063-1.203-.563-1.843-1.47-1.843-.468 0-.983.187-1.405.5C1.375-4.141.984-3.422.813-2.437.547-.844 1.172.124 2.468.124c.875 0 1.594-.437 2.156-1.328.016.187.063.36.125.61.172.562.313.718.64.718.329 0 .579-.203.782-.625.11-.234.172-.453.281-1h-.266c-.093.5-.343.875-.593.875-.328 0-.578-.531-.578-1.219l1.656-3.14ZM4.453-2.406l-.344.656c-.515 1.016-1 1.5-1.5 1.5-.312 0-.578-.203-.703-.484-.14-.407-.156-1.047-.031-1.766.125-.703.36-1.312.688-1.75.234-.297.484-.437.78-.437.72 0 1.079.578 1.095 1.703Zm0 0"/><path id="c" d="M3.781-6.844c-.39 0-.828.172-1.234.469C1.78-5.828 1.219-4.75.984-3.344c-.218 1.297-.062 2.328.438 2.89.328.376.766.579 1.187.579.391 0 .813-.156 1.235-.469.765-.547 1.312-1.61 1.547-2.953.218-1.375.078-2.39-.422-2.969-.328-.359-.75-.578-1.188-.578m.547 3.735c-.219 1.14-.437 1.78-.812 2.312-.235.313-.594.531-.844.531-.266 0-.531-.234-.656-.53-.203-.532-.22-1.173-.047-2.313Zm-2.266-.563c.204-1.078.454-1.734.813-2.265.219-.297.578-.532.828-.532s.547.235.656.532c.204.53.22 1.187.063 2.265Zm0 0"/><path id="e" d="M7.25-6.516H5.266v.172c.562.047.703.14.703.5 0 .125-.032.235-.094.438-.016.031-.016.078-.016.078L4.83-1.531 2.765-6.516h-1.61v.172c.469.032.672.157.86.547L.828-1.64C.453-.359.375-.234-.203-.156V0H1.78v-.156c-.515-.047-.703-.156-.703-.438 0-.125.031-.328.094-.531l1.125-4.203L4.594.156h.187l1.422-5.015c.375-1.297.422-1.344 1.047-1.485Zm0 0"/><path id="f" d="M8.703-6.516H7.031L3.688-1.594 3.14-6.516H1.328v.172c.5.032.75.14.75.36 0 .078-.047.234-.11.406a3 3 0 0 0-.077.297.3.3 0 0 0-.032.125L.797-1.453C.484-.422.344-.22-.172-.156V0h1.969v-.156c-.516-.047-.703-.156-.703-.438 0-.11.031-.36.078-.531l1.187-4.312L2.953 0h.172l3.766-5.594L5.609-.906c-.171.531-.359.672-1.015.75V0h2.718v-.156c-.671-.063-.765-.125-.765-.438 0-.156.016-.297.11-.61L7.89-5.608c.172-.594.218-.657.812-.735Zm0 0"/><path id="g" d="M5.625-.156c-.578-.047-.625-.14-.766-.86l-.937-5.64h-.25L.782-1.672C-.017-.344-.11-.234-.517-.156V0H1.36v-.156C.844-.203.766-.266.766-.516c0-.187.03-.265.203-.609L1.53-2.25h2.203l.188 1.297c.015.094.031.187.031.265 0 .375-.14.47-.781.532V0h2.453ZM1.75-2.61l1.484-2.594.438 2.594Zm0 0"/><path id="h" d="m6.5-4.64.375-1.985h-.219c-.078.172-.172.219-.375.219a2 2 0 0 1-.406-.063c-.453-.11-.844-.172-1.172-.172-2.125 0-4.047 2-4.047 4.22 0 1.53 1.078 2.593 2.61 2.593 1.015 0 1.812-.438 2.718-1.484l-.171-.141c-.891.89-1.47 1.187-2.297 1.187-1.11 0-1.735-.765-1.735-2.046 0-1.188.469-2.391 1.25-3.204.485-.484 1.11-.765 1.766-.765.922 0 1.422.547 1.516 1.61Zm0 0"/><path id="j" d="M2.781.156c.766-.047 1.14-.14 1.703-.453C5.97-1.125 6.97-2.734 6.97-4.313c0-1.343-.953-2.328-2.282-2.328-.796 0-1.703.407-2.5 1.125-1 .938-1.593 2.141-1.593 3.313 0 .812.297 1.5.844 1.906.25.219.468.313.921.422-.906.797-1 .875-1.765 1.406l.094.157a2.25 2.25 0 0 1 1.14-.313c.203 0 .5.063.938.188.609.156 1.14.265 1.515.265.547 0 1.235-.266 1.75-.656.235-.188.375-.328.625-.688l-.14-.109c-.563.578-.97.766-1.688.766-.266 0-.469-.032-1.234-.22C3.078.798 2.609.704 2.547.72 2.516.734 2.5.734 2.5.734h-.25Zm1.86-6.468c.797 0 1.28.578 1.28 1.53 0 1.048-.468 2.516-1.109 3.438-.546.782-1.156 1.172-1.89 1.172-.813 0-1.281-.61-1.281-1.656 0-.938.5-2.422 1.093-3.297.563-.812 1.172-1.187 1.907-1.187m0 0"/><path id="k" d="M1.453-6.344c.578.063.703.157.703.407 0 .14-.031.359-.156.796L.813-.89C.64-.297.563-.234 0-.156V0h2.438v-.156c-.626-.094-.672-.125-.672-.469 0-.11.015-.219.125-.578l.515-1.922c.25.063.516.078.922.078.813 0 1.485-.156 1.922-.469.484-.375.781-.921.781-1.515 0-.953-.75-1.485-2.11-1.485H1.454Zm1.75.407c.063-.204.188-.266.469-.266.39 0 .765.094.969.234.25.172.359.469.359.938 0 .656-.219 1.11-.656 1.375-.313.172-.703.25-1.328.25-.172 0-.25-.016-.516-.047Zm0 0"/><path id="l" d="M1.297-6.344c.61.047.766.14.766.407 0 .14-.032.39-.11.64L.734-.89c-.187.579-.25.625-.812.735V0h2.516c1.171 0 2.234-.312 3-.875.968-.703 1.546-1.797 1.546-2.953 0-1.64-1.14-2.688-2.921-2.688H1.297Zm1.828.422c.063-.219.203-.281.61-.281.562 0 1.062.125 1.374.36.5.359.766.984.766 1.78 0 1.079-.422 2.188-1.094 2.86-.593.61-1.406.906-2.437.906-.453 0-.656-.11-.656-.375 0-.125.062-.344.218-.937Zm0 0"/><path id="m" d="M-.078 0h2.812c1.563 0 2.641-.812 2.641-2 0-.36-.125-.719-.344-.937-.203-.22-.39-.344-.922-.563.72-.172 1-.281 1.329-.562q.42-.375.421-.985c0-.937-.703-1.469-1.984-1.469H1.297v.172c.61.047.766.125.766.407 0 .14-.032.39-.11.64L.734-.89c-.187.579-.25.625-.812.735Zm2.453-3.297c.64 0 1.063.031 1.266.11.406.171.656.609.656 1.156 0 1.078-.734 1.734-1.953 1.734-.422 0-.64-.156-.64-.422 0-.125.124-.593.343-1.39.14-.453.203-.688.328-1.188m.75-2.64c.063-.22.172-.266.563-.266.796 0 1.171.328 1.171 1.062 0 .579-.25 1.016-.671 1.25-.344.204-.813.266-1.72.266Zm0 0"/><path id="n" d="M6.438-6.516h-4.97v.172c.641.047.766.11.766.407 0 .14-.046.39-.109.64L.891-.89c-.172.594-.25.657-.813.735V0h2.516v-.156c-.578-.031-.766-.14-.766-.438 0-.078.031-.234.094-.453l.625-2.219c.36.016.578.032.797.032.39 0 .469 0 .547.046.156.079.218.204.218.407 0 .156-.015.281-.078.594l.172.046.766-2.328-.188-.062c-.437.906-.468.906-2.156.937l.672-2.328c.047-.203.187-.266.594-.266 1.687 0 2.047.141 2.047.75 0 .063 0 .11-.016.25-.016.047-.016.063-.016.188l.203.016Zm0 0"/><path id="o" d="M6.313-6.516H1.359v.172c.625.047.782.14.782.407 0 .109-.063.453-.11.64L.797-.89c-.172.563-.25.625-.813.735V0h5.063l.61-1.61-.157-.077c-.469.625-.719.89-1.156 1.093-.36.172-1.047.266-1.797.266-.547 0-.797-.094-.797-.344 0-.11.11-.578.36-1.453.14-.437.218-.766.328-1.14.343.015.656.03.765.03.39-.015.672.047.781.141.047.047.079.14.079.313 0 .172-.032.297-.079.515l.204.047.671-2.312-.171-.032c-.375.844-.47.907-1.375.938-.126 0-.438.016-.797.031l.672-2.328c.046-.219.156-.266.718-.266 1.563 0 1.922.141 1.922.735 0 .125-.016.281-.031.453l.219.016Zm0 0"/><path id="i" d="M2.031-3.156c0-.094 0-.266-.187-.266-.125 0-.219.094-.188.188v.093L1.75-2l-.937-.687C.75-2.72.734-2.734.672-2.734c-.094 0-.188.093-.188.203 0 .125.063.156.141.187l1.047.5-1.016.5c-.125.047-.172.078-.172.188s.094.218.188.218c.062 0 .078 0 .25-.14l.828-.61-.11 1.25c0 .157.141.188.204.188.078 0 .187-.047.187-.187l-.11-1.25.954.687c.063.047.078.063.125.063.11 0 .203-.11.203-.22 0-.109-.062-.14-.156-.187-.438-.218-.453-.218-1.047-.5l1.031-.484c.11-.063.172-.094.172-.203A.207.207 0 0 0 3-2.734c-.047 0-.062 0-.25.14L1.922-2Zm0 0"/><clipPath id="d"><path d="M90 32h111v109.117H90Zm0 0"/></clipPath></defs><path fill="#fff200" fill-opacity=".3" d="M17.61 126.742h14.175c0-2.93-.91-5.789-2.601-8.183Zm0 0"/><path fill="none" stroke="#000" stroke-miterlimit="10" stroke-width=".399" d="M31.785 126.742c0-2.93-.91-5.789-2.601-8.183"/><use xlink:href="#a" x="34.524" y="122.888"/><path fill="#00f" fill-opacity=".3" d="m34.621 16.191 12.164 7.27a14.2 14.2 0 0 0 2.008-7.273Zm0 0"/><path fill="none" stroke="#000" stroke-miterlimit="10" stroke-width=".399" d="M46.785 23.46a14.2 14.2 0 0 0 2.008-7.273"/><use xlink:href="#b" x="51.555" y="24.223"/><path fill="red" fill-opacity=".3" d="M148.008 16.191h-14.176c0 4.188 1.856 8.164 5.063 10.856ZM165.016 126.742l-9.11-10.855a14.17 14.17 0 0 0-5.066 10.855ZM55.238 126.742h14.176c0-4.187-1.855-8.164-5.062-10.855ZM72.25 16.191l9.11 10.856a14.18 14.18 0 0 0 5.062-10.86Zm0 0"/><path fill="none" stroke="#000" stroke-miterlimit="10" stroke-width=".399" d="M133.832 16.191c0 4.188 1.856 8.164 5.063 10.856M155.906 115.887a14.17 14.17 0 0 0-5.066 10.855M69.414 126.742c0-4.187-1.855-8.164-5.062-10.855M81.36 27.047a14.18 14.18 0 0 0 5.062-10.86"/><use xlink:href="#c" x="125.569" y="28.52"/><use xlink:href="#c" x="142.578" y="121.102"/><use xlink:href="#c" x="71.34" y="121.102"/><use xlink:href="#c" x="88.348" y="28.52"/><path fill="red" fill-opacity=".3" d="M110.129 61.332h11.336c0-3.352-1.48-6.531-4.05-8.687Zm0 0"/><path fill="none" stroke="#000" stroke-miterlimit="10" stroke-width=".399" d="M121.465 61.332c0-3.352-1.48-6.531-4.05-8.687"/><path fill="red" fill-opacity=".3" d="m110.129 61.332 9.11 10.856a14.18 14.18 0 0 0 5.062-10.856Zm0 0"/><path fill="none" stroke="#000" stroke-miterlimit="10" stroke-width=".399" d="M119.238 72.188a14.18 14.18 0 0 0 5.063-10.856"/><path fill="#fff200" fill-opacity=".3" d="M110.129 61.332h19.84c0-4.102-1.27-8.105-3.64-11.453Zm0 0"/><path fill="none" stroke="#000" stroke-miterlimit="10" stroke-width=".399" d="M129.969 61.332c0-4.102-1.27-8.105-3.64-11.453"/><path fill="#00f" fill-opacity=".3" d="m110.129 61.332 19.46 11.637a22.7 22.7 0 0 0 3.216-11.637Zm0 0"/><path fill="none" stroke="#000" stroke-miterlimit="10" stroke-width=".399" d="M129.59 72.969a22.7 22.7 0 0 0 3.215-11.637"/><path fill="none" stroke="#000" stroke-linecap="round" stroke-linejoin="round" stroke-miterlimit="10" stroke-width=".797" d="M165.016 126.742H17.609l17.012-110.55h113.387Zm0 0"/><path fill="none" stroke="#000" stroke-linecap="round" stroke-miterlimit="10" stroke-width=".797" d="m110.129 61.332 54.887 65.41M165.605 22.11 17.61 126.741M185.234 106.234 34.621 16.191M110.129 61.332l37.879-45.14M110.129 61.332h70.867"/><g clip-path="url(#d)"><path fill="none" stroke="#000" stroke-dasharray="2.98883 1.99255" stroke-miterlimit="10" stroke-width=".797" d="M189.504 87.332c0-24.27-19.672-43.945-43.941-43.945-24.274 0-43.946 19.676-43.946 43.945s19.672 43.945 43.945 43.945c24.27 0 43.942-19.675 43.942-43.945Zm0 0"/></g><path fill="none" stroke="#000" stroke-dasharray="2.98883 1.99255" stroke-miterlimit="10" stroke-width=".797" d="M182.05 52.602c0-20.157-16.335-36.493-36.488-36.493-20.156 0-36.492 16.336-36.492 36.493 0 20.152 16.336 36.492 36.493 36.492 20.152 0 36.488-16.34 36.488-36.492Zm0 0"/><path fill="none" stroke="#00b200" stroke-dasharray="2.98883 1.99255" stroke-linecap="round" stroke-linejoin="round" stroke-miterlimit="10" stroke-width=".797" d="m110.129 61.332-54.89 65.41L72.25 16.192Zm0 0"/><path stroke="#000" stroke-miterlimit="10" stroke-width=".399" d="M111.125 61.332a.995.995 0 1 0-1.99-.002.995.995 0 0 0 1.99.002ZM166.012 126.742a.995.995 0 1 0-1.99-.001.995.995 0 0 0 1.99.001ZM181.992 61.332a.995.995 0 1 0-1.994-.002.995.995 0 0 0 1.994.002ZM149.004 16.191c0-.55-.445-1-.996-1a.999.999 0 0 0 0 1.996c.55 0 .996-.449.996-.996ZM186.23 106.234a1 1 0 0 0-.996-.996.995.995 0 1 0 .996.996ZM166.602 22.11a.995.995 0 1 0-1.991-.002.995.995 0 0 0 1.99.001ZM18.605 126.742a.995.995 0 1 0-1.99-.001.995.995 0 0 0 1.99.001ZM35.617 16.191c0-.55-.449-1-.996-1a.999.999 0 0 0 0 1.996 1 1 0 0 0 .996-.996Zm0 0"/><path fill="#3990b5" stroke="#475762" stroke-miterlimit="10" stroke-width=".399" d="M56.234 126.742a.995.995 0 1 0-1.99-.001.995.995 0 0 0 1.99.001ZM73.246 16.191c0-.55-.45-1-.996-1a.999.999 0 0 0 0 1.996 1 1 0 0 0 .996-.996Zm0 0"/><use xlink:href="#e" x="68.627" y="12.502"/><use xlink:href="#f" x="50.891" y="136.727"/><use xlink:href="#g" x="100.52" y="64.679"/><use xlink:href="#h" x="184.015" y="64.766"/><use xlink:href="#i" x="190.879" y="61.149"/><use xlink:href="#j" x="19.723" y="10.858"/><use xlink:href="#i" x="26.916" y="7.242"/><use xlink:href="#k" x="3.821" y="137.299"/><use xlink:href="#i" x="9.908" y="133.682"/><use xlink:href="#l" x="151.525" y="12.671"/><use xlink:href="#i" x="158.718" y="9.055"/><use xlink:href="#m" x="168.533" y="137.299"/><use xlink:href="#i" x="174.621" y="133.682"/><use xlink:href="#n" x="169.124" y="18.591"/><use xlink:href="#i" x="176.048" y="14.975"/><use xlink:href="#o" x="188.751" y="116.793"/><use xlink:href="#i" x="195.565" y="113.177"/></svg>