<svg xmlns="http://www.w3.org/2000/svg" xmlns:xlink="http://www.w3.org/1999/xlink" width="282.694" height="220.862" viewBox="0 0 212.02 165.647"><defs><path id="a" d="M8.422-.234c-.844-.078-.938-.203-1.125-1.297L5.89-9.984H5.5L1.172-2.516C-.016-.516-.172-.359-.766-.234V0h2.797v-.234c-.765-.078-.875-.157-.875-.532 0-.28.032-.421.297-.921l.844-1.688h3.297l.297 1.953c.015.14.03.266.03.39 0 .563-.218.704-1.171.798V0h3.672ZM2.609-3.906l2.25-3.89.657 3.89Zm0 0"/><path id="b" d="m9.734-6.953.563-2.969h-.313c-.125.25-.28.328-.578.328-.11 0-.297-.031-.61-.094-.671-.171-1.265-.265-1.75-.265-3.171 0-6.062 3-6.062 6.328 0 2.281 1.61 3.89 3.907 3.89 1.53 0 2.734-.656 4.078-2.218l-.266-.219C7.36-.844 6.5-.406 5.266-.406c-1.657 0-2.61-1.125-2.61-3.063 0-1.781.719-3.578 1.89-4.797.72-.734 1.657-1.14 2.641-1.14 1.375 0 2.141.797 2.282 2.422Zm0 0"/><path id="c" d="M9.469-9.75H2.047v.234c.922.094 1.156.204 1.156.61 0 .172-.094.687-.172.953l-1.844 6.61C.938-.5.829-.392-.016-.235V0h7.579l.921-2.422-.234-.125c-.703.969-1.094 1.36-1.734 1.656-.563.25-1.578.391-2.688.391-.844 0-1.203-.14-1.203-.5 0-.172.172-.86.547-2.187.187-.657.328-1.141.469-1.72.53.032.984.048 1.172.048.578-.016 1 .078 1.156.234.078.063.11.203.11.453 0 .266-.032.453-.11.781l.312.079 1.016-3.47-.281-.062c-.563 1.266-.703 1.36-2.063 1.422-.172 0-.656.016-1.172.031l.985-3.484c.093-.328.25-.39 1.093-.39 2.344 0 2.86.203 2.86 1.093 0 .188-.016.422-.031.672L9-7.469Zm0 0"/><path id="d" d="M9.64-9.75H2.204v.234c.969.094 1.14.188 1.14.61 0 .234-.062.594-.155.953l-1.844 6.61C1.078-.454.969-.36.125-.235V0h3.766v-.234C3.016-.281 2.75-.454 2.75-.891c0-.125.047-.343.14-.671l.922-3.344c.547.031.876.047 1.204.047.578 0 .687.015.828.078.218.125.328.312.328.61 0 .25-.031.421-.125.89l.25.062 1.14-3.484-.265-.078c-.672 1.343-.719 1.36-3.234 1.39l.984-3.484c.094-.297.312-.39.922-.39 2.5 0 3.047.203 3.047 1.124 0 .094 0 .157-.016.36-.016.093-.016.11-.031.281l.312.031Zm0 0"/><path id="e" d="M-.125 0h4.219c2.343 0 3.953-1.219 3.953-2.984 0-.563-.172-1.078-.5-1.407-.297-.343-.594-.53-1.375-.859 1.062-.25 1.484-.422 1.969-.844.422-.36.64-.86.64-1.468 0-1.422-1.062-2.188-2.984-2.188h-3.86v.234c.938.079 1.157.188 1.157.61 0 .234-.063.594-.172.953l-1.828 6.61C.828-.485.719-.392-.125-.235Zm3.688-4.937c.968 0 1.593.046 1.89.171.61.25.984.907.984 1.72 0 1.608-1.109 2.593-2.921 2.593-.625 0-.97-.219-.97-.625 0-.172.188-.89.532-2.094.188-.672.281-1.015.485-1.765m1.109-3.954c.094-.328.266-.421.86-.421 1.187 0 1.75.515 1.75 1.624 0 .844-.36 1.5-1 1.86-.516.297-1.235.406-2.579.406Zm0 0"/><path id="f" d="M1.938-9.516c.937.094 1.156.204 1.156.61 0 .234-.063.594-.172.953l-1.828 6.61C.828-.485.719-.392-.125-.235V0h3.781C5.406 0 7-.469 8.156-1.297 9.61-2.359 10.453-4 10.453-5.734c0-2.453-1.703-4.016-4.36-4.016H1.939Zm2.734.641c.094-.328.312-.437.922-.437.843 0 1.593.203 2.062.562.735.531 1.14 1.469 1.14 2.656 0 1.61-.624 3.282-1.64 4.297-.875.906-2.093 1.344-3.64 1.344-.688 0-.97-.156-.97-.547 0-.187.063-.531.329-1.422Zm0 0"/></defs><path fill="#fff" d="M0 0h212.02v165.648H0Zm0 0"/><path fill="red" fill-opacity=".3" d="m62.66 21.05 4.367 16.438a17 17 0 0 0 9.785-7.004Zm0 0"/><path fill="none" stroke="#000" stroke-miterlimit="10" stroke-width=".5985" d="M67.027 37.488a17 17 0 0 0 9.785-7.004"/><path fill="red" fill-opacity=".3" d="m62.66 21.05-9.508 19.016a21.26 21.26 0 0 0 14.965 1.532Zm0 0"/><path fill="none" stroke="#000" stroke-miterlimit="10" stroke-width=".5985" d="M53.152 40.066a21.26 21.26 0 0 0 14.965 1.532"/><path fill="#fff200" fill-opacity=".3" d="m62.66 21.05 7.64 28.766c4.52-1.199 8.7-3.453 12.188-6.57Zm0 0"/><path fill="none" stroke="#000" stroke-miterlimit="10" stroke-width=".5985" d="M70.3 49.816c4.52-1.199 8.7-3.453 12.188-6.57"/><path fill="#00f" fill-opacity=".3" d="M62.66 21.05 58.484 54.81c4.317.535 8.703.234 12.907-.883Zm0 0"/><path fill="none" stroke="#000" stroke-miterlimit="10" stroke-width=".5985" d="M58.484 54.809c4.317.535 8.704.234 12.907-.883"/><path fill="none" stroke="#000" stroke-linecap="round" stroke-linejoin="round" stroke-miterlimit="10" stroke-width="1.1955" d="m62.66 21.05-42.52 85.044 75.262 38.246 94.82-38.246Zm0 0"/><path fill="none" stroke="#000" stroke-linecap="round" stroke-linejoin="round" stroke-miterlimit="10" stroke-width="1.1955" d="M62.66 21.05 50.246 121.39h102.047Zm0 0"/><path fill="none" stroke="#000" stroke-linecap="round" stroke-miterlimit="10" stroke-width="1.1955" d="m62.66 21.05 32.742 123.29M20.14 106.094h170.083"/><path stroke="#000" stroke-miterlimit="10" stroke-width=".5985" d="M64.156 21.05c0-.823-.668-1.491-1.496-1.491-.824 0-1.492.668-1.492 1.492a1.495 1.495 0 1 0 2.988 0ZM21.637 106.094a1.496 1.496 0 0 0-2.992 0 1.495 1.495 0 0 0 2.992 0ZM96.895 144.34c0-.824-.668-1.496-1.493-1.496-.824 0-1.496.672-1.496 1.496s.672 1.496 1.496 1.496c.825 0 1.493-.672 1.493-1.496ZM191.715 106.094a1.494 1.494 0 1 0-2.99-.005 1.494 1.494 0 0 0 2.99.005ZM51.738 121.39a1.495 1.495 0 1 0-2.99 0 1.495 1.495 0 0 0 2.99 0ZM153.79 121.39a1.495 1.495 0 1 0-2.986-.001 1.495 1.495 0 0 0 2.985.002Zm0 0"/><use xlink:href="#a" x="58.095" y="15.774"/><use xlink:href="#b" x="89.88" y="159.661"/><use xlink:href="#c" x="45.133" y="136.369"/><use xlink:href="#d" x="147.101" y="136.369"/><use xlink:href="#e" x="5.731" y="110.942"/><use xlink:href="#f" x="195.5" y="110.942"/></svg>