<svg xmlns="http://www.w3.org/2000/svg" xmlns:xlink="http://www.w3.org/1999/xlink" width="320.307" height="275.748" viewBox="0 0 240.23 206.811"><defs><path id="a" d="M5.625-.156c-.578-.047-.625-.14-.766-.86l-.937-5.64h-.25L.782-1.672C-.017-.344-.11-.234-.517-.156V0H1.36v-.156C.844-.203.766-.266.766-.516c0-.187.03-.265.203-.609L1.53-2.25h2.203l.188 1.297c.015.094.031.187.031.265 0 .375-.14.47-.781.532V0h2.453ZM1.75-2.61l1.484-2.594.438 2.594Zm0 0"/><path id="b" d="M7.64-6.516H5.189v.172c.578.063.687.14.687.422 0 .14-.031.375-.11.625l-.452 1.625H2.469l.547-1.937c.14-.516.406-.703 1-.735v-.172h-2.72v.172c.61.047.767.14.767.422 0 .14-.032.375-.11.625L.734-.89c-.187.579-.25.625-.812.735V0h2.453v-.156c-.594-.078-.703-.156-.703-.438 0-.078 0-.156.016-.219l.671-2.437h2.829L4.547-.89c-.156.515-.36.656-1.016.734V0h2.735v-.156c-.641-.063-.782-.14-.782-.422 0-.094.016-.156.032-.235l1.312-4.796c.172-.578.25-.641.813-.735Zm0 0"/><path id="c" d="M1.453-6.344c.578.063.703.157.703.407 0 .14-.031.359-.156.796L.813-.89C.64-.297.563-.234 0-.156V0h2.438v-.156c-.626-.094-.672-.125-.672-.469 0-.11.015-.219.125-.578l.515-1.922c.25.063.516.078.922.078.813 0 1.485-.156 1.922-.469.484-.375.781-.921.781-1.515 0-.953-.75-1.485-2.11-1.485H1.454Zm1.75.407c.063-.204.188-.266.469-.266.39 0 .765.094.969.234.25.172.359.469.359.938 0 .656-.219 1.11-.656 1.375-.313.172-.703.25-1.328.25-.172 0-.25-.016-.516-.047Zm0 0"/><path id="d" d="M7.25-6.516H5.266v.172c.562.047.703.14.703.5 0 .125-.032.235-.094.438-.016.031-.016.078-.016.078L4.83-1.531 2.765-6.516h-1.61v.172c.469.032.672.157.86.547L.828-1.64C.453-.359.375-.234-.203-.156V0H1.78v-.156c-.515-.047-.703-.156-.703-.438 0-.125.031-.328.094-.531l1.125-4.203L4.594.156h.187l1.422-5.015c.375-1.297.422-1.344 1.047-1.485Zm0 0"/><path id="g" d="M6.438-6.516h-4.97v.172c.641.047.766.11.766.407 0 .14-.046.39-.109.64L.891-.89c-.172.594-.25.657-.813.735V0h2.516v-.156c-.578-.031-.766-.14-.766-.438 0-.078.031-.234.094-.453l.625-2.219c.36.016.578.032.797.032.39 0 .469 0 .547.046.156.079.218.204.218.407 0 .156-.015.281-.078.594l.172.046.766-2.328-.188-.062c-.437.906-.468.906-2.156.937l.672-2.328c.047-.203.187-.266.594-.266 1.687 0 2.047.141 2.047.75 0 .063 0 .11-.016.25-.016.047-.016.063-.016.188l.203.016Zm0 0"/><path id="h" d="M6.313-6.516H1.359v.172c.625.047.782.14.782.407 0 .109-.063.453-.11.64L.797-.89c-.172.563-.25.625-.813.735V0h5.063l.61-1.61-.157-.077c-.469.625-.719.89-1.156 1.093-.36.172-1.047.266-1.797.266-.547 0-.797-.094-.797-.344 0-.11.11-.578.36-1.453.14-.437.218-.766.328-1.14.343.015.656.03.765.03.39-.015.672.047.781.141.047.047.079.14.079.313 0 .172-.032.297-.079.515l.204.047.671-2.312-.171-.032c-.375.844-.47.907-1.375.938-.126 0-.438.016-.797.031l.672-2.328c.046-.219.156-.266.718-.266 1.563 0 1.922.141 1.922.735 0 .125-.016.281-.031.453l.219.016Zm0 0"/><path id="j" d="M-.078 0h2.812c1.563 0 2.641-.812 2.641-2 0-.36-.125-.719-.344-.937-.203-.22-.39-.344-.922-.563.72-.172 1-.281 1.329-.562q.42-.375.421-.985c0-.937-.703-1.469-1.984-1.469H1.297v.172c.61.047.766.125.766.407 0 .14-.032.39-.11.64L.734-.89c-.187.579-.25.625-.812.735Zm2.453-3.297c.64 0 1.063.031 1.266.11.406.171.656.609.656 1.156 0 1.078-.734 1.734-1.953 1.734-.422 0-.64-.156-.64-.422 0-.125.124-.593.343-1.39.14-.453.203-.688.328-1.188m.75-2.64c.063-.22.172-.266.563-.266.796 0 1.171.328 1.171 1.062 0 .579-.25 1.016-.671 1.25-.344.204-.813.266-1.72.266Zm0 0"/><path id="k" d="M8.703-6.516H7.031L3.688-1.594 3.14-6.516H1.328v.172c.5.032.75.14.75.36 0 .078-.047.234-.11.406a3 3 0 0 0-.077.297.3.3 0 0 0-.032.125L.797-1.453C.484-.422.344-.22-.172-.156V0h1.969v-.156c-.516-.047-.703-.156-.703-.438 0-.11.031-.36.078-.531l1.187-4.312L2.953 0h.172l3.766-5.594L5.609-.906c-.171.531-.359.672-1.015.75V0h2.718v-.156c-.671-.063-.765-.125-.765-.438 0-.156.016-.297.11-.61L7.89-5.608c.172-.594.218-.657.812-.735Zm0 0"/><path id="l" d="m6.5-4.64.375-1.985h-.219c-.078.172-.172.219-.375.219a2 2 0 0 1-.406-.063c-.453-.11-.844-.172-1.172-.172-2.125 0-4.047 2-4.047 4.22 0 1.53 1.078 2.593 2.61 2.593 1.015 0 1.812-.438 2.718-1.484l-.171-.141c-.891.89-1.47 1.187-2.297 1.187-1.11 0-1.735-.765-1.735-2.046 0-1.188.469-2.391 1.25-3.204.485-.484 1.11-.765 1.766-.765.922 0 1.422.547 1.516 1.61Zm0 0"/><path id="m" d="M1.297-6.344c.61.047.766.14.766.407 0 .14-.032.39-.11.64L.734-.89c-.187.579-.25.625-.812.735V0h2.516c1.171 0 2.234-.312 3-.875.968-.703 1.546-1.797 1.546-2.953 0-1.64-1.14-2.688-2.921-2.688H1.297Zm1.828.422c.063-.219.203-.281.61-.281.562 0 1.062.125 1.374.36.5.359.766.984.766 1.78 0 1.079-.422 2.188-1.094 2.86-.593.61-1.406.906-2.437.906-.453 0-.656-.11-.656-.375 0-.125.062-.344.218-.937Zm0 0"/><path id="e" d="M.813-4.734c.437 0 .484.03.484.187 0 .063-.031.156-.078.328-.016.047-.032.094-.032.14l-.015.048-1 3.687v.031c0 .172.562.391.984.391 1.11 0 2.328-1.281 2.328-2.453 0-.516-.359-.875-.843-.875-.532 0-.907.297-1.438 1.11.39-1.407.438-1.594.766-2.86l-.032-.031c-.359.062-.624.11-1.124.156Zm1.53 1.843c.313 0 .516.25.516.641 0 .484-.375 1.266-.812 1.719-.266.281-.594.437-.906.437-.22 0-.344-.078-.344-.25 0-.437.234-1.156.531-1.703.328-.562.656-.844 1.016-.844m0 0"/><path id="f" d="M2.578-.781c-.406.437-.687.594-1.047.594C1.11-.187.86-.5.86-1.031c0-.625.25-1.281.672-1.719a1.1 1.1 0 0 1 .797-.344c.172 0 .281.063.281.14 0 .048-.015.079-.046.142-.063.093-.063.156-.063.218 0 .172.11.281.281.281a.35.35 0 0 0 .36-.343c0-.344-.344-.594-.782-.594C1.25-3.25.22-2.172.22-1.031c0 .703.406 1.11 1.094 1.11.53 0 .937-.22 1.39-.782Zm0 0"/><path id="i" d="m3.422-.812-.203.203c-.219.234-.328.312-.39.312-.063 0-.095-.047-.095-.094 0-.156.297-1.421.657-2.687.015-.078.03-.078.03-.156l-.046-.016-.453.047-.016.031-.078.344c-.062-.266-.281-.422-.594-.422C1.266-3.25.125-1.906.125-.734c0 .515.281.812.75.812.516 0 .844-.234 1.484-1.156-.14.578-.171.672-.171.844 0 .218.093.312.296.312.297 0 .485-.14 1.032-.812Zm-1.14-2.282c.25.016.406.203.406.453 0 .625-.36 1.485-.876 2.032-.171.203-.421.328-.64.328C.922-.281.75-.5.75-.828c0-.406.281-1.156.594-1.625.297-.422.64-.656.937-.64m0 0"/></defs><path fill="#fff" d="M0 0h240.23v206.813H0Zm0 0"/><path fill="none" stroke="#000" stroke-linecap="round" stroke-linejoin="round" stroke-miterlimit="10" stroke-width=".797" d="M167.895 14.035 13.425 155.578h213.098Zm0 0"/><path fill="none" stroke="#000" stroke-linecap="round" stroke-miterlimit="10" stroke-width=".797" d="m154.273 193.004 41.043-112.77M167.895 155.578 129.262 49.434"/><path fill="none" stroke="#000" stroke-miterlimit="10" stroke-width=".797" d="M196.578 70.66c0-20.437-16.566-37.004-37.004-37.004S122.57 50.223 122.57 70.66c0 20.434 16.567 37 37.004 37 20.438 0 37.004-16.566 37.004-37Zm0 0"/><path fill="none" stroke="#00b200" stroke-dasharray="2.98883 1.99255" stroke-linecap="round" stroke-miterlimit="10" stroke-width=".797" d="m13.426 155.578 181.89-75.344M226.523 155.578 129.262 49.434M154.273 193.004 90.66 123.586M167.895 14.035v141.543"/><path fill="none" stroke="#00adef" stroke-dasharray="2.98883 1.99255" stroke-miterlimit="10" stroke-width=".797" d="M200.582 104.195c0-31.285-25.363-56.648-56.648-56.648S87.285 72.91 87.285 104.195s25.363 56.649 56.649 56.649c31.285 0 56.648-25.364 56.648-56.649Zm0 0"/><path fill="none" stroke="#00f" stroke-dasharray="2.98883 1.99255" stroke-linecap="round" stroke-miterlimit="10" stroke-width=".797" d="m167.895 14.035-23.961 90.16M129.262 49.434l14.672 54.761"/><path fill="none" stroke="#ec008c" stroke-dasharray="2.98883 1.99255" stroke-linecap="round" stroke-miterlimit="10" stroke-width=".797" d="m129.262 49.434 25.011 143.57"/><path stroke="#000" stroke-miterlimit="10" stroke-width=".399" d="M168.89 14.035c0-.55-.445-1-.995-1a.999.999 0 0 0 0 1.996c.55 0 .996-.449.996-.996ZM14.422 155.578a.995.995 0 1 0-1.99-.002.995.995 0 0 0 1.99.002ZM227.52 155.578a.995.995 0 1 0-1.991-.002.995.995 0 0 0 1.99.002ZM168.89 155.578a.995.995 0 1 0-1.99-.002.995.995 0 0 0 1.99.002ZM196.313 80.234a1 1 0 0 0-.997-.996.998.998 0 0 0 0 1.996c.551 0 .996-.449.996-1ZM130.258 49.434a.995.995 0 1 0-1.99-.002.995.995 0 0 0 1.99.002ZM155.27 193.004a1 1 0 0 0-.997-.996.998.998 0 0 0 0 1.996c.547 0 .997-.45.997-1Zm0 0"/><path fill="#b20000" stroke="#4c0000" stroke-miterlimit="10" stroke-width=".399" d="M168.89 91.594a.995.995 0 1 0-1.99-.002.995.995 0 0 0 1.99.002ZM144.93 104.195a.995.995 0 1 0-1.99-.001.995.995 0 0 0 1.99.001Zm0 0"/><path fill="#00b200" stroke="#004c00" stroke-miterlimit="10" stroke-width=".399" d="M91.656 123.586a.995.995 0 1 0-1.99-.002.995.995 0 0 0 1.99.002ZM198.207 123.586a.995.995 0 1 0-1.994-.002.995.995 0 0 0 1.994.002ZM120.973 155.578a.995.995 0 1 0-1.994-.002.995.995 0 0 0 1.994.002ZM168.89 52.813a.995.995 0 1 0-1.99-.002.995.995 0 0 0 1.99.002Zm0 0"/><use xlink:href="#a" x="164.851" y="10.515"/><use xlink:href="#b" x="163.949" y="88.075"/><use xlink:href="#c" x="151.228" y="202.99"/><use xlink:href="#d" x="140.313" y="114.182"/><use xlink:href="#b" x="85.097" y="133.572"/><use xlink:href="#e" x="92.041" y="135.22"/><use xlink:href="#b" x="191.851" y="133.572"/><use xlink:href="#f" x="198.795" y="135.066"/><use xlink:href="#g" x="118.818" y="52.668"/><use xlink:href="#h" x="198.836" y="83.47"/><use xlink:href="#b" x="171.414" y="55.26"/><use xlink:href="#i" x="178.358" y="56.754"/><use xlink:href="#j" x="3.821" y="165.563"/><use xlink:href="#k" x="107.758" y="165.563"/><use xlink:href="#l" x="229.545" y="165.792"/><use xlink:href="#m" x="171.414" y="165.563"/></svg>