<svg xmlns="http://www.w3.org/2000/svg" xmlns:xlink="http://www.w3.org/1999/xlink" width="397.689" height="333.836" viewBox="0 0 298.267 250.377"><defs><path id="b" d="M5.625-.156c-.578-.047-.625-.14-.766-.86l-.937-5.64h-.25L.782-1.672C-.017-.344-.11-.234-.517-.156V0H1.36v-.156C.844-.203.766-.266.766-.516c0-.187.03-.265.203-.609L1.53-2.25h2.203l.188 1.297c.015.094.031.187.031.265 0 .375-.14.47-.781.532V0h2.453ZM1.75-2.61l1.484-2.594.438 2.594Zm0 0"/><path id="c" d="M7.64-6.516H5.189v.172c.578.063.687.14.687.422 0 .14-.031.375-.11.625l-.452 1.625H2.469l.547-1.937c.14-.516.406-.703 1-.735v-.172h-2.72v.172c.61.047.767.14.767.422 0 .14-.032.375-.11.625L.734-.89c-.187.579-.25.625-.812.735V0h2.453v-.156c-.594-.078-.703-.156-.703-.438 0-.078 0-.156.016-.219l.671-2.437h2.829L4.547-.89c-.156.515-.36.656-1.016.734V0h2.735v-.156c-.641-.063-.782-.14-.782-.422 0-.094.016-.156.032-.235l1.312-4.796c.172-.578.25-.641.813-.735Zm0 0"/><path id="e" d="M1.453-6.344c.578.063.703.157.703.407 0 .14-.031.359-.156.796L.813-.89C.64-.297.563-.234 0-.156V0h2.438v-.156c-.626-.094-.672-.125-.672-.469 0-.11.015-.219.125-.578l.515-1.922c.25.063.516.078.922.078.813 0 1.485-.156 1.922-.469.484-.375.781-.921.781-1.515 0-.953-.75-1.485-2.11-1.485H1.454Zm1.75.407c.063-.204.188-.266.469-.266.39 0 .765.094.969.234.25.172.359.469.359.938 0 .656-.219 1.11-.656 1.375-.313.172-.703.25-1.328.25-.172 0-.25-.016-.516-.047Zm0 0"/><path id="f" d="M6.438-6.516h-4.97v.172c.641.047.766.11.766.407 0 .14-.046.39-.109.64L.891-.89c-.172.594-.25.657-.813.735V0h2.516v-.156c-.578-.031-.766-.14-.766-.438 0-.078.031-.234.094-.453l.625-2.219c.36.016.578.032.797.032.39 0 .469 0 .547.046.156.079.218.204.218.407 0 .156-.015.281-.078.594l.172.046.766-2.328-.188-.062c-.437.906-.468.906-2.156.937l.672-2.328c.047-.203.187-.266.594-.266 1.687 0 2.047.141 2.047.75 0 .063 0 .11-.016.25-.016.047-.016.063-.016.188l.203.016Zm0 0"/><path id="g" d="M2.781.156c.766-.047 1.14-.14 1.703-.453C5.97-1.125 6.97-2.734 6.97-4.313c0-1.343-.953-2.328-2.282-2.328-.796 0-1.703.407-2.5 1.125-1 .938-1.593 2.141-1.593 3.313 0 .812.297 1.5.844 1.906.25.219.468.313.921.422-.906.797-1 .875-1.765 1.406l.094.157a2.25 2.25 0 0 1 1.14-.313c.203 0 .5.063.938.188.609.156 1.14.265 1.515.265.547 0 1.235-.266 1.75-.656.235-.188.375-.328.625-.688l-.14-.109c-.563.578-.97.766-1.688.766-.266 0-.469-.032-1.234-.22C3.078.798 2.609.704 2.547.72 2.516.734 2.5.734 2.5.734h-.25Zm1.86-6.468c.797 0 1.28.578 1.28 1.53 0 1.048-.468 2.516-1.109 3.438-.546.782-1.156 1.172-1.89 1.172-.813 0-1.281-.61-1.281-1.656 0-.938.5-2.422 1.093-3.297.563-.812 1.172-1.187 1.907-1.187m0 0"/><path id="h" d="M6.313-6.516H1.359v.172c.625.047.782.14.782.407 0 .109-.063.453-.11.64L.797-.89c-.172.563-.25.625-.813.735V0h5.063l.61-1.61-.157-.077c-.469.625-.719.89-1.156 1.093-.36.172-1.047.266-1.797.266-.547 0-.797-.094-.797-.344 0-.11.11-.578.36-1.453.14-.437.218-.766.328-1.14.343.015.656.03.765.03.39-.015.672.047.781.141.047.047.079.14.079.313 0 .172-.032.297-.079.515l.204.047.671-2.312-.171-.032c-.375.844-.47.907-1.375.938-.126 0-.438.016-.797.031l.672-2.328c.046-.219.156-.266.718-.266 1.563 0 1.922.141 1.922.735 0 .125-.016.281-.031.453l.219.016Zm0 0"/><path id="j" d="M-.078 0h2.812c1.563 0 2.641-.812 2.641-2 0-.36-.125-.719-.344-.937-.203-.22-.39-.344-.922-.563.72-.172 1-.281 1.329-.562q.42-.375.421-.985c0-.937-.703-1.469-1.984-1.469H1.297v.172c.61.047.766.125.766.407 0 .14-.032.39-.11.64L.734-.89c-.187.579-.25.625-.812.735Zm2.453-3.297c.64 0 1.063.031 1.266.11.406.171.656.609.656 1.156 0 1.078-.734 1.734-1.953 1.734-.422 0-.64-.156-.64-.422 0-.125.124-.593.343-1.39.14-.453.203-.688.328-1.188m.75-2.64c.063-.22.172-.266.563-.266.796 0 1.171.328 1.171 1.062 0 .579-.25 1.016-.671 1.25-.344.204-.813.266-1.72.266Zm0 0"/><path id="k" d="M8.703-6.516H7.031L3.688-1.594 3.14-6.516H1.328v.172c.5.032.75.14.75.36 0 .078-.047.234-.11.406a3 3 0 0 0-.077.297.3.3 0 0 0-.032.125L.797-1.453C.484-.422.344-.22-.172-.156V0h1.969v-.156c-.516-.047-.703-.156-.703-.438 0-.11.031-.36.078-.531l1.187-4.312L2.953 0h.172l3.766-5.594L5.609-.906c-.171.531-.359.672-1.015.75V0h2.718v-.156c-.671-.063-.765-.125-.765-.438 0-.156.016-.297.11-.61L7.89-5.608c.172-.594.218-.657.812-.735Zm0 0"/><path id="l" d="m6.5-4.64.375-1.985h-.219c-.078.172-.172.219-.375.219a2 2 0 0 1-.406-.063c-.453-.11-.844-.172-1.172-.172-2.125 0-4.047 2-4.047 4.22 0 1.53 1.078 2.593 2.61 2.593 1.015 0 1.812-.438 2.718-1.484l-.171-.141c-.891.89-1.47 1.187-2.297 1.187-1.11 0-1.735-.765-1.735-2.046 0-1.188.469-2.391 1.25-3.204.485-.484 1.11-.765 1.766-.765.922 0 1.422.547 1.516 1.61Zm0 0"/><path id="m" d="M1.297-6.344c.61.047.766.14.766.407 0 .14-.032.39-.11.64L.734-.89c-.187.579-.25.625-.812.735V0h2.516c1.171 0 2.234-.312 3-.875.968-.703 1.546-1.797 1.546-2.953 0-1.64-1.14-2.688-2.921-2.688H1.297Zm1.828.422c.063-.219.203-.281.61-.281.562 0 1.062.125 1.374.36.5.359.766.984.766 1.78 0 1.079-.422 2.188-1.094 2.86-.593.61-1.406.906-2.437.906-.453 0-.656-.11-.656-.375 0-.125.062-.344.218-.937Zm0 0"/><path id="n" d="M7.203-6.516H4.984v.172c.125 0 .235.032.266.032.25.015.344.078.344.187 0 .234-.547.766-1.438 1.39L2.641-3.671l.53-1.937c.142-.5.423-.703 1-.735v-.172H1.454v.172c.625.047.766.14.766.422 0 .14-.031.375-.11.625L.891-.89C.703-.297.656-.25.063-.156V0h2.484v-.156c-.64-.078-.719-.14-.719-.438 0-.11.016-.187.078-.39l.063-.22.61-2.265L3.78-1.39c.25.407.39.75.39.938 0 .156-.14.234-.468.266-.047 0-.156.015-.281.03V0h2.734v-.156C5.531-.22 5.47-.25 5.188-.72L3.452-3.734l3-2.25c.281-.22.5-.328.75-.36Zm0 0"/><path id="d" d="M2.578-.781c-.406.437-.687.594-1.047.594C1.11-.187.86-.5.86-1.031c0-.625.25-1.281.672-1.719a1.1 1.1 0 0 1 .797-.344c.172 0 .281.063.281.14 0 .048-.015.079-.046.142-.063.093-.063.156-.063.218 0 .172.11.281.281.281a.35.35 0 0 0 .36-.343c0-.344-.344-.594-.782-.594C1.25-3.25.22-2.172.22-1.031c0 .703.406 1.11 1.094 1.11.53 0 .937-.22 1.39-.782Zm0 0"/><path id="i" d="M.813-4.734c.437 0 .484.03.484.187 0 .063-.031.156-.078.328-.016.047-.032.094-.032.14l-.015.048-1 3.687v.031c0 .172.562.391.984.391 1.11 0 2.328-1.281 2.328-2.453 0-.516-.359-.875-.843-.875-.532 0-.907.297-1.438 1.11.39-1.407.438-1.594.766-2.86l-.032-.031c-.359.062-.624.11-1.124.156Zm1.53 1.843c.313 0 .516.25.516.641 0 .484-.375 1.266-.812 1.719-.266.281-.594.437-.906.437-.22 0-.344-.078-.344-.25 0-.437.234-1.156.531-1.703.328-.562.656-.844 1.016-.844m0 0"/><clipPath id="a"><path d="M0 11h239v239.379H0Zm0 0"/></clipPath></defs><path fill="#fff" d="M0 0h298.266v250.379H0Zm0 0"/><path fill="none" stroke="#000" stroke-linecap="round" stroke-linejoin="round" stroke-miterlimit="10" stroke-width=".797" d="M225.93 14.035 71.46 155.578h213.103Zm0 0"/><path fill="none" stroke="#000" stroke-linecap="round" stroke-miterlimit="10" stroke-width=".797" d="m212.309 193.004 41.046-112.77M225.93 155.578 187.297 49.434M212.309 193.004l11.535-85.871M253.355 80.234l-29.511 26.899M187.297 49.434l36.547 57.699"/><path fill="none" stroke="#000" stroke-miterlimit="10" stroke-width=".797" d="M254.613 70.66c0-20.437-16.566-37.004-37.004-37.004-20.433 0-37.004 16.567-37.004 37.004 0 20.434 16.57 37 37.004 37 20.438 0 37.004-16.566 37.004-37Zm0 0"/><path fill="none" stroke="red" stroke-dasharray="2.98883 1.99255" stroke-linecap="round" stroke-miterlimit="10" stroke-width=".797" d="m223.844 107.133 2.086-15.54"/><path fill="none" stroke="#00b200" stroke-dasharray="2.98883 1.99255" stroke-linecap="round" stroke-miterlimit="10" stroke-width=".797" d="m71.46 155.578 181.895-75.344M284.563 155.578 187.296 49.434M212.309 193.004l-63.614-69.418M178.012 155.578l77.234-31.992M225.93 14.035v141.543"/><path fill="none" stroke="#00adef" stroke-dasharray="2.98883 1.99255" stroke-miterlimit="10" stroke-width=".797" d="M258.617 104.195c0-31.285-25.36-56.648-56.644-56.648-31.286 0-56.649 25.363-56.649 56.648s25.363 56.649 56.649 56.649c31.285 0 56.644-25.364 56.644-56.649Zm0 0"/><path fill="none" stroke="#ff7f00" stroke-dasharray="2.98883 1.99255" stroke-miterlimit="10" stroke-width=".797" d="M225.969 93.535c0-24.562-19.914-44.476-44.477-44.476s-44.476 19.914-44.476 44.476c0 24.563 19.914 44.477 44.476 44.477 24.563 0 44.477-19.914 44.477-44.477Zm0 0"/><path fill="none" stroke="#ff7f00" stroke-dasharray="2.98883 1.99255" stroke-miterlimit="10" stroke-width=".797" d="M269.496 102.254c0-12.75-10.336-23.086-23.086-23.086s-23.086 10.336-23.086 23.086c0 12.754 10.336 23.09 23.086 23.09s23.086-10.336 23.086-23.09Zm0 0"/><g clip-path="url(#a)"><path fill="none" stroke="#bf0040" stroke-dasharray="2.98883 1.99255" stroke-miterlimit="10" stroke-width=".797" d="M227.61 136.125c0-62.61-50.75-113.36-113.356-113.36S.894 73.516.894 136.126c0 62.605 50.754 113.355 113.36 113.355 62.605 0 113.355-50.75 113.355-113.355Zm0 0"/></g><path fill="none" stroke="red" stroke-dasharray="2.98883 1.99255" stroke-miterlimit="10" stroke-width=".797" d="M264.574 150.48c0-23.984-19.441-43.43-43.43-43.43-23.988 0-43.433 19.446-43.433 43.43 0 23.989 19.445 43.434 43.434 43.434s43.43-19.445 43.43-43.434Zm0 0"/><path fill="none" stroke="#ff7f00" stroke-dasharray="2.98883 1.99255" stroke-linecap="round" stroke-miterlimit="10" stroke-width=".797" d="m187.297 49.434-38.602 74.152M253.355 80.234l1.891 43.352M223.844 107.133l31.402 16.453"/><path stroke="#000" stroke-miterlimit="10" stroke-width=".399" d="M226.93 14.035c0-.55-.45-1-1-1-.547 0-.996.45-.996 1a1 1 0 0 0 .996.996c.55 0 1-.449 1-.996ZM72.46 155.578a.999.999 0 0 0-1.995 0 .998.998 0 0 0 1.996 0ZM285.559 155.578a.995.995 0 1 0-1.99-.002.995.995 0 0 0 1.99.002ZM226.93 155.578a.999.999 0 0 0-1.996 0 .998.998 0 0 0 1.996 0ZM254.352 80.234a1 1 0 0 0-.997-.996c-.55 0-1 .45-1 .996 0 .551.45 1 1 1 .547 0 .997-.449.997-1ZM188.293 49.434a.995.995 0 1 0-1.99-.002.995.995 0 0 0 1.99.002ZM213.305 193.004a1 1 0 0 0-.996-.996.998.998 0 0 0 0 1.996c.55 0 .996-.45.996-1ZM220.648 138.328a.995.995 0 1 0-1.99-.002.995.995 0 0 0 1.99.002ZM224.84 107.133a.995.995 0 1 0-1.99-.002.995.995 0 0 0 1.99.002Zm0 0"/><path fill="#b20000" stroke="#4c0000" stroke-miterlimit="10" stroke-width=".399" d="M226.93 91.594a.999.999 0 0 0-1.996 0 .998.998 0 0 0 1.996 0Zm0 0"/><path fill="#00b200" stroke="#004c00" stroke-miterlimit="10" stroke-width=".399" d="M149.695 123.586a.999.999 0 0 0-1.996 0 .998.998 0 0 0 1.996 0ZM256.242 123.586a.995.995 0 1 0-1.99-.002.995.995 0 0 0 1.99.002ZM179.008 155.578a.995.995 0 1 0-1.99-.002.995.995 0 0 0 1.99.002Zm0 0"/><use xlink:href="#b" x="222.888" y="10.515"/><use xlink:href="#c" x="221.986" y="88.076"/><use xlink:href="#c" x="249.888" y="118.491"/><use xlink:href="#d" x="256.832" y="119.986"/><use xlink:href="#e" x="209.265" y="202.991"/><use xlink:href="#f" x="176.855" y="52.668"/><use xlink:href="#g" x="208.941" y="140.77"/><use xlink:href="#h" x="256.873" y="83.47"/><use xlink:href="#c" x="134.05" y="118.337"/><use xlink:href="#i" x="140.994" y="119.986"/><use xlink:href="#j" x="61.858" y="165.563"/><use xlink:href="#k" x="165.795" y="165.563"/><use xlink:href="#l" x="287.582" y="165.792"/><use xlink:href="#m" x="229.451" y="165.563"/><use xlink:href="#n" x="227.364" y="117.12"/></svg>