<svg xmlns="http://www.w3.org/2000/svg" xmlns:xlink="http://www.w3.org/1999/xlink" width="655.212" height="499.848" viewBox="0 0 491.409 374.886"><defs><path id="a" d="M8.422-.234c-.844-.078-.938-.203-1.125-1.297L5.89-9.984H5.5L1.172-2.516C-.016-.516-.172-.359-.766-.234V0h2.797v-.234c-.765-.078-.875-.157-.875-.532 0-.28.032-.421.297-.921l.844-1.688h3.297l.297 1.953c.015.14.03.266.03.39 0 .563-.218.704-1.171.798V0h3.672ZM2.609-3.906l2.25-3.89.657 3.89Zm0 0"/><path id="b" d="M13.047-9.75h-2.5L5.53-2.39l-.828-7.36H2v.234c.75.047 1.11.204 1.11.547 0 .125-.063.344-.157.625-.031.047-.062.219-.125.438-.015.047-.031.11-.047.172L1.187-2.187C.734-.625.517-.328-.266-.234V0h2.954v-.234c-.766-.063-1.063-.25-1.063-.657 0-.156.063-.546.14-.796l1.766-6.47L4.437 0h.25l5.641-8.375-1.937 7.016c-.235.797-.532 1.015-1.5 1.125V0h4.078v-.234C9.953-.328 9.813-.422 9.813-.875c0-.266.03-.453.171-.922l1.829-6.61c.265-.905.343-.968 1.234-1.109Zm0 0"/><path id="c" d="M2.188-9.516c.843.11 1.046.235 1.046.625 0 .22-.046.532-.25 1.204L1.22-1.344C.953-.454.844-.359 0-.234V0h3.656v-.234C2.72-.375 2.641-.422 2.641-.922c0-.187.03-.328.187-.875l.781-2.875c.375.094.766.11 1.375.11 1.235 0 2.235-.25 2.875-.704.75-.562 1.172-1.375 1.172-2.265 0-1.438-1.11-2.219-3.14-2.219H2.188Zm2.625.625c.093-.312.265-.421.687-.421.578 0 1.14.156 1.453.359.375.281.547.719.547 1.422 0 .968-.344 1.656-1 2.047-.469.25-1.047.375-1.969.375-.265 0-.375-.016-.781-.079Zm0 0"/><path id="d" d="M11.453-9.75H7.766v.234c.875.11 1.047.22 1.047.641 0 .219-.063.563-.157.922L7.97-5.5H3.703l.813-2.906c.218-.766.609-1.047 1.5-1.11v-.234H1.938v.234c.937.094 1.156.204 1.156.641 0 .219-.063.563-.172.922l-1.828 6.61C.828-.485.719-.392-.125-.235V0h3.688v-.234C2.656-.36 2.5-.47 2.5-.891c0-.109.016-.234.047-.328l.984-3.656h4.25l-.968 3.531c-.235.782-.532 1-1.516 1.11V0h4.078v-.234c-.953-.094-1.156-.22-1.156-.625 0-.157.015-.25.047-.36l1.968-7.187c.25-.875.375-.953 1.22-1.11Zm0 0"/><path id="f" d="M-.125 0h4.219c2.343 0 3.953-1.219 3.953-2.984 0-.563-.172-1.078-.5-1.407-.297-.343-.594-.53-1.375-.859 1.062-.25 1.484-.422 1.969-.844.422-.36.64-.86.64-1.468 0-1.422-1.062-2.188-2.984-2.188h-3.86v.234c.938.079 1.157.188 1.157.61 0 .234-.063.594-.172.953l-1.828 6.61C.828-.485.719-.392-.125-.235Zm3.688-4.937c.968 0 1.593.046 1.89.171.61.25.984.907.984 1.72 0 1.608-1.109 2.593-2.921 2.593-.625 0-.97-.219-.97-.625 0-.172.188-.89.532-2.094.188-.672.281-1.015.485-1.765m1.109-3.954c.094-.328.266-.421.86-.421 1.187 0 1.75.515 1.75 1.624 0 .844-.36 1.5-1 1.86-.516.297-1.235.406-2.579.406Zm0 0"/><path id="g" d="M9.64-9.75H2.204v.234c.969.094 1.14.188 1.14.61 0 .234-.062.594-.155.953l-1.844 6.61C1.078-.454.969-.36.125-.235V0h3.766v-.234C3.016-.281 2.75-.454 2.75-.891c0-.125.047-.343.14-.671l.922-3.344c.547.031.876.047 1.204.047.578 0 .687.015.828.078.218.125.328.312.328.61 0 .25-.031.421-.125.89l.25.062 1.14-3.484-.265-.078c-.672 1.343-.719 1.36-3.234 1.39l.984-3.484c.094-.297.312-.39.922-.39 2.5 0 3.047.203 3.047 1.124 0 .094 0 .157-.016.36-.016.093-.016.11-.031.281l.312.031Zm0 0"/><path id="h" d="M4.172.234C5.312.172 5.89.016 6.719-.453c2.218-1.234 3.718-3.656 3.718-6.016 0-2.015-1.437-3.484-3.421-3.484-1.188 0-2.532.625-3.735 1.687-1.5 1.407-2.39 3.22-2.39 4.97 0 1.218.453 2.234 1.265 2.859.39.312.719.468 1.375.609C2.171 1.375 2.031 1.5.875 2.297l.156.234a3.36 3.36 0 0 1 1.719-.469c.297 0 .734.094 1.39.266.907.25 1.72.406 2.266.406.828 0 1.875-.39 2.625-.984.36-.266.563-.484.953-1.016L9.75.563c-.828.875-1.437 1.156-2.516 1.156-.39 0-.703-.063-1.843-.328-.782-.203-1.485-.328-1.563-.313-.062.016-.094.016-.094.016H3.36Zm2.781-9.687c1.188 0 1.922.86 1.922 2.281 0 1.578-.703 3.781-1.656 5.156C6.39-.844 5.469-.25 4.375-.25c-1.203 0-1.906-.922-1.906-2.484 0-1.422.734-3.641 1.64-4.938.829-1.219 1.75-1.781 2.844-1.781m0 0"/><path id="i" d="M9.469-9.75H2.047v.234c.922.094 1.156.204 1.156.61 0 .172-.094.687-.172.953l-1.844 6.61C.938-.5.829-.392-.016-.235V0h7.579l.921-2.422-.234-.125c-.703.969-1.094 1.36-1.734 1.656-.563.25-1.578.391-2.688.391-.844 0-1.203-.14-1.203-.5 0-.172.172-.86.547-2.187.187-.657.328-1.141.469-1.72.53.032.984.048 1.172.048.578-.016 1 .078 1.156.234.078.063.11.203.11.453 0 .266-.032.453-.11.781l.312.079 1.016-3.47-.281-.062c-.563 1.266-.703 1.36-2.063 1.422-.172 0-.656.016-1.172.031l.985-3.484c.093-.328.25-.39 1.093-.39 2.344 0 2.86.203 2.86 1.093 0 .188-.016.422-.031.672L9-7.469Zm0 0"/><path id="j" d="M9.047-9.75h-7.25l-.688 2.172.282.078c.312-.656.484-.906.78-1.156.423-.36 1.22-.563 2.345-.563h2.547L-.095-.203V0h7.547l.813-2.516-.282-.03c-.484.952-.75 1.312-1.265 1.593-.5.297-1.25.422-2.469.422H1.844l7.203-9.016Zm0 0"/><path id="k" d="M6.016-9.75H1.938v.234c.937.094 1.156.204 1.156.641 0 .219-.063.563-.172.922l-1.828 6.61C.828-.485.719-.392-.125-.235V0h7.61l.859-2.672-.297-.094C7.53-1.687 7.125-1.203 6.469-.875c-.532.25-1.14.344-2.438.344-1.14 0-1.5-.125-1.5-.516 0-.11.063-.469.14-.75l1.845-6.61c.218-.765.609-1.046 1.5-1.109Zm0 0"/><path id="l" d="m9.734-6.953.563-2.969h-.313c-.125.25-.28.328-.578.328-.11 0-.297-.031-.61-.094-.671-.171-1.265-.265-1.75-.265-3.171 0-6.062 3-6.062 6.328 0 2.281 1.61 3.89 3.907 3.89 1.53 0 2.734-.656 4.078-2.218l-.266-.219C7.36-.844 6.5-.406 5.266-.406c-1.657 0-2.61-1.125-2.61-3.063 0-1.781.719-3.578 1.89-4.797.72-.734 1.657-1.14 2.641-1.14 1.375 0 2.141.797 2.282 2.422Zm0 0"/><path id="m" d="M1.938-9.516c.937.094 1.156.204 1.156.61 0 .234-.063.594-.172.953l-1.828 6.61C.828-.485.719-.392-.125-.235V0h3.781C5.406 0 7-.469 8.156-1.297 9.61-2.359 10.453-4 10.453-5.734c0-2.453-1.703-4.016-4.36-4.016H1.939Zm2.734.641c.094-.328.312-.437.922-.437.843 0 1.593.203 2.062.562.735.531 1.14 1.469 1.14 2.656 0 1.61-.624 3.282-1.64 4.297-.875.906-2.093 1.344-3.64 1.344-.688 0-.97-.156-.97-.547 0-.187.063-.531.329-1.422Zm0 0"/><path id="e" d="M3.875-1.172c-.61.656-1.047.89-1.578.89-.64 0-1.016-.468-1.016-1.25 0-.952.39-1.937 1.016-2.577.312-.344.75-.532 1.187-.532.25 0 .422.079.422.22 0 .046-.015.109-.062.202-.078.14-.11.219-.11.328 0 .266.172.422.438.422a.514.514 0 0 0 .531-.515c0-.5-.5-.891-1.156-.891-1.672 0-3.219 1.61-3.219 3.344C.328-.484.922.125 1.953.125c.828 0 1.438-.344 2.094-1.187Zm0 0"/></defs><path fill="#fff" d="M0 0h491.41v374.887H0Zm0 0"/><path fill="none" stroke="#000" stroke-linecap="round" stroke-linejoin="round" stroke-miterlimit="10" stroke-width="1.1955" d="M382.906 21.05 151.203 233.368h319.649Zm0 0"/><path fill="none" stroke="#000" stroke-linecap="round" stroke-miterlimit="10" stroke-width="1.1955" d="m362.473 289.508 61.566-169.153M382.906 233.367 324.957 74.152"/><path fill="none" stroke="red" stroke-dasharray="4.483245 2.9888250000000003" stroke-linecap="round" stroke-miterlimit="10" stroke-width="1.1955" d="m362.473 289.508 20.433-152.117"/><path fill="none" stroke="#00b200" stroke-dasharray="4.483245 2.9888250000000003" stroke-linecap="round" stroke-miterlimit="10" stroke-width="1.1955" d="M151.203 233.367 424.04 120.355M470.852 233.367 324.957 74.152M382.906 21.05v212.317"/><path fill="none" stroke="#ff7f00" stroke-dasharray="4.483245 2.9888250000000003" stroke-linecap="round" stroke-miterlimit="10" stroke-width="1.1955" d="m362.473 289.508-51.446-56.14M151.203 233.367 19.36 354.18M426.879 185.379l-407.52 168.8"/><path fill="none" stroke="#000" stroke-dasharray="4.483245 2.9888250000000003" stroke-linecap="round" stroke-miterlimit="10" stroke-width="1.1955" d="m424.04 120.355-99.083-46.203"/><path stroke="#000" stroke-miterlimit="10" stroke-width=".5985" d="M384.402 21.05c0-.823-.668-1.495-1.496-1.495a1.495 1.495 0 1 0 1.496 1.496ZM152.7 233.367a1.495 1.495 0 1 0-2.986-.001 1.495 1.495 0 0 0 2.985.001ZM472.348 233.367c0-.824-.672-1.496-1.496-1.496a1.495 1.495 0 0 0 0 2.988c.824 0 1.496-.668 1.496-1.492ZM384.402 233.367c0-.824-.668-1.496-1.496-1.496a1.495 1.495 0 1 0 1.496 1.496ZM425.535 120.355a1.494 1.494 0 1 0-2.987-.004 1.494 1.494 0 0 0 2.987.004ZM326.453 74.152a1.496 1.496 0 0 0-2.992 0 1.495 1.495 0 0 0 2.992 0ZM363.969 289.508a1.495 1.495 0 1 0-2.991.006 1.495 1.495 0 0 0 2.99-.006ZM374.984 207.492c0-.824-.668-1.492-1.492-1.492a1.494 1.494 0 1 0 1.492 1.492Zm0 0"/><path fill="#b20000" stroke="#4c0000" stroke-miterlimit="10" stroke-width=".5985" d="M384.402 137.39c0-.824-.668-1.492-1.496-1.492-.824 0-1.492.668-1.492 1.493a1.494 1.494 0 1 0 2.988 0Zm0 0"/><path fill="#00b200" stroke="#004c00" stroke-miterlimit="10" stroke-width=".5985" d="M428.375 185.379c0-.824-.672-1.496-1.496-1.496a1.495 1.495 0 1 0 1.496 1.496ZM312.523 233.367c0-.824-.671-1.496-1.496-1.496a1.495 1.495 0 0 0 0 2.988c.825 0 1.496-.668 1.496-1.492Zm0 0"/><path fill="#b25900" stroke="#4c2600" stroke-miterlimit="10" stroke-width=".5985" d="M20.855 354.18c0-.825-.671-1.496-1.496-1.496a1.495 1.495 0 0 0 0 2.988c.825 0 1.496-.668 1.496-1.492ZM409.402 164.676c0-.824-.668-1.492-1.492-1.492-.828 0-1.496.668-1.496 1.492s.668 1.496 1.496 1.496c.824 0 1.492-.672 1.492-1.496Zm0 0"/><use xlink:href="#a" x="378.341" y="15.773"/><use xlink:href="#b" x="304.505" y="228.087"/><use xlink:href="#c" x="357.908" y="304.485"/><use xlink:href="#d" x="418.842" y="200.358"/><use xlink:href="#e" x="429.258" y="202.599"/><use xlink:href="#f" x="136.796" y="238.215"/><use xlink:href="#g" x="309.291" y="79.002"/><use xlink:href="#h" x="357.42" y="211.155"/><use xlink:href="#d" x="365.791" y="142.242"/><use xlink:href="#i" x="429.318" y="125.205"/><use xlink:href="#j" x="413.187" y="169.525"/><use xlink:href="#k" x="5.731" y="369.154"/><use xlink:href="#l" x="475.382" y="248.688"/><use xlink:href="#m" x="388.187" y="248.345"/></svg>