<svg xmlns="http://www.w3.org/2000/svg" xmlns:xlink="http://www.w3.org/1999/xlink" width="402.276" height="381.689" viewBox="0 0 301.707 286.267"><defs><path id="a" d="M5.625-.156c-.578-.047-.625-.14-.766-.86l-.937-5.64h-.25L.782-1.672C-.017-.344-.11-.234-.517-.156V0H1.36v-.156C.844-.203.766-.266.766-.516c0-.187.03-.265.203-.609L1.53-2.25h2.203l.188 1.297c.015.094.031.187.031.265 0 .375-.14.47-.781.532V0h2.453ZM1.75-2.61l1.484-2.594.438 2.594Zm0 0"/><path id="b" d="M7.64-6.516H5.189v.172c.578.063.687.14.687.422 0 .14-.031.375-.11.625l-.452 1.625H2.469l.547-1.937c.14-.516.406-.703 1-.735v-.172h-2.72v.172c.61.047.767.14.767.422 0 .14-.032.375-.11.625L.734-.89c-.187.579-.25.625-.812.735V0h2.453v-.156c-.594-.078-.703-.156-.703-.438 0-.078 0-.156.016-.219l.671-2.437h2.829L4.547-.89c-.156.515-.36.656-1.016.734V0h2.735v-.156c-.641-.063-.782-.14-.782-.422 0-.094.016-.156.032-.235l1.312-4.796c.172-.578.25-.641.813-.735Zm0 0"/><path id="c" d="m4.672-4.672.39-1.984h-.234c-.14.218-.219.265-.437.265-.125 0-.235-.03-.47-.109-.218-.094-.53-.14-.843-.14-1.031 0-1.765.687-1.765 1.671 0 .532.14.828.734 1.453.094.094.219.235.39.422.188.188.329.344.391.422.469.485.594.75.594 1.172 0 .75-.547 1.328-1.281 1.328-.828 0-1.453-.703-1.453-1.656 0-.078.015-.156.015-.219l-.187-.031L.172.156h.172c.078-.234.187-.328.39-.328.11 0 .25.031.516.125.453.172.719.219 1.031.219 1.14 0 2.016-.86 2.016-1.984 0-.657-.234-1.032-1.125-1.954-.906-.906-.985-1.046-.985-1.53 0-.626.422-1.016 1.094-1.016q.563 0 .89.375c.22.25.298.578.313 1.25Zm0 0"/><path id="d" d="M1.453-6.344c.578.063.703.157.703.407 0 .14-.031.359-.156.796L.813-.89C.64-.297.563-.234 0-.156V0h2.438v-.156c-.626-.094-.672-.125-.672-.469 0-.11.015-.219.125-.578l.515-1.922c.25.063.516.078.922.078.813 0 1.485-.156 1.922-.469.484-.375.781-.921.781-1.515 0-.953-.75-1.485-2.11-1.485H1.454Zm1.75.407c.063-.204.188-.266.469-.266.39 0 .765.094.969.234.25.172.359.469.359.938 0 .656-.219 1.11-.656 1.375-.313.172-.703.25-1.328.25-.172 0-.25-.016-.516-.047Zm0 0"/><path id="e" d="M7.25-6.516H5.266v.172c.562.047.703.14.703.5 0 .125-.032.235-.094.438-.016.031-.016.078-.016.078L4.83-1.531 2.765-6.516h-1.61v.172c.469.032.672.157.86.547L.828-1.64C.453-.359.375-.234-.203-.156V0H1.78v-.156c-.515-.047-.703-.156-.703-.438 0-.125.031-.328.094-.531l1.125-4.203L4.594.156h.187l1.422-5.015c.375-1.297.422-1.344 1.047-1.485Zm0 0"/><path id="h" d="M6.438-6.516h-4.97v.172c.641.047.766.11.766.407 0 .14-.046.39-.109.64L.891-.89c-.172.594-.25.657-.813.735V0h2.516v-.156c-.578-.031-.766-.14-.766-.438 0-.078.031-.234.094-.453l.625-2.219c.36.016.578.032.797.032.39 0 .469 0 .547.046.156.079.218.204.218.407 0 .156-.015.281-.078.594l.172.046.766-2.328-.188-.062c-.437.906-.468.906-2.156.937l.672-2.328c.047-.203.187-.266.594-.266 1.687 0 2.047.141 2.047.75 0 .063 0 .11-.016.25-.016.047-.016.063-.016.188l.203.016Zm0 0"/><path id="i" d="M2.781.156c.766-.047 1.14-.14 1.703-.453C5.97-1.125 6.97-2.734 6.97-4.313c0-1.343-.953-2.328-2.282-2.328-.796 0-1.703.407-2.5 1.125-1 .938-1.593 2.141-1.593 3.313 0 .812.297 1.5.844 1.906.25.219.468.313.921.422-.906.797-1 .875-1.765 1.406l.094.157a2.25 2.25 0 0 1 1.14-.313c.203 0 .5.063.938.188.609.156 1.14.265 1.515.265.547 0 1.235-.266 1.75-.656.235-.188.375-.328.625-.688l-.14-.109c-.563.578-.97.766-1.688.766-.266 0-.469-.032-1.234-.22C3.078.798 2.609.704 2.547.72 2.516.734 2.5.734 2.5.734h-.25Zm1.86-6.468c.797 0 1.28.578 1.28 1.53 0 1.048-.468 2.516-1.109 3.438-.546.782-1.156 1.172-1.89 1.172-.813 0-1.281-.61-1.281-1.656 0-.938.5-2.422 1.093-3.297.563-.812 1.172-1.187 1.907-1.187m0 0"/><path id="j" d="M6.313-6.516H1.359v.172c.625.047.782.14.782.407 0 .109-.063.453-.11.64L.797-.89c-.172.563-.25.625-.813.735V0h5.063l.61-1.61-.157-.077c-.469.625-.719.89-1.156 1.093-.36.172-1.047.266-1.797.266-.547 0-.797-.094-.797-.344 0-.11.11-.578.36-1.453.14-.437.218-.766.328-1.14.343.015.656.03.765.03.39-.015.672.047.781.141.047.047.079.14.079.313 0 .172-.032.297-.079.515l.204.047.671-2.312-.171-.032c-.375.844-.47.907-1.375.938-.126 0-.438.016-.797.031l.672-2.328c.046-.219.156-.266.718-.266 1.563 0 1.922.141 1.922.735 0 .125-.016.281-.031.453l.219.016Zm0 0"/><path id="k" d="M5.656-.156c-.437-.031-.64-.203-.828-.719l-.937-2.437c.78-.172 1.109-.313 1.468-.641.329-.281.5-.672.5-1.125 0-.922-.734-1.438-2.078-1.438H1.313v.172c.421.047.468.063.578.14.078.048.14.157.14.266 0 .125-.062.36-.125.641L.672-.89C.5-.312.422-.25-.125-.156V0h2.422v-.156c-.61-.078-.672-.14-.672-.469 0-.094.031-.219.125-.578l.547-2.078.656.047L4.172 0h1.484ZM3.078-5.937c.047-.204.188-.266.5-.266.828 0 1.235.375 1.235 1.11 0 .984-.641 1.5-1.875 1.5a2.3 2.3 0 0 1-.516-.063Zm0 0"/><path id="l" d="M-.078 0h2.812c1.563 0 2.641-.812 2.641-2 0-.36-.125-.719-.344-.937-.203-.22-.39-.344-.922-.563.72-.172 1-.281 1.329-.562q.42-.375.421-.985c0-.937-.703-1.469-1.984-1.469H1.297v.172c.61.047.766.125.766.407 0 .14-.032.39-.11.64L.734-.89c-.187.579-.25.625-.812.735Zm2.453-3.297c.64 0 1.063.031 1.266.11.406.171.656.609.656 1.156 0 1.078-.734 1.734-1.953 1.734-.422 0-.64-.156-.64-.422 0-.125.124-.593.343-1.39.14-.453.203-.688.328-1.188m.75-2.64c.063-.22.172-.266.563-.266.796 0 1.171.328 1.171 1.062 0 .579-.25 1.016-.671 1.25-.344.204-.813.266-1.72.266Zm0 0"/><path id="m" d="M8.703-6.516H7.031L3.688-1.594 3.14-6.516H1.328v.172c.5.032.75.14.75.36 0 .078-.047.234-.11.406a3 3 0 0 0-.077.297.3.3 0 0 0-.032.125L.797-1.453C.484-.422.344-.22-.172-.156V0h1.969v-.156c-.516-.047-.703-.156-.703-.438 0-.11.031-.36.078-.531l1.187-4.312L2.953 0h.172l3.766-5.594L5.609-.906c-.171.531-.359.672-1.015.75V0h2.718v-.156c-.671-.063-.765-.125-.765-.438 0-.156.016-.297.11-.61L7.89-5.608c.172-.594.218-.657.812-.735Zm0 0"/><path id="n" d="m6.5-4.64.375-1.985h-.219c-.078.172-.172.219-.375.219a2 2 0 0 1-.406-.063c-.453-.11-.844-.172-1.172-.172-2.125 0-4.047 2-4.047 4.22 0 1.53 1.078 2.593 2.61 2.593 1.015 0 1.812-.438 2.718-1.484l-.171-.141c-.891.89-1.47 1.187-2.297 1.187-1.11 0-1.735-.765-1.735-2.046 0-1.188.469-2.391 1.25-3.204.485-.484 1.11-.765 1.766-.765.922 0 1.422.547 1.516 1.61Zm0 0"/><path id="o" d="M1.297-6.344c.61.047.766.14.766.407 0 .14-.032.39-.11.64L.734-.89c-.187.579-.25.625-.812.735V0h2.516c1.171 0 2.234-.312 3-.875.968-.703 1.546-1.797 1.546-2.953 0-1.64-1.14-2.688-2.921-2.688H1.297Zm1.828.422c.063-.219.203-.281.61-.281.562 0 1.062.125 1.374.36.5.359.766.984.766 1.78 0 1.079-.422 2.188-1.094 2.86-.593.61-1.406.906-2.437.906-.453 0-.656-.11-.656-.375 0-.125.062-.344.218-.937Zm0 0"/><path id="p" d="M7.203-6.516H4.984v.172c.125 0 .235.032.266.032.25.015.344.078.344.187 0 .234-.547.766-1.438 1.39L2.641-3.671l.53-1.937c.142-.5.423-.703 1-.735v-.172H1.454v.172c.625.047.766.14.766.422 0 .14-.031.375-.11.625L.891-.89C.703-.297.656-.25.063-.156V0h2.484v-.156c-.64-.078-.719-.14-.719-.438 0-.11.016-.187.078-.39l.063-.22.61-2.265L3.78-1.39c.25.407.39.75.39.938 0 .156-.14.234-.468.266-.047 0-.156.015-.281.03V0h2.734v-.156C5.531-.22 5.47-.25 5.188-.72L3.452-3.734l3-2.25c.281-.22.5-.328.75-.36Zm0 0"/><path id="f" d="M2.578-.781c-.406.437-.687.594-1.047.594C1.11-.187.86-.5.86-1.031c0-.625.25-1.281.672-1.719a1.1 1.1 0 0 1 .797-.344c.172 0 .281.063.281.14 0 .048-.015.079-.046.142-.063.093-.063.156-.063.218 0 .172.11.281.281.281a.35.35 0 0 0 .36-.343c0-.344-.344-.594-.782-.594C1.25-3.25.22-2.172.22-1.031c0 .703.406 1.11 1.094 1.11.53 0 .937-.22 1.39-.782Zm0 0"/><path id="g" d="M.813-4.734c.437 0 .484.03.484.187 0 .063-.031.156-.078.328-.016.047-.032.094-.032.14l-.015.048-1 3.687v.031c0 .172.562.391.984.391 1.11 0 2.328-1.281 2.328-2.453 0-.516-.359-.875-.843-.875-.532 0-.907.297-1.438 1.11.39-1.407.438-1.594.766-2.86l-.032-.031c-.359.062-.624.11-1.124.156Zm1.53 1.843c.313 0 .516.25.516.641 0 .484-.375 1.266-.812 1.719-.266.281-.594.437-.906.437-.22 0-.344-.078-.344-.25 0-.437.234-1.156.531-1.703.328-.562.656-.844 1.016-.844m0 0"/></defs><path fill="#fff" d="M0 0h301.707v286.266H0Zm0 0"/><path fill="none" stroke="#000" stroke-linecap="round" stroke-linejoin="round" stroke-miterlimit="10" stroke-width=".797" d="M167.895 93.488 13.425 235.035h213.098Zm0 0"/><path fill="none" stroke="#000" stroke-linecap="round" stroke-miterlimit="10" stroke-width=".797" d="m154.273 272.46 41.043-112.769M167.895 235.035l-38.633-106.144M154.273 272.46l11.536-85.87M195.316 159.691 165.81 186.59M129.262 128.89l36.547 57.7"/><path fill="none" stroke="#000" stroke-miterlimit="10" stroke-width=".797" d="M196.578 150.113c0-20.433-16.566-37-37.004-37s-37.004 16.567-37.004 37c0 20.438 16.567 37.004 37.004 37.004 20.438 0 37.004-16.566 37.004-37.004Zm0 0"/><path fill="none" stroke="red" stroke-dasharray="2.98883 1.99255" stroke-linecap="round" stroke-miterlimit="10" stroke-width=".797" d="m165.809 186.59 23.156-172.387M90.66 203.043l98.305-188.84M197.21 203.043l-8.245-188.84"/><path fill="none" stroke="#00b200" stroke-dasharray="2.98883 1.99255" stroke-linecap="round" stroke-miterlimit="10" stroke-width=".797" d="m13.426 235.035 181.89-75.344M226.523 235.035l-97.261-106.144M154.273 272.46 90.66 203.044M119.977 235.035l77.234-31.992M167.895 93.488v141.547"/><path fill="none" stroke="#00adef" stroke-dasharray="2.98883 1.99255" stroke-miterlimit="10" stroke-width=".797" d="M200.582 183.652c0-31.285-25.363-56.648-56.648-56.648s-56.649 25.363-56.649 56.648 25.363 56.649 56.649 56.649c31.285 0 56.648-25.363 56.648-56.649Zm0 0"/><path fill="none" stroke="#ff7f00" stroke-dasharray="2.98883 1.99255" stroke-miterlimit="10" stroke-width=".797" d="M167.93 172.992c0-24.566-19.91-44.476-44.473-44.476-24.566 0-44.477 19.91-44.477 44.476 0 24.563 19.91 44.477 44.477 44.477 24.563 0 44.473-19.914 44.473-44.477Zm0 0"/><path fill="none" stroke="#ff7f00" stroke-dasharray="2.98883 1.99255" stroke-miterlimit="10" stroke-width=".797" d="M211.46 181.71c0-12.75-10.335-23.085-23.085-23.085s-23.086 10.336-23.086 23.086 10.336 23.086 23.086 23.086 23.086-10.336 23.086-23.086Zm0 0"/><path fill="none" stroke="#ff7f00" stroke-dasharray="2.98883 1.99255" stroke-linecap="round" stroke-miterlimit="10" stroke-width=".797" d="m129.262 128.89 159.02 74.153M90.66 203.043h197.621"/><path fill="none" stroke="#00f" stroke-dasharray="2.98883 1.99255" stroke-linecap="round" stroke-miterlimit="10" stroke-width=".797" d="m143.934 183.652 144.347 19.391"/><path stroke="#000" stroke-miterlimit="10" stroke-width=".399" d="M168.89 93.488a.995.995 0 1 0-1.99-.001.995.995 0 0 0 1.99.001ZM14.422 235.035a.995.995 0 1 0-1.99-.002.995.995 0 0 0 1.99.002ZM227.52 235.035a.995.995 0 1 0-1.991-.002.995.995 0 0 0 1.99.002ZM168.89 235.035a.995.995 0 1 0-1.99-.002.995.995 0 0 0 1.99.002ZM196.313 159.691a.995.995 0 1 0-1.991-.001.995.995 0 0 0 1.99.001ZM130.258 128.89a.995.995 0 1 0-1.99-.001.995.995 0 0 0 1.99.002ZM155.27 272.46c0-.55-.45-.995-.997-.995a.995.995 0 1 0 .997.996ZM162.613 217.785a.995.995 0 1 0-1.99-.002.995.995 0 0 0 1.99.002ZM166.805 186.59a.995.995 0 1 0-1.994-.002.995.995 0 0 0 1.994.002Zm0 0"/><path fill="#b20000" stroke="#4c0000" stroke-miterlimit="10" stroke-width=".399" d="M168.89 171.05a.995.995 0 1 0-1.99 0 .995.995 0 0 0 1.99 0ZM189.96 14.203a.995.995 0 1 0-1.99-.002.995.995 0 0 0 1.99.002ZM289.277 203.043a.995.995 0 1 0-1.99-.002.995.995 0 0 0 1.99.002ZM144.93 183.652a.995.995 0 1 0-1.99-.001.995.995 0 0 0 1.99.001Zm0 0"/><path fill="#00b200" stroke="#004c00" stroke-miterlimit="10" stroke-width=".399" d="M91.656 203.043a.995.995 0 1 0-1.99-.002.995.995 0 0 0 1.99.002ZM198.207 203.043a.995.995 0 1 0-1.994-.002.995.995 0 0 0 1.994.002ZM120.973 235.035a.995.995 0 1 0-1.994-.002.995.995 0 0 0 1.994.002Zm0 0"/><use xlink:href="#a" x="164.851" y="89.971"/><use xlink:href="#b" x="163.949" y="167.531"/><use xlink:href="#c" x="186.433" y="10.515"/><use xlink:href="#d" x="151.228" y="282.446"/><use xlink:href="#e" x="140.313" y="193.638"/><use xlink:href="#b" x="191.851" y="213.028"/><use xlink:href="#f" x="198.795" y="214.522"/><use xlink:href="#b" x="85.097" y="213.028"/><use xlink:href="#g" x="92.041" y="214.676"/><use xlink:href="#h" x="118.818" y="132.124"/><use xlink:href="#i" x="150.904" y="220.226"/><use xlink:href="#j" x="198.836" y="162.926"/><use xlink:href="#k" x="291.799" y="206.275"/><use xlink:href="#l" x="3.821" y="245.019"/><use xlink:href="#m" x="107.758" y="245.019"/><use xlink:href="#n" x="229.545" y="245.248"/><use xlink:href="#o" x="171.414" y="245.019"/><use xlink:href="#p" x="169.327" y="196.576"/></svg>