<svg xmlns="http://www.w3.org/2000/svg" xmlns:xlink="http://www.w3.org/1999/xlink" width="584.838" height="592.908" viewBox="0 0 438.628 444.681"><defs><path id="c" d="M2.188-9.516c.843.11 1.046.235 1.046.625 0 .22-.046.532-.25 1.204L1.22-1.344C.953-.454.844-.359 0-.234V0h3.656v-.234C2.72-.375 2.641-.422 2.641-.922c0-.187.03-.328.187-.875l.781-2.875c.375.094.766.11 1.375.11 1.235 0 2.235-.25 2.875-.704.75-.562 1.172-1.375 1.172-2.265 0-1.438-1.11-2.219-3.14-2.219H2.188Zm2.625.625c.093-.312.265-.421.687-.421.578 0 1.14.156 1.453.359.375.281.547.719.547 1.422 0 .968-.344 1.656-1 2.047-.469.25-1.047.375-1.969.375-.265 0-.375-.016-.781-.079Zm0 0"/><path id="d" d="M-.125 0h4.219c2.343 0 3.953-1.219 3.953-2.984 0-.563-.172-1.078-.5-1.407-.297-.343-.594-.53-1.375-.859 1.062-.25 1.484-.422 1.969-.844.422-.36.64-.86.64-1.468 0-1.422-1.062-2.188-2.984-2.188h-3.86v.234c.938.079 1.157.188 1.157.61 0 .234-.063.594-.172.953l-1.828 6.61C.828-.485.719-.392-.125-.235Zm3.688-4.937c.968 0 1.593.046 1.89.171.61.25.984.907.984 1.72 0 1.608-1.109 2.593-2.921 2.593-.625 0-.97-.219-.97-.625 0-.172.188-.89.532-2.094.188-.672.281-1.015.485-1.765m1.109-3.954c.094-.328.266-.421.86-.421 1.187 0 1.75.515 1.75 1.624 0 .844-.36 1.5-1 1.86-.516.297-1.235.406-2.579.406Zm0 0"/><path id="e" d="M6.016-9.75H1.938v.234c.937.094 1.156.204 1.156.641 0 .219-.063.563-.172.922l-1.828 6.61C.828-.485.719-.392-.125-.235V0h7.61l.859-2.672-.297-.094C7.53-1.687 7.125-1.203 6.469-.875c-.532.25-1.14.344-2.438.344-1.14 0-1.5-.125-1.5-.516 0-.11.063-.469.14-.75l1.845-6.61c.218-.765.609-1.046 1.5-1.109Zm0 0"/><path id="f" d="m9.734-6.953.563-2.969h-.313c-.125.25-.28.328-.578.328-.11 0-.297-.031-.61-.094-.671-.171-1.265-.265-1.75-.265-3.171 0-6.062 3-6.062 6.328 0 2.281 1.61 3.89 3.907 3.89 1.53 0 2.734-.656 4.078-2.218l-.266-.219C7.36-.844 6.5-.406 5.266-.406c-1.657 0-2.61-1.125-2.61-3.063 0-1.781.719-3.578 1.89-4.797.72-.734 1.657-1.14 2.641-1.14 1.375 0 2.141.797 2.282 2.422Zm0 0"/><path id="g" d="M10.781-9.75H7.47v.234c.172.016.343.047.406.047.36.031.5.125.5.281 0 .36-.812 1.172-2.14 2.094L3.952-5.516l.797-2.89c.219-.75.625-1.047 1.516-1.11v-.234H2.188v.234c.921.094 1.14.204 1.14.641 0 .219-.062.563-.156.922l-1.844 6.61C1.062-.454.984-.376.11-.235V0h3.704v-.234c-.938-.11-1.079-.203-1.079-.657 0-.156.032-.296.125-.593l.079-.313.937-3.406 1.797 3.11c.36.609.578 1.14.578 1.421 0 .219-.219.344-.687.39-.079 0-.25.016-.438.048V0h4.11v-.234c-.938-.094-1.032-.141-1.454-.844L5.188-5.594l4.484-3.39c.406-.313.75-.47 1.11-.532Zm0 0"/><path id="h" d="M8.422-.234c-.844-.078-.938-.203-1.125-1.297L5.89-9.984H5.5L1.172-2.516C-.016-.516-.172-.359-.766-.234V0h2.797v-.234c-.765-.078-.875-.157-.875-.532 0-.28.032-.421.297-.921l.844-1.688h3.297l.297 1.953c.015.14.03.266.03.39 0 .563-.218.704-1.171.798V0h3.672ZM2.609-3.906l2.25-3.89.657 3.89Zm0 0"/><path id="i" d="M13.047-9.75h-2.5L5.53-2.39l-.828-7.36H2v.234c.75.047 1.11.204 1.11.547 0 .125-.063.344-.157.625-.031.047-.062.219-.125.438-.015.047-.031.11-.047.172L1.187-2.187C.734-.625.517-.328-.266-.234V0h2.954v-.234c-.766-.063-1.063-.25-1.063-.657 0-.156.063-.546.14-.796l1.766-6.47L4.437 0h.25l5.641-8.375-1.937 7.016c-.235.797-.532 1.015-1.5 1.125V0h4.078v-.234C9.953-.328 9.813-.422 9.813-.875c0-.266.03-.453.171-.922l1.829-6.61c.265-.905.343-.968 1.234-1.109Zm0 0"/><path id="j" d="M9.781-9.75h-3.11v.234c.735.094.923.188.923.532 0 .203-.094.375-.297.625L5.125-5.875 4.25-8.062c-.172-.391-.234-.641-.234-.844 0-.375.234-.5 1.062-.61v-.234H1.141v.234c.859.079 1.078.22 1.375.907l1.578 3.937c-.547.625-1.047 1.203-1.235 1.453C.781-.78.36-.406-.437-.234V0h3.203v-.234c-.72 0-.97-.141-.97-.516 0-.219.11-.469.313-.703l2.25-2.563 1 2.47c.11.265.172.5.172.718 0 .437-.156.516-1.14.594V0h4.078v-.234c-1.047-.125-1.172-.22-1.547-1.11L5.39-5.204l2.53-2.89c.766-.875 1.22-1.219 1.86-1.422Zm0 0"/><path id="k" d="M-.125 0h3.656v-.234c-.86-.11-1.015-.203-1.015-.61 0-.297.03-.468.156-.953l1.844-6.61c.265-.874.375-.952 1.218-1.109v-.234H2.047v.234c.86.11 1.047.22 1.047.641 0 .219-.063.563-.172.922l-1.828 6.61C.828-.485.719-.392-.125-.235Zm0 0"/><path id="l" d="M4.172.234C5.312.172 5.89.016 6.719-.453c2.218-1.234 3.718-3.656 3.718-6.016 0-2.015-1.437-3.484-3.421-3.484-1.188 0-2.532.625-3.735 1.687-1.5 1.407-2.39 3.22-2.39 4.97 0 1.218.453 2.234 1.265 2.859.39.312.719.468 1.375.609C2.171 1.375 2.031 1.5.875 2.297l.156.234a3.36 3.36 0 0 1 1.719-.469c.297 0 .734.094 1.39.266.907.25 1.72.406 2.266.406.828 0 1.875-.39 2.625-.984.36-.266.563-.484.953-1.016L9.75.563c-.828.875-1.437 1.156-2.516 1.156-.39 0-.703-.063-1.843-.328-.782-.203-1.485-.328-1.563-.313-.062.016-.094.016-.094.016H3.36Zm2.781-9.687c1.188 0 1.922.86 1.922 2.281 0 1.578-.703 3.781-1.656 5.156C6.39-.844 5.469-.25 4.375-.25c-1.203 0-1.906-.922-1.906-2.484 0-1.422.734-3.641 1.64-4.938.829-1.219 1.75-1.781 2.844-1.781m0 0"/><path id="m" d="M10.86-9.75H7.89v.234c.844.079 1.048.22 1.048.766 0 .172-.032.36-.141.656-.016.047-.031.11-.031.11L7.25-2.297 4.14-9.75H1.735v.234c.704.063 1.016.25 1.282.844L1.234-2.453C.672-.531.547-.36-.296-.234V0h2.952v-.234C1.891-.297 1.61-.47 1.61-.875c0-.203.047-.5.141-.812l1.703-6.297L6.891.219h.265l2.157-7.516c.546-1.922.609-2.016 1.546-2.219Zm0 0"/><path id="n" d="M1.36-9.516c.843.125.874.172 1.14.985l1.14 4.015-.906 3.172c-.25.813-.578 1.047-1.562 1.11V0h4.312v-.234a8 8 0 0 1-.546-.047c-.579-.031-.782-.188-.782-.563 0-.312.094-.75.453-1.922.047-.125.079-.234.094-.296l.438-1.516L8.406-8.61c.485-.594.594-.703 1.047-.907v-.234H6.625v.234c.188.016.344.032.406.047.438.047.625.156.625.422 0 .39-.687 1.375-2.234 3.172-.25.297-.344.422-.563.688-.187-.657-.234-.844-.468-1.641-.375-1.281-.532-1.922-.532-2.156 0-.344.172-.438 1.063-.532v-.234H1.359Zm0 0"/><clipPath id="a"><path d="M0 175h269v269.68H0Zm0 0"/></clipPath><clipPath id="b"><path d="M201 137h237.629v254H201Zm0 0"/></clipPath></defs><path fill="#fff" d="M0 0h438.629v444.68H0Zm0 0"/><path fill="none" stroke="#000" stroke-linecap="round" stroke-linejoin="round" stroke-miterlimit="10" stroke-width="1.1955" d="M164.781 23.95 82.328 200.776H417.32Zm0 0"/><path fill="none" stroke="#000" stroke-miterlimit="10" stroke-width="1.1955" d="M263.887 130.121c0-39.023-31.633-70.656-70.653-70.656-39.023 0-70.656 31.633-70.656 70.656s31.633 70.656 70.656 70.656c39.02 0 70.653-31.632 70.653-70.656Zm0 0"/><path fill="none" stroke="#000" stroke-miterlimit="10" stroke-width="1.1955" d="M419.719 171.242c0-93.832-76.063-169.894-169.895-169.894S79.93 77.41 79.93 171.242s76.062 169.895 169.894 169.895S419.72 265.074 419.72 171.242Zm0 0"/><path fill="none" stroke="#000" stroke-linecap="round" stroke-linejoin="bevel" stroke-miterlimit="10" stroke-width="1.1955" d="m104.14 153.992 66.817 46.785 78.863 140.54-11.574-140.54 44.078-94.527"/><path fill="none" stroke="#000" stroke-linecap="round" stroke-linejoin="bevel" stroke-miterlimit="10" stroke-width="1.1955" d="m123.555 112.363 69.68 17.758 97.816-17.758"/><path fill="none" stroke="#000" stroke-linecap="round" stroke-miterlimit="10" stroke-width="1.1955" d="m164.781 23.95 85.04 317.366"/><path fill="none" stroke="#00b200" stroke-dasharray="4.483245 2.9888250000000003" stroke-linecap="round" stroke-miterlimit="10" stroke-width="1.1955" d="m170.957 200.777 50.727 35.516M238.246 200.777l-16.562 35.516"/><path fill="none" stroke="red" stroke-dasharray="4.483245 2.9888250000000003" stroke-linecap="round" stroke-miterlimit="10" stroke-width="1.1955" d="m82.328 200.777 139.356 35.516M221.684 236.293l195.636-35.516M123.555 112.363H291.05"/><path fill="#0f0" fill-opacity=".3" d="m193.234 130.121 97.817-17.758H123.555Zm0 0"/><path fill="#00adef" fill-opacity=".3" d="M82.328 200.777H417.32l-195.636 35.516Zm0 0"/><g clip-path="url(#a)"><path fill="none" stroke="#ec008c" stroke-dasharray="4.483245 2.9888250000000003" stroke-miterlimit="10" stroke-width="1.1955" d="M251.937 318.04c0-69.2-56.093-125.298-125.296-125.298-69.2 0-125.297 56.098-125.297 125.297 0 69.203 56.097 125.297 125.297 125.297 69.203 0 125.296-56.094 125.296-125.297Zm0 0"/></g><g clip-path="url(#b)"><path fill="none" stroke="#ec008c" stroke-dasharray="4.483245 2.9888250000000003" stroke-miterlimit="10" stroke-width="1.1955" d="M437.281 264.148c0-60.476-49.023-109.5-109.5-109.5-60.472 0-109.5 49.024-109.5 109.5s49.028 109.5 109.5 109.5c60.477 0 109.5-49.023 109.5-109.5Zm0 0"/></g><path fill="none" stroke="#ec008c" stroke-dasharray="4.483245 2.9888250000000003" stroke-linecap="round" stroke-miterlimit="10" stroke-width="1.1955" d="m82.328 200.777 167.492 140.54M417.32 200.777l-167.5 140.54"/><path stroke="#000" stroke-miterlimit="10" stroke-width=".5985" d="M166.277 23.95a1.494 1.494 0 1 0-2.987-.006 1.494 1.494 0 0 0 2.987.005ZM83.82 200.777a1.494 1.494 0 1 0-2.99-.005 1.494 1.494 0 0 0 2.99.005ZM418.816 200.777a1.496 1.496 0 0 0-2.992 0 1.495 1.495 0 0 0 2.992 0ZM194.727 130.121a1.495 1.495 0 1 0-2.989 0c0 .824.668 1.492 1.496 1.492.825 0 1.493-.668 1.493-1.492ZM292.547 112.363a1.493 1.493 0 1 0-2.988 0c0 .824.668 1.492 1.492 1.492s1.496-.668 1.496-1.492ZM125.05 112.363a1.493 1.493 0 1 0-2.988 0 1.495 1.495 0 0 0 2.988 0ZM172.45 200.777c0-.828-.669-1.496-1.493-1.496s-1.496.668-1.496 1.496a1.495 1.495 0 0 0 2.988 0ZM239.738 200.777a1.494 1.494 0 1 0-2.99-.005 1.494 1.494 0 0 0 2.99.005ZM154.203 187.996a1.495 1.495 0 1 0-2.99.006 1.495 1.495 0 0 0 2.99-.006ZM258.762 159.98c0-.824-.668-1.492-1.492-1.492-.829 0-1.497.668-1.497 1.492a1.495 1.495 0 1 0 2.988 0ZM105.637 153.992c0-.824-.668-1.496-1.496-1.496a1.495 1.495 0 1 0 1.496 1.496ZM283.816 106.25c0-.824-.668-1.496-1.492-1.496s-1.496.672-1.496 1.496.672 1.496 1.496 1.496 1.492-.672 1.492-1.496ZM251.316 341.316a1.495 1.495 0 1 0-2.99.007 1.495 1.495 0 0 0 2.99-.007Zm0 0"/><path fill="#00b200" stroke="#004c00" stroke-miterlimit="10" stroke-width=".5985" d="M223.176 236.293c0-.824-.668-1.492-1.492-1.492a1.495 1.495 0 1 0 0 2.988c.824 0 1.492-.668 1.492-1.496Zm0 0"/><use xlink:href="#c" x="245.255" y="356.293"/><use xlink:href="#d" x="67.918" y="205.625"/><use xlink:href="#e" x="109.923" y="117.212"/><use xlink:href="#f" x="421.851" y="205.669"/><use xlink:href="#g" x="296.331" y="117.212"/><use xlink:href="#h" x="150.374" y="18.669"/><use xlink:href="#i" x="85.818" y="148.712"/><use xlink:href="#j" x="155.142" y="215.752"/><use xlink:href="#k" x="182.215" y="145.098"/><use xlink:href="#l" x="205.614" y="251.614"/><use xlink:href="#m" x="287.603" y="100.716"/><use xlink:href="#n" x="242.778" y="215.752"/></svg>