<svg xmlns="http://www.w3.org/2000/svg" xmlns:xlink="http://www.w3.org/1999/xlink" width="292.419" height="296.454" style="background-color:#fff" viewBox="0 0 292.419 296.454"><defs><path id="c" d="M1.453-6.344c.578.063.703.157.703.407 0 .14-.031.359-.156.796L.813-.89C.64-.297.563-.234 0-.156V0h2.438v-.156c-.626-.094-.672-.125-.672-.469 0-.11.015-.219.125-.578l.515-1.922c.25.063.516.078.922.078.813 0 1.485-.156 1.922-.469.484-.375.781-.921.781-1.515 0-.953-.75-1.485-2.11-1.485H1.454Zm1.75.407c.063-.204.188-.266.469-.266.39 0 .765.094.969.234.25.172.359.469.359.938 0 .656-.219 1.11-.656 1.375-.313.172-.703.25-1.328.25-.172 0-.25-.016-.516-.047Zm0 0"/><path id="d" d="M-.078 0h2.812c1.563 0 2.641-.812 2.641-2 0-.36-.125-.719-.344-.937-.203-.22-.39-.344-.922-.563.72-.172 1-.281 1.329-.562q.42-.375.421-.985c0-.937-.703-1.469-1.984-1.469H1.297v.172c.61.047.766.125.766.407 0 .14-.032.39-.11.64L.734-.89c-.187.579-.25.625-.812.735Zm2.453-3.297c.64 0 1.063.031 1.266.11.406.171.656.609.656 1.156 0 1.078-.734 1.734-1.953 1.734-.422 0-.64-.156-.64-.422 0-.125.124-.593.343-1.39.14-.453.203-.688.328-1.188m.75-2.64c.063-.22.172-.266.563-.266.796 0 1.171.328 1.171 1.062 0 .579-.25 1.016-.671 1.25-.344.204-.813.266-1.72.266Zm0 0"/><path id="e" d="M4.016-6.516h-2.72v.172c.61.047.767.14.767.422 0 .14-.032.375-.11.625L.734-.89c-.187.579-.25.625-.812.735V0H5l.578-1.781-.203-.063c-.344.719-.625 1.032-1.062 1.25-.344.172-.75.235-1.625.235-.75 0-1-.079-1-.344 0-.063.046-.297.093-.5L3.016-5.61c.14-.516.406-.703 1-.735Zm0 0"/><path id="f" d="m6.5-4.64.375-1.985h-.219c-.078.172-.172.219-.375.219a2 2 0 0 1-.406-.063c-.453-.11-.844-.172-1.172-.172-2.125 0-4.047 2-4.047 4.22 0 1.53 1.078 2.593 2.61 2.593 1.015 0 1.812-.438 2.718-1.484l-.171-.141c-.891.89-1.47 1.187-2.297 1.187-1.11 0-1.735-.765-1.735-2.046 0-1.188.469-2.391 1.25-3.204.485-.484 1.11-.765 1.766-.765.922 0 1.422.547 1.516 1.61Zm0 0"/><path id="g" d="M7.203-6.516H4.984v.172c.125 0 .235.032.266.032.25.015.344.078.344.187 0 .234-.547.766-1.438 1.39L2.641-3.671l.53-1.937c.142-.5.423-.703 1-.735v-.172H1.454v.172c.625.047.766.14.766.422 0 .14-.031.375-.11.625L.891-.89C.703-.297.656-.25.063-.156V0h2.484v-.156c-.64-.078-.719-.14-.719-.438 0-.11.016-.187.078-.39l.063-.22.61-2.265L3.78-1.39c.25.407.39.75.39.938 0 .156-.14.234-.468.266-.047 0-.156.015-.281.03V0h2.734v-.156C5.531-.22 5.47-.25 5.188-.72L3.452-3.734l3-2.25c.281-.22.5-.328.75-.36Zm0 0"/><path id="h" d="M5.625-.156c-.578-.047-.625-.14-.766-.86l-.937-5.64h-.25L.782-1.672C-.017-.344-.11-.234-.517-.156V0H1.36v-.156C.844-.203.766-.266.766-.516c0-.187.03-.265.203-.609L1.53-2.25h2.203l.188 1.297c.015.094.031.187.031.265 0 .375-.14.47-.781.532V0h2.453ZM1.75-2.61l1.484-2.594.438 2.594Zm0 0"/><path id="i" d="M8.703-6.516H7.031L3.688-1.594 3.14-6.516H1.328v.172c.5.032.75.14.75.36 0 .078-.047.234-.11.406a3 3 0 0 0-.077.297.3.3 0 0 0-.032.125L.797-1.453C.484-.422.344-.22-.172-.156V0h1.969v-.156c-.516-.047-.703-.156-.703-.438 0-.11.031-.36.078-.531l1.187-4.312L2.953 0h.172l3.766-5.594L5.609-.906c-.171.531-.359.672-1.015.75V0h2.718v-.156c-.671-.063-.765-.125-.765-.438 0-.156.016-.297.11-.61L7.89-5.608c.172-.594.218-.657.812-.735Zm0 0"/><path id="j" d="M6.531-6.516H4.453v.172c.484.047.61.125.61.36 0 .125-.063.25-.204.406L3.422-3.922 2.828-5.39c-.11-.25-.14-.421-.14-.546 0-.25.156-.344.703-.407v-.172H.75v.172c.578.047.734.14.922.61l1.062 2.609c-.375.422-.703.813-.828.969-1.39 1.64-1.672 1.89-2.203 2V0h2.14v-.156c-.484 0-.64-.094-.64-.344 0-.14.078-.312.203-.469l1.5-1.719.672 1.657c.078.172.11.328.11.484 0 .281-.094.344-.75.39V0h2.718v-.156c-.703-.078-.797-.14-1.047-.735L3.594-3.469 5.28-5.406c.516-.578.813-.797 1.25-.938Zm0 0"/><path id="k" d="M-.078 0h2.437v-.156c-.578-.078-.687-.14-.687-.406 0-.188.016-.313.11-.641L3.015-5.61c.172-.578.25-.641.812-.735v-.172H1.36v.172c.579.063.704.14.704.422 0 .14-.032.375-.11.625L.734-.89c-.187.579-.25.625-.812.735Zm0 0"/><path id="l" d="M2.781.156c.766-.047 1.14-.14 1.703-.453C5.97-1.125 6.97-2.734 6.97-4.313c0-1.343-.953-2.328-2.282-2.328-.796 0-1.703.407-2.5 1.125-1 .938-1.593 2.141-1.593 3.313 0 .812.297 1.5.844 1.906.25.219.468.313.921.422-.906.797-1 .875-1.765 1.406l.094.157a2.25 2.25 0 0 1 1.14-.313c.203 0 .5.063.938.188.609.156 1.14.265 1.515.265.547 0 1.235-.266 1.75-.656.235-.188.375-.328.625-.688l-.14-.109c-.563.578-.97.766-1.688.766-.266 0-.469-.032-1.234-.22C3.078.798 2.609.704 2.547.72 2.516.734 2.5.734 2.5.734h-.25Zm1.86-6.468c.797 0 1.28.578 1.28 1.53 0 1.048-.468 2.516-1.109 3.438-.546.782-1.156 1.172-1.89 1.172-.813 0-1.281-.61-1.281-1.656 0-.938.5-2.422 1.093-3.297.563-.812 1.172-1.187 1.907-1.187m0 0"/><path id="m" d="M7.25-6.516H5.266v.172c.562.047.703.14.703.5 0 .125-.032.235-.094.438-.016.031-.016.078-.016.078L4.83-1.531 2.765-6.516h-1.61v.172c.469.032.672.157.86.547L.828-1.64C.453-.359.375-.234-.203-.156V0H1.78v-.156c-.515-.047-.703-.156-.703-.438 0-.125.031-.328.094-.531l1.125-4.203L4.594.156h.187l1.422-5.015c.375-1.297.422-1.344 1.047-1.485Zm0 0"/><path id="n" d="M.906-6.344c.563.078.594.11.766.657l.766 2.671-.61 2.125c-.172.532-.39.688-1.047.735V0h2.875v-.156c-.156-.016-.297-.016-.36-.031-.39-.016-.53-.125-.53-.375 0-.204.078-.5.312-1.282.031-.093.047-.156.063-.203l.28-1L5.61-5.734c.329-.407.407-.47.704-.61v-.172H4.422v.172c.125 0 .234.016.266.032.296.015.421.109.421.265 0 .281-.453.922-1.484 2.125-.172.203-.234.281-.39.469-.11-.438-.141-.578-.297-1.11-.25-.843-.36-1.28-.36-1.421 0-.25.11-.313.719-.36v-.172H.907Zm0 0"/><clipPath id="a"><path d="M0 117h180v179.453H0Zm0 0"/></clipPath><clipPath id="b"><path d="M134 91h158.418v170H134Zm0 0"/></clipPath></defs><path fill="none" stroke="#000" stroke-linecap="round" stroke-linejoin="round" stroke-miterlimit="10" stroke-width=".797" d="M109.855 15.965 54.883 133.852h223.332Zm0 0"/><path fill="none" stroke="#000" stroke-miterlimit="10" stroke-width=".797" d="M175.926 86.746c0-26.016-21.09-47.101-47.106-47.101-26.011 0-47.101 21.085-47.101 47.101s21.09 47.106 47.101 47.106c26.016 0 47.106-21.09 47.106-47.106Zm0 0"/><path fill="none" stroke="#000" stroke-miterlimit="10" stroke-width=".797" d="M279.813 114.16C279.813 51.605 229.102.898 166.55.898 103.996.898 53.285 51.605 53.285 114.16s50.711 113.266 113.266 113.266c62.55 0 113.262-50.711 113.262-113.266Zm0 0"/><path fill="none" stroke="#000" stroke-linecap="round" stroke-linejoin="bevel" stroke-miterlimit="10" stroke-width=".797" d="m69.43 102.66 44.543 31.192 52.574 93.695-7.719-93.695 29.387-63.02"/><path fill="none" stroke="#000" stroke-linecap="round" stroke-linejoin="bevel" stroke-miterlimit="10" stroke-width=".797" d="m82.371 74.906 46.45 11.84 65.214-11.84"/><path fill="none" stroke="#000" stroke-linecap="round" stroke-miterlimit="10" stroke-width=".797" d="m109.855 15.965 56.692 211.582"/><path fill="none" stroke="#00b200" stroke-dasharray="2.98883 1.99255" stroke-linecap="round" stroke-miterlimit="10" stroke-width=".797" d="m113.973 133.852 33.816 23.68M158.828 133.852l-11.039 23.68"/><path fill="none" stroke="red" stroke-dasharray="2.98883 1.99255" stroke-linecap="round" stroke-miterlimit="10" stroke-width=".797" d="m54.883 133.852 92.906 23.68M147.79 157.531l130.425-23.68M82.371 74.906h111.664"/><path fill="#0f0" fill-opacity=".3" d="m128.82 86.746 65.215-11.84H82.371Zm0 0"/><path fill="#00adef" fill-opacity=".3" d="M54.883 133.852h223.332l-130.426 23.68Zm0 0"/><g clip-path="url(#a)"><path fill="none" stroke="#ec008c" stroke-dasharray="2.98883 1.99255" stroke-miterlimit="10" stroke-width=".797" d="M167.96 212.027c0-46.132-37.398-83.53-83.53-83.53-46.137 0-83.532 37.398-83.532 83.53 0 46.133 37.395 83.532 83.532 83.532 46.132 0 83.53-37.399 83.53-83.532Zm0 0"/></g><g clip-path="url(#b)"><path fill="none" stroke="#ec008c" stroke-dasharray="2.98883 1.99255" stroke-miterlimit="10" stroke-width=".797" d="M291.523 176.098c0-40.317-32.683-73-73-73-40.32 0-73 32.683-73 73 0 40.32 32.68 73 73 73 40.317 0 73-32.68 73-73Zm0 0"/></g><path fill="none" stroke="#ec008c" stroke-dasharray="2.98883 1.99255" stroke-linecap="round" stroke-miterlimit="10" stroke-width=".797" d="m54.883 133.852 111.664 93.695M278.215 133.852l-111.668 93.695"/><path stroke="#000" stroke-miterlimit="10" stroke-width=".399" d="M110.852 15.965a.995.995 0 1 0-1.991-.002.995.995 0 0 0 1.99.002ZM55.879 133.852a.995.995 0 1 0-1.99-.002.995.995 0 0 0 1.99.002ZM279.21 133.852a.995.995 0 1 0-1.994-.002.995.995 0 0 0 1.995.002ZM129.816 86.746a.995.995 0 1 0-1.99-.002.995.995 0 0 0 1.99.002ZM195.031 74.906a1 1 0 0 0-.996-.996.995.995 0 1 0 .996.996ZM83.367 74.906a1 1 0 0 0-.996-.996.995.995 0 1 0 .996.996ZM114.969 133.852a.995.995 0 1 0-1.994-.002.995.995 0 0 0 1.994.002ZM159.828 133.852a.999.999 0 0 0-1.996 0 .998.998 0 0 0 1.996 0ZM102.8 125.332a.995.995 0 1 0-1.99-.002.995.995 0 0 0 1.99.002ZM172.508 106.652a1 1 0 0 0-.996-.996.995.995 0 1 0 .996.996ZM70.426 102.66a1 1 0 0 0-.996-.996.995.995 0 1 0 .996.996ZM189.21 70.832a.995.995 0 1 0-1.99-.002.995.995 0 0 0 1.99.002ZM167.543 227.547a.995.995 0 1 0-1.99-.002.995.995 0 0 0 1.99.002Zm0 0"/><path fill="#00b200" stroke="#004c00" stroke-miterlimit="10" stroke-width=".399" d="M148.785 157.531c0-.55-.445-1-.996-1a.999.999 0 0 0 0 1.996c.55 0 .996-.449.996-.996Zm0 0"/><use xlink:href="#c" x="163.503" y="237.529"/><use xlink:href="#d" x="45.279" y="137.083"/><use xlink:href="#e" x="73.282" y="78.141"/><use xlink:href="#f" x="281.234" y="137.113"/><use xlink:href="#g" x="197.554" y="78.141"/><use xlink:href="#h" x="100.249" y="12.446"/><use xlink:href="#i" x="57.212" y="99.142"/><use xlink:href="#j" x="103.428" y="143.835"/><use xlink:href="#k" x="121.477" y="96.733"/><use xlink:href="#l" x="137.076" y="167.743"/><use xlink:href="#m" x="191.735" y="67.144"/><use xlink:href="#n" x="161.852" y="143.835"/></svg>