<svg xmlns="http://www.w3.org/2000/svg" xmlns:xlink="http://www.w3.org/1999/xlink" width="250.46" height="241.349" style="background-color:#fff" viewBox="0 0 250.46 241.349"><defs><path id="a" d="M1.453-6.344c.578.063.703.157.703.407 0 .14-.031.359-.156.796L.813-.89C.64-.297.563-.234 0-.156V0h2.438v-.156c-.626-.094-.672-.125-.672-.469 0-.11.015-.219.125-.578l.515-1.922c.25.063.516.078.922.078.813 0 1.485-.156 1.922-.469.484-.375.781-.921.781-1.515 0-.953-.75-1.485-2.11-1.485H1.454Zm1.75.407c.063-.204.188-.266.469-.266.39 0 .765.094.969.234.25.172.359.469.359.938 0 .656-.219 1.11-.656 1.375-.313.172-.703.25-1.328.25-.172 0-.25-.016-.516-.047Zm0 0"/><path id="b" d="M-.078 0h2.812c1.563 0 2.641-.812 2.641-2 0-.36-.125-.719-.344-.937-.203-.22-.39-.344-.922-.563.72-.172 1-.281 1.329-.562q.42-.375.421-.985c0-.937-.703-1.469-1.984-1.469H1.297v.172c.61.047.766.125.766.407 0 .14-.032.39-.11.64L.734-.89c-.187.579-.25.625-.812.735Zm2.453-3.297c.64 0 1.063.031 1.266.11.406.171.656.609.656 1.156 0 1.078-.734 1.734-1.953 1.734-.422 0-.64-.156-.64-.422 0-.125.124-.593.343-1.39.14-.453.203-.688.328-1.188m.75-2.64c.063-.22.172-.266.563-.266.796 0 1.171.328 1.171 1.062 0 .579-.25 1.016-.671 1.25-.344.204-.813.266-1.72.266Zm0 0"/><path id="c" d="M4.016-6.516h-2.72v.172c.61.047.767.14.767.422 0 .14-.032.375-.11.625L.734-.89c-.187.579-.25.625-.812.735V0H5l.578-1.781-.203-.063c-.344.719-.625 1.032-1.062 1.25-.344.172-.75.235-1.625.235-.75 0-1-.079-1-.344 0-.063.046-.297.093-.5L3.016-5.61c.14-.516.406-.703 1-.735Zm0 0"/><path id="d" d="m6.5-4.64.375-1.985h-.219c-.078.172-.172.219-.375.219a2 2 0 0 1-.406-.063c-.453-.11-.844-.172-1.172-.172-2.125 0-4.047 2-4.047 4.22 0 1.53 1.078 2.593 2.61 2.593 1.015 0 1.812-.438 2.718-1.484l-.171-.141c-.891.89-1.47 1.187-2.297 1.187-1.11 0-1.735-.765-1.735-2.046 0-1.188.469-2.391 1.25-3.204.485-.484 1.11-.765 1.766-.765.922 0 1.422.547 1.516 1.61Zm0 0"/><path id="e" d="M7.203-6.516H4.984v.172c.125 0 .235.032.266.032.25.015.344.078.344.187 0 .234-.547.766-1.438 1.39L2.641-3.671l.53-1.937c.142-.5.423-.703 1-.735v-.172H1.454v.172c.625.047.766.14.766.422 0 .14-.031.375-.11.625L.891-.89C.703-.297.656-.25.063-.156V0h2.484v-.156c-.64-.078-.719-.14-.719-.438 0-.11.016-.187.078-.39l.063-.22.61-2.265L3.78-1.39c.25.407.39.75.39.938 0 .156-.14.234-.468.266-.047 0-.156.015-.281.03V0h2.734v-.156C5.531-.22 5.47-.25 5.188-.72L3.452-3.734l3-2.25c.281-.22.5-.328.75-.36Zm0 0"/><path id="f" d="M5.625-.156c-.578-.047-.625-.14-.766-.86l-.937-5.64h-.25L.782-1.672C-.017-.344-.11-.234-.517-.156V0H1.36v-.156C.844-.203.766-.266.766-.516c0-.187.03-.265.203-.609L1.53-2.25h2.203l.188 1.297c.015.094.031.187.031.265 0 .375-.14.47-.781.532V0h2.453ZM1.75-2.61l1.484-2.594.438 2.594Zm0 0"/><path id="g" d="M6.531-6.516H4.453v.172c.484.047.61.125.61.36 0 .125-.063.25-.204.406L3.422-3.922 2.828-5.39c-.11-.25-.14-.421-.14-.546 0-.25.156-.344.703-.407v-.172H.75v.172c.578.047.734.14.922.61l1.062 2.609c-.375.422-.703.813-.828.969-1.39 1.64-1.672 1.89-2.203 2V0h2.14v-.156c-.484 0-.64-.094-.64-.344 0-.14.078-.312.203-.469l1.5-1.719.672 1.657c.078.172.11.328.11.484 0 .281-.094.344-.75.39V0h2.718v-.156c-.703-.078-.797-.14-1.047-.735L3.594-3.469 5.28-5.406c.516-.578.813-.797 1.25-.938Zm0 0"/><path id="h" d="M-.078 0h2.437v-.156c-.578-.078-.687-.14-.687-.406 0-.188.016-.313.11-.641L3.015-5.61c.172-.578.25-.641.812-.735v-.172H1.36v.172c.579.063.704.14.704.422 0 .14-.032.375-.11.625L.734-.89c-.187.579-.25.625-.812.735Zm0 0"/><path id="i" d="M.906-6.344c.563.078.594.11.766.657l.766 2.671-.61 2.125c-.172.532-.39.688-1.047.735V0h2.875v-.156c-.156-.016-.297-.016-.36-.031-.39-.016-.53-.125-.53-.375 0-.204.078-.5.312-1.282.031-.093.047-.156.063-.203l.28-1L5.61-5.734c.329-.407.407-.47.704-.61v-.172H4.422v.172c.125 0 .234.016.266.032.296.015.421.109.421.265 0 .281-.453.922-1.484 2.125-.172.203-.234.281-.39.469-.11-.438-.141-.578-.297-1.11-.25-.843-.36-1.28-.36-1.421 0-.25.11-.313.719-.36v-.172H.907Zm0 0"/></defs><path fill="none" stroke="#000" stroke-linecap="round" stroke-linejoin="round" stroke-miterlimit="10" stroke-width=".797" d="m68.395 15.965-54.97 117.883h223.329Zm0 0"/><path fill="none" stroke="#000" stroke-miterlimit="10" stroke-width=".797" d="M134.465 86.746c0-26.016-21.086-47.101-47.102-47.101S40.258 60.73 40.258 86.746s21.09 47.102 47.105 47.102c26.016 0 47.102-21.086 47.102-47.102Zm0 0"/><path fill="none" stroke="#000" stroke-miterlimit="10" stroke-width=".797" d="M238.352 114.16C238.352 51.605 187.645.898 125.09.898S11.828 51.605 11.828 114.16 62.535 227.422 125.09 227.422s113.262-50.707 113.262-113.262Zm0 0"/><path fill="none" stroke="#000" stroke-linecap="round" stroke-linejoin="bevel" stroke-miterlimit="10" stroke-width=".797" d="m27.969 102.66 44.543 31.188 52.574 93.695-7.715-93.695 29.387-63.016"/><path fill="none" stroke="#000" stroke-linecap="round" stroke-linejoin="bevel" stroke-miterlimit="10" stroke-width=".797" d="m40.91 74.906 46.453 11.84 65.211-11.84"/><path fill="none" stroke="#000" stroke-linecap="round" stroke-miterlimit="10" stroke-width=".797" d="m68.395 15.965 56.69 211.578"/><path stroke="#000" stroke-miterlimit="10" stroke-width=".399" d="M69.395 15.965a.999.999 0 0 0-1.997 0 .998.998 0 0 0 1.997 0ZM14.422 133.848a1 1 0 0 0-.996-.996.998.998 0 0 0 0 1.996c.55 0 .996-.45.996-1ZM237.75 133.848a1 1 0 0 0-.996-.996.998.998 0 0 0 0 1.996c.55 0 .996-.45.996-1ZM88.36 86.746a.995.995 0 1 0-1.991-.002.995.995 0 0 0 1.99.002ZM153.57 74.906a.995.995 0 1 0-1.99-.001.995.995 0 0 0 1.99.001ZM41.906 74.906a.995.995 0 1 0-1.99-.001.995.995 0 0 0 1.99.001ZM73.508 133.848a1 1 0 0 0-.996-.996.998.998 0 0 0 0 1.996c.55 0 .996-.45.996-1ZM118.367 133.848a1 1 0 0 0-.996-.996.998.998 0 0 0 0 1.996c.55 0 .996-.45.996-1ZM61.344 125.332a.999.999 0 0 0-1.996 0 .998.998 0 0 0 1.996 0ZM131.05 106.652a.995.995 0 1 0-1.994-.002.995.995 0 0 0 1.995.002ZM28.965 102.66a.995.995 0 1 0-1.99-.002.995.995 0 0 0 1.99.002ZM147.754 70.832a.995.995 0 1 0-1.99-.002.995.995 0 0 0 1.99.002ZM126.086 227.543a.999.999 0 0 0-1.996 0 .998.998 0 0 0 1.996 0Zm0 0"/><use xlink:href="#a" x="122.045" y="237.528"/><use xlink:href="#b" x="3.82" y="137.082"/><use xlink:href="#c" x="31.824" y="78.14"/><use xlink:href="#d" x="239.775" y="137.112"/><use xlink:href="#e" x="156.095" y="78.14"/><use xlink:href="#f" x="58.79" y="12.445"/><use xlink:href="#g" x="61.97" y="143.835"/><use xlink:href="#h" x="80.018" y="96.732"/><use xlink:href="#i" x="120.393" y="143.835"/></svg>