<svg xmlns="http://www.w3.org/2000/svg" xmlns:xlink="http://www.w3.org/1999/xlink" width="348.854" height="288.812" viewBox="0 0 261.64 216.609"><defs><path id="b" d="M8.422-.234c-.844-.078-.938-.203-1.125-1.297L5.89-9.984H5.5L1.172-2.516C-.016-.516-.172-.359-.766-.234V0h2.797v-.234c-.765-.078-.875-.157-.875-.532 0-.28.032-.421.297-.921l.844-1.688h3.297l.297 1.953c.015.14.03.266.03.39 0 .563-.218.704-1.171.798V0h3.672ZM2.609-3.906l2.25-3.89.657 3.89Zm0 0"/><path id="c" d="M10.86-9.75H7.89v.234c.844.079 1.048.22 1.048.766 0 .172-.032.36-.141.656-.016.047-.031.11-.031.11L7.25-2.297 4.14-9.75H1.735v.234c.704.063 1.016.25 1.282.844L1.234-2.453C.672-.531.547-.36-.296-.234V0h2.952v-.234C1.891-.297 1.61-.47 1.61-.875c0-.203.047-.5.141-.812l1.703-6.297L6.891.219h.265l2.157-7.516c.546-1.922.609-2.016 1.546-2.219Zm0 0"/><path id="e" d="M-.125 0h4.219c2.343 0 3.953-1.219 3.953-2.984 0-.563-.172-1.078-.5-1.407-.297-.343-.594-.53-1.375-.859 1.062-.25 1.484-.422 1.969-.844.422-.36.64-.86.64-1.468 0-1.422-1.062-2.188-2.984-2.188h-3.86v.234c.938.079 1.157.188 1.157.61 0 .234-.063.594-.172.953l-1.828 6.61C.828-.485.719-.392-.125-.235Zm3.688-4.937c.968 0 1.593.046 1.89.171.61.25.984.907.984 1.72 0 1.608-1.109 2.593-2.921 2.593-.625 0-.97-.219-.97-.625 0-.172.188-.89.532-2.094.188-.672.281-1.015.485-1.765m1.109-3.954c.094-.328.266-.421.86-.421 1.187 0 1.75.515 1.75 1.624 0 .844-.36 1.5-1 1.86-.516.297-1.235.406-2.579.406Zm0 0"/><path id="f" d="M7.078-9.953c-1.25 0-2.594.61-3.797 1.687-1.5 1.391-2.39 3.22-2.39 4.97C.89-1.204 2.25.265 4.156.265c3.11 0 6.125-3.141 6.282-6.516.109-2.094-1.36-3.703-3.36-3.703m-.125.5c1.172 0 1.922.86 1.922 2.265 0 1.61-.703 3.797-1.672 5.204C6.375-.812 5.453-.22 4.406-.22c-1.25 0-1.937-.922-1.937-2.531 0-1.406.75-3.625 1.64-4.922.829-1.219 1.75-1.781 2.844-1.781m0 0"/><path id="g" d="m9.734-6.953.563-2.969h-.313c-.125.25-.28.328-.578.328-.11 0-.297-.031-.61-.094-.671-.171-1.265-.265-1.75-.265-3.171 0-6.062 3-6.062 6.328 0 2.281 1.61 3.89 3.907 3.89 1.53 0 2.734-.656 4.078-2.218l-.266-.219C7.36-.844 6.5-.406 5.266-.406c-1.657 0-2.61-1.125-2.61-3.063 0-1.781.719-3.578 1.89-4.797.72-.734 1.657-1.14 2.641-1.14 1.375 0 2.141.797 2.282 2.422Zm0 0"/><path id="h" d="M11.453-9.75H7.766v.234c.875.11 1.047.22 1.047.641 0 .219-.063.563-.157.922L7.97-5.5H3.703l.813-2.906c.218-.766.609-1.047 1.5-1.11v-.234H1.938v.234c.937.094 1.156.204 1.156.641 0 .219-.063.563-.172.922l-1.828 6.61C.828-.485.719-.392-.125-.235V0h3.688v-.234C2.656-.36 2.5-.47 2.5-.891c0-.109.016-.234.047-.328l.984-3.656h4.25l-.968 3.531c-.235.782-.532 1-1.516 1.11V0h4.078v-.234c-.953-.094-1.156-.22-1.156-.625 0-.157.015-.25.047-.36l1.968-7.187c.25-.875.375-.953 1.22-1.11Zm0 0"/><path id="d" d="M.656.25C1.891.094 2.5-.11 3.25-.656 4.406-1.5 5.078-2.86 5.078-4.36c0-1.828-1.016-3.125-2.437-3.125C1.313-7.484.328-6.36.328-4.875c0 1.36.797 2.25 2 2.25.61 0 1.063-.172 1.656-.625C3.531-1.453 2.297-.266.625.016ZM4-3.922c0 .219-.047.313-.156.422a1.75 1.75 0 0 1-1.125.406c-.844 0-1.375-.828-1.375-2.156 0-.625.187-1.281.422-1.578a1 1 0 0 1 .78-.344C3.5-7.172 4-6.219 4-4.359Zm0 0"/><clipPath id="a"><path d="M81 59h163v157.61H81Zm0 0"/></clipPath></defs><path fill="none" stroke="red" stroke-miterlimit="10" stroke-width=".5985" d="M194.39 195.305V186.8h-8.503v8.504h8.504M226.281 140.066l-8.215 2.204 2.204 8.21 8.21-2.199-2.199-8.215M130.61 84.832l6.015 6.012 6.012-6.012-6.012-6.012-6.016 6.012"/><path fill="none" stroke="#00f" stroke-miterlimit="10" stroke-width=".5985" d="M130.61 195.305V186.8h-8.505v8.504h8.504M217.738 108.176l-8.215 2.203 2.2 8.215 8.214-2.203-2.199-8.215M107.266 108.176l6.011 6.015 6.016-6.015-6.016-6.012-6.011 6.012"/><path fill="none" stroke="#000" stroke-linecap="round" stroke-linejoin="round" stroke-miterlimit="10" stroke-width="1.1955" d="M194.39 21.05 20.14 195.306h220.942Zm0 0"/><path fill="none" stroke="red" stroke-dasharray="4.483245 2.9888250000000003" stroke-linecap="round" stroke-miterlimit="10" stroke-width="1.1955" d="M194.39 148.613v46.692M194.39 148.613l31.891-8.547M194.39 148.613l-63.78-63.781"/><path fill="none" stroke="#00f" stroke-dasharray="4.483245 2.9888250000000003" stroke-linecap="round" stroke-miterlimit="10" stroke-width="1.1955" d="M130.61 131.523v63.782M130.61 131.523l87.128-23.347M130.61 131.523l-23.344-23.347"/><g clip-path="url(#a)"><path fill="none" stroke="#00b200" stroke-dasharray="4.483245 2.9888250000000003" stroke-miterlimit="10" stroke-width="1.1955" d="M226.246 140.066c0-35.203-28.539-63.742-63.746-63.742-35.203 0-63.742 28.54-63.742 63.742 0 35.207 28.539 63.747 63.742 63.747 35.207 0 63.746-28.54 63.746-63.747Zm0 0"/></g><path fill="none" stroke="#00b200" stroke-dasharray="4.483245 2.9888250000000003" stroke-linecap="round" stroke-miterlimit="10" stroke-width="1.1955" d="m194.39 148.613-63.78-17.09"/><path stroke="#000" stroke-miterlimit="10" stroke-width=".5985" d="M195.887 21.05a1.495 1.495 0 0 0-2.989 0c0 .829.668 1.497 1.493 1.497.824 0 1.496-.668 1.496-1.496ZM21.633 195.305c0-.828-.668-1.496-1.492-1.496-.825 0-1.496.668-1.496 1.496a1.495 1.495 0 0 0 2.988 0ZM242.578 195.305a1.496 1.496 0 0 0-2.992 0 1.495 1.495 0 0 0 2.992 0ZM195.887 148.613c0-.824-.672-1.496-1.496-1.496a1.495 1.495 0 0 0 0 2.988c.824 0 1.496-.667 1.496-1.492ZM132.105 131.523c0-.824-.667-1.496-1.496-1.496a1.495 1.495 0 0 0 0 2.989c.828 0 1.496-.668 1.496-1.493Zm0 0"/><path fill="#b20000" stroke="#4c0000" stroke-miterlimit="10" stroke-width=".5985" d="M195.887 195.305a1.493 1.493 0 1 0-2.988 0c0 .824.667 1.492 1.492 1.492.824 0 1.496-.668 1.496-1.492ZM227.777 140.066a1.495 1.495 0 1 0-2.99.007 1.495 1.495 0 0 0 2.99-.007ZM132.105 84.832c0-.824-.667-1.496-1.496-1.496a1.495 1.495 0 1 0 1.496 1.496Zm0 0"/><path fill="#00b200" stroke="#004c00" stroke-miterlimit="10" stroke-width=".5985" d="M132.105 195.305a1.494 1.494 0 1 0-2.987-.005 1.494 1.494 0 0 0 2.987.005ZM219.23 108.176c0-.824-.668-1.492-1.492-1.492a1.494 1.494 0 1 0 1.492 1.492ZM108.762 108.176a1.495 1.495 0 1 0-2.991.006 1.495 1.495 0 0 0 2.99-.006ZM163.996 140.066c0-.824-.668-1.492-1.496-1.492-.824 0-1.492.668-1.492 1.492a1.494 1.494 0 1 0 2.988 0Zm0 0"/><use xlink:href="#b" x="189.825" y="15.774"/><use xlink:href="#c" x="154.566" y="155.046"/><use xlink:href="#d" x="164.16" y="157.304"/><use xlink:href="#e" x="5.731" y="210.28"/><use xlink:href="#f" x="114.541" y="146.845"/><use xlink:href="#g" x="245.613" y="210.624"/><use xlink:href="#h" x="199.669" y="163.59"/></svg>