<svg xmlns="http://www.w3.org/2000/svg" xmlns:xlink="http://www.w3.org/1999/xlink" width="371.082" height="347.164" viewBox="0 0 278.312 260.373"><defs><path id="c" d="M8.422-.234c-.844-.078-.938-.203-1.125-1.297L5.89-9.984H5.5L1.172-2.516C-.016-.516-.172-.359-.766-.234V0h2.797v-.234c-.765-.078-.875-.157-.875-.532 0-.28.032-.421.297-.921l.844-1.688h3.297l.297 1.953c.015.14.03.266.03.39 0 .563-.218.704-1.171.798V0h3.672ZM2.609-3.906l2.25-3.89.657 3.89Zm0 0"/><path id="d" d="m9.734-6.953.563-2.969h-.313c-.125.25-.28.328-.578.328-.11 0-.297-.031-.61-.094-.671-.171-1.265-.265-1.75-.265-3.171 0-6.062 3-6.062 6.328 0 2.281 1.61 3.89 3.907 3.89 1.53 0 2.734-.656 4.078-2.218l-.266-.219C7.36-.844 6.5-.406 5.266-.406c-1.657 0-2.61-1.125-2.61-3.063 0-1.781.719-3.578 1.89-4.797.72-.734 1.657-1.14 2.641-1.14 1.375 0 2.141.797 2.282 2.422Zm0 0"/><path id="e" d="M2.188-9.516c.843.11 1.046.235 1.046.625 0 .22-.046.532-.25 1.204L1.22-1.344C.953-.454.844-.359 0-.234V0h3.656v-.234C2.72-.375 2.641-.422 2.641-.922c0-.187.03-.328.187-.875l.781-2.875c.375.094.766.11 1.375.11 1.235 0 2.235-.25 2.875-.704.75-.562 1.172-1.375 1.172-2.265 0-1.438-1.11-2.219-3.14-2.219H2.188Zm2.625.625c.093-.312.265-.421.687-.421.578 0 1.14.156 1.453.359.375.281.547.719.547 1.422 0 .968-.344 1.656-1 2.047-.469.25-1.047.375-1.969.375-.265 0-.375-.016-.781-.079Zm0 0"/><path id="i" d="M-.125 0h4.219c2.343 0 3.953-1.219 3.953-2.984 0-.563-.172-1.078-.5-1.407-.297-.343-.594-.53-1.375-.859 1.062-.25 1.484-.422 1.969-.844.422-.36.64-.86.64-1.468 0-1.422-1.062-2.188-2.984-2.188h-3.86v.234c.938.079 1.157.188 1.157.61 0 .234-.063.594-.172.953l-1.828 6.61C.828-.485.719-.392-.125-.235Zm3.688-4.937c.968 0 1.593.046 1.89.171.61.25.984.907.984 1.72 0 1.608-1.109 2.593-2.921 2.593-.625 0-.97-.219-.97-.625 0-.172.188-.89.532-2.094.188-.672.281-1.015.485-1.765m1.109-3.954c.094-.328.266-.421.86-.421 1.187 0 1.75.515 1.75 1.624 0 .844-.36 1.5-1 1.86-.516.297-1.235.406-2.579.406Zm0 0"/><path id="f" d="M5.14-1.219c-.171.172-.234.219-.312.313-.344.344-.484.453-.578.453s-.156-.063-.156-.14c0-.22.468-2.11.984-4.016.031-.11.047-.141.063-.235l-.079-.031-.671.078-.032.031-.125.532c-.093-.407-.406-.641-.875-.641-1.468 0-3.171 2.016-3.171 3.766C.188-.33.609.125 1.313.125c.78 0 1.25-.375 2.234-1.734-.235.859-.266 1-.266 1.265 0 .328.14.453.453.453.438 0 .72-.203 1.532-1.218ZM3.423-4.64c.375.032.61.297.61.688 0 .922-.548 2.234-1.313 3.047-.266.297-.64.484-.953.484-.391 0-.641-.312-.641-.828 0-.594.406-1.734.89-2.422.438-.64.954-1 1.407-.969m0 0"/><path id="g" d="M1.219-7.11c.656.016.718.048.718.298 0 .093-.03.234-.093.468-.032.078-.047.157-.063.219l-.015.078L.25-.516v.047c0 .266.86.594 1.469.594 1.672 0 3.515-1.937 3.515-3.672 0-.781-.546-1.328-1.28-1.328-.782 0-1.36.453-2.141 1.672.578-2.11.656-2.406 1.156-4.297l-.063-.062c-.547.109-.953.171-1.687.265Zm2.297 2.766c.484 0 .78.375.78.953 0 .735-.562 1.922-1.218 2.61-.406.422-.89.656-1.36.656-.343 0-.515-.125-.515-.39 0-.657.328-1.735.797-2.547.484-.86.984-1.282 1.516-1.282m0 0"/><path id="h" d="M3.875-1.172c-.61.656-1.047.89-1.578.89-.64 0-1.016-.468-1.016-1.25 0-.952.39-1.937 1.016-2.577.312-.344.75-.532 1.187-.532.25 0 .422.079.422.22 0 .046-.015.109-.062.202-.078.14-.11.219-.11.328 0 .266.172.422.438.422a.514.514 0 0 0 .531-.515c0-.5-.5-.891-1.156-.891-1.672 0-3.219 1.61-3.219 3.344C.328-.484.922.125 1.953.125c.828 0 1.438-.344 2.094-1.187Zm0 0"/><clipPath id="a"><path d="M0 0h276v260.371H0Zm0 0"/></clipPath><clipPath id="b"><path d="M136 0h142.313v243H136Zm0 0"/></clipPath></defs><path fill="none" stroke="red" stroke-miterlimit="10" stroke-width=".5985" d="M258.172 195.305V186.8h-8.504v8.504h8.504M226.281 140.066l8.215-2.199 2.2 8.215-8.216 2.2-2.199-8.216M171.047 44.398l6.012 6.012 6.011-6.012-6.011-6.015-6.012 6.015"/><path fill="none" stroke="#000" stroke-linecap="round" stroke-linejoin="round" stroke-miterlimit="10" stroke-width="1.1955" d="M194.39 21.05 20.14 195.306h220.942Zm0 0"/><path fill="none" stroke="red" stroke-dasharray="4.483245 2.9888250000000003" stroke-linecap="round" stroke-miterlimit="10" stroke-width="1.1955" d="M258.172 131.523v63.782M258.172 131.523l-31.89 8.543M258.172 131.523l-87.125-87.125"/><g clip-path="url(#a)"><path fill="none" stroke="#ff7f00" stroke-dasharray="4.483245 2.9888250000000003" stroke-miterlimit="10" stroke-width="1.1955" d="M258.117 131.523c0-70.421-57.086-127.503-127.508-127.503C60.191 4.02 3.105 61.102 3.105 131.523c0 70.418 57.086 127.504 127.504 127.504 70.422 0 127.508-57.086 127.508-127.504Zm0 0"/></g><path fill="none" stroke="#000" stroke-dasharray="4.483245 2.9888250000000003" stroke-linecap="round" stroke-miterlimit="10" stroke-width="1.1955" d="M241.082 195.305h34.18"/><g clip-path="url(#b)"><path fill="none" stroke="#00f" stroke-dasharray="4.483245 2.9888250000000003" stroke-linecap="round" stroke-miterlimit="10" stroke-width="1.1955" d="M275.598 225.484 153.62 14.214"/></g><path stroke="#000" stroke-miterlimit="10" stroke-width=".5985" d="M195.887 21.05a1.495 1.495 0 0 0-2.989 0c0 .829.668 1.497 1.493 1.497.824 0 1.496-.668 1.496-1.496ZM21.633 195.305c0-.828-.668-1.496-1.492-1.496-.825 0-1.496.668-1.496 1.496a1.495 1.495 0 0 0 2.988 0ZM242.578 195.305a1.496 1.496 0 0 0-2.992 0 1.495 1.495 0 0 0 2.992 0ZM259.668 131.523c0-.824-.672-1.496-1.496-1.496s-1.496.672-1.496 1.496a1.495 1.495 0 0 0 2.992 0Zm0 0"/><path fill="#b20000" stroke="#4c0000" stroke-miterlimit="10" stroke-width=".5985" d="M259.668 195.305a1.496 1.496 0 0 0-2.992 0 1.495 1.495 0 0 0 2.992 0ZM227.777 140.066a1.495 1.495 0 1 0-2.99.007 1.495 1.495 0 0 0 2.99-.007ZM172.54 44.398a1.494 1.494 0 1 0-2.99-.005 1.494 1.494 0 0 0 2.99.005Zm0 0"/><use xlink:href="#c" x="189.825" y="15.773"/><use xlink:href="#d" x="235.559" y="210.624"/><use xlink:href="#e" x="251.4" y="210.28"/><use xlink:href="#f" x="258.663" y="212.522"/><use xlink:href="#e" x="207.46" y="143.619"/><use xlink:href="#g" x="214.724" y="146.093"/><use xlink:href="#e" x="152.845" y="48.066"/><use xlink:href="#h" x="160.108" y="50.307"/><use xlink:href="#e" x="263.45" y="136.371"/><use xlink:href="#i" x="5.731" y="210.28"/></svg>