<svg xmlns="http://www.w3.org/2000/svg" xmlns:xlink="http://www.w3.org/1999/xlink" width="348.854" height="292.098" viewBox="0 0 261.64 219.073"><defs><path id="b" d="M8.422-.234c-.844-.078-.938-.203-1.125-1.297L5.89-9.984H5.5L1.172-2.516C-.016-.516-.172-.359-.766-.234V0h2.797v-.234c-.765-.078-.875-.157-.875-.532 0-.28.032-.421.297-.921l.844-1.688h3.297l.297 1.953c.015.14.03.266.03.39 0 .563-.218.704-1.171.798V0h3.672ZM2.609-3.906l2.25-3.89.657 3.89Zm0 0"/><path id="c" d="M10.86-9.75H7.89v.234c.844.079 1.048.22 1.048.766 0 .172-.032.36-.141.656-.016.047-.031.11-.031.11L7.25-2.297 4.14-9.75H1.735v.234c.704.063 1.016.25 1.282.844L1.234-2.453C.672-.531.547-.36-.296-.234V0h2.952v-.234C1.891-.297 1.61-.47 1.61-.875c0-.203.047-.5.141-.812l1.703-6.297L6.891.219h.265l2.157-7.516c.546-1.922.609-2.016 1.546-2.219Zm0 0"/><path id="d" d="M2.188-9.516c.843.11 1.046.235 1.046.625 0 .22-.046.532-.25 1.204L1.22-1.344C.953-.454.844-.359 0-.234V0h3.656v-.234C2.72-.375 2.641-.422 2.641-.922c0-.187.03-.328.187-.875l.781-2.875c.375.094.766.11 1.375.11 1.235 0 2.235-.25 2.875-.704.75-.562 1.172-1.375 1.172-2.265 0-1.438-1.11-2.219-3.14-2.219H2.188Zm2.625.625c.093-.312.265-.421.687-.421.578 0 1.14.156 1.453.359.375.281.547.719.547 1.422 0 .968-.344 1.656-1 2.047-.469.25-1.047.375-1.969.375-.265 0-.375-.016-.781-.079Zm0 0"/><path id="f" d="M4.172.234C5.312.172 5.89.016 6.719-.453c2.218-1.234 3.718-3.656 3.718-6.016 0-2.015-1.437-3.484-3.421-3.484-1.188 0-2.532.625-3.735 1.687-1.5 1.407-2.39 3.22-2.39 4.97 0 1.218.453 2.234 1.265 2.859.39.312.719.468 1.375.609C2.171 1.375 2.031 1.5.875 2.297l.156.234a3.36 3.36 0 0 1 1.719-.469c.297 0 .734.094 1.39.266.907.25 1.72.406 2.266.406.828 0 1.875-.39 2.625-.984.36-.266.563-.484.953-1.016L9.75.563c-.828.875-1.437 1.156-2.516 1.156-.39 0-.703-.063-1.843-.328-.782-.203-1.485-.328-1.563-.313-.062.016-.094.016-.094.016H3.36Zm2.781-9.687c1.188 0 1.922.86 1.922 2.281 0 1.578-.703 3.781-1.656 5.156C6.39-.844 5.469-.25 4.375-.25c-1.203 0-1.906-.922-1.906-2.484 0-1.422.734-3.641 1.64-4.938.829-1.219 1.75-1.781 2.844-1.781m0 0"/><path id="i" d="M-.125 0h4.219c2.343 0 3.953-1.219 3.953-2.984 0-.563-.172-1.078-.5-1.407-.297-.343-.594-.53-1.375-.859 1.062-.25 1.484-.422 1.969-.844.422-.36.64-.86.64-1.468 0-1.422-1.062-2.188-2.984-2.188h-3.86v.234c.938.079 1.157.188 1.157.61 0 .234-.063.594-.172.953l-1.828 6.61C.828-.485.719-.392-.125-.235Zm3.688-4.937c.968 0 1.593.046 1.89.171.61.25.984.907.984 1.72 0 1.608-1.109 2.593-2.921 2.593-.625 0-.97-.219-.97-.625 0-.172.188-.89.532-2.094.188-.672.281-1.015.485-1.765m1.109-3.954c.094-.328.266-.421.86-.421 1.187 0 1.75.515 1.75 1.624 0 .844-.36 1.5-1 1.86-.516.297-1.235.406-2.579.406Zm0 0"/><path id="j" d="m9.734-6.953.563-2.969h-.313c-.125.25-.28.328-.578.328-.11 0-.297-.031-.61-.094-.671-.171-1.265-.265-1.75-.265-3.171 0-6.062 3-6.062 6.328 0 2.281 1.61 3.89 3.907 3.89 1.53 0 2.734-.656 4.078-2.218l-.266-.219C7.36-.844 6.5-.406 5.266-.406c-1.657 0-2.61-1.125-2.61-3.063 0-1.781.719-3.578 1.89-4.797.72-.734 1.657-1.14 2.641-1.14 1.375 0 2.141.797 2.282 2.422Zm0 0"/><path id="e" d="M5.14-1.219c-.171.172-.234.219-.312.313-.344.344-.484.453-.578.453s-.156-.063-.156-.14c0-.22.468-2.11.984-4.016.031-.11.047-.141.063-.235l-.079-.031-.671.078-.032.031-.125.532c-.093-.407-.406-.641-.875-.641-1.468 0-3.171 2.016-3.171 3.766C.188-.33.609.125 1.313.125c.78 0 1.25-.375 2.234-1.734-.235.859-.266 1-.266 1.265 0 .328.14.453.453.453.438 0 .72-.203 1.532-1.218ZM3.423-4.64c.375.032.61.297.61.688 0 .922-.548 2.234-1.313 3.047-.266.297-.64.484-.953.484-.391 0-.641-.312-.641-.828 0-.594.406-1.734.89-2.422.438-.64.954-1 1.407-.969m0 0"/><path id="g" d="M1.219-7.11c.656.016.718.048.718.298 0 .093-.03.234-.093.468-.032.078-.047.157-.063.219l-.015.078L.25-.516v.047c0 .266.86.594 1.469.594 1.672 0 3.515-1.937 3.515-3.672 0-.781-.546-1.328-1.28-1.328-.782 0-1.36.453-2.141 1.672.578-2.11.656-2.406 1.156-4.297l-.063-.062c-.547.109-.953.171-1.687.265Zm2.297 2.766c.484 0 .78.375.78.953 0 .735-.562 1.922-1.218 2.61-.406.422-.89.656-1.36.656-.343 0-.515-.125-.515-.39 0-.657.328-1.735.797-2.547.484-.86.984-1.282 1.516-1.282m0 0"/><path id="h" d="M3.875-1.172c-.61.656-1.047.89-1.578.89-.64 0-1.016-.468-1.016-1.25 0-.952.39-1.937 1.016-2.577.312-.344.75-.532 1.187-.532.25 0 .422.079.422.22 0 .046-.015.109-.062.202-.078.14-.11.219-.11.328 0 .266.172.422.438.422a.514.514 0 0 0 .531-.515c0-.5-.5-.891-1.156-.891-1.672 0-3.219 1.61-3.219 3.344C.328-.484.922.125 1.953.125c.828 0 1.438-.344 2.094-1.187Zm0 0"/><clipPath id="a"><path d="M71 58h172v161.074H71Zm0 0"/></clipPath></defs><path fill="none" stroke="red" stroke-miterlimit="10" stroke-width=".5985" d="M202.895 195.3v-8.503h-8.504v8.504h8.504M225.77 138.148l-8.215 2.204 2.199 8.21 8.215-2.199-2.2-8.215M137.031 78.414l6.012 6.012 6.012-6.012-6.012-6.016-6.012 6.016"/><path fill="none" stroke="#00f" stroke-miterlimit="10" stroke-width=".5985" d="M111.89 195.3v-8.503h-8.503v8.504h8.504M219.504 114.766l-8.215 2.203 2.2 8.21 8.214-2.199-2.2-8.214M91.867 123.574l6.012 6.016 6.016-6.016-6.016-6.011-6.012 6.011"/><path fill="none" stroke="#000" stroke-linecap="round" stroke-linejoin="round" stroke-miterlimit="10" stroke-width="1.1955" d="M194.39 21.05 20.14 195.3h220.942Zm0 0"/><path fill="none" stroke="red" stroke-dasharray="4.483245 2.9888250000000003" stroke-linecap="round" stroke-miterlimit="10" stroke-width="1.1955" d="M202.895 144.277v51.024M202.895 144.277l22.875-6.129M202.895 144.277 137.03 78.414"/><path fill="none" stroke="#00f" stroke-dasharray="4.483245 2.9888250000000003" stroke-linecap="round" stroke-miterlimit="10" stroke-width="1.1955" d="M111.89 143.602V195.3M111.89 143.602l107.614-28.836M111.89 143.602l-20.023-20.028"/><g clip-path="url(#a)"><path fill="none" stroke="#00b200" stroke-dasharray="4.483245 2.9888250000000003" stroke-miterlimit="10" stroke-width="1.1955" d="M225.922 143.937c0-37.843-30.68-68.523-68.527-68.523s-68.528 30.68-68.528 68.523c0 37.848 30.68 68.528 68.528 68.528 37.847 0 68.527-30.68 68.527-68.528Zm0 0"/></g><path fill="none" stroke="#00b200" stroke-dasharray="4.483245 2.9888250000000003" stroke-linecap="round" stroke-miterlimit="10" stroke-width="1.1955" d="m202.895 144.277-91.004-.675"/><path stroke="#000" stroke-miterlimit="10" stroke-width=".5985" d="M195.887 21.05c0-.823-.672-1.495-1.496-1.495a1.495 1.495 0 0 0 0 2.988c.824 0 1.496-.668 1.496-1.492ZM21.633 195.3c0-.823-.668-1.491-1.492-1.491a1.495 1.495 0 1 0 0 2.988c.824 0 1.492-.668 1.492-1.496ZM242.578 195.3a1.495 1.495 0 1 0-2.99.007 1.495 1.495 0 0 0 2.99-.006ZM204.39 144.277a1.495 1.495 0 0 0-2.988 0c0 .825.668 1.496 1.493 1.496.824 0 1.496-.671 1.496-1.496ZM113.387 143.602c0-.825-.668-1.497-1.496-1.497a1.495 1.495 0 0 0 0 2.989c.828 0 1.496-.668 1.496-1.492Zm0 0"/><path fill="#b20000" stroke="#4c0000" stroke-miterlimit="10" stroke-width=".5985" d="M204.39 195.3a1.495 1.495 0 0 0-2.988 0c0 .829.668 1.497 1.493 1.497.824 0 1.496-.668 1.496-1.496ZM227.262 138.148c0-.824-.668-1.492-1.492-1.492-.829 0-1.497.668-1.497 1.492a1.495 1.495 0 1 0 2.988 0ZM138.523 78.414a1.494 1.494 0 1 0-2.99-.005 1.494 1.494 0 0 0 2.99.005Zm0 0"/><path fill="#00b200" stroke="#004c00" stroke-miterlimit="10" stroke-width=".5985" d="M113.387 195.3c0-.823-.668-1.491-1.496-1.491-.825 0-1.493.668-1.493 1.492a1.494 1.494 0 1 0 2.988 0ZM220.996 114.766c0-.825-.668-1.493-1.492-1.493a1.494 1.494 0 1 0 1.492 1.492ZM93.36 123.574a1.495 1.495 0 0 0-2.988 0c0 .824.671 1.496 1.495 1.496s1.492-.672 1.492-1.496ZM158.887 143.937c0-.824-.668-1.492-1.492-1.492a1.495 1.495 0 1 0 1.492 1.492Zm0 0"/><use xlink:href="#b" x="189.825" y="15.773"/><use xlink:href="#c" x="151.96" y="158.917"/><use xlink:href="#d" x="196.125" y="210.279"/><use xlink:href="#e" x="203.388" y="212.522"/><use xlink:href="#f" x="103.359" y="210.623"/><use xlink:href="#e" x="114.148" y="212.865"/><use xlink:href="#d" x="231.047" y="141.701"/><use xlink:href="#g" x="238.308" y="144.174"/><use xlink:href="#f" x="224.781" y="118.428"/><use xlink:href="#g" x="235.571" y="120.901"/><use xlink:href="#d" x="118.83" y="70.77"/><use xlink:href="#h" x="126.093" y="73.013"/><use xlink:href="#f" x="70.141" y="115.576"/><use xlink:href="#h" x="80.931" y="117.817"/><use xlink:href="#i" x="5.731" y="210.279"/><use xlink:href="#f" x="95.823" y="158.923"/><use xlink:href="#j" x="245.613" y="210.623"/><use xlink:href="#d" x="208.174" y="159.256"/></svg>