<svg xmlns="http://www.w3.org/2000/svg" xmlns:xlink="http://www.w3.org/1999/xlink" width="364.25" height="302.93" viewBox="0 0 273.188 227.197"><defs><path id="a" d="M8.422-.234c-.844-.078-.938-.203-1.125-1.297L5.89-9.984H5.5L1.172-2.516C-.016-.516-.172-.359-.766-.234V0h2.797v-.234c-.765-.078-.875-.157-.875-.532 0-.28.032-.421.297-.921l.844-1.688h3.297l.297 1.953c.015.14.03.266.03.39 0 .563-.218.704-1.171.798V0h3.672ZM2.609-3.906l2.25-3.89.657 3.89Zm0 0"/><path id="b" d="M2.188-9.516c.843.11 1.046.235 1.046.625 0 .22-.046.532-.25 1.204L1.22-1.344C.953-.454.844-.359 0-.234V0h3.656v-.234C2.72-.375 2.641-.422 2.641-.922c0-.187.03-.328.187-.875l.781-2.875c.375.094.766.11 1.375.11 1.235 0 2.235-.25 2.875-.704.75-.562 1.172-1.375 1.172-2.265 0-1.438-1.11-2.219-3.14-2.219H2.188Zm2.625.625c.093-.312.265-.421.687-.421.578 0 1.14.156 1.453.359.375.281.547.719.547 1.422 0 .968-.344 1.656-1 2.047-.469.25-1.047.375-1.969.375-.265 0-.375-.016-.781-.079Zm0 0"/><path id="f" d="M-.125 0h4.219c2.343 0 3.953-1.219 3.953-2.984 0-.563-.172-1.078-.5-1.407-.297-.343-.594-.53-1.375-.859 1.062-.25 1.484-.422 1.969-.844.422-.36.64-.86.64-1.468 0-1.422-1.062-2.188-2.984-2.188h-3.86v.234c.938.079 1.157.188 1.157.61 0 .234-.063.594-.172.953l-1.828 6.61C.828-.485.719-.392-.125-.235Zm3.688-4.937c.968 0 1.593.046 1.89.171.61.25.984.907.984 1.72 0 1.608-1.109 2.593-2.921 2.593-.625 0-.97-.219-.97-.625 0-.172.188-.89.532-2.094.188-.672.281-1.015.485-1.765m1.109-3.954c.094-.328.266-.421.86-.421 1.187 0 1.75.515 1.75 1.624 0 .844-.36 1.5-1 1.86-.516.297-1.235.406-2.579.406Zm0 0"/><path id="g" d="M4.172.234C5.312.172 5.89.016 6.719-.453c2.218-1.234 3.718-3.656 3.718-6.016 0-2.015-1.437-3.484-3.421-3.484-1.188 0-2.532.625-3.735 1.687-1.5 1.407-2.39 3.22-2.39 4.97 0 1.218.453 2.234 1.265 2.859.39.312.719.468 1.375.609C2.171 1.375 2.031 1.5.875 2.297l.156.234a3.36 3.36 0 0 1 1.719-.469c.297 0 .734.094 1.39.266.907.25 1.72.406 2.266.406.828 0 1.875-.39 2.625-.984.36-.266.563-.484.953-1.016L9.75.563c-.828.875-1.437 1.156-2.516 1.156-.39 0-.703-.063-1.843-.328-.782-.203-1.485-.328-1.563-.313-.062.016-.094.016-.094.016H3.36Zm2.781-9.687c1.188 0 1.922.86 1.922 2.281 0 1.578-.703 3.781-1.656 5.156C6.39-.844 5.469-.25 4.375-.25c-1.203 0-1.906-.922-1.906-2.484 0-1.422.734-3.641 1.64-4.938.829-1.219 1.75-1.781 2.844-1.781m0 0"/><path id="h" d="m9.734-6.953.563-2.969h-.313c-.125.25-.28.328-.578.328-.11 0-.297-.031-.61-.094-.671-.171-1.265-.265-1.75-.265-3.171 0-6.062 3-6.062 6.328 0 2.281 1.61 3.89 3.907 3.89 1.53 0 2.734-.656 4.078-2.218l-.266-.219C7.36-.844 6.5-.406 5.266-.406c-1.657 0-2.61-1.125-2.61-3.063 0-1.781.719-3.578 1.89-4.797.72-.734 1.657-1.14 2.641-1.14 1.375 0 2.141.797 2.282 2.422Zm0 0"/><path id="c" d="M3.875-1.172c-.61.656-1.047.89-1.578.89-.64 0-1.016-.468-1.016-1.25 0-.952.39-1.937 1.016-2.577.312-.344.75-.532 1.187-.532.25 0 .422.079.422.22 0 .046-.015.109-.062.202-.078.14-.11.219-.11.328 0 .266.172.422.438.422a.514.514 0 0 0 .531-.515c0-.5-.5-.891-1.156-.891-1.672 0-3.219 1.61-3.219 3.344C.328-.484.922.125 1.953.125c.828 0 1.438-.344 2.094-1.187Zm0 0"/><path id="i" d="M1.219-7.11c.656.016.718.048.718.298 0 .093-.03.234-.093.468-.032.078-.047.157-.063.219l-.015.078L.25-.516v.047c0 .266.86.594 1.469.594 1.672 0 3.515-1.937 3.515-3.672 0-.781-.546-1.328-1.28-1.328-.782 0-1.36.453-2.141 1.672.578-2.11.656-2.406 1.156-4.297l-.063-.062c-.547.109-.953.171-1.687.265Zm2.297 2.766c.484 0 .78.375.78.953 0 .735-.562 1.922-1.218 2.61-.406.422-.89.656-1.36.656-.343 0-.515-.125-.515-.39 0-.657.328-1.735.797-2.547.484-.86.984-1.282 1.516-1.282m0 0"/><path id="d" d="m5.25-1.516-.14-.062c-.407.64-.548.734-1.048.734h-2.64l1.86-1.937c.984-1.031 1.406-1.875 1.406-2.735 0-1.109-.891-1.968-2.047-1.968-.61 0-1.188.25-1.594.687-.344.375-.516.734-.703 1.516l.234.062c.438-1.093.844-1.437 1.594-1.437.937 0 1.562.625 1.562 1.562 0 .86-.5 1.89-1.437 2.875L.328-.125V0h4.313Zm0 0"/><path id="e" d="M1.688-3.656c.656 0 .906.031 1.171.125.688.25 1.125.875 1.125 1.64 0 .922-.625 1.641-1.453 1.641-.297 0-.515-.078-.922-.344-.343-.187-.53-.265-.718-.265-.25 0-.422.156-.422.39 0 .375.484.625 1.25.625.86 0 1.734-.281 2.25-.75a2.39 2.39 0 0 0 .812-1.828c0-.562-.172-1.078-.5-1.422-.218-.25-.437-.375-.922-.594.766-.515 1.047-.921 1.047-1.53 0-.891-.718-1.516-1.734-1.516-.547 0-1.031.187-1.438.547-.328.296-.5.593-.734 1.25l.156.046c.469-.812.953-1.171 1.656-1.171.72 0 1.22.484 1.22 1.187 0 .39-.173.797-.438 1.063-.344.343-.656.5-1.406.765Zm0 0"/></defs><path fill="none" stroke="red" stroke-miterlimit="10" stroke-width=".5985" d="m225.77 148.738-8.215 2.203 2.199 8.211 8.215-2.199-2.2-8.215M137.031 89.004l6.012 6.012 6.012-6.012-6.012-6.016-6.012 6.016"/><path fill="#00adef" fill-opacity=".3" d="m194.39 31.64-18.038 18.04a25.7 25.7 0 0 0 3.793 3.125ZM194.39 31.64l1.758 25.45a25.4 25.4 0 0 0 4.844-.809ZM137.031 89.004l18.04 18.039a25.5 25.5 0 0 0 3.12-3.793Zm0 0"/><path fill="none" stroke="#00adef" stroke-miterlimit="10" stroke-width=".5985" d="M176.352 49.68a25.7 25.7 0 0 0 3.793 3.125M196.148 57.09a25.4 25.4 0 0 0 4.844-.809M155.07 107.043a25.5 25.5 0 0 0 3.121-3.793"/><path fill="none" stroke="#000" stroke-linecap="round" stroke-linejoin="round" stroke-miterlimit="10" stroke-width="1.1955" d="M194.39 31.64 20.14 205.89h220.942Zm0 0"/><path fill="none" stroke="red" stroke-dasharray="4.483245 2.9888250000000003" stroke-linecap="round" stroke-miterlimit="10" stroke-width="1.1955" d="m202.895 154.867 22.875-6.129M202.895 154.867 137.03 89.004M225.77 148.738 137.03 89.004"/><path fill="none" stroke="#00f" stroke-dasharray="4.483245 2.9888250000000003" stroke-linecap="round" stroke-miterlimit="10" stroke-width="1.1955" d="m225.77 148.738 22.87-6.129M137.031 89.004 71.164 23.137M248.64 142.61 71.165 23.136"/><path fill="none" stroke="#ff7f00" stroke-dasharray="4.483245 2.9888250000000003" stroke-linecap="round" stroke-miterlimit="10" stroke-width="1.1955" d="M202.895 154.867 194.39 31.641M248.64 142.61 194.39 31.64M71.164 23.137l123.227 8.504"/><path fill="none" stroke="#00b200" stroke-dasharray="4.483245 2.9888250000000003" stroke-linecap="round" stroke-miterlimit="10" stroke-width="1.1955" d="m111.89 154.191 82.5-122.55"/><path stroke="#000" stroke-miterlimit="10" stroke-width=".5985" d="M195.887 31.64c0-.824-.672-1.495-1.496-1.495a1.495 1.495 0 1 0 1.496 1.496ZM21.633 205.89c0-.824-.668-1.492-1.492-1.492a1.495 1.495 0 1 0 0 2.989c.824 0 1.492-.668 1.492-1.496ZM242.578 205.89a1.495 1.495 0 1 0-2.99.007 1.495 1.495 0 0 0 2.99-.006ZM204.39 154.867a1.495 1.495 0 0 0-2.988 0c0 .824.668 1.496 1.493 1.496.824 0 1.496-.672 1.496-1.496ZM113.387 154.191c0-.824-.668-1.496-1.496-1.496a1.495 1.495 0 0 0 0 2.989c.828 0 1.496-.668 1.496-1.493Zm0 0"/><path fill="#b20000" stroke="#4c0000" stroke-miterlimit="10" stroke-width=".5985" d="M227.262 148.738c0-.824-.668-1.492-1.492-1.492-.829 0-1.497.668-1.497 1.492s.668 1.496 1.497 1.496c.824 0 1.492-.672 1.492-1.496ZM138.523 89.004a1.494 1.494 0 1 0-2.99-.005 1.494 1.494 0 0 0 2.99.005Zm0 0"/><path fill="#0000b2" stroke="#00004c" stroke-miterlimit="10" stroke-width=".5985" d="M250.133 142.61c0-.825-.668-1.493-1.492-1.493a1.495 1.495 0 1 0 0 2.988c.824 0 1.492-.667 1.492-1.496ZM72.66 23.137c0-.825-.672-1.496-1.496-1.496a1.495 1.495 0 1 0 1.496 1.496Zm0 0"/><use xlink:href="#a" x="189.825" y="26.363"/><use xlink:href="#b" x="118.83" y="92.67"/><use xlink:href="#c" x="126.093" y="94.912"/><use xlink:href="#b" x="253.918" y="146.331"/><use xlink:href="#d" x="261.18" y="148.589"/><use xlink:href="#b" x="52.347" y="15.429"/><use xlink:href="#e" x="59.608" y="17.686"/><use xlink:href="#f" x="5.731" y="220.869"/><use xlink:href="#g" x="95.823" y="169.512"/><use xlink:href="#b" x="188.484" y="169.845"/><use xlink:href="#h" x="245.613" y="221.213"/><use xlink:href="#b" x="231.047" y="163.718"/><use xlink:href="#i" x="238.308" y="166.19"/></svg>