<svg xmlns="http://www.w3.org/2000/svg" xmlns:xlink="http://www.w3.org/1999/xlink" width="399.548" height="390.074" viewBox="0 0 299.661 292.555"><defs><path id="b" d="M8.422-.234c-.844-.078-.938-.203-1.125-1.297L5.89-9.984H5.5L1.172-2.516C-.016-.516-.172-.359-.766-.234V0h2.797v-.234c-.765-.078-.875-.157-.875-.532 0-.28.032-.421.297-.921l.844-1.688h3.297l.297 1.953c.015.14.03.266.03.39 0 .563-.218.704-1.171.798V0h3.672ZM2.609-3.906l2.25-3.89.657 3.89Zm0 0"/><path id="c" d="M10.86-9.75H7.89v.234c.844.079 1.048.22 1.048.766 0 .172-.032.36-.141.656-.016.047-.031.11-.031.11L7.25-2.297 4.14-9.75H1.735v.234c.704.063 1.016.25 1.282.844L1.234-2.453C.672-.531.547-.36-.296-.234V0h2.952v-.234C1.891-.297 1.61-.47 1.61-.875c0-.203.047-.5.141-.812l1.703-6.297L6.891.219h.265l2.157-7.516c.546-1.922.609-2.016 1.546-2.219Zm0 0"/><path id="d" d="M2.188-9.516c.843.11 1.046.235 1.046.625 0 .22-.046.532-.25 1.204L1.22-1.344C.953-.454.844-.359 0-.234V0h3.656v-.234C2.72-.375 2.641-.422 2.641-.922c0-.187.03-.328.187-.875l.781-2.875c.375.094.766.11 1.375.11 1.235 0 2.235-.25 2.875-.704.75-.562 1.172-1.375 1.172-2.265 0-1.438-1.11-2.219-3.14-2.219H2.188Zm2.625.625c.093-.312.265-.421.687-.421.578 0 1.14.156 1.453.359.375.281.547.719.547 1.422 0 .968-.344 1.656-1 2.047-.469.25-1.047.375-1.969.375-.265 0-.375-.016-.781-.079Zm0 0"/><path id="i" d="M-.125 0h4.219c2.343 0 3.953-1.219 3.953-2.984 0-.563-.172-1.078-.5-1.407-.297-.343-.594-.53-1.375-.859 1.062-.25 1.484-.422 1.969-.844.422-.36.64-.86.64-1.468 0-1.422-1.062-2.188-2.984-2.188h-3.86v.234c.938.079 1.157.188 1.157.61 0 .234-.063.594-.172.953l-1.828 6.61C.828-.485.719-.392-.125-.235Zm3.688-4.937c.968 0 1.593.046 1.89.171.61.25.984.907.984 1.72 0 1.608-1.109 2.593-2.921 2.593-.625 0-.97-.219-.97-.625 0-.172.188-.89.532-2.094.188-.672.281-1.015.485-1.765m1.109-3.954c.094-.328.266-.421.86-.421 1.187 0 1.75.515 1.75 1.624 0 .844-.36 1.5-1 1.86-.516.297-1.235.406-2.579.406Zm0 0"/><path id="j" d="M4.172.234C5.312.172 5.89.016 6.719-.453c2.218-1.234 3.718-3.656 3.718-6.016 0-2.015-1.437-3.484-3.421-3.484-1.188 0-2.532.625-3.735 1.687-1.5 1.407-2.39 3.22-2.39 4.97 0 1.218.453 2.234 1.265 2.859.39.312.719.468 1.375.609C2.171 1.375 2.031 1.5.875 2.297l.156.234a3.36 3.36 0 0 1 1.719-.469c.297 0 .734.094 1.39.266.907.25 1.72.406 2.266.406.828 0 1.875-.39 2.625-.984.36-.266.563-.484.953-1.016L9.75.563c-.828.875-1.437 1.156-2.516 1.156-.39 0-.703-.063-1.843-.328-.782-.203-1.485-.328-1.563-.313-.062.016-.094.016-.094.016H3.36Zm2.781-9.687c1.188 0 1.922.86 1.922 2.281 0 1.578-.703 3.781-1.656 5.156C6.39-.844 5.469-.25 4.375-.25c-1.203 0-1.906-.922-1.906-2.484 0-1.422.734-3.641 1.64-4.938.829-1.219 1.75-1.781 2.844-1.781m0 0"/><path id="l" d="m9.734-6.953.563-2.969h-.313c-.125.25-.28.328-.578.328-.11 0-.297-.031-.61-.094-.671-.171-1.265-.265-1.75-.265-3.171 0-6.062 3-6.062 6.328 0 2.281 1.61 3.89 3.907 3.89 1.53 0 2.734-.656 4.078-2.218l-.266-.219C7.36-.844 6.5-.406 5.266-.406c-1.657 0-2.61-1.125-2.61-3.063 0-1.781.719-3.578 1.89-4.797.72-.734 1.657-1.14 2.641-1.14 1.375 0 2.141.797 2.282 2.422Zm0 0"/><path id="e" d="M3.219-7.484 1.234-6.47v.157c.125-.063.25-.11.297-.125.188-.079.375-.125.5-.125q.328 0 .328.515v5.016c0 .375-.093.625-.265.718-.172.11-.328.141-.781.141V0h3.046v-.172c-.875 0-1.046-.11-1.046-.64v-6.641Zm0 0"/><path id="g" d="m5.25-1.516-.14-.062c-.407.64-.548.734-1.048.734h-2.64l1.86-1.937c.984-1.031 1.406-1.875 1.406-2.735 0-1.109-.891-1.968-2.047-1.968-.61 0-1.188.25-1.594.687-.344.375-.516.734-.703 1.516l.234.062c.438-1.093.844-1.437 1.594-1.437.937 0 1.562.625 1.562 1.562 0 .86-.5 1.89-1.437 2.875L.328-.125V0h4.313Zm0 0"/><path id="h" d="M1.688-3.656c.656 0 .906.031 1.171.125.688.25 1.125.875 1.125 1.64 0 .922-.625 1.641-1.453 1.641-.297 0-.515-.078-.922-.344-.343-.187-.53-.265-.718-.265-.25 0-.422.156-.422.39 0 .375.484.625 1.25.625.86 0 1.734-.281 2.25-.75a2.39 2.39 0 0 0 .812-1.828c0-.562-.172-1.078-.5-1.422-.218-.25-.437-.375-.922-.594.766-.515 1.047-.921 1.047-1.53 0-.891-.718-1.516-1.734-1.516-.547 0-1.031.187-1.438.547-.328.296-.5.593-.734 1.25l.156.046c.469-.812.953-1.171 1.656-1.171.72 0 1.22.484 1.22 1.187 0 .39-.173.797-.438 1.063-.344.343-.656.5-1.406.765Zm0 0"/><path id="f" d="M3.875-1.172c-.61.656-1.047.89-1.578.89-.64 0-1.016-.468-1.016-1.25 0-.952.39-1.937 1.016-2.577.312-.344.75-.532 1.187-.532.25 0 .422.079.422.22 0 .046-.015.109-.062.202-.078.14-.11.219-.11.328 0 .266.172.422.438.422a.514.514 0 0 0 .531-.515c0-.5-.5-.891-1.156-.891-1.672 0-3.219 1.61-3.219 3.344C.328-.484.922.125 1.953.125c.828 0 1.438-.344 2.094-1.187Zm0 0"/><path id="k" d="M5.14-1.219c-.171.172-.234.219-.312.313-.344.344-.484.453-.578.453s-.156-.063-.156-.14c0-.22.468-2.11.984-4.016.031-.11.047-.141.063-.235l-.079-.031-.671.078-.032.031-.125.532c-.093-.407-.406-.641-.875-.641-1.468 0-3.171 2.016-3.171 3.766C.188-.33.609.125 1.313.125c.78 0 1.25-.375 2.234-1.734-.235.859-.266 1-.266 1.265 0 .328.14.453.453.453.438 0 .72-.203 1.532-1.218ZM3.423-4.64c.375.032.61.297.61.688 0 .922-.548 2.234-1.313 3.047-.266.297-.64.484-.953.484-.391 0-.641-.312-.641-.828 0-.594.406-1.734.89-2.422.438-.64.954-1 1.407-.969m0 0"/><path id="m" d="M1.219-7.11c.656.016.718.048.718.298 0 .093-.03.234-.093.468-.032.078-.047.157-.063.219l-.015.078L.25-.516v.047c0 .266.86.594 1.469.594 1.672 0 3.515-1.937 3.515-3.672 0-.781-.546-1.328-1.28-1.328-.782 0-1.36.453-2.141 1.672.578-2.11.656-2.406 1.156-4.297l-.063-.062c-.547.109-.953.171-1.687.265Zm2.297 2.766c.484 0 .78.375.78.953 0 .735-.562 1.922-1.218 2.61-.406.422-.89.656-1.36.656-.343 0-.515-.125-.515-.39 0-.657.328-1.735.797-2.547.484-.86.984-1.282 1.516-1.282m0 0"/><clipPath id="a"><path d="M0 0h293v292.555H0Zm0 0"/></clipPath></defs><path fill="none" stroke="red" stroke-miterlimit="10" stroke-width=".5985" d="M229.367 205.89v-8.503h-8.504v8.504h8.504M252.242 148.738l-8.215 2.203 2.2 8.211 8.214-2.199-2.199-8.215M163.504 89.004l6.012 6.012 6.015-6.012-6.015-6.016-6.012 6.016"/><path fill="none" stroke="#000" stroke-linecap="round" stroke-linejoin="round" stroke-miterlimit="10" stroke-width="1.1955" d="M220.863 31.64 46.613 205.89h220.942Zm0 0"/><path fill="none" stroke="red" stroke-dasharray="4.483245 2.9888250000000003" stroke-linecap="round" stroke-miterlimit="10" stroke-width="1.1955" d="M229.367 154.867v51.024M229.367 154.867l22.875-6.129M229.367 154.867l-65.863-65.863"/><path fill="none" stroke="#00b200" stroke-dasharray="4.483245 2.9888250000000003" stroke-miterlimit="10" stroke-width="1.1955" d="M252.395 154.527c0-37.843-30.68-68.523-68.528-68.523-37.847 0-68.527 30.68-68.527 68.523 0 37.848 30.68 68.528 68.527 68.528s68.528-30.68 68.528-68.528Zm0 0"/><path fill="none" stroke="#00adef" stroke-dasharray="4.483245 2.9888250000000003" stroke-linecap="round" stroke-miterlimit="10" stroke-width="1.1955" d="m229.367 154.867-91-.676"/><path fill="none" stroke="red" stroke-dasharray="4.483245 2.9888250000000003" stroke-linecap="round" stroke-linejoin="round" stroke-miterlimit="10" stroke-width="1.1955" d="m229.367 205.89 22.875-57.152-88.738-59.734Zm0 0"/><path fill="none" stroke="#00f" stroke-dasharray="4.483245 2.9888250000000003" stroke-linecap="round" stroke-miterlimit="10" stroke-width="1.1955" d="M229.367 205.89v51.024M252.242 148.738l22.871-6.129M163.504 89.004 97.637 23.137"/><path fill="none" stroke="#00f" stroke-dasharray="4.483245 2.9888250000000003" stroke-linecap="round" stroke-linejoin="round" stroke-miterlimit="10" stroke-width="1.1955" d="m229.367 256.914 45.746-114.305L97.637 23.137Zm0 0"/><g clip-path="url(#a)"><path fill="none" stroke="#00adef" stroke-dasharray="4.483245 2.9888250000000003" stroke-miterlimit="10" stroke-width="1.1955" d="M275.387 154.191c0-75.675-61.348-137.02-137.02-137.02-75.676 0-137.02 61.345-137.02 137.02s61.344 137.02 137.02 137.02c75.672 0 137.02-61.344 137.02-137.02Zm0 0"/></g><path stroke="#000" stroke-miterlimit="10" stroke-width=".5985" d="M222.36 31.64a1.495 1.495 0 1 0-2.986-.001 1.495 1.495 0 0 0 2.985.002ZM48.11 205.89a1.495 1.495 0 1 0-2.991.007 1.495 1.495 0 0 0 2.99-.006ZM269.05 205.89c0-.824-.667-1.492-1.495-1.492-.825 0-1.493.668-1.493 1.493a1.494 1.494 0 1 0 2.988 0ZM230.863 154.867c0-.824-.668-1.492-1.496-1.492-.824 0-1.492.668-1.492 1.492a1.495 1.495 0 1 0 2.988 0ZM139.86 154.191a1.495 1.495 0 1 0-2.991-.001 1.495 1.495 0 0 0 2.99.001Zm0 0"/><path fill="#b20000" stroke="#4c0000" stroke-miterlimit="10" stroke-width=".5985" d="M230.863 205.89c0-.824-.668-1.492-1.496-1.492-.824 0-1.492.668-1.492 1.493a1.494 1.494 0 1 0 2.988 0ZM253.734 148.738c0-.824-.668-1.492-1.492-1.492-.828 0-1.496.668-1.496 1.492s.668 1.496 1.496 1.496c.824 0 1.492-.672 1.492-1.496ZM164.996 89.004c0-.828-.668-1.496-1.492-1.496s-1.496.668-1.496 1.496a1.495 1.495 0 0 0 2.988 0Zm0 0"/><path fill="#00b200" stroke="#004c00" stroke-miterlimit="10" stroke-width=".5985" d="M185.363 154.527a1.495 1.495 0 1 0-2.99.007 1.495 1.495 0 0 0 2.99-.007Zm0 0"/><path fill="#0000b2" stroke="#00004c" stroke-miterlimit="10" stroke-width=".5985" d="M230.863 256.914c0-.824-.668-1.492-1.496-1.492-.824 0-1.492.668-1.492 1.492a1.494 1.494 0 1 0 2.988 0ZM276.61 142.61a1.495 1.495 0 1 0-2.991.006 1.495 1.495 0 0 0 2.99-.007ZM99.133 23.137c0-.825-.668-1.496-1.496-1.496a1.495 1.495 0 1 0 1.496 1.496Zm0 0"/><use xlink:href="#b" x="216.298" y="26.361"/><use xlink:href="#c" x="178.434" y="169.506"/><use xlink:href="#d" x="222.597" y="271.892"/><use xlink:href="#e" x="229.86" y="274.149"/><use xlink:href="#d" x="145.304" y="92.67"/><use xlink:href="#f" x="152.565" y="94.911"/><use xlink:href="#d" x="280.39" y="146.331"/><use xlink:href="#g" x="287.654" y="148.587"/><use xlink:href="#d" x="78.819" y="15.429"/><use xlink:href="#h" x="86.082" y="17.686"/><use xlink:href="#i" x="32.203" y="220.869"/><use xlink:href="#j" x="122.296" y="169.512"/><use xlink:href="#d" x="214.956" y="169.845"/><use xlink:href="#d" x="210.549" y="220.869"/><use xlink:href="#k" x="217.81" y="223.11"/><use xlink:href="#l" x="272.087" y="221.213"/><use xlink:href="#d" x="257.519" y="163.716"/><use xlink:href="#m" x="264.781" y="166.19"/></svg>