<svg xmlns="http://www.w3.org/2000/svg" xmlns:xlink="http://www.w3.org/1999/xlink" width="476.604" height="581.794" viewBox="0 0 357.453 436.346"><defs><path id="c" d="M9.64-9.75H2.204v.234c.969.094 1.14.188 1.14.61 0 .234-.062.594-.155.953l-1.844 6.61C1.078-.454.969-.36.125-.235V0h3.766v-.234C3.016-.281 2.75-.454 2.75-.891c0-.125.047-.343.14-.671l.922-3.344c.547.031.876.047 1.204.047.578 0 .687.015.828.078.218.125.328.312.328.61 0 .25-.031.421-.125.89l.25.062 1.14-3.484-.265-.078c-.672 1.343-.719 1.36-3.234 1.39l.984-3.484c.094-.297.312-.39.922-.39 2.5 0 3.047.203 3.047 1.124 0 .094 0 .157-.016.36-.016.093-.016.11-.031.281l.312.031Zm0 0"/><path id="d" d="M13.047-9.75h-2.5L5.53-2.39l-.828-7.36H2v.234c.75.047 1.11.204 1.11.547 0 .125-.063.344-.157.625-.031.047-.062.219-.125.438-.015.047-.031.11-.047.172L1.187-2.187C.734-.625.517-.328-.266-.234V0h2.954v-.234c-.766-.063-1.063-.25-1.063-.657 0-.156.063-.546.14-.796l1.766-6.47L4.437 0h.25l5.641-8.375-1.937 7.016c-.235.797-.532 1.015-1.5 1.125V0h4.078v-.234C9.953-.328 9.813-.422 9.813-.875c0-.266.03-.453.171-.922l1.829-6.61c.265-.905.343-.968 1.234-1.109Zm0 0"/><path id="e" d="M10.86-9.75H7.89v.234c.844.079 1.048.22 1.048.766 0 .172-.032.36-.141.656-.016.047-.031.11-.031.11L7.25-2.297 4.14-9.75H1.735v.234c.704.063 1.016.25 1.282.844L1.234-2.453C.672-.531.547-.36-.296-.234V0h2.952v-.234C1.891-.297 1.61-.47 1.61-.875c0-.203.047-.5.141-.812l1.703-6.297L6.891.219h.265l2.157-7.516c.546-1.922.609-2.016 1.546-2.219Zm0 0"/><path id="f" d="M7.078-9.953c-1.25 0-2.594.61-3.797 1.687-1.5 1.391-2.39 3.22-2.39 4.97C.89-1.204 2.25.265 4.156.265c3.11 0 6.125-3.141 6.282-6.516.109-2.094-1.36-3.703-3.36-3.703m-.125.5c1.172 0 1.922.86 1.922 2.265 0 1.61-.703 3.797-1.672 5.204C6.375-.812 5.453-.22 4.406-.22c-1.25 0-1.937-.922-1.937-2.531 0-1.406.75-3.625 1.64-4.922.829-1.219 1.75-1.781 2.844-1.781m0 0"/><path id="j" d="M-.125 0h4.219c2.343 0 3.953-1.219 3.953-2.984 0-.563-.172-1.078-.5-1.407-.297-.343-.594-.53-1.375-.859 1.062-.25 1.484-.422 1.969-.844.422-.36.64-.86.64-1.468 0-1.422-1.062-2.188-2.984-2.188h-3.86v.234c.938.079 1.157.188 1.157.61 0 .234-.063.594-.172.953l-1.828 6.61C.828-.485.719-.392-.125-.235Zm3.688-4.937c.968 0 1.593.046 1.89.171.61.25.984.907.984 1.72 0 1.608-1.109 2.593-2.921 2.593-.625 0-.97-.219-.97-.625 0-.172.188-.89.532-2.094.188-.672.281-1.015.485-1.765m1.109-3.954c.094-.328.266-.421.86-.421 1.187 0 1.75.515 1.75 1.624 0 .844-.36 1.5-1 1.86-.516.297-1.235.406-2.579.406Zm0 0"/><path id="k" d="M8.422-.234c-.844-.078-.938-.203-1.125-1.297L5.89-9.984H5.5L1.172-2.516C-.016-.516-.172-.359-.766-.234V0h2.797v-.234c-.765-.078-.875-.157-.875-.532 0-.28.032-.421.297-.921l.844-1.688h3.297l.297 1.953c.015.14.03.266.03.39 0 .563-.218.704-1.171.798V0h3.672ZM2.609-3.906l2.25-3.89.657 3.89Zm0 0"/><path id="l" d="M9.469-9.75H2.047v.234c.922.094 1.156.204 1.156.61 0 .172-.094.687-.172.953l-1.844 6.61C.938-.5.829-.392-.016-.235V0h7.579l.921-2.422-.234-.125c-.703.969-1.094 1.36-1.734 1.656-.563.25-1.578.391-2.688.391-.844 0-1.203-.14-1.203-.5 0-.172.172-.86.547-2.187.187-.657.328-1.141.469-1.72.53.032.984.048 1.172.048.578-.016 1 .078 1.156.234.078.063.11.203.11.453 0 .266-.032.453-.11.781l.312.079 1.016-3.47-.281-.062c-.563 1.266-.703 1.36-2.063 1.422-.172 0-.656.016-1.172.031l.985-3.484c.093-.328.25-.39 1.093-.39 2.344 0 2.86.203 2.86 1.093 0 .188-.016.422-.031.672L9-7.469Zm0 0"/><path id="m" d="M1.938-9.516c.937.094 1.156.204 1.156.61 0 .234-.063.594-.172.953l-1.828 6.61C.828-.485.719-.392-.125-.235V0h3.781C5.406 0 7-.469 8.156-1.297 9.61-2.359 10.453-4 10.453-5.734c0-2.453-1.703-4.016-4.36-4.016H1.939Zm2.734.641c.094-.328.312-.437.922-.437.843 0 1.593.203 2.062.562.735.531 1.14 1.469 1.14 2.656 0 1.61-.624 3.282-1.64 4.297-.875.906-2.093 1.344-3.64 1.344-.688 0-.97-.156-.97-.547 0-.187.063-.531.329-1.422Zm0 0"/><path id="n" d="m9.734-6.953.563-2.969h-.313c-.125.25-.28.328-.578.328-.11 0-.297-.031-.61-.094-.671-.171-1.265-.265-1.75-.265-3.171 0-6.062 3-6.062 6.328 0 2.281 1.61 3.89 3.907 3.89 1.53 0 2.734-.656 4.078-2.218l-.266-.219C7.36-.844 6.5-.406 5.266-.406c-1.657 0-2.61-1.125-2.61-3.063 0-1.781.719-3.578 1.89-4.797.72-.734 1.657-1.14 2.641-1.14 1.375 0 2.141.797 2.282 2.422Zm0 0"/><path id="o" d="M10.781-9.75H7.47v.234c.172.016.343.047.406.047.36.031.5.125.5.281 0 .36-.812 1.172-2.14 2.094L3.952-5.516l.797-2.89c.219-.75.625-1.047 1.516-1.11v-.234H2.188v.234c.921.094 1.14.204 1.14.641 0 .219-.062.563-.156.922l-1.844 6.61C1.062-.454.984-.376.11-.235V0h3.704v-.234c-.938-.11-1.079-.203-1.079-.657 0-.156.032-.296.125-.593l.079-.313.937-3.406 1.797 3.11c.36.609.578 1.14.578 1.421 0 .219-.219.344-.687.39-.079 0-.25.016-.438.048V0h4.11v-.234c-.938-.094-1.032-.141-1.454-.844L5.188-5.594l4.484-3.39c.406-.313.75-.47 1.11-.532Zm0 0"/><path id="g" d="M6.234-.172c-.625-.062-.687-.156-.828-.953L4.36-7.391h-.28L.858-1.859C-.016-.391-.125-.266-.562-.172V0H1.5v-.172C.938-.234.86-.282.86-.562c0-.22.03-.313.218-.688l.625-1.25h2.438l.218 1.453c.016.094.016.188.016.281 0 .422-.156.516-.86.594V0h2.72ZM1.938-2.89l1.656-2.89.484 2.89Zm0 0"/><path id="h" d="M-.094 0h3.125C4.766 0 5.97-.906 5.97-2.219c0-.406-.14-.797-.375-1.031-.235-.25-.453-.39-1.032-.64.797-.188 1.11-.313 1.47-.626.312-.265.468-.64.468-1.078 0-1.062-.781-1.625-2.203-1.625h-2.86v.172c.688.063.86.14.86.453 0 .172-.047.438-.125.703L.812-1c-.203.64-.28.719-.906.828Zm2.735-3.656c.718 0 1.172.031 1.39.125.453.187.735.672.735 1.281 0 1.188-.813 1.922-2.172 1.922-.453 0-.703-.172-.703-.469 0-.125.14-.656.39-1.547.14-.5.203-.75.36-1.312m.828-2.922c.062-.25.187-.313.625-.313.89 0 1.297.375 1.297 1.188 0 .64-.266 1.125-.75 1.39-.375.22-.907.297-1.891.297Zm0 0"/><path id="i" d="m7.219-5.14.406-2.204h-.234c-.094.172-.203.235-.422.235-.094 0-.219-.016-.453-.063-.5-.125-.938-.203-1.297-.203-2.36 0-4.485 2.234-4.485 4.688C.734-1 1.922.203 3.625.203c1.125 0 2.016-.484 3.016-1.656l-.188-.156c-1 .984-1.64 1.312-2.547 1.312-1.234 0-1.937-.844-1.937-2.265 0-1.329.531-2.657 1.39-3.563.532-.531 1.235-.844 1.97-.844 1.015 0 1.577.594 1.687 1.797Zm0 0"/><clipPath id="a"><path d="M0 173h275v263.344H0Zm0 0"/></clipPath><clipPath id="b"><path d="M192 116h165.453v181H192Zm0 0"/></clipPath></defs><path fill="#0f0" fill-opacity=".3" d="m210.414 215.668-31.785 1.262-11.195-29.774ZM210.414 215.668l-42.441-103.09 84.5-72.719Zm0 0"/><path fill="#00adef" fill-opacity=".3" d="m210.414 215.668-31.785 1.262 16.297-27.32ZM210.414 215.668l-42.441-103.09 109.539 20.727Zm0 0"/><path fill="none" stroke="#000" stroke-linecap="round" stroke-linejoin="round" stroke-miterlimit="10" stroke-width="1.1955" d="M252.473 39.86 20.14 272.194h294.586Zm0 0"/><path fill="none" stroke="#000" stroke-linecap="round" stroke-linejoin="round" stroke-miterlimit="10" stroke-width="1.1955" d="m251.23 272.195 26.282-138.89-182.258 63.777Zm0 0"/><path fill="none" stroke="#000" stroke-miterlimit="10" stroke-width="1.1955" d="M279.207 112.578c0-61.433-49.8-111.234-111.234-111.234S56.738 51.144 56.738 112.578s49.801 111.234 111.235 111.234 111.234-49.8 111.234-111.234Zm0 0"/><g clip-path="url(#a)"><path fill="none" stroke="#000" stroke-miterlimit="10" stroke-width="1.1955" d="M258.059 312.629c0-67.586-54.79-122.375-122.372-122.375-67.585 0-122.375 54.789-122.375 122.375S68.102 435 135.688 435c67.583 0 122.372-54.785 122.372-122.371Zm0 0"/></g><g clip-path="url(#b)"><path fill="none" stroke="#000" stroke-miterlimit="10" stroke-width="1.1955" d="M356.105 206.27c0-40.387-32.738-73.125-73.125-73.125s-73.128 32.738-73.128 73.125c0 40.39 32.742 73.128 73.128 73.128s73.125-32.738 73.125-73.128Zm0 0"/></g><path fill="none" stroke="#000" stroke-linecap="round" stroke-miterlimit="10" stroke-width="1.1955" d="m178.629 216.93-11.195-29.774M178.629 216.93l16.297-27.32"/><path fill="none" stroke="#00b200" stroke-dasharray="4.483245 2.9888250000000003" stroke-linecap="round" stroke-miterlimit="10" stroke-width="1.1955" d="m210.414 215.668 42.059-175.809M210.414 215.668 20.141 272.195M210.414 215.668l104.313 56.527M210.414 215.668l-42.98-28.512"/><path fill="none" stroke="#00f" stroke-dasharray="4.483245 2.9888250000000003" stroke-linecap="round" stroke-miterlimit="10" stroke-width="1.1955" d="m210.414 215.668 40.816 56.527M210.414 215.668l67.098-82.363M210.414 215.668l-115.16-18.586M210.414 215.668l-15.488-26.059"/><path fill="none" stroke="#ec008c" stroke-dasharray="4.483245 2.9888250000000003" stroke-linecap="round" stroke-miterlimit="10" stroke-width="1.1955" d="m167.434 187.156 27.492 2.453M167.973 112.578l109.539 20.727M167.973 112.578l84.5-72.719"/><path fill="none" stroke="#ff7f00" stroke-dasharray="4.483245 2.9888250000000003" stroke-linecap="round" stroke-linejoin="round" stroke-miterlimit="10" stroke-width="1.1955" d="m167.973 112.578-32.286 200.05L282.98 206.27Zm0 0"/><path fill="none" stroke="#ff7f00" stroke-dasharray="4.483245 2.9888250000000003" stroke-linecap="round" stroke-miterlimit="10" stroke-width="1.1955" d="m210.414 215.668-42.441-103.09M210.414 215.668l-74.727 96.96M210.414 215.668l72.566-9.398M210.414 215.668l-31.785 1.262"/><path stroke="#000" stroke-miterlimit="10" stroke-width=".5985" d="M253.969 39.86a1.495 1.495 0 0 0-2.989 0c0 .828.668 1.495 1.493 1.495.824 0 1.496-.667 1.496-1.496ZM21.633 272.195a1.495 1.495 0 1 0-2.991-.001 1.495 1.495 0 0 0 2.99.001ZM316.223 272.195c0-.824-.672-1.496-1.496-1.496a1.495 1.495 0 1 0 1.496 1.496ZM252.727 272.195a1.495 1.495 0 1 0-2.986-.001 1.495 1.495 0 0 0 2.986.001ZM279.008 133.305a1.495 1.495 0 1 0-1.496 1.496c.824 0 1.496-.672 1.496-1.496ZM96.75 197.082a1.496 1.496 0 0 0-2.992 0 1.495 1.495 0 0 0 2.992 0ZM168.926 187.156c0-.828-.668-1.496-1.492-1.496-.825 0-1.496.668-1.496 1.496a1.495 1.495 0 0 0 2.988 0ZM196.422 189.61c0-.825-.668-1.493-1.496-1.493-.824 0-1.492.668-1.492 1.492a1.494 1.494 0 1 0 2.988 0ZM180.125 216.93a1.494 1.494 0 1 0-2.987-.005 1.494 1.494 0 0 0 2.987.005ZM169.469 112.578a1.495 1.495 0 1 0-2.991.007 1.495 1.495 0 0 0 2.99-.007ZM137.18 312.629a1.494 1.494 0 1 0-2.99-.005 1.494 1.494 0 0 0 2.99.005ZM284.473 206.27a1.495 1.495 0 1 0-1.492 1.496c.824 0 1.492-.668 1.492-1.496Zm0 0"/><path fill="#00b200" stroke="#004c00" stroke-miterlimit="10" stroke-width=".5985" d="M211.91 215.668a1.494 1.494 0 1 0-2.987-.005 1.494 1.494 0 0 0 2.987.005Zm0 0"/><use xlink:href="#c" x="90.061" y="191.8"/><use xlink:href="#d" x="160.911" y="181.875"/><use xlink:href="#e" x="189.495" y="184.077"/><use xlink:href="#f" x="158.826" y="105.01"/><use xlink:href="#g" x="169.615" y="107.301"/><use xlink:href="#f" x="173.235" y="232.251"/><use xlink:href="#f" x="126.54" y="327.948"/><use xlink:href="#h" x="137.329" y="330.189"/><use xlink:href="#f" x="273.676" y="221.594"/><use xlink:href="#i" x="283.914" y="223.884"/><use xlink:href="#j" x="5.731" y="277.044"/><use xlink:href="#k" x="257.752" y="34.584"/><use xlink:href="#l" x="282.791" y="128.026"/><use xlink:href="#m" x="235.162" y="287.173"/><use xlink:href="#n" x="319.259" y="287.517"/><use xlink:href="#o" x="215.694" y="220.517" fill="#004c00"/></svg>