<svg xmlns="http://www.w3.org/2000/svg" xmlns:xlink="http://www.w3.org/1999/xlink" width="338.788" height="335.384" style="background-color:#fff" viewBox="0 0 338.788 335.384"><defs><path id="c" d="M7.64-6.516H5.189v.172c.578.063.687.14.687.422 0 .14-.031.375-.11.625l-.452 1.625H2.469l.547-1.937c.14-.516.406-.703 1-.735v-.172h-2.72v.172c.61.047.767.14.767.422 0 .14-.032.375-.11.625L.734-.89c-.187.579-.25.625-.812.735V0h2.453v-.156c-.594-.078-.703-.156-.703-.438 0-.078 0-.156.016-.219l.671-2.437h2.829L4.547-.89c-.156.515-.36.656-1.016.734V0h2.735v-.156c-.641-.063-.782-.14-.782-.422 0-.094.016-.156.032-.235l1.312-4.796c.172-.578.25-.641.813-.735Zm0 0"/><path id="d" d="M6.313-6.516H1.359v.172c.625.047.782.14.782.407 0 .109-.063.453-.11.64L.797-.89c-.172.563-.25.625-.813.735V0h5.063l.61-1.61-.157-.077c-.469.625-.719.89-1.156 1.093-.36.172-1.047.266-1.797.266-.547 0-.797-.094-.797-.344 0-.11.11-.578.36-1.453.14-.437.218-.766.328-1.14.343.015.656.03.765.03.39-.015.672.047.781.141.047.047.079.14.079.313 0 .172-.032.297-.079.515l.204.047.671-2.312-.171-.032c-.375.844-.47.907-1.375.938-.126 0-.438.016-.797.031l.672-2.328c.046-.219.156-.266.718-.266 1.563 0 1.922.141 1.922.735 0 .125-.016.281-.031.453l.219.016Zm0 0"/><path id="e" d="M7.25-6.516H5.266v.172c.562.047.703.14.703.5 0 .125-.032.235-.094.438-.016.031-.016.078-.016.078L4.83-1.531 2.765-6.516h-1.61v.172c.469.032.672.157.86.547L.828-1.64C.453-.359.375-.234-.203-.156V0H1.78v-.156c-.515-.047-.703-.156-.703-.438 0-.125.031-.328.094-.531l1.125-4.203L4.594.156h.187l1.422-5.015c.375-1.297.422-1.344 1.047-1.485Zm0 0"/><path id="f" d="M7.203-6.516H4.984v.172c.125 0 .235.032.266.032.25.015.344.078.344.187 0 .234-.547.766-1.438 1.39L2.641-3.671l.53-1.937c.142-.5.423-.703 1-.735v-.172H1.454v.172c.625.047.766.14.766.422 0 .14-.031.375-.11.625L.891-.89C.703-.297.656-.25.063-.156V0h2.484v-.156c-.64-.078-.719-.14-.719-.438 0-.11.016-.187.078-.39l.063-.22.61-2.265L3.78-1.39c.25.407.39.75.39.938 0 .156-.14.234-.468.266-.047 0-.156.015-.281.03V0h2.734v-.156C5.531-.22 5.47-.25 5.188-.72L3.452-3.734l3-2.25c.281-.22.5-.328.75-.36Zm0 0"/><path id="g" d="M8.703-6.516H7.031L3.688-1.594 3.14-6.516H1.328v.172c.5.032.75.14.75.36 0 .078-.047.234-.11.406a3 3 0 0 0-.077.297.3.3 0 0 0-.032.125L.797-1.453C.484-.422.344-.22-.172-.156V0h1.969v-.156c-.516-.047-.703-.156-.703-.438 0-.11.031-.36.078-.531l1.187-4.312L2.953 0h.172l3.766-5.594L5.609-.906c-.171.531-.359.672-1.015.75V0h2.718v-.156c-.671-.063-.765-.125-.765-.438 0-.156.016-.297.11-.61L7.89-5.608c.172-.594.218-.657.812-.735Zm0 0"/><path id="h" d="M2.781.156c.766-.047 1.14-.14 1.703-.453C5.97-1.125 6.97-2.734 6.97-4.313c0-1.343-.953-2.328-2.282-2.328-.796 0-1.703.407-2.5 1.125-1 .938-1.593 2.141-1.593 3.313 0 .812.297 1.5.844 1.906.25.219.468.313.921.422-.906.797-1 .875-1.765 1.406l.094.157a2.25 2.25 0 0 1 1.14-.313c.203 0 .5.063.938.188.609.156 1.14.265 1.515.265.547 0 1.235-.266 1.75-.656.235-.188.375-.328.625-.688l-.14-.109c-.563.578-.97.766-1.688.766-.266 0-.469-.032-1.234-.22C3.078.798 2.609.704 2.547.72 2.516.734 2.5.734 2.5.734h-.25Zm1.86-6.468c.797 0 1.28.578 1.28 1.53 0 1.048-.468 2.516-1.109 3.438-.546.782-1.156 1.172-1.89 1.172-.813 0-1.281-.61-1.281-1.656 0-.938.5-2.422 1.093-3.297.563-.812 1.172-1.187 1.907-1.187m0 0"/><path id="i" d="M9.031-6.516H7.187v.172c.532.047.641.11.641.39 0 .157-.078.407-.203.673L5.765-1.61 5.36-5.625v-.14c0-.407.141-.532.672-.579v-.172H3.656v.172c.578.016.688.078.75.578l.094.688L2.781-1.61l-.437-4.047c-.016-.063-.016-.125-.016-.14 0-.391.125-.485.735-.548v-.172H.703v.172c.328.032.422.063.516.157.11.109.156.296.281 1.218l.61 5.14h.187l2.219-4.515h.046l.5 4.516h.204L8.28-5.625c.266-.516.375-.61.75-.719Zm0 0"/><path id="j" d="m6.5-4.64.375-1.985h-.219c-.078.172-.172.219-.375.219a2 2 0 0 1-.406-.063c-.453-.11-.844-.172-1.172-.172-2.125 0-4.047 2-4.047 4.22 0 1.53 1.078 2.593 2.61 2.593 1.015 0 1.812-.438 2.718-1.484l-.171-.141c-.891.89-1.47 1.187-2.297 1.187-1.11 0-1.735-.765-1.735-2.046 0-1.188.469-2.391 1.25-3.204.485-.484 1.11-.765 1.766-.765.922 0 1.422.547 1.516 1.61Zm0 0"/><path id="k" d="M1.297-6.344c.61.047.766.14.766.407 0 .14-.032.39-.11.64L.734-.89c-.187.579-.25.625-.812.735V0h2.516c1.171 0 2.234-.312 3-.875.968-.703 1.546-1.797 1.546-2.953 0-1.64-1.14-2.688-2.921-2.688H1.297Zm1.828.422c.063-.219.203-.281.61-.281.562 0 1.062.125 1.374.36.5.359.766.984.766 1.78 0 1.079-.422 2.188-1.094 2.86-.593.61-1.406.906-2.437.906-.453 0-.656-.11-.656-.375 0-.125.062-.344.218-.937Zm0 0"/><path id="l" d="M5.625-.156c-.578-.047-.625-.14-.766-.86l-.937-5.64h-.25L.782-1.672C-.017-.344-.11-.234-.517-.156V0H1.36v-.156C.844-.203.766-.266.766-.516c0-.187.03-.265.203-.609L1.53-2.25h2.203l.188 1.297c.015.094.031.187.031.265 0 .375-.14.47-.781.532V0h2.453ZM1.75-2.61l1.484-2.594.438 2.594Zm0 0"/><path id="m" d="M1.453-6.344c.578.063.703.157.703.407 0 .14-.031.359-.156.796L.813-.89C.64-.297.563-.234 0-.156V0h2.438v-.156c-.626-.094-.672-.125-.672-.469 0-.11.015-.219.125-.578l.515-1.922c.25.063.516.078.922.078.813 0 1.485-.156 1.922-.469.484-.375.781-.921.781-1.515 0-.953-.75-1.485-2.11-1.485H1.454Zm1.75.407c.063-.204.188-.266.469-.266.39 0 .765.094.969.234.25.172.359.469.359.938 0 .656-.219 1.11-.656 1.375-.313.172-.703.25-1.328.25-.172 0-.25-.016-.516-.047Zm0 0"/><path id="n" d="M-.078 0h2.812c1.563 0 2.641-.812 2.641-2 0-.36-.125-.719-.344-.937-.203-.22-.39-.344-.922-.563.72-.172 1-.281 1.329-.562q.42-.375.421-.985c0-.937-.703-1.469-1.984-1.469H1.297v.172c.61.047.766.125.766.407 0 .14-.032.39-.11.64L.734-.89c-.187.579-.25.625-.812.735Zm2.453-3.297c.64 0 1.063.031 1.266.11.406.171.656.609.656 1.156 0 1.078-.734 1.734-1.953 1.734-.422 0-.64-.156-.64-.422 0-.125.124-.593.343-1.39.14-.453.203-.688.328-1.188m.75-2.64c.063-.22.172-.266.563-.266.796 0 1.171.328 1.171 1.062 0 .579-.25 1.016-.671 1.25-.344.204-.813.266-1.72.266Zm0 0"/><path id="o" d="M6.438-6.516h-4.97v.172c.641.047.766.11.766.407 0 .14-.046.39-.109.64L.891-.89c-.172.594-.25.657-.813.735V0h2.516v-.156c-.578-.031-.766-.14-.766-.438 0-.078.031-.234.094-.453l.625-2.219c.36.016.578.032.797.032.39 0 .469 0 .547.046.156.079.218.204.218.407 0 .156-.015.281-.078.594l.172.046.766-2.328-.188-.062c-.437.906-.468.906-2.156.937l.672-2.328c.047-.203.187-.266.594-.266 1.687 0 2.047.141 2.047.75 0 .063 0 .11-.016.25-.016.047-.016.063-.016.188l.203.016Zm0 0"/><clipPath id="a"><path d="M169 84h169.79v180H169Zm0 0"/></clipPath><clipPath id="b"><path d="M0 87h249v248.383H0Zm0 0"/></clipPath></defs><path fill="none" stroke="#00f" stroke-miterlimit="10" stroke-width=".399" d="M111.043 127.074v-7.09h-7.09v7.09h7.09"/><path fill="none" stroke="#000" stroke-linecap="round" stroke-linejoin="round" stroke-miterlimit="10" stroke-width=".797" d="m111.043 33.527-69.398 93.547h280.859ZM111.043 220.617l94.094-21.219 27.61 48.665Zm0 0"/><path fill="none" stroke="#000" stroke-miterlimit="10" stroke-width=".797" d="M237.098 127.074c0-53.965-43.746-97.71-97.711-97.71-53.961 0-97.707 43.745-97.707 97.71 0 53.961 43.746 97.707 97.707 97.707 53.965 0 97.71-43.746 97.71-97.707Zm0 0"/><path fill="none" stroke="#000" stroke-miterlimit="10" stroke-width=".797" d="M322.258 127.074C322.258 57.387 265.766.898 196.082.898c-69.687 0-126.176 56.489-126.176 126.176 0 69.684 56.489 126.176 126.176 126.176 69.684 0 126.176-56.492 126.176-126.176Zm0 0"/><path fill="none" stroke="#000" stroke-miterlimit="10" stroke-width=".797" d="M232.852 252.781c0-35.965-29.153-65.117-65.118-65.117s-65.117 29.152-65.117 65.117c0 35.961 29.153 65.114 65.117 65.114s65.118-29.153 65.118-65.114Zm0 0"/><path fill="none" stroke="#000" stroke-linecap="round" stroke-miterlimit="10" stroke-width=".797" d="m111.043 33.527 94.094 165.871M182.074 158.738l-42.687-31.664M182.074 158.738l14.008-31.664"/><path fill="none" stroke="#00b200" stroke-dasharray="2.98883 1.99255" stroke-linecap="round" stroke-miterlimit="10" stroke-width=".797" d="m111.043 220.617 211.46-93.543M41.645 127.074l211.46 93.543"/><path fill="none" stroke="#00f" stroke-dasharray="2.98883 1.99255" stroke-linecap="round" stroke-miterlimit="10" stroke-width=".797" d="M111.043 33.527v187.09M196.082 127.074l-14.008 62.121"/><path fill="none" stroke="red" stroke-dasharray="2.98883 1.99255" stroke-miterlimit="10" stroke-width=".797" d="M326.023 158.738c0-79.5-64.449-143.949-143.949-143.949-79.504 0-143.953 64.45-143.953 143.95 0 79.503 64.45 143.952 143.953 143.952 79.5 0 143.95-64.449 143.95-143.953Zm0 0"/><path fill="none" stroke="red" stroke-dasharray="2.98883 1.99255" stroke-linecap="round" stroke-miterlimit="10" stroke-width=".797" d="M111.043 220.617h142.062"/><g clip-path="url(#a)"><path fill="none" stroke="#00adef" stroke-dasharray="2.98883 1.99255" stroke-miterlimit="10" stroke-width=".797" d="M337.89 173.969c0-43.41-35.187-78.602-78.597-78.602s-78.602 35.192-78.602 78.602 35.192 78.597 78.602 78.597 78.598-35.187 78.598-78.597Zm0 0"/></g><path fill="none" stroke="#00adef" stroke-dasharray="2.98883 1.99255" stroke-miterlimit="10" stroke-width=".797" d="M197.566 142.3c0-43.468-35.238-78.702-78.703-78.702-43.468 0-78.707 35.234-78.707 78.703s35.239 78.703 78.707 78.703c43.465 0 78.703-35.234 78.703-78.703Zm0 0"/><g clip-path="url(#b)"><path fill="none" stroke="#00adef" stroke-dasharray="2.98883 1.99255" stroke-miterlimit="10" stroke-width=".797" d="M236.828 216.523c0-65.152-52.812-117.968-117.965-117.968C53.711 98.555.898 151.37.898 216.523c0 65.153 52.813 117.965 117.965 117.965 65.153 0 117.965-52.812 117.965-117.965Zm0 0"/></g><path fill="none" stroke="#ec008c" stroke-dasharray="2.98883 1.99255" stroke-linecap="round" stroke-miterlimit="10" stroke-width=".797" d="m322.504 127.074-140.43 189.29M41.645 127.074l140.43 189.29M182.074 145.957v170.406"/><path fill="none" stroke="#ff7f00" stroke-dasharray="2.98883 1.99255" stroke-linecap="round" stroke-miterlimit="10" stroke-width=".797" d="m196.082 127.074 36.664 120.989"/><path stroke="#000" stroke-miterlimit="10" stroke-width=".399" d="M112.04 33.527a.998.998 0 0 0-1.997 0 .999.999 0 0 0 1.996 0ZM112.04 220.617a.998.998 0 0 0-1.997 0 .999.999 0 0 0 1.996 0ZM42.64 127.074a.995.995 0 1 0-1.994-.002.995.995 0 0 0 1.995.002ZM323.5 127.074a.995.995 0 1 0-1.99-.001.995.995 0 0 0 1.99.001ZM206.137 199.398a.999.999 0 0 0-1.996 0 .998.998 0 0 0 1.996 0ZM233.742 248.063a.995.995 0 1 0-1.99-.002.995.995 0 0 0 1.99.001ZM183.07 145.957a.995.995 0 1 0-1.99-.002.995.995 0 0 0 1.99.002ZM140.383 127.074a.995.995 0 1 0-1.99-.001.995.995 0 0 0 1.99.001ZM197.078 127.074a.995.995 0 1 0-1.99-.001.995.995 0 0 0 1.99.001ZM183.07 158.738a1 1 0 0 0-.996-.996.995.995 0 1 0 .996.996Zm0 0"/><path fill="#00b200" stroke="#004c00" stroke-miterlimit="10" stroke-width=".399" d="M183.07 189.195a.995.995 0 1 0-1.99-.001.995.995 0 0 0 1.99.001ZM254.102 220.617a.995.995 0 1 0-1.991-.001.995.995 0 0 0 1.99.001Zm0 0"/><path fill="#b4387d" stroke="#644552" stroke-miterlimit="10" stroke-width=".399" d="M183.07 316.363a.995.995 0 1 0-1.99-.001.995.995 0 0 0 1.99.001Zm0 0"/><use xlink:href="#c" x="178.128" y="142.435"/><use xlink:href="#d" x="201.731" y="195.878"/><use xlink:href="#e" x="192.46" y="123.384"/><use xlink:href="#f" x="249.507" y="217.097"/><use xlink:href="#g" x="135.04" y="137.058"/><use xlink:href="#h" x="178.476" y="199.409"/><use xlink:href="#i" x="177.061" y="326.347"/><use xlink:href="#j" x="31.261" y="130.336"/><use xlink:href="#k" x="326.021" y="130.306"/><use xlink:href="#l" x="101.435" y="30.01"/><use xlink:href="#m" x="172.466" y="168.725"/><use xlink:href="#n" x="101.435" y="230.602"/><use xlink:href="#o" x="236.264" y="258.046"/></svg>