<svg xmlns="http://www.w3.org/2000/svg" xmlns:xlink="http://www.w3.org/1999/xlink" width="649.418" height="784.466" viewBox="0 0 487.063 588.35"><defs><path id="c" d="M11.453-9.75H7.766v.234c.875.11 1.047.22 1.047.641 0 .219-.063.563-.157.922L7.97-5.5H3.703l.813-2.906c.218-.766.609-1.047 1.5-1.11v-.234H1.938v.234c.937.094 1.156.204 1.156.641 0 .219-.063.563-.172.922l-1.828 6.61C.828-.485.719-.392-.125-.235V0h3.688v-.234C2.656-.36 2.5-.47 2.5-.891c0-.109.016-.234.047-.328l.984-3.656h4.25l-.968 3.531c-.235.782-.532 1-1.516 1.11V0h4.078v-.234c-.953-.094-1.156-.22-1.156-.625 0-.157.015-.25.047-.36l1.968-7.187c.25-.875.375-.953 1.22-1.11Zm0 0"/><path id="d" d="M9.469-9.75H2.047v.234c.922.094 1.156.204 1.156.61 0 .172-.094.687-.172.953l-1.844 6.61C.938-.5.829-.392-.016-.235V0h7.579l.921-2.422-.234-.125c-.703.969-1.094 1.36-1.734 1.656-.563.25-1.578.391-2.688.391-.844 0-1.203-.14-1.203-.5 0-.172.172-.86.547-2.187.187-.657.328-1.141.469-1.72.53.032.984.048 1.172.048.578-.016 1 .078 1.156.234.078.063.11.203.11.453 0 .266-.032.453-.11.781l.312.079 1.016-3.47-.281-.062c-.563 1.266-.703 1.36-2.063 1.422-.172 0-.656.016-1.172.031l.985-3.484c.093-.328.25-.39 1.093-.39 2.344 0 2.86.203 2.86 1.093 0 .188-.016.422-.031.672L9-7.469Zm0 0"/><path id="e" d="M10.86-9.75H7.89v.234c.844.079 1.048.22 1.048.766 0 .172-.032.36-.141.656-.016.047-.031.11-.031.11L7.25-2.297 4.14-9.75H1.735v.234c.704.063 1.016.25 1.282.844L1.234-2.453C.672-.531.547-.36-.296-.234V0h2.952v-.234C1.891-.297 1.61-.47 1.61-.875c0-.203.047-.5.141-.812l1.703-6.297L6.891.219h.265l2.157-7.516c.546-1.922.609-2.016 1.546-2.219Zm0 0"/><path id="f" d="M13.047-9.75h-2.5L5.53-2.39l-.828-7.36H2v.234c.75.047 1.11.204 1.11.547 0 .125-.063.344-.157.625-.031.047-.062.219-.125.438-.015.047-.031.11-.047.172L1.187-2.187C.734-.625.517-.328-.266-.234V0h2.954v-.234c-.766-.063-1.063-.25-1.063-.657 0-.156.063-.546.14-.796l1.766-6.47L4.437 0h.25l5.641-8.375-1.937 7.016c-.235.797-.532 1.015-1.5 1.125V0h4.078v-.234C9.953-.328 9.813-.422 9.813-.875c0-.266.03-.453.171-.922l1.829-6.61c.265-.905.343-.968 1.234-1.109Zm0 0"/><path id="g" d="M4.172.234C5.312.172 5.89.016 6.719-.453c2.218-1.234 3.718-3.656 3.718-6.016 0-2.015-1.437-3.484-3.421-3.484-1.188 0-2.532.625-3.735 1.687-1.5 1.407-2.39 3.22-2.39 4.97 0 1.218.453 2.234 1.265 2.859.39.312.719.468 1.375.609C2.171 1.375 2.031 1.5.875 2.297l.156.234a3.36 3.36 0 0 1 1.719-.469c.297 0 .734.094 1.39.266.907.25 1.72.406 2.266.406.828 0 1.875-.39 2.625-.984.36-.266.563-.484.953-1.016L9.75.563c-.828.875-1.437 1.156-2.516 1.156-.39 0-.703-.063-1.843-.328-.782-.203-1.485-.328-1.563-.313-.062.016-.094.016-.094.016H3.36Zm2.781-9.687c1.188 0 1.922.86 1.922 2.281 0 1.578-.703 3.781-1.656 5.156C6.39-.844 5.469-.25 4.375-.25c-1.203 0-1.906-.922-1.906-2.484 0-1.422.734-3.641 1.64-4.938.829-1.219 1.75-1.781 2.844-1.781m0 0"/><path id="h" d="m9.734-6.953.563-2.969h-.313c-.125.25-.28.328-.578.328-.11 0-.297-.031-.61-.094-.671-.171-1.265-.265-1.75-.265-3.171 0-6.062 3-6.062 6.328 0 2.281 1.61 3.89 3.907 3.89 1.53 0 2.734-.656 4.078-2.218l-.266-.219C7.36-.844 6.5-.406 5.266-.406c-1.657 0-2.61-1.125-2.61-3.063 0-1.781.719-3.578 1.89-4.797.72-.734 1.657-1.14 2.641-1.14 1.375 0 2.141.797 2.282 2.422Zm0 0"/><path id="i" d="M9.453-9.75H1.516L.875-7.453l.281.062C1.938-9 2.422-9.266 4.703-9.234l-2.156 7.89C2.312-.547 1.953-.312.969-.234V0h4.328v-.234c-.25-.016-.469-.047-.563-.047-.593-.047-.78-.188-.78-.625 0-.203.046-.375.187-.89l2.078-7.438h.812c1.078 0 1.563.375 1.563 1.218 0 .188-.016.407-.047.672l.25.032Zm0 0"/><path id="j" d="M1.938-9.516c.937.094 1.156.204 1.156.61 0 .234-.063.594-.172.953l-1.828 6.61C.828-.485.719-.392-.125-.235V0h3.781C5.406 0 7-.469 8.156-1.297 9.61-2.359 10.453-4 10.453-5.734c0-2.453-1.703-4.016-4.36-4.016H1.939Zm2.734.641c.094-.328.312-.437.922-.437.843 0 1.593.203 2.062.562.735.531 1.14 1.469 1.14 2.656 0 1.61-.624 3.282-1.64 4.297-.875.906-2.093 1.344-3.64 1.344-.688 0-.97-.156-.97-.547 0-.187.063-.531.329-1.422Zm0 0"/><path id="k" d="M8.422-.234c-.844-.078-.938-.203-1.125-1.297L5.89-9.984H5.5L1.172-2.516C-.016-.516-.172-.359-.766-.234V0h2.797v-.234c-.765-.078-.875-.157-.875-.532 0-.28.032-.421.297-.921l.844-1.688h3.297l.297 1.953c.015.14.03.266.03.39 0 .563-.218.704-1.171.798V0h3.672ZM2.609-3.906l2.25-3.89.657 3.89Zm0 0"/><path id="l" d="M2.188-9.516c.843.11 1.046.235 1.046.625 0 .22-.046.532-.25 1.204L1.22-1.344C.953-.454.844-.359 0-.234V0h3.656v-.234C2.72-.375 2.641-.422 2.641-.922c0-.187.03-.328.187-.875l.781-2.875c.375.094.766.11 1.375.11 1.235 0 2.235-.25 2.875-.704.75-.562 1.172-1.375 1.172-2.265 0-1.438-1.11-2.219-3.14-2.219H2.188Zm2.625.625c.093-.312.265-.421.687-.421.578 0 1.14.156 1.453.359.375.281.547.719.547 1.422 0 .968-.344 1.656-1 2.047-.469.25-1.047.375-1.969.375-.265 0-.375-.016-.781-.079Zm0 0"/><path id="m" d="M-.125 0h4.219c2.343 0 3.953-1.219 3.953-2.984 0-.563-.172-1.078-.5-1.407-.297-.343-.594-.53-1.375-.859 1.062-.25 1.484-.422 1.969-.844.422-.36.64-.86.64-1.468 0-1.422-1.062-2.188-2.984-2.188h-3.86v.234c.938.079 1.157.188 1.157.61 0 .234-.063.594-.172.953l-1.828 6.61C.828-.485.719-.392-.125-.235Zm3.688-4.937c.968 0 1.593.046 1.89.171.61.25.984.907.984 1.72 0 1.608-1.109 2.593-2.921 2.593-.625 0-.97-.219-.97-.625 0-.172.188-.89.532-2.094.188-.672.281-1.015.485-1.765m1.109-3.954c.094-.328.266-.421.86-.421 1.187 0 1.75.515 1.75 1.624 0 .844-.36 1.5-1 1.86-.516.297-1.235.406-2.579.406Zm0 0"/><path id="n" d="m6.984-6.984.61-2.985H7.25c-.219.313-.344.39-.672.39-.187 0-.344-.046-.687-.155-.328-.141-.813-.22-1.282-.22-1.546 0-2.656 1.032-2.656 2.5 0 .813.234 1.235 1.125 2.188.14.141.328.344.578.641.266.281.485.5.594.625.688.734.89 1.11.89 1.766C5.14-1.125 4.298-.25 3.22-.25c-1.25 0-2.188-1.062-2.188-2.484 0-.125.016-.235.032-.344L.766-3.11.25.219h.266c.109-.344.28-.485.578-.485.156 0 .39.063.765.188.688.25 1.094.344 1.563.344 1.719 0 3.016-1.297 3.016-2.985 0-.969-.344-1.547-1.688-2.906S3.266-7.203 3.266-7.937c0-.938.64-1.516 1.656-1.516.547 0 1.016.187 1.328.547.328.375.438.89.469 1.875Zm0 0"/><path id="o" d="M9.64-9.75H2.204v.234c.969.094 1.14.188 1.14.61 0 .234-.062.594-.155.953l-1.844 6.61C1.078-.454.969-.36.125-.235V0h3.766v-.234C3.016-.281 2.75-.454 2.75-.891c0-.125.047-.343.14-.671l.922-3.344c.547.031.876.047 1.204.047.578 0 .687.015.828.078.218.125.328.312.328.61 0 .25-.031.421-.125.89l.25.062 1.14-3.484-.265-.078c-.672 1.343-.719 1.36-3.234 1.39l.984-3.484c.094-.297.312-.39.922-.39 2.5 0 3.047.203 3.047 1.124 0 .094 0 .157-.016.36-.016.093-.016.11-.031.281l.312.031Zm0 0"/><clipPath id="a"><path d="M95 374h230v214.348H95Zm0 0"/></clipPath><clipPath id="b"><path d="M106 0h381.063v381H106Zm0 0"/></clipPath></defs><path fill="#fff" d="M0 0h487.063v588.348H0Zm0 0"/><path fill="none" stroke="#00f" stroke-miterlimit="10" stroke-width=".5985" d="m72.605 230.613 8.54 6.332 6.332-8.535-8.54-6.336-6.332 8.54M124.656 300.77v-10.63h-10.633v10.63h10.633"/><path fill="none" stroke="#000" stroke-linecap="round" stroke-linejoin="round" stroke-miterlimit="10" stroke-width="1.1955" d="M124.656 160.453 20.56 300.77h421.289ZM124.656 441.086l141.145-31.828 41.41 72.996Zm0 0"/><path fill="none" stroke="#000" stroke-miterlimit="10" stroke-width="1.1955" d="M313.738 300.77c0-80.946-65.617-146.563-146.562-146.563S20.613 219.824 20.613 300.77 86.23 447.332 167.176 447.332s146.562-65.617 146.562-146.562Zm0 0"/><path fill="none" stroke="#000" stroke-miterlimit="10" stroke-width="1.1955" d="M441.48 300.77c0-104.528-84.734-189.262-189.265-189.262-104.528 0-189.262 84.734-189.262 189.262 0 104.53 84.734 189.265 189.262 189.265 104.531 0 189.265-84.734 189.265-189.265Zm0 0"/><g clip-path="url(#a)"><path fill="none" stroke="#000" stroke-miterlimit="10" stroke-width="1.1955" d="M307.371 489.332c0-53.945-43.73-97.676-97.676-97.676-53.945 0-97.675 43.73-97.675 97.676 0 53.945 43.73 97.672 97.675 97.672s97.676-43.727 97.676-97.672Zm0 0"/></g><path fill="none" stroke="#000" stroke-linecap="round" stroke-miterlimit="10" stroke-width="1.1955" d="m124.656 160.453 141.145 248.805M231.203 348.27l-64.027-47.5M231.203 348.27l21.012-47.5"/><path fill="none" stroke="#00b200" stroke-dasharray="4.483245 2.9888250000000003" stroke-linecap="round" stroke-miterlimit="10" stroke-width="1.1955" d="M124.656 441.086 441.848 300.77M20.559 300.77 265.8 409.258M231.203 329.094v64.86"/><path fill="none" stroke="#00f" stroke-dasharray="4.483245 2.9888250000000003" stroke-linecap="round" stroke-miterlimit="10" stroke-width="1.1955" d="M231.203 348.27 20.56 300.77M124.656 441.086 20.56 300.77M124.656 160.453v280.633M72.605 230.613l94.57 70.157"/><g clip-path="url(#b)"><path fill="none" stroke="#00adef" stroke-dasharray="4.483245 2.9888250000000003" stroke-miterlimit="10" stroke-width="1.1955" d="M485.719 182.555c0-100.082-81.13-181.211-181.207-181.211-100.082 0-181.207 81.129-181.207 181.21 0 100.079 81.125 181.208 181.207 181.208 100.078 0 181.207-81.13 181.207-181.207Zm0 0"/></g><path fill="none" stroke="red" stroke-dasharray="4.483245 2.9888250000000003" stroke-miterlimit="10" stroke-width="1.1955" d="M447.129 348.27c0-119.254-96.672-215.926-215.926-215.926S15.277 229.016 15.277 348.27c0 119.257 96.672 215.93 215.926 215.93S447.13 467.526 447.13 348.27Zm0 0"/><path stroke="#000" stroke-miterlimit="10" stroke-width=".5985" d="M126.148 160.453c0-.824-.668-1.492-1.492-1.492a1.494 1.494 0 1 0 1.492 1.492ZM126.148 441.086c0-.824-.668-1.492-1.492-1.492a1.494 1.494 0 1 0 1.492 1.492ZM22.05 300.77a1.493 1.493 0 0 0-2.988 0 1.494 1.494 0 1 0 2.989 0ZM443.344 300.77a1.495 1.495 0 0 0-2.989 0c0 .828.668 1.496 1.493 1.496.824 0 1.496-.668 1.496-1.496ZM267.297 409.258a1.495 1.495 0 1 0-2.99.006 1.495 1.495 0 0 0 2.99-.006ZM308.703 482.254c0-.824-.668-1.496-1.492-1.496s-1.496.672-1.496 1.496.672 1.496 1.496 1.496 1.492-.672 1.492-1.496ZM232.695 329.094c0-.824-.668-1.492-1.492-1.492a1.495 1.495 0 1 0 1.492 1.492ZM168.668 300.77c0-.825-.668-1.493-1.492-1.493a1.495 1.495 0 1 0 0 2.989c.824 0 1.492-.668 1.492-1.496ZM253.71 300.77a1.495 1.495 0 0 0-2.987 0c0 .828.668 1.496 1.492 1.496s1.496-.668 1.496-1.496ZM232.695 348.27c0-.825-.668-1.493-1.492-1.493a1.495 1.495 0 1 0 1.492 1.493Zm0 0"/><path fill="#00b200" stroke="#004c00" stroke-miterlimit="10" stroke-width=".5985" d="M232.695 393.953c0-.824-.668-1.492-1.492-1.492s-1.496.668-1.496 1.492.672 1.496 1.496 1.496 1.492-.672 1.492-1.496Zm0 0"/><path fill="#0000b2" stroke="#00004c" stroke-miterlimit="10" stroke-width=".5985" d="M126.148 269.227a1.495 1.495 0 1 0-2.99-.002 1.495 1.495 0 0 0 2.99.002ZM74.102 230.613c0-.824-.672-1.496-1.497-1.496a1.495 1.495 0 0 0 0 2.988c.825 0 1.497-.667 1.497-1.492ZM126.148 300.77c0-.825-.668-1.493-1.492-1.493a1.494 1.494 0 1 0 1.492 1.492Zm0 0"/><use xlink:href="#c" x="225.284" y="323.814"/><use xlink:href="#d" x="260.688" y="403.978"/><use xlink:href="#e" x="246.783" y="295.238"/><use xlink:href="#f" x="160.651" y="315.748"/><use xlink:href="#g" x="225.807" y="409.274"/><use xlink:href="#h" x="4.983" y="305.666"/><use xlink:href="#i" x="57.121" y="235.463"/><use xlink:href="#j" x="447.125" y="305.62"/><use xlink:href="#k" x="110.246" y="155.177"/><use xlink:href="#l" x="216.791" y="363.249"/><use xlink:href="#m" x="110.246" y="456.065"/><use xlink:href="#n" x="111.784" y="284.548"/><use xlink:href="#o" x="312.488" y="497.229"/></svg>