<svg xmlns="http://www.w3.org/2000/svg" xmlns:xlink="http://www.w3.org/1999/xlink" width="677.576" height="670.768" viewBox="0 0 508.182 503.076"><defs><path id="c" d="M11.453-9.75H7.766v.234c.875.11 1.047.22 1.047.641 0 .219-.063.563-.157.922L7.97-5.5H3.703l.813-2.906c.218-.766.609-1.047 1.5-1.11v-.234H1.938v.234c.937.094 1.156.204 1.156.641 0 .219-.063.563-.172.922l-1.828 6.61C.828-.485.719-.392-.125-.235V0h3.688v-.234C2.656-.36 2.5-.47 2.5-.891c0-.109.016-.234.047-.328l.984-3.656h4.25l-.968 3.531c-.235.782-.532 1-1.516 1.11V0h4.078v-.234c-.953-.094-1.156-.22-1.156-.625 0-.157.015-.25.047-.36l1.968-7.187c.25-.875.375-.953 1.22-1.11Zm0 0"/><path id="d" d="M9.469-9.75H2.047v.234c.922.094 1.156.204 1.156.61 0 .172-.094.687-.172.953l-1.844 6.61C.938-.5.829-.392-.016-.235V0h7.579l.921-2.422-.234-.125c-.703.969-1.094 1.36-1.734 1.656-.563.25-1.578.391-2.688.391-.844 0-1.203-.14-1.203-.5 0-.172.172-.86.547-2.187.187-.657.328-1.141.469-1.72.53.032.984.048 1.172.048.578-.016 1 .078 1.156.234.078.063.11.203.11.453 0 .266-.032.453-.11.781l.312.079 1.016-3.47-.281-.062c-.563 1.266-.703 1.36-2.063 1.422-.172 0-.656.016-1.172.031l.985-3.484c.093-.328.25-.39 1.093-.39 2.344 0 2.86.203 2.86 1.093 0 .188-.016.422-.031.672L9-7.469Zm0 0"/><path id="e" d="M10.86-9.75H7.89v.234c.844.079 1.048.22 1.048.766 0 .172-.032.36-.141.656-.016.047-.031.11-.031.11L7.25-2.297 4.14-9.75H1.735v.234c.704.063 1.016.25 1.282.844L1.234-2.453C.672-.531.547-.36-.296-.234V0h2.952v-.234C1.891-.297 1.61-.47 1.61-.875c0-.203.047-.5.141-.812l1.703-6.297L6.891.219h.265l2.157-7.516c.546-1.922.609-2.016 1.546-2.219Zm0 0"/><path id="f" d="M10.781-9.75H7.47v.234c.172.016.343.047.406.047.36.031.5.125.5.281 0 .36-.812 1.172-2.14 2.094L3.952-5.516l.797-2.89c.219-.75.625-1.047 1.516-1.11v-.234H2.188v.234c.921.094 1.14.204 1.14.641 0 .219-.062.563-.156.922l-1.844 6.61C1.062-.454.984-.376.11-.235V0h3.704v-.234c-.938-.11-1.079-.203-1.079-.657 0-.156.032-.296.125-.593l.079-.313.937-3.406 1.797 3.11c.36.609.578 1.14.578 1.421 0 .219-.219.344-.687.39-.079 0-.25.016-.438.048V0h4.11v-.234c-.938-.094-1.032-.141-1.454-.844L5.188-5.594l4.484-3.39c.406-.313.75-.47 1.11-.532Zm0 0"/><path id="g" d="M13.047-9.75h-2.5L5.53-2.39l-.828-7.36H2v.234c.75.047 1.11.204 1.11.547 0 .125-.063.344-.157.625-.031.047-.062.219-.125.438-.015.047-.031.11-.047.172L1.187-2.187C.734-.625.517-.328-.266-.234V0h2.954v-.234c-.766-.063-1.063-.25-1.063-.657 0-.156.063-.546.14-.796l1.766-6.47L4.437 0h.25l5.641-8.375-1.937 7.016c-.235.797-.532 1.015-1.5 1.125V0h4.078v-.234C9.953-.328 9.813-.422 9.813-.875c0-.266.03-.453.171-.922l1.829-6.61c.265-.905.343-.968 1.234-1.109Zm0 0"/><path id="h" d="M4.172.234C5.312.172 5.89.016 6.719-.453c2.218-1.234 3.718-3.656 3.718-6.016 0-2.015-1.437-3.484-3.421-3.484-1.188 0-2.532.625-3.735 1.687-1.5 1.407-2.39 3.22-2.39 4.97 0 1.218.453 2.234 1.265 2.859.39.312.719.468 1.375.609C2.171 1.375 2.031 1.5.875 2.297l.156.234a3.36 3.36 0 0 1 1.719-.469c.297 0 .734.094 1.39.266.907.25 1.72.406 2.266.406.828 0 1.875-.39 2.625-.984.36-.266.563-.484.953-1.016L9.75.563c-.828.875-1.437 1.156-2.516 1.156-.39 0-.703-.063-1.843-.328-.782-.203-1.485-.328-1.563-.313-.062.016-.094.016-.094.016H3.36Zm2.781-9.687c1.188 0 1.922.86 1.922 2.281 0 1.578-.703 3.781-1.656 5.156C6.39-.844 5.469-.25 4.375-.25c-1.203 0-1.906-.922-1.906-2.484 0-1.422.734-3.641 1.64-4.938.829-1.219 1.75-1.781 2.844-1.781m0 0"/><path id="i" d="M13.531-9.75h-2.765v.234c.812.079.968.188.968.594 0 .25-.109.61-.312 1l-2.781 5.5-.61-6-.015-.219c0-.609.218-.796 1.015-.875v-.234H5.484v.234c.86.032 1.016.141 1.125.86l.125 1.031-2.562 5.203-.656-6.062C3.5-8.563 3.5-8.656 3.5-8.687c0-.594.172-.72 1.078-.829v-.234H1.062v.234c.485.063.626.11.766.235.172.172.234.453.406 1.828L3.172.266h.281l3.313-6.782h.078l.75 6.782h.297l4.515-8.703c.406-.766.563-.891 1.125-1.079Zm0 0"/><path id="j" d="m9.734-6.953.563-2.969h-.313c-.125.25-.28.328-.578.328-.11 0-.297-.031-.61-.094-.671-.171-1.265-.265-1.75-.265-3.171 0-6.062 3-6.062 6.328 0 2.281 1.61 3.89 3.907 3.89 1.53 0 2.734-.656 4.078-2.218l-.266-.219C7.36-.844 6.5-.406 5.266-.406c-1.657 0-2.61-1.125-2.61-3.063 0-1.781.719-3.578 1.89-4.797.72-.734 1.657-1.14 2.641-1.14 1.375 0 2.141.797 2.282 2.422Zm0 0"/><path id="k" d="M1.938-9.516c.937.094 1.156.204 1.156.61 0 .234-.063.594-.172.953l-1.828 6.61C.828-.485.719-.392-.125-.235V0h3.781C5.406 0 7-.469 8.156-1.297 9.61-2.359 10.453-4 10.453-5.734c0-2.453-1.703-4.016-4.36-4.016H1.939Zm2.734.641c.094-.328.312-.437.922-.437.843 0 1.593.203 2.062.562.735.531 1.14 1.469 1.14 2.656 0 1.61-.624 3.282-1.64 4.297-.875.906-2.093 1.344-3.64 1.344-.688 0-.97-.156-.97-.547 0-.187.063-.531.329-1.422Zm0 0"/><path id="l" d="M8.422-.234c-.844-.078-.938-.203-1.125-1.297L5.89-9.984H5.5L1.172-2.516C-.016-.516-.172-.359-.766-.234V0h2.797v-.234c-.765-.078-.875-.157-.875-.532 0-.28.032-.421.297-.921l.844-1.688h3.297l.297 1.953c.015.14.03.266.03.39 0 .563-.218.704-1.171.798V0h3.672ZM2.609-3.906l2.25-3.89.657 3.89Zm0 0"/><path id="m" d="M2.188-9.516c.843.11 1.046.235 1.046.625 0 .22-.046.532-.25 1.204L1.22-1.344C.953-.454.844-.359 0-.234V0h3.656v-.234C2.72-.375 2.641-.422 2.641-.922c0-.187.03-.328.187-.875l.781-2.875c.375.094.766.11 1.375.11 1.235 0 2.235-.25 2.875-.704.75-.562 1.172-1.375 1.172-2.265 0-1.438-1.11-2.219-3.14-2.219H2.188Zm2.625.625c.093-.312.265-.421.687-.421.578 0 1.14.156 1.453.359.375.281.547.719.547 1.422 0 .968-.344 1.656-1 2.047-.469.25-1.047.375-1.969.375-.265 0-.375-.016-.781-.079Zm0 0"/><path id="n" d="M-.125 0h4.219c2.343 0 3.953-1.219 3.953-2.984 0-.563-.172-1.078-.5-1.407-.297-.343-.594-.53-1.375-.859 1.062-.25 1.484-.422 1.969-.844.422-.36.64-.86.64-1.468 0-1.422-1.062-2.188-2.984-2.188h-3.86v.234c.938.079 1.157.188 1.157.61 0 .234-.063.594-.172.953l-1.828 6.61C.828-.485.719-.392-.125-.235Zm3.688-4.937c.968 0 1.593.046 1.89.171.61.25.984.907.984 1.72 0 1.608-1.109 2.593-2.921 2.593-.625 0-.97-.219-.97-.625 0-.172.188-.89.532-2.094.188-.672.281-1.015.485-1.765m1.109-3.954c.094-.328.266-.421.86-.421 1.187 0 1.75.515 1.75 1.624 0 .844-.36 1.5-1 1.86-.516.297-1.235.406-2.579.406Zm0 0"/><path id="o" d="M9.64-9.75H2.204v.234c.969.094 1.14.188 1.14.61 0 .234-.062.594-.155.953l-1.844 6.61C1.078-.454.969-.36.125-.235V0h3.766v-.234C3.016-.281 2.75-.454 2.75-.891c0-.125.047-.343.14-.671l.922-3.344c.547.031.876.047 1.204.047.578 0 .687.015.828.078.218.125.328.312.328.61 0 .25-.031.421-.125.89l.25.062 1.14-3.484-.265-.078c-.672 1.343-.719 1.36-3.234 1.39l.984-3.484c.094-.297.312-.39.922-.39 2.5 0 3.047.203 3.047 1.124 0 .094 0 .157-.016.36-.016.093-.016.11-.031.281l.312.031Zm0 0"/><clipPath id="a"><path d="M254 126h254.184v270H254Zm0 0"/></clipPath><clipPath id="b"><path d="M0 130h373v373.074H0Zm0 0"/></clipPath></defs><path fill="#fff" d="M0 0h508.184v503.074H0Zm0 0"/><path fill="none" stroke="#00f" stroke-miterlimit="10" stroke-width=".5985" d="M166.563 190.61v-10.63h-10.63v10.63h10.63"/><path fill="none" stroke="#000" stroke-linecap="round" stroke-linejoin="round" stroke-miterlimit="10" stroke-width="1.1955" d="M166.563 50.293 62.465 190.609h421.289ZM166.563 330.926l141.144-31.828 41.41 72.996Zm0 0"/><path fill="none" stroke="#000" stroke-miterlimit="10" stroke-width="1.1955" d="M355.645 190.61c0-80.946-65.618-146.563-146.563-146.563S62.52 109.664 62.52 190.609s65.617 146.563 146.562 146.563 146.563-65.617 146.563-146.563Zm0 0"/><path fill="none" stroke="#000" stroke-miterlimit="10" stroke-width="1.1955" d="M483.387 190.61c0-104.528-84.735-189.262-189.266-189.262-104.527 0-189.262 84.734-189.262 189.261 0 104.528 84.735 189.266 189.262 189.266 104.531 0 189.266-84.738 189.266-189.266Zm0 0"/><path fill="none" stroke="#000" stroke-miterlimit="10" stroke-width="1.1955" d="M349.277 379.168c0-53.945-43.73-97.676-97.675-97.676s-97.676 43.73-97.676 97.676c0 53.945 43.73 97.676 97.676 97.676 53.945 0 97.675-43.73 97.675-97.676Zm0 0"/><path fill="none" stroke="#000" stroke-linecap="round" stroke-miterlimit="10" stroke-width="1.1955" d="m166.563 50.293 141.144 248.805M273.11 238.11l-64.028-47.5M273.11 238.11l21.011-47.5"/><path fill="none" stroke="#00b200" stroke-dasharray="4.483245 2.9888250000000003" stroke-linecap="round" stroke-miterlimit="10" stroke-width="1.1955" d="m166.563 330.926 317.19-140.317M62.465 190.61l317.191 140.316"/><path fill="none" stroke="#00f" stroke-dasharray="4.483245 2.9888250000000003" stroke-linecap="round" stroke-miterlimit="10" stroke-width="1.1955" d="M166.563 50.293v280.633M294.121 190.61l-21.012 93.183"/><path fill="none" stroke="red" stroke-dasharray="4.483245 2.9888250000000003" stroke-miterlimit="10" stroke-width="1.1955" d="M489.035 238.11c0-119.255-96.672-215.926-215.926-215.926S57.184 118.855 57.184 238.109s96.671 215.926 215.925 215.926 215.926-96.672 215.926-215.926Zm0 0"/><path fill="none" stroke="red" stroke-dasharray="4.483245 2.9888250000000003" stroke-linecap="round" stroke-miterlimit="10" stroke-width="1.1955" d="M166.563 330.926h213.093"/><g clip-path="url(#a)"><path fill="none" stroke="#00adef" stroke-dasharray="4.483245 2.9888250000000003" stroke-miterlimit="10" stroke-width="1.1955" d="M506.836 260.953c0-65.117-52.781-117.902-117.898-117.902-65.114 0-117.899 52.785-117.899 117.902 0 65.113 52.785 117.899 117.899 117.899 65.117 0 117.898-52.786 117.898-117.899Zm0 0"/></g><path fill="none" stroke="#00adef" stroke-dasharray="4.483245 2.9888250000000003" stroke-miterlimit="10" stroke-width="1.1955" d="M296.352 213.45c0-65.2-52.856-118.055-118.059-118.055-65.2 0-118.055 52.855-118.055 118.054 0 65.203 52.856 118.059 118.055 118.059 65.203 0 118.059-52.856 118.059-118.059Zm0 0"/><g clip-path="url(#b)"><path fill="none" stroke="#00adef" stroke-dasharray="4.483245 2.9888250000000003" stroke-miterlimit="10" stroke-width="1.1955" d="M355.242 324.785c0-97.73-79.222-176.95-176.949-176.95s-176.95 79.22-176.95 176.95c0 97.727 79.223 176.945 176.95 176.945s176.95-79.218 176.95-176.945Zm0 0"/></g><path fill="none" stroke="#ec008c" stroke-dasharray="4.483245 2.9888250000000003" stroke-linecap="round" stroke-miterlimit="10" stroke-width="1.1955" d="M483.754 190.61 273.109 474.546M62.465 190.61l210.644 283.937M273.11 218.934v255.613"/><path fill="none" stroke="#ff7f00" stroke-dasharray="4.483245 2.9888250000000003" stroke-linecap="round" stroke-miterlimit="10" stroke-width="1.1955" d="m294.121 190.61 54.996 181.484"/><path stroke="#000" stroke-miterlimit="10" stroke-width=".5985" d="M168.055 50.293c0-.824-.668-1.496-1.492-1.496-.825 0-1.497.672-1.497 1.496s.672 1.496 1.497 1.496c.824 0 1.492-.672 1.492-1.496ZM168.055 330.926c0-.824-.668-1.492-1.492-1.492-.825 0-1.497.668-1.497 1.492s.672 1.496 1.497 1.496c.824 0 1.492-.672 1.492-1.496ZM63.96 190.61c0-.825-.67-1.497-1.495-1.497-.824 0-1.496.672-1.496 1.496 0 .825.672 1.496 1.496 1.496s1.496-.671 1.496-1.496ZM485.25 190.61c0-.825-.668-1.497-1.496-1.497a1.495 1.495 0 1 0 1.496 1.496ZM309.203 299.098c0-.825-.672-1.496-1.496-1.496a1.495 1.495 0 1 0 1.496 1.496ZM350.613 372.094a1.496 1.496 0 0 0-2.992 0 1.495 1.495 0 0 0 2.992 0ZM274.605 218.934c0-.825-.671-1.497-1.496-1.497-.824 0-1.496.672-1.496 1.497a1.495 1.495 0 0 0 2.992 0ZM210.578 190.61c0-.825-.672-1.497-1.496-1.497s-1.496.672-1.496 1.496c0 .825.672 1.496 1.496 1.496s1.496-.671 1.496-1.496ZM295.617 190.61c0-.825-.668-1.497-1.496-1.497a1.495 1.495 0 1 0 1.496 1.496ZM274.605 238.11a1.495 1.495 0 1 0-1.496 1.495c.825 0 1.496-.671 1.496-1.496Zm0 0"/><path fill="#00b200" stroke="#004c00" stroke-miterlimit="10" stroke-width=".5985" d="M274.605 283.793c0-.824-.671-1.496-1.496-1.496-.824 0-1.496.672-1.496 1.496a1.495 1.495 0 0 0 2.992 0ZM381.152 330.926c0-.824-.668-1.492-1.496-1.492-.824 0-1.492.668-1.492 1.492a1.495 1.495 0 1 0 2.988 0Zm0 0"/><path fill="#b4387d" stroke="#644552" stroke-miterlimit="10" stroke-width=".5985" d="M274.605 474.547a1.496 1.496 0 0 0-2.992 0 1.495 1.495 0 0 0 2.992 0Zm0 0"/><use xlink:href="#c" x="267.192" y="213.653"/><use xlink:href="#d" x="302.596" y="293.817"/><use xlink:href="#e" x="288.69" y="185.076"/><use xlink:href="#f" x="374.26" y="325.646"/><use xlink:href="#g" x="202.56" y="205.587"/><use xlink:href="#h" x="267.714" y="299.113"/><use xlink:href="#i" x="265.591" y="489.521"/><use xlink:href="#j" x="46.892" y="195.504"/><use xlink:href="#k" x="489.031" y="195.459"/><use xlink:href="#l" x="152.153" y="45.015"/><use xlink:href="#m" x="258.699" y="253.088"/><use xlink:href="#n" x="152.153" y="345.903"/><use xlink:href="#o" x="354.396" y="387.069"/></svg>