<svg xmlns="http://www.w3.org/2000/svg" xmlns:xlink="http://www.w3.org/1999/xlink" width="309.096" height="330.336" style="background-color:#fff" viewBox="0 0 309.096 330.336"><defs><path id="b" d="M7.64-6.516H5.189v.172c.578.063.687.14.687.422 0 .14-.031.375-.11.625l-.452 1.625H2.469l.547-1.937c.14-.516.406-.703 1-.735v-.172h-2.72v.172c.61.047.767.14.767.422 0 .14-.032.375-.11.625L.734-.89c-.187.579-.25.625-.812.735V0h2.453v-.156c-.594-.078-.703-.156-.703-.438 0-.078 0-.156.016-.219l.671-2.437h2.829L4.547-.89c-.156.515-.36.656-1.016.734V0h2.735v-.156c-.641-.063-.782-.14-.782-.422 0-.094.016-.156.032-.235l1.312-4.796c.172-.578.25-.641.813-.735Zm0 0"/><path id="c" d="M6.313-6.516H1.359v.172c.625.047.782.14.782.407 0 .109-.063.453-.11.64L.797-.89c-.172.563-.25.625-.813.735V0h5.063l.61-1.61-.157-.077c-.469.625-.719.89-1.156 1.093-.36.172-1.047.266-1.797.266-.547 0-.797-.094-.797-.344 0-.11.11-.578.36-1.453.14-.437.218-.766.328-1.14.343.015.656.03.765.03.39-.015.672.047.781.141.047.047.079.14.079.313 0 .172-.032.297-.079.515l.204.047.671-2.312-.171-.032c-.375.844-.47.907-1.375.938-.126 0-.438.016-.797.031l.672-2.328c.046-.219.156-.266.718-.266 1.563 0 1.922.141 1.922.735 0 .125-.016.281-.031.453l.219.016Zm0 0"/><path id="d" d="M7.25-6.516H5.266v.172c.562.047.703.14.703.5 0 .125-.032.235-.094.438-.016.031-.016.078-.016.078L4.83-1.531 2.765-6.516h-1.61v.172c.469.032.672.157.86.547L.828-1.64C.453-.359.375-.234-.203-.156V0H1.78v-.156c-.515-.047-.703-.156-.703-.438 0-.125.031-.328.094-.531l1.125-4.203L4.594.156h.187l1.422-5.015c.375-1.297.422-1.344 1.047-1.485Zm0 0"/><path id="e" d="M7.203-6.516H4.984v.172c.125 0 .235.032.266.032.25.015.344.078.344.187 0 .234-.547.766-1.438 1.39L2.641-3.671l.53-1.937c.142-.5.423-.703 1-.735v-.172H1.454v.172c.625.047.766.14.766.422 0 .14-.031.375-.11.625L.891-.89C.703-.297.656-.25.063-.156V0h2.484v-.156c-.64-.078-.719-.14-.719-.438 0-.11.016-.187.078-.39l.063-.22.61-2.265L3.78-1.39c.25.407.39.75.39.938 0 .156-.14.234-.468.266-.047 0-.156.015-.281.03V0h2.734v-.156C5.531-.22 5.47-.25 5.188-.72L3.452-3.734l3-2.25c.281-.22.5-.328.75-.36Zm0 0"/><path id="f" d="M8.703-6.516H7.031L3.688-1.594 3.14-6.516H1.328v.172c.5.032.75.14.75.36 0 .078-.047.234-.11.406a3 3 0 0 0-.077.297.3.3 0 0 0-.032.125L.797-1.453C.484-.422.344-.22-.172-.156V0h1.969v-.156c-.516-.047-.703-.156-.703-.438 0-.11.031-.36.078-.531l1.187-4.312L2.953 0h.172l3.766-5.594L5.609-.906c-.171.531-.359.672-1.015.75V0h2.718v-.156c-.671-.063-.765-.125-.765-.438 0-.156.016-.297.11-.61L7.89-5.608c.172-.594.218-.657.812-.735Zm0 0"/><path id="g" d="M2.781.156c.766-.047 1.14-.14 1.703-.453C5.97-1.125 6.97-2.734 6.97-4.313c0-1.343-.953-2.328-2.282-2.328-.796 0-1.703.407-2.5 1.125-1 .938-1.593 2.141-1.593 3.313 0 .812.297 1.5.844 1.906.25.219.468.313.921.422-.906.797-1 .875-1.765 1.406l.094.157a2.25 2.25 0 0 1 1.14-.313c.203 0 .5.063.938.188.609.156 1.14.265 1.515.265.547 0 1.235-.266 1.75-.656.235-.188.375-.328.625-.688l-.14-.109c-.563.578-.97.766-1.688.766-.266 0-.469-.032-1.234-.22C3.078.798 2.609.704 2.547.72 2.516.734 2.5.734 2.5.734h-.25Zm1.86-6.468c.797 0 1.28.578 1.28 1.53 0 1.048-.468 2.516-1.109 3.438-.546.782-1.156 1.172-1.89 1.172-.813 0-1.281-.61-1.281-1.656 0-.938.5-2.422 1.093-3.297.563-.812 1.172-1.187 1.907-1.187m0 0"/><path id="h" d="M9.031-6.516H7.187v.172c.532.047.641.11.641.39 0 .157-.078.407-.203.673L5.765-1.61 5.36-5.625v-.14c0-.407.141-.532.672-.579v-.172H3.656v.172c.578.016.688.078.75.578l.094.688L2.781-1.61l-.437-4.047c-.016-.063-.016-.125-.016-.14 0-.391.125-.485.735-.548v-.172H.703v.172c.328.032.422.063.516.157.11.109.156.296.281 1.218l.61 5.14h.187l2.219-4.515h.046l.5 4.516h.204L8.28-5.625c.266-.516.375-.61.75-.719Zm0 0"/><path id="i" d="m6.5-4.64.375-1.985h-.219c-.078.172-.172.219-.375.219a2 2 0 0 1-.406-.063c-.453-.11-.844-.172-1.172-.172-2.125 0-4.047 2-4.047 4.22 0 1.53 1.078 2.593 2.61 2.593 1.015 0 1.812-.438 2.718-1.484l-.171-.141c-.891.89-1.47 1.187-2.297 1.187-1.11 0-1.735-.765-1.735-2.046 0-1.188.469-2.391 1.25-3.204.485-.484 1.11-.765 1.766-.765.922 0 1.422.547 1.516 1.61Zm0 0"/><path id="j" d="M6.313-6.516H1L.594-4.969l.172.032c.53-1.079.843-1.25 2.375-1.22L1.703-.89c-.156.516-.39.688-1.062.735V0h2.89v-.156c-.156-.016-.312-.031-.375-.031-.39-.032-.515-.125-.515-.422 0-.125.03-.25.125-.594L4.14-6.156h.547c.718 0 1.046.25 1.046.797 0 .14-.015.28-.03.453l.171.015Zm0 0"/><path id="k" d="m4.672-4.672.39-1.984h-.234c-.14.218-.219.265-.437.265-.125 0-.235-.03-.47-.109-.218-.094-.53-.14-.843-.14-1.031 0-1.765.687-1.765 1.671 0 .532.14.828.734 1.453.094.094.219.235.39.422.188.188.329.344.391.422.469.485.594.75.594 1.172 0 .75-.547 1.328-1.281 1.328-.828 0-1.453-.703-1.453-1.656 0-.078.015-.156.015-.219l-.187-.031L.172.156h.172c.078-.234.187-.328.39-.328.11 0 .25.031.516.125.453.172.719.219 1.031.219 1.14 0 2.016-.86 2.016-1.984 0-.657-.234-1.032-1.125-1.954-.906-.906-.985-1.046-.985-1.53 0-.626.422-1.016 1.094-1.016q.563 0 .89.375c.22.25.298.578.313 1.25Zm0 0"/><path id="l" d="M1.297-6.344c.61.047.766.14.766.407 0 .14-.032.39-.11.64L.734-.89c-.187.579-.25.625-.812.735V0h2.516c1.171 0 2.234-.312 3-.875.968-.703 1.546-1.797 1.546-2.953 0-1.64-1.14-2.688-2.921-2.688H1.297Zm1.828.422c.063-.219.203-.281.61-.281.562 0 1.062.125 1.374.36.5.359.766.984.766 1.78 0 1.079-.422 2.188-1.094 2.86-.593.61-1.406.906-2.437.906-.453 0-.656-.11-.656-.375 0-.125.062-.344.218-.937Zm0 0"/><path id="m" d="M5.625-.156c-.578-.047-.625-.14-.766-.86l-.937-5.64h-.25L.782-1.672C-.017-.344-.11-.234-.517-.156V0H1.36v-.156C.844-.203.766-.266.766-.516c0-.187.03-.265.203-.609L1.53-2.25h2.203l.188 1.297c.015.094.031.187.031.265 0 .375-.14.47-.781.532V0h2.453ZM1.75-2.61l1.484-2.594.438 2.594Zm0 0"/><path id="n" d="M1.453-6.344c.578.063.703.157.703.407 0 .14-.031.359-.156.796L.813-.89C.64-.297.563-.234 0-.156V0h2.438v-.156c-.626-.094-.672-.125-.672-.469 0-.11.015-.219.125-.578l.515-1.922c.25.063.516.078.922.078.813 0 1.485-.156 1.922-.469.484-.375.781-.921.781-1.515 0-.953-.75-1.485-2.11-1.485H1.454Zm1.75.407c.063-.204.188-.266.469-.266.39 0 .765.094.969.234.25.172.359.469.359.938 0 .656-.219 1.11-.656 1.375-.313.172-.703.25-1.328.25-.172 0-.25-.016-.516-.047Zm0 0"/><path id="o" d="M-.078 0h2.812c1.563 0 2.641-.812 2.641-2 0-.36-.125-.719-.344-.937-.203-.22-.39-.344-.922-.563.72-.172 1-.281 1.329-.562q.42-.375.421-.985c0-.937-.703-1.469-1.984-1.469H1.297v.172c.61.047.766.125.766.407 0 .14-.032.39-.11.64L.734-.89c-.187.579-.25.625-.812.735Zm2.453-3.297c.64 0 1.063.031 1.266.11.406.171.656.609.656 1.156 0 1.078-.734 1.734-1.953 1.734-.422 0-.64-.156-.64-.422 0-.125.124-.593.343-1.39.14-.453.203-.688.328-1.188m.75-2.64c.063-.22.172-.266.563-.266.796 0 1.171.328 1.171 1.062 0 .579-.25 1.016-.671 1.25-.344.204-.813.266-1.72.266Zm0 0"/><path id="p" d="M6.531-6.516H4.453v.172c.484.047.61.125.61.36 0 .125-.063.25-.204.406L3.422-3.922 2.828-5.39c-.11-.25-.14-.421-.14-.546 0-.25.156-.344.703-.407v-.172H.75v.172c.578.047.734.14.922.61l1.062 2.609c-.375.422-.703.813-.828.969-1.39 1.64-1.672 1.89-2.203 2V0h2.14v-.156c-.484 0-.64-.094-.64-.344 0-.14.078-.312.203-.469l1.5-1.719.672 1.657c.078.172.11.328.11.484 0 .281-.094.344-.75.39V0h2.718v-.156c-.703-.078-.797-.14-1.047-.735L3.594-3.469 5.28-5.406c.516-.578.813-.797 1.25-.938Zm0 0"/><path id="q" d="M6.438-6.516h-4.97v.172c.641.047.766.11.766.407 0 .14-.046.39-.109.64L.891-.89c-.172.594-.25.657-.813.735V0h2.516v-.156c-.578-.031-.766-.14-.766-.438 0-.078.031-.234.094-.453l.625-2.219c.36.016.578.032.797.032.39 0 .469 0 .547.046.156.079.218.204.218.407 0 .156-.015.281-.078.594l.172.046.766-2.328-.188-.062c-.437.906-.468.906-2.156.937l.672-2.328c.047-.203.187-.266.594-.266 1.687 0 2.047.141 2.047.75 0 .063 0 .11-.016.25-.016.047-.016.063-.016.188l.203.016Zm0 0"/><clipPath id="a"><path d="M0 3h309.098v311H0Zm0 0"/></clipPath></defs><path fill="none" stroke="#00f" stroke-miterlimit="10" stroke-width=".399" d="M83.102 127.07v-7.086h-7.086v7.086h7.086"/><path fill="#0f0" fill-opacity=".3" d="M83.102 33.527v72.516l71.035 52.695Zm0 0"/><path fill="red" fill-opacity=".3" d="M154.137 145.953v43.242l42.355 31.422Zm0 0"/><path fill="none" stroke="#000" stroke-linecap="round" stroke-linejoin="round" stroke-miterlimit="10" stroke-width=".797" d="M83.102 33.527 13.707 127.07h280.86ZM83.102 220.617l94.097-21.219 27.61 48.665Zm0 0"/><path fill="none" stroke="#000" stroke-miterlimit="10" stroke-width=".797" d="M209.156 127.07c0-53.96-43.742-97.707-97.707-97.707-53.96 0-97.707 43.746-97.707 97.707 0 53.965 43.746 97.711 97.707 97.711 53.965 0 97.707-43.746 97.707-97.71Zm0 0"/><path fill="none" stroke="#000" stroke-miterlimit="10" stroke-width=".797" d="M294.32 127.07C294.32 57.387 237.828.895 168.145.895 98.457.895 41.969 57.387 41.969 127.07c0 69.688 56.488 126.176 126.176 126.176 69.683 0 126.175-56.488 126.175-126.176Zm0 0"/><path fill="none" stroke="#000" stroke-miterlimit="10" stroke-width=".797" d="M204.914 252.777c0-35.96-29.152-65.117-65.117-65.117S74.68 216.816 74.68 252.777c0 35.965 29.152 65.118 65.117 65.118s65.117-29.153 65.117-65.118Zm0 0"/><path fill="none" stroke="#000" stroke-linecap="round" stroke-miterlimit="10" stroke-width=".797" d="m83.102 33.527 94.097 165.871M154.137 158.738l-42.688-31.668M154.137 158.738l14.008-31.668"/><path fill="none" stroke="#00b200" stroke-dasharray="2.98883 1.99255" stroke-linecap="round" stroke-miterlimit="10" stroke-width=".797" d="m83.102 220.617 211.464-93.547M13.707 127.07l211.461 93.547"/><path fill="none" stroke="#00f" stroke-dasharray="2.98883 1.99255" stroke-linecap="round" stroke-miterlimit="10" stroke-width=".797" d="M83.102 33.527v187.09M168.145 127.07l-14.008 62.125M154.137 145.953l14.008-18.883M154.137 189.195l42.355 31.422M83.102 106.043l28.347 21.027"/><g clip-path="url(#a)"><path fill="none" stroke="red" stroke-dasharray="2.98883 1.99255" stroke-miterlimit="10" stroke-width=".797" d="M298.086 158.738c0-79.504-64.45-143.949-143.95-143.949-79.503 0-143.952 64.445-143.952 143.95 0 79.503 64.449 143.952 143.953 143.952 79.5 0 143.949-64.449 143.949-143.953Zm0 0"/></g><path fill="none" stroke="red" stroke-dasharray="2.98883 1.99255" stroke-linecap="round" stroke-miterlimit="10" stroke-width=".797" d="M83.102 220.617h142.066"/><path fill="none" stroke="#00adef" stroke-dasharray="2.98883 1.99255" stroke-miterlimit="10" stroke-width=".797" d="M256.41 167.574c0-29.492-23.91-53.402-53.402-53.402s-53.403 23.91-53.403 53.402 23.91 53.403 53.403 53.403 53.402-23.91 53.402-53.403Zm0 0"/><path fill="none" stroke="#ec008c" stroke-dasharray="2.98883 1.99255" stroke-linecap="round" stroke-miterlimit="10" stroke-width=".797" d="m294.566 127.07-140.43 189.293M13.707 127.07l140.43 189.293M154.137 145.953v170.41"/><path fill="none" stroke="#00adef" stroke-dasharray="2.98883 1.99255" stroke-linecap="round" stroke-miterlimit="10" stroke-width=".797" d="m196.492 220.617-42.355 95.746M154.137 145.953l42.355 74.664"/><path fill="none" stroke="#ff7f00" stroke-dasharray="2.98883 1.99255" stroke-linecap="round" stroke-miterlimit="10" stroke-width=".797" d="m168.145 127.07 36.664 120.993"/><path stroke="#000" stroke-miterlimit="10" stroke-width=".399" d="M84.098 33.527a.995.995 0 1 0-1.99-.001.995.995 0 0 0 1.99.001ZM84.098 220.617a.995.995 0 1 0-1.99-.001.995.995 0 0 0 1.99.001ZM14.703 127.07a1 1 0 0 0-.996-.996c-.55 0-1 .45-1 .996a.999.999 0 0 0 1.996 0ZM295.563 127.07a1 1 0 0 0-.997-.996.995.995 0 1 0 .996.996ZM178.195 199.398a.995.995 0 1 0-1.99-.001.995.995 0 0 0 1.99.001ZM205.805 248.063c0-.551-.45-1-.996-1-.551 0-1 .449-1 1 0 .546.449.996 1 .996a1 1 0 0 0 .996-.996ZM155.133 145.953a.995.995 0 1 0-1.994-.002.995.995 0 0 0 1.994.002ZM112.445 127.07a1 1 0 0 0-.996-.996.995.995 0 1 0 .996.996ZM169.14 127.07a1 1 0 0 0-.995-.996.995.995 0 1 0 .996.996ZM155.133 158.738a.995.995 0 1 0-1.994-.002.995.995 0 0 0 1.994.002Zm0 0"/><path fill="#00b200" stroke="#004c00" stroke-miterlimit="10" stroke-width=".399" d="M155.133 189.195a.995.995 0 1 0-1.994-.002.995.995 0 0 0 1.994.002ZM226.164 220.617a.995.995 0 1 0-1.99-.001.995.995 0 0 0 1.99.001Zm0 0"/><path fill="#b4387d" stroke="#644552" stroke-miterlimit="10" stroke-width=".399" d="M155.133 316.363a.995.995 0 1 0-1.994-.002.995.995 0 0 0 1.994.002ZM197.488 220.617a.998.998 0 0 0-1.996 0 .999.999 0 0 0 1.996 0Zm0 0"/><path fill="#0000b2" stroke="#00004c" stroke-miterlimit="10" stroke-width=".399" d="M84.098 106.043a.995.995 0 1 0-1.99-.002.995.995 0 0 0 1.99.002Zm0 0"/><use xlink:href="#b" x="150.189" y="142.435"/><use xlink:href="#c" x="173.792" y="195.877"/><use xlink:href="#d" x="164.522" y="123.383"/><use xlink:href="#e" x="221.569" y="217.096"/><use xlink:href="#f" x="107.101" y="137.058"/><use xlink:href="#g" x="150.538" y="199.408"/><use xlink:href="#h" x="149.123" y="326.346"/><use xlink:href="#i" x="3.322" y="130.335"/><use xlink:href="#j" x="38.081" y="83.534"/><use xlink:href="#k" x="74.523" y="109.306"/><use xlink:href="#l" x="298.083" y="130.305"/><use xlink:href="#m" x="73.497" y="30.009"/><use xlink:href="#n" x="144.527" y="168.724"/><use xlink:href="#o" x="73.497" y="230.601"/><use xlink:href="#p" x="200.009" y="217.096"/><use xlink:href="#q" x="208.325" y="258.045"/></svg>