<svg xmlns="http://www.w3.org/2000/svg" xmlns:xlink="http://www.w3.org/1999/xlink" width="412.128" height="425.056" viewBox="0 0 309.096 318.792"><defs><path id="b" d="M5.625-.156c-.578-.047-.625-.14-.766-.86l-.937-5.64h-.25L.782-1.672C-.017-.344-.11-.234-.517-.156V0H1.36v-.156C.844-.203.766-.266.766-.516c0-.187.03-.265.203-.609L1.53-2.25h2.203l.188 1.297c.015.094.031.187.031.265 0 .375-.14.47-.781.532V0h2.453ZM1.75-2.61l1.484-2.594.438 2.594Zm0 0"/><path id="c" d="M7.64-6.516H5.189v.172c.578.063.687.14.687.422 0 .14-.031.375-.11.625l-.452 1.625H2.469l.547-1.937c.14-.516.406-.703 1-.735v-.172h-2.72v.172c.61.047.767.14.767.422 0 .14-.032.375-.11.625L.734-.89c-.187.579-.25.625-.812.735V0h2.453v-.156c-.594-.078-.703-.156-.703-.438 0-.078 0-.156.016-.219l.671-2.437h2.829L4.547-.89c-.156.515-.36.656-1.016.734V0h2.735v-.156c-.641-.063-.782-.14-.782-.422 0-.094.016-.156.032-.235l1.312-4.796c.172-.578.25-.641.813-.735Zm0 0"/><path id="d" d="M6.313-6.516H1.359v.172c.625.047.782.14.782.407 0 .109-.063.453-.11.64L.797-.89c-.172.563-.25.625-.813.735V0h5.063l.61-1.61-.157-.077c-.469.625-.719.89-1.156 1.093-.36.172-1.047.266-1.797.266-.547 0-.797-.094-.797-.344 0-.11.11-.578.36-1.453.14-.437.218-.766.328-1.14.343.015.656.03.765.03.39-.015.672.047.781.141.047.047.079.14.079.313 0 .172-.032.297-.079.515l.204.047.671-2.312-.171-.032c-.375.844-.47.907-1.375.938-.126 0-.438.016-.797.031l.672-2.328c.046-.219.156-.266.718-.266 1.563 0 1.922.141 1.922.735 0 .125-.016.281-.031.453l.219.016Zm0 0"/><path id="e" d="M6.313-6.516H1L.594-4.969l.172.032c.53-1.079.843-1.25 2.375-1.22L1.703-.89c-.156.516-.39.688-1.062.735V0h2.89v-.156c-.156-.016-.312-.031-.375-.031-.39-.032-.515-.125-.515-.422 0-.125.03-.25.125-.594L4.14-6.156h.547c.718 0 1.046.25 1.046.797 0 .14-.015.28-.03.453l.171.015Zm0 0"/><path id="h" d="m6.5-4.64.375-1.985h-.219c-.078.172-.172.219-.375.219a2 2 0 0 1-.406-.063c-.453-.11-.844-.172-1.172-.172-2.125 0-4.047 2-4.047 4.22 0 1.53 1.078 2.593 2.61 2.593 1.015 0 1.812-.438 2.718-1.484l-.171-.141c-.891.89-1.47 1.187-2.297 1.187-1.11 0-1.735-.765-1.735-2.046 0-1.188.469-2.391 1.25-3.204.485-.484 1.11-.765 1.766-.765.922 0 1.422.547 1.516 1.61Zm0 0"/><path id="j" d="M1.297-6.344c.61.047.766.14.766.407 0 .14-.032.39-.11.64L.734-.89c-.187.579-.25.625-.812.735V0h2.516c1.171 0 2.234-.312 3-.875.968-.703 1.546-1.797 1.546-2.953 0-1.64-1.14-2.688-2.921-2.688H1.297Zm1.828.422c.063-.219.203-.281.61-.281.562 0 1.062.125 1.374.36.5.359.766.984.766 1.78 0 1.079-.422 2.188-1.094 2.86-.593.61-1.406.906-2.437.906-.453 0-.656-.11-.656-.375 0-.125.062-.344.218-.937Zm0 0"/><path id="k" d="M1.453-6.344c.578.063.703.157.703.407 0 .14-.031.359-.156.796L.813-.89C.64-.297.563-.234 0-.156V0h2.438v-.156c-.626-.094-.672-.125-.672-.469 0-.11.015-.219.125-.578l.515-1.922c.25.063.516.078.922.078.813 0 1.485-.156 1.922-.469.484-.375.781-.921.781-1.515 0-.953-.75-1.485-2.11-1.485H1.454Zm1.75.407c.063-.204.188-.266.469-.266.39 0 .765.094.969.234.25.172.359.469.359.938 0 .656-.219 1.11-.656 1.375-.313.172-.703.25-1.328.25-.172 0-.25-.016-.516-.047Zm0 0"/><path id="l" d="M-.078 0h2.812c1.563 0 2.641-.812 2.641-2 0-.36-.125-.719-.344-.937-.203-.22-.39-.344-.922-.563.72-.172 1-.281 1.329-.562q.42-.375.421-.985c0-.937-.703-1.469-1.984-1.469H1.297v.172c.61.047.766.125.766.407 0 .14-.032.39-.11.64L.734-.89c-.187.579-.25.625-.812.735Zm2.453-3.297c.64 0 1.063.031 1.266.11.406.171.656.609.656 1.156 0 1.078-.734 1.734-1.953 1.734-.422 0-.64-.156-.64-.422 0-.125.124-.593.343-1.39.14-.453.203-.688.328-1.188m.75-2.64c.063-.22.172-.266.563-.266.796 0 1.171.328 1.171 1.062 0 .579-.25 1.016-.671 1.25-.344.204-.813.266-1.72.266Zm0 0"/><path id="m" d="m7.063-6.594-.157-.047c-.172.235-.343.344-.593.344-.11 0-.22-.031-.438-.11-.5-.155-.937-.234-1.344-.234-2.093 0-4.015 2-4.015 4.188 0 .672.297 1.375.765 1.86.5.5 1.235.765 2.094.765.875 0 1.594-.188 2.36-.61l.5-1.859c.156-.562.312-.687.968-.719v-.171H4.547v.171c.125 0 .25.032.281.032.328.03.5.125.5.297 0 .218-.062.5-.281 1.234-.219.719-.25.812-.375.922-.219.219-.594.344-1.047.344-1.281 0-2.016-.735-2.016-2.047 0-1.22.5-2.485 1.282-3.328a2.38 2.38 0 0 1 1.718-.735c.657 0 1.204.266 1.5.719.157.266.235.469.282.906l.172.031Zm0 0"/><path id="n" d="M8.703-6.516H7.031L3.688-1.594 3.14-6.516H1.328v.172c.5.032.75.14.75.36 0 .078-.047.234-.11.406a3 3 0 0 0-.077.297.3.3 0 0 0-.032.125L.797-1.453C.484-.422.344-.22-.172-.156V0h1.969v-.156c-.516-.047-.703-.156-.703-.438 0-.11.031-.36.078-.531l1.187-4.312L2.953 0h.172l3.766-5.594L5.609-.906c-.171.531-.359.672-1.015.75V0h2.718v-.156c-.671-.063-.765-.125-.765-.438 0-.156.016-.297.11-.61L7.89-5.608c.172-.594.218-.657.812-.735Zm0 0"/><path id="o" d="m4.672-4.672.39-1.984h-.234c-.14.218-.219.265-.437.265-.125 0-.235-.03-.47-.109-.218-.094-.53-.14-.843-.14-1.031 0-1.765.687-1.765 1.671 0 .532.14.828.734 1.453.094.094.219.235.39.422.188.188.329.344.391.422.469.485.594.75.594 1.172 0 .75-.547 1.328-1.281 1.328-.828 0-1.453-.703-1.453-1.656 0-.078.015-.156.015-.219l-.187-.031L.172.156h.172c.078-.234.187-.328.39-.328.11 0 .25.031.516.125.453.172.719.219 1.031.219 1.14 0 2.016-.86 2.016-1.984 0-.657-.234-1.032-1.125-1.954-.906-.906-.985-1.046-.985-1.53 0-.626.422-1.016 1.094-1.016q.563 0 .89.375c.22.25.298.578.313 1.25Zm0 0"/><path id="p" d="M6.438-6.516h-4.97v.172c.641.047.766.11.766.407 0 .14-.046.39-.109.64L.891-.89c-.172.594-.25.657-.813.735V0h2.516v-.156c-.578-.031-.766-.14-.766-.438 0-.078.031-.234.094-.453l.625-2.219c.36.016.578.032.797.032.39 0 .469 0 .547.046.156.079.218.204.218.407 0 .156-.015.281-.078.594l.172.046.766-2.328-.188-.062c-.437.906-.468.906-2.156.937l.672-2.328c.047-.203.187-.266.594-.266 1.687 0 2.047.141 2.047.75 0 .063 0 .11-.016.25-.016.047-.016.063-.016.188l.203.016Zm0 0"/><path id="q" d="M7.25-6.516H5.266v.172c.562.047.703.14.703.5 0 .125-.032.235-.094.438-.016.031-.016.078-.016.078L4.83-1.531 2.765-6.516h-1.61v.172c.469.032.672.157.86.547L.828-1.64C.453-.359.375-.234-.203-.156V0H1.78v-.156c-.515-.047-.703-.156-.703-.438 0-.125.031-.328.094-.531l1.125-4.203L4.594.156h.187l1.422-5.015c.375-1.297.422-1.344 1.047-1.485Zm0 0"/><path id="f" d="M4.156-.125c-.422-.031-.468-.094-.562-.625l-.688-4.172H2.72L.579-1.234C0-.266-.079-.172-.376-.125V0H1v-.125C.625-.156.563-.187.563-.375c0-.14.03-.203.156-.453l.422-.844h1.625l.14.969c0 .062.016.14.016.187 0 .282-.11.36-.578.391V0h1.812Zm-2.86-1.812 1.095-1.907.328 1.906Zm0 0"/><path id="g" d="m4.813-3.422.265-1.469h-.156c-.047.11-.125.157-.281.157a2 2 0 0 1-.297-.047 3.2 3.2 0 0 0-.86-.125c-1.578 0-3 1.484-3 3.11 0 1.14.797 1.921 1.922 1.921.766 0 1.36-.312 2.016-1.094l-.125-.094c-.656.641-1.094.86-1.688.86-.828 0-1.296-.563-1.296-1.516 0-.875.359-1.765.921-2.36.36-.359.829-.562 1.313-.562.672 0 1.062.391 1.125 1.188Zm0 0"/><path id="i" d="M.953-4.703c.469.047.578.11.578.312 0 .11-.031.282-.078.47L.531-.657c-.125.422-.172.469-.593.531V0h1.875c.859 0 1.64-.234 2.218-.64.703-.532 1.125-1.329 1.125-2.188 0-1.219-.828-1.985-2.14-1.985H.953Zm1.36.328c.046-.172.156-.219.453-.219.406 0 .78.094 1.015.266.36.266.563.734.563 1.312 0 .797-.313 1.625-.813 2.125-.437.454-1.031.672-1.797.672-.343 0-.484-.078-.484-.281 0-.094.047-.25.172-.687Zm0 0"/><clipPath id="a"><path d="M63 176h154v142.793H63Zm0 0"/></clipPath></defs><path fill="#fff" d="M0 0h309.098v318.793H0Zm0 0"/><path fill="none" stroke="#00f" stroke-miterlimit="10" stroke-width=".399" d="M83.102 127.074v-5.672h-5.668v5.672h5.668M154.137 127.074v5.668h5.668v-5.668h-5.668M188.836 80.3l-2.297 5.184 5.188 2.293 2.293-5.183-5.184-2.293M48.402 80.3l4.555 3.38 3.379-4.555-4.555-3.375-3.379 4.55"/><path fill="none" stroke="#000" stroke-linecap="round" stroke-linejoin="round" stroke-miterlimit="10" stroke-width=".797" d="m83.102 33.527-69.395 93.547h280.86ZM83.102 220.617l94.097-21.219 27.61 48.665Zm0 0"/><path fill="none" stroke="#000" stroke-miterlimit="10" stroke-width=".797" d="M209.156 127.074c0-53.965-43.742-97.71-97.707-97.71-53.96 0-97.707 43.745-97.707 97.71 0 53.961 43.746 97.707 97.707 97.707 53.965 0 97.707-43.746 97.707-97.707Zm0 0"/><path fill="none" stroke="#000" stroke-miterlimit="10" stroke-width=".797" d="M294.32 127.074C294.32 57.387 237.828.898 168.145.898 98.457.898 41.969 57.387 41.969 127.074c0 69.684 56.488 126.176 126.176 126.176 69.683 0 126.175-56.492 126.175-126.176Zm0 0"/><g clip-path="url(#a)"><path fill="none" stroke="#000" stroke-miterlimit="10" stroke-width=".797" d="M204.914 252.781c0-35.965-29.152-65.117-65.117-65.117S74.68 216.816 74.68 252.781c0 35.961 29.152 65.114 65.117 65.114s65.117-29.153 65.117-65.114Zm0 0"/></g><path fill="none" stroke="#000" stroke-linecap="round" stroke-miterlimit="10" stroke-width=".797" d="m83.102 33.527 94.097 165.871M154.137 158.738l-42.688-31.664M154.137 158.738l14.008-31.664"/><path fill="none" stroke="#00f" stroke-dasharray="2.98883 1.99255" stroke-linecap="round" stroke-miterlimit="10" stroke-width=".797" d="M83.102 33.527v187.09M154.137 127.074v31.664M188.836 80.3l-20.691 46.774M48.402 80.3l63.047 46.774"/><path fill="none" stroke="red" stroke-dasharray="2.98883 1.99255" stroke-linecap="round" stroke-miterlimit="10" stroke-width=".797" d="m13.707 127.074 163.492 72.324M83.102 220.617l-69.395-93.543M83.102 220.617l211.464-93.543M294.566 127.074 204.81 248.063"/><path fill="none" stroke="#0f0" stroke-dasharray="2.98883 1.99255" stroke-linecap="round" stroke-miterlimit="10" stroke-width=".797" d="m154.137 158.738-140.43-31.664M154.137 158.738l140.43-31.664"/><path stroke="#000" stroke-miterlimit="10" stroke-width=".399" d="M84.098 33.527a.995.995 0 1 0-1.99-.001.995.995 0 0 0 1.99.001ZM84.098 220.617a.995.995 0 1 0-1.99-.001.995.995 0 0 0 1.99.001ZM14.703 127.074a.998.998 0 0 0-1.996 0 .999.999 0 0 0 1.996 0ZM295.563 127.074a.995.995 0 1 0-1.991-.001.995.995 0 0 0 1.99.001ZM178.195 199.398a.995.995 0 1 0-1.99-.001.995.995 0 0 0 1.99.001ZM205.805 248.063a.998.998 0 0 0-1.996 0 .999.999 0 0 0 1.996 0ZM155.133 145.957a.995.995 0 1 0-1.994-.002.995.995 0 0 0 1.994.002ZM112.445 127.074a.995.995 0 1 0-1.99-.001.995.995 0 0 0 1.99.001ZM169.14 127.074a.995.995 0 1 0-1.99-.001.995.995 0 0 0 1.99.001ZM155.133 158.738a1 1 0 0 0-.996-.996.995.995 0 1 0 .996.996Zm0 0"/><path fill="#0000b2" stroke="#00004c" stroke-miterlimit="10" stroke-width=".399" d="M155.133 127.074a.995.995 0 1 0-1.994-.002.995.995 0 0 0 1.994.002ZM189.832 80.3a.998.998 0 0 0-1.996 0 .999.999 0 0 0 1.996 0ZM49.402 80.3a.999.999 0 0 0-1.996 0 .998.998 0 0 0 1.996 0ZM84.098 106.043a.995.995 0 1 0-1.99-.002.995.995 0 0 0 1.99.002ZM84.098 127.074a.995.995 0 1 0-1.99-.001.995.995 0 0 0 1.99.001Zm0 0"/><use xlink:href="#b" x="80.06" y="30.01"/><use xlink:href="#c" x="150.189" y="142.435"/><use xlink:href="#d" x="173.792" y="195.878"/><use xlink:href="#e" x="149.237" y="122.026"/><use xlink:href="#f" x="154.029" y="123.553"/><use xlink:href="#e" x="183.833" y="75.129"/><use xlink:href="#g" x="188.256" y="76.656"/><use xlink:href="#h" x="3.322" y="130.336"/><use xlink:href="#e" x="34.272" y="82.787"/><use xlink:href="#i" x="39.064" y="84.281"/><use xlink:href="#j" x="298.083" y="130.306"/><use xlink:href="#k" x="144.527" y="168.725"/><use xlink:href="#l" x="73.497" y="230.602"/><use xlink:href="#m" x="72.391" y="137.287"/><use xlink:href="#n" x="99.233" y="137.058"/><use xlink:href="#o" x="86.623" y="102.354"/><use xlink:href="#p" x="208.325" y="258.045"/><use xlink:href="#q" x="171.663" y="137.058"/></svg>