<svg xmlns="http://www.w3.org/2000/svg" xmlns:xlink="http://www.w3.org/1999/xlink" width="618.192" height="660.672" viewBox="0 0 463.644 495.504"><defs><path id="a" d="M8.422-.234c-.844-.078-.938-.203-1.125-1.297L5.89-9.984H5.5L1.172-2.516C-.016-.516-.172-.359-.766-.234V0h2.797v-.234c-.765-.078-.875-.157-.875-.532 0-.28.032-.421.297-.921l.844-1.688h3.297l.297 1.953c.015.14.03.266.03.39 0 .563-.218.704-1.171.798V0h3.672ZM2.609-3.906l2.25-3.89.657 3.89Zm0 0"/><path id="b" d="M11.453-9.75H7.766v.234c.875.11 1.047.22 1.047.641 0 .219-.063.563-.157.922L7.97-5.5H3.703l.813-2.906c.218-.766.609-1.047 1.5-1.11v-.234H1.938v.234c.937.094 1.156.204 1.156.641 0 .219-.063.563-.172.922l-1.828 6.61C.828-.485.719-.392-.125-.235V0h3.688v-.234C2.656-.36 2.5-.47 2.5-.891c0-.109.016-.234.047-.328l.984-3.656h4.25l-.968 3.531c-.235.782-.532 1-1.516 1.11V0h4.078v-.234c-.953-.094-1.156-.22-1.156-.625 0-.157.015-.25.047-.36l1.968-7.187c.25-.875.375-.953 1.22-1.11Zm0 0"/><path id="c" d="M9.469-9.75H2.047v.234c.922.094 1.156.204 1.156.61 0 .172-.094.687-.172.953l-1.844 6.61C.938-.5.829-.392-.016-.235V0h7.579l.921-2.422-.234-.125c-.703.969-1.094 1.36-1.734 1.656-.563.25-1.578.391-2.688.391-.844 0-1.203-.14-1.203-.5 0-.172.172-.86.547-2.187.187-.657.328-1.141.469-1.72.53.032.984.048 1.172.048.578-.016 1 .078 1.156.234.078.063.11.203.11.453 0 .266-.032.453-.11.781l.312.079 1.016-3.47-.281-.062c-.563 1.266-.703 1.36-2.063 1.422-.172 0-.656.016-1.172.031l.985-3.484c.093-.328.25-.39 1.093-.39 2.344 0 2.86.203 2.86 1.093 0 .188-.016.422-.031.672L9-7.469Zm0 0"/><path id="d" d="M9.453-9.75H1.516L.875-7.453l.281.062C1.938-9 2.422-9.266 4.703-9.234l-2.156 7.89C2.312-.547 1.953-.312.969-.234V0h4.328v-.234c-.25-.016-.469-.047-.563-.047-.593-.047-.78-.188-.78-.625 0-.203.046-.375.187-.89l2.078-7.438h.812c1.078 0 1.563.375 1.563 1.218 0 .188-.016.407-.047.672l.25.032Zm0 0"/><path id="g" d="M13.531-9.75h-2.765v.234c.812.079.968.188.968.594 0 .25-.109.61-.312 1l-2.781 5.5-.61-6-.015-.219c0-.609.218-.796 1.015-.875v-.234H5.484v.234c.86.032 1.016.141 1.125.86l.125 1.031-2.562 5.203-.656-6.062C3.5-8.563 3.5-8.656 3.5-8.687c0-.594.172-.72 1.078-.829v-.234H1.062v.234c.485.063.626.11.766.235.172.172.234.453.406 1.828L3.172.266h.281l3.313-6.782h.078l.75 6.782h.297l4.515-8.703c.406-.766.563-.891 1.125-1.079Zm0 0"/><path id="h" d="M4.172.234C5.312.172 5.89.016 6.719-.453c2.218-1.234 3.718-3.656 3.718-6.016 0-2.015-1.437-3.484-3.421-3.484-1.188 0-2.532.625-3.735 1.687-1.5 1.407-2.39 3.22-2.39 4.97 0 1.218.453 2.234 1.265 2.859.39.312.719.468 1.375.609C2.171 1.375 2.031 1.5.875 2.297l.156.234a3.36 3.36 0 0 1 1.719-.469c.297 0 .734.094 1.39.266.907.25 1.72.406 2.266.406.828 0 1.875-.39 2.625-.984.36-.266.563-.484.953-1.016L9.75.563c-.828.875-1.437 1.156-2.516 1.156-.39 0-.703-.063-1.843-.328-.782-.203-1.485-.328-1.563-.313-.062.016-.094.016-.094.016H3.36Zm2.781-9.687c1.188 0 1.922.86 1.922 2.281 0 1.578-.703 3.781-1.656 5.156C6.39-.844 5.469-.25 4.375-.25c-1.203 0-1.906-.922-1.906-2.484 0-1.422.734-3.641 1.64-4.938.829-1.219 1.75-1.781 2.844-1.781m0 0"/><path id="i" d="m9.734-6.953.563-2.969h-.313c-.125.25-.28.328-.578.328-.11 0-.297-.031-.61-.094-.671-.171-1.265-.265-1.75-.265-3.171 0-6.062 3-6.062 6.328 0 2.281 1.61 3.89 3.907 3.89 1.53 0 2.734-.656 4.078-2.218l-.266-.219C7.36-.844 6.5-.406 5.266-.406c-1.657 0-2.61-1.125-2.61-3.063 0-1.781.719-3.578 1.89-4.797.72-.734 1.657-1.14 2.641-1.14 1.375 0 2.141.797 2.282 2.422Zm0 0"/><path id="k" d="M1.938-9.516c.937.094 1.156.204 1.156.61 0 .234-.063.594-.172.953l-1.828 6.61C.828-.485.719-.392-.125-.235V0h3.781C5.406 0 7-.469 8.156-1.297 9.61-2.359 10.453-4 10.453-5.734c0-2.453-1.703-4.016-4.36-4.016H1.939Zm2.734.641c.094-.328.312-.437.922-.437.843 0 1.593.203 2.062.562.735.531 1.14 1.469 1.14 2.656 0 1.61-.624 3.282-1.64 4.297-.875.906-2.093 1.344-3.64 1.344-.688 0-.97-.156-.97-.547 0-.187.063-.531.329-1.422Zm0 0"/><path id="l" d="M2.188-9.516c.843.11 1.046.235 1.046.625 0 .22-.046.532-.25 1.204L1.22-1.344C.953-.454.844-.359 0-.234V0h3.656v-.234C2.72-.375 2.641-.422 2.641-.922c0-.187.03-.328.187-.875l.781-2.875c.375.094.766.11 1.375.11 1.235 0 2.235-.25 2.875-.704.75-.562 1.172-1.375 1.172-2.265 0-1.438-1.11-2.219-3.14-2.219H2.188Zm2.625.625c.093-.312.265-.421.687-.421.578 0 1.14.156 1.453.359.375.281.547.719.547 1.422 0 .968-.344 1.656-1 2.047-.469.25-1.047.375-1.969.375-.265 0-.375-.016-.781-.079Zm0 0"/><path id="m" d="M-.125 0h4.219c2.343 0 3.953-1.219 3.953-2.984 0-.563-.172-1.078-.5-1.407-.297-.343-.594-.53-1.375-.859 1.062-.25 1.484-.422 1.969-.844.422-.36.64-.86.64-1.468 0-1.422-1.062-2.188-2.984-2.188h-3.86v.234c.938.079 1.157.188 1.157.61 0 .234-.063.594-.172.953l-1.828 6.61C.828-.485.719-.392-.125-.235Zm3.688-4.937c.968 0 1.593.046 1.89.171.61.25.984.907.984 1.72 0 1.608-1.109 2.593-2.921 2.593-.625 0-.97-.219-.97-.625 0-.172.188-.89.532-2.094.188-.672.281-1.015.485-1.765m1.109-3.954c.094-.328.266-.421.86-.421 1.187 0 1.75.515 1.75 1.624 0 .844-.36 1.5-1 1.86-.516.297-1.235.406-2.579.406Zm0 0"/><path id="n" d="m10.578-9.89-.219-.063c-.265.36-.515.515-.906.515-.14 0-.328-.046-.656-.156-.75-.234-1.39-.36-2-.36-3.156 0-6.016 3-6.016 6.282 0 1.016.422 2.063 1.125 2.781.766.75 1.86 1.157 3.157 1.157 1.312 0 2.39-.282 3.546-.922l.72-2.797c.25-.828.483-1.016 1.452-1.078v-.235H6.812v.235c.172.015.375.047.438.047.484.046.734.203.734.468 0 .329-.093.75-.421 1.844C7.234-1.094 7.188-.969 7-.797c-.328.328-.89.516-1.562.516-1.922 0-3.016-1.11-3.016-3.063 0-1.844.734-3.734 1.906-4.984a3.6 3.6 0 0 1 2.594-1.11c.969 0 1.781.407 2.234 1.094.235.375.344.703.422 1.36l.266.03Zm0 0"/><path id="o" d="M13.047-9.75h-2.5L5.53-2.39l-.828-7.36H2v.234c.75.047 1.11.204 1.11.547 0 .125-.063.344-.157.625-.031.047-.062.219-.125.438-.015.047-.031.11-.047.172L1.187-2.187C.734-.625.517-.328-.266-.234V0h2.954v-.234c-.766-.063-1.063-.25-1.063-.657 0-.156.063-.546.14-.796l1.766-6.47L4.437 0h.25l5.641-8.375-1.937 7.016c-.235.797-.532 1.015-1.5 1.125V0h4.078v-.234C9.953-.328 9.813-.422 9.813-.875c0-.266.03-.453.171-.922l1.829-6.61c.265-.905.343-.968 1.234-1.109Zm0 0"/><path id="p" d="m6.984-6.984.61-2.985H7.25c-.219.313-.344.39-.672.39-.187 0-.344-.046-.687-.155-.328-.141-.813-.22-1.282-.22-1.546 0-2.656 1.032-2.656 2.5 0 .813.234 1.235 1.125 2.188.14.141.328.344.578.641.266.281.485.5.594.625.688.734.89 1.11.89 1.766C5.14-1.125 4.298-.25 3.22-.25c-1.25 0-2.188-1.062-2.188-2.484 0-.125.016-.235.032-.344L.766-3.11.25.219h.266c.109-.344.28-.485.578-.485.156 0 .39.063.765.188.688.25 1.094.344 1.563.344 1.719 0 3.016-1.297 3.016-2.985 0-.969-.344-1.547-1.688-2.906S3.266-7.203 3.266-7.937c0-.938.64-1.516 1.656-1.516.547 0 1.016.187 1.328.547.328.375.438.89.469 1.875Zm0 0"/><path id="q" d="M9.64-9.75H2.204v.234c.969.094 1.14.188 1.14.61 0 .234-.062.594-.155.953l-1.844 6.61C1.078-.454.969-.36.125-.235V0h3.766v-.234C3.016-.281 2.75-.454 2.75-.891c0-.125.047-.343.14-.671l.922-3.344c.547.031.876.047 1.204.047.578 0 .687.015.828.078.218.125.328.312.328.61 0 .25-.031.421-.125.89l.25.062 1.14-3.484-.265-.078c-.672 1.343-.719 1.36-3.234 1.39l.984-3.484c.094-.297.312-.39.922-.39 2.5 0 3.047.203 3.047 1.124 0 .094 0 .157-.016.36-.016.093-.016.11-.031.281l.312.031Zm0 0"/><path id="r" d="M10.86-9.75H7.89v.234c.844.079 1.048.22 1.048.766 0 .172-.032.36-.141.656-.016.047-.031.11-.031.11L7.25-2.297 4.14-9.75H1.735v.234c.704.063 1.016.25 1.282.844L1.234-2.453C.672-.531.547-.36-.296-.234V0h2.952v-.234C1.891-.297 1.61-.47 1.61-.875c0-.203.047-.5.141-.812l1.703-6.297L6.891.219h.265l2.157-7.516c.546-1.922.609-2.016 1.546-2.219Zm0 0"/><path id="e" d="M6.234-.172c-.625-.062-.687-.156-.828-.953L4.36-7.391h-.28L.858-1.859C-.016-.391-.125-.266-.562-.172V0H1.5v-.172C.938-.234.86-.282.86-.562c0-.22.03-.313.218-.688l.625-1.25h2.438l.218 1.453c.016.094.016.188.016.281 0 .422-.156.516-.86.594V0h2.72ZM1.938-2.89l1.656-2.89.484 2.89Zm0 0"/><path id="f" d="m7.219-5.14.406-2.204h-.234c-.094.172-.203.235-.422.235-.094 0-.219-.016-.453-.063-.5-.125-.938-.203-1.297-.203-2.36 0-4.485 2.234-4.485 4.688C.734-1 1.922.203 3.625.203c1.125 0 2.016-.484 3.016-1.656l-.188-.156c-1 .984-1.64 1.312-2.547 1.312-1.234 0-1.937-.844-1.937-2.265 0-1.329.531-2.657 1.39-3.563.532-.531 1.235-.844 1.97-.844 1.015 0 1.577.594 1.687 1.797Zm0 0"/><path id="j" d="M1.438-7.047c.687.063.859.156.859.453 0 .172-.047.438-.125.703L.812-1c-.203.64-.28.719-.906.828V0h2.797C4 0 5.188-.344 6.047-.969c1.062-.781 1.703-2 1.703-3.281 0-1.812-1.266-2.969-3.234-2.969H1.438Zm2.03.469c.063-.234.22-.313.673-.313.625 0 1.187.141 1.53.407.548.406.845 1.093.845 1.968 0 1.204-.47 2.438-1.22 3.188-.655.672-1.546 1-2.702 1-.5 0-.719-.125-.719-.406 0-.157.063-.391.25-1.063Zm0 0"/></defs><path fill="none" stroke="#00f" stroke-miterlimit="10" stroke-width=".5985" d="M124.656 190.61v-8.505h-8.504v8.504h8.504M283.25 120.45l-3.437 7.777 7.773 3.441 3.441-7.777-7.777-3.442M72.605 120.45l6.829 5.066 5.07-6.829-6.832-5.066-5.067 6.828"/><path fill="none" stroke="red" stroke-miterlimit="10" stroke-width=".5985" d="M231.203 190.61v8.503h8.504v-8.504h-8.504"/><path fill="none" stroke="#000" stroke-linecap="round" stroke-linejoin="round" stroke-miterlimit="10" stroke-width="1.1955" d="M124.656 50.293 20.56 190.609h421.289ZM124.656 330.926l141.145-31.828 41.41 72.992Zm0 0"/><path fill="none" stroke="#000" stroke-miterlimit="10" stroke-width="1.1955" d="M313.738 190.61c0-80.946-65.617-146.563-146.562-146.563S20.613 109.664 20.613 190.609 86.23 337.172 167.176 337.172s146.562-65.617 146.562-146.563Zm0 0"/><path fill="none" stroke="#000" stroke-miterlimit="10" stroke-width="1.1955" d="M441.48 190.61c0-104.532-84.734-189.266-189.265-189.266-104.528 0-189.262 84.734-189.262 189.265 0 104.528 84.734 189.262 189.262 189.262 104.531 0 189.265-84.734 189.265-189.262Zm0 0"/><path fill="none" stroke="#000" stroke-miterlimit="10" stroke-width="1.1955" d="M307.371 379.168c0-53.945-43.73-97.676-97.676-97.676-53.945 0-97.675 43.73-97.675 97.676 0 53.945 43.73 97.676 97.675 97.676s97.676-43.73 97.676-97.676Zm0 0"/><path fill="none" stroke="#000" stroke-linecap="round" stroke-miterlimit="10" stroke-width="1.1955" d="m124.656 50.293 141.145 248.805M231.203 238.11l-64.027-47.5M231.203 238.11l21.012-47.5"/><path fill="none" stroke="#00f" stroke-dasharray="4.483245 2.9888250000000003" stroke-linecap="round" stroke-miterlimit="10" stroke-width="1.1955" d="M124.656 50.293v280.633M283.25 120.45l-31.035 70.16M72.605 120.45l94.57 70.16"/><path fill="none" stroke="red" stroke-dasharray="4.483245 2.9888250000000003" stroke-linecap="round" stroke-miterlimit="10" stroke-width="1.1955" d="M20.559 190.61 265.8 299.097M124.656 330.926 20.56 190.609M124.656 330.926l317.192-140.317M441.848 190.61 307.21 372.09M124.656 330.926l106.547 143.617M231.203 474.543l76.008-102.453M231.203 190.61v283.933"/><path stroke="#000" stroke-miterlimit="10" stroke-width=".5985" d="M126.148 50.293a1.494 1.494 0 1 0-2.99-.005 1.494 1.494 0 0 0 2.99.005ZM126.148 330.926a1.494 1.494 0 1 0-2.99-.005 1.494 1.494 0 0 0 2.99.005ZM22.05 190.61a1.494 1.494 0 1 0-2.99-.005 1.494 1.494 0 0 0 2.99.004ZM443.344 190.61a1.493 1.493 0 1 0-2.988 0c0 .824.667 1.492 1.492 1.492.824 0 1.496-.668 1.496-1.493ZM267.297 299.098a1.496 1.496 0 0 0-2.992 0 1.495 1.495 0 0 0 2.992 0ZM308.703 372.09c0-.824-.668-1.492-1.492-1.492a1.495 1.495 0 1 0 0 2.988c.824 0 1.492-.668 1.492-1.496ZM232.695 218.934c0-.829-.668-1.497-1.492-1.497s-1.496.668-1.496 1.497a1.495 1.495 0 0 0 2.988 0ZM168.668 190.61c0-.829-.668-1.497-1.492-1.497s-1.496.668-1.496 1.496a1.495 1.495 0 0 0 2.988 0ZM253.71 190.61a1.493 1.493 0 1 0-2.988 0 1.495 1.495 0 0 0 2.988 0ZM232.695 238.11c0-.829-.668-1.497-1.492-1.497s-1.496.668-1.496 1.496a1.495 1.495 0 0 0 2.988 0Zm0 0"/><path fill="#0000b2" stroke="#00004c" stroke-miterlimit="10" stroke-width=".5985" d="M232.695 190.61c0-.829-.668-1.497-1.492-1.497s-1.496.668-1.496 1.496a1.495 1.495 0 0 0 2.988 0ZM284.746 120.45c0-.825-.668-1.493-1.496-1.493-.824 0-1.492.668-1.492 1.492a1.495 1.495 0 1 0 2.988 0ZM74.102 120.45a1.495 1.495 0 0 0-2.989 0c0 .823.668 1.495 1.492 1.495.825 0 1.497-.672 1.497-1.496ZM126.148 159.063c0-.825-.668-1.493-1.492-1.493-.828 0-1.496.668-1.496 1.493 0 .824.668 1.496 1.496 1.496.824 0 1.492-.672 1.492-1.496ZM126.148 190.61a1.494 1.494 0 1 0-2.99-.005 1.494 1.494 0 0 0 2.99.004Zm0 0"/><path fill="#b20000" stroke="#4c0000" stroke-miterlimit="10" stroke-width=".5985" d="M232.695 283.79c0-.825-.668-1.493-1.492-1.493a1.495 1.495 0 1 0 1.492 1.492ZM232.695 474.543c0-.824-.668-1.492-1.492-1.492a1.495 1.495 0 1 0 1.492 1.492Zm0 0"/><use xlink:href="#a" x="120.09" y="45.014"/><use xlink:href="#b" x="225.284" y="213.653"/><use xlink:href="#c" x="260.688" y="293.815"/><use xlink:href="#d" x="223.856" y="183.039"/><use xlink:href="#e" x="231.043" y="185.329"/><use xlink:href="#d" x="275.75" y="112.694"/><use xlink:href="#f" x="282.384" y="114.984"/><use xlink:href="#g" x="223.685" y="489.519"/><use xlink:href="#h" x="225.807" y="299.112"/><use xlink:href="#i" x="4.983" y="195.502"/><use xlink:href="#d" x="51.408" y="124.18"/><use xlink:href="#j" x="58.596" y="126.421"/><use xlink:href="#k" x="447.125" y="195.458"/><use xlink:href="#l" x="216.791" y="253.086"/><use xlink:href="#m" x="110.246" y="345.901"/><use xlink:href="#n" x="108.587" y="205.93"/><use xlink:href="#o" x="148.85" y="205.587"/><use xlink:href="#p" x="129.935" y="153.531"/><use xlink:href="#q" x="312.488" y="387.067"/><use xlink:href="#r" x="257.495" y="205.587"/></svg>