<svg xmlns="http://www.w3.org/2000/svg" xmlns:xlink="http://www.w3.org/1999/xlink" width="674.014" height="554.458" viewBox="0 0 505.51 415.844"><defs><path id="c" d="M9.469-9.75H2.047v.234c.922.094 1.156.204 1.156.61 0 .172-.094.687-.172.953l-1.844 6.61C.938-.5.829-.392-.016-.235V0h7.579l.921-2.422-.234-.125c-.703.969-1.094 1.36-1.734 1.656-.563.25-1.578.391-2.688.391-.844 0-1.203-.14-1.203-.5 0-.172.172-.86.547-2.187.187-.657.328-1.141.469-1.72.53.032.984.048 1.172.048.578-.016 1 .078 1.156.234.078.063.11.203.11.453 0 .266-.032.453-.11.781l.312.079 1.016-3.47-.281-.062c-.563 1.266-.703 1.36-2.063 1.422-.172 0-.656.016-1.172.031l.985-3.484c.093-.328.25-.39 1.093-.39 2.344 0 2.86.203 2.86 1.093 0 .188-.016.422-.031.672L9-7.469Zm0 0"/><path id="d" d="M11.453-9.75H7.766v.234c.875.11 1.047.22 1.047.641 0 .219-.063.563-.157.922L7.97-5.5H3.703l.813-2.906c.218-.766.609-1.047 1.5-1.11v-.234H1.938v.234c.937.094 1.156.204 1.156.641 0 .219-.063.563-.172.922l-1.828 6.61C.828-.485.719-.392-.125-.235V0h3.688v-.234C2.656-.36 2.5-.47 2.5-.891c0-.109.016-.234.047-.328l.984-3.656h4.25l-.968 3.531c-.235.782-.532 1-1.516 1.11V0h4.078v-.234c-.953-.094-1.156-.22-1.156-.625 0-.157.015-.25.047-.36l1.968-7.187c.25-.875.375-.953 1.22-1.11Zm0 0"/><path id="e" d="M9.781-9.75h-3.11v.234c.735.094.923.188.923.532 0 .203-.094.375-.297.625L5.125-5.875 4.25-8.062c-.172-.391-.234-.641-.234-.844 0-.375.234-.5 1.062-.61v-.234H1.141v.234c.859.079 1.078.22 1.375.907l1.578 3.937c-.547.625-1.047 1.203-1.235 1.453C.781-.78.36-.406-.437-.234V0h3.203v-.234c-.72 0-.97-.141-.97-.516 0-.219.11-.469.313-.703l2.25-2.563 1 2.47c.11.265.172.5.172.718 0 .437-.156.516-1.14.594V0h4.078v-.234c-1.047-.125-1.172-.22-1.547-1.11L5.39-5.204l2.53-2.89c.766-.875 1.22-1.219 1.86-1.422Zm0 0"/><path id="f" d="M8.422-.234c-.844-.078-.938-.203-1.125-1.297L5.89-9.984H5.5L1.172-2.516C-.016-.516-.172-.359-.766-.234V0h2.797v-.234c-.765-.078-.875-.157-.875-.532 0-.28.032-.421.297-.921l.844-1.688h3.297l.297 1.953c.015.14.03.266.03.39 0 .563-.218.704-1.171.798V0h3.672ZM2.609-3.906l2.25-3.89.657 3.89Zm0 0"/><path id="g" d="M13.047-9.75h-2.5L5.53-2.39l-.828-7.36H2v.234c.75.047 1.11.204 1.11.547 0 .125-.063.344-.157.625-.031.047-.062.219-.125.438-.015.047-.031.11-.047.172L1.187-2.187C.734-.625.517-.328-.266-.234V0h2.954v-.234c-.766-.063-1.063-.25-1.063-.657 0-.156.063-.546.14-.796l1.766-6.47L4.437 0h.25l5.641-8.375-1.937 7.016c-.235.797-.532 1.015-1.5 1.125V0h4.078v-.234C9.953-.328 9.813-.422 9.813-.875c0-.266.03-.453.171-.922l1.829-6.61c.265-.905.343-.968 1.234-1.109Zm0 0"/><path id="h" d="M-.125 0h4.219c2.343 0 3.953-1.219 3.953-2.984 0-.563-.172-1.078-.5-1.407-.297-.343-.594-.53-1.375-.859 1.062-.25 1.484-.422 1.969-.844.422-.36.64-.86.64-1.468 0-1.422-1.062-2.188-2.984-2.188h-3.86v.234c.938.079 1.157.188 1.157.61 0 .234-.063.594-.172.953l-1.828 6.61C.828-.485.719-.392-.125-.235Zm3.688-4.937c.968 0 1.593.046 1.89.171.61.25.984.907.984 1.72 0 1.608-1.109 2.593-2.921 2.593-.625 0-.97-.219-.97-.625 0-.172.188-.89.532-2.094.188-.672.281-1.015.485-1.765m1.109-3.954c.094-.328.266-.421.86-.421 1.187 0 1.75.515 1.75 1.624 0 .844-.36 1.5-1 1.86-.516.297-1.235.406-2.579.406Zm0 0"/><path id="i" d="M7.078-9.953c-1.25 0-2.594.61-3.797 1.687-1.5 1.391-2.39 3.22-2.39 4.97C.89-1.204 2.25.265 4.156.265c3.11 0 6.125-3.141 6.282-6.516.109-2.094-1.36-3.703-3.36-3.703m-.125.5c1.172 0 1.922.86 1.922 2.265 0 1.61-.703 3.797-1.672 5.204C6.375-.812 5.453-.22 4.406-.22c-1.25 0-1.937-.922-1.937-2.531 0-1.406.75-3.625 1.64-4.922.829-1.219 1.75-1.781 2.844-1.781m0 0"/><path id="j" d="M2.188-9.516c.843.11 1.046.235 1.046.625 0 .22-.046.532-.25 1.204L1.22-1.344C.953-.454.844-.359 0-.234V0h3.656v-.234C2.72-.375 2.641-.422 2.641-.922c0-.187.03-.328.187-.875l.781-2.875c.375.094.766.11 1.375.11 1.235 0 2.235-.25 2.875-.704.75-.562 1.172-1.375 1.172-2.265 0-1.438-1.11-2.219-3.14-2.219H2.188Zm2.625.625c.093-.312.265-.421.687-.421.578 0 1.14.156 1.453.359.375.281.547.719.547 1.422 0 .968-.344 1.656-1 2.047-.469.25-1.047.375-1.969.375-.265 0-.375-.016-.781-.079Zm0 0"/><path id="k" d="M10.86-9.75H7.89v.234c.844.079 1.048.22 1.048.766 0 .172-.032.36-.141.656-.016.047-.031.11-.031.11L7.25-2.297 4.14-9.75H1.735v.234c.704.063 1.016.25 1.282.844L1.234-2.453C.672-.531.547-.36-.296-.234V0h2.952v-.234C1.891-.297 1.61-.47 1.61-.875c0-.203.047-.5.141-.812l1.703-6.297L6.891.219h.265l2.157-7.516c.546-1.922.609-2.016 1.546-2.219Zm0 0"/><path id="l" d="M9.64-9.75H2.204v.234c.969.094 1.14.188 1.14.61 0 .234-.062.594-.155.953l-1.844 6.61C1.078-.454.969-.36.125-.235V0h3.766v-.234C3.016-.281 2.75-.454 2.75-.891c0-.125.047-.343.14-.671l.922-3.344c.547.031.876.047 1.204.047.578 0 .687.015.828.078.218.125.328.312.328.61 0 .25-.031.421-.125.89l.25.062 1.14-3.484-.265-.078c-.672 1.343-.719 1.36-3.234 1.39l.984-3.484c.094-.297.312-.39.922-.39 2.5 0 3.047.203 3.047 1.124 0 .094 0 .157-.016.36-.016.093-.016.11-.031.281l.312.031Zm0 0"/><clipPath id="a"><path d="M94 0h411.512v412H94Zm0 0"/></clipPath><clipPath id="b"><path d="M149 279h153v136.844H149Zm0 0"/></clipPath></defs><path fill="none" stroke="#00b200" stroke-miterlimit="10" stroke-width=".5985" d="M225.793 197.871v8.504h8.504v-8.504h-8.504M258.215 345.559l8.125-2.504 2.504 8.125-8.125 2.504-2.504-8.125"/><path fill="none" stroke="#000" stroke-linecap="round" stroke-linejoin="round" stroke-miterlimit="10" stroke-width="1.1955" d="m169.453 57.55-25.512 140.321h163.704ZM252.953 328.488 143.941 197.871h163.704Zm0 0"/><path fill="none" stroke="#000" stroke-linecap="round" stroke-linejoin="round" stroke-miterlimit="10" stroke-width="1.1955" d="m169.453 338.187 74.563-38.707 28.398 92.153Zm0 0"/><path fill="none" stroke="#000" stroke-miterlimit="10" stroke-width="1.1955" d="M286.535 197.871c0-78.754-63.84-142.598-142.594-142.598S1.348 119.117 1.348 197.871s63.84 142.594 142.593 142.594c78.754 0 142.594-63.84 142.594-142.594Zm0 0"/><g clip-path="url(#a)"><path fill="none" stroke="#000" stroke-miterlimit="10" stroke-width="1.1955" d="M504.168 197.871c0-108.539-87.984-196.527-196.523-196.527-108.54 0-196.524 87.988-196.524 196.527 0 108.535 87.984 196.524 196.524 196.524 108.539 0 196.523-87.989 196.523-196.524Zm0 0"/></g><g clip-path="url(#b)"><path fill="none" stroke="#000" stroke-miterlimit="10" stroke-width="1.1955" d="M284.742 355.55c0-32.558-26.39-58.948-58.949-58.948s-58.95 26.39-58.95 58.949c0 32.554 26.391 58.949 58.95 58.949s58.95-26.395 58.95-58.95Zm0 0"/></g><path fill="none" stroke="#000" stroke-linecap="round" stroke-miterlimit="10" stroke-width="1.1955" d="m169.453 57.55 102.961 334.083"/><path fill="none" stroke="red" stroke-dasharray="4.483245 2.9888250000000003" stroke-linecap="round" stroke-miterlimit="10" stroke-width="1.1955" d="m307.645 197.871-35.23 193.762M143.941 197.871l138.192 140.316"/><path fill="none" stroke="#00adef" stroke-dasharray="4.483245 2.9888250000000003" stroke-linecap="round" stroke-miterlimit="10" stroke-width="1.1955" d="M169.453 57.55v280.637"/><path fill="none" stroke="#00f" stroke-dasharray="4.483245 2.9888250000000003" stroke-linecap="round" stroke-miterlimit="10" stroke-width="1.1955" d="m169.453 338.187-25.512-140.316M169.453 338.187l138.192-140.316"/><path fill="none" stroke="#ff7f00" stroke-dasharray="4.483245 2.9888250000000003" stroke-linecap="round" stroke-miterlimit="10" stroke-width="1.1955" d="M169.453 338.187h112.68"/><path fill="none" stroke="#ec008c" stroke-dasharray="4.483245 2.9888250000000003" stroke-miterlimit="10" stroke-width="1.1955" d="M325.773 140.273c0-55.214-44.761-99.976-99.98-99.976s-99.98 44.762-99.98 99.976c0 55.22 44.761 99.98 99.98 99.98s99.98-44.76 99.98-99.98Zm0 0"/><path fill="none" stroke="#00b200" stroke-dasharray="4.483245 2.9888250000000003" stroke-linecap="round" stroke-miterlimit="10" stroke-width="1.1955" d="M252.953 243.512v84.976M225.793 240.36V197.87M282.133 338.187l-23.918 7.372"/><path stroke="#000" stroke-miterlimit="10" stroke-width=".5985" d="M170.95 57.55a1.495 1.495 0 0 0-2.99 0c0 .829.669 1.497 1.493 1.497s1.496-.668 1.496-1.496ZM170.95 338.187c0-.828-.673-1.496-1.497-1.496s-1.492.668-1.492 1.496c0 .825.668 1.493 1.492 1.493s1.496-.668 1.496-1.493ZM245.508 299.48c0-.824-.668-1.492-1.492-1.492a1.494 1.494 0 1 0 1.492 1.492ZM273.91 391.633a1.495 1.495 0 1 0-1.496 1.496c.824 0 1.496-.672 1.496-1.496ZM254.45 243.512c0-.824-.669-1.492-1.497-1.492-.824 0-1.492.668-1.492 1.492a1.495 1.495 0 1 0 2.988 0ZM145.437 197.871a1.496 1.496 0 0 0-2.992 0 1.495 1.495 0 0 0 2.992 0ZM309.14 197.871a1.496 1.496 0 0 0-2.992 0 1.495 1.495 0 0 0 2.993 0ZM254.45 328.488c0-.824-.669-1.492-1.497-1.492-.824 0-1.492.668-1.492 1.492a1.494 1.494 0 1 0 2.988 0Zm0 0"/><path fill="#b20000" stroke="#4c0000" stroke-miterlimit="10" stroke-width=".5985" d="M283.625 338.187c0-.828-.668-1.496-1.492-1.496s-1.496.668-1.496 1.496a1.495 1.495 0 0 0 2.988 0ZM227.29 240.36a1.496 1.496 0 0 0-2.993 0 1.495 1.495 0 0 0 2.992 0Zm0 0"/><use xlink:href="#c" x="238.902" y="294.201"/><use xlink:href="#d" x="247.035" y="238.232"/><use xlink:href="#e" x="287.409" y="343.034"/><use xlink:href="#f" x="155.043" y="52.275"/><use xlink:href="#g" x="125.616" y="212.847"/><use xlink:href="#h" x="155.043" y="353.163"/><use xlink:href="#i" x="209.722" y="255.679"/><use xlink:href="#j" x="238.542" y="343.466"/><use xlink:href="#k" x="312.921" y="212.847"/><use xlink:href="#l" x="277.692" y="406.608"/></svg>