<svg xmlns="http://www.w3.org/2000/svg" xmlns:xlink="http://www.w3.org/1999/xlink" width="420.702" height="286.64" viewBox="0 0 315.526 214.98"><defs><path id="c" d="M8.422-.234c-.844-.078-.938-.203-1.125-1.297L5.89-9.984H5.5L1.172-2.516C-.016-.516-.172-.359-.766-.234V0h2.797v-.234c-.765-.078-.875-.157-.875-.532 0-.28.032-.421.297-.921l.844-1.688h3.297l.297 1.953c.015.14.03.266.03.39 0 .563-.218.704-1.171.798V0h3.672ZM2.609-3.906l2.25-3.89.657 3.89Zm0 0"/><path id="d" d="M-.125 0h4.219c2.343 0 3.953-1.219 3.953-2.984 0-.563-.172-1.078-.5-1.407-.297-.343-.594-.53-1.375-.859 1.062-.25 1.484-.422 1.969-.844.422-.36.64-.86.64-1.468 0-1.422-1.062-2.188-2.984-2.188h-3.86v.234c.938.079 1.157.188 1.157.61 0 .234-.063.594-.172.953l-1.828 6.61C.828-.485.719-.392-.125-.235Zm3.688-4.937c.968 0 1.593.046 1.89.171.61.25.984.907.984 1.72 0 1.608-1.109 2.593-2.921 2.593-.625 0-.97-.219-.97-.625 0-.172.188-.89.532-2.094.188-.672.281-1.015.485-1.765m1.109-3.954c.094-.328.266-.421.86-.421 1.187 0 1.75.515 1.75 1.624 0 .844-.36 1.5-1 1.86-.516.297-1.235.406-2.579.406Zm0 0"/><path id="e" d="M9.469-9.75H2.047v.234c.922.094 1.156.204 1.156.61 0 .172-.094.687-.172.953l-1.844 6.61C.938-.5.829-.392-.016-.235V0h7.579l.921-2.422-.234-.125c-.703.969-1.094 1.36-1.734 1.656-.563.25-1.578.391-2.688.391-.844 0-1.203-.14-1.203-.5 0-.172.172-.86.547-2.187.187-.657.328-1.141.469-1.72.53.032.984.048 1.172.048.578-.016 1 .078 1.156.234.078.063.11.203.11.453 0 .266-.032.453-.11.781l.312.079 1.016-3.47-.281-.062c-.563 1.266-.703 1.36-2.063 1.422-.172 0-.656.016-1.172.031l.985-3.484c.093-.328.25-.39 1.093-.39 2.344 0 2.86.203 2.86 1.093 0 .188-.016.422-.031.672L9-7.469Zm0 0"/><path id="f" d="M9.64-9.75H2.204v.234c.969.094 1.14.188 1.14.61 0 .234-.062.594-.155.953l-1.844 6.61C1.078-.454.969-.36.125-.235V0h3.766v-.234C3.016-.281 2.75-.454 2.75-.891c0-.125.047-.343.14-.671l.922-3.344c.547.031.876.047 1.204.047.578 0 .687.015.828.078.218.125.328.312.328.61 0 .25-.031.421-.125.89l.25.062 1.14-3.484-.265-.078c-.672 1.343-.719 1.36-3.234 1.39l.984-3.484c.094-.297.312-.39.922-.39 2.5 0 3.047.203 3.047 1.124 0 .094 0 .157-.016.36-.016.093-.016.11-.031.281l.312.031Zm0 0"/><path id="g" d="m10.578-9.89-.219-.063c-.265.36-.515.515-.906.515-.14 0-.328-.046-.656-.156-.75-.234-1.39-.36-2-.36-3.156 0-6.016 3-6.016 6.282 0 1.016.422 2.063 1.125 2.781.766.75 1.86 1.157 3.157 1.157 1.312 0 2.39-.282 3.546-.922l.72-2.797c.25-.828.483-1.016 1.452-1.078v-.235H6.812v.235c.172.015.375.047.438.047.484.046.734.203.734.468 0 .329-.093.75-.421 1.844C7.234-1.094 7.188-.969 7-.797c-.328.328-.89.516-1.562.516-1.922 0-3.016-1.11-3.016-3.063 0-1.844.734-3.734 1.906-4.984a3.6 3.6 0 0 1 2.594-1.11c.969 0 1.781.407 2.234 1.094.235.375.344.703.422 1.36l.266.03Zm0 0"/><path id="h" d="M11.453-9.75H7.766v.234c.875.11 1.047.22 1.047.641 0 .219-.063.563-.157.922L7.97-5.5H3.703l.813-2.906c.218-.766.609-1.047 1.5-1.11v-.234H1.938v.234c.937.094 1.156.204 1.156.641 0 .219-.063.563-.172.922l-1.828 6.61C.828-.485.719-.392-.125-.235V0h3.688v-.234C2.656-.36 2.5-.47 2.5-.891c0-.109.016-.234.047-.328l.984-3.656h4.25l-.968 3.531c-.235.782-.532 1-1.516 1.11V0h4.078v-.234c-.953-.094-1.156-.22-1.156-.625 0-.157.015-.25.047-.36l1.968-7.187c.25-.875.375-.953 1.22-1.11Zm0 0"/><clipPath id="a"><path d="M0 0h231v214.98H0Zm0 0"/></clipPath><clipPath id="b"><path d="M141 13h174.527v189H141Zm0 0"/></clipPath></defs><g clip-path="url(#a)"><path fill="none" stroke="#000" stroke-miterlimit="10" stroke-width="1.1955" d="M213.633 107.488c0-58.62-47.524-106.14-106.145-106.14S1.344 48.868 1.344 107.488c0 58.625 47.523 106.145 106.144 106.145s106.145-47.52 106.145-106.145Zm0 0"/></g><g clip-path="url(#b)"><path fill="none" stroke="#000" stroke-miterlimit="10" stroke-width="1.1955" d="M311.68 107.488c0-42.32-34.309-76.629-76.63-76.629-42.323 0-76.628 34.309-76.628 76.63 0 42.323 34.305 76.632 76.629 76.632 42.32 0 76.629-34.309 76.629-76.633Zm0 0"/></g><path fill="none" stroke="#000" stroke-linecap="round" stroke-miterlimit="10" stroke-width="1.1955" d="M192.531 43.71v127.56M43.707 22.45 22.449 171.27M293.727 58.168 277.57 171.27M43.707 22.45l250.02 35.718M22.45 171.27h255.12"/><path stroke="#000" stroke-miterlimit="10" stroke-width=".5985" d="M194.023 43.71a1.494 1.494 0 1 0-2.99-.005 1.494 1.494 0 0 0 2.99.006ZM194.023 171.27c0-.825-.668-1.493-1.492-1.493-.828 0-1.496.668-1.496 1.493 0 .824.668 1.496 1.496 1.496.824 0 1.492-.672 1.492-1.496ZM45.203 22.45c0-.825-.668-1.497-1.496-1.497a1.495 1.495 0 1 0 1.496 1.496ZM23.941 171.27c0-.825-.668-1.493-1.492-1.493s-1.496.668-1.496 1.493c0 .824.672 1.496 1.496 1.496s1.492-.672 1.492-1.496ZM295.223 58.168a1.494 1.494 0 1 0-2.988-.005 1.494 1.494 0 0 0 2.988.005ZM279.063 171.27a1.495 1.495 0 0 0-2.988 0c0 .824.671 1.496 1.495 1.496s1.493-.672 1.493-1.496Zm0 0"/><use xlink:href="#c" x="187.964" y="38.431"/><use xlink:href="#d" x="187.964" y="186.248"/><use xlink:href="#e" x="28.209" y="17.171"/><use xlink:href="#f" x="6.785" y="186.248"/><use xlink:href="#g" x="299.005" y="52.633"/><use xlink:href="#h" x="282.848" y="186.248"/></svg>