<svg xmlns="http://www.w3.org/2000/svg" xmlns:xlink="http://www.w3.org/1999/xlink" width="280.468" height="191.093" viewBox="0 0 210.351 143.32"><defs><path id="c" d="M5.625-.156c-.578-.047-.625-.14-.766-.86l-.937-5.64h-.25L.782-1.672C-.017-.344-.11-.234-.517-.156V0H1.36v-.156C.844-.203.766-.266.766-.516c0-.187.03-.265.203-.609L1.53-2.25h2.203l.188 1.297c.015.094.031.187.031.265 0 .375-.14.47-.781.532V0h2.453ZM1.75-2.61l1.484-2.594.438 2.594Zm0 0"/><path id="d" d="M-.078 0h2.812c1.563 0 2.641-.812 2.641-2 0-.36-.125-.719-.344-.937-.203-.22-.39-.344-.922-.563.72-.172 1-.281 1.329-.562q.42-.375.421-.985c0-.937-.703-1.469-1.984-1.469H1.297v.172c.61.047.766.125.766.407 0 .14-.032.39-.11.64L.734-.89c-.187.579-.25.625-.812.735Zm2.453-3.297c.64 0 1.063.031 1.266.11.406.171.656.609.656 1.156 0 1.078-.734 1.734-1.953 1.734-.422 0-.64-.156-.64-.422 0-.125.124-.593.343-1.39.14-.453.203-.688.328-1.188m.75-2.64c.063-.22.172-.266.563-.266.796 0 1.171.328 1.171 1.062 0 .579-.25 1.016-.671 1.25-.344.204-.813.266-1.72.266Zm0 0"/><path id="e" d="M6.313-6.516H1.359v.172c.625.047.782.14.782.407 0 .109-.063.453-.11.64L.797-.89c-.172.563-.25.625-.813.735V0h5.063l.61-1.61-.157-.077c-.469.625-.719.89-1.156 1.093-.36.172-1.047.266-1.797.266-.547 0-.797-.094-.797-.344 0-.11.11-.578.36-1.453.14-.437.218-.766.328-1.14.343.015.656.03.765.03.39-.015.672.047.781.141.047.047.079.14.079.313 0 .172-.032.297-.079.515l.204.047.671-2.312-.171-.032c-.375.844-.47.907-1.375.938-.126 0-.438.016-.797.031l.672-2.328c.046-.219.156-.266.718-.266 1.563 0 1.922.141 1.922.735 0 .125-.016.281-.031.453l.219.016Zm0 0"/><path id="f" d="M6.438-6.516h-4.97v.172c.641.047.766.11.766.407 0 .14-.046.39-.109.64L.891-.89c-.172.594-.25.657-.813.735V0h2.516v-.156c-.578-.031-.766-.14-.766-.438 0-.078.031-.234.094-.453l.625-2.219c.36.016.578.032.797.032.39 0 .469 0 .547.046.156.079.218.204.218.407 0 .156-.015.281-.078.594l.172.046.766-2.328-.188-.062c-.437.906-.468.906-2.156.937l.672-2.328c.047-.203.187-.266.594-.266 1.687 0 2.047.141 2.047.75 0 .063 0 .11-.016.25-.016.047-.016.063-.016.188l.203.016Zm0 0"/><path id="g" d="m7.063-6.594-.157-.047c-.172.235-.343.344-.593.344-.11 0-.22-.031-.438-.11-.5-.155-.937-.234-1.344-.234-2.093 0-4.015 2-4.015 4.188 0 .672.297 1.375.765 1.86.5.5 1.235.765 2.094.765.875 0 1.594-.188 2.36-.61l.5-1.859c.156-.562.312-.687.968-.719v-.171H4.547v.171c.125 0 .25.032.281.032.328.03.5.125.5.297 0 .218-.062.5-.281 1.234-.219.719-.25.812-.375.922-.219.219-.594.344-1.047.344-1.281 0-2.016-.735-2.016-2.047 0-1.22.5-2.485 1.282-3.328a2.38 2.38 0 0 1 1.718-.735c.657 0 1.204.266 1.5.719.157.266.235.469.282.906l.172.031Zm0 0"/><path id="h" d="M7.64-6.516H5.189v.172c.578.063.687.14.687.422 0 .14-.031.375-.11.625l-.452 1.625H2.469l.547-1.937c.14-.516.406-.703 1-.735v-.172h-2.72v.172c.61.047.767.14.767.422 0 .14-.032.375-.11.625L.734-.89c-.187.579-.25.625-.812.735V0h2.453v-.156c-.594-.078-.703-.156-.703-.438 0-.078 0-.156.016-.219l.671-2.437h2.829L4.547-.89c-.156.515-.36.656-1.016.734V0h2.735v-.156c-.641-.063-.782-.14-.782-.422 0-.094.016-.156.032-.235l1.312-4.796c.172-.578.25-.641.813-.735Zm0 0"/><clipPath id="a"><path d="M0 0h154v143.32H0Zm0 0"/></clipPath><clipPath id="b"><path d="M94 9h116.352v126H94Zm0 0"/></clipPath></defs><path fill="#fff" d="M0 0h210.352v143.32H0Zm0 0"/><g clip-path="url(#a)"><path fill="none" stroke="#000" stroke-miterlimit="10" stroke-width=".797" d="M142.422 71.66c0-39.082-31.68-70.762-70.762-70.762S.898 32.578.898 71.66s31.68 70.762 70.762 70.762 70.762-31.68 70.762-70.762Zm0 0"/></g><g clip-path="url(#b)"><path fill="none" stroke="#000" stroke-miterlimit="10" stroke-width=".797" d="M207.785 71.66c0-28.215-22.87-51.086-51.086-51.086s-51.086 22.871-51.086 51.086 22.871 51.086 51.086 51.086 51.086-22.871 51.086-51.086Zm0 0"/></g><path fill="none" stroke="#000" stroke-linecap="round" stroke-miterlimit="10" stroke-width=".797" d="M128.352 29.14v85.04M29.14 14.965 14.966 114.18M195.82 38.777l-10.773 75.403M29.14 14.965l166.68 23.812M14.965 114.18h170.082"/><path stroke="#000" stroke-miterlimit="10" stroke-width=".399" d="M129.348 29.14a.995.995 0 1 0-1.99-.001.995.995 0 0 0 1.99.002ZM129.348 114.18a.995.995 0 1 0-1.99-.002.995.995 0 0 0 1.99.002ZM30.137 14.965a.995.995 0 1 0-1.994-.002.995.995 0 0 0 1.994.002ZM15.96 114.18a.995.995 0 1 0-1.99-.002.995.995 0 0 0 1.99.002ZM196.816 38.777a.998.998 0 0 0-1.996 0 .999.999 0 0 0 1.996 0ZM186.043 114.18a.995.995 0 1 0-1.99-.002.995.995 0 0 0 1.99.002Zm0 0"/><use xlink:href="#c" x="125.309" y="25.621"/><use xlink:href="#d" x="125.309" y="124.165"/><use xlink:href="#e" x="18.806" y="11.447"/><use xlink:href="#f" x="4.523" y="124.165"/><use xlink:href="#g" x="199.337" y="35.089"/><use xlink:href="#h" x="188.565" y="124.165"/></svg>