<svg xmlns="http://www.w3.org/2000/svg" xmlns:xlink="http://www.w3.org/1999/xlink" width="272.621" height="251.833" style="background-color:#fff" viewBox="0 0 272.621 251.833"><defs><path id="a" d="M5.625-.156c-.578-.047-.625-.14-.766-.86l-.937-5.64h-.25L.782-1.672C-.017-.344-.11-.234-.517-.156V0H1.36v-.156C.844-.203.766-.266.766-.516c0-.187.03-.265.203-.609L1.53-2.25h2.203l.188 1.297c.015.094.031.187.031.265 0 .375-.14.47-.781.532V0h2.453ZM1.75-2.61l1.484-2.594.438 2.594Zm0 0"/><path id="b" d="M4.016-6.516h-2.72v.172c.61.047.767.14.767.422 0 .14-.032.375-.11.625L.734-.89c-.187.579-.25.625-.812.735V0H5l.578-1.781-.203-.063c-.344.719-.625 1.032-1.062 1.25-.344.172-.75.235-1.625.235-.75 0-1-.079-1-.344 0-.063.046-.297.093-.5L3.016-5.61c.14-.516.406-.703 1-.735Zm0 0"/><path id="c" d="M-.078 0h2.437v-.156c-.578-.078-.687-.14-.687-.406 0-.188.016-.313.11-.641L3.015-5.61c.172-.578.25-.641.812-.735v-.172H1.36v.172c.579.063.704.14.704.422 0 .14-.032.375-.11.625L.734-.89c-.187.579-.25.625-.812.735Zm0 0"/><path id="d" d="M1.297-6.344c.61.047.766.14.766.407 0 .14-.032.39-.11.64L.734-.89c-.187.579-.25.625-.812.735V0h2.516c1.171 0 2.234-.312 3-.875.968-.703 1.546-1.797 1.546-2.953 0-1.64-1.14-2.688-2.921-2.688H1.297Zm1.828.422c.063-.219.203-.281.61-.281.562 0 1.062.125 1.374.36.5.359.766.984.766 1.78 0 1.079-.422 2.188-1.094 2.86-.593.61-1.406.906-2.437.906-.453 0-.656-.11-.656-.375 0-.125.062-.344.218-.937Zm0 0"/><path id="e" d="M6.313-6.516H1.359v.172c.625.047.782.14.782.407 0 .109-.063.453-.11.64L.797-.89c-.172.563-.25.625-.813.735V0h5.063l.61-1.61-.157-.077c-.469.625-.719.89-1.156 1.093-.36.172-1.047.266-1.797.266-.547 0-.797-.094-.797-.344 0-.11.11-.578.36-1.453.14-.437.218-.766.328-1.14.343.015.656.03.765.03.39-.015.672.047.781.141.047.047.079.14.079.313 0 .172-.032.297-.079.515l.204.047.671-2.312-.171-.032c-.375.844-.47.907-1.375.938-.126 0-.438.016-.797.031l.672-2.328c.046-.219.156-.266.718-.266 1.563 0 1.922.141 1.922.735 0 .125-.016.281-.031.453l.219.016Zm0 0"/><path id="f" d="M6.313-6.516H1L.594-4.969l.172.032c.53-1.079.843-1.25 2.375-1.22L1.703-.89c-.156.516-.39.688-1.062.735V0h2.89v-.156c-.156-.016-.312-.031-.375-.031-.39-.032-.515-.125-.515-.422 0-.125.03-.25.125-.594L4.14-6.156h.547c.718 0 1.046.25 1.046.797 0 .14-.015.28-.03.453l.171.015Zm0 0"/><path id="g" d="M-.078 0h2.812c1.563 0 2.641-.812 2.641-2 0-.36-.125-.719-.344-.937-.203-.22-.39-.344-.922-.563.72-.172 1-.281 1.329-.562q.42-.375.421-.985c0-.937-.703-1.469-1.984-1.469H1.297v.172c.61.047.766.125.766.407 0 .14-.032.39-.11.64L.734-.89c-.187.579-.25.625-.812.735Zm2.453-3.297c.64 0 1.063.031 1.266.11.406.171.656.609.656 1.156 0 1.078-.734 1.734-1.953 1.734-.422 0-.64-.156-.64-.422 0-.125.124-.593.343-1.39.14-.453.203-.688.328-1.188m.75-2.64c.063-.22.172-.266.563-.266.796 0 1.171.328 1.171 1.062 0 .579-.25 1.016-.671 1.25-.344.204-.813.266-1.72.266Zm0 0"/><path id="h" d="M7.25-6.516H5.266v.172c.562.047.703.14.703.5 0 .125-.032.235-.094.438-.016.031-.016.078-.016.078L4.83-1.531 2.765-6.516h-1.61v.172c.469.032.672.157.86.547L.828-1.64C.453-.359.375-.234-.203-.156V0H1.78v-.156c-.515-.047-.703-.156-.703-.438 0-.125.031-.328.094-.531l1.125-4.203L4.594.156h.187l1.422-5.015c.375-1.297.422-1.344 1.047-1.485Zm0 0"/><path id="i" d="m6.5-4.64.375-1.985h-.219c-.078.172-.172.219-.375.219a2 2 0 0 1-.406-.063c-.453-.11-.844-.172-1.172-.172-2.125 0-4.047 2-4.047 4.22 0 1.53 1.078 2.593 2.61 2.593 1.015 0 1.812-.438 2.718-1.484l-.171-.141c-.891.89-1.47 1.187-2.297 1.187-1.11 0-1.735-.765-1.735-2.046 0-1.188.469-2.391 1.25-3.204.485-.484 1.11-.765 1.766-.765.922 0 1.422.547 1.516 1.61Zm0 0"/><path id="j" d="M6.438-6.516h-4.97v.172c.641.047.766.11.766.407 0 .14-.046.39-.109.64L.891-.89c-.172.594-.25.657-.813.735V0h2.516v-.156c-.578-.031-.766-.14-.766-.438 0-.078.031-.234.094-.453l.625-2.219c.36.016.578.032.797.032.39 0 .469 0 .547.046.156.079.218.204.218.407 0 .156-.015.281-.078.594l.172.046.766-2.328-.188-.062c-.437.906-.468.906-2.156.937l.672-2.328c.047-.203.187-.266.594-.266 1.687 0 2.047.141 2.047.75 0 .063 0 .11-.016.25-.016.047-.016.063-.016.188l.203.016Zm0 0"/><path id="k" d="m4.672-4.672.39-1.984h-.234c-.14.218-.219.265-.437.265-.125 0-.235-.03-.47-.109-.218-.094-.53-.14-.843-.14-1.031 0-1.765.687-1.765 1.671 0 .532.14.828.734 1.453.094.094.219.235.39.422.188.188.329.344.391.422.469.485.594.75.594 1.172 0 .75-.547 1.328-1.281 1.328-.828 0-1.453-.703-1.453-1.656 0-.078.015-.156.015-.219l-.187-.031L.172.156h.172c.078-.234.187-.328.39-.328.11 0 .25.031.516.125.453.172.719.219 1.031.219 1.14 0 2.016-.86 2.016-1.984 0-.657-.234-1.032-1.125-1.954-.906-.906-.985-1.046-.985-1.53 0-.626.422-1.016 1.094-1.016q.563 0 .89.375c.22.25.298.578.313 1.25Zm0 0"/><path id="l" d="M7.203-6.516H4.984v.172c.125 0 .235.032.266.032.25.015.344.078.344.187 0 .234-.547.766-1.438 1.39L2.641-3.671l.53-1.937c.142-.5.423-.703 1-.735v-.172H1.454v.172c.625.047.766.14.766.422 0 .14-.031.375-.11.625L.891-.89C.703-.297.656-.25.063-.156V0h2.484v-.156c-.64-.078-.719-.14-.719-.438 0-.11.016-.187.078-.39l.063-.22.61-2.265L3.78-1.39c.25.407.39.75.39.938 0 .156-.14.234-.468.266-.047 0-.156.015-.281.03V0h2.734v-.156C5.531-.22 5.47-.25 5.188-.72L3.452-3.734l3-2.25c.281-.22.5-.328.75-.36Zm0 0"/><path id="m" d="M1.86-3.5c.046-.094.077-.156.077-.234 0-.22-.203-.391-.421-.391-.203 0-.344.14-.391.328L.25-.562c0 .015-.031.093-.031.093 0 .078.187.14.25.14.047 0 .047-.03.094-.124Zm0 0"/></defs><path fill="none" stroke="red" stroke-miterlimit="10" stroke-width=".399" d="m179.715 55.512-4.008-4.008-4.012 4.008 4.012 4.008 4.008-4.008M143.418 237.629l.738-5.621-5.629-.684-.738 5.621 5.629.684M183.059 38.727l-5.239 2.164-2.164-5.239 5.239-2.164 2.164 5.239M219.023 125.496l-5.238 2.168-2.168-5.238 5.238-2.168 2.168 5.238"/><path fill="none" stroke="#000" stroke-linecap="round" stroke-linejoin="round" stroke-miterlimit="10" stroke-width=".797" d="m172.855 14.035-159.43 207.77h245.493Zm0 0"/><path fill="none" stroke="#000" stroke-linecap="round" stroke-miterlimit="10" stroke-width=".797" d="m13.426 221.805 173.562-173.57M172.855 14.035l-18.183 138.117M154.672 152.152l104.246 69.653"/><path fill="none" stroke="#000" stroke-miterlimit="10" stroke-width=".797" d="M184.227 44.613c0-8.511-6.899-15.41-15.41-15.41-8.512 0-15.41 6.899-15.41 15.41 0 8.512 6.898 15.41 15.41 15.41 8.511 0 15.41-6.898 15.41-15.41Zm0 0"/><path fill="none" stroke="#000" stroke-linecap="round" stroke-miterlimit="10" stroke-width=".797" d="m163.762 83.094 43.031 103.883M183.059 38.727l-3.344 16.785"/><path fill="none" stroke="#000" stroke-dasharray="2.98883 1.99255" stroke-linecap="round" stroke-miterlimit="10" stroke-width=".797" d="m179.715 55.512-8.914 44.722"/><path fill="none" stroke="#00b200" stroke-dasharray="2.98883 1.99255" stroke-linecap="round" stroke-miterlimit="10" stroke-width=".797" d="m154.672 152.152-11.254 85.477M170.8 100.234 143.419 237.63M13.426 221.805l155.39-177.192"/><path fill="none" stroke="red" stroke-dasharray="2.98883 1.99255" stroke-linecap="round" stroke-miterlimit="10" stroke-width=".797" d="m168.816 44.613 10.899 10.899M13.426 221.805l129.992 15.824M168.816 44.613l14.243-5.886M154.672 152.152l64.351-26.656"/><path fill="none" stroke="#00f" stroke-dasharray="2.98883 1.99255" stroke-linecap="round" stroke-miterlimit="10" stroke-width=".797" d="m154.672 152.152 32.316-103.918"/><path stroke="#000" stroke-miterlimit="10" stroke-width=".399" d="M173.852 14.035c0-.55-.446-1-.997-1a.999.999 0 0 0 0 1.996c.551 0 .997-.449.997-.996ZM14.422 221.805a.995.995 0 1 0-1.99-.002.995.995 0 0 0 1.99.002ZM259.914 221.805a.998.998 0 0 0-1.996 0 .999.999 0 0 0 1.996 0ZM187.984 48.234a.995.995 0 1 0-1.99-.001.995.995 0 0 0 1.99.001ZM184.055 38.727a.995.995 0 1 0-1.99-.002.995.995 0 0 0 1.99.002ZM180.71 55.512a.995.995 0 1 0-1.99-.002.995.995 0 0 0 1.99.002ZM155.668 152.152c0-.55-.445-1-.996-1a.999.999 0 0 0 0 1.996c.55 0 .996-.449.996-.996ZM164.758 83.094c0-.551-.446-1-.996-1a.999.999 0 0 0 0 1.996c.55 0 .996-.45.996-.996ZM207.79 186.977a.995.995 0 1 0-1.991-.002.995.995 0 0 0 1.99.002ZM171.797 100.234a.995.995 0 1 0-1.99-.001.995.995 0 0 0 1.99.001Zm0 0"/><path fill="#00b200" stroke="#004c00" stroke-miterlimit="10" stroke-width=".399" d="M144.414 237.629a.995.995 0 1 0-1.99-.002.995.995 0 0 0 1.99.002ZM169.813 44.613a.995.995 0 1 0-1.991-.001.995.995 0 0 0 1.99.001ZM220.02 125.496a.995.995 0 1 0-1.991-.002.995.995 0 0 0 1.99.002Zm0 0"/><path fill="#00adef" fill-opacity=".3" d="m172.855 14.035-159.43 207.77L168.817 44.613Zm0 0"/><path fill="#ec008c" fill-opacity=".3" d="m163.762 83.094 7.039 17.14-27.383 137.395Zm0 0"/><use xlink:href="#a" x="169.81" y="10.515"/><use xlink:href="#b" x="154.674" y="86.326"/><use xlink:href="#c" x="147.326" y="155.383"/><use xlink:href="#d" x="190.509" y="51.47"/><use xlink:href="#e" x="186.579" y="41.961"/><use xlink:href="#f" x="174.32" y="103.468"/><use xlink:href="#g" x="3.82" y="231.79"/><use xlink:href="#h" x="196.03" y="196.963"/><use xlink:href="#i" x="261.936" y="232.019"/><use xlink:href="#j" x="183.234" y="65.498"/><use xlink:href="#k" x="140.887" y="247.843" fill="#007f00"/><use xlink:href="#l" x="172.336" y="47.848" fill="#007f00"/><use xlink:href="#e" x="222.542" y="129.32" fill="#007f00"/><use xlink:href="#m" x="229.356" y="125.704" fill="#007f00"/></svg>