<svg xmlns="http://www.w3.org/2000/svg" xmlns:xlink="http://www.w3.org/1999/xlink" width="567.046" height="488.36" viewBox="0 0 425.284 366.27"><defs><path id="c" d="M8.422-.234c-.844-.078-.938-.203-1.125-1.297L5.89-9.984H5.5L1.172-2.516C-.016-.516-.172-.359-.766-.234V0h2.797v-.234c-.765-.078-.875-.157-.875-.532 0-.28.032-.421.297-.921l.844-1.688h3.297l.297 1.953c.015.14.03.266.03.39 0 .563-.218.704-1.171.798V0h3.672ZM2.609-3.906l2.25-3.89.657 3.89Zm0 0"/><path id="d" d="M2.188-9.516c.843.11 1.046.235 1.046.625 0 .22-.046.532-.25 1.204L1.22-1.344C.953-.454.844-.359 0-.234V0h3.656v-.234C2.72-.375 2.641-.422 2.641-.922c0-.187.03-.328.187-.875l.781-2.875c.375.094.766.11 1.375.11 1.235 0 2.235-.25 2.875-.704.75-.562 1.172-1.375 1.172-2.265 0-1.438-1.11-2.219-3.14-2.219H2.188Zm2.625.625c.093-.312.265-.421.687-.421.578 0 1.14.156 1.453.359.375.281.547.719.547 1.422 0 .968-.344 1.656-1 2.047-.469.25-1.047.375-1.969.375-.265 0-.375-.016-.781-.079Zm0 0"/><path id="e" d="M13.047-9.75h-2.5L5.53-2.39l-.828-7.36H2v.234c.75.047 1.11.204 1.11.547 0 .125-.063.344-.157.625-.031.047-.062.219-.125.438-.015.047-.031.11-.047.172L1.187-2.187C.734-.625.517-.328-.266-.234V0h2.954v-.234c-.766-.063-1.063-.25-1.063-.657 0-.156.063-.546.14-.796l1.766-6.47L4.437 0h.25l5.641-8.375-1.937 7.016c-.235.797-.532 1.015-1.5 1.125V0h4.078v-.234C9.953-.328 9.813-.422 9.813-.875c0-.266.03-.453.171-.922l1.829-6.61c.265-.905.343-.968 1.234-1.109Zm0 0"/><path id="f" d="M6.016-9.75H1.938v.234c.937.094 1.156.204 1.156.641 0 .219-.063.563-.172.922l-1.828 6.61C.828-.485.719-.392-.125-.235V0h7.61l.859-2.672-.297-.094C7.53-1.687 7.125-1.203 6.469-.875c-.532.25-1.14.344-2.438.344-1.14 0-1.5-.125-1.5-.516 0-.11.063-.469.14-.75l1.845-6.61c.218-.765.609-1.046 1.5-1.109Zm0 0"/><path id="g" d="M1.938-9.516c.937.094 1.156.204 1.156.61 0 .234-.063.594-.172.953l-1.828 6.61C.828-.485.719-.392-.125-.235V0h3.781C5.406 0 7-.469 8.156-1.297 9.61-2.359 10.453-4 10.453-5.734c0-2.453-1.703-4.016-4.36-4.016H1.939Zm2.734.641c.094-.328.312-.437.922-.437.843 0 1.593.203 2.062.562.735.531 1.14 1.469 1.14 2.656 0 1.61-.624 3.282-1.64 4.297-.875.906-2.093 1.344-3.64 1.344-.688 0-.97-.156-.97-.547 0-.187.063-.531.329-1.422Zm0 0"/><path id="h" d="M9.453-9.75H1.516L.875-7.453l.281.062C1.938-9 2.422-9.266 4.703-9.234l-2.156 7.89C2.312-.547 1.953-.312.969-.234V0h4.328v-.234c-.25-.016-.469-.047-.563-.047-.593-.047-.78-.188-.78-.625 0-.203.046-.375.187-.89l2.078-7.438h.812c1.078 0 1.563.375 1.563 1.218 0 .188-.016.407-.047.672l.25.032Zm0 0"/><path id="i" d="M-.125 0h4.219c2.343 0 3.953-1.219 3.953-2.984 0-.563-.172-1.078-.5-1.407-.297-.343-.594-.53-1.375-.859 1.062-.25 1.484-.422 1.969-.844.422-.36.64-.86.64-1.468 0-1.422-1.062-2.188-2.984-2.188h-3.86v.234c.938.079 1.157.188 1.157.61 0 .234-.063.594-.172.953l-1.828 6.61C.828-.485.719-.392-.125-.235Zm3.688-4.937c.968 0 1.593.046 1.89.171.61.25.984.907.984 1.72 0 1.608-1.109 2.593-2.921 2.593-.625 0-.97-.219-.97-.625 0-.172.188-.89.532-2.094.188-.672.281-1.015.485-1.765m1.109-3.954c.094-.328.266-.421.86-.421 1.187 0 1.75.515 1.75 1.624 0 .844-.36 1.5-1 1.86-.516.297-1.235.406-2.579.406Zm0 0"/><path id="j" d="M10.86-9.75H7.89v.234c.844.079 1.048.22 1.048.766 0 .172-.032.36-.141.656-.016.047-.031.11-.031.11L7.25-2.297 4.14-9.75H1.735v.234c.704.063 1.016.25 1.282.844L1.234-2.453C.672-.531.547-.36-.296-.234V0h2.952v-.234C1.891-.297 1.61-.47 1.61-.875c0-.203.047-.5.141-.812l1.703-6.297L6.891.219h.265l2.157-7.516c.546-1.922.609-2.016 1.546-2.219Zm0 0"/><path id="k" d="M-.125 0h3.656v-.234c-.86-.11-1.015-.203-1.015-.61 0-.297.03-.468.156-.953l1.844-6.61c.265-.874.375-.952 1.218-1.109v-.234H2.047v.234c.86.11 1.047.22 1.047.641 0 .219-.063.563-.172.922l-1.828 6.61C.828-.485.719-.392-.125-.235Zm0 0"/><path id="l" d="m9.734-6.953.563-2.969h-.313c-.125.25-.28.328-.578.328-.11 0-.297-.031-.61-.094-.671-.171-1.265-.265-1.75-.265-3.171 0-6.062 3-6.062 6.328 0 2.281 1.61 3.89 3.907 3.89 1.53 0 2.734-.656 4.078-2.218l-.266-.219C7.36-.844 6.5-.406 5.266-.406c-1.657 0-2.61-1.125-2.61-3.063 0-1.781.719-3.578 1.89-4.797.72-.734 1.657-1.14 2.641-1.14 1.375 0 2.141.797 2.282 2.422Zm0 0"/><path id="m" d="M7.328-9.75H3.547v.234c.937.094 1.14.204 1.14.61 0 .219-.062.547-.171.953L2.546-1c-.155.578-.358.813-.718.813s-.531-.204-.531-.61c0-.062 0-.125.016-.219v-.14c0-.375-.344-.703-.72-.703-.405 0-.687.328-.687.812 0 .781.703 1.313 1.75 1.313.766 0 1.438-.297 1.907-.844.39-.485.687-1.156 1.015-2.297L6.11-8.406c.266-.906.375-.985 1.22-1.11Zm0 0"/><path id="n" d="M4.172.234C5.312.172 5.89.016 6.719-.453c2.218-1.234 3.718-3.656 3.718-6.016 0-2.015-1.437-3.484-3.421-3.484-1.188 0-2.532.625-3.735 1.687-1.5 1.407-2.39 3.22-2.39 4.97 0 1.218.453 2.234 1.265 2.859.39.312.719.468 1.375.609C2.171 1.375 2.031 1.5.875 2.297l.156.234a3.36 3.36 0 0 1 1.719-.469c.297 0 .734.094 1.39.266.907.25 1.72.406 2.266.406.828 0 1.875-.39 2.625-.984.36-.266.563-.484.953-1.016L9.75.563c-.828.875-1.437 1.156-2.516 1.156-.39 0-.703-.063-1.843-.328-.782-.203-1.485-.328-1.563-.313-.062.016-.094.016-.094.016H3.36Zm2.781-9.687c1.188 0 1.922.86 1.922 2.281 0 1.578-.703 3.781-1.656 5.156C6.39-.844 5.469-.25 4.375-.25c-1.203 0-1.906-.922-1.906-2.484 0-1.422.734-3.641 1.64-4.938.829-1.219 1.75-1.781 2.844-1.781m0 0"/><path id="o" d="M8.469-.234c-.656-.047-.953-.297-1.235-1.078L5.844-4.97c1.14-.265 1.64-.468 2.172-.953.5-.422.765-1.016.765-1.687 0-1.391-1.11-2.141-3.11-2.141H1.97v.234c.625.094.703.11.86.204.108.078.202.265.202.421 0 .188-.078.547-.172.938l-1.843 6.61C.75-.47.64-.376-.187-.235V0h3.64v-.234C2.547-.36 2.438-.437 2.438-.922c0-.156.046-.344.171-.875l.844-3.125.969.078L6.266 0h2.203ZM4.594-8.891c.093-.312.297-.421.765-.421 1.25 0 1.86.578 1.86 1.671 0 1.485-.953 2.25-2.828 2.25-.235 0-.407-.015-.766-.078Zm0 0"/><clipPath id="a"><path d="M253 33h172.285v176H253Zm0 0"/></clipPath><clipPath id="b"><path d="M219 0h206.285v207H219Zm0 0"/></clipPath></defs><path fill="none" stroke="#007f00" stroke-miterlimit="10" stroke-width=".5985" d="m245.645 136.895 1.109-8.43 8.43 1.11-1.11 8.429-8.43-1.11M323.828 189.137l-3.254-7.856 7.856-3.254 3.254 7.856-7.856 3.254"/><path fill="none" stroke="#7f0000" stroke-miterlimit="10" stroke-width=".5985" d="m273.152 140.516 1.106-8.43 8.433 1.11-1.105 8.429-8.434-1.11"/><path fill="none" stroke="#000" stroke-linecap="round" stroke-linejoin="round" stroke-miterlimit="10" stroke-width="1.1955" d="M259.281 33.309 20.141 344.965h368.234Zm0 0"/><path fill="none" stroke="#000" stroke-linecap="round" stroke-miterlimit="10" stroke-width="1.1955" d="M20.14 344.965 280.485 84.609M259.281 33.309l-27.273 207.175M232.008 240.484l156.367 104.48M310.191 292.723l31.86-242M245.645 136.895l155.03 20.41"/><g clip-path="url(#a)"><path fill="none" stroke="#000" stroke-miterlimit="10" stroke-width="1.1955" d="M410.766 120.934c0-38.754-31.414-70.172-70.172-70.172-38.754 0-70.172 31.418-70.172 70.172 0 38.757 31.418 70.175 70.172 70.175 38.758 0 70.172-31.418 70.172-70.175Zm0 0"/></g><path fill="none" stroke="#000" stroke-linecap="round" stroke-miterlimit="10" stroke-width="1.1955" d="m245.645 136.895 64.546 155.828M342.05 50.723l-68.898 89.793"/><path fill="none" stroke="#000" stroke-dasharray="4.483245 2.9888250000000003" stroke-linecap="round" stroke-miterlimit="10" stroke-width="1.1955" d="m273.152 140.516-16.949 22.093"/><g clip-path="url(#b)"><path fill="none" stroke="#00b200" stroke-dasharray="4.483245 2.9888250000000003" stroke-miterlimit="10" stroke-width="1.1955" d="M423.938 95.309c0-51.895-42.067-93.961-93.961-93.961-51.891 0-93.957 42.066-93.957 93.96 0 51.891 42.066 93.962 93.957 93.962 51.894 0 93.96-42.07 93.96-93.961Zm0 0"/></g><path fill="none" stroke="#00b200" stroke-dasharray="4.483245 2.9888250000000003" stroke-linecap="round" stroke-miterlimit="10" stroke-width="1.1955" d="m323.828 189.137 76.848-31.832"/><path fill="none" stroke="#00f" stroke-dasharray="4.483245 2.9888250000000003" stroke-linecap="round" stroke-miterlimit="10" stroke-width="1.1955" d="M232.008 240.484 280.484 84.61"/><path fill="none" stroke="red" stroke-dasharray="4.483245 2.9888250000000003" stroke-linecap="round" stroke-miterlimit="10" stroke-width="1.1955" d="m280.484 84.61-13.586 103.6"/><path stroke="#000" stroke-miterlimit="10" stroke-width=".5985" d="M260.777 33.309c0-.825-.672-1.497-1.496-1.497a1.495 1.495 0 0 0 0 2.989c.824 0 1.496-.668 1.496-1.492ZM21.633 344.965c0-.824-.668-1.492-1.492-1.492-.829 0-1.496.668-1.496 1.492s.667 1.496 1.496 1.496c.824 0 1.492-.672 1.492-1.496ZM389.867 344.965c0-.824-.668-1.492-1.492-1.492s-1.496.668-1.496 1.492.672 1.496 1.496 1.496 1.492-.672 1.492-1.496ZM281.98 84.61a1.495 1.495 0 0 0-2.988 0c0 .827.668 1.495 1.492 1.495.825 0 1.496-.668 1.496-1.496ZM233.5 240.484a1.495 1.495 0 1 0-2.988 0c0 .825.668 1.493 1.496 1.493.824 0 1.492-.668 1.492-1.493ZM402.168 157.305c0-.825-.668-1.493-1.492-1.493a1.495 1.495 0 1 0 1.492 1.493ZM247.137 136.895c0-.825-.668-1.493-1.492-1.493a1.495 1.495 0 1 0 0 2.989c.824 0 1.492-.668 1.492-1.496ZM325.324 189.137c0-.824-.672-1.496-1.496-1.496s-1.496.672-1.496 1.496.672 1.496 1.496 1.496 1.496-.672 1.496-1.496ZM311.684 292.723c0-.825-.668-1.493-1.493-1.493a1.494 1.494 0 1 0 1.492 1.492ZM343.543 50.723c0-.825-.668-1.493-1.492-1.493a1.495 1.495 0 1 0 0 2.989c.824 0 1.492-.668 1.492-1.496ZM274.648 140.516c0-.825-.668-1.496-1.496-1.496a1.495 1.495 0 1 0 1.496 1.496ZM257.695 162.61c0-.825-.668-1.493-1.492-1.493-.828 0-1.496.668-1.496 1.492 0 .825.668 1.496 1.496 1.496.824 0 1.492-.671 1.492-1.496Zm0 0"/><use xlink:href="#c" x="254.716" y="28.03"/><use xlink:href="#d" x="337.483" y="45.447"/><use xlink:href="#e" x="305.5" y="193.986"/><use xlink:href="#f" x="232.011" y="141.745"/><use xlink:href="#g" x="285.764" y="89.462"/><use xlink:href="#h" x="261.48" y="167.46"/><use xlink:href="#i" x="5.731" y="359.942"/><use xlink:href="#j" x="294.045" y="307.701"/><use xlink:href="#k" x="220.989" y="255.46"/><use xlink:href="#l" x="392.904" y="360.285"/><use xlink:href="#m" x="405.952" y="172.284"/><use xlink:href="#n" x="278.433" y="155.838"/><path fill="#b20000" stroke="#4c0000" stroke-miterlimit="10" stroke-width=".5985" d="M268.395 188.21a1.495 1.495 0 1 0-2.986-.001 1.495 1.495 0 0 0 2.986.002Zm0 0"/><use xlink:href="#o" x="272.18" y="193.06" fill="#7f0000"/></svg>