<svg xmlns="http://www.w3.org/2000/svg" xmlns:xlink="http://www.w3.org/1999/xlink" width="283.523" height="244.18" style="background-color:#fff" viewBox="0 0 283.523 244.18"><defs><path id="c" d="M5.625-.156c-.578-.047-.625-.14-.766-.86l-.937-5.64h-.25L.782-1.672C-.017-.344-.11-.234-.517-.156V0H1.36v-.156C.844-.203.766-.266.766-.516c0-.187.03-.265.203-.609L1.53-2.25h2.203l.188 1.297c.015.094.031.187.031.265 0 .375-.14.47-.781.532V0h2.453ZM1.75-2.61l1.484-2.594.438 2.594Zm0 0"/><path id="d" d="M1.453-6.344c.578.063.703.157.703.407 0 .14-.031.359-.156.796L.813-.89C.64-.297.563-.234 0-.156V0h2.438v-.156c-.626-.094-.672-.125-.672-.469 0-.11.015-.219.125-.578l.515-1.922c.25.063.516.078.922.078.813 0 1.485-.156 1.922-.469.484-.375.781-.921.781-1.515 0-.953-.75-1.485-2.11-1.485H1.454Zm1.75.407c.063-.204.188-.266.469-.266.39 0 .765.094.969.234.25.172.359.469.359.938 0 .656-.219 1.11-.656 1.375-.313.172-.703.25-1.328.25-.172 0-.25-.016-.516-.047Zm0 0"/><path id="e" d="M8.703-6.516H7.031L3.688-1.594 3.14-6.516H1.328v.172c.5.032.75.14.75.36 0 .078-.047.234-.11.406a3 3 0 0 0-.077.297.3.3 0 0 0-.032.125L.797-1.453C.484-.422.344-.22-.172-.156V0h1.969v-.156c-.516-.047-.703-.156-.703-.438 0-.11.031-.36.078-.531l1.187-4.312L2.953 0h.172l3.766-5.594L5.609-.906c-.171.531-.359.672-1.015.75V0h2.718v-.156c-.671-.063-.765-.125-.765-.438 0-.156.016-.297.11-.61L7.89-5.608c.172-.594.218-.657.812-.735Zm0 0"/><path id="f" d="M4.016-6.516h-2.72v.172c.61.047.767.14.767.422 0 .14-.032.375-.11.625L.734-.89c-.187.579-.25.625-.812.735V0H5l.578-1.781-.203-.063c-.344.719-.625 1.032-1.062 1.25-.344.172-.75.235-1.625.235-.75 0-1-.079-1-.344 0-.063.046-.297.093-.5L3.016-5.61c.14-.516.406-.703 1-.735Zm0 0"/><path id="g" d="M1.297-6.344c.61.047.766.14.766.407 0 .14-.032.39-.11.64L.734-.89c-.187.579-.25.625-.812.735V0h2.516c1.171 0 2.234-.312 3-.875.968-.703 1.546-1.797 1.546-2.953 0-1.64-1.14-2.688-2.921-2.688H1.297Zm1.828.422c.063-.219.203-.281.61-.281.562 0 1.062.125 1.374.36.5.359.766.984.766 1.78 0 1.079-.422 2.188-1.094 2.86-.593.61-1.406.906-2.437.906-.453 0-.656-.11-.656-.375 0-.125.062-.344.218-.937Zm0 0"/><path id="h" d="M6.313-6.516H1L.594-4.969l.172.032c.53-1.079.843-1.25 2.375-1.22L1.703-.89c-.156.516-.39.688-1.062.735V0h2.89v-.156c-.156-.016-.312-.031-.375-.031-.39-.032-.515-.125-.515-.422 0-.125.03-.25.125-.594L4.14-6.156h.547c.718 0 1.046.25 1.046.797 0 .14-.015.28-.03.453l.171.015Zm0 0"/><path id="i" d="M-.078 0h2.812c1.563 0 2.641-.812 2.641-2 0-.36-.125-.719-.344-.937-.203-.22-.39-.344-.922-.563.72-.172 1-.281 1.329-.562q.42-.375.421-.985c0-.937-.703-1.469-1.984-1.469H1.297v.172c.61.047.766.125.766.407 0 .14-.032.39-.11.64L.734-.89c-.187.579-.25.625-.812.735Zm2.453-3.297c.64 0 1.063.031 1.266.11.406.171.656.609.656 1.156 0 1.078-.734 1.734-1.953 1.734-.422 0-.64-.156-.64-.422 0-.125.124-.593.343-1.39.14-.453.203-.688.328-1.188m.75-2.64c.063-.22.172-.266.563-.266.796 0 1.171.328 1.171 1.062 0 .579-.25 1.016-.671 1.25-.344.204-.813.266-1.72.266Zm0 0"/><path id="j" d="M7.25-6.516H5.266v.172c.562.047.703.14.703.5 0 .125-.032.235-.094.438-.016.031-.016.078-.016.078L4.83-1.531 2.765-6.516h-1.61v.172c.469.032.672.157.86.547L.828-1.64C.453-.359.375-.234-.203-.156V0H1.78v-.156c-.515-.047-.703-.156-.703-.438 0-.125.031-.328.094-.531l1.125-4.203L4.594.156h.187l1.422-5.015c.375-1.297.422-1.344 1.047-1.485Zm0 0"/><path id="k" d="M-.078 0h2.437v-.156c-.578-.078-.687-.14-.687-.406 0-.188.016-.313.11-.641L3.015-5.61c.172-.578.25-.641.812-.735v-.172H1.36v.172c.579.063.704.14.704.422 0 .14-.032.375-.11.625L.734-.89c-.187.579-.25.625-.812.735Zm0 0"/><path id="l" d="m6.5-4.64.375-1.985h-.219c-.078.172-.172.219-.375.219a2 2 0 0 1-.406-.063c-.453-.11-.844-.172-1.172-.172-2.125 0-4.047 2-4.047 4.22 0 1.53 1.078 2.593 2.61 2.593 1.015 0 1.812-.438 2.718-1.484l-.171-.141c-.891.89-1.47 1.187-2.297 1.187-1.11 0-1.735-.765-1.735-2.046 0-1.188.469-2.391 1.25-3.204.485-.484 1.11-.765 1.766-.765.922 0 1.422.547 1.516 1.61Zm0 0"/><path id="m" d="M4.89-6.516H2.36v.172c.624.047.765.14.765.407 0 .14-.031.359-.11.64L1.704-.672c-.11.39-.25.547-.484.547-.235 0-.344-.14-.344-.406v-.235a.49.49 0 0 0-.469-.468c-.281 0-.468.218-.468.53 0 .532.468.876 1.171.876.5 0 .954-.188 1.266-.563.266-.312.469-.765.672-1.515L4.078-5.61c.172-.594.25-.657.813-.735Zm0 0"/><path id="n" d="M2.781.156c.766-.047 1.14-.14 1.703-.453C5.97-1.125 6.97-2.734 6.97-4.313c0-1.343-.953-2.328-2.282-2.328-.796 0-1.703.407-2.5 1.125-1 .938-1.593 2.141-1.593 3.313 0 .812.297 1.5.844 1.906.25.219.468.313.921.422-.906.797-1 .875-1.765 1.406l.094.157a2.25 2.25 0 0 1 1.14-.313c.203 0 .5.063.938.188.609.156 1.14.265 1.515.265.547 0 1.235-.266 1.75-.656.235-.188.375-.328.625-.688l-.14-.109c-.563.578-.97.766-1.688.766-.266 0-.469-.032-1.234-.22C3.078.798 2.609.704 2.547.72 2.516.734 2.5.734 2.5.734h-.25Zm1.86-6.468c.797 0 1.28.578 1.28 1.53 0 1.048-.468 2.516-1.109 3.438-.546.782-1.156 1.172-1.89 1.172-.813 0-1.281-.61-1.281-1.656 0-.938.5-2.422 1.093-3.297.563-.812 1.172-1.187 1.907-1.187m0 0"/><path id="o" d="M5.656-.156c-.437-.031-.64-.203-.828-.719l-.937-2.437c.78-.172 1.109-.313 1.468-.641.329-.281.5-.672.5-1.125 0-.922-.734-1.438-2.078-1.438H1.313v.172c.421.047.468.063.578.14.078.048.14.157.14.266 0 .125-.062.36-.125.641L.672-.89C.5-.312.422-.25-.125-.156V0h2.422v-.156c-.61-.078-.672-.14-.672-.469 0-.094.031-.219.125-.578l.547-2.078.656.047L4.172 0h1.484ZM3.078-5.937c.047-.204.188-.266.5-.266.828 0 1.235.375 1.235 1.11 0 .984-.641 1.5-1.875 1.5a2.3 2.3 0 0 1-.516-.063Zm0 0"/><clipPath id="a"><path d="M169 22h114.523v117H169Zm0 0"/></clipPath><clipPath id="b"><path d="M146 0h137.523v138H146Zm0 0"/></clipPath></defs><path fill="none" stroke="#007f00" stroke-miterlimit="10" stroke-width=".399" d="m163.762 91.266.742-5.621 5.617.738-.738 5.62-5.621-.737M215.887 126.09l-2.172-5.235 5.238-2.171 2.168 5.238-5.234 2.168"/><path fill="none" stroke="#7f0000" stroke-miterlimit="10" stroke-width=".399" d="m182.102 93.676.738-5.621 5.62.742-.737 5.621-5.621-.742"/><path fill="none" stroke="#000" stroke-linecap="round" stroke-linejoin="round" stroke-miterlimit="10" stroke-width=".797" d="m172.855 22.207-159.43 207.77h245.493Zm0 0"/><path fill="none" stroke="#000" stroke-linecap="round" stroke-miterlimit="10" stroke-width=".797" d="m13.426 229.977 173.562-173.57M172.855 22.207l-18.183 138.117M154.672 160.324l104.246 69.653M206.793 195.148l21.242-161.332M163.762 91.266l103.355 13.605"/><g clip-path="url(#a)"><path fill="none" stroke="#000" stroke-miterlimit="10" stroke-width=".797" d="M273.844 80.625c0-25.84-20.946-46.785-46.781-46.785-25.836 0-46.782 20.945-46.782 46.785 0 25.836 20.946 46.781 46.781 46.781 25.836 0 46.782-20.945 46.782-46.781Zm0 0"/></g><path fill="none" stroke="#000" stroke-linecap="round" stroke-miterlimit="10" stroke-width=".797" d="m163.762 91.266 43.031 103.882M228.035 33.816l-45.933 59.86"/><path fill="none" stroke="#000" stroke-dasharray="2.98883 1.99255" stroke-linecap="round" stroke-miterlimit="10" stroke-width=".797" d="m182.102 93.676-11.301 14.73"/><g clip-path="url(#b)"><path fill="none" stroke="#00b200" stroke-dasharray="2.98883 1.99255" stroke-miterlimit="10" stroke-width=".797" d="M282.625 63.54c0-34.599-28.043-62.642-62.64-62.642-34.594 0-62.641 28.043-62.641 62.641 0 34.594 28.047 62.64 62.64 62.64 34.598 0 62.641-28.046 62.641-62.64Zm0 0"/></g><path fill="none" stroke="#00b200" stroke-dasharray="2.98883 1.99255" stroke-linecap="round" stroke-miterlimit="10" stroke-width=".797" d="m215.887 126.09 51.23-21.219"/><path fill="none" stroke="#00f" stroke-dasharray="2.98883 1.99255" stroke-linecap="round" stroke-miterlimit="10" stroke-width=".797" d="m154.672 160.324 32.316-103.918"/><path fill="none" stroke="red" stroke-dasharray="2.98883 1.99255" stroke-linecap="round" stroke-miterlimit="10" stroke-width=".797" d="m186.988 56.406-9.054 69.067"/><path stroke="#000" stroke-miterlimit="10" stroke-width=".399" d="M173.852 22.207c0-.55-.446-1-.997-1a.999.999 0 0 0 0 1.996c.551 0 .997-.45.997-.996ZM14.422 229.977a.995.995 0 1 0-1.99-.002.995.995 0 0 0 1.99.002ZM259.914 229.977a.998.998 0 0 0-1.996 0 .999.999 0 0 0 1.996 0ZM187.984 56.406a.995.995 0 1 0-1.99-.001.995.995 0 0 0 1.99.001ZM155.668 160.324c0-.55-.445-1-.996-1a.999.999 0 0 0 0 1.996c.55 0 .996-.449.996-.996ZM268.113 104.871a.995.995 0 1 0-1.99-.002.995.995 0 0 0 1.99.002ZM164.758 91.266c0-.551-.446-1-.996-1a.999.999 0 0 0 0 1.996c.55 0 .996-.45.996-.996ZM216.883 126.09a.995.995 0 1 0-1.99-.002.995.995 0 0 0 1.99.002ZM207.79 195.148a.995.995 0 1 0-1.991-.001.995.995 0 0 0 1.99.001ZM229.031 33.816a.995.995 0 1 0-1.994-.002.995.995 0 0 0 1.994.002ZM183.098 93.676a1 1 0 0 0-.996-.996.995.995 0 1 0 .996.996ZM171.797 108.406a.995.995 0 1 0-1.99-.001.995.995 0 0 0 1.99.001Zm0 0"/><use xlink:href="#c" x="169.81" y="18.687"/><use xlink:href="#d" x="224.989" y="30.298"/><use xlink:href="#e" x="203.667" y="129.324"/><use xlink:href="#f" x="154.674" y="94.497"/><use xlink:href="#g" x="190.509" y="59.641"/><use xlink:href="#h" x="174.32" y="111.64"/><use xlink:href="#i" x="3.82" y="239.961"/><use xlink:href="#j" x="196.03" y="205.134"/><use xlink:href="#k" x="147.326" y="170.307"/><use xlink:href="#l" x="261.936" y="240.19"/><use xlink:href="#m" x="270.635" y="114.856"/><use xlink:href="#n" x="185.622" y="103.892"/><path fill="#b20000" stroke="#4c0000" stroke-miterlimit="10" stroke-width=".399" d="M178.93 125.473a1 1 0 0 0-.996-.996.995.995 0 1 0 .996.996Zm0 0"/><use xlink:href="#o" x="181.453" y="128.707" fill="#7f0000"/></svg>