<svg xmlns="http://www.w3.org/2000/svg" xmlns:xlink="http://www.w3.org/1999/xlink" width="545.242" height="503.666" viewBox="0 0 408.932 377.75"><defs><path id="a" d="M8.422-.234c-.844-.078-.938-.203-1.125-1.297L5.89-9.984H5.5L1.172-2.516C-.016-.516-.172-.359-.766-.234V0h2.797v-.234c-.765-.078-.875-.157-.875-.532 0-.28.032-.421.297-.921l.844-1.688h3.297l.297 1.953c.015.14.03.266.03.39 0 .563-.218.704-1.171.798V0h3.672ZM2.609-3.906l2.25-3.89.657 3.89Zm0 0"/><path id="b" d="M6.016-9.75H1.938v.234c.937.094 1.156.204 1.156.641 0 .219-.063.563-.172.922l-1.828 6.61C.828-.485.719-.392-.125-.235V0h7.61l.859-2.672-.297-.094C7.53-1.687 7.125-1.203 6.469-.875c-.532.25-1.14.344-2.438.344-1.14 0-1.5-.125-1.5-.516 0-.11.063-.469.14-.75l1.845-6.61c.218-.765.609-1.046 1.5-1.109Zm0 0"/><path id="c" d="M-.125 0h3.656v-.234c-.86-.11-1.015-.203-1.015-.61 0-.297.03-.468.156-.953l1.844-6.61c.265-.874.375-.952 1.218-1.109v-.234H2.047v.234c.86.11 1.047.22 1.047.641 0 .219-.063.563-.172.922l-1.828 6.61C.828-.485.719-.392-.125-.235Zm0 0"/><path id="d" d="M1.938-9.516c.937.094 1.156.204 1.156.61 0 .234-.063.594-.172.953l-1.828 6.61C.828-.485.719-.392-.125-.235V0h3.781C5.406 0 7-.469 8.156-1.297 9.61-2.359 10.453-4 10.453-5.734c0-2.453-1.703-4.016-4.36-4.016H1.939Zm2.734.641c.094-.328.312-.437.922-.437.843 0 1.593.203 2.062.562.735.531 1.14 1.469 1.14 2.656 0 1.61-.624 3.282-1.64 4.297-.875.906-2.093 1.344-3.64 1.344-.688 0-.97-.156-.97-.547 0-.187.063-.531.329-1.422Zm0 0"/><path id="e" d="M9.469-9.75H2.047v.234c.922.094 1.156.204 1.156.61 0 .172-.094.687-.172.953l-1.844 6.61C.938-.5.829-.392-.016-.235V0h7.579l.921-2.422-.234-.125c-.703.969-1.094 1.36-1.734 1.656-.563.25-1.578.391-2.688.391-.844 0-1.203-.14-1.203-.5 0-.172.172-.86.547-2.187.187-.657.328-1.141.469-1.72.53.032.984.048 1.172.048.578-.016 1 .078 1.156.234.078.063.11.203.11.453 0 .266-.032.453-.11.781l.312.079 1.016-3.47-.281-.062c-.563 1.266-.703 1.36-2.063 1.422-.172 0-.656.016-1.172.031l.985-3.484c.093-.328.25-.39 1.093-.39 2.344 0 2.86.203 2.86 1.093 0 .188-.016.422-.031.672L9-7.469Zm0 0"/><path id="f" d="M9.453-9.75H1.516L.875-7.453l.281.062C1.938-9 2.422-9.266 4.703-9.234l-2.156 7.89C2.312-.547 1.953-.312.969-.234V0h4.328v-.234c-.25-.016-.469-.047-.563-.047-.593-.047-.78-.188-.78-.625 0-.203.046-.375.187-.89l2.078-7.438h.812c1.078 0 1.563.375 1.563 1.218 0 .188-.016.407-.047.672l.25.032Zm0 0"/><path id="g" d="M-.125 0h4.219c2.343 0 3.953-1.219 3.953-2.984 0-.563-.172-1.078-.5-1.407-.297-.343-.594-.53-1.375-.859 1.062-.25 1.484-.422 1.969-.844.422-.36.64-.86.64-1.468 0-1.422-1.062-2.188-2.984-2.188h-3.86v.234c.938.079 1.157.188 1.157.61 0 .234-.063.594-.172.953l-1.828 6.61C.828-.485.719-.392-.125-.235Zm3.688-4.937c.968 0 1.593.046 1.89.171.61.25.984.907.984 1.72 0 1.608-1.109 2.593-2.921 2.593-.625 0-.97-.219-.97-.625 0-.172.188-.89.532-2.094.188-.672.281-1.015.485-1.765m1.109-3.954c.094-.328.266-.421.86-.421 1.187 0 1.75.515 1.75 1.624 0 .844-.36 1.5-1 1.86-.516.297-1.235.406-2.579.406Zm0 0"/><path id="h" d="M10.86-9.75H7.89v.234c.844.079 1.048.22 1.048.766 0 .172-.032.36-.141.656-.016.047-.031.11-.031.11L7.25-2.297 4.14-9.75H1.735v.234c.704.063 1.016.25 1.282.844L1.234-2.453C.672-.531.547-.36-.296-.234V0h2.952v-.234C1.891-.297 1.61-.47 1.61-.875c0-.203.047-.5.141-.812l1.703-6.297L6.891.219h.265l2.157-7.516c.546-1.922.609-2.016 1.546-2.219Zm0 0"/><path id="i" d="m9.734-6.953.563-2.969h-.313c-.125.25-.28.328-.578.328-.11 0-.297-.031-.61-.094-.671-.171-1.265-.265-1.75-.265-3.171 0-6.062 3-6.062 6.328 0 2.281 1.61 3.89 3.907 3.89 1.53 0 2.734-.656 4.078-2.218l-.266-.219C7.36-.844 6.5-.406 5.266-.406c-1.657 0-2.61-1.125-2.61-3.063 0-1.781.719-3.578 1.89-4.797.72-.734 1.657-1.14 2.641-1.14 1.375 0 2.141.797 2.282 2.422Zm0 0"/><path id="j" d="M9.64-9.75H2.204v.234c.969.094 1.14.188 1.14.61 0 .234-.062.594-.155.953l-1.844 6.61C1.078-.454.969-.36.125-.235V0h3.766v-.234C3.016-.281 2.75-.454 2.75-.891c0-.125.047-.343.14-.671l.922-3.344c.547.031.876.047 1.204.047.578 0 .687.015.828.078.218.125.328.312.328.61 0 .25-.031.421-.125.89l.25.062 1.14-3.484-.265-.078c-.672 1.343-.719 1.36-3.234 1.39l.984-3.484c.094-.297.312-.39.922-.39 2.5 0 3.047.203 3.047 1.124 0 .094 0 .157-.016.36-.016.093-.016.11-.031.281l.312.031Zm0 0"/><path id="k" d="m6.984-6.984.61-2.985H7.25c-.219.313-.344.39-.672.39-.187 0-.344-.046-.687-.155-.328-.141-.813-.22-1.282-.22-1.546 0-2.656 1.032-2.656 2.5 0 .813.234 1.235 1.125 2.188.14.141.328.344.578.641.266.281.485.5.594.625.688.734.89 1.11.89 1.766C5.14-1.125 4.298-.25 3.22-.25c-1.25 0-2.188-1.062-2.188-2.484 0-.125.016-.235.032-.344L.766-3.11.25.219h.266c.109-.344.28-.485.578-.485.156 0 .39.063.765.188.688.25 1.094.344 1.563.344 1.719 0 3.016-1.297 3.016-2.985 0-.969-.344-1.547-1.688-2.906S3.266-7.203 3.266-7.937c0-.938.64-1.516 1.656-1.516.547 0 1.016.187 1.328.547.328.375.438.89.469 1.875Zm0 0"/><path id="l" d="M10.781-9.75H7.47v.234c.172.016.343.047.406.047.36.031.5.125.5.281 0 .36-.812 1.172-2.14 2.094L3.952-5.516l.797-2.89c.219-.75.625-1.047 1.516-1.11v-.234H2.188v.234c.921.094 1.14.204 1.14.641 0 .219-.062.563-.156.922l-1.844 6.61C1.062-.454.984-.376.11-.235V0h3.704v-.234c-.938-.11-1.079-.203-1.079-.657 0-.156.032-.296.125-.593l.079-.313.937-3.406 1.797 3.11c.36.609.578 1.14.578 1.421 0 .219-.219.344-.687.39-.079 0-.25.016-.438.048V0h4.11v-.234c-.938-.094-1.032-.141-1.454-.844L5.188-5.594l4.484-3.39c.406-.313.75-.47 1.11-.532Zm0 0"/><path id="m" d="M2.797-5.25c.062-.14.094-.234.094-.344 0-.328-.282-.593-.625-.593-.313 0-.5.218-.578.5L.359-.86c0 .03-.03.156-.03.156 0 .125.28.203.374.203.063 0 .078-.031.14-.172Zm0 0"/></defs><path fill="none" stroke="red" stroke-miterlimit="10" stroke-width=".5985" d="m269.57 83.266-6.011-6.012-6.012 6.012 6.012 6.015 6.011-6.015M215.125 356.445l1.11-8.433-8.442-1.028-1.11 8.434 8.442 1.027M274.59 58.09l-7.86 3.246-3.246-7.856 7.86-3.25 3.246 7.86M328.535 188.242l-7.855 3.254-3.254-7.855 7.855-3.254 3.254 7.855"/><path fill="none" stroke="#000" stroke-linecap="round" stroke-linejoin="round" stroke-miterlimit="10" stroke-width="1.1955" d="M259.281 21.05 20.141 332.708h368.234Zm0 0"/><path fill="none" stroke="#000" stroke-linecap="round" stroke-miterlimit="10" stroke-width="1.1955" d="M20.14 332.707 280.485 72.352M259.281 21.05l-27.273 207.177M232.008 228.227l156.367 104.48"/><path fill="none" stroke="#000" stroke-miterlimit="10" stroke-width="1.1955" d="M276.34 66.918c0-12.766-10.348-23.113-23.117-23.113-12.766 0-23.114 10.347-23.114 23.113 0 12.77 10.348 23.117 23.114 23.117 12.77 0 23.117-10.347 23.117-23.117Zm0 0"/><path fill="none" stroke="#000" stroke-linecap="round" stroke-miterlimit="10" stroke-width="1.1955" d="m245.645 124.637 64.546 155.828M274.59 58.09l-5.02 25.176"/><path fill="none" stroke="#000" stroke-dasharray="4.483245 2.9888250000000003" stroke-linecap="round" stroke-miterlimit="10" stroke-width="1.1955" d="m269.57 83.266-13.367 67.086"/><path fill="none" stroke="#00b200" stroke-dasharray="4.483245 2.9888250000000003" stroke-linecap="round" stroke-miterlimit="10" stroke-width="1.1955" d="m232.008 228.227-16.883 128.218M256.203 150.352l-41.078 206.093M20.14 332.707 253.224 66.918"/><path fill="none" stroke="red" stroke-dasharray="4.483245 2.9888250000000003" stroke-linecap="round" stroke-miterlimit="10" stroke-width="1.1955" d="m253.223 66.918 16.347 16.348M20.14 332.707l194.985 23.738M253.223 66.918l21.367-8.828M232.008 228.227l96.527-39.985"/><path fill="none" stroke="#00f" stroke-dasharray="4.483245 2.9888250000000003" stroke-linecap="round" stroke-miterlimit="10" stroke-width="1.1955" d="m232.008 228.227 48.476-155.875"/><path stroke="#000" stroke-miterlimit="10" stroke-width=".5985" d="M260.777 21.05a1.493 1.493 0 1 0-2.988 0c0 .825.668 1.493 1.492 1.493s1.496-.668 1.496-1.492ZM21.633 332.707c0-.824-.668-1.492-1.492-1.492-.829 0-1.496.668-1.496 1.492s.667 1.496 1.496 1.496c.824 0 1.492-.672 1.492-1.496ZM389.867 332.707c0-.824-.668-1.492-1.492-1.492s-1.496.668-1.496 1.492.672 1.496 1.496 1.496 1.492-.672 1.492-1.496ZM281.98 72.352a1.495 1.495 0 0 0-2.988 0c0 .828.668 1.496 1.492 1.496.825 0 1.496-.668 1.496-1.496ZM276.086 58.09c0-.824-.672-1.496-1.496-1.496s-1.496.672-1.496 1.496.672 1.496 1.496 1.496 1.496-.672 1.496-1.496ZM271.066 83.266c0-.825-.668-1.493-1.496-1.493-.824 0-1.492.668-1.492 1.493a1.494 1.494 0 1 0 2.988 0ZM233.5 228.227a1.494 1.494 0 1 0-2.99-.005 1.494 1.494 0 0 0 2.99.005ZM247.137 124.637c0-.824-.668-1.492-1.492-1.492a1.495 1.495 0 1 0 0 2.988c.824 0 1.492-.668 1.492-1.496ZM311.684 280.465c0-.824-.668-1.492-1.493-1.492a1.494 1.494 0 1 0 1.492 1.492ZM257.695 150.352c0-.825-.668-1.493-1.492-1.493-.828 0-1.496.668-1.496 1.493 0 .824.668 1.496 1.496 1.496.824 0 1.492-.672 1.492-1.496Zm0 0"/><path fill="#00b200" stroke="#004c00" stroke-miterlimit="10" stroke-width=".5985" d="M216.621 356.445a1.494 1.494 0 1 0-2.987-.004 1.494 1.494 0 0 0 2.987.004ZM254.719 66.918c0-.824-.668-1.492-1.496-1.492-.825 0-1.493.668-1.493 1.492a1.494 1.494 0 1 0 2.988 0ZM330.027 188.242c0-.824-.668-1.496-1.492-1.496s-1.496.672-1.496 1.496.672 1.496 1.496 1.496 1.492-.672 1.492-1.496Zm0 0"/><path fill="#00adef" fill-opacity=".3" d="M259.281 21.05 20.141 332.708 253.223 66.918Zm0 0"/><path fill="#ec008c" fill-opacity=".3" d="m245.645 124.637 10.558 25.715-41.078 206.093Zm0 0"/><use xlink:href="#a" x="254.716" y="15.774"/><use xlink:href="#b" x="232.011" y="129.489"/><use xlink:href="#c" x="220.989" y="233.076"/><use xlink:href="#d" x="285.764" y="77.205"/><use xlink:href="#e" x="279.868" y="62.941"/><use xlink:href="#f" x="261.48" y="155.202"/><use xlink:href="#g" x="5.731" y="347.685"/><use xlink:href="#h" x="294.045" y="295.445"/><use xlink:href="#i" x="392.904" y="348.029"/><use xlink:href="#j" x="274.851" y="98.247"/><use xlink:href="#k" x="211.331" y="371.764" fill="#007f00"/><use xlink:href="#l" x="258.504" y="71.772" fill="#007f00"/><use xlink:href="#e" x="333.813" y="193.98" fill="#007f00"/><use xlink:href="#m" x="344.034" y="188.556" fill="#007f00"/></svg>