<svg xmlns="http://www.w3.org/2000/svg" xmlns:xlink="http://www.w3.org/1999/xlink" width="447.046" height="366.254" viewBox="0 0 335.284 274.69"><defs><path id="a" d="M5.656-10.25c-.578 0-1.218.234-1.86.703-1.155.828-1.968 2.438-2.312 4.531-.328 1.954-.093 3.485.641 4.344.484.547 1.14.86 1.781.86.594 0 1.219-.235 1.86-.704 1.125-.812 1.968-2.406 2.312-4.421.344-2.047.11-3.579-.64-4.438-.5-.562-1.125-.875-1.782-.875m.828 5.594c-.312 1.703-.656 2.672-1.218 3.468C4.922-.733 4.375-.39 4-.39s-.797-.359-.969-.796c-.312-.797-.328-1.766-.062-3.47ZM3.11-5.5c.282-1.625.657-2.61 1.204-3.39.328-.438.875-.797 1.25-.797s.812.359.984.796c.297.782.312 1.766.078 3.391Zm0 0"/><path id="b" d="M3.406-1.844c-.14.172-.265.328-.406.516-.469.625-.766.844-1.031.844-.14 0-.219-.094-.219-.266 0-.094.047-.281.11-.578.015-.047.03-.125.046-.156l2.266-8.641-.078-.078c-.875.187-1.453.297-2.328.406v.235c.718 0 1.015.109 1.015.343a.9.9 0 0 1-.062.266L.672-1.063a2 2 0 0 0-.078.391c0 .531.25.844.734.844.781 0 1.297-.438 2.266-1.875Zm0 0"/><path id="c" d="M8.422-.234c-.844-.078-.938-.203-1.125-1.297L5.89-9.984H5.5L1.172-2.516C-.016-.516-.172-.359-.766-.234V0h2.797v-.234c-.765-.078-.875-.157-.875-.532 0-.28.032-.421.297-.921l.844-1.688h3.297l.297 1.953c.015.14.03.266.03.39 0 .563-.218.704-1.171.798V0h3.672ZM2.609-3.906l2.25-3.89.657 3.89Zm0 0"/><path id="d" d="M-.125 0h3.656v-.234c-.86-.11-1.015-.203-1.015-.61 0-.297.03-.468.156-.953l1.844-6.61c.265-.874.375-.952 1.218-1.109v-.234H2.047v.234c.86.11 1.047.22 1.047.641 0 .219-.063.563-.172.922l-1.828 6.61C.828-.485.719-.392-.125-.235Zm0 0"/><path id="e" d="M1.36-9.516c.843.125.874.172 1.14.985l1.14 4.015-.906 3.172c-.25.813-.578 1.047-1.562 1.11V0h4.312v-.234a8 8 0 0 1-.546-.047c-.579-.031-.782-.188-.782-.563 0-.312.094-.75.453-1.922.047-.125.079-.234.094-.296l.438-1.516L8.406-8.61c.485-.594.594-.703 1.047-.907v-.234H6.625v.234c.188.016.344.032.406.047.438.047.625.156.625.422 0 .39-.687 1.375-2.234 3.172-.25.297-.344.422-.563.688-.187-.657-.234-.844-.468-1.641-.375-1.281-.532-1.922-.532-2.156 0-.344.172-.438 1.063-.532v-.234H1.359Zm0 0"/><path id="f" d="M8.469-.234c-.656-.047-.953-.297-1.235-1.078L5.844-4.97c1.14-.265 1.64-.468 2.172-.953.5-.422.765-1.016.765-1.687 0-1.391-1.11-2.141-3.11-2.141H1.97v.234c.625.094.703.11.86.204.108.078.202.265.202.421 0 .188-.078.547-.172.938l-1.843 6.61C.75-.47.64-.376-.187-.235V0h3.64v-.234C2.547-.36 2.438-.437 2.438-.922c0-.156.046-.344.171-.875l.844-3.125.969.078L6.266 0h2.203ZM4.594-8.891c.093-.312.297-.421.765-.421 1.25 0 1.86.578 1.86 1.671 0 1.485-.953 2.25-2.828 2.25-.235 0-.407-.015-.766-.078Zm0 0"/><path id="g" d="M9.453-9.75H1.516L.875-7.453l.281.062C1.938-9 2.422-9.266 4.703-9.234l-2.156 7.89C2.312-.547 1.953-.312.969-.234V0h4.328v-.234c-.25-.016-.469-.047-.563-.047-.593-.047-.78-.188-.78-.625 0-.203.046-.375.187-.89l2.078-7.438h.812c1.078 0 1.563.375 1.563 1.218 0 .188-.016.407-.047.672l.25.032Zm0 0"/><path id="h" d="M9.781-9.75h-3.11v.234c.735.094.923.188.923.532 0 .203-.094.375-.297.625L5.125-5.875 4.25-8.062c-.172-.391-.234-.641-.234-.844 0-.375.234-.5 1.062-.61v-.234H1.141v.234c.859.079 1.078.22 1.375.907l1.578 3.937c-.547.625-1.047 1.203-1.235 1.453C.781-.78.36-.406-.437-.234V0h3.203v-.234c-.72 0-.97-.141-.97-.516 0-.219.11-.469.313-.703l2.25-2.563 1 2.47c.11.265.172.5.172.718 0 .437-.156.516-1.14.594V0h4.078v-.234c-1.047-.125-1.172-.22-1.547-1.11L5.39-5.204l2.53-2.89c.766-.875 1.22-1.219 1.86-1.422Zm0 0"/><path id="i" d="M9.64-9.75H2.204v.234c.969.094 1.14.188 1.14.61 0 .234-.062.594-.155.953l-1.844 6.61C1.078-.454.969-.36.125-.235V0h3.766v-.234C3.016-.281 2.75-.454 2.75-.891c0-.125.047-.343.14-.671l.922-3.344c.547.031.876.047 1.204.047.578 0 .687.015.828.078.218.125.328.312.328.61 0 .25-.031.421-.125.89l.25.062 1.14-3.484-.265-.078c-.672 1.343-.719 1.36-3.234 1.39l.984-3.484c.094-.297.312-.39.922-.39 2.5 0 3.047.203 3.047 1.124 0 .094 0 .157-.016.36-.016.093-.016.11-.031.281l.312.031Zm0 0"/><path id="j" d="M-.125 0h4.219c2.343 0 3.953-1.219 3.953-2.984 0-.563-.172-1.078-.5-1.407-.297-.343-.594-.53-1.375-.859 1.062-.25 1.484-.422 1.969-.844.422-.36.64-.86.64-1.468 0-1.422-1.062-2.188-2.984-2.188h-3.86v.234c.938.079 1.157.188 1.157.61 0 .234-.063.594-.172.953l-1.828 6.61C.828-.485.719-.392-.125-.235Zm3.688-4.937c.968 0 1.593.046 1.89.171.61.25.984.907.984 1.72 0 1.608-1.109 2.593-2.921 2.593-.625 0-.97-.219-.97-.625 0-.172.188-.89.532-2.094.188-.672.281-1.015.485-1.765m1.109-3.954c.094-.328.266-.421.86-.421 1.187 0 1.75.515 1.75 1.624 0 .844-.36 1.5-1 1.86-.516.297-1.235.406-2.579.406Zm0 0"/><path id="k" d="M9.469-9.75H2.047v.234c.922.094 1.156.204 1.156.61 0 .172-.094.687-.172.953l-1.844 6.61C.938-.5.829-.392-.016-.235V0h7.579l.921-2.422-.234-.125c-.703.969-1.094 1.36-1.734 1.656-.563.25-1.578.391-2.688.391-.844 0-1.203-.14-1.203-.5 0-.172.172-.86.547-2.187.187-.657.328-1.141.469-1.72.53.032.984.048 1.172.048.578-.016 1 .078 1.156.234.078.063.11.203.11.453 0 .266-.032.453-.11.781l.312.079 1.016-3.47-.281-.062c-.563 1.266-.703 1.36-2.063 1.422-.172 0-.656.016-1.172.031l.985-3.484c.093-.328.25-.39 1.093-.39 2.344 0 2.86.203 2.86 1.093 0 .188-.016.422-.031.672L9-7.469Zm0 0"/><path id="l" d="m6.984-6.984.61-2.985H7.25c-.219.313-.344.39-.672.39-.187 0-.344-.046-.687-.155-.328-.141-.813-.22-1.282-.22-1.546 0-2.656 1.032-2.656 2.5 0 .813.234 1.235 1.125 2.188.14.141.328.344.578.641.266.281.485.5.594.625.688.734.89 1.11.89 1.766C5.14-1.125 4.298-.25 3.22-.25c-1.25 0-2.188-1.062-2.188-2.484 0-.125.016-.235.032-.344L.766-3.11.25.219h.266c.109-.344.28-.485.578-.485.156 0 .39.063.765.188.688.25 1.094.344 1.563.344 1.719 0 3.016-1.297 3.016-2.985 0-.969-.344-1.547-1.688-2.906S3.266-7.203 3.266-7.937c0-.938.64-1.516 1.656-1.516.547 0 1.016.187 1.328.547.328.375.438.89.469 1.875Zm0 0"/><path id="m" d="m9.734-6.953.563-2.969h-.313c-.125.25-.28.328-.578.328-.11 0-.297-.031-.61-.094-.671-.171-1.265-.265-1.75-.265-3.171 0-6.062 3-6.062 6.328 0 2.281 1.61 3.89 3.907 3.89 1.53 0 2.734-.656 4.078-2.218l-.266-.219C7.36-.844 6.5-.406 5.266-.406c-1.657 0-2.61-1.125-2.61-3.063 0-1.781.719-3.578 1.89-4.797.72-.734 1.657-1.14 2.641-1.14 1.375 0 2.141.797 2.282 2.422Zm0 0"/></defs><path fill="none" stroke="red" stroke-miterlimit="10" stroke-width=".5985" d="M107.293 168.719c-1.805 5.367-.82 11.285 2.262 15.3"/><path fill="none" stroke="red" stroke-linecap="round" stroke-linejoin="round" stroke-miterlimit="10" stroke-width=".5984601" d="M110.691 179.61c-1.363 1.757-1.398 3.382-.953 4.648-1.11-.758-2.683-1.145-4.738-.285"/><use xlink:href="#a" x="91.401" y="183.697" fill="red"/><path fill="none" stroke="red" stroke-miterlimit="10" stroke-width=".5985" d="M139.125 180.648c2.168-5.23 1.586-11.199-1.215-15.418"/><path fill="none" stroke="red" stroke-linecap="round" stroke-linejoin="round" stroke-miterlimit="10" stroke-width=".59846808" d="M136.477 169.555c1.48-1.664 1.625-3.282 1.27-4.575 1.054.832 2.6 1.325 4.706.606"/><use xlink:href="#a" x="146.169" y="176.488" fill="red"/><path fill="none" stroke="#000" stroke-linecap="round" stroke-linejoin="round" stroke-miterlimit="10" stroke-width="1.1955" d="M82.39 21.05 20.14 253.388h294.587Zm0 0"/><path fill="none" stroke="#000" stroke-linecap="round" stroke-miterlimit="10" stroke-width="1.1955" d="M123.414 174.14 20.141 253.388M123.414 174.14l191.313 79.247M123.414 174.14l67.348-44.722M123.414 174.14l-75.262-25.304M20.14 253.387l170.622-34.528M314.727 253.387 48.152 199.445M17.113 174.14h297.64"/><use xlink:href="#b" x="6.918" y="168.696"/><path fill="none" stroke="#00b200" stroke-dasharray="4.483245 2.9888250000000003" stroke-miterlimit="10" stroke-width="1.1955" d="M202.656 174.14c0-43.765-35.476-79.245-79.242-79.245-43.77 0-79.246 35.48-79.246 79.246s35.477 79.246 79.246 79.246c43.766 0 79.242-35.48 79.242-79.246Zm0 0"/><path stroke="#000" stroke-miterlimit="10" stroke-width=".5985" d="M83.887 21.05c0-.823-.668-1.495-1.496-1.495a1.495 1.495 0 1 0 1.496 1.496ZM21.633 253.387a1.494 1.494 0 1 0-2.99-.005 1.494 1.494 0 0 0 2.99.005ZM316.223 253.387a1.493 1.493 0 1 0-2.988 0c0 .824.667 1.492 1.492 1.492.824 0 1.496-.668 1.496-1.492ZM192.258 129.418a1.495 1.495 0 1 0-2.991.006 1.495 1.495 0 0 0 2.99-.006ZM49.648 148.836a1.493 1.493 0 1 0-2.988 0c0 .824.668 1.492 1.492 1.492.825 0 1.496-.668 1.496-1.492ZM124.906 174.14a1.495 1.495 0 1 0-2.99 0 1.495 1.495 0 0 0 2.99 0ZM192.258 218.86a1.495 1.495 0 1 0-2.991.006 1.495 1.495 0 0 0 2.99-.007ZM49.648 199.445a1.495 1.495 0 1 0-2.99.007 1.495 1.495 0 0 0 2.99-.007Zm0 0"/><path fill="#00b200" stroke="#004c00" stroke-miterlimit="10" stroke-width=".5985" d="M124.906 253.387a1.494 1.494 0 1 0-2.99-.005 1.494 1.494 0 0 0 2.99.005ZM180.941 118.105c0-.824-.668-1.492-1.492-1.492-.828 0-1.496.668-1.496 1.492 0 .825.668 1.497 1.496 1.497.824 0 1.492-.672 1.492-1.497ZM48.363 153.629a1.495 1.495 0 0 0-2.988 0c0 .828.668 1.496 1.492 1.496s1.496-.668 1.496-1.496Zm0 0"/><use xlink:href="#c" x="77.829" y="15.773"/><use xlink:href="#d" x="120.544" y="168.859"/><use xlink:href="#e" x="42.678" y="194.166"/><use xlink:href="#f" x="118.848" y="268.362"/><use xlink:href="#g" x="31.383" y="158.48"/><use xlink:href="#h" x="196.041" y="223.71"/><use xlink:href="#i" x="32.49" y="143.554"/><use xlink:href="#j" x="5.731" y="268.362"/><use xlink:href="#k" x="196.041" y="124.14"/><use xlink:href="#l" x="184.728" y="112.572"/><use xlink:href="#m" x="319.259" y="268.705"/></svg>