<svg xmlns="http://www.w3.org/2000/svg" xmlns:xlink="http://www.w3.org/1999/xlink" width="298.031" height="244.169" viewBox="0 0 223.523 183.127"><defs><path id="a" d="M3.766-6.844c-.375 0-.813.172-1.235.469C1.766-5.828 1.22-4.75.984-3.344c-.218 1.297-.062 2.328.438 2.89.328.376.766.579 1.187.579.391 0 .797-.156 1.235-.469.765-.547 1.312-1.61 1.531-2.953.234-1.375.094-2.39-.406-2.969-.328-.359-.75-.578-1.203-.578m.562 3.735c-.219 1.14-.437 1.78-.812 2.312-.235.313-.594.531-.844.531s-.547-.234-.64-.53c-.22-.532-.235-1.173-.063-2.313Zm-2.266-.563c.204-1.078.454-1.734.813-2.265.219-.297.578-.532.828-.532s.547.235.656.532c.204.53.22 1.187.063 2.265Zm0 0"/><path id="b" d="M2.266-1.219C2.187-1.109 2.094-1 2-.89c-.312.422-.5.579-.687.579-.094 0-.141-.079-.141-.188 0-.062.031-.187.078-.39 0-.032.016-.079.031-.094l1.5-5.782-.047-.046c-.593.14-.968.203-1.562.265v.172c.484 0 .687.063.687.219a.8.8 0 0 1-.046.187L.452-.703c-.031.11-.047.203-.047.25 0 .36.156.562.485.562.515 0 .859-.28 1.515-1.25Zm0 0"/><path id="c" d="M5.625-.156c-.578-.047-.625-.14-.766-.86l-.937-5.64h-.25L.782-1.672C-.017-.344-.11-.234-.517-.156V0H1.36v-.156C.844-.203.766-.266.766-.516c0-.187.03-.265.203-.609L1.53-2.25h2.203l.188 1.297c.015.094.031.187.031.265 0 .375-.14.47-.781.532V0h2.453ZM1.75-2.61l1.484-2.594.438 2.594Zm0 0"/><path id="d" d="M-.078 0h2.437v-.156c-.578-.078-.687-.14-.687-.406 0-.188.016-.313.11-.641L3.015-5.61c.172-.578.25-.641.812-.735v-.172H1.36v.172c.579.063.704.14.704.422 0 .14-.032.375-.11.625L.734-.89c-.187.579-.25.625-.812.735Zm0 0"/><path id="e" d="M.906-6.344c.563.078.594.11.766.657l.766 2.671-.61 2.125c-.172.532-.39.688-1.047.735V0h2.875v-.156c-.156-.016-.297-.016-.36-.031-.39-.016-.53-.125-.53-.375 0-.204.078-.5.312-1.282.031-.093.047-.156.063-.203l.28-1L5.61-5.734c.329-.407.407-.47.704-.61v-.172H4.422v.172c.125 0 .234.016.266.032.296.015.421.109.421.265 0 .281-.453.922-1.484 2.125-.172.203-.234.281-.39.469-.11-.438-.141-.578-.297-1.11-.25-.843-.36-1.28-.36-1.421 0-.25.11-.313.719-.36v-.172H.907Zm0 0"/><path id="f" d="M5.656-.156c-.437-.031-.64-.203-.828-.719l-.937-2.437c.78-.172 1.109-.313 1.468-.641.329-.281.5-.672.5-1.125 0-.922-.734-1.438-2.078-1.438H1.313v.172c.421.047.468.063.578.14.078.048.14.157.14.266 0 .125-.062.36-.125.641L.672-.89C.5-.312.422-.25-.125-.156V0h2.422v-.156c-.61-.078-.672-.14-.672-.469 0-.094.031-.219.125-.578l.547-2.078.656.047L4.172 0h1.484ZM3.078-5.937c.047-.204.188-.266.5-.266.828 0 1.235.375 1.235 1.11 0 .984-.641 1.5-1.875 1.5a2.3 2.3 0 0 1-.516-.063Zm0 0"/><path id="g" d="M6.313-6.516H1L.594-4.969l.172.032c.53-1.079.843-1.25 2.375-1.22L1.703-.89c-.156.516-.39.688-1.062.735V0h2.89v-.156c-.156-.016-.312-.031-.375-.031-.39-.032-.515-.125-.515-.422 0-.125.03-.25.125-.594L4.14-6.156h.547c.718 0 1.046.25 1.046.797 0 .14-.015.28-.03.453l.171.015Zm0 0"/><path id="h" d="M6.531-6.516H4.453v.172c.484.047.61.125.61.36 0 .125-.063.25-.204.406L3.422-3.922 2.828-5.39c-.11-.25-.14-.421-.14-.546 0-.25.156-.344.703-.407v-.172H.75v.172c.578.047.734.14.922.61l1.062 2.609c-.375.422-.703.813-.828.969-1.39 1.64-1.672 1.89-2.203 2V0h2.14v-.156c-.484 0-.64-.094-.64-.344 0-.14.078-.312.203-.469l1.5-1.719.672 1.657c.078.172.11.328.11.484 0 .281-.094.344-.75.39V0h2.718v-.156c-.703-.078-.797-.14-1.047-.735L3.594-3.469 5.28-5.406c.516-.578.813-.797 1.25-.938Zm0 0"/><path id="i" d="M6.438-6.516h-4.97v.172c.641.047.766.11.766.407 0 .14-.046.39-.109.64L.891-.89c-.172.594-.25.657-.813.735V0h2.516v-.156c-.578-.031-.766-.14-.766-.438 0-.078.031-.234.094-.453l.625-2.219c.36.016.578.032.797.032.39 0 .469 0 .547.046.156.079.218.204.218.407 0 .156-.015.281-.078.594l.172.046.766-2.328-.188-.062c-.437.906-.468.906-2.156.937l.672-2.328c.047-.203.187-.266.594-.266 1.687 0 2.047.141 2.047.75 0 .063 0 .11-.016.25-.016.047-.016.063-.016.188l.203.016Zm0 0"/><path id="j" d="M-.078 0h2.812c1.563 0 2.641-.812 2.641-2 0-.36-.125-.719-.344-.937-.203-.22-.39-.344-.922-.563.72-.172 1-.281 1.329-.562q.42-.375.421-.985c0-.937-.703-1.469-1.984-1.469H1.297v.172c.61.047.766.125.766.407 0 .14-.032.39-.11.64L.734-.89c-.187.579-.25.625-.812.735Zm2.453-3.297c.64 0 1.063.031 1.266.11.406.171.656.609.656 1.156 0 1.078-.734 1.734-1.953 1.734-.422 0-.64-.156-.64-.422 0-.125.124-.593.343-1.39.14-.453.203-.688.328-1.188m.75-2.64c.063-.22.172-.266.563-.266.796 0 1.171.328 1.171 1.062 0 .579-.25 1.016-.671 1.25-.344.204-.813.266-1.72.266Zm0 0"/><path id="k" d="M6.313-6.516H1.359v.172c.625.047.782.14.782.407 0 .109-.063.453-.11.64L.797-.89c-.172.563-.25.625-.813.735V0h5.063l.61-1.61-.157-.077c-.469.625-.719.89-1.156 1.093-.36.172-1.047.266-1.797.266-.547 0-.797-.094-.797-.344 0-.11.11-.578.36-1.453.14-.437.218-.766.328-1.14.343.015.656.03.765.03.39-.015.672.047.781.141.047.047.079.14.079.313 0 .172-.032.297-.079.515l.204.047.671-2.312-.171-.032c-.375.844-.47.907-1.375.938-.126 0-.438.016-.797.031l.672-2.328c.046-.219.156-.266.718-.266 1.563 0 1.922.141 1.922.735 0 .125-.016.281-.031.453l.219.016Zm0 0"/><path id="l" d="m4.672-4.672.39-1.984h-.234c-.14.218-.219.265-.437.265-.125 0-.235-.03-.47-.109-.218-.094-.53-.14-.843-.14-1.031 0-1.765.687-1.765 1.671 0 .532.14.828.734 1.453.094.094.219.235.39.422.188.188.329.344.391.422.469.485.594.75.594 1.172 0 .75-.547 1.328-1.281 1.328-.828 0-1.453-.703-1.453-1.656 0-.078.015-.156.015-.219l-.187-.031L.172.156h.172c.078-.234.187-.328.39-.328.11 0 .25.031.516.125.453.172.719.219 1.031.219 1.14 0 2.016-.86 2.016-1.984 0-.657-.234-1.032-1.125-1.954-.906-.906-.985-1.046-.985-1.53 0-.626.422-1.016 1.094-1.016q.563 0 .89.375c.22.25.298.578.313 1.25Zm0 0"/><path id="m" d="m6.5-4.64.375-1.985h-.219c-.078.172-.172.219-.375.219a2 2 0 0 1-.406-.063c-.453-.11-.844-.172-1.172-.172-2.125 0-4.047 2-4.047 4.22 0 1.53 1.078 2.593 2.61 2.593 1.015 0 1.812-.438 2.718-1.484l-.171-.141c-.891.89-1.47 1.187-2.297 1.187-1.11 0-1.735-.765-1.735-2.046 0-1.188.469-2.391 1.25-3.204.485-.484 1.11-.765 1.766-.765.922 0 1.422.547 1.516 1.61Zm0 0"/></defs><path fill="#fff" d="M0 0h223.523v183.129H0Zm0 0"/><path fill="none" stroke="red" stroke-miterlimit="10" stroke-width=".399" d="M71.527 112.48c-1.203 3.579-.543 7.52 1.512 10.2"/><path fill="none" stroke="red" stroke-linecap="round" stroke-linejoin="round" stroke-miterlimit="10" stroke-width=".39897606" d="M73.793 119.738c-.906 1.172-.93 2.254-.633 3.098-.738-.504-1.789-.758-3.16-.188"/><use xlink:href="#a" x="60.934" y="122.465" fill="red"/><path fill="none" stroke="red" stroke-miterlimit="10" stroke-width=".399" d="M92.75 120.434c1.445-3.489 1.059-7.47-.809-10.282"/><path fill="none" stroke="red" stroke-linecap="round" stroke-linejoin="round" stroke-miterlimit="10" stroke-width=".39898005000000003" d="M90.984 113.035c.989-1.11 1.086-2.183.848-3.047.7.555 1.73.883 3.137.403"/><use xlink:href="#a" x="97.446" y="117.659" fill="red"/><path fill="none" stroke="#000" stroke-linecap="round" stroke-linejoin="round" stroke-miterlimit="10" stroke-width=".797" d="M54.93 14.035 13.426 168.922h196.39Zm0 0"/><path fill="none" stroke="#000" stroke-linecap="round" stroke-miterlimit="10" stroke-width=".797" d="m82.273 116.094-68.847 52.828M82.273 116.094l127.543 52.828M82.273 116.094l44.903-29.813M82.273 116.094 32.102 99.223M13.426 168.922l113.75-23.016M209.816 168.922 32.102 132.965M11.406 116.094h198.43"/><use xlink:href="#b" x="4.612" y="112.464"/><path fill="none" stroke="#00b200" stroke-dasharray="2.98883 1.99255" stroke-miterlimit="10" stroke-width=".797" d="M135.105 116.094c0-29.18-23.652-52.832-52.832-52.832-29.175 0-52.828 23.652-52.828 52.832 0 29.176 23.653 52.828 52.828 52.828 29.18 0 52.832-23.652 52.832-52.828Zm0 0"/><path stroke="#000" stroke-miterlimit="10" stroke-width=".399" d="M55.926 14.035a.995.995 0 1 0-1.99-.002.995.995 0 0 0 1.99.002ZM14.422 168.922a1 1 0 0 0-.996-.996.995.995 0 1 0 .996.996ZM210.813 168.922a1 1 0 0 0-.997-.996 1 1 0 0 0-.996.996.995.995 0 1 0 1.992 0ZM128.172 86.281a.995.995 0 1 0-1.994-.002.995.995 0 0 0 1.994.002ZM33.098 99.223a.995.995 0 1 0-1.99-.002.995.995 0 0 0 1.99.002ZM83.27 116.094a.995.995 0 1 0-1.991-.002.995.995 0 0 0 1.99.002ZM128.172 145.906a.995.995 0 1 0-1.994-.002.995.995 0 0 0 1.994.002ZM33.098 132.965a.995.995 0 1 0-1.99-.002.995.995 0 0 0 1.99.002Zm0 0"/><path fill="#00b200" stroke="#004c00" stroke-miterlimit="10" stroke-width=".399" d="M83.27 168.922a1 1 0 0 0-.997-.996 1 1 0 0 0-.996.996.995.995 0 1 0 1.992 0ZM120.629 78.738a.995.995 0 1 0-1.99-.001.995.995 0 0 0 1.99.001ZM32.242 102.422c0-.55-.445-1-.996-1a.999.999 0 0 0 0 1.996c.55 0 .996-.45.996-.996Zm0 0"/><use xlink:href="#c" x="51.886" y="10.515"/><use xlink:href="#d" x="80.363" y="112.573"/><use xlink:href="#e" x="28.452" y="129.444"/><use xlink:href="#f" x="79.232" y="178.908"/><use xlink:href="#g" x="20.922" y="105.653"/><use xlink:href="#h" x="130.694" y="149.14"/><use xlink:href="#i" x="21.66" y="95.703"/><use xlink:href="#j" x="3.821" y="178.908"/><use xlink:href="#k" x="130.694" y="82.76"/><use xlink:href="#l" x="123.152" y="75.048"/><use xlink:href="#m" x="212.839" y="179.137"/></svg>