<svg xmlns="http://www.w3.org/2000/svg" xmlns:xlink="http://www.w3.org/1999/xlink" width="321.599" height="422.92" viewBox="0 0 241.199 317.19"><defs><path id="c" d="M1.453-6.344c.578.063.703.157.703.407 0 .14-.031.359-.156.796L.813-.89C.64-.297.563-.234 0-.156V0h2.438v-.156c-.626-.094-.672-.125-.672-.469 0-.11.015-.219.125-.578l.515-1.922c.25.063.516.078.922.078.813 0 1.485-.156 1.922-.469.484-.375.781-.921.781-1.515 0-.953-.75-1.485-2.11-1.485H1.454Zm1.75.407c.063-.204.188-.266.469-.266.39 0 .765.094.969.234.25.172.359.469.359.938 0 .656-.219 1.11-.656 1.375-.313.172-.703.25-1.328.25-.172 0-.25-.016-.516-.047Zm0 0"/><path id="d" d="M6.313-6.516H1.359v.172c.625.047.782.14.782.407 0 .109-.063.453-.11.64L.797-.89c-.172.563-.25.625-.813.735V0h5.063l.61-1.61-.157-.077c-.469.625-.719.89-1.156 1.093-.36.172-1.047.266-1.797.266-.547 0-.797-.094-.797-.344 0-.11.11-.578.36-1.453.14-.437.218-.766.328-1.14.343.015.656.03.765.03.39-.015.672.047.781.141.047.047.079.14.079.313 0 .172-.032.297-.079.515l.204.047.671-2.312-.171-.032c-.375.844-.47.907-1.375.938-.126 0-.438.016-.797.031l.672-2.328c.046-.219.156-.266.718-.266 1.563 0 1.922.141 1.922.735 0 .125-.016.281-.031.453l.219.016Zm0 0"/><path id="e" d="M7.25-6.516H5.266v.172c.562.047.703.14.703.5 0 .125-.032.235-.094.438-.016.031-.016.078-.016.078L4.83-1.531 2.765-6.516h-1.61v.172c.469.032.672.157.86.547L.828-1.64C.453-.359.375-.234-.203-.156V0H1.78v-.156c-.515-.047-.703-.156-.703-.438 0-.125.031-.328.094-.531l1.125-4.203L4.594.156h.187l1.422-5.015c.375-1.297.422-1.344 1.047-1.485Zm0 0"/><path id="f" d="M8.703-6.516H7.031L3.688-1.594 3.14-6.516H1.328v.172c.5.032.75.14.75.36 0 .078-.047.234-.11.406a3 3 0 0 0-.077.297.3.3 0 0 0-.032.125L.797-1.453C.484-.422.344-.22-.172-.156V0h1.969v-.156c-.516-.047-.703-.156-.703-.438 0-.11.031-.36.078-.531l1.187-4.312L2.953 0h.172l3.766-5.594L5.609-.906c-.171.531-.359.672-1.015.75V0h2.718v-.156c-.671-.063-.765-.125-.765-.438 0-.156.016-.297.11-.61L7.89-5.608c.172-.594.218-.657.812-.735Zm0 0"/><path id="g" d="M-.078 0h2.812c1.563 0 2.641-.812 2.641-2 0-.36-.125-.719-.344-.937-.203-.22-.39-.344-.922-.563.72-.172 1-.281 1.329-.562q.42-.375.421-.985c0-.937-.703-1.469-1.984-1.469H1.297v.172c.61.047.766.125.766.407 0 .14-.032.39-.11.64L.734-.89c-.187.579-.25.625-.812.735Zm2.453-3.297c.64 0 1.063.031 1.266.11.406.171.656.609.656 1.156 0 1.078-.734 1.734-1.953 1.734-.422 0-.64-.156-.64-.422 0-.125.124-.593.343-1.39.14-.453.203-.688.328-1.188m.75-2.64c.063-.22.172-.266.563-.266.796 0 1.171.328 1.171 1.062 0 .579-.25 1.016-.671 1.25-.344.204-.813.266-1.72.266Zm0 0"/><path id="h" d="M6.531-6.516H4.453v.172c.484.047.61.125.61.36 0 .125-.063.25-.204.406L3.422-3.922 2.828-5.39c-.11-.25-.14-.421-.14-.546 0-.25.156-.344.703-.407v-.172H.75v.172c.578.047.734.14.922.61l1.062 2.609c-.375.422-.703.813-.828.969-1.39 1.64-1.672 1.89-2.203 2V0h2.14v-.156c-.484 0-.64-.094-.64-.344 0-.14.078-.312.203-.469l1.5-1.719.672 1.657c.078.172.11.328.11.484 0 .281-.094.344-.75.39V0h2.718v-.156c-.703-.078-.797-.14-1.047-.735L3.594-3.469 5.28-5.406c.516-.578.813-.797 1.25-.938Zm0 0"/><path id="i" d="m6.5-4.64.375-1.985h-.219c-.078.172-.172.219-.375.219a2 2 0 0 1-.406-.063c-.453-.11-.844-.172-1.172-.172-2.125 0-4.047 2-4.047 4.22 0 1.53 1.078 2.593 2.61 2.593 1.015 0 1.812-.438 2.718-1.484l-.171-.141c-.891.89-1.47 1.187-2.297 1.187-1.11 0-1.735-.765-1.735-2.046 0-1.188.469-2.391 1.25-3.204.485-.484 1.11-.765 1.766-.765.922 0 1.422.547 1.516 1.61Zm0 0"/><path id="j" d="M5.625-.156c-.578-.047-.625-.14-.766-.86l-.937-5.64h-.25L.782-1.672C-.017-.344-.11-.234-.517-.156V0H1.36v-.156C.844-.203.766-.266.766-.516c0-.187.03-.265.203-.609L1.53-2.25h2.203l.188 1.297c.015.094.031.187.031.265 0 .375-.14.47-.781.532V0h2.453ZM1.75-2.61l1.484-2.594.438 2.594Zm0 0"/><path id="k" d="M1.297-6.344c.61.047.766.14.766.407 0 .14-.032.39-.11.64L.734-.89c-.187.579-.25.625-.812.735V0h2.516c1.171 0 2.234-.312 3-.875.968-.703 1.546-1.797 1.546-2.953 0-1.64-1.14-2.688-2.921-2.688H1.297Zm1.828.422c.063-.219.203-.281.61-.281.562 0 1.062.125 1.374.36.5.359.766.984.766 1.78 0 1.079-.422 2.188-1.094 2.86-.593.61-1.406.906-2.437.906-.453 0-.656-.11-.656-.375 0-.125.062-.344.218-.937Zm0 0"/><path id="l" d="M.906-6.344c.563.078.594.11.766.657l.766 2.671-.61 2.125c-.172.532-.39.688-1.047.735V0h2.875v-.156c-.156-.016-.297-.016-.36-.031-.39-.016-.53-.125-.53-.375 0-.204.078-.5.312-1.282.031-.093.047-.156.063-.203l.28-1L5.61-5.734c.329-.407.407-.47.704-.61v-.172H4.422v.172c.125 0 .234.016.266.032.296.015.421.109.421.265 0 .281-.453.922-1.484 2.125-.172.203-.234.281-.39.469-.11-.438-.141-.578-.297-1.11-.25-.843-.36-1.28-.36-1.421 0-.25.11-.313.719-.36v-.172H.907Zm0 0"/><clipPath id="a"><path d="M2 0h239.2v239H2Zm0 0"/></clipPath><clipPath id="b"><path d="M9 93h232.2v224.191H9Zm0 0"/></clipPath></defs><path fill="#fff" d="M0 0h241.2v317.191H0Zm0 0"/><g clip-path="url(#a)"><path fill="none" stroke="#000" stroke-miterlimit="10" stroke-width=".797" d="M240.3 114.16C240.3 51.605 189.595.898 127.04.898 64.483.898 13.772 51.605 13.772 114.16S64.484 227.426 127.04 227.426s113.262-50.711 113.262-113.266Zm0 0"/></g><path fill="none" stroke="#000" stroke-miterlimit="10" stroke-width=".797" d="M225.473 163.965c0-54.367-44.07-98.438-98.434-98.438-54.367 0-98.437 44.07-98.437 98.438 0 54.363 44.07 98.433 98.437 98.433 54.363 0 98.434-44.07 98.434-98.433Zm0 0"/><g clip-path="url(#b)"><path fill="none" stroke="#000" stroke-miterlimit="10" stroke-width=".797" d="M232.86 210.473c0-58.446-47.38-105.82-105.82-105.82-58.446 0-105.821 47.374-105.821 105.82s47.375 105.82 105.82 105.82c58.441 0 105.82-47.375 105.82-105.82Zm0 0"/></g><path fill="none" stroke="#000" stroke-linecap="round" stroke-linejoin="round" stroke-miterlimit="10" stroke-width=".797" d="m70.344 15.965-41.5 154.89h196.39Zm0 0"/><path fill="none" stroke="#000" stroke-linecap="round" stroke-miterlimit="10" stroke-width=".797" d="M28.844 170.855 120.148 65.77M225.234 170.855 45.441 108.898M14.363 126.844 194.36 22.922M14.363 126.844l139.383-18.836M194.36 22.922 49.46 138.406"/><path stroke="#000" stroke-miterlimit="10" stroke-width=".399" d="M71.34 15.965a.995.995 0 1 0-1.99-.002.995.995 0 0 0 1.99.002ZM29.84 170.855a.998.998 0 0 0-1.996 0 .999.999 0 0 0 1.996 0ZM226.23 170.855a.995.995 0 1 0-1.99-.001.995.995 0 0 0 1.99.001ZM46.438 108.898a.995.995 0 1 0-1.991-.001.995.995 0 0 0 1.99.001ZM121.145 65.77a.995.995 0 1 0-1.991-.002.995.995 0 0 0 1.99.002ZM154.742 108.008a1 1 0 0 0-.996-.996.995.995 0 1 0 .996.996ZM50.457 138.406a.995.995 0 1 0-1.994-.002.995.995 0 0 0 1.994.002ZM75.09 118.773a.995.995 0 1 0-1.99-.001.995.995 0 0 0 1.99.001ZM15.36 126.844a.995.995 0 1 0-1.991-.002.995.995 0 0 0 1.99.002ZM195.355 22.922a.995.995 0 1 0-1.99-.002.995.995 0 0 0 1.99.002Zm0 0"/><use xlink:href="#c" x="71.052" y="115.252"/><use xlink:href="#d" x="116.741" y="62.249"/><use xlink:href="#e" x="45.839" y="134.717"/><use xlink:href="#f" x="149.397" y="117.995"/><use xlink:href="#g" x="19.236" y="174.087"/><use xlink:href="#h" x="3.821" y="130.076"/><use xlink:href="#i" x="228.255" y="174.117"/><use xlink:href="#j" x="60.738" y="12.446"/><use xlink:href="#k" x="34.731" y="105.379"/><use xlink:href="#l" x="197.38" y="19.403"/></svg>