<svg xmlns="http://www.w3.org/2000/svg" xmlns:xlink="http://www.w3.org/1999/xlink" width="321.864" height="340.14" viewBox="0 0 241.398 255.105"><defs><path id="b" d="M1.453-6.344c.578.063.703.157.703.407 0 .14-.031.359-.156.796L.813-.89C.64-.297.563-.234 0-.156V0h2.438v-.156c-.626-.094-.672-.125-.672-.469 0-.11.015-.219.125-.578l.515-1.922c.25.063.516.078.922.078.813 0 1.485-.156 1.922-.469.484-.375.781-.921.781-1.515 0-.953-.75-1.485-2.11-1.485H1.454Zm1.75.407c.063-.204.188-.266.469-.266.39 0 .765.094.969.234.25.172.359.469.359.938 0 .656-.219 1.11-.656 1.375-.313.172-.703.25-1.328.25-.172 0-.25-.016-.516-.047Zm0 0"/><path id="c" d="M6.313-6.516H1.359v.172c.625.047.782.14.782.407 0 .109-.063.453-.11.64L.797-.89c-.172.563-.25.625-.813.735V0h5.063l.61-1.61-.157-.077c-.469.625-.719.89-1.156 1.093-.36.172-1.047.266-1.797.266-.547 0-.797-.094-.797-.344 0-.11.11-.578.36-1.453.14-.437.218-.766.328-1.14.343.015.656.03.765.03.39-.015.672.047.781.141.047.047.079.14.079.313 0 .172-.032.297-.079.515l.204.047.671-2.312-.171-.032c-.375.844-.47.907-1.375.938-.126 0-.438.016-.797.031l.672-2.328c.046-.219.156-.266.718-.266 1.563 0 1.922.141 1.922.735 0 .125-.016.281-.031.453l.219.016Zm0 0"/><path id="d" d="M-.078 0h2.812c1.563 0 2.641-.812 2.641-2 0-.36-.125-.719-.344-.937-.203-.22-.39-.344-.922-.563.72-.172 1-.281 1.329-.562q.42-.375.421-.985c0-.937-.703-1.469-1.984-1.469H1.297v.172c.61.047.766.125.766.407 0 .14-.032.39-.11.64L.734-.89c-.187.579-.25.625-.812.735Zm2.453-3.297c.64 0 1.063.031 1.266.11.406.171.656.609.656 1.156 0 1.078-.734 1.734-1.953 1.734-.422 0-.64-.156-.64-.422 0-.125.124-.593.343-1.39.14-.453.203-.688.328-1.188m.75-2.64c.063-.22.172-.266.563-.266.796 0 1.171.328 1.171 1.062 0 .579-.25 1.016-.671 1.25-.344.204-.813.266-1.72.266Zm0 0"/><path id="e" d="M6.531-6.516H4.453v.172c.484.047.61.125.61.36 0 .125-.063.25-.204.406L3.422-3.922 2.828-5.39c-.11-.25-.14-.421-.14-.546 0-.25.156-.344.703-.407v-.172H.75v.172c.578.047.734.14.922.61l1.062 2.609c-.375.422-.703.813-.828.969-1.39 1.64-1.672 1.89-2.203 2V0h2.14v-.156c-.484 0-.64-.094-.64-.344 0-.14.078-.312.203-.469l1.5-1.719.672 1.657c.078.172.11.328.11.484 0 .281-.094.344-.75.39V0h2.718v-.156c-.703-.078-.797-.14-1.047-.735L3.594-3.469 5.28-5.406c.516-.578.813-.797 1.25-.938Zm0 0"/><path id="f" d="m6.5-4.64.375-1.985h-.219c-.078.172-.172.219-.375.219a2 2 0 0 1-.406-.063c-.453-.11-.844-.172-1.172-.172-2.125 0-4.047 2-4.047 4.22 0 1.53 1.078 2.593 2.61 2.593 1.015 0 1.812-.438 2.718-1.484l-.171-.141c-.891.89-1.47 1.187-2.297 1.187-1.11 0-1.735-.765-1.735-2.046 0-1.188.469-2.391 1.25-3.204.485-.484 1.11-.765 1.766-.765.922 0 1.422.547 1.516 1.61Zm0 0"/><path id="g" d="M5.625-.156c-.578-.047-.625-.14-.766-.86l-.937-5.64h-.25L.782-1.672C-.017-.344-.11-.234-.517-.156V0H1.36v-.156C.844-.203.766-.266.766-.516c0-.187.03-.265.203-.609L1.53-2.25h2.203l.188 1.297c.015.094.031.187.031.265 0 .375-.14.47-.781.532V0h2.453ZM1.75-2.61l1.484-2.594.438 2.594Zm0 0"/><path id="h" d="M1.297-6.344c.61.047.766.14.766.407 0 .14-.032.39-.11.64L.734-.89c-.187.579-.25.625-.812.735V0h2.516c1.171 0 2.234-.312 3-.875.968-.703 1.546-1.797 1.546-2.953 0-1.64-1.14-2.688-2.921-2.688H1.297Zm1.828.422c.063-.219.203-.281.61-.281.562 0 1.062.125 1.374.36.5.359.766.984.766 1.78 0 1.079-.422 2.188-1.094 2.86-.593.61-1.406.906-2.437.906-.453 0-.656-.11-.656-.375 0-.125.062-.344.218-.937Zm0 0"/><path id="i" d="M5.656-.156c-.437-.031-.64-.203-.828-.719l-.937-2.437c.78-.172 1.109-.313 1.468-.641.329-.281.5-.672.5-1.125 0-.922-.734-1.438-2.078-1.438H1.313v.172c.421.047.468.063.578.14.078.048.14.157.14.266 0 .125-.062.36-.125.641L.672-.89C.5-.312.422-.25-.125-.156V0h2.422v-.156c-.61-.078-.672-.14-.672-.469 0-.094.031-.219.125-.578l.547-2.078.656.047L4.172 0h1.484ZM3.078-5.937c.047-.204.188-.266.5-.266.828 0 1.235.375 1.235 1.11 0 .984-.641 1.5-1.875 1.5a2.3 2.3 0 0 1-.516-.063Zm0 0"/><path id="j" d="m4.672-4.672.39-1.984h-.234c-.14.218-.219.265-.437.265-.125 0-.235-.03-.47-.109-.218-.094-.53-.14-.843-.14-1.031 0-1.765.687-1.765 1.671 0 .532.14.828.734 1.453.094.094.219.235.39.422.188.188.329.344.391.422.469.485.594.75.594 1.172 0 .75-.547 1.328-1.281 1.328-.828 0-1.453-.703-1.453-1.656 0-.078.015-.156.015-.219l-.187-.031L.172.156h.172c.078-.234.187-.328.39-.328.11 0 .25.031.516.125.453.172.719.219 1.031.219 1.14 0 2.016-.86 2.016-1.984 0-.657-.234-1.032-1.125-1.954-.906-.906-.985-1.046-.985-1.53 0-.626.422-1.016 1.094-1.016q.563 0 .89.375c.22.25.298.578.313 1.25Zm0 0"/><path id="k" d="M.906-6.344c.563.078.594.11.766.657l.766 2.671-.61 2.125c-.172.532-.39.688-1.047.735V0h2.875v-.156c-.156-.016-.297-.016-.36-.031-.39-.016-.53-.125-.53-.375 0-.204.078-.5.312-1.282.031-.093.047-.156.063-.203l.28-1L5.61-5.734c.329-.407.407-.47.704-.61v-.172H4.422v.172c.125 0 .234.016.266.032.296.015.421.109.421.265 0 .281-.453.922-1.484 2.125-.172.203-.234.281-.39.469-.11-.438-.141-.578-.297-1.11-.25-.843-.36-1.28-.36-1.421 0-.25.11-.313.719-.36v-.172H.907Zm0 0"/><clipPath id="a"><path d="M2 16h239.398v239.105H2Zm0 0"/></clipPath></defs><path fill="#fff" d="M0 0h241.398v255.105H0Zm0 0"/><g clip-path="url(#a)"><path fill="none" stroke="#000" stroke-miterlimit="10" stroke-width=".797" d="M240.5 140.945c0-62.554-50.707-113.265-113.262-113.265S13.973 78.39 13.973 140.945s50.71 113.262 113.265 113.262S240.5 203.5 240.5 140.945Zm0 0"/></g><path fill="none" stroke="#000" stroke-miterlimit="10" stroke-width=".797" d="M217.152 230.805c22.121-49.657-.199-107.848-49.855-129.973-49.66-22.125-107.852.195-129.977 49.856a98.47 98.47 0 0 0 0 80.117"/><path fill="none" stroke="#000" stroke-linecap="round" stroke-linejoin="round" stroke-miterlimit="10" stroke-width=".797" d="m70.543 42.746-41.504 154.89h196.395Zm0 0"/><path fill="none" stroke="#000" stroke-linecap="round" stroke-miterlimit="10" stroke-width=".797" d="M29.04 197.637 120.347 92.55M225.434 197.637 45.64 135.684M14.563 153.625 194.559 49.703"/><path fill="none" stroke="red" stroke-dasharray="2.98883 1.99255" stroke-linecap="round" stroke-miterlimit="10" stroke-width=".797" d="m70.543 42.746-55.98 110.879M70.543 42.746l124.016 6.957M1.805 82.434 139.28 3.063"/><path stroke="#000" stroke-miterlimit="10" stroke-width=".399" d="M71.54 42.746a1 1 0 0 0-.997-.996.998.998 0 0 0 0 1.996c.55 0 .996-.45.996-1ZM30.04 197.637a.999.999 0 0 0-1.997 0 .998.998 0 0 0 1.996 0ZM226.43 197.637a.995.995 0 1 0-1.99-.002.995.995 0 0 0 1.99.002ZM46.637 135.684c0-.551-.446-1-.996-1a.999.999 0 0 0 0 1.996c.55 0 .996-.45.996-.996ZM121.344 92.55a.995.995 0 1 0-1.99 0 .995.995 0 0 0 1.99 0ZM75.29 145.555a.995.995 0 1 0-1.991-.002.995.995 0 0 0 1.99.002ZM15.559 153.625a.995.995 0 1 0-1.99-.002.995.995 0 0 0 1.99.002ZM195.555 49.703a1 1 0 0 0-.996-.996.995.995 0 1 0 .996.996Zm0 0"/><path fill="#b20000" stroke="#4c0000" stroke-miterlimit="10" stroke-width=".399" d="M22.441 71.094a.995.995 0 1 0-1.99-.002.995.995 0 0 0 1.99.002ZM120.637 14.402a.995.995 0 1 0-1.99-.001.995.995 0 0 0 1.99.001Zm0 0"/><use xlink:href="#b" x="71.251" y="141.836"/><use xlink:href="#c" x="116.94" y="88.833"/><use xlink:href="#d" x="19.236" y="200.87"/><use xlink:href="#e" x="3.821" y="156.859"/><use xlink:href="#f" x="228.653" y="200.9"/><use xlink:href="#g" x="60.738" y="39.031"/><use xlink:href="#h" x="34.731" y="131.963"/><use xlink:href="#i" x="11.641" y="67.377"/><use xlink:href="#j" x="110.862" y="10.515"/><use xlink:href="#k" x="197.778" y="45.987"/></svg>