<svg xmlns="http://www.w3.org/2000/svg" xmlns:xlink="http://www.w3.org/1999/xlink" width="637.258" height="498.258" viewBox="0 0 477.943 373.693"><defs><path id="c" d="M2.188-9.516c.843.11 1.046.235 1.046.625 0 .22-.046.532-.25 1.204L1.22-1.344C.953-.454.844-.359 0-.234V0h3.656v-.234C2.72-.375 2.641-.422 2.641-.922c0-.187.03-.328.187-.875l.781-2.875c.375.094.766.11 1.375.11 1.235 0 2.235-.25 2.875-.704.75-.562 1.172-1.375 1.172-2.265 0-1.438-1.11-2.219-3.14-2.219H2.188Zm2.625.625c.093-.312.265-.421.687-.421.578 0 1.14.156 1.453.359.375.281.547.719.547 1.422 0 .968-.344 1.656-1 2.047-.469.25-1.047.375-1.969.375-.265 0-.375-.016-.781-.079Zm0 0"/><path id="d" d="M9.469-9.75H2.047v.234c.922.094 1.156.204 1.156.61 0 .172-.094.687-.172.953l-1.844 6.61C.938-.5.829-.392-.016-.235V0h7.579l.921-2.422-.234-.125c-.703.969-1.094 1.36-1.734 1.656-.563.25-1.578.391-2.688.391-.844 0-1.203-.14-1.203-.5 0-.172.172-.86.547-2.187.187-.657.328-1.141.469-1.72.53.032.984.048 1.172.048.578-.016 1 .078 1.156.234.078.063.11.203.11.453 0 .266-.032.453-.11.781l.312.079 1.016-3.47-.281-.062c-.563 1.266-.703 1.36-2.063 1.422-.172 0-.656.016-1.172.031l.985-3.484c.093-.328.25-.39 1.093-.39 2.344 0 2.86.203 2.86 1.093 0 .188-.016.422-.031.672L9-7.469Zm0 0"/><path id="e" d="M6.016-9.75H1.938v.234c.937.094 1.156.204 1.156.641 0 .219-.063.563-.172.922l-1.828 6.61C.828-.485.719-.392-.125-.235V0h7.61l.859-2.672-.297-.094C7.53-1.687 7.125-1.203 6.469-.875c-.532.25-1.14.344-2.438.344-1.14 0-1.5-.125-1.5-.516 0-.11.063-.469.14-.75l1.845-6.61c.218-.765.609-1.046 1.5-1.109Zm0 0"/><path id="f" d="M-.125 0h4.219c2.343 0 3.953-1.219 3.953-2.984 0-.563-.172-1.078-.5-1.407-.297-.343-.594-.53-1.375-.859 1.062-.25 1.484-.422 1.969-.844.422-.36.64-.86.64-1.468 0-1.422-1.062-2.188-2.984-2.188h-3.86v.234c.938.079 1.157.188 1.157.61 0 .234-.063.594-.172.953l-1.828 6.61C.828-.485.719-.392-.125-.235Zm3.688-4.937c.968 0 1.593.046 1.89.171.61.25.984.907.984 1.72 0 1.608-1.109 2.593-2.921 2.593-.625 0-.97-.219-.97-.625 0-.172.188-.89.532-2.094.188-.672.281-1.015.485-1.765m1.109-3.954c.094-.328.266-.421.86-.421 1.187 0 1.75.515 1.75 1.624 0 .844-.36 1.5-1 1.86-.516.297-1.235.406-2.579.406Zm0 0"/><path id="g" d="M9.781-9.75h-3.11v.234c.735.094.923.188.923.532 0 .203-.094.375-.297.625L5.125-5.875 4.25-8.062c-.172-.391-.234-.641-.234-.844 0-.375.234-.5 1.062-.61v-.234H1.141v.234c.859.079 1.078.22 1.375.907l1.578 3.937c-.547.625-1.047 1.203-1.235 1.453C.781-.78.36-.406-.437-.234V0h3.203v-.234c-.72 0-.97-.141-.97-.516 0-.219.11-.469.313-.703l2.25-2.563 1 2.47c.11.265.172.5.172.718 0 .437-.156.516-1.14.594V0h4.078v-.234c-1.047-.125-1.172-.22-1.547-1.11L5.39-5.204l2.53-2.89c.766-.875 1.22-1.219 1.86-1.422Zm0 0"/><path id="h" d="M9.453-9.75H1.516L.875-7.453l.281.062C1.938-9 2.422-9.266 4.703-9.234l-2.156 7.89C2.312-.547 1.953-.312.969-.234V0h4.328v-.234c-.25-.016-.469-.047-.563-.047-.593-.047-.78-.188-.78-.625 0-.203.046-.375.187-.89l2.078-7.438h.812c1.078 0 1.563.375 1.563 1.218 0 .188-.016.407-.047.672l.25.032Zm0 0"/><path id="i" d="M10.781-9.75H7.47v.234c.172.016.343.047.406.047.36.031.5.125.5.281 0 .36-.812 1.172-2.14 2.094L3.952-5.516l.797-2.89c.219-.75.625-1.047 1.516-1.11v-.234H2.188v.234c.921.094 1.14.204 1.14.641 0 .219-.062.563-.156.922l-1.844 6.61C1.062-.454.984-.376.11-.235V0h3.704v-.234c-.938-.11-1.079-.203-1.079-.657 0-.156.032-.296.125-.593l.079-.313.937-3.406 1.797 3.11c.36.609.578 1.14.578 1.421 0 .219-.219.344-.687.39-.079 0-.25.016-.438.048V0h4.11v-.234c-.938-.094-1.032-.141-1.454-.844L5.188-5.594l4.484-3.39c.406-.313.75-.47 1.11-.532Zm0 0"/><path id="j" d="m9.734-6.953.563-2.969h-.313c-.125.25-.28.328-.578.328-.11 0-.297-.031-.61-.094-.671-.171-1.265-.265-1.75-.265-3.171 0-6.062 3-6.062 6.328 0 2.281 1.61 3.89 3.907 3.89 1.53 0 2.734-.656 4.078-2.218l-.266-.219C7.36-.844 6.5-.406 5.266-.406c-1.657 0-2.61-1.125-2.61-3.063 0-1.781.719-3.578 1.89-4.797.72-.734 1.657-1.14 2.641-1.14 1.375 0 2.141.797 2.282 2.422Zm0 0"/><path id="k" d="M8.422-.234c-.844-.078-.938-.203-1.125-1.297L5.89-9.984H5.5L1.172-2.516C-.016-.516-.172-.359-.766-.234V0h2.797v-.234c-.765-.078-.875-.157-.875-.532 0-.28.032-.421.297-.921l.844-1.688h3.297l.297 1.953c.015.14.03.266.03.39 0 .563-.218.704-1.171.798V0h3.672ZM2.609-3.906l2.25-3.89.657 3.89Zm0 0"/><path id="l" d="M1.938-9.516c.937.094 1.156.204 1.156.61 0 .234-.063.594-.172.953l-1.828 6.61C.828-.485.719-.392-.125-.235V0h3.781C5.406 0 7-.469 8.156-1.297 9.61-2.359 10.453-4 10.453-5.734c0-2.453-1.703-4.016-4.36-4.016H1.939Zm2.734.641c.094-.328.312-.437.922-.437.843 0 1.593.203 2.062.562.735.531 1.14 1.469 1.14 2.656 0 1.61-.624 3.282-1.64 4.297-.875.906-2.093 1.344-3.64 1.344-.688 0-.97-.156-.97-.547 0-.187.063-.531.329-1.422Zm0 0"/><path id="m" d="M1.36-9.516c.843.125.874.172 1.14.985l1.14 4.015-.906 3.172c-.25.813-.578 1.047-1.562 1.11V0h4.312v-.234a8 8 0 0 1-.546-.047c-.579-.031-.782-.188-.782-.563 0-.312.094-.75.453-1.922.047-.125.079-.234.094-.296l.438-1.516L8.406-8.61c.485-.594.594-.703 1.047-.907v-.234H6.625v.234c.188.016.344.032.406.047.438.047.625.156.625.422 0 .39-.687 1.375-2.234 3.172-.25.297-.344.422-.563.688-.187-.657-.234-.844-.468-1.641-.375-1.281-.532-1.922-.532-2.156 0-.344.172-.438 1.063-.532v-.234H1.359Zm0 0"/><path id="n" d="M13.047-9.75h-2.5L5.53-2.39l-.828-7.36H2v.234c.75.047 1.11.204 1.11.547 0 .125-.063.344-.157.625-.031.047-.062.219-.125.438-.015.047-.031.11-.047.172L1.187-2.187C.734-.625.517-.328-.266-.234V0h2.954v-.234c-.766-.063-1.063-.25-1.063-.657 0-.156.063-.546.14-.796l1.766-6.47L4.437 0h.25l5.641-8.375-1.937 7.016c-.235.797-.532 1.015-1.5 1.125V0h4.078v-.234C9.953-.328 9.813-.422 9.813-.875c0-.266.03-.453.171-.922l1.829-6.61c.265-.905.343-.968 1.234-1.109Zm0 0"/><path id="o" d="M2.797-5.25c.062-.14.094-.234.094-.344 0-.328-.282-.593-.625-.593-.313 0-.5.218-.578.5L.359-.86c0 .03-.03.156-.03.156 0 .125.28.203.374.203.063 0 .078-.031.14-.172Zm0 0"/><clipPath id="a"><path d="M118 15h359.945v358.695H118Zm0 0"/></clipPath><clipPath id="b"><path d="M36 160h441.945v213.695H36Zm0 0"/></clipPath></defs><g clip-path="url(#a)"><path fill="none" stroke="#000" stroke-miterlimit="10" stroke-width="1.1955" d="M474.766 202.453c0-93.832-76.063-169.894-169.895-169.894S134.977 108.62 134.977 202.453s76.062 169.895 169.894 169.895 169.895-76.063 169.895-169.895Zm0 0"/></g><path fill="none" stroke="#000" stroke-miterlimit="10" stroke-width="1.1955" d="M439.742 337.246c33.188-74.488-.293-161.777-74.781-194.96-74.488-33.188-161.777.292-194.961 74.78a147.7 147.7 0 0 0 0 120.18"/><path fill="none" stroke="#000" stroke-linecap="round" stroke-linejoin="round" stroke-miterlimit="10" stroke-width="1.1955" d="m219.832 55.156-62.254 232.336h294.59Zm0 0"/><path fill="none" stroke="#000" stroke-linecap="round" stroke-miterlimit="10" stroke-width="1.1955" d="m157.578 287.492 136.957-157.629M452.168 287.492 182.48 194.56M135.86 221.477 405.854 65.594"/><path fill="none" stroke="#00b200" stroke-miterlimit="10" stroke-width="1.1955" d="M84.047 182.719c70.45 74.996 188.355 78.676 263.348 8.226 51.542-48.425 71.226-121.894 50.8-189.601"/><path fill="none" stroke="#00f" stroke-dasharray="4.483245 2.9888250000000003" stroke-linecap="round" stroke-miterlimit="10" stroke-width="1.1955" d="M21.512 287.492h136.066M21.512 287.492l114.347-66.015M21.512 287.492l358.617-137.375"/><g clip-path="url(#b)"><path fill="none" stroke="#ec008c" stroke-miterlimit="10" stroke-width="1.1955" d="M476.598 357.695c-18.887-116.68-128.786-195.953-245.47-177.062-91.519 14.816-163.105 86.894-177.292 178.512"/></g><path fill="none" stroke="#ff60df" stroke-dasharray="4.483245 2.9888250000000003" stroke-linecap="round" stroke-miterlimit="10" stroke-width="1.1955" d="m135.86 221.477 209.074-28.25M344.934 193.227l107.234 94.265"/><path stroke="#000" stroke-miterlimit="10" stroke-width=".5985" d="M221.324 55.156c0-.824-.668-1.492-1.492-1.492a1.495 1.495 0 1 0 1.492 1.492ZM159.074 287.492c0-.824-.672-1.496-1.496-1.496s-1.496.672-1.496 1.496.672 1.496 1.496 1.496 1.496-.672 1.496-1.496ZM453.66 287.492a1.495 1.495 0 1 0-2.99-.001 1.495 1.495 0 0 0 2.99.001ZM183.973 194.559a1.495 1.495 0 1 0-2.991-.002 1.495 1.495 0 0 0 2.99.002ZM296.031 129.863a1.494 1.494 0 1 0-2.987-.004 1.494 1.494 0 0 0 2.987.004ZM226.95 209.367a1.495 1.495 0 1 0-1.492 1.496c.823 0 1.491-.668 1.491-1.496ZM137.352 221.477a1.494 1.494 0 1 0-2.99-.005 1.494 1.494 0 0 0 2.99.005ZM407.348 65.594a1.495 1.495 0 1 0-2.989 0c0 .824.668 1.492 1.496 1.492.825 0 1.493-.668 1.493-1.492Zm0 0"/><path fill="#0000b2" stroke="#00004c" stroke-miterlimit="10" stroke-width=".5985" d="M23.008 287.492c0-.824-.668-1.496-1.496-1.496a1.495 1.495 0 1 0 1.496 1.496ZM165.496 232.91c0-.824-.668-1.496-1.496-1.496a1.495 1.495 0 1 0 1.496 1.496ZM381.625 150.117a1.495 1.495 0 0 0-2.988 0c0 .828.668 1.496 1.492 1.496s1.496-.668 1.496-1.496Zm0 0"/><path fill="#b4387d" stroke="#644552" stroke-miterlimit="10" stroke-width=".5985" d="M346.43 193.227a1.496 1.496 0 0 0-2.993 0 1.495 1.495 0 0 0 2.993 0Zm0 0"/><use xlink:href="#c" x="220.892" y="203.79"/><use xlink:href="#d" x="289.425" y="124.285"/><use xlink:href="#e" x="375.951" y="144.542"/><use xlink:href="#f" x="142.87" y="292.341"/><use xlink:href="#g" x="119.746" y="226.325"/><use xlink:href="#h" x="5.731" y="292.341"/><use xlink:href="#i" x="147.635" y="237.761"/><use xlink:href="#j" x="456.995" y="292.386"/><use xlink:href="#k" x="205.124" y="49.583"/><use xlink:href="#l" x="166.112" y="188.981"/><use xlink:href="#m" x="410.683" y="60.017"/><use xlink:href="#n" x="336.516" y="210.278"/><use xlink:href="#o" x="349.562" y="204.853"/></svg>