<svg xmlns="http://www.w3.org/2000/svg" xmlns:xlink="http://www.w3.org/1999/xlink" width="598.012" height="986.326" viewBox="0 0 448.509 739.745"><defs><path id="d" d="M2.188-9.516c.843.11 1.046.235 1.046.625 0 .22-.046.532-.25 1.204L1.22-1.344C.953-.454.844-.359 0-.234V0h3.656v-.234C2.72-.375 2.641-.422 2.641-.922c0-.187.03-.328.187-.875l.781-2.875c.375.094.766.11 1.375.11 1.235 0 2.235-.25 2.875-.704.75-.562 1.172-1.375 1.172-2.265 0-1.438-1.11-2.219-3.14-2.219H2.188Zm2.625.625c.093-.312.265-.421.687-.421.578 0 1.14.156 1.453.359.375.281.547.719.547 1.422 0 .968-.344 1.656-1 2.047-.469.25-1.047.375-1.969.375-.265 0-.375-.016-.781-.079Zm0 0"/><path id="e" d="M9.469-9.75H2.047v.234c.922.094 1.156.204 1.156.61 0 .172-.094.687-.172.953l-1.844 6.61C.938-.5.829-.392-.016-.235V0h7.579l.921-2.422-.234-.125c-.703.969-1.094 1.36-1.734 1.656-.563.25-1.578.391-2.688.391-.844 0-1.203-.14-1.203-.5 0-.172.172-.86.547-2.187.187-.657.328-1.141.469-1.72.53.032.984.048 1.172.048.578-.016 1 .078 1.156.234.078.063.11.203.11.453 0 .266-.032.453-.11.781l.312.079 1.016-3.47-.281-.062c-.563 1.266-.703 1.36-2.063 1.422-.172 0-.656.016-1.172.031l.985-3.484c.093-.328.25-.39 1.093-.39 2.344 0 2.86.203 2.86 1.093 0 .188-.016.422-.031.672L9-7.469Zm0 0"/><path id="f" d="M10.86-9.75H7.89v.234c.844.079 1.048.22 1.048.766 0 .172-.032.36-.141.656-.016.047-.031.11-.031.11L7.25-2.297 4.14-9.75H1.735v.234c.704.063 1.016.25 1.282.844L1.234-2.453C.672-.531.547-.36-.296-.234V0h2.952v-.234C1.891-.297 1.61-.47 1.61-.875c0-.203.047-.5.141-.812l1.703-6.297L6.891.219h.265l2.157-7.516c.546-1.922.609-2.016 1.546-2.219Zm0 0"/><path id="g" d="M13.047-9.75h-2.5L5.53-2.39l-.828-7.36H2v.234c.75.047 1.11.204 1.11.547 0 .125-.063.344-.157.625-.031.047-.062.219-.125.438-.015.047-.031.11-.047.172L1.187-2.187C.734-.625.517-.328-.266-.234V0h2.954v-.234c-.766-.063-1.063-.25-1.063-.657 0-.156.063-.546.14-.796l1.766-6.47L4.437 0h.25l5.641-8.375-1.937 7.016c-.235.797-.532 1.015-1.5 1.125V0h4.078v-.234C9.953-.328 9.813-.422 9.813-.875c0-.266.03-.453.171-.922l1.829-6.61c.265-.905.343-.968 1.234-1.109Zm0 0"/><path id="h" d="M-.125 0h4.219c2.343 0 3.953-1.219 3.953-2.984 0-.563-.172-1.078-.5-1.407-.297-.343-.594-.53-1.375-.859 1.062-.25 1.484-.422 1.969-.844.422-.36.64-.86.64-1.468 0-1.422-1.062-2.188-2.984-2.188h-3.86v.234c.938.079 1.157.188 1.157.61 0 .234-.063.594-.172.953l-1.828 6.61C.828-.485.719-.392-.125-.235Zm3.688-4.937c.968 0 1.593.046 1.89.171.61.25.984.907.984 1.72 0 1.608-1.109 2.593-2.921 2.593-.625 0-.97-.219-.97-.625 0-.172.188-.89.532-2.094.188-.672.281-1.015.485-1.765m1.109-3.954c.094-.328.266-.421.86-.421 1.187 0 1.75.515 1.75 1.624 0 .844-.36 1.5-1 1.86-.516.297-1.235.406-2.579.406Zm0 0"/><path id="i" d="M9.781-9.75h-3.11v.234c.735.094.923.188.923.532 0 .203-.094.375-.297.625L5.125-5.875 4.25-8.062c-.172-.391-.234-.641-.234-.844 0-.375.234-.5 1.062-.61v-.234H1.141v.234c.859.079 1.078.22 1.375.907l1.578 3.937c-.547.625-1.047 1.203-1.235 1.453C.781-.78.36-.406-.437-.234V0h3.203v-.234c-.72 0-.97-.141-.97-.516 0-.219.11-.469.313-.703l2.25-2.563 1 2.47c.11.265.172.5.172.718 0 .437-.156.516-1.14.594V0h4.078v-.234c-1.047-.125-1.172-.22-1.547-1.11L5.39-5.204l2.53-2.89c.766-.875 1.22-1.219 1.86-1.422Zm0 0"/><path id="j" d="m9.734-6.953.563-2.969h-.313c-.125.25-.28.328-.578.328-.11 0-.297-.031-.61-.094-.671-.171-1.265-.265-1.75-.265-3.171 0-6.062 3-6.062 6.328 0 2.281 1.61 3.89 3.907 3.89 1.53 0 2.734-.656 4.078-2.218l-.266-.219C7.36-.844 6.5-.406 5.266-.406c-1.657 0-2.61-1.125-2.61-3.063 0-1.781.719-3.578 1.89-4.797.72-.734 1.657-1.14 2.641-1.14 1.375 0 2.141.797 2.282 2.422Zm0 0"/><path id="k" d="M8.422-.234c-.844-.078-.938-.203-1.125-1.297L5.89-9.984H5.5L1.172-2.516C-.016-.516-.172-.359-.766-.234V0h2.797v-.234c-.765-.078-.875-.157-.875-.532 0-.28.032-.421.297-.921l.844-1.688h3.297l.297 1.953c.015.14.03.266.03.39 0 .563-.218.704-1.171.798V0h3.672ZM2.609-3.906l2.25-3.89.657 3.89Zm0 0"/><path id="l" d="M1.938-9.516c.937.094 1.156.204 1.156.61 0 .234-.063.594-.172.953l-1.828 6.61C.828-.485.719-.392-.125-.235V0h3.781C5.406 0 7-.469 8.156-1.297 9.61-2.359 10.453-4 10.453-5.734c0-2.453-1.703-4.016-4.36-4.016H1.939Zm2.734.641c.094-.328.312-.437.922-.437.843 0 1.593.203 2.062.562.735.531 1.14 1.469 1.14 2.656 0 1.61-.624 3.282-1.64 4.297-.875.906-2.093 1.344-3.64 1.344-.688 0-.97-.156-.97-.547 0-.187.063-.531.329-1.422Zm0 0"/><path id="m" d="M1.36-9.516c.843.125.874.172 1.14.985l1.14 4.015-.906 3.172c-.25.813-.578 1.047-1.562 1.11V0h4.312v-.234a8 8 0 0 1-.546-.047c-.579-.031-.782-.188-.782-.563 0-.312.094-.75.453-1.922.047-.125.079-.234.094-.296l.438-1.516L8.406-8.61c.485-.594.594-.703 1.047-.907v-.234H6.625v.234c.188.016.344.032.406.047.438.047.625.156.625.422 0 .39-.687 1.375-2.234 3.172-.25.297-.344.422-.563.688-.187-.657-.234-.844-.468-1.641-.375-1.281-.532-1.922-.532-2.156 0-.344.172-.438 1.063-.532v-.234H1.359Zm0 0"/><clipPath id="a"><path d="M85 148h363.508v374H85Zm0 0"/></clipPath><clipPath id="b"><path d="M97 303h351.508v353H97Zm0 0"/></clipPath><clipPath id="c"><path d="M2 293h446.508v446.746H2Zm0 0"/></clipPath></defs><g clip-path="url(#a)"><path fill="none" stroke="#000" stroke-miterlimit="10" stroke-width="1.1955" d="M442.586 334.945c0-93.832-76.063-169.898-169.895-169.898s-169.894 76.066-169.894 169.898S178.859 504.84 272.69 504.84s169.895-76.063 169.895-169.895Zm0 0"/></g><path fill="none" stroke="#000" stroke-miterlimit="10" stroke-width="1.1955" d="M420.344 409.648c0-81.546-66.106-147.652-147.653-147.652S125.04 328.102 125.04 409.648c0 81.547 66.106 147.653 147.652 147.653 81.547 0 147.653-66.106 147.653-147.653Zm0 0"/><g clip-path="url(#b)"><path fill="none" stroke="#000" stroke-miterlimit="10" stroke-width="1.1955" d="M431.422 479.41c0-87.664-71.067-158.73-158.73-158.73-87.669 0-158.731 71.066-158.731 158.73 0 87.668 71.062 158.735 158.73 158.735 87.664 0 158.73-71.067 158.73-158.735Zm0 0"/></g><path fill="none" stroke="#000" stroke-linecap="round" stroke-linejoin="round" stroke-miterlimit="10" stroke-width="1.1955" d="m187.652 187.648-62.254 232.336h294.586Zm0 0"/><path fill="none" stroke="#000" stroke-linecap="round" stroke-miterlimit="10" stroke-width="1.1955" d="m125.398 419.984 136.957-157.629M419.984 419.984l-269.687-92.933M103.676 353.969l269.996-155.883M103.676 353.969l209.078-28.254M373.672 198.086 156.324 371.313"/><path fill="none" stroke="red" stroke-dasharray="4.483245 2.9888250000000003" stroke-linecap="round" stroke-miterlimit="10" stroke-width="1.1955" d="m187.652 187.648-83.976 166.32M187.652 187.648l186.02 10.438"/><path fill="none" stroke="#00f" stroke-dasharray="4.483245 2.9888250000000003" stroke-linecap="round" stroke-miterlimit="10" stroke-width="1.1955" d="m103.676 353.969 21.722 66.015M125.398 419.984l187.356-94.27M312.754 325.715l107.23 94.27"/><path fill="none" stroke="#00b200" stroke-dasharray="4.483245 2.9888250000000003" stroke-miterlimit="10" stroke-width="1.1955" d="M373.957 187.648c0-102.894-83.41-186.304-186.305-186.304-102.898 0-186.308 83.41-186.308 186.304 0 102.899 83.41 186.309 186.308 186.309 102.895 0 186.305-83.41 186.305-186.309Zm0 0"/><g clip-path="url(#c)"><path fill="none" stroke="#ff7f00" stroke-dasharray="4.483245 2.9888250000000003" stroke-miterlimit="10" stroke-width="1.1955" d="M447.164 524.39c0-118.199-95.816-214.011-214.012-214.011-118.199 0-214.011 95.812-214.011 214.012 0 118.195 95.812 214.011 214.011 214.011 118.196 0 214.012-95.816 214.012-214.011Zm0 0"/></g><path fill="none" stroke="#ff7f00" stroke-dasharray="4.483245 2.9888250000000003" stroke-miterlimit="10" stroke-width="1.1955" d="M316.984 355.46c0-58.905-47.754-106.655-106.66-106.655s-106.656 47.75-106.656 106.656 47.75 106.66 106.656 106.66 106.66-47.754 106.66-106.66Zm0 0"/><path stroke="#000" stroke-miterlimit="10" stroke-width=".5985" d="M189.145 187.648c0-.824-.668-1.492-1.493-1.492a1.494 1.494 0 1 0 1.492 1.492ZM126.89 419.984a1.495 1.495 0 1 0-2.99-.001 1.495 1.495 0 0 0 2.99.001ZM421.48 419.984c0-.824-.671-1.496-1.496-1.496a1.495 1.495 0 1 0 1.496 1.496ZM151.793 327.05c0-.823-.668-1.495-1.496-1.495a1.495 1.495 0 1 0 1.496 1.496ZM263.852 262.355a1.496 1.496 0 0 0-2.993 0 1.495 1.495 0 0 0 2.993 0ZM314.246 325.715c0-.824-.668-1.492-1.492-1.492a1.494 1.494 0 1 0 1.492 1.492ZM157.816 371.313a1.494 1.494 0 1 0-2.99-.005 1.494 1.494 0 0 0 2.99.005ZM194.77 341.86c0-.825-.668-1.493-1.493-1.493a1.494 1.494 0 1 0 1.492 1.492ZM105.172 353.969a1.494 1.494 0 1 0-2.988-.005 1.494 1.494 0 0 0 2.988.005ZM375.168 198.086c0-.824-.672-1.496-1.496-1.496a1.495 1.495 0 0 0 0 2.988c.824 0 1.496-.668 1.496-1.492Zm0 0"/><use xlink:href="#d" x="188.71" y="336.58"/><use xlink:href="#e" x="257.244" y="257.075"/><use xlink:href="#f" x="150.893" y="365.776"/><use xlink:href="#g" x="306.229" y="340.695"/><use xlink:href="#h" x="110.988" y="424.832"/><use xlink:href="#i" x="87.864" y="358.815"/><use xlink:href="#j" x="424.515" y="424.877"/><use xlink:href="#k" x="173.241" y="182.371"/><use xlink:href="#l" x="134.231" y="321.771"/><use xlink:href="#m" x="378.204" y="192.807"/></svg>