<svg xmlns="http://www.w3.org/2000/svg" xmlns:xlink="http://www.w3.org/1999/xlink" width="482.796" height="510.21" viewBox="0 0 362.097 382.658"><defs><path id="b" d="M2.188-9.516c.843.11 1.046.235 1.046.625 0 .22-.046.532-.25 1.204L1.22-1.344C.953-.454.844-.359 0-.234V0h3.656v-.234C2.72-.375 2.641-.422 2.641-.922c0-.187.03-.328.187-.875l.781-2.875c.375.094.766.11 1.375.11 1.235 0 2.235-.25 2.875-.704.75-.562 1.172-1.375 1.172-2.265 0-1.438-1.11-2.219-3.14-2.219H2.188Zm2.625.625c.093-.312.265-.421.687-.421.578 0 1.14.156 1.453.359.375.281.547.719.547 1.422 0 .968-.344 1.656-1 2.047-.469.25-1.047.375-1.969.375-.265 0-.375-.016-.781-.079Zm0 0"/><path id="c" d="M9.469-9.75H2.047v.234c.922.094 1.156.204 1.156.61 0 .172-.094.687-.172.953l-1.844 6.61C.938-.5.829-.392-.016-.235V0h7.579l.921-2.422-.234-.125c-.703.969-1.094 1.36-1.734 1.656-.563.25-1.578.391-2.688.391-.844 0-1.203-.14-1.203-.5 0-.172.172-.86.547-2.187.187-.657.328-1.141.469-1.72.53.032.984.048 1.172.048.578-.016 1 .078 1.156.234.078.063.11.203.11.453 0 .266-.032.453-.11.781l.312.079 1.016-3.47-.281-.062c-.563 1.266-.703 1.36-2.063 1.422-.172 0-.656.016-1.172.031l.985-3.484c.093-.328.25-.39 1.093-.39 2.344 0 2.86.203 2.86 1.093 0 .188-.016.422-.031.672L9-7.469Zm0 0"/><path id="d" d="M-.125 0h4.219c2.343 0 3.953-1.219 3.953-2.984 0-.563-.172-1.078-.5-1.407-.297-.343-.594-.53-1.375-.859 1.062-.25 1.484-.422 1.969-.844.422-.36.64-.86.64-1.468 0-1.422-1.062-2.188-2.984-2.188h-3.86v.234c.938.079 1.157.188 1.157.61 0 .234-.063.594-.172.953l-1.828 6.61C.828-.485.719-.392-.125-.235Zm3.688-4.937c.968 0 1.593.046 1.89.171.61.25.984.907.984 1.72 0 1.608-1.109 2.593-2.921 2.593-.625 0-.97-.219-.97-.625 0-.172.188-.89.532-2.094.188-.672.281-1.015.485-1.765m1.109-3.954c.094-.328.266-.421.86-.421 1.187 0 1.75.515 1.75 1.624 0 .844-.36 1.5-1 1.86-.516.297-1.235.406-2.579.406Zm0 0"/><path id="e" d="M9.781-9.75h-3.11v.234c.735.094.923.188.923.532 0 .203-.094.375-.297.625L5.125-5.875 4.25-8.062c-.172-.391-.234-.641-.234-.844 0-.375.234-.5 1.062-.61v-.234H1.141v.234c.859.079 1.078.22 1.375.907l1.578 3.937c-.547.625-1.047 1.203-1.235 1.453C.781-.78.36-.406-.437-.234V0h3.203v-.234c-.72 0-.97-.141-.97-.516 0-.219.11-.469.313-.703l2.25-2.563 1 2.47c.11.265.172.5.172.718 0 .437-.156.516-1.14.594V0h4.078v-.234c-1.047-.125-1.172-.22-1.547-1.11L5.39-5.204l2.53-2.89c.766-.875 1.22-1.219 1.86-1.422Zm0 0"/><path id="f" d="m9.734-6.953.563-2.969h-.313c-.125.25-.28.328-.578.328-.11 0-.297-.031-.61-.094-.671-.171-1.265-.265-1.75-.265-3.171 0-6.062 3-6.062 6.328 0 2.281 1.61 3.89 3.907 3.89 1.53 0 2.734-.656 4.078-2.218l-.266-.219C7.36-.844 6.5-.406 5.266-.406c-1.657 0-2.61-1.125-2.61-3.063 0-1.781.719-3.578 1.89-4.797.72-.734 1.657-1.14 2.641-1.14 1.375 0 2.141.797 2.282 2.422Zm0 0"/><path id="g" d="M8.422-.234c-.844-.078-.938-.203-1.125-1.297L5.89-9.984H5.5L1.172-2.516C-.016-.516-.172-.359-.766-.234V0h2.797v-.234c-.765-.078-.875-.157-.875-.532 0-.28.032-.421.297-.921l.844-1.688h3.297l.297 1.953c.015.14.03.266.03.39 0 .563-.218.704-1.171.798V0h3.672ZM2.609-3.906l2.25-3.89.657 3.89Zm0 0"/><path id="h" d="M1.938-9.516c.937.094 1.156.204 1.156.61 0 .234-.063.594-.172.953l-1.828 6.61C.828-.485.719-.392-.125-.235V0h3.781C5.406 0 7-.469 8.156-1.297 9.61-2.359 10.453-4 10.453-5.734c0-2.453-1.703-4.016-4.36-4.016H1.939Zm2.734.641c.094-.328.312-.437.922-.437.843 0 1.593.203 2.062.562.735.531 1.14 1.469 1.14 2.656 0 1.61-.624 3.282-1.64 4.297-.875.906-2.093 1.344-3.64 1.344-.688 0-.97-.156-.97-.547 0-.187.063-.531.329-1.422Zm0 0"/><path id="i" d="M8.469-.234c-.656-.047-.953-.297-1.235-1.078L5.844-4.97c1.14-.265 1.64-.468 2.172-.953.5-.422.765-1.016.765-1.687 0-1.391-1.11-2.141-3.11-2.141H1.97v.234c.625.094.703.11.86.204.108.078.202.265.202.421 0 .188-.078.547-.172.938l-1.843 6.61C.75-.47.64-.376-.187-.235V0h3.64v-.234C2.547-.36 2.438-.437 2.438-.922c0-.156.046-.344.171-.875l.844-3.125.969.078L6.266 0h2.203ZM4.594-8.891c.093-.312.297-.421.765-.421 1.25 0 1.86.578 1.86 1.671 0 1.485-.953 2.25-2.828 2.25-.235 0-.407-.015-.766-.078Zm0 0"/><path id="j" d="m6.984-6.984.61-2.985H7.25c-.219.313-.344.39-.672.39-.187 0-.344-.046-.687-.155-.328-.141-.813-.22-1.282-.22-1.546 0-2.656 1.032-2.656 2.5 0 .813.234 1.235 1.125 2.188.14.141.328.344.578.641.266.281.485.5.594.625.688.734.89 1.11.89 1.766C5.14-1.125 4.298-.25 3.22-.25c-1.25 0-2.188-1.062-2.188-2.484 0-.125.016-.235.032-.344L.766-3.11.25.219h.266c.109-.344.28-.485.578-.485.156 0 .39.063.765.188.688.25 1.094.344 1.563.344 1.719 0 3.016-1.297 3.016-2.985 0-.969-.344-1.547-1.688-2.906S3.266-7.203 3.266-7.937c0-.938.64-1.516 1.656-1.516.547 0 1.016.187 1.328.547.328.375.438.89.469 1.875Zm0 0"/><path id="k" d="M1.36-9.516c.843.125.874.172 1.14.985l1.14 4.015-.906 3.172c-.25.813-.578 1.047-1.562 1.11V0h4.312v-.234a8 8 0 0 1-.546-.047c-.579-.031-.782-.188-.782-.563 0-.312.094-.75.453-1.922.047-.125.079-.234.094-.296l.438-1.516L8.406-8.61c.485-.594.594-.703 1.047-.907v-.234H6.625v.234c.188.016.344.032.406.047.438.047.625.156.625.422 0 .39-.687 1.375-2.234 3.172-.25.297-.344.422-.563.688-.187-.657-.234-.844-.468-1.641-.375-1.281-.532-1.922-.532-2.156 0-.344.172-.438 1.063-.532v-.234H1.359Zm0 0"/><clipPath id="a"><path d="M4 24h358.098v358.656H4Zm0 0"/></clipPath></defs><path fill="#fff" d="M0 0h362.098v382.656H0Zm0 0"/><g clip-path="url(#a)"><path fill="none" stroke="#000" stroke-miterlimit="10" stroke-width="1.1955" d="M360.75 211.414c0-93.828-76.062-169.894-169.895-169.894-93.832 0-169.894 76.066-169.894 169.894 0 93.832 76.062 169.898 169.894 169.898S360.75 305.246 360.75 211.414Zm0 0"/></g><path fill="none" stroke="#000" stroke-miterlimit="10" stroke-width="1.1955" d="M325.727 346.21c33.187-74.487-.293-161.776-74.782-194.96-74.488-33.188-161.777.293-194.96 74.781a147.7 147.7 0 0 0 0 120.18"/><path fill="none" stroke="#000" stroke-linecap="round" stroke-linejoin="round" stroke-miterlimit="10" stroke-width="1.1955" d="M105.816 64.121 43.563 296.457h294.585Zm0 0"/><path fill="none" stroke="#000" stroke-linecap="round" stroke-miterlimit="10" stroke-width="1.1955" d="M43.563 296.457 180.52 138.828M338.148 296.457 68.461 203.523M21.844 230.438l269.992-155.88"/><path fill="none" stroke="red" stroke-dasharray="4.483245 2.9888250000000003" stroke-linecap="round" stroke-miterlimit="10" stroke-width="1.1955" d="M105.816 64.121 21.844 230.438M105.816 64.121l186.02 10.438M2.71 123.648 208.923 4.594"/><path stroke="#000" stroke-miterlimit="10" stroke-width=".5985" d="M107.309 64.121c0-.824-.668-1.492-1.493-1.492-.828 0-1.496.668-1.496 1.492s.668 1.496 1.496 1.496c.825 0 1.493-.672 1.493-1.496ZM45.055 296.457a1.495 1.495 0 1 0-2.991-.001 1.495 1.495 0 0 0 2.99.001ZM339.645 296.457a1.495 1.495 0 1 0-1.496 1.492c.828 0 1.496-.668 1.496-1.492ZM69.957 203.523c0-.824-.668-1.496-1.496-1.496a1.495 1.495 0 0 0 0 2.989c.828 0 1.496-.668 1.496-1.493ZM182.016 138.828a1.493 1.493 0 1 0-2.988 0c0 .824.667 1.492 1.492 1.492.824 0 1.496-.668 1.496-1.492ZM112.934 218.332a1.495 1.495 0 1 0-2.991-.001 1.495 1.495 0 0 0 2.99.001ZM23.336 230.438c0-.825-.668-1.493-1.492-1.493a1.494 1.494 0 1 0 1.492 1.492ZM293.332 74.559a1.494 1.494 0 1 0-2.987-.005 1.494 1.494 0 0 0 2.987.005Zm0 0"/><path fill="#b20000" stroke="#4c0000" stroke-miterlimit="10" stroke-width=".5985" d="M33.664 106.64a1.495 1.495 0 1 0-2.99.007 1.495 1.495 0 0 0 2.99-.006ZM180.957 21.602c0-.825-.668-1.497-1.496-1.497a1.495 1.495 0 1 0 1.496 1.497Zm0 0"/><use xlink:href="#b" x="106.876" y="212.754"/><use xlink:href="#c" x="175.41" y="133.25"/><use xlink:href="#d" x="28.854" y="301.305"/><use xlink:href="#e" x="5.731" y="235.288"/><use xlink:href="#f" x="342.979" y="301.35"/><use xlink:href="#g" x="91.107" y="58.547"/><use xlink:href="#h" x="52.096" y="197.945"/><use xlink:href="#i" x="17.462" y="101.066"/><use xlink:href="#j" x="166.293" y="15.773"/><use xlink:href="#k" x="296.667" y="68.981"/></svg>