<svg xmlns="http://www.w3.org/2000/svg" xmlns:xlink="http://www.w3.org/1999/xlink" width="235.812" height="270.73" viewBox="0 0 176.859 203.048"><defs><path id="a" d="M6-1.656a6 6 0 0 0-.328.406c-.344.438-.516.594-.688.594-.218 0-.359-.188-.453-.61-.031-.125-.047-.218-.062-.265-.375-1.5-.547-2.188-.547-2.407C4.578-5.093 5.125-5.75 5.39-5.75c.093 0 .203.047.359.125.188.094.281.125.406.125.313 0 .516-.219.516-.531s-.25-.563-.61-.563c-.656 0-1.218.547-2.25 2.14l-.171-.812c-.203-1.015-.375-1.328-.766-1.328-.328 0-.844.14-1.75.438l-.172.062.063.219c.562-.125.703-.156.843-.156.36 0 .454.125.672 1.031l.422 1.828-1.219 1.75c-.296.453-.593.719-.765.719-.094 0-.235-.047-.39-.14a1.2 1.2 0 0 0-.47-.141.51.51 0 0 0-.515.515c0 .39.297.64.75.64.469 0 .64-.14 1.39-1.046.407-.484.72-.89 1.344-1.75l.453 1.781c.188.766.375 1.016.86 1.016.562 0 .953-.36 1.828-1.703Zm0 0"/><path id="b" d="M.219-5.969c.203-.047.297-.062.469-.062.843 0 1.078.375 1.765 2.937.25.969.61 2.719.61 2.969s-.094.484-.313.75c-.469.61-.766 1-.922 1.188-.312.328-.5.437-.687.437-.094 0-.203-.047-.36-.156-.234-.188-.39-.25-.562-.25a.567.567 0 0 0-.578.578c0 .375.328.656.765.656.953 0 2.907-2.234 4.516-5.203 1.016-1.828 1.437-2.906 1.437-3.64a.83.83 0 0 0-.812-.829c-.344 0-.594.235-.594.563 0 .218.125.39.422.578.281.172.39.297.39.516 0 .593-.546 1.75-1.827 3.859L3.64-2.812c-.22-1.313-1.063-3.782-1.282-3.782h-.062c-.016.016-.078.016-.125.016-.14.016-.672.11-1.469.266-.078.015-.265.046-.484.078Zm0 0"/><path id="c" d="M7.078-9.953c-1.25 0-2.594.61-3.797 1.687-1.5 1.391-2.39 3.22-2.39 4.97C.89-1.204 2.25.265 4.156.265c3.11 0 6.125-3.141 6.282-6.516.109-2.094-1.36-3.703-3.36-3.703m-.125.5c1.172 0 1.922.86 1.922 2.265 0 1.61-.703 3.797-1.672 5.204C6.375-.812 5.453-.22 4.406-.22c-1.25 0-1.937-.922-1.937-2.531 0-1.406.75-3.625 1.64-4.922.829-1.219 1.75-1.781 2.844-1.781m0 0"/><path id="d" d="M8.422-.234c-.844-.078-.938-.203-1.125-1.297L5.89-9.984H5.5L1.172-2.516C-.016-.516-.172-.359-.766-.234V0h2.797v-.234c-.765-.078-.875-.157-.875-.532 0-.28.032-.421.297-.921l.844-1.688h3.297l.297 1.953c.015.14.03.266.03.39 0 .563-.218.704-1.171.798V0h3.672ZM2.609-3.906l2.25-3.89.657 3.89Zm0 0"/><path id="i" d="M-.125 0h4.219c2.343 0 3.953-1.219 3.953-2.984 0-.563-.172-1.078-.5-1.407-.297-.343-.594-.53-1.375-.859 1.062-.25 1.484-.422 1.969-.844.422-.36.64-.86.64-1.468 0-1.422-1.062-2.188-2.984-2.188h-3.86v.234c.938.079 1.157.188 1.157.61 0 .234-.063.594-.172.953l-1.828 6.61C.828-.485.719-.392-.125-.235Zm3.688-4.937c.968 0 1.593.046 1.89.171.61.25.984.907.984 1.72 0 1.608-1.109 2.593-2.921 2.593-.625 0-.97-.219-.97-.625 0-.172.188-.89.532-2.094.188-.672.281-1.015.485-1.765m1.109-3.954c.094-.328.266-.421.86-.421 1.187 0 1.75.515 1.75 1.624 0 .844-.36 1.5-1 1.86-.516.297-1.235.406-2.579.406Zm0 0"/><path id="k" d="M13.047-9.75h-2.5L5.53-2.39l-.828-7.36H2v.234c.75.047 1.11.204 1.11.547 0 .125-.063.344-.157.625-.031.047-.062.219-.125.438-.015.047-.031.11-.047.172L1.187-2.187C.734-.625.517-.328-.266-.234V0h2.954v-.234c-.766-.063-1.063-.25-1.063-.657 0-.156.063-.546.14-.796l1.766-6.47L4.437 0h.25l5.641-8.375-1.937 7.016c-.235.797-.532 1.015-1.5 1.125V0h4.078v-.234C9.953-.328 9.813-.422 9.813-.875c0-.266.03-.453.171-.922l1.829-6.61c.265-.905.343-.968 1.234-1.109Zm0 0"/><path id="l" d="M6.953-1.75c-.812 1.016-1 1.188-1.234 1.188-.125 0-.235-.141-.235-.282s.235-1.078.485-1.86c.437-1.421.718-2.53.718-2.89 0-.593-.406-1-.984-1-.969 0-2.031 1-3.422 3.157l1.797-6.688L4-10.203c-.86.187-1.453.297-2.344.406v.219h.39c.017 0 .032 0 .048-.016.203-.078.562.172.562.375 0 .219-.078.578-.203 1.016-.015.015-.062.219-.156.562L.28 0h1.125c.594-2.297.797-2.812 1.39-3.719.767-1.187 1.782-2.11 2.313-2.11.22 0 .422.188.422.376 0 .062-.047.25-.11.5L4.595-1.86c-.188.718-.297 1.187-.297 1.359 0 .39.266.64.656.64.766 0 1.297-.406 2.188-1.703Zm0 0"/><path id="e" d="M4.938 3.578c0-.031 0-.062-.25-.328-1.86-1.875-2.344-4.703-2.344-6.984 0-2.594.562-5.203 2.406-7.063.188-.187.188-.219.188-.25 0-.11-.047-.156-.141-.156-.156 0-1.5 1.015-2.375 2.906-.766 1.656-.938 3.313-.938 4.563 0 1.172.157 2.968.985 4.656.89 1.844 2.172 2.812 2.328 2.812.094 0 .14-.046.14-.156m0 0"/><path id="h" d="M4.313-3.734c0-1.172-.157-2.97-.985-4.657-.89-1.843-2.172-2.812-2.328-2.812-.094 0-.156.062-.156.156 0 .031 0 .063.297.344C2.594-9.234 3.453-6.86 3.453-3.734c0 2.547-.562 5.187-2.406 7.062-.203.188-.203.219-.203.25 0 .094.062.156.156.156.156 0 1.5-1.015 2.375-2.906.766-1.656.938-3.312.938-4.562m0 0"/><path id="m" d="M10.266-4.89c.218 0 .5 0 .5-.298 0-.296-.282-.296-.485-.296H1.328c-.203 0-.484 0-.484.297 0 .296.281.296.5.296Zm.015 2.906c.203 0 .485 0 .485-.297s-.282-.297-.5-.297H1.344c-.219 0-.5 0-.5.297s.281.297.484.297Zm0 0"/><path id="f" d="M3.219-7.484 1.234-6.47v.157c.125-.063.25-.11.297-.125.188-.079.375-.125.5-.125q.328 0 .328.515v5.016c0 .375-.093.625-.265.718-.172.11-.328.141-.781.141V0h3.046v-.172c-.875 0-1.046-.11-1.046-.64v-6.641Zm0 0"/><path id="j" d="m5.25-1.516-.14-.062c-.407.64-.548.734-1.048.734h-2.64l1.86-1.937c.984-1.031 1.406-1.875 1.406-2.735 0-1.109-.891-1.968-2.047-1.968-.61 0-1.188.25-1.594.687-.344.375-.516.734-.703 1.516l.234.062c.438-1.093.844-1.437 1.594-1.437.937 0 1.562.625 1.562 1.562 0 .86-.5 1.89-1.437 2.875L.328-.125V0h4.313Zm0 0"/><path id="g" d="M3.031-.016c0-.984-.375-1.562-.953-1.562-.5 0-.797.375-.797.781S1.578 0 2.078 0a.8.8 0 0 0 .516-.187c.047-.032.062-.047.078-.047.015 0 .031.015.031.218 0 1.11-.515 2-1.015 2.5-.157.157-.157.188-.157.235 0 .11.063.172.14.172.173 0 1.36-1.157 1.36-2.907m0 0"/><path id="n" d="M2.375-10.672c0-.265 0-.531-.297-.531s-.297.265-.297.531V3.203c0 .266 0 .531.297.531s.297-.265.297-.53Zm0 0"/></defs><path fill="#ccf0cc" fill-opacity=".7" stroke="#00b200" stroke-miterlimit="10" stroke-opacity=".7" stroke-width=".5985" d="M107.348 134.574h-10.63v-10.629h10.63v10.63"/><path fill="none" stroke="#000" stroke-miterlimit="10" stroke-width=".5985" d="M1.047 134.574H165.75"/><path d="M171.129 134.574c-1.594-.3-4.184-1.195-5.977-2.242v4.484c1.793-1.046 4.383-1.945 5.977-2.242"/><use xlink:href="#a" x="167.787" y="147.043"/><path fill="none" stroke="#000" stroke-miterlimit="10" stroke-width=".5985" d="M22.309 198.355V12.395"/><path d="M22.309 7.012c-.301 1.597-1.196 4.187-2.243 5.98h4.485c-1.047-1.793-1.946-4.383-2.242-5.98"/><use xlink:href="#b" x="9.696" y="8.736"/><path fill="none" stroke="#000" stroke-linecap="round" stroke-linejoin="round" stroke-miterlimit="10" stroke-width="1.1955" d="m22.309 134.574 85.039 42.52V49.535Zm0 0"/><path fill="none" stroke="#00b200" stroke-dasharray="4.483245 2.9888250000000003" stroke-linecap="round" stroke-miterlimit="10" stroke-width="1.1955" d="M22.309 134.574h85.039"/><path fill="#7f7f7f" stroke="#000" stroke-miterlimit="10" stroke-width=".5985" d="M23.8 134.574c0-.824-.667-1.496-1.491-1.496s-1.497.672-1.497 1.496.672 1.496 1.497 1.496c.824 0 1.492-.672 1.492-1.496ZM108.844 177.094a1.495 1.495 0 0 0-2.989 0c0 .824.668 1.496 1.493 1.496.824 0 1.496-.672 1.496-1.496ZM108.844 49.535a1.493 1.493 0 1 0-2.988 0c0 .824.667 1.492 1.492 1.492.824 0 1.496-.668 1.496-1.492ZM108.844 134.574c0-.824-.672-1.496-1.496-1.496a1.495 1.495 0 1 0 1.496 1.496Zm0 0"/><use xlink:href="#c" x="6.24" y="149.895"/><use xlink:href="#d" x="80.343" y="193.581"/><use xlink:href="#e" x="91.134" y="193.581"/><use xlink:href="#a" x="96.931" y="193.581"/><use xlink:href="#f" x="103.567" y="195.839"/><use xlink:href="#g" x="109.844" y="193.581"/><use xlink:href="#b" x="115.644" y="193.581"/><use xlink:href="#f" x="122.278" y="195.839"/><use xlink:href="#h" x="128.554" y="193.581"/><use xlink:href="#i" x="80.343" y="40.518"/><use xlink:href="#e" x="91.134" y="40.518"/><use xlink:href="#a" x="96.931" y="40.518"/><use xlink:href="#j" x="103.567" y="42.776"/><use xlink:href="#g" x="109.844" y="40.518"/><use xlink:href="#b" x="115.644" y="40.518"/><use xlink:href="#j" x="122.278" y="42.776"/><use xlink:href="#h" x="128.554" y="40.518"/><use xlink:href="#k" x="112.627" y="149.552"/><use xlink:href="#l" x="41.371" y="125.558" fill="#00b200"/><use xlink:href="#m" x="52.164" y="125.558" fill="#00b200"/><use xlink:href="#n" x="67.095" y="125.558" fill="#00b200"/><use xlink:href="#a" x="71.235" y="125.558" fill="#00b200"/><use xlink:href="#f" x="77.87" y="127.815" fill="#00b200"/><use xlink:href="#n" x="84.147" y="125.558" fill="#00b200"/></svg>