<svg xmlns="http://www.w3.org/2000/svg" xmlns:xlink="http://www.w3.org/1999/xlink" width="157.208" height="180.487" viewBox="0 0 117.906 135.365"><defs><path id="a" d="M4-1.11c-.078.094-.125.157-.219.266-.219.313-.344.407-.453.407-.14 0-.234-.125-.312-.407-.016-.078-.032-.14-.032-.172-.25-1.015-.359-1.468-.359-1.609.438-.781.797-1.219.969-1.219.062 0 .14.031.25.078.11.079.187.094.265.094.204 0 .344-.14.344-.36 0-.202-.172-.359-.406-.359-.438 0-.813.36-1.5 1.422l-.11-.547c-.14-.687-.25-.875-.53-.875-.22 0-.548.079-1.157.282l-.11.046.032.141c.39-.078.469-.11.562-.11.25 0 .313.095.454.688l.28 1.235-.812 1.156C.953-.641.75-.47.641-.47a.55.55 0 0 1-.25-.094.76.76 0 0 0-.328-.093c-.188 0-.329.14-.329.344 0 .265.204.421.5.421s.422-.093.922-.703c.266-.312.485-.578.89-1.156L2.36-.562c.125.515.25.671.579.671.374 0 .624-.234 1.203-1.14Zm0 0"/><path id="b" d="M.156-3.984c.125-.032.188-.047.297-.047.578 0 .719.25 1.188 1.968.156.641.406 1.813.406 1.985 0 .156-.063.312-.219.5-.297.406-.5.672-.61.781C1 1.422.892 1.5.75 1.5c-.047 0-.125-.031-.234-.11-.141-.109-.25-.171-.36-.171a.387.387 0 0 0-.39.39c0 .25.218.438.5.438.64 0 1.953-1.485 3.03-3.469.673-1.219.954-1.937.954-2.422a.554.554 0 0 0-.547-.547c-.234 0-.39.141-.39.36 0 .156.078.265.28.39.188.11.25.204.25.344 0 .39-.359 1.172-1.218 2.578l-.187-1.156c-.157-.875-.72-2.516-.86-2.516h-.125l-.984.172a2 2 0 0 1-.313.063Zm0 0"/><path id="c" d="M4.719-6.64c-.828 0-1.735.406-2.532 1.124-1 .938-1.593 2.141-1.593 3.313C.594-.813 1.5.172 2.766.172c2.078 0 4.093-2.078 4.203-4.344.062-1.406-.907-2.469-2.25-2.469m-.078.327c.78 0 1.28.579 1.28 1.516 0 1.078-.468 2.531-1.109 3.469C4.25-.531 3.641-.156 2.938-.156c-.828 0-1.296-.594-1.296-1.672 0-.938.5-2.422 1.093-3.297.563-.812 1.172-1.187 1.907-1.187m0 0"/><path id="d" d="M5.625-.156c-.578-.047-.625-.14-.766-.86l-.937-5.64h-.25L.782-1.672C-.017-.344-.11-.234-.517-.156V0H1.36v-.156C.844-.203.766-.266.766-.516c0-.187.03-.265.203-.609L1.53-2.25h2.203l.188 1.297c.015.094.031.187.031.265 0 .375-.14.47-.781.532V0h2.453ZM1.75-2.61l1.484-2.594.438 2.594Zm0 0"/><path id="i" d="M-.078 0h2.812c1.563 0 2.641-.812 2.641-2 0-.36-.125-.719-.344-.937-.203-.22-.39-.344-.922-.563.72-.172 1-.281 1.329-.562q.42-.375.421-.985c0-.937-.703-1.469-1.984-1.469H1.297v.172c.61.047.766.125.766.407 0 .14-.032.39-.11.64L.734-.89c-.187.579-.25.625-.812.735Zm2.453-3.297c.64 0 1.063.031 1.266.11.406.171.656.609.656 1.156 0 1.078-.734 1.734-1.953 1.734-.422 0-.64-.156-.64-.422 0-.125.124-.593.343-1.39.14-.453.203-.688.328-1.188m.75-2.64c.063-.22.172-.266.563-.266.796 0 1.171.328 1.171 1.062 0 .579-.25 1.016-.671 1.25-.344.204-.813.266-1.72.266Zm0 0"/><path id="k" d="M8.703-6.516H7.031L3.688-1.594 3.14-6.516H1.328v.172c.5.032.75.14.75.36 0 .078-.047.234-.11.406a3 3 0 0 0-.077.297.3.3 0 0 0-.032.125L.797-1.453C.484-.422.344-.22-.172-.156V0h1.969v-.156c-.516-.047-.703-.156-.703-.438 0-.11.031-.36.078-.531l1.187-4.312L2.953 0h.172l3.766-5.594L5.609-.906c-.171.531-.359.672-1.015.75V0h2.718v-.156c-.671-.063-.765-.125-.765-.438 0-.156.016-.297.11-.61L7.89-5.608c.172-.594.218-.657.812-.735Zm0 0"/><path id="l" d="M4.64-1.172c-.546.688-.656.797-.827.797-.079 0-.157-.094-.157-.187 0-.094.156-.72.328-1.235.297-.953.485-1.687.485-1.937 0-.391-.266-.657-.657-.657-.656 0-1.359.657-2.28 2.094l1.187-4.469-.047-.046c-.578.14-.969.203-1.563.265v.156h.25c.016 0 .032 0 .032-.015.14-.047.39.11.39.25s-.062.39-.14.687c-.016 0-.047.14-.11.36L.188 0h.75c.39-1.531.53-1.875.921-2.484.516-.782 1.204-1.407 1.547-1.407.156 0 .281.125.281.25 0 .047-.03.172-.062.329L3.078-1.25c-.14.5-.203.797-.203.922 0 .266.172.422.438.422.5 0 .859-.266 1.453-1.14Zm0 0"/><path id="e" d="M3.297 2.39c0-.03 0-.046-.172-.218C1.891.922 1.563-.968 1.563-2.5c0-1.734.375-3.469 1.609-4.703.125-.125.125-.14.125-.172 0-.078-.031-.11-.094-.11-.11 0-1 .688-1.594 1.954C1.11-4.438.984-3.328.984-2.5c0 .781.11 1.984.657 3.125C2.25 1.844 3.094 2.5 3.203 2.5c.063 0 .094-.031.094-.11m0 0"/><path id="h" d="M2.875-2.5c0-.766-.11-1.969-.656-3.11C1.625-6.827.766-7.483.672-7.483a.107.107 0 0 0-.11.109c0 .031 0 .047.188.234.984.985 1.547 2.563 1.547 4.641 0 1.719-.36 3.469-1.594 4.719-.14.125-.14.14-.14.172 0 .062.046.109.109.109.094 0 1-.687 1.578-1.953.516-1.094.625-2.203.625-3.047m0 0"/><path id="m" d="M6.844-3.266c.156 0 .343 0 .343-.187 0-.203-.187-.203-.328-.203H.891c-.141 0-.328 0-.328.203 0 .187.187.187.328.187Zm.015 1.938c.141 0 .329 0 .329-.203 0-.188-.188-.188-.344-.188H.89c-.141 0-.328 0-.328.188 0 .203.187.203.328.203Zm0 0"/><path id="f" d="m2.14-4.984-1.328.672v.093c.094-.031.172-.062.204-.078.14-.047.265-.078.328-.078.156 0 .234.11.234.344v3.343c0 .25-.062.422-.187.485-.11.062-.203.078-.516.094V0h2.031v-.11c-.578-.015-.703-.077-.703-.437v-4.422Zm0 0"/><path id="j" d="m3.5-1.016-.094-.03c-.265.421-.375.484-.703.484H.938l1.25-1.297c.656-.688.937-1.25.937-1.828 0-.735-.594-1.297-1.36-1.297-.406 0-.796.156-1.062.453-.234.25-.344.484-.469 1.015l.157.032c.28-.72.547-.953 1.062-.953.625 0 1.047.421 1.047 1.03 0 .579-.344 1.266-.969 1.923L.22-.094V0h2.875Zm0 0"/><path id="g" d="M2.031-.016c0-.656-.25-1.046-.64-1.046a.517.517 0 0 0-.532.53c0 .266.204.532.532.532a.58.58 0 0 0 .343-.125c.032-.031.047-.031.047-.031.016 0 .016 0 .016.14 0 .75-.344 1.344-.672 1.672-.11.11-.11.125-.11.157 0 .078.048.109.094.109.11 0 .922-.766.922-1.938m0 0"/><path id="n" d="M1.578-7.125c0-.172 0-.36-.187-.36-.203 0-.203.188-.203.36v9.266c0 .172 0 .359.203.359.187 0 .187-.187.187-.36Zm0 0"/></defs><path fill="#fff" d="M0 0h117.906v135.363H0Zm0 0"/><path fill="#ccf0cc" fill-opacity=".7" stroke="#00b200" stroke-miterlimit="10" stroke-opacity=".7" stroke-width=".399" d="M71.566 89.715H64.48v-7.086h7.086v7.086"/><path fill="none" stroke="#000" stroke-miterlimit="10" stroke-width=".399" d="M.7 89.715h109.8"/><path d="M114.086 89.715c-1.063-.2-2.79-.797-3.984-1.492v2.988c1.195-.7 2.921-1.297 3.984-1.496"/><use xlink:href="#a" x="111.858" y="98.029"/><path fill="none" stroke="#000" stroke-miterlimit="10" stroke-width=".399" d="M14.871 132.234V8.262"/><path d="M14.871 4.676c-.2 1.062-.797 2.789-1.492 3.984h2.988c-.699-1.195-1.297-2.922-1.496-3.984"/><use xlink:href="#b" x="6.464" y="5.824"/><path fill="none" stroke="#000" stroke-linecap="round" stroke-linejoin="round" stroke-miterlimit="10" stroke-width=".797" d="m14.871 89.715 56.695 28.347V33.024Zm0 0"/><path fill="none" stroke="#00b200" stroke-dasharray="2.98883 1.99255" stroke-linecap="round" stroke-miterlimit="10" stroke-width=".797" d="M14.871 89.715h56.695"/><path fill="#7f7f7f" stroke="#000" stroke-miterlimit="10" stroke-width=".399" d="M15.867 89.715a.995.995 0 1 0-1.99-.002.995.995 0 0 0 1.99.002ZM72.563 118.063a.995.995 0 1 0-1.991-.002.995.995 0 0 0 1.99.001ZM72.563 33.023a.995.995 0 1 0-1.991-.001.995.995 0 0 0 1.99.001ZM72.563 89.715a.995.995 0 1 0-1.991-.002.995.995 0 0 0 1.99.002Zm0 0"/><use xlink:href="#c" x="4.16" y="99.93"/><use xlink:href="#d" x="53.562" y="129.054"/><use xlink:href="#e" x="60.756" y="129.054"/><use xlink:href="#a" x="64.621" y="129.054"/><use xlink:href="#f" x="69.045" y="130.559"/><use xlink:href="#g" x="73.229" y="129.054"/><use xlink:href="#b" x="77.096" y="129.054"/><use xlink:href="#f" x="81.519" y="130.559"/><use xlink:href="#h" x="85.703" y="129.054"/><use xlink:href="#i" x="53.562" y="27.012"/><use xlink:href="#e" x="60.756" y="27.012"/><use xlink:href="#a" x="64.621" y="27.012"/><use xlink:href="#j" x="69.045" y="28.517"/><use xlink:href="#g" x="73.229" y="27.012"/><use xlink:href="#b" x="77.096" y="27.012"/><use xlink:href="#j" x="81.519" y="28.517"/><use xlink:href="#h" x="85.703" y="27.012"/><use xlink:href="#k" x="75.085" y="99.701"/><use xlink:href="#l" x="27.581" y="83.705" fill="#00b200"/><use xlink:href="#m" x="34.776" y="83.705" fill="#00b200"/><use xlink:href="#n" x="44.73" y="83.705" fill="#00b200"/><use xlink:href="#a" x="47.49" y="83.705" fill="#00b200"/><use xlink:href="#f" x="51.913" y="85.21" fill="#00b200"/><use xlink:href="#n" x="56.098" y="83.705" fill="#00b200"/></svg>