<svg xmlns="http://www.w3.org/2000/svg" xmlns:xlink="http://www.w3.org/1999/xlink" width="411.72" height="241.06" viewBox="0 0 308.79 180.795"><defs><path id="a" d="M6-1.656a6 6 0 0 0-.328.406c-.344.438-.516.594-.688.594-.218 0-.359-.188-.453-.61-.031-.125-.047-.218-.062-.265-.375-1.5-.547-2.188-.547-2.407C4.578-5.093 5.125-5.75 5.39-5.75c.093 0 .203.047.359.125.188.094.281.125.406.125.313 0 .516-.219.516-.531s-.25-.563-.61-.563c-.656 0-1.218.547-2.25 2.14l-.171-.812c-.203-1.015-.375-1.328-.766-1.328-.328 0-.844.14-1.75.438l-.172.062.063.219c.562-.125.703-.156.843-.156.36 0 .454.125.672 1.031l.422 1.828-1.219 1.75c-.296.453-.593.719-.765.719-.094 0-.235-.047-.39-.14a1.2 1.2 0 0 0-.47-.141.51.51 0 0 0-.515.515c0 .39.297.64.75.64.469 0 .64-.14 1.39-1.046.407-.484.72-.89 1.344-1.75l.453 1.781c.188.766.375 1.016.86 1.016.562 0 .953-.36 1.828-1.703Zm0 0"/><path id="b" d="M.219-5.969c.203-.047.297-.062.469-.062.843 0 1.078.375 1.765 2.937.25.969.61 2.719.61 2.969s-.094.484-.313.75c-.469.61-.766 1-.922 1.188-.312.328-.5.437-.687.437-.094 0-.203-.047-.36-.156-.234-.188-.39-.25-.562-.25a.567.567 0 0 0-.578.578c0 .375.328.656.765.656.953 0 2.907-2.234 4.516-5.203 1.016-1.828 1.437-2.906 1.437-3.64a.83.83 0 0 0-.812-.829c-.344 0-.594.235-.594.563 0 .218.125.39.422.578.281.172.39.297.39.516 0 .593-.546 1.75-1.827 3.859L3.64-2.812c-.22-1.313-1.063-3.782-1.282-3.782h-.062c-.016.016-.078.016-.125.016-.14.016-.672.11-1.469.266-.078.015-.265.046-.484.078Zm0 0"/><path id="c" d="M7.078-9.953c-1.25 0-2.594.61-3.797 1.687-1.5 1.391-2.39 3.22-2.39 4.97C.89-1.204 2.25.265 4.156.265c3.11 0 6.125-3.141 6.282-6.516.109-2.094-1.36-3.703-3.36-3.703m-.125.5c1.172 0 1.922.86 1.922 2.265 0 1.61-.703 3.797-1.672 5.204C6.375-.812 5.453-.22 4.406-.22c-1.25 0-1.937-.922-1.937-2.531 0-1.406.75-3.625 1.64-4.922.829-1.219 1.75-1.781 2.844-1.781m0 0"/><path id="d" d="M8.422-.234c-.844-.078-.938-.203-1.125-1.297L5.89-9.984H5.5L1.172-2.516C-.016-.516-.172-.359-.766-.234V0h2.797v-.234c-.765-.078-.875-.157-.875-.532 0-.28.032-.421.297-.921l.844-1.688h3.297l.297 1.953c.015.14.03.266.03.39 0 .563-.218.704-1.171.798V0h3.672ZM2.609-3.906l2.25-3.89.657 3.89Zm0 0"/><path id="i" d="M-.125 0h4.219c2.343 0 3.953-1.219 3.953-2.984 0-.563-.172-1.078-.5-1.407-.297-.343-.594-.53-1.375-.859 1.062-.25 1.484-.422 1.969-.844.422-.36.64-.86.64-1.468 0-1.422-1.062-2.188-2.984-2.188h-3.86v.234c.938.079 1.157.188 1.157.61 0 .234-.063.594-.172.953l-1.828 6.61C.828-.485.719-.392-.125-.235Zm3.688-4.937c.968 0 1.593.046 1.89.171.61.25.984.907.984 1.72 0 1.608-1.109 2.593-2.921 2.593-.625 0-.97-.219-.97-.625 0-.172.188-.89.532-2.094.188-.672.281-1.015.485-1.765m1.109-3.954c.094-.328.266-.421.86-.421 1.187 0 1.75.515 1.75 1.624 0 .844-.36 1.5-1 1.86-.516.297-1.235.406-2.579.406Zm0 0"/><path id="k" d="M10.781-9.75H7.47v.234c.172.016.343.047.406.047.36.031.5.125.5.281 0 .36-.812 1.172-2.14 2.094L3.952-5.516l.797-2.89c.219-.75.625-1.047 1.516-1.11v-.234H2.188v.234c.921.094 1.14.204 1.14.641 0 .219-.062.563-.156.922l-1.844 6.61C1.062-.454.984-.376.11-.235V0h3.704v-.234c-.938-.11-1.079-.203-1.079-.657 0-.156.032-.296.125-.593l.079-.313.937-3.406 1.797 3.11c.36.609.578 1.14.578 1.421 0 .219-.219.344-.687.39-.079 0-.25.016-.438.048V0h4.11v-.234c-.938-.094-1.032-.141-1.454-.844L5.188-5.594l4.484-3.39c.406-.313.75-.47 1.11-.532Zm0 0"/><path id="l" d="M6.953-1.75c-.812 1.016-1 1.188-1.234 1.188-.125 0-.235-.141-.235-.282s.235-1.078.485-1.86c.437-1.421.718-2.53.718-2.89 0-.593-.406-1-.984-1-.969 0-2.031 1-3.422 3.157l1.797-6.688L4-10.203c-.86.187-1.453.297-2.344.406v.219h.39c.017 0 .032 0 .048-.016.203-.078.562.172.562.375 0 .219-.078.578-.203 1.016-.015.015-.062.219-.156.562L.28 0h1.125c.594-2.297.797-2.812 1.39-3.719.767-1.187 1.782-2.11 2.313-2.11.22 0 .422.188.422.376 0 .062-.047.25-.11.5L4.595-1.86c-.188.718-.297 1.187-.297 1.359 0 .39.266.64.656.64.766 0 1.297-.406 2.188-1.703Zm0 0"/><path id="e" d="M4.938 3.578c0-.031 0-.062-.25-.328-1.86-1.875-2.344-4.703-2.344-6.984 0-2.594.562-5.203 2.406-7.063.188-.187.188-.219.188-.25 0-.11-.047-.156-.141-.156-.156 0-1.5 1.015-2.375 2.906-.766 1.656-.938 3.313-.938 4.563 0 1.172.157 2.968.985 4.656.89 1.844 2.172 2.812 2.328 2.812.094 0 .14-.046.14-.156m0 0"/><path id="h" d="M4.313-3.734c0-1.172-.157-2.97-.985-4.657-.89-1.843-2.172-2.812-2.328-2.812-.094 0-.156.062-.156.156 0 .031 0 .063.297.344C2.594-9.234 3.453-6.86 3.453-3.734c0 2.547-.562 5.187-2.406 7.062-.203.188-.203.219-.203.25 0 .094.062.156.156.156.156 0 1.5-1.015 2.375-2.906.766-1.656.938-3.312.938-4.562m0 0"/><path id="m" d="M10.266-4.89c.218 0 .5 0 .5-.298 0-.296-.282-.296-.485-.296H1.328c-.203 0-.484 0-.484.297 0 .296.281.296.5.296Zm.015 2.906c.203 0 .485 0 .485-.297s-.282-.297-.5-.297H1.344c-.219 0-.5 0-.5.297s.281.297.484.297Zm0 0"/><path id="f" d="M3.219-7.484 1.234-6.47v.157c.125-.063.25-.11.297-.125.188-.079.375-.125.5-.125q.328 0 .328.515v5.016c0 .375-.093.625-.265.718-.172.11-.328.141-.781.141V0h3.046v-.172c-.875 0-1.046-.11-1.046-.64v-6.641Zm0 0"/><path id="j" d="m5.25-1.516-.14-.062c-.407.64-.548.734-1.048.734h-2.64l1.86-1.937c.984-1.031 1.406-1.875 1.406-2.735 0-1.109-.891-1.968-2.047-1.968-.61 0-1.188.25-1.594.687-.344.375-.516.734-.703 1.516l.234.062c.438-1.093.844-1.437 1.594-1.437.937 0 1.562.625 1.562 1.562 0 .86-.5 1.89-1.437 2.875L.328-.125V0h4.313Zm0 0"/><path id="g" d="M3.031-.016c0-.984-.375-1.562-.953-1.562-.5 0-.797.375-.797.781S1.578 0 2.078 0a.8.8 0 0 0 .516-.187c.047-.032.062-.047.078-.047.015 0 .031.015.031.218 0 1.11-.515 2-1.015 2.5-.157.157-.157.188-.157.235 0 .11.063.172.14.172.173 0 1.36-1.157 1.36-2.907m0 0"/><path id="n" d="M1.766-7.906c0-.188 0-.39-.235-.39-.218 0-.218.202-.218.39V2.375c0 .188 0 .39.218.39.235 0 .235-.203.235-.39Zm0 0"/><path id="q" d="M2.125-2.766a.593.593 0 0 0-.594-.593.59.59 0 0 0-.578.593.59.59 0 0 0 .578.594.593.593 0 0 0 .594-.594m0 0"/><path id="o" d="M9.844-3.437c.25 0 .515 0 .515-.297s-.265-.297-.515-.297H1.766c-.25 0-.532 0-.532.297s.282.297.532.297Zm0 0"/><path id="p" d="M12.453-3.437c-.812.624-1.219 1.234-1.344 1.437-.671 1.031-.78 1.969-.78 1.984 0 .188.171.188.296.188.25 0 .266-.031.328-.313.344-1.453 1.219-2.718 2.906-3.406.188-.047.235-.078.235-.187 0-.11-.094-.157-.125-.172-.656-.25-2.469-1-3.031-3.5-.047-.188-.063-.235-.313-.235-.125 0-.297 0-.297.188 0 .031.125.969.75 1.969.297.453.735.968 1.375 1.453H1.36c-.265 0-.53 0-.53.297s.265.297.53.297Zm0 0"/><path id="r" d="M3.797.14c.469-.156.734-.202 1.453-.28l.688-.079v-.25c-.485-.031-.61-.172-.61-.656v-3.969H3.094v.266c.562.031.687.172.687.64v3.141c-.36.36-.594.484-.906.484-.453 0-.625-.218-.625-.78v-3.75H.172v.265c.453.078.547.187.547.64v2.797c0 .97.547 1.547 1.469 1.547.578 0 .968-.172 1.609-.734Zm0 0"/><path id="s" d="M5.125.188c.64-.22 1-.282 1.969-.375l.922-.11V-.64c-.657-.03-.828-.218-.828-.875V-6.89h-3v.36c.734.062.921.25.921.89v4.22c-.5.5-.812.655-1.218.655-.625 0-.844-.296-.844-1.062v-5.063H.234v.36c.61.125.735.25.735.89v3.766c0 1.313.75 2.078 1.984 2.078.781 0 1.297-.234 2.172-.984Zm0 0"/></defs><path fill="#fff" d="M0 0h308.79v180.797H0Zm0 0"/><path fill="#ccf0cc" fill-opacity=".7" stroke="#00b200" stroke-miterlimit="10" stroke-opacity=".7" stroke-width=".5985" d="m103.215 160.086 9.508-4.754-4.754-9.508-9.508 4.754 4.754 9.508M154.242 134.574l-4.754-9.508 9.508-4.754 4.754 9.508-9.508 4.754"/><path fill="none" stroke="#000" stroke-miterlimit="10" stroke-width=".5985" d="M16.05 134.574h281.63"/><path d="M303.063 134.574c-1.594-.3-4.188-1.195-5.981-2.242v4.484c1.793-1.046 4.387-1.945 5.98-2.242"/><use xlink:href="#a" x="299.719" y="147.045"/><path fill="none" stroke="#000" stroke-miterlimit="10" stroke-width=".5985" d="M154.242 177.094v-164.7"/><path d="M154.242 7.012c-.3 1.597-1.195 4.187-2.242 5.98h4.48c-1.042-1.793-1.94-4.383-2.238-5.98"/><use xlink:href="#b" x="141.629" y="8.738"/><path fill="none" stroke="#000" stroke-linecap="round" stroke-linejoin="round" stroke-miterlimit="10" stroke-width="1.1955" d="m154.242 134.574 85.04-42.52-191.34-42.519Zm0 0"/><path fill="none" stroke="#00b200" stroke-dasharray="4.483245 2.9888250000000003" stroke-linecap="round" stroke-miterlimit="10" stroke-width="1.1955" d="m154.242 134.574-51.027 25.512L47.94 49.536"/><path fill="none" stroke="#00b200" stroke-linecap="round" stroke-miterlimit="10" stroke-width="1.1955" d="M154.242 134.574 114.848 55.79"/><path fill="#00b200" d="M111.719 49.535c.582 2.028 1.043 5.559.87 8.25l5.212-2.605c-2.258-1.477-4.805-3.965-6.082-5.645"/><path fill="#7f7f7f" stroke="#000" stroke-miterlimit="10" stroke-width=".5985" d="M155.734 134.574a1.495 1.495 0 1 0-2.99-.001 1.495 1.495 0 0 0 2.99.001ZM240.773 92.055c0-.828-.668-1.496-1.492-1.496s-1.496.668-1.496 1.496a1.495 1.495 0 0 0 2.988 0ZM49.434 49.535a1.494 1.494 0 1 0-2.99-.005 1.494 1.494 0 0 0 2.99.005Zm0 0"/><path fill="#7fd97f" stroke="#00b200" stroke-miterlimit="10" stroke-width=".5985" d="M104.71 160.086c0-.824-.667-1.492-1.495-1.492-.824 0-1.492.668-1.492 1.492a1.495 1.495 0 1 0 2.988 0Zm0 0"/><use xlink:href="#c" x="159.52" y="149.897"/><use xlink:href="#d" x="244.56" y="95.79"/><use xlink:href="#e" x="255.351" y="95.79"/><use xlink:href="#a" x="261.15" y="95.79"/><use xlink:href="#f" x="267.784" y="98.047"/><use xlink:href="#g" x="274.06" y="95.79"/><use xlink:href="#b" x="279.861" y="95.79"/><use xlink:href="#f" x="286.495" y="98.047"/><use xlink:href="#h" x="292.772" y="95.79"/><use xlink:href="#i" x="20.937" y="40.52"/><use xlink:href="#e" x="31.728" y="40.52"/><use xlink:href="#a" x="37.526" y="40.52"/><use xlink:href="#j" x="44.161" y="42.777"/><use xlink:href="#g" x="50.438" y="40.52"/><use xlink:href="#b" x="56.238" y="40.52"/><use xlink:href="#j" x="62.873" y="42.777"/><use xlink:href="#h" x="69.148" y="40.52"/><use xlink:href="#k" x="87.148" y="175.064" fill="#00b200"/><use xlink:href="#l" x="5.731" y="111.451" fill="#00b200"/><use xlink:href="#m" x="16.524" y="111.451" fill="#00b200"/><use xlink:href="#n" x="33.249" y="104.055" fill="#00b200"/><use xlink:href="#o" x="36.312" y="95.508" fill="#00b200"/><use xlink:href="#p" x="41.3" y="95.508" fill="#00b200"/><g fill="#00b200"><use xlink:href="#c" x="36.312" y="104.055"/><use xlink:href="#i" x="47.102" y="104.055"/></g><use xlink:href="#q" x="56.232" y="104.055" fill="#00b200"/><use xlink:href="#r" x="59.295" y="104.055" fill="#00b200"/><use xlink:href="#n" x="65.444" y="104.055" fill="#00b200"/><path fill="none" stroke="#00b200" stroke-miterlimit="10" stroke-width=".597" d="M33.25 107.715h35.258"/><use xlink:href="#n" x="44.74" y="116.819" fill="#00b200"/><use xlink:href="#r" x="47.803" y="116.819" fill="#00b200"/><use xlink:href="#n" x="53.952" y="116.819" fill="#00b200"/><use xlink:href="#s" x="107.567" y="44.046" fill="#00b200"/></svg>