<svg xmlns="http://www.w3.org/2000/svg" xmlns:xlink="http://www.w3.org/1999/xlink" width="261.144" height="139.452" viewBox="0 0 195.858 104.589"><defs><path id="a" d="M4-1.11c-.078.094-.125.157-.219.266-.219.313-.344.407-.453.407-.14 0-.234-.125-.312-.407-.016-.078-.032-.14-.032-.172-.25-1.015-.359-1.468-.359-1.609.438-.781.797-1.219.969-1.219.062 0 .14.031.25.078.11.079.187.094.265.094.204 0 .344-.14.344-.36 0-.202-.172-.359-.406-.359-.438 0-.813.36-1.5 1.422l-.11-.547c-.14-.687-.25-.875-.53-.875-.22 0-.548.079-1.157.282l-.11.046.032.141c.39-.078.469-.11.562-.11.25 0 .313.095.454.688l.28 1.235-.812 1.156C.953-.641.75-.47.641-.47a.55.55 0 0 1-.25-.094.76.76 0 0 0-.328-.093c-.188 0-.329.14-.329.344 0 .265.204.421.5.421s.422-.093.922-.703c.266-.312.485-.578.89-1.156L2.36-.562c.125.515.25.671.579.671.374 0 .624-.234 1.203-1.14Zm0 0"/><path id="c" d="M.156-3.984c.125-.032.188-.047.297-.047.578 0 .719.25 1.188 1.968.156.641.406 1.813.406 1.985 0 .156-.063.312-.219.5-.297.406-.5.672-.61.781C1 1.422.892 1.5.75 1.5c-.047 0-.125-.031-.234-.11-.141-.109-.25-.171-.36-.171a.387.387 0 0 0-.39.39c0 .25.218.438.5.438.64 0 1.953-1.485 3.03-3.469.673-1.219.954-1.937.954-2.422a.554.554 0 0 0-.547-.547c-.234 0-.39.141-.39.36 0 .156.078.265.28.39.188.11.25.204.25.344 0 .39-.359 1.172-1.218 2.578l-.187-1.156c-.157-.875-.72-2.516-.86-2.516h-.125l-.984.172a2 2 0 0 1-.313.063Zm0 0"/><path id="d" d="M4.719-6.64c-.828 0-1.735.406-2.532 1.124-1 .938-1.593 2.141-1.593 3.313C.594-.813 1.5.172 2.766.172c2.078 0 4.093-2.078 4.203-4.344.062-1.406-.907-2.469-2.25-2.469m-.078.327c.78 0 1.28.579 1.28 1.516 0 1.078-.468 2.531-1.109 3.469C4.25-.531 3.641-.156 2.938-.156c-.828 0-1.296-.594-1.296-1.672 0-.938.5-2.422 1.093-3.297.563-.812 1.172-1.187 1.907-1.187m0 0"/><path id="e" d="M5.625-.156c-.578-.047-.625-.14-.766-.86l-.937-5.64h-.25L.782-1.672C-.017-.344-.11-.234-.517-.156V0H1.36v-.156C.844-.203.766-.266.766-.516c0-.187.03-.265.203-.609L1.53-2.25h2.203l.188 1.297c.015.094.031.187.031.265 0 .375-.14.47-.781.532V0h2.453ZM1.75-2.61l1.484-2.594.438 2.594Zm0 0"/><path id="j" d="M-.078 0h2.812c1.563 0 2.641-.812 2.641-2 0-.36-.125-.719-.344-.937-.203-.22-.39-.344-.922-.563.72-.172 1-.281 1.329-.562q.42-.375.421-.985c0-.937-.703-1.469-1.984-1.469H1.297v.172c.61.047.766.125.766.407 0 .14-.032.39-.11.64L.734-.89c-.187.579-.25.625-.812.735Zm2.453-3.297c.64 0 1.063.031 1.266.11.406.171.656.609.656 1.156 0 1.078-.734 1.734-1.953 1.734-.422 0-.64-.156-.64-.422 0-.125.124-.593.343-1.39.14-.453.203-.688.328-1.188m.75-2.64c.063-.22.172-.266.563-.266.796 0 1.171.328 1.171 1.062 0 .579-.25 1.016-.671 1.25-.344.204-.813.266-1.72.266Zm0 0"/><path id="l" d="M7.25-6.516H5.266v.172c.562.047.703.14.703.5 0 .125-.032.235-.094.438-.016.031-.016.078-.016.078L4.83-1.531 2.765-6.516h-1.61v.172c.469.032.672.157.86.547L.828-1.64C.453-.359.375-.234-.203-.156V0H1.78v-.156c-.515-.047-.703-.156-.703-.438 0-.125.031-.328.094-.531l1.125-4.203L4.594.156h.187l1.422-5.015c.375-1.297.422-1.344 1.047-1.485Zm0 0"/><path id="n" d="M1.094-6.406c.593.015.656.047.656.265 0 .094-.031.204-.094.422-.015.078-.047.14-.047.203l-.03.063-1.345 5v.031c0 .235.766.531 1.329.531 1.5 0 3.156-1.75 3.156-3.312 0-.688-.485-1.188-1.157-1.188-.703 0-1.218.407-1.921 1.5.515-1.89.578-2.156 1.03-3.875l-.046-.046c-.5.093-.86.156-1.531.234Zm2.078 2.5c.422 0 .703.328.703.86 0 .655-.516 1.718-1.11 2.343-.359.375-.796.578-1.218.578-.313 0-.453-.11-.453-.328 0-.61.297-1.578.703-2.313.453-.765.89-1.14 1.375-1.14m0 0"/><path id="o" d="M7.203-6.516H4.984v.172c.125 0 .235.032.266.032.25.015.344.078.344.187 0 .234-.547.766-1.438 1.39L2.641-3.671l.53-1.937c.142-.5.423-.703 1-.735v-.172H1.454v.172c.625.047.766.14.766.422 0 .14-.031.375-.11.625L.891-.89C.703-.297.656-.25.063-.156V0h2.484v-.156c-.64-.078-.719-.14-.719-.438 0-.11.016-.187.078-.39l.063-.22.61-2.265L3.78-1.39c.25.407.39.75.39.938 0 .156-.14.234-.468.266-.047 0-.156.015-.281.03V0h2.734v-.156C5.531-.22 5.47-.25 5.188-.72L3.452-3.734l3-2.25c.281-.22.5-.328.75-.36Zm0 0"/><path id="p" d="M4.64-1.172c-.546.688-.656.797-.827.797-.079 0-.157-.094-.157-.187 0-.094.156-.72.328-1.235.297-.953.485-1.687.485-1.937 0-.391-.266-.657-.657-.657-.656 0-1.359.657-2.28 2.094l1.187-4.469-.047-.046c-.578.14-.969.203-1.563.265v.156h.25c.016 0 .032 0 .032-.015.14-.047.39.11.39.25s-.062.39-.14.687c-.016 0-.047.14-.11.36L.188 0h.75c.39-1.531.53-1.875.921-2.484.516-.782 1.204-1.407 1.547-1.407.156 0 .281.125.281.25 0 .047-.03.172-.062.329L3.078-1.25c-.14.5-.203.797-.203.922 0 .266.172.422.438.422.5 0 .859-.266 1.453-1.14Zm0 0"/><path id="f" d="M3.297 2.39c0-.03 0-.046-.172-.218C1.891.922 1.563-.968 1.563-2.5c0-1.734.375-3.469 1.609-4.703.125-.125.125-.14.125-.172 0-.078-.031-.11-.094-.11-.11 0-1 .688-1.594 1.954C1.11-4.438.984-3.328.984-2.5c0 .781.11 1.984.657 3.125C2.25 1.844 3.094 2.5 3.203 2.5c.063 0 .094-.031.094-.11m0 0"/><path id="i" d="M2.875-2.5c0-.766-.11-1.969-.656-3.11C1.625-6.827.766-7.483.672-7.483a.107.107 0 0 0-.11.109c0 .031 0 .047.188.234.984.985 1.547 2.563 1.547 4.641 0 1.719-.36 3.469-1.594 4.719-.14.125-.14.14-.14.172 0 .062.046.109.109.109.094 0 1-.687 1.578-1.953.516-1.094.625-2.203.625-3.047m0 0"/><path id="q" d="M6.844-3.266c.156 0 .343 0 .343-.187 0-.203-.187-.203-.328-.203H.891c-.141 0-.328 0-.328.203 0 .187.187.187.328.187Zm.015 1.938c.141 0 .329 0 .329-.203 0-.188-.188-.188-.344-.188H.89c-.141 0-.328 0-.328.188 0 .203.187.203.328.203Zm0 0"/><path id="g" d="m2.14-4.984-1.328.672v.093c.094-.031.172-.062.204-.078.14-.047.265-.078.328-.078.156 0 .234.11.234.344v3.343c0 .25-.062.422-.187.485-.11.062-.203.078-.516.094V0h2.031v-.11c-.578-.015-.703-.077-.703-.437v-4.422Zm0 0"/><path id="k" d="m3.5-1.016-.094-.03c-.265.421-.375.484-.703.484H.938l1.25-1.297c.656-.688.937-1.25.937-1.828 0-.735-.594-1.297-1.36-1.297-.406 0-.796.156-1.062.453-.234.25-.344.484-.469 1.015l.157.032c.28-.72.547-.953 1.062-.953.625 0 1.047.421 1.047 1.03 0 .579-.344 1.266-.969 1.923L.22-.094V0h2.875Zm0 0"/><path id="h" d="M2.031-.016c0-.656-.25-1.046-.64-1.046a.517.517 0 0 0-.532.53c0 .266.204.532.532.532a.58.58 0 0 0 .343-.125c.032-.031.047-.031.047-.031.016 0 .016 0 .016.14 0 .75-.344 1.344-.672 1.672-.11.11-.11.125-.11.157 0 .078.048.109.094.109.11 0 .922-.766.922-1.938m0 0"/><path id="m" d="M2.531-6.734c-.547 0-.969.172-1.328.515-.578.563-.969 1.703-.969 2.875 0 1.078.329 2.25.797 2.813A1.87 1.87 0 0 0 2.5.14c.5 0 .922-.172 1.281-.516.578-.547.969-1.703.969-2.922 0-2.031-.906-3.437-2.219-3.437m-.031.25c.844 0 1.281 1.125 1.281 3.218 0 2.079-.437 3.141-1.281 3.141-.86 0-1.297-1.062-1.297-3.14 0-2.11.438-3.22 1.297-3.22m0 0"/><path id="r" d="M1.578-7.125c0-.172 0-.36-.187-.36-.203 0-.203.188-.203.36v9.266c0 .172 0 .359.203.359.187 0 .187-.187.187-.36Zm0 0"/><path id="s" d="M6.563-2.297c.171 0 .359 0 .359-.203 0-.187-.188-.187-.36-.187h-5.39c-.172 0-.344 0-.344.187 0 .203.172.203.344.203Zm0 0"/><clipPath id="b"><path d="M92 8h2v96.59h-2Zm0 0"/></clipPath></defs><path fill="#fff" d="M0 0h195.86v104.59H0Zm0 0"/><path fill="#ccf0cc" fill-opacity=".7" stroke="#00b200" stroke-miterlimit="10" stroke-opacity=".7" stroke-width=".399" d="M21.957 61.371h7.086v-7.086h-7.086v7.086"/><path fill="none" stroke="#000" stroke-miterlimit="10" stroke-width=".399" d="M.7 89.719h187.753"/><path d="M192.04 89.719c-1.063-.2-2.79-.797-3.985-1.496v2.988c1.195-.695 2.922-1.293 3.984-1.492"/><use xlink:href="#a" x="189.811" y="98.03"/><g clip-path="url(#b)"><path fill="none" stroke="#000" stroke-miterlimit="10" stroke-width=".399" d="M92.824 103.89V8.263"/></g><path d="M92.824 4.676c-.199 1.062-.797 2.789-1.492 3.984h2.988c-.699-1.195-1.297-2.922-1.496-3.984"/><use xlink:href="#c" x="84.417" y="5.825"/><path fill="none" stroke="#000" stroke-linecap="round" stroke-linejoin="round" stroke-miterlimit="10" stroke-width=".797" d="M92.824 89.719 149.52 61.37 21.957 33.023Zm0 0"/><path fill="none" stroke="#00b200" stroke-dasharray="2.98883 1.99255" stroke-linecap="round" stroke-miterlimit="10" stroke-width=".797" d="M149.52 61.371H21.957V33.023"/><path fill="#7f7f7f" stroke="#000" stroke-miterlimit="10" stroke-width=".399" d="M93.82 89.719a.995.995 0 1 0-1.99-.002.995.995 0 0 0 1.99.002ZM150.516 61.371a.995.995 0 1 0-1.99-.002.995.995 0 0 0 1.99.002ZM22.953 33.023a.995.995 0 1 0-1.99-.001.995.995 0 0 0 1.99.001ZM93.82 48.773c0-.55-.445-1-.996-1a.999.999 0 0 0 0 1.997c.551 0 .996-.45.996-.997Zm0 0"/><path fill="#7fd97f" stroke="#00b200" stroke-miterlimit="10" stroke-width=".399" d="M22.953 61.371a.995.995 0 1 0-1.99-.002.995.995 0 0 0 1.99.002Zm0 0"/><use xlink:href="#d" x="96.345" y="99.931"/><use xlink:href="#e" x="153.038" y="63.861"/><use xlink:href="#f" x="160.232" y="63.861"/><use xlink:href="#a" x="164.097" y="63.861"/><use xlink:href="#g" x="168.521" y="65.366"/><use xlink:href="#h" x="172.705" y="63.861"/><use xlink:href="#c" x="176.571" y="63.861"/><use xlink:href="#g" x="180.995" y="65.366"/><use xlink:href="#i" x="185.179" y="63.861"/><use xlink:href="#j" x="3.956" y="27.013"/><use xlink:href="#f" x="11.15" y="27.013"/><use xlink:href="#a" x="15.015" y="27.013"/><use xlink:href="#k" x="19.439" y="28.518"/><use xlink:href="#h" x="23.623" y="27.013"/><use xlink:href="#c" x="27.489" y="27.013"/><use xlink:href="#k" x="31.913" y="28.518"/><use xlink:href="#i" x="36.097" y="27.013"/><use xlink:href="#l" x="96.345" y="42.761"/><use xlink:href="#f" x="104.695" y="42.761"/><use xlink:href="#m" x="108.56" y="42.761"/><use xlink:href="#h" x="113.541" y="42.761"/><use xlink:href="#n" x="117.408" y="42.761"/><use xlink:href="#i" x="122.389" y="42.761"/><use xlink:href="#o" x="11.246" y="71.356" fill="#00b200"/><use xlink:href="#p" x="60.542" y="72.282" fill="#00b200"/><use xlink:href="#q" x="67.738" y="72.282" fill="#00b200"/><use xlink:href="#r" x="77.692" y="72.282" fill="#00b200"/><use xlink:href="#a" x="80.452" y="72.282" fill="#00b200"/><use xlink:href="#g" x="84.875" y="73.787" fill="#00b200"/><use xlink:href="#s" x="90.443" y="72.282" fill="#00b200"/><use xlink:href="#a" x="99.568" y="72.282" fill="#00b200"/><use xlink:href="#k" x="103.991" y="73.787" fill="#00b200"/><use xlink:href="#r" x="108.175" y="72.282" fill="#00b200"/></svg>