<svg xmlns="http://www.w3.org/2000/svg" xmlns:xlink="http://www.w3.org/1999/xlink" width="377.544" height="272.956" viewBox="0 0 283.158 204.717"><defs><path id="a" d="M9.844-3.437c.25 0 .515 0 .515-.297s-.265-.297-.515-.297H1.766c-.25 0-.532 0-.532.297s.282.297.532.297Zm0 0"/><path id="b" d="m7.094-2.047-.188-.078c-.562.86-.75.984-1.422.984H1.906l2.516-2.625C5.75-5.156 6.328-6.28 6.328-7.453c0-1.5-1.203-2.64-2.766-2.64-.812 0-1.593.327-2.14.921-.484.516-.703.985-.953 2.047l.312.078C1.375-8.516 1.906-9 2.938-9c1.265 0 2.109.86 2.109 2.11 0 1.171-.688 2.562-1.938 3.89L.453-.172V0h5.828Zm0 0"/><path id="c" d="m4.344-10.094-2.688 1.36v.203c.188-.078.344-.125.407-.156.265-.11.515-.172.671-.172.313 0 .454.218.454.703v6.765c0 .5-.126.844-.36.97-.234.14-.437.187-1.062.202V0H5.89v-.219c-1.188-.015-1.422-.172-1.422-.89v-8.953Zm0 0"/><path id="i" d="M3.797-10.094c-.828 0-1.453.25-2 .766C.922-8.484.359-6.766.359-5.016.36-3.39.844-1.64 1.547-.812A2.83 2.83 0 0 0 3.734.202c.766 0 1.407-.25 1.938-.766.875-.828 1.437-2.562 1.437-4.359 0-3.062-1.359-5.172-3.312-5.172m-.047.39c1.25 0 1.922 1.688 1.922 4.798 0 3.125-.656 4.734-1.938 4.734-1.28 0-1.937-1.61-1.937-4.719 0-3.156.672-4.812 1.953-4.812m0 0"/><path id="k" d="M2.703-8.703h2.922c.25 0 .313-.031.344-.14l.578-1.329-.14-.11c-.22.313-.376.391-.688.391H2.594L.969-6.344c-.016.032-.016.047-.016.063 0 .078.063.125.188.125.468 0 1.062.11 1.687.297 1.719.562 2.5 1.484 2.5 2.968 0 1.422-.906 2.547-2.078 2.547-.297 0-.547-.11-1-.437-.469-.344-.812-.485-1.125-.485-.437 0-.64.172-.64.547 0 .563.703.922 1.812.922 1.265 0 2.328-.39 3.078-1.156.688-.672 1-1.531 1-2.656 0-1.078-.281-1.766-1.031-2.516-.657-.656-1.5-1-3.266-1.312Zm0 0"/><path id="d" d="M6-1.656a6 6 0 0 0-.328.406c-.344.438-.516.594-.688.594-.218 0-.359-.188-.453-.61-.031-.125-.047-.218-.062-.265-.375-1.5-.547-2.188-.547-2.407C4.578-5.093 5.125-5.75 5.39-5.75c.093 0 .203.047.359.125.188.094.281.125.406.125.313 0 .516-.219.516-.531s-.25-.563-.61-.563c-.656 0-1.218.547-2.25 2.14l-.171-.812c-.203-1.015-.375-1.328-.766-1.328-.328 0-.844.14-1.75.438l-.172.062.063.219c.562-.125.703-.156.843-.156.36 0 .454.125.672 1.031l.422 1.828-1.219 1.75c-.296.453-.593.719-.765.719-.094 0-.235-.047-.39-.14a1.2 1.2 0 0 0-.47-.141.51.51 0 0 0-.515.515c0 .39.297.64.75.64.469 0 .64-.14 1.39-1.046.407-.484.72-.89 1.344-1.75l.453 1.781c.188.766.375 1.016.86 1.016.562 0 .953-.36 1.828-1.703Zm0 0"/><path id="e" d="M.219-5.969c.203-.047.297-.062.469-.062.843 0 1.078.375 1.765 2.937.25.969.61 2.719.61 2.969s-.094.484-.313.75c-.469.61-.766 1-.922 1.188-.312.328-.5.437-.687.437-.094 0-.203-.047-.36-.156-.234-.188-.39-.25-.562-.25a.567.567 0 0 0-.578.578c0 .375.328.656.765.656.953 0 2.907-2.234 4.516-5.203 1.016-1.828 1.437-2.906 1.437-3.64a.83.83 0 0 0-.812-.829c-.344 0-.594.235-.594.563 0 .218.125.39.422.578.281.172.39.297.39.516 0 .593-.546 1.75-1.827 3.859L3.64-2.812c-.22-1.313-1.063-3.782-1.282-3.782h-.062c-.016.016-.078.016-.125.016-.14.016-.672.11-1.469.266-.078.015-.265.046-.484.078Zm0 0"/><path id="f" d="M7.078-9.953c-1.25 0-2.594.61-3.797 1.687-1.5 1.391-2.39 3.22-2.39 4.97C.89-1.204 2.25.265 4.156.265c3.11 0 6.125-3.141 6.282-6.516.109-2.094-1.36-3.703-3.36-3.703m-.125.5c1.172 0 1.922.86 1.922 2.265 0 1.61-.703 3.797-1.672 5.204C6.375-.812 5.453-.22 4.406-.22c-1.25 0-1.937-.922-1.937-2.531 0-1.406.75-3.625 1.64-4.922.829-1.219 1.75-1.781 2.844-1.781m0 0"/><path id="j" d="M2.875-.797a.797.797 0 0 0-1.594 0A.8.8 0 0 0 2.078 0a.8.8 0 0 0 .797-.797m0 0"/><clipPath id="g"><path d="M136 33.59h114.852V149H136Zm0 0"/></clipPath><clipPath id="h"><path d="M37 113h213.852v1H37Zm0 0"/></clipPath></defs><path fill="#fff" d="M27.215 158.598h22.074V144.37H27.215Zm0 0"/><use xlink:href="#a" x="28.712" y="155.863"/><use xlink:href="#b" x="40.323" y="155.863"/><path fill="#fff" d="M80.367 158.598h22.07V144.37h-22.07Zm0 0"/><use xlink:href="#a" x="81.861" y="155.863"/><use xlink:href="#c" x="93.472" y="155.863"/><path fill="#fff" d="M143.059 147.36h2.988v-2.989h-2.988ZM192.473 157.36h10.46V144.37h-10.46Zm0 0"/><use xlink:href="#c" x="193.966" y="155.863"/><path fill="#fff" d="M245.621 157.36h10.461V144.37h-10.46Zm0 0"/><use xlink:href="#b" x="247.116" y="155.863"/><path fill="#fff" d="M117.996 200.152h22.074v-14.226h-22.074Zm0 0"/><use xlink:href="#a" x="119.492" y="197.417"/><use xlink:href="#c" x="131.103" y="197.417"/><path fill="#fff" d="M137.078 141.383h2.992v-2.988h-2.992ZM129.61 93.23h10.46V80.246h-10.46Zm0 0"/><use xlink:href="#c" x="131.103" y="91.739"/><path fill="#fff" d="M129.61 40.082h10.46V27.094h-10.46Zm0 0"/><use xlink:href="#b" x="131.103" y="38.589"/><path fill="none" stroke="#000" stroke-miterlimit="10" stroke-width=".5985" d="M1.047 139.887h271"/><path d="M277.426 139.887c-1.594-.297-4.184-1.196-5.977-2.239v4.48c1.793-1.042 4.383-1.94 5.977-2.241"/><use xlink:href="#d" x="274.086" y="152.359"/><path fill="none" stroke="#000" stroke-miterlimit="10" stroke-width="1.1955" d="M38.25 136.152v3.735M91.402 136.152v3.735M144.55 136.152v3.735M197.703 136.152v3.735M250.852 136.152v3.735"/><path fill="none" stroke="#000" stroke-miterlimit="10" stroke-width=".5985" d="M144.55 203.668V12.395"/><path d="M144.55 7.012c-.296 1.593-1.195 4.183-2.241 5.98h4.484c-1.047-1.797-1.941-4.387-2.242-5.98"/><use xlink:href="#e" x="131.94" y="8.738"/><path fill="none" stroke="#000" stroke-miterlimit="10" stroke-width="1.1955" d="M148.29 193.04h-3.74M148.29 139.887h-3.74M148.29 86.738h-3.74M148.29 33.59h-3.74"/><use xlink:href="#f" x="126.898" y="156.795"/><path fill="none" stroke="#000" stroke-miterlimit="10" stroke-width=".5985" d="m11.676 130.492 1.336-.164.668-.086.668-.082 2.672-.344.668-.09.664-.09 2.003-.269 1.336-.187.668-.09.668-.098 1.336-.187.668-.098.668-.102 1.336-.195 1.336-.203.664-.102.668-.101 2.672-.422 3.34-.547 2.004-.34.664-.117.672-.117.664-.117.668-.117 2.672-.485 2.004-.375.667-.129.668-.125.668-.133.668-.128 1.336-.266.664-.133.668-.133 1.336-.273 2.672-.563 2.004-.433 2.004-.446.664-.152.672-.152.664-.156.668-.153.668-.156.668-.16.668-.156.668-.165.668-.16 1.336-.328 2.004-.504 1.336-.343.664-.172.671-.176.665-.18.668-.176.668-.18 2.003-.55 2.004-.563.668-.191.668-.195.668-.192.668-.199.668-.195.668-.2.664-.203.672-.203.664-.203.668-.207 2.004-.633 1.336-.43 1.336-.437 1.336-.445.668-.227.664-.226 1.336-.461 1.336-.469.668-.238 2.004-.727.668-.246 1.335-.5 1.336-.508 1.336-.515.668-.262.668-.266.664-.265 1.336-.54 1.336-.546.668-.281.668-.278 1.336-.57 1.336-.578.668-.293 1.336-.594.664-.3 1.336-.61.668-.309 1.336-.625.668-.316.668-.32 1.336-.649.668-.328 1.336-.664.668-.336.668-.34.664-.344.672-.347.664-.348.668-.352 1.335-.71 1.336-.727.668-.367.668-.371 1.336-.75 1.336-.766.664-.387.672-.39.664-.395 1.336-.797 1.336-.812 1.336-.828.668-.418.668-.422.668-.426.668-.43.668-.433.668-.438.668-.441.668-.445.668-.45.664-.453.668-.457.668-.46"/><path fill="#7fd6f7" fill-opacity=".5" d="M91.402 139.887v-26.574l.266-.09.27-.094.53-.188.27-.093.266-.094.27-.098.53-.187.27-.098.266-.098.265-.093.27-.098.531-.195.27-.098.265-.098.27-.097.266-.098.265-.101.27-.098.265-.102.27-.097.797-.305.27-.102.265-.101.27-.102.53-.203.27-.105.266-.106.27-.101.53-.211.27-.106.266-.101.27-.11.53-.21.27-.106.531-.219.27-.105.531-.22.27-.108.265-.11.27-.11.265-.109.266-.113.27-.11.265-.112.266-.11.27-.113.265-.113.27-.114.53-.226.27-.114.266-.117.266-.113.27-.117.265-.114.27-.117.53-.234.27-.117.531-.235.27-.12.265-.118.27-.121.531-.242.27-.121.531-.242.27-.122.265-.12.27-.126.265-.12.266-.126.27-.125.265-.125.27-.125.53-.25.266-.129.27-.125.266-.129.27-.125.53-.257.27-.13.266-.128.27-.133.265-.129.265-.133.27-.129.531-.265.27-.133.53-.266.27-.132.266-.137.27-.133.53-.273.27-.137.532-.274.27-.136.265-.141.27-.14.265-.137.266-.14.27-.142.265-.14.27-.14.265-.141.266-.145.27-.144.265-.141.265-.145.27-.144.265-.145.27-.144.266-.149.265-.144.27-.145.531-.297.27-.148.53-.297.27-.152.266-.149.27-.152.53-.305.27-.152.266-.152.27-.153.265-.156.266-.152.265-.157.27-.156.265-.156.27-.156.266-.157.265-.16.27-.16.265-.156.27-.16.531-.32.27-.165.265-.16.266-.164.27-.164.265-.16.27-.164.265-.168.266-.164.27-.164.53-.336.27-.168.266-.168.27-.168.265-.168.266-.172.27-.168.53-.344.27-.172.266-.175.27-.172.265-.176.265-.172.27-.176.266-.175.269-.18.266-.176.265-.18.27-.175.531-.36.27-.18.265-.183.266-.18.27-.183.265-.18.27-.188.53-.367v53.149"/><g clip-path="url(#g)"><path fill="none" stroke="#000" stroke-miterlimit="10" stroke-width=".5985" d="m144.55 139.887.536-.532 1.07-1.07.532-.535.535-.531.535-.535.531-.536.535-.53 1.606-1.606.53-.535.536-.532 2.672-2.672.531-.535.535-.531 1.606-1.605.531-.536.535-.53 2.672-2.673.531-.535.536-.535.535-.531 1.07-1.07.531-.536.535-.531.536-.535.53-.535.536-.532 1.07-1.07.532-.535.535-.535.535-.531 2.672-2.672.531-.535.535-.532 1.07-1.07.532-.535.535-.531 1.07-1.07.531-.536.536-.535.535-.531.535-.535.531-.536.535-.53 1.07-1.071.532-.535.535-.535.535-.532 2.672-2.672.531-.535.535-.531 3.207-3.207.532-.535.535-.531 1.07-1.07.531-.536.536-.531 1.07-1.07.531-.536.535-.53 1.07-1.071.532-.535.535-.532 1.602-1.601.535-.54.535-.53 2.672-2.672.531-.536.535-.53 1.07-1.071.532-.535.535-.531 1.07-1.07.531-.536.536-.531 1.07-1.07.531-.536.535-.53 1.07-1.071.532-.535.535-.532 1.07-1.07.532-.535.535-.531 2.672-2.672.53-.535.536-.536.535-.53 3.207-3.208.532-.535.535-.531 1.07-1.07.531-.536.535-.531 1.07-1.07.532-.535.535-.532 3.207-3.207.531-.535.536-.531 2.671-2.672.532-.535.535-.535.535-.532 1.07-1.07.532-.535.535-.531.535-.535.531-.536.535-.53 1.07-1.071.532-.535.535-.535.535-.532 1.07-1.07.532-.535.535-.531 2.672-2.672.531-.535.535-.536.535-.53 2.672-2.673.531-.535.536-.531"/></g><path stroke="#000" stroke-miterlimit="10" stroke-width=".5985" d="M146.793 86.738a2.242 2.242 0 1 0-4.485 0 2.242 2.242 0 0 0 4.485 0Zm0 0"/><path fill="#fff" stroke="#000" stroke-miterlimit="10" stroke-width=".5985" d="M146.793 139.887a2.241 2.241 0 1 0-4.483.006 2.241 2.241 0 0 0 4.483-.006Zm0 0"/><g clip-path="url(#h)"><path fill="none" stroke="red" stroke-dasharray="4.483245 4.483245" stroke-miterlimit="10" stroke-width=".5985" d="M38.25 113.313h212.602"/></g><path fill="red" stroke="red" stroke-miterlimit="10" stroke-width=".5985" d="M93.605 113.297a2.24 2.24 0 0 0-2.242-2.242 2.24 2.24 0 0 0-2.238 2.242c0 1.234 1 2.238 2.238 2.238a2.24 2.24 0 0 0 2.242-2.238ZM173.387 113.297a2.242 2.242 0 0 0-4.485 0 2.241 2.241 0 0 0 4.485 0Zm0 0"/><path fill="none" stroke="red" stroke-dasharray="4.483245 4.483245" stroke-miterlimit="10" stroke-width=".5985" d="M91.363 113.297v26.59M171.145 113.297v26.59"/><path fill="#fff" d="M155.164 163.926h31.965V144.37h-31.965Zm0 0"/><use xlink:href="#i" x="161.604" y="157.254" fill="red"/><use xlink:href="#j" x="169.076" y="157.254" fill="red"/><use xlink:href="#k" x="173.215" y="157.254" fill="red"/></svg>