<?xml version="1.0" encoding="UTF-8"?>
<svg xmlns="http://www.w3.org/2000/svg" xmlns:xlink="http://www.w3.org/1999/xlink" width="283.158pt" height="204.717pt" viewBox="0 0 283.158 204.717">
<defs>
<g>
<g id="glyph-0-0">
<path d="M 9.84375 -3.4375 C 10.09375 -3.4375 10.359375 -3.4375 10.359375 -3.734375 C 10.359375 -4.03125 10.09375 -4.03125 9.84375 -4.03125 L 1.765625 -4.03125 C 1.515625 -4.03125 1.234375 -4.03125 1.234375 -3.734375 C 1.234375 -3.4375 1.515625 -3.4375 1.765625 -3.4375 Z M 9.84375 -3.4375 "/>
</g>
<g id="glyph-1-0">
<path d="M 7.09375 -2.046875 L 6.90625 -2.125 C 6.34375 -1.265625 6.15625 -1.140625 5.484375 -1.140625 L 1.90625 -1.140625 L 4.421875 -3.765625 C 5.75 -5.15625 6.328125 -6.28125 6.328125 -7.453125 C 6.328125 -8.953125 5.125 -10.09375 3.5625 -10.09375 C 2.75 -10.09375 1.96875 -9.765625 1.421875 -9.171875 C 0.9375 -8.65625 0.71875 -8.1875 0.46875 -7.125 L 0.78125 -7.046875 C 1.375 -8.515625 1.90625 -9 2.9375 -9 C 4.203125 -9 5.046875 -8.140625 5.046875 -6.890625 C 5.046875 -5.71875 4.359375 -4.328125 3.109375 -3 L 0.453125 -0.171875 L 0.453125 0 L 6.28125 0 Z M 7.09375 -2.046875 "/>
</g>
<g id="glyph-1-1">
<path d="M 4.34375 -10.09375 L 1.65625 -8.734375 L 1.65625 -8.53125 C 1.84375 -8.609375 2 -8.65625 2.0625 -8.6875 C 2.328125 -8.796875 2.578125 -8.859375 2.734375 -8.859375 C 3.046875 -8.859375 3.1875 -8.640625 3.1875 -8.15625 L 3.1875 -1.390625 C 3.1875 -0.890625 3.0625 -0.546875 2.828125 -0.421875 C 2.59375 -0.28125 2.390625 -0.234375 1.765625 -0.21875 L 1.765625 0 L 5.890625 0 L 5.890625 -0.21875 C 4.703125 -0.234375 4.46875 -0.390625 4.46875 -1.109375 L 4.46875 -10.0625 Z M 4.34375 -10.09375 "/>
</g>
<g id="glyph-1-2">
<path d="M 3.796875 -10.09375 C 2.96875 -10.09375 2.34375 -9.84375 1.796875 -9.328125 C 0.921875 -8.484375 0.359375 -6.765625 0.359375 -5.015625 C 0.359375 -3.390625 0.84375 -1.640625 1.546875 -0.8125 C 2.109375 -0.15625 2.875 0.203125 3.734375 0.203125 C 4.5 0.203125 5.140625 -0.046875 5.671875 -0.5625 C 6.546875 -1.390625 7.109375 -3.125 7.109375 -4.921875 C 7.109375 -7.984375 5.75 -10.09375 3.796875 -10.09375 Z M 3.75 -9.703125 C 5 -9.703125 5.671875 -8.015625 5.671875 -4.90625 C 5.671875 -1.78125 5.015625 -0.171875 3.734375 -0.171875 C 2.453125 -0.171875 1.796875 -1.78125 1.796875 -4.890625 C 1.796875 -8.046875 2.46875 -9.703125 3.75 -9.703125 Z M 3.75 -9.703125 "/>
</g>
<g id="glyph-1-3">
<path d="M 2.703125 -8.703125 L 5.625 -8.703125 C 5.875 -8.703125 5.9375 -8.734375 5.96875 -8.84375 L 6.546875 -10.171875 L 6.40625 -10.28125 C 6.1875 -9.96875 6.03125 -9.890625 5.71875 -9.890625 L 2.59375 -9.890625 L 0.96875 -6.34375 C 0.953125 -6.3125 0.953125 -6.296875 0.953125 -6.28125 C 0.953125 -6.203125 1.015625 -6.15625 1.140625 -6.15625 C 1.609375 -6.15625 2.203125 -6.046875 2.828125 -5.859375 C 4.546875 -5.296875 5.328125 -4.375 5.328125 -2.890625 C 5.328125 -1.46875 4.421875 -0.34375 3.25 -0.34375 C 2.953125 -0.34375 2.703125 -0.453125 2.25 -0.78125 C 1.78125 -1.125 1.4375 -1.265625 1.125 -1.265625 C 0.6875 -1.265625 0.484375 -1.09375 0.484375 -0.71875 C 0.484375 -0.15625 1.1875 0.203125 2.296875 0.203125 C 3.5625 0.203125 4.625 -0.1875 5.375 -0.953125 C 6.0625 -1.625 6.375 -2.484375 6.375 -3.609375 C 6.375 -4.6875 6.09375 -5.375 5.34375 -6.125 C 4.6875 -6.78125 3.84375 -7.125 2.078125 -7.4375 Z M 2.703125 -8.703125 "/>
</g>
<g id="glyph-2-0">
<path d="M 6 -1.65625 C 5.890625 -1.53125 5.8125 -1.4375 5.671875 -1.25 C 5.328125 -0.8125 5.15625 -0.65625 4.984375 -0.65625 C 4.765625 -0.65625 4.625 -0.84375 4.53125 -1.265625 C 4.5 -1.390625 4.484375 -1.484375 4.46875 -1.53125 C 4.09375 -3.03125 3.921875 -3.71875 3.921875 -3.9375 C 4.578125 -5.09375 5.125 -5.75 5.390625 -5.75 C 5.484375 -5.75 5.59375 -5.703125 5.75 -5.625 C 5.9375 -5.53125 6.03125 -5.5 6.15625 -5.5 C 6.46875 -5.5 6.671875 -5.71875 6.671875 -6.03125 C 6.671875 -6.34375 6.421875 -6.59375 6.0625 -6.59375 C 5.40625 -6.59375 4.84375 -6.046875 3.8125 -4.453125 L 3.640625 -5.265625 C 3.4375 -6.28125 3.265625 -6.59375 2.875 -6.59375 C 2.546875 -6.59375 2.03125 -6.453125 1.125 -6.15625 L 0.953125 -6.09375 L 1.015625 -5.875 C 1.578125 -6 1.71875 -6.03125 1.859375 -6.03125 C 2.21875 -6.03125 2.3125 -5.90625 2.53125 -5 L 2.953125 -3.171875 L 1.734375 -1.421875 C 1.4375 -0.96875 1.140625 -0.703125 0.96875 -0.703125 C 0.875 -0.703125 0.734375 -0.75 0.578125 -0.84375 C 0.390625 -0.9375 0.21875 -0.984375 0.109375 -0.984375 C -0.171875 -0.984375 -0.40625 -0.765625 -0.40625 -0.46875 C -0.40625 -0.078125 -0.109375 0.171875 0.34375 0.171875 C 0.8125 0.171875 0.984375 0.03125 1.734375 -0.875 C 2.140625 -1.359375 2.453125 -1.765625 3.078125 -2.625 L 3.53125 -0.84375 C 3.71875 -0.078125 3.90625 0.171875 4.390625 0.171875 C 4.953125 0.171875 5.34375 -0.1875 6.21875 -1.53125 Z M 6 -1.65625 "/>
</g>
<g id="glyph-2-1">
<path d="M 0.21875 -5.96875 C 0.421875 -6.015625 0.515625 -6.03125 0.6875 -6.03125 C 1.53125 -6.03125 1.765625 -5.65625 2.453125 -3.09375 C 2.703125 -2.125 3.0625 -0.375 3.0625 -0.125 C 3.0625 0.125 2.96875 0.359375 2.75 0.625 C 2.28125 1.234375 1.984375 1.625 1.828125 1.8125 C 1.515625 2.140625 1.328125 2.25 1.140625 2.25 C 1.046875 2.25 0.9375 2.203125 0.78125 2.09375 C 0.546875 1.90625 0.390625 1.84375 0.21875 1.84375 C -0.109375 1.84375 -0.359375 2.09375 -0.359375 2.421875 C -0.359375 2.796875 -0.03125 3.078125 0.40625 3.078125 C 1.359375 3.078125 3.3125 0.84375 4.921875 -2.125 C 5.9375 -3.953125 6.359375 -5.03125 6.359375 -5.765625 C 6.359375 -6.21875 5.984375 -6.59375 5.546875 -6.59375 C 5.203125 -6.59375 4.953125 -6.359375 4.953125 -6.03125 C 4.953125 -5.8125 5.078125 -5.640625 5.375 -5.453125 C 5.65625 -5.28125 5.765625 -5.15625 5.765625 -4.9375 C 5.765625 -4.34375 5.21875 -3.1875 3.9375 -1.078125 L 3.640625 -2.8125 C 3.421875 -4.125 2.578125 -6.59375 2.359375 -6.59375 L 2.296875 -6.59375 C 2.28125 -6.578125 2.21875 -6.578125 2.171875 -6.578125 C 2.03125 -6.5625 1.5 -6.46875 0.703125 -6.3125 C 0.625 -6.296875 0.4375 -6.265625 0.21875 -6.234375 Z M 0.21875 -5.96875 "/>
</g>
<g id="glyph-2-2">
<path d="M 7.078125 -9.953125 C 5.828125 -9.953125 4.484375 -9.34375 3.28125 -8.265625 C 1.78125 -6.875 0.890625 -5.046875 0.890625 -3.296875 C 0.890625 -1.203125 2.25 0.265625 4.15625 0.265625 C 7.265625 0.265625 10.28125 -2.875 10.4375 -6.25 C 10.546875 -8.34375 9.078125 -9.953125 7.078125 -9.953125 Z M 6.953125 -9.453125 C 8.125 -9.453125 8.875 -8.59375 8.875 -7.1875 C 8.875 -5.578125 8.171875 -3.390625 7.203125 -1.984375 C 6.375 -0.8125 5.453125 -0.21875 4.40625 -0.21875 C 3.15625 -0.21875 2.46875 -1.140625 2.46875 -2.75 C 2.46875 -4.15625 3.21875 -6.375 4.109375 -7.671875 C 4.9375 -8.890625 5.859375 -9.453125 6.953125 -9.453125 Z M 6.953125 -9.453125 "/>
</g>
<g id="glyph-3-0">
<path d="M 2.875 -0.796875 C 2.875 -1.21875 2.515625 -1.578125 2.078125 -1.578125 C 1.640625 -1.578125 1.28125 -1.21875 1.28125 -0.796875 C 1.28125 -0.359375 1.640625 0 2.078125 0 C 2.515625 0 2.875 -0.359375 2.875 -0.796875 Z M 2.875 -0.796875 "/>
</g>
</g>
<clipPath id="clip-0">
<path clip-rule="nonzero" d="M 136 33.589844 L 250.851562 33.589844 L 250.851562 149 L 136 149 Z M 136 33.589844 "/>
</clipPath>
<clipPath id="clip-1">
<path clip-rule="nonzero" d="M 37 113 L 250.851562 113 L 250.851562 114 L 37 114 Z M 37 113 "/>
</clipPath>
</defs>
<path fill-rule="nonzero" fill="rgb(100%, 100%, 100%)" fill-opacity="1" d="M 27.214844 158.597656 L 49.289062 158.597656 L 49.289062 144.371094 L 27.214844 144.371094 Z M 27.214844 158.597656 "/>
<g fill="rgb(0%, 0%, 0%)" fill-opacity="1">
<use xlink:href="#glyph-0-0" x="28.7115" y="155.8635"/>
</g>
<g fill="rgb(0%, 0%, 0%)" fill-opacity="1">
<use xlink:href="#glyph-1-0" x="40.323" y="155.8635"/>
</g>
<path fill-rule="nonzero" fill="rgb(100%, 100%, 100%)" fill-opacity="1" d="M 80.367188 158.597656 L 102.4375 158.597656 L 102.4375 144.371094 L 80.367188 144.371094 Z M 80.367188 158.597656 "/>
<g fill="rgb(0%, 0%, 0%)" fill-opacity="1">
<use xlink:href="#glyph-0-0" x="81.861" y="155.8635"/>
</g>
<g fill="rgb(0%, 0%, 0%)" fill-opacity="1">
<use xlink:href="#glyph-1-1" x="93.4725" y="155.8635"/>
</g>
<path fill-rule="nonzero" fill="rgb(100%, 100%, 100%)" fill-opacity="1" d="M 143.058594 147.359375 L 146.046875 147.359375 L 146.046875 144.371094 L 143.058594 144.371094 Z M 143.058594 147.359375 "/>
<path fill-rule="nonzero" fill="rgb(100%, 100%, 100%)" fill-opacity="1" d="M 192.472656 157.359375 L 202.933594 157.359375 L 202.933594 144.371094 L 192.472656 144.371094 Z M 192.472656 157.359375 "/>
<g fill="rgb(0%, 0%, 0%)" fill-opacity="1">
<use xlink:href="#glyph-1-1" x="193.9665" y="155.8635"/>
</g>
<path fill-rule="nonzero" fill="rgb(100%, 100%, 100%)" fill-opacity="1" d="M 245.621094 157.359375 L 256.082031 157.359375 L 256.082031 144.371094 L 245.621094 144.371094 Z M 245.621094 157.359375 "/>
<g fill="rgb(0%, 0%, 0%)" fill-opacity="1">
<use xlink:href="#glyph-1-0" x="247.116" y="155.8635"/>
</g>
<path fill-rule="nonzero" fill="rgb(100%, 100%, 100%)" fill-opacity="1" d="M 117.996094 200.152344 L 140.070312 200.152344 L 140.070312 185.925781 L 117.996094 185.925781 Z M 117.996094 200.152344 "/>
<g fill="rgb(0%, 0%, 0%)" fill-opacity="1">
<use xlink:href="#glyph-0-0" x="119.4915" y="197.4165"/>
</g>
<g fill="rgb(0%, 0%, 0%)" fill-opacity="1">
<use xlink:href="#glyph-1-1" x="131.103" y="197.4165"/>
</g>
<path fill-rule="nonzero" fill="rgb(100%, 100%, 100%)" fill-opacity="1" d="M 137.078125 141.382812 L 140.070312 141.382812 L 140.070312 138.394531 L 137.078125 138.394531 Z M 137.078125 141.382812 "/>
<path fill-rule="nonzero" fill="rgb(100%, 100%, 100%)" fill-opacity="1" d="M 129.609375 93.230469 L 140.070312 93.230469 L 140.070312 80.246094 L 129.609375 80.246094 Z M 129.609375 93.230469 "/>
<g fill="rgb(0%, 0%, 0%)" fill-opacity="1">
<use xlink:href="#glyph-1-1" x="131.103" y="91.7385"/>
</g>
<path fill-rule="nonzero" fill="rgb(100%, 100%, 100%)" fill-opacity="1" d="M 129.609375 40.082031 L 140.070312 40.082031 L 140.070312 27.09375 L 129.609375 27.09375 Z M 129.609375 40.082031 "/>
<g fill="rgb(0%, 0%, 0%)" fill-opacity="1">
<use xlink:href="#glyph-1-0" x="131.103" y="38.589"/>
</g>
<path fill="none" stroke-width="0.3985" stroke-linecap="butt" stroke-linejoin="miter" stroke="rgb(0%, 0%, 0%)" stroke-opacity="1" stroke-miterlimit="10" d="M -95.670083 0.0011875 L 84.996583 0.0011875 " transform="matrix(1.5, 0, 0, -1.5, 144.552, 139.8885)"/>
<path fill-rule="nonzero" fill="rgb(0%, 0%, 0%)" fill-opacity="1" d="M 277.425781 139.886719 C 275.832031 139.589844 273.242188 138.691406 271.449219 137.648438 L 271.449219 142.128906 C 273.242188 141.085938 275.832031 140.1875 277.425781 139.886719 "/>
<g fill="rgb(0%, 0%, 0%)" fill-opacity="1">
<use xlink:href="#glyph-2-0" x="274.086" y="152.3595"/>
</g>
<path fill="none" stroke-width="0.79701" stroke-linecap="butt" stroke-linejoin="miter" stroke="rgb(0%, 0%, 0%)" stroke-opacity="1" stroke-miterlimit="10" d="M -70.868 2.490771 L -70.868 0.0011875 " transform="matrix(1.5, 0, 0, -1.5, 144.552, 139.8885)"/>
<path fill="none" stroke-width="0.79701" stroke-linecap="butt" stroke-linejoin="miter" stroke="rgb(0%, 0%, 0%)" stroke-opacity="1" stroke-miterlimit="10" d="M -35.433104 2.490771 L -35.433104 0.0011875 " transform="matrix(1.5, 0, 0, -1.5, 144.552, 139.8885)"/>
<path fill="none" stroke-width="0.79701" stroke-linecap="butt" stroke-linejoin="miter" stroke="rgb(0%, 0%, 0%)" stroke-opacity="1" stroke-miterlimit="10" d="M -0.0008125 2.490771 L -0.0008125 0.0011875 " transform="matrix(1.5, 0, 0, -1.5, 144.552, 139.8885)"/>
<path fill="none" stroke-width="0.79701" stroke-linecap="butt" stroke-linejoin="miter" stroke="rgb(0%, 0%, 0%)" stroke-opacity="1" stroke-miterlimit="10" d="M 35.434083 2.490771 L 35.434083 0.0011875 " transform="matrix(1.5, 0, 0, -1.5, 144.552, 139.8885)"/>
<path fill="none" stroke-width="0.79701" stroke-linecap="butt" stroke-linejoin="miter" stroke="rgb(0%, 0%, 0%)" stroke-opacity="1" stroke-miterlimit="10" d="M 70.866375 2.490771 L 70.866375 0.0011875 " transform="matrix(1.5, 0, 0, -1.5, 144.552, 139.8885)"/>
<path fill="none" stroke-width="0.3985" stroke-linecap="butt" stroke-linejoin="miter" stroke="rgb(0%, 0%, 0%)" stroke-opacity="1" stroke-miterlimit="10" d="M -0.0008125 -42.519646 L -0.0008125 84.995979 " transform="matrix(1.5, 0, 0, -1.5, 144.552, 139.8885)"/>
<path fill-rule="nonzero" fill="rgb(0%, 0%, 0%)" fill-opacity="1" d="M 144.550781 7.011719 C 144.253906 8.605469 143.355469 11.195312 142.308594 12.992188 L 146.792969 12.992188 C 145.746094 11.195312 144.851562 8.605469 144.550781 7.011719 "/>
<g fill="rgb(0%, 0%, 0%)" fill-opacity="1">
<use xlink:href="#glyph-2-1" x="131.94" y="8.7375"/>
</g>
<path fill="none" stroke-width="0.79701" stroke-linecap="butt" stroke-linejoin="miter" stroke="rgb(0%, 0%, 0%)" stroke-opacity="1" stroke-miterlimit="10" d="M 2.491375 -35.433708 L -0.0008125 -35.433708 " transform="matrix(1.5, 0, 0, -1.5, 144.552, 139.8885)"/>
<path fill="none" stroke-width="0.79701" stroke-linecap="butt" stroke-linejoin="miter" stroke="rgb(0%, 0%, 0%)" stroke-opacity="1" stroke-miterlimit="10" d="M 2.491375 0.0011875 L -0.0008125 0.0011875 " transform="matrix(1.5, 0, 0, -1.5, 144.552, 139.8885)"/>
<path fill="none" stroke-width="0.79701" stroke-linecap="butt" stroke-linejoin="miter" stroke="rgb(0%, 0%, 0%)" stroke-opacity="1" stroke-miterlimit="10" d="M 2.491375 35.433479 L -0.0008125 35.433479 " transform="matrix(1.5, 0, 0, -1.5, 144.552, 139.8885)"/>
<path fill="none" stroke-width="0.79701" stroke-linecap="butt" stroke-linejoin="miter" stroke="rgb(0%, 0%, 0%)" stroke-opacity="1" stroke-miterlimit="10" d="M 2.491375 70.865771 L -0.0008125 70.865771 " transform="matrix(1.5, 0, 0, -1.5, 144.552, 139.8885)"/>
<g fill="rgb(0%, 0%, 0%)" fill-opacity="1">
<use xlink:href="#glyph-2-2" x="126.8985" y="156.795"/>
</g>
<path fill="none" stroke-width="0.3985" stroke-linecap="butt" stroke-linejoin="miter" stroke="rgb(0%, 0%, 0%)" stroke-opacity="1" stroke-miterlimit="10" d="M -88.584146 6.264208 L -87.693521 6.373583 L -87.248208 6.430875 L -86.802896 6.485563 L -85.021646 6.714729 L -84.576333 6.774625 L -84.133625 6.834521 L -82.797687 7.014208 L -81.907062 7.139208 L -81.46175 7.199104 L -81.016437 7.264208 L -80.125812 7.389208 L -79.6805 7.454313 L -79.235187 7.522021 L -78.344562 7.652229 L -77.453937 7.787646 L -77.011229 7.855354 L -76.565917 7.923063 L -74.784667 8.204313 L -72.558104 8.568896 L -71.222167 8.795458 L -70.779458 8.873583 L -70.331542 8.951708 L -69.888833 9.029833 L -69.443521 9.107958 L -67.662271 9.430875 L -66.326333 9.680875 L -65.881021 9.766813 L -65.435708 9.850146 L -64.990396 9.938688 L -64.545083 10.024625 L -63.654458 10.201708 L -63.21175 10.29025 L -62.766437 10.378792 L -61.875812 10.561083 L -60.094562 10.936083 L -58.758625 11.225146 L -57.422687 11.522021 L -56.979979 11.623583 L -56.532062 11.725146 L -56.089354 11.829313 L -55.644042 11.930875 L -55.198729 12.035042 L -54.753417 12.141813 L -54.308104 12.245979 L -53.862792 12.355354 L -53.417479 12.462125 L -52.526854 12.680875 L -51.190917 13.016813 L -50.300292 13.245979 L -49.857583 13.360563 L -49.409667 13.47775 L -48.966958 13.597542 L -48.521646 13.714729 L -48.076333 13.834521 L -46.740396 14.201708 L -45.404458 14.576708 L -44.959146 14.704313 L -44.513833 14.834521 L -44.068521 14.962125 L -43.623208 15.094938 L -43.177896 15.225146 L -42.732583 15.357958 L -42.289875 15.493375 L -41.841958 15.628792 L -41.39925 15.764208 L -40.953937 15.902229 L -39.618 16.324104 L -38.727375 16.610563 L -37.83675 16.902229 L -36.946125 17.199104 L -36.500812 17.350146 L -36.058104 17.501188 L -35.167479 17.808479 L -34.276854 18.120979 L -33.831542 18.279833 L -32.495604 18.764208 L -32.050292 18.928271 L -31.159667 19.261604 L -30.269042 19.600146 L -29.378417 19.943896 L -28.933104 20.118375 L -28.487792 20.295458 L -28.045083 20.472542 L -27.154458 20.831917 L -26.263833 21.1965 L -25.818521 21.384 L -25.373208 21.568896 L -24.482583 21.949104 L -23.591958 22.334521 L -23.146646 22.529833 L -22.256021 22.925667 L -21.813312 23.126188 L -20.922687 23.532438 L -20.477375 23.738167 L -19.58675 24.154833 L -19.141437 24.365771 L -18.696125 24.579313 L -17.8055 25.011604 L -17.360187 25.230354 L -16.469562 25.673063 L -16.02425 25.897021 L -15.578937 26.123583 L -15.136229 26.35275 L -14.688312 26.584521 L -14.245604 26.816292 L -13.800292 27.050667 L -12.909667 27.524625 L -12.019042 28.009 L -11.573729 28.253792 L -11.128417 28.501188 L -10.237792 29.001188 L -9.347167 29.511604 L -8.904458 29.769417 L -8.456542 30.029833 L -8.013833 30.292854 L -7.123208 30.824104 L -6.232583 31.365771 L -5.341958 31.917854 L -4.896646 32.1965 L -4.451333 32.47775 L -4.006021 32.761604 L -3.560708 33.048063 L -3.115396 33.337125 L -2.670083 33.628792 L -2.224771 33.923063 L -1.779458 34.219938 L -1.334146 34.519417 L -0.891437 34.8215 L -0.446125 35.126188 L -0.0008125 35.433479 " transform="matrix(1.5, 0, 0, -1.5, 144.552, 139.8885)"/>
<path fill-rule="nonzero" fill="rgb(50%, 83.918762%, 96.864319%)" fill-opacity="0.5" d="M 91.402344 139.886719 L 91.402344 113.3125 L 91.667969 113.222656 L 91.9375 113.128906 L 92.46875 112.941406 L 92.738281 112.847656 L 93.003906 112.753906 L 93.273438 112.65625 L 93.804688 112.46875 L 94.074219 112.371094 L 94.339844 112.273438 L 94.605469 112.179688 L 94.875 112.082031 L 95.40625 111.886719 L 95.675781 111.789062 L 95.941406 111.691406 L 96.210938 111.59375 L 96.476562 111.496094 L 96.742188 111.394531 L 97.011719 111.296875 L 97.277344 111.195312 L 97.546875 111.097656 L 98.34375 110.792969 L 98.613281 110.691406 L 98.878906 110.589844 L 99.148438 110.488281 L 99.679688 110.285156 L 99.949219 110.179688 L 100.214844 110.074219 L 100.484375 109.972656 L 101.015625 109.761719 L 101.285156 109.65625 L 101.550781 109.554688 L 101.820312 109.445312 L 102.351562 109.234375 L 102.621094 109.128906 L 103.152344 108.910156 L 103.421875 108.804688 L 103.953125 108.585938 L 104.222656 108.476562 L 104.488281 108.367188 L 104.757812 108.257812 L 105.023438 108.148438 L 105.289062 108.035156 L 105.558594 107.925781 L 105.824219 107.8125 L 106.089844 107.703125 L 106.359375 107.589844 L 106.625 107.476562 L 106.894531 107.363281 L 107.425781 107.136719 L 107.695312 107.023438 L 107.960938 106.90625 L 108.226562 106.792969 L 108.496094 106.675781 L 108.761719 106.5625 L 109.03125 106.445312 L 109.5625 106.210938 L 109.832031 106.09375 L 110.363281 105.859375 L 110.632812 105.738281 L 110.898438 105.621094 L 111.167969 105.5 L 111.699219 105.257812 L 111.96875 105.136719 L 112.5 104.894531 L 112.769531 104.773438 L 113.035156 104.652344 L 113.304688 104.527344 L 113.570312 104.40625 L 113.835938 104.28125 L 114.105469 104.15625 L 114.371094 104.03125 L 114.640625 103.90625 L 115.171875 103.65625 L 115.4375 103.527344 L 115.707031 103.402344 L 115.972656 103.273438 L 116.242188 103.148438 L 116.773438 102.890625 L 117.042969 102.761719 L 117.308594 102.632812 L 117.578125 102.5 L 117.84375 102.371094 L 118.109375 102.238281 L 118.378906 102.109375 L 118.910156 101.84375 L 119.179688 101.710938 L 119.710938 101.445312 L 119.980469 101.3125 L 120.246094 101.175781 L 120.515625 101.042969 L 121.046875 100.769531 L 121.316406 100.632812 L 121.847656 100.359375 L 122.117188 100.222656 L 122.382812 100.082031 L 122.652344 99.941406 L 122.917969 99.804688 L 123.183594 99.664062 L 123.453125 99.523438 L 123.71875 99.382812 L 123.988281 99.242188 L 124.253906 99.101562 L 124.519531 98.957031 L 124.789062 98.8125 L 125.054688 98.671875 L 125.320312 98.527344 L 125.589844 98.382812 L 125.855469 98.238281 L 126.125 98.09375 L 126.390625 97.945312 L 126.65625 97.800781 L 126.925781 97.65625 L 127.457031 97.359375 L 127.726562 97.210938 L 128.257812 96.914062 L 128.527344 96.761719 L 128.792969 96.613281 L 129.0625 96.460938 L 129.59375 96.15625 L 129.863281 96.003906 L 130.128906 95.851562 L 130.398438 95.699219 L 130.664062 95.542969 L 130.929688 95.390625 L 131.195312 95.234375 L 131.464844 95.078125 L 131.730469 94.921875 L 132 94.765625 L 132.265625 94.609375 L 132.53125 94.449219 L 132.800781 94.289062 L 133.066406 94.132812 L 133.335938 93.972656 L 133.867188 93.652344 L 134.136719 93.488281 L 134.402344 93.328125 L 134.667969 93.164062 L 134.9375 93 L 135.203125 92.839844 L 135.472656 92.675781 L 135.738281 92.507812 L 136.003906 92.34375 L 136.273438 92.179688 L 136.804688 91.84375 L 137.074219 91.675781 L 137.339844 91.507812 L 137.609375 91.339844 L 137.875 91.171875 L 138.140625 91 L 138.410156 90.832031 L 138.941406 90.488281 L 139.210938 90.316406 L 139.476562 90.140625 L 139.746094 89.96875 L 140.011719 89.792969 L 140.277344 89.621094 L 140.546875 89.445312 L 140.8125 89.269531 L 141.082031 89.089844 L 141.347656 88.914062 L 141.613281 88.734375 L 141.882812 88.558594 L 142.414062 88.199219 L 142.683594 88.019531 L 142.949219 87.835938 L 143.214844 87.65625 L 143.484375 87.472656 L 143.75 87.292969 L 144.019531 87.105469 L 144.550781 86.738281 L 144.550781 139.886719 "/>
<g clip-path="url(#clip-0)">
<path fill="none" stroke-width="0.3985" stroke-linecap="butt" stroke-linejoin="miter" stroke="rgb(0%, 0%, 0%)" stroke-opacity="1" stroke-miterlimit="10" d="M -0.0008125 0.0011875 L 0.355958 0.355354 L 1.0695 1.068896 L 1.423667 1.425667 L 1.780438 1.779833 L 2.137208 2.136604 L 2.491375 2.493375 L 2.848146 2.847542 L 3.918458 3.917854 L 4.272625 4.274625 L 4.629396 4.628792 L 6.410646 6.410042 L 6.764813 6.766813 L 7.121583 7.120979 L 8.191896 8.191292 L 8.546063 8.548063 L 8.902833 8.902229 L 10.684083 10.683479 L 11.03825 11.04025 L 11.395021 11.397021 L 11.751792 11.751188 L 12.465333 12.464729 L 12.8195 12.8215 L 13.176271 13.175667 L 13.533042 13.532438 L 13.887208 13.889208 L 14.243979 14.243375 L 14.957521 14.956917 L 15.311688 15.313688 L 15.668458 15.670458 L 16.025229 16.024625 L 17.806479 17.805875 L 18.160646 18.162646 L 18.517417 18.516813 L 19.230958 19.230354 L 19.585125 19.587125 L 19.941896 19.941292 L 20.655438 20.654833 L 21.009604 21.011604 L 21.366375 21.368375 L 21.723146 21.722542 L 22.079917 22.079313 L 22.434083 22.436083 L 22.790854 22.79025 L 23.504396 23.503792 L 23.858563 23.860563 L 24.215333 24.217333 L 24.572104 24.5715 L 26.353354 26.35275 L 26.707521 26.709521 L 27.064292 27.063688 L 29.202313 29.201708 L 29.556479 29.558479 L 29.91325 29.912646 L 30.626792 30.626188 L 30.980958 30.982958 L 31.337729 31.337125 L 32.051271 32.050667 L 32.405438 32.407438 L 32.762208 32.761604 L 33.47575 33.475146 L 33.829917 33.831917 L 34.186688 34.186083 L 35.254396 35.253792 L 35.611167 35.613167 L 35.967938 35.967333 L 37.749188 37.748583 L 38.103354 38.105354 L 38.460125 38.459521 L 39.173667 39.173063 L 39.527833 39.529833 L 39.884604 39.884 L 40.598146 40.597542 L 40.952313 40.954313 L 41.309083 41.308479 L 42.022625 42.022021 L 42.376792 42.378792 L 42.733563 42.732958 L 43.447104 43.4465 L 43.801271 43.803271 L 44.158042 44.157438 L 44.871583 44.870979 L 45.22575 45.22775 L 45.582521 45.581917 L 47.363771 47.363167 L 47.717938 47.719938 L 48.074708 48.076708 L 48.431479 48.430875 L 50.5695 50.568896 L 50.923667 50.925667 L 51.280438 51.279833 L 51.993979 51.993375 L 52.348146 52.350146 L 52.704917 52.704313 L 53.418458 53.417854 L 53.772625 53.774625 L 54.129396 54.128792 L 56.267417 56.266813 L 56.621583 56.623583 L 56.978354 56.97775 L 58.759604 58.759 L 59.113771 59.115771 L 59.470542 59.472542 L 59.827313 59.826708 L 60.540854 60.54025 L 60.895021 60.897021 L 61.251792 61.251188 L 61.608563 61.607958 L 61.962729 61.964729 L 62.3195 62.318896 L 63.033042 63.032438 L 63.387208 63.389208 L 63.743979 63.745979 L 64.10075 64.100146 L 64.814292 64.813688 L 65.168458 65.170458 L 65.525229 65.524625 L 67.306479 67.305875 L 67.660646 67.662646 L 68.017417 68.019417 L 68.374188 68.373583 L 70.155438 70.154833 L 70.509604 70.511604 L 70.866375 70.865771 " transform="matrix(1.5, 0, 0, -1.5, 144.552, 139.8885)"/>
</g>
<path fill-rule="nonzero" fill="rgb(0%, 0%, 0%)" fill-opacity="1" stroke-width="0.3985" stroke-linecap="butt" stroke-linejoin="miter" stroke="rgb(0%, 0%, 0%)" stroke-opacity="1" stroke-miterlimit="10" d="M 1.493979 35.433479 C 1.493979 36.259 0.824708 36.928271 -0.0008125 36.928271 C -0.826333 36.928271 -1.495604 36.259 -1.495604 35.433479 C -1.495604 34.607958 -0.826333 33.938688 -0.0008125 33.938688 C 0.824708 33.938688 1.493979 34.607958 1.493979 35.433479 Z M 1.493979 35.433479 " transform="matrix(1.5, 0, 0, -1.5, 144.552, 139.8885)"/>
<path fill-rule="nonzero" fill="rgb(100%, 100%, 100%)" fill-opacity="1" stroke-width="0.3985" stroke-linecap="butt" stroke-linejoin="miter" stroke="rgb(0%, 0%, 0%)" stroke-opacity="1" stroke-miterlimit="10" d="M 1.493979 0.0011875 C 1.493979 0.824104 0.824708 1.493375 -0.0008125 1.493375 C -0.826333 1.493375 -1.495604 0.824104 -1.495604 0.0011875 C -1.495604 -0.824333 -0.826333 -1.493604 -0.0008125 -1.493604 C 0.824708 -1.493604 1.493979 -0.824333 1.493979 0.0011875 Z M 1.493979 0.0011875 " transform="matrix(1.5, 0, 0, -1.5, 144.552, 139.8885)"/>
<g clip-path="url(#clip-1)">
<path fill="none" stroke-width="0.3985" stroke-linecap="butt" stroke-linejoin="miter" stroke="rgb(100%, 0%, 0%)" stroke-opacity="1" stroke-dasharray="2.98883 2.98883" stroke-miterlimit="10" d="M -70.868 17.717333 L 70.866375 17.717333 " transform="matrix(1.5, 0, 0, -1.5, 144.552, 139.8885)"/>
</g>
<path fill-rule="nonzero" fill="rgb(100%, 0%, 0%)" fill-opacity="1" stroke-width="0.3985" stroke-linecap="butt" stroke-linejoin="miter" stroke="rgb(100%, 0%, 0%)" stroke-opacity="1" stroke-miterlimit="10" d="M -33.964354 17.72775 C -33.964354 18.553271 -34.633625 19.222542 -35.459146 19.222542 C -36.284667 19.222542 -36.951333 18.553271 -36.951333 17.72775 C -36.951333 16.904833 -36.284667 16.235563 -35.459146 16.235563 C -34.633625 16.235563 -33.964354 16.904833 -33.964354 17.72775 Z M -33.964354 17.72775 " transform="matrix(1.5, 0, 0, -1.5, 144.552, 139.8885)"/>
<path fill-rule="nonzero" fill="rgb(100%, 0%, 0%)" fill-opacity="1" stroke-width="0.3985" stroke-linecap="butt" stroke-linejoin="miter" stroke="rgb(100%, 0%, 0%)" stroke-opacity="1" stroke-miterlimit="10" d="M 19.223146 17.72775 C 19.223146 18.553271 18.553875 19.222542 17.728354 19.222542 C 16.902833 19.222542 16.233563 18.553271 16.233563 17.72775 C 16.233563 16.904833 16.902833 16.235563 17.728354 16.235563 C 18.553875 16.235563 19.223146 16.904833 19.223146 17.72775 Z M 19.223146 17.72775 " transform="matrix(1.5, 0, 0, -1.5, 144.552, 139.8885)"/>
<path fill="none" stroke-width="0.3985" stroke-linecap="butt" stroke-linejoin="miter" stroke="rgb(100%, 0%, 0%)" stroke-opacity="1" stroke-dasharray="2.98883 2.98883" stroke-miterlimit="10" d="M -35.459146 17.72775 L -35.459146 0.0011875 " transform="matrix(1.5, 0, 0, -1.5, 144.552, 139.8885)"/>
<path fill="none" stroke-width="0.3985" stroke-linecap="butt" stroke-linejoin="miter" stroke="rgb(100%, 0%, 0%)" stroke-opacity="1" stroke-dasharray="2.98883 2.98883" stroke-miterlimit="10" d="M 17.728354 17.72775 L 17.728354 0.0011875 " transform="matrix(1.5, 0, 0, -1.5, 144.552, 139.8885)"/>
<path fill-rule="nonzero" fill="rgb(100%, 100%, 100%)" fill-opacity="1" d="M 155.164062 163.925781 L 187.128906 163.925781 L 187.128906 144.371094 L 155.164062 144.371094 Z M 155.164062 163.925781 "/>
<g fill="rgb(100%, 0%, 0%)" fill-opacity="1">
<use xlink:href="#glyph-1-2" x="161.604" y="157.254"/>
</g>
<g fill="rgb(100%, 0%, 0%)" fill-opacity="1">
<use xlink:href="#glyph-3-0" x="169.0755" y="157.254"/>
</g>
<g fill="rgb(100%, 0%, 0%)" fill-opacity="1">
<use xlink:href="#glyph-1-3" x="173.2155" y="157.254"/>
</g>
</svg>
