<svg xmlns="http://www.w3.org/2000/svg" xmlns:xlink="http://www.w3.org/1999/xlink" width="377.544" height="414.688" viewBox="0 0 283.158 311.016"><defs><path id="a" d="M9.844-3.437c.25 0 .515 0 .515-.297s-.265-.297-.515-.297H1.766c-.25 0-.532 0-.532.297s.282.297.532.297Zm0 0"/><path id="b" d="m7.094-2.047-.188-.078c-.562.86-.75.984-1.422.984H1.906l2.516-2.625C5.75-5.156 6.328-6.28 6.328-7.453c0-1.5-1.203-2.64-2.766-2.64-.812 0-1.593.327-2.14.921-.484.516-.703.985-.953 2.047l.312.078C1.375-8.516 1.906-9 2.938-9c1.265 0 2.109.86 2.109 2.11 0 1.171-.688 2.562-1.938 3.89L.453-.172V0h5.828Zm0 0"/><path id="c" d="m4.344-10.094-2.688 1.36v.203c.188-.078.344-.125.407-.156.265-.11.515-.172.671-.172.313 0 .454.218.454.703v6.765c0 .5-.126.844-.36.97-.234.14-.437.187-1.062.202V0H5.89v-.219c-1.188-.015-1.422-.172-1.422-.89v-8.953Zm0 0"/><path id="d" d="M2.281-4.922c.89 0 1.235.016 1.594.156.922.329 1.5 1.188 1.5 2.22 0 1.25-.844 2.218-1.953 2.218-.406 0-.703-.11-1.25-.469-.453-.265-.703-.375-.969-.375-.344 0-.562.219-.562.531 0 .516.64.844 1.687.844 1.156 0 2.328-.375 3.031-1 .704-.61 1.094-1.469 1.094-2.469 0-.765-.234-1.468-.672-1.937-.297-.328-.578-.5-1.234-.781 1.031-.703 1.39-1.266 1.39-2.063 0-1.219-.953-2.047-2.328-2.047-.734 0-1.406.25-1.937.735-.453.39-.672.78-1 1.687l.219.047c.625-1.078 1.297-1.578 2.234-1.578.969 0 1.64.656 1.64 1.594a2.07 2.07 0 0 1-.593 1.453c-.453.453-.875.672-1.89 1.031Zm0 0"/><path id="k" d="M2.703-8.703h2.922c.25 0 .313-.031.344-.14l.578-1.329-.14-.11c-.22.313-.376.391-.688.391H2.594L.969-6.344c-.016.032-.016.047-.016.063 0 .078.063.125.188.125.468 0 1.062.11 1.687.297 1.719.562 2.5 1.484 2.5 2.968 0 1.422-.906 2.547-2.078 2.547-.297 0-.547-.11-1-.437-.469-.344-.812-.485-1.125-.485-.437 0-.64.172-.64.547 0 .563.703.922 1.812.922 1.265 0 2.328-.39 3.078-1.156.688-.672 1-1.531 1-2.656 0-1.078-.281-1.766-1.031-2.516-.657-.656-1.5-1-3.266-1.312Zm0 0"/><path id="l" d="M3.797-10.094c-.828 0-1.453.25-2 .766C.922-8.484.359-6.766.359-5.016.36-3.39.844-1.64 1.547-.812A2.83 2.83 0 0 0 3.734.202c.766 0 1.407-.25 1.938-.766.875-.828 1.437-2.562 1.437-4.359 0-3.062-1.359-5.172-3.312-5.172m-.047.39c1.25 0 1.922 1.688 1.922 4.798 0 3.125-.656 4.734-1.938 4.734-1.28 0-1.937-1.61-1.937-4.719 0-3.156.672-4.812 1.953-4.812m0 0"/><path id="e" d="M6-1.656a6 6 0 0 0-.328.406c-.344.438-.516.594-.688.594-.218 0-.359-.188-.453-.61-.031-.125-.047-.218-.062-.265-.375-1.5-.547-2.188-.547-2.407C4.578-5.093 5.125-5.75 5.39-5.75c.093 0 .203.047.359.125.188.094.281.125.406.125.313 0 .516-.219.516-.531s-.25-.563-.61-.563c-.656 0-1.218.547-2.25 2.14l-.171-.812c-.203-1.015-.375-1.328-.766-1.328-.328 0-.844.14-1.75.438l-.172.062.063.219c.562-.125.703-.156.843-.156.36 0 .454.125.672 1.031l.422 1.828-1.219 1.75c-.296.453-.593.719-.765.719-.094 0-.235-.047-.39-.14a1.2 1.2 0 0 0-.47-.141.51.51 0 0 0-.515.515c0 .39.297.64.75.64.469 0 .64-.14 1.39-1.046.407-.484.72-.89 1.344-1.75l.453 1.781c.188.766.375 1.016.86 1.016.562 0 .953-.36 1.828-1.703Zm0 0"/><path id="f" d="M.219-5.969c.203-.047.297-.062.469-.062.843 0 1.078.375 1.765 2.937.25.969.61 2.719.61 2.969s-.094.484-.313.75c-.469.61-.766 1-.922 1.188-.312.328-.5.437-.687.437-.094 0-.203-.047-.36-.156-.234-.188-.39-.25-.562-.25a.567.567 0 0 0-.578.578c0 .375.328.656.765.656.953 0 2.907-2.234 4.516-5.203 1.016-1.828 1.437-2.906 1.437-3.64a.83.83 0 0 0-.812-.829c-.344 0-.594.235-.594.563 0 .218.125.39.422.578.281.172.39.297.39.516 0 .593-.546 1.75-1.827 3.859L3.64-2.812c-.22-1.313-1.063-3.782-1.282-3.782h-.062c-.016.016-.078.016-.125.016-.14.016-.672.11-1.469.266-.078.015-.265.046-.484.078Zm0 0"/><path id="g" d="M7.078-9.953c-1.25 0-2.594.61-3.797 1.687-1.5 1.391-2.39 3.22-2.39 4.97C.89-1.204 2.25.265 4.156.265c3.11 0 6.125-3.141 6.282-6.516.109-2.094-1.36-3.703-3.36-3.703m-.125.5c1.172 0 1.922.86 1.922 2.265 0 1.61-.703 3.797-1.672 5.204C6.375-.812 5.453-.22 4.406-.22c-1.25 0-1.937-.922-1.937-2.531 0-1.406.75-3.625 1.64-4.922.829-1.219 1.75-1.781 2.844-1.781m0 0"/><path id="j" d="M2.875-.797a.797.797 0 0 0-1.594 0A.8.8 0 0 0 2.078 0a.8.8 0 0 0 .797-.797m0 0"/><clipPath id="h"><path d="M148 211h59v98.969h-59Zm0 0"/></clipPath><clipPath id="i"><path d="M189 33.586h61.852V96H189Zm0 0"/></clipPath></defs><path fill="#fff" d="M27.215 211.746h22.074V197.52H27.215Zm0 0"/><use xlink:href="#a" x="28.712" y="209.013"/><use xlink:href="#b" x="40.323" y="209.013"/><path fill="#fff" d="M80.367 211.746h22.07V197.52h-22.07Zm0 0"/><use xlink:href="#a" x="81.861" y="209.013"/><use xlink:href="#c" x="93.472" y="209.013"/><path fill="#fff" d="M143.059 200.512h2.988v-2.992h-2.988ZM192.473 210.508h10.46V197.52h-10.46Zm0 0"/><use xlink:href="#c" x="193.966" y="209.013"/><path fill="#fff" d="M245.621 210.508h10.461V197.52h-10.46Zm0 0"/><use xlink:href="#b" x="247.116" y="209.013"/><path fill="#fff" d="M117.996 306.453h22.074v-14.226h-22.074Zm0 0"/><use xlink:href="#a" x="119.492" y="303.716"/><use xlink:href="#b" x="131.103" y="303.716"/><path fill="#fff" d="M117.996 253.3h22.074v-14.226h-22.074Zm0 0"/><use xlink:href="#a" x="119.492" y="250.566"/><use xlink:href="#c" x="131.103" y="250.566"/><path fill="#fff" d="M137.078 194.531h2.992v-2.988h-2.992ZM129.61 146.383h10.46v-12.988h-10.46Zm0 0"/><use xlink:href="#c" x="131.103" y="144.888"/><path fill="#fff" d="M129.61 93.23h10.46V80.246h-10.46Zm0 0"/><use xlink:href="#b" x="131.103" y="91.739"/><path fill="#fff" d="M129.61 40.195h10.46V26.977h-10.46Zm0 0"/><use xlink:href="#d" x="131.103" y="38.472"/><path fill="none" stroke="#000" stroke-miterlimit="10" stroke-width=".5985" d="M1.047 193.04h271"/><path d="M277.426 193.04c-1.594-.302-4.184-1.196-5.977-2.243v4.484c1.793-1.047 4.383-1.945 5.977-2.242"/><use xlink:href="#e" x="274.086" y="205.509"/><path fill="none" stroke="#000" stroke-miterlimit="10" stroke-width="1.1955" d="M38.25 189.3v3.74M91.402 189.3v3.74M144.55 189.3v3.74M197.703 189.3v3.74M250.852 189.3v3.74"/><path fill="none" stroke="#000" stroke-miterlimit="10" stroke-width=".5985" d="M144.55 309.969V12.39"/><path d="M144.55 7.012c-.296 1.593-1.195 4.183-2.241 5.976h4.484c-1.047-1.793-1.941-4.383-2.242-5.976"/><use xlink:href="#f" x="131.94" y="8.738"/><path fill="none" stroke="#000" stroke-miterlimit="10" stroke-width="1.1955" d="M148.29 299.34h-3.74M148.29 246.188h-3.74M148.29 193.04h-3.74M148.29 139.887h-3.74M148.29 86.738h-3.74M148.29 33.586h-3.74"/><use xlink:href="#g" x="126.898" y="209.945"/><path fill="none" stroke="#000" stroke-miterlimit="10" stroke-width=".5985" d="m11.676 183.64.668-.077.668-.086.668-.082 3.34-.43.668-.09.664-.086 1.335-.18 1.336-.187.668-.09 1.336-.187.668-.098.668-.094 2.004-.293 2.004-.305.664-.101.668-.102.668-.105.668-.102.668-.11 1.336-.21 1.336-.219.668-.113.668-.11 2.004-.34.664-.116.672-.118.664-.117.668-.117.668-.121.668-.117.668-.125.668-.121.668-.125.668-.121.668-.13.667-.124 1.336-.258.668-.133.668-.129.668-.133.664-.133 2.004-.41.668-.14.668-.137.668-.14 2.672-.579 2.004-.445.664-.152.672-.153.664-.152 2.004-.469 1.336-.32 2.004-.492.668-.168.668-.164.668-.172.668-.168.668-.176.664-.172.671-.176.665-.175 1.336-.36.667-.183.668-.18.668-.188.668-.183.668-.188 2.004-.574 1.336-.39 1.336-.399.664-.203.672-.203.664-.203.668-.207.668-.211.668-.207 2.004-.645 1.336-.437 1.336-.446.668-.226.664-.227 1.336-.46 1.336-.47 1.336-.476.668-.246.668-.242.668-.246 2.003-.75.668-.258.668-.254 2.004-.785.664-.27.668-.265 2.004-.82.668-.278.668-.281 2.004-.856 2.004-.879.668-.3.664-.301 1.336-.61 1.336-.617 1.336-.633 1.336-.64 2.004-.985 1.336-.672.668-.34.664-.343.672-.344.664-.351.668-.352 1.335-.711 1.336-.727.668-.367.668-.37 1.336-.75.668-.38.668-.386.664-.387.672-.39.664-.395.668-.395.668-.402 1.336-.813.668-.41 1.336-.836.668-.422.668-.425.668-.43.668-.434.668-.437.668-.442.668-.445.668-.45.664-.452.668-.457.668-.461"/><path fill="red" stroke="red" stroke-miterlimit="10" stroke-width=".5985" d="M93.605 166.445a2.24 2.24 0 0 0-2.242-2.242 2.24 2.24 0 0 0-2.238 2.242c0 1.239 1 2.242 2.238 2.242a2.24 2.24 0 0 0 2.242-2.242Zm0 0"/><g clip-path="url(#h)"><path fill="none" stroke="#000" stroke-miterlimit="10" stroke-width=".5985" d="m157.309 303.766.203-1.73.203-1.684.203-1.63.203-1.581.203-1.536.203-1.488.2-1.449.207-1.406.199-1.367.203-1.329.207-1.293.2-1.261.206-1.223.2-1.195.203-1.164.203-1.133.203-1.106.203-1.078.203-1.05.203-1.028.203-1 .203-.98.204-.953.203-.934.203-.914.203-.89.203-.876.203-.851.203-.832.203-.817.204-.8.203-.782.203-.765.203-.75.203-.735.203-.719.203-.703.203-.691.2-.68.203-.664.203-.652.203-.637.203-.629.203-.613.203-.606.204-.593.203-.582.203-.57.203-.563.203-.55.203-.544.203-.531.203-.524.204-.511.203-.508.203-.496.203-.488.203-.48.203-.474.203-.464.203-.457.204-.45.203-.445.203-.434.199-.43.207-.421.2-.418.202-.41.207-.403.2-.398.203-.39.203-.387.203-.38.203-.374.203-.367.203-.364.204-.36.203-.35.203-.348.203-.344.203-.34.203-.336.203-.328.203-.324.203-.32.204-.317.203-.312.203-.309.203-.305.406-.593.203-.293.203-.29.2-.285.203-.28.203-.278.203-.274.203-.27.406-.53.204-.262.203-.258.203-.254.406-.5.203-.246.203-.242.407-.477.203-.234.406-.461.203-.227.406-.445.203-.219.407-.43.406-.421.2-.207.206-.203.2-.204.206-.199.2-.199.406-.39.406-.383.203-.188.203-.184.204-.187.812-.719.203-.172.203-.175.203-.172.61-.504.406-.328.61-.48.609-.47.199-.152.203-.152.61-.446.609-.433.812-.563.204-.136.203-.133.203-.137.406-.266.203-.128.203-.133.203-.13.204-.124.203-.129.609-.375.61-.363.199-.118.207-.12.199-.118.203-.117.203-.113.203-.117.407-.227.203-.11.203-.113.61-.328.405-.21.203-.11.204-.102.406-.21.406-.204"/></g><g clip-path="url(#i)"><path fill="none" stroke="#000" stroke-miterlimit="10" stroke-width=".5985" d="m197.703 86.738.266-.27.27-.265.265-.265.266-.27.27-.266.8-.8.265-.27.266-.266.27-.265.265-.27.27-.265.265-.266.266-.27.27-.265.265-.27.27-.265.265-.266.266-.27.27-.265.265-.266.266-.27.27-.265.265-.27.266-.265.27-.266.265-.27.27-.265.265-.265.265-.27.27-.266.266-.27.265-.265.27-.265.265-.27.27-.266.266-.265.265-.27.27-.265.8-.801.266-.27.27-.265.265-.266.266-.27.27-.265.265-.27.27-.265.265-.266.266-.27.27-.265.265-.266.266-.27.27-.265.265-.265.265-.27.27-.266.266-.27.27-.265.265-.265.265-.27.27-.265.8-.801.266-.27.266-.265.27-.266.265-.27.27-.265.265-.27.266-.265.27-.266.265-.27.27-.265.265-.266.266-.27.27-.265.265-.27.27-.265.265-.266.266-.27.27-.265.265-.265.266-.27.269-.266.266-.265.265-.27.27-.265.265-.27.27-.266.266-.265.265-.27.27-.265.265-.27.266-.265.27-.266.8-.8.266-.27.27-.266.265-.266.266-.27.27-.265.265-.27.27-.265.265-.266.266-.27.27-.265.265-.27.265-.265.27-.266.266-.27.27-.265.265-.265.265-.27.27-.266.266-.269.265-.266.27-.265.265-.27.27-.265.265-.266.266-.27.27-.265.8-.801.266-.27.266-.265.27-.266.265-.27.27-.265.265-.27.266-.265.27-.266.265-.27.27-.265.265-.265.266-.27.27-.266.265-.265.265-.27.27-.265.265-.27.266-.266.27-.265.265-.27.27-.265.265-.266.266-.27.27-.265.265-.27.266-.265.27-.266.265-.27.27-.265.265-.27.266-.265.27-.266.265-.27.27-.265.265-.266.266-.27.27-.265.265-.265.265-.27.27-.266.266-.27.27-.265.265-.265.265-.27.27-.266.266-.265.265-.27.27-.265.265-.27.266-.265.27-.266.265-.27.27-.265.265-.27.266-.265.27-.266.8-.8.266-.27.265-.266.27-.266.266-.27.27-.265.265-.27.265-.265.27-.266.266-.27"/></g><path fill="red" stroke="red" stroke-miterlimit="10" stroke-width=".5985" d="M226.574 60.07a2.242 2.242 0 1 0-4.484 0 2.242 2.242 0 0 0 4.484 0Zm0 0"/><path stroke="#000" stroke-miterlimit="10" stroke-width=".5985" d="M146.793 86.738a2.242 2.242 0 1 0-4.485 0 2.242 2.242 0 0 0 4.485 0ZM199.945 86.738a2.242 2.242 0 1 0-4.484 0 2.242 2.242 0 0 0 4.484 0Zm0 0"/><path fill="#fff" stroke="#000" stroke-miterlimit="10" stroke-width=".5985" d="M146.793 139.887a2.242 2.242 0 1 0-4.485 0 2.242 2.242 0 0 0 4.485 0ZM199.945 219.613a2.242 2.242 0 1 0-4.484 0 2.242 2.242 0 0 0 4.484 0Zm0 0"/><path fill="none" stroke="red" stroke-dasharray="4.483245 4.483245" stroke-miterlimit="10" stroke-width=".5985" d="M91.363 166.445v26.594M91.363 166.445h53.188M224.332 60.07v132.97M224.332 60.07h-79.781"/><path fill="#fff" d="M208.352 217.074h31.964V197.52h-31.964Zm0 0"/><use xlink:href="#c" x="214.791" y="210.404" fill="red"/><use xlink:href="#j" x="222.262" y="210.404" fill="red"/><use xlink:href="#k" x="226.403" y="210.404" fill="red"/><path fill="red" stroke="red" stroke-miterlimit="10" stroke-width=".5985" d="M173.383 246.215a2.242 2.242 0 0 0-4.485 0 2.241 2.241 0 0 0 4.485 0Zm0 0"/><path fill="none" stroke="red" stroke-dasharray="4.483245 4.483245" stroke-miterlimit="10" stroke-width=".5985" d="M171.14 246.215v-53.176M171.14 246.215h-26.59"/><path fill="#fff" d="M155.156 217.074h31.965V197.52h-31.965Zm0 0"/><use xlink:href="#l" x="161.598" y="210.404" fill="red"/><use xlink:href="#j" x="169.07" y="210.404" fill="red"/><use xlink:href="#k" x="173.209" y="210.404" fill="red"/></svg>