<?xml version="1.0" encoding="UTF-8"?>
<svg xmlns="http://www.w3.org/2000/svg" xmlns:xlink="http://www.w3.org/1999/xlink" width="361.2315pt" height="383.271pt" viewBox="0 0 361.2315 383.271">
<defs>
<g>
<g id="glyph-0-0">
<path d="M 9.78125 -9.75 L 6.671875 -9.75 L 6.671875 -9.515625 C 7.40625 -9.421875 7.59375 -9.328125 7.59375 -8.984375 C 7.59375 -8.78125 7.5 -8.609375 7.296875 -8.359375 L 5.125 -5.875 L 4.25 -8.0625 C 4.078125 -8.453125 4.015625 -8.703125 4.015625 -8.90625 C 4.015625 -9.28125 4.25 -9.40625 5.078125 -9.515625 L 5.078125 -9.75 L 1.140625 -9.75 L 1.140625 -9.515625 C 2 -9.4375 2.21875 -9.296875 2.515625 -8.609375 L 4.09375 -4.671875 C 3.546875 -4.046875 3.046875 -3.46875 2.859375 -3.21875 C 0.78125 -0.78125 0.359375 -0.40625 -0.4375 -0.234375 L -0.4375 0 L 2.765625 0 L 2.765625 -0.234375 C 2.046875 -0.234375 1.796875 -0.375 1.796875 -0.75 C 1.796875 -0.96875 1.90625 -1.21875 2.109375 -1.453125 L 4.359375 -4.015625 L 5.359375 -1.546875 C 5.46875 -1.28125 5.53125 -1.046875 5.53125 -0.828125 C 5.53125 -0.390625 5.375 -0.3125 4.390625 -0.234375 L 4.390625 0 L 8.46875 0 L 8.46875 -0.234375 C 7.421875 -0.359375 7.296875 -0.453125 6.921875 -1.34375 L 5.390625 -5.203125 L 7.921875 -8.09375 C 8.6875 -8.96875 9.140625 -9.3125 9.78125 -9.515625 Z M 9.78125 -9.75 "/>
</g>
<g id="glyph-0-1">
<path d="M 1.359375 -9.515625 C 2.203125 -9.390625 2.234375 -9.34375 2.5 -8.53125 L 3.640625 -4.515625 L 2.734375 -1.34375 C 2.484375 -0.53125 2.15625 -0.296875 1.171875 -0.234375 L 1.171875 0 L 5.484375 0 L 5.484375 -0.234375 C 5.25 -0.25 5.03125 -0.265625 4.9375 -0.28125 C 4.359375 -0.3125 4.15625 -0.46875 4.15625 -0.84375 C 4.15625 -1.15625 4.25 -1.59375 4.609375 -2.765625 C 4.65625 -2.890625 4.6875 -3 4.703125 -3.0625 L 5.140625 -4.578125 L 8.40625 -8.609375 C 8.890625 -9.203125 9 -9.3125 9.453125 -9.515625 L 9.453125 -9.75 L 6.625 -9.75 L 6.625 -9.515625 C 6.8125 -9.5 6.96875 -9.484375 7.03125 -9.46875 C 7.46875 -9.421875 7.65625 -9.3125 7.65625 -9.046875 C 7.65625 -8.65625 6.96875 -7.671875 5.421875 -5.875 C 5.171875 -5.578125 5.078125 -5.453125 4.859375 -5.1875 C 4.671875 -5.84375 4.625 -6.03125 4.390625 -6.828125 C 4.015625 -8.109375 3.859375 -8.75 3.859375 -8.984375 C 3.859375 -9.328125 4.03125 -9.421875 4.921875 -9.515625 L 4.921875 -9.75 L 1.359375 -9.75 Z M 1.359375 -9.515625 "/>
</g>
<g id="glyph-0-2">
<path d="M 13.046875 -9.75 L 10.546875 -9.75 L 5.53125 -2.390625 L 4.703125 -9.75 L 2 -9.75 L 2 -9.515625 C 2.75 -9.46875 3.109375 -9.3125 3.109375 -8.96875 C 3.109375 -8.84375 3.046875 -8.625 2.953125 -8.34375 C 2.921875 -8.296875 2.890625 -8.125 2.828125 -7.90625 C 2.8125 -7.859375 2.796875 -7.796875 2.78125 -7.734375 L 1.1875 -2.1875 C 0.734375 -0.625 0.515625 -0.328125 -0.265625 -0.234375 L -0.265625 0 L 2.6875 0 L 2.6875 -0.234375 C 1.921875 -0.296875 1.625 -0.484375 1.625 -0.890625 C 1.625 -1.046875 1.6875 -1.4375 1.765625 -1.6875 L 3.53125 -8.15625 L 4.4375 0 L 4.6875 0 L 10.328125 -8.375 L 8.390625 -1.359375 C 8.15625 -0.5625 7.859375 -0.34375 6.890625 -0.234375 L 6.890625 0 L 10.96875 0 L 10.96875 -0.234375 C 9.953125 -0.328125 9.8125 -0.421875 9.8125 -0.875 C 9.8125 -1.140625 9.84375 -1.328125 9.984375 -1.796875 L 11.8125 -8.40625 C 12.078125 -9.3125 12.15625 -9.375 13.046875 -9.515625 Z M 13.046875 -9.75 "/>
</g>
<g id="glyph-0-3">
<path d="M 8.421875 -0.234375 C 7.578125 -0.3125 7.484375 -0.4375 7.296875 -1.53125 L 5.890625 -9.984375 L 5.5 -9.984375 L 1.171875 -2.515625 C -0.015625 -0.515625 -0.171875 -0.359375 -0.765625 -0.234375 L -0.765625 0 L 2.03125 0 L 2.03125 -0.234375 C 1.265625 -0.3125 1.15625 -0.390625 1.15625 -0.765625 C 1.15625 -1.046875 1.1875 -1.1875 1.453125 -1.6875 L 2.296875 -3.375 L 5.59375 -3.375 L 5.890625 -1.421875 C 5.90625 -1.28125 5.921875 -1.15625 5.921875 -1.03125 C 5.921875 -0.46875 5.703125 -0.328125 4.75 -0.234375 L 4.75 0 L 8.421875 0 Z M 2.609375 -3.90625 L 4.859375 -7.796875 L 5.515625 -3.90625 Z M 2.609375 -3.90625 "/>
</g>
<g id="glyph-0-4">
<path d="M 9.453125 -9.75 L 1.515625 -9.75 L 0.875 -7.453125 L 1.15625 -7.390625 C 1.9375 -9 2.421875 -9.265625 4.703125 -9.234375 L 2.546875 -1.34375 C 2.3125 -0.546875 1.953125 -0.3125 0.96875 -0.234375 L 0.96875 0 L 5.296875 0 L 5.296875 -0.234375 C 5.046875 -0.25 4.828125 -0.28125 4.734375 -0.28125 C 4.140625 -0.328125 3.953125 -0.46875 3.953125 -0.90625 C 3.953125 -1.109375 4 -1.28125 4.140625 -1.796875 L 6.21875 -9.234375 L 7.03125 -9.234375 C 8.109375 -9.234375 8.59375 -8.859375 8.59375 -8.015625 C 8.59375 -7.828125 8.578125 -7.609375 8.546875 -7.34375 L 8.796875 -7.3125 Z M 9.453125 -9.75 "/>
</g>
<g id="glyph-0-5">
<path d="M 2.1875 -9.515625 C 3.03125 -9.40625 3.234375 -9.28125 3.234375 -8.890625 C 3.234375 -8.671875 3.1875 -8.359375 2.984375 -7.6875 L 1.21875 -1.34375 C 0.953125 -0.453125 0.84375 -0.359375 0 -0.234375 L 0 0 L 3.65625 0 L 3.65625 -0.234375 C 2.71875 -0.375 2.640625 -0.421875 2.640625 -0.921875 C 2.640625 -1.109375 2.671875 -1.25 2.828125 -1.796875 L 3.609375 -4.671875 C 3.984375 -4.578125 4.375 -4.5625 4.984375 -4.5625 C 6.21875 -4.5625 7.21875 -4.8125 7.859375 -5.265625 C 8.609375 -5.828125 9.03125 -6.640625 9.03125 -7.53125 C 9.03125 -8.96875 7.921875 -9.75 5.890625 -9.75 L 2.1875 -9.75 Z M 4.8125 -8.890625 C 4.90625 -9.203125 5.078125 -9.3125 5.5 -9.3125 C 6.078125 -9.3125 6.640625 -9.15625 6.953125 -8.953125 C 7.328125 -8.671875 7.5 -8.234375 7.5 -7.53125 C 7.5 -6.5625 7.15625 -5.875 6.5 -5.484375 C 6.03125 -5.234375 5.453125 -5.109375 4.53125 -5.109375 C 4.265625 -5.109375 4.15625 -5.125 3.75 -5.1875 Z M 4.8125 -8.890625 "/>
</g>
<g id="glyph-0-6">
<path d="M 4.171875 0.234375 C 5.3125 0.171875 5.890625 0.015625 6.71875 -0.453125 C 8.9375 -1.6875 10.4375 -4.109375 10.4375 -6.46875 C 10.4375 -8.484375 9 -9.953125 7.015625 -9.953125 C 5.828125 -9.953125 4.484375 -9.328125 3.28125 -8.265625 C 1.78125 -6.859375 0.890625 -5.046875 0.890625 -3.296875 C 0.890625 -2.078125 1.34375 -1.0625 2.15625 -0.4375 C 2.546875 -0.125 2.875 0.03125 3.53125 0.171875 C 2.171875 1.375 2.03125 1.5 0.875 2.296875 L 1.03125 2.53125 C 1.59375 2.203125 2.171875 2.0625 2.75 2.0625 C 3.046875 2.0625 3.484375 2.15625 4.140625 2.328125 C 5.046875 2.578125 5.859375 2.734375 6.40625 2.734375 C 7.234375 2.734375 8.28125 2.34375 9.03125 1.75 C 9.390625 1.484375 9.59375 1.265625 9.984375 0.734375 L 9.75 0.5625 C 8.921875 1.4375 8.3125 1.71875 7.234375 1.71875 C 6.84375 1.71875 6.53125 1.65625 5.390625 1.390625 C 4.609375 1.1875 3.90625 1.0625 3.828125 1.078125 C 3.765625 1.09375 3.734375 1.09375 3.734375 1.09375 L 3.359375 1.09375 Z M 6.953125 -9.453125 C 8.140625 -9.453125 8.875 -8.59375 8.875 -7.171875 C 8.875 -5.59375 8.171875 -3.390625 7.21875 -2.015625 C 6.390625 -0.84375 5.46875 -0.25 4.375 -0.25 C 3.171875 -0.25 2.46875 -1.171875 2.46875 -2.734375 C 2.46875 -4.15625 3.203125 -6.375 4.109375 -7.671875 C 4.9375 -8.890625 5.859375 -9.453125 6.953125 -9.453125 Z M 6.953125 -9.453125 "/>
</g>
<g id="glyph-0-7">
<path d="M 6.984375 -6.984375 L 7.59375 -9.96875 L 7.25 -9.96875 C 7.03125 -9.65625 6.90625 -9.578125 6.578125 -9.578125 C 6.390625 -9.578125 6.234375 -9.625 5.890625 -9.734375 C 5.5625 -9.875 5.078125 -9.953125 4.609375 -9.953125 C 3.0625 -9.953125 1.953125 -8.921875 1.953125 -7.453125 C 1.953125 -6.640625 2.1875 -6.21875 3.078125 -5.265625 C 3.21875 -5.125 3.40625 -4.921875 3.65625 -4.625 C 3.921875 -4.34375 4.140625 -4.125 4.25 -4 C 4.9375 -3.265625 5.140625 -2.890625 5.140625 -2.234375 C 5.140625 -1.125 4.296875 -0.25 3.21875 -0.25 C 1.96875 -0.25 1.03125 -1.3125 1.03125 -2.734375 C 1.03125 -2.859375 1.046875 -2.96875 1.0625 -3.078125 L 0.765625 -3.109375 L 0.25 0.21875 L 0.515625 0.21875 C 0.625 -0.125 0.796875 -0.265625 1.09375 -0.265625 C 1.25 -0.265625 1.484375 -0.203125 1.859375 -0.078125 C 2.546875 0.171875 2.953125 0.265625 3.421875 0.265625 C 5.140625 0.265625 6.4375 -1.03125 6.4375 -2.71875 C 6.4375 -3.6875 6.09375 -4.265625 4.75 -5.625 C 3.40625 -6.984375 3.265625 -7.203125 3.265625 -7.9375 C 3.265625 -8.875 3.90625 -9.453125 4.921875 -9.453125 C 5.46875 -9.453125 5.9375 -9.265625 6.25 -8.90625 C 6.578125 -8.53125 6.6875 -8.015625 6.71875 -7.03125 Z M 6.984375 -6.984375 "/>
</g>
<g id="glyph-1-0">
<path d="M 2.796875 -5.25 C 2.859375 -5.390625 2.890625 -5.484375 2.890625 -5.59375 C 2.890625 -5.921875 2.609375 -6.1875 2.265625 -6.1875 C 1.953125 -6.1875 1.765625 -5.96875 1.6875 -5.6875 L 0.359375 -0.859375 C 0.359375 -0.828125 0.328125 -0.703125 0.328125 -0.703125 C 0.328125 -0.578125 0.609375 -0.5 0.703125 -0.5 C 0.765625 -0.5 0.78125 -0.53125 0.84375 -0.671875 Z M 2.796875 -5.25 "/>
</g>
</g>
</defs>
<path fill-rule="nonzero" fill="rgb(0%, 67.83905%, 93.728638%)" fill-opacity="0.3" d="M 91.484375 22.480469 L 88.257812 39.179688 C 95.917969 40.660156 103.601562 36.738281 106.898438 29.667969 Z M 91.484375 22.480469 "/>
<path fill-rule="nonzero" fill="rgb(0%, 67.83905%, 93.728638%)" fill-opacity="0.3" d="M 35.976562 309.625 L 51.578125 316.390625 C 54.683594 309.234375 52.515625 300.878906 46.328125 296.132812 Z M 35.976562 309.625 "/>
<path fill="none" stroke-width="0.3985" stroke-linecap="butt" stroke-linejoin="miter" stroke="rgb(0%, 67.83905%, 93.728638%)" stroke-opacity="1" stroke-miterlimit="10" d="M -41.147458 116.523208 C -36.040688 115.536229 -30.918292 118.150812 -28.720375 122.864354 " transform="matrix(1.5, 0, 0, -1.5, 149.979, 213.9645)"/>
<path fill="none" stroke-width="0.3985" stroke-linecap="butt" stroke-linejoin="miter" stroke="rgb(0%, 67.83905%, 93.728638%)" stroke-opacity="1" stroke-miterlimit="10" d="M -65.600583 -68.284083 C -63.530271 -63.51325 -64.975583 -57.942938 -69.100583 -54.778875 " transform="matrix(1.5, 0, 0, -1.5, 149.979, 213.9645)"/>
<path fill-rule="nonzero" fill="rgb(100%, 50%, 0%)" fill-opacity="0.3" d="M 334.261719 135.691406 L 318.847656 128.503906 C 316.28125 134.011719 316.847656 140.46875 320.332031 145.445312 C 322.214844 148.140625 324.84375 150.230469 327.890625 151.460938 Z M 334.261719 135.691406 "/>
<path fill-rule="nonzero" fill="rgb(100%, 50%, 0%)" fill-opacity="0.3" d="M 263.980469 309.625 L 260.300781 293.019531 C 254.371094 294.335938 249.589844 298.71875 247.761719 304.511719 C 246.773438 307.644531 246.714844 311.003906 247.59375 314.167969 Z M 263.980469 309.625 "/>
<path fill="none" stroke-width="0.3985" stroke-linecap="butt" stroke-linejoin="miter" stroke="rgb(100%, 50%, 0%)" stroke-opacity="1" stroke-miterlimit="10" d="M 112.579104 56.973729 C 110.868167 53.301854 111.245771 48.997167 113.568687 45.679458 C 114.823896 43.882583 116.5765 42.489354 118.60775 41.669042 " transform="matrix(1.5, 0, 0, -1.5, 149.979, 213.9645)"/>
<path fill="none" stroke-width="0.3985" stroke-linecap="butt" stroke-linejoin="miter" stroke="rgb(100%, 50%, 0%)" stroke-opacity="1" stroke-miterlimit="10" d="M 73.547854 -52.703354 C 69.594729 -53.580958 66.407229 -56.502833 65.188479 -60.364813 C 64.529625 -62.453354 64.490562 -64.692938 65.0765 -66.802313 " transform="matrix(1.5, 0, 0, -1.5, 149.979, 213.9645)"/>
<path fill="none" stroke-width="0.79701" stroke-linecap="round" stroke-linejoin="round" stroke="rgb(0%, 0%, 0%)" stroke-opacity="1" stroke-miterlimit="10" d="M -38.996417 127.656021 L -76.001625 -63.773667 L 76.000979 -63.773667 L 122.855146 52.182062 Z M -38.996417 127.656021 " transform="matrix(1.5, 0, 0, -1.5, 149.979, 213.9645)"/>
<path fill="none" stroke-width="0.79701" stroke-linecap="butt" stroke-linejoin="miter" stroke="rgb(0%, 0%, 0%)" stroke-opacity="1" stroke-miterlimit="10" d="M 99.089521 -0.000229167 C 99.089521 54.726333 54.724937 99.088312 0.000979167 99.088312 C -54.725583 99.088312 -99.087563 54.726333 -99.087563 -0.000229167 C -99.087563 -54.726792 -54.725583 -99.088771 0.000979167 -99.088771 C 54.724937 -99.088771 99.089521 -54.726792 99.089521 -0.000229167 Z M 99.089521 -0.000229167 " transform="matrix(1.5, 0, 0, -1.5, 149.979, 213.9645)"/>
<path fill="none" stroke-width="0.79701" stroke-linecap="round" stroke-linejoin="miter" stroke="rgb(0%, 0%, 0%)" stroke-opacity="1" stroke-miterlimit="10" d="M 41.930667 89.919042 L 5.396812 -99.067938 " transform="matrix(1.5, 0, 0, -1.5, 149.979, 213.9645)"/>
<path fill="none" stroke-width="0.79701" stroke-linecap="round" stroke-linejoin="miter" stroke="rgb(0%, 0%, 0%)" stroke-opacity="1" stroke-miterlimit="10" d="M 41.930667 89.919042 L -32.306313 -93.807521 " transform="matrix(1.5, 0, 0, -1.5, 149.979, 213.9645)"/>
<path fill="none" stroke-width="0.79701" stroke-linecap="round" stroke-linejoin="miter" stroke="rgb(0%, 0%, 0%)" stroke-opacity="1" stroke-miterlimit="10" d="M -76.001625 -63.773667 L -32.306313 -93.807521 " transform="matrix(1.5, 0, 0, -1.5, 149.979, 213.9645)"/>
<path fill="none" stroke-width="0.79701" stroke-linecap="round" stroke-linejoin="miter" stroke="rgb(0%, 0%, 0%)" stroke-opacity="1" stroke-miterlimit="10" d="M 76.000979 -63.773667 L 5.396812 -99.067938 " transform="matrix(1.5, 0, 0, -1.5, 149.979, 213.9645)"/>
<path fill="none" stroke-width="0.79701" stroke-linecap="round" stroke-linejoin="miter" stroke="rgb(0%, 0%, 0%)" stroke-opacity="1" stroke-miterlimit="10" d="M 41.930667 89.919042 L 0.000979167 -63.773667 " transform="matrix(1.5, 0, 0, -1.5, 149.979, 213.9645)"/>
<path fill="none" stroke-width="0.79701" stroke-linecap="round" stroke-linejoin="miter" stroke="rgb(0%, 69.999695%, 0%)" stroke-opacity="1" stroke-dasharray="2.98883 1.99255" stroke-miterlimit="10" d="M 41.930667 89.919042 L -76.001625 -63.773667 " transform="matrix(1.5, 0, 0, -1.5, 149.979, 213.9645)"/>
<path fill="none" stroke-width="0.79701" stroke-linecap="round" stroke-linejoin="miter" stroke="rgb(0%, 69.999695%, 0%)" stroke-opacity="1" stroke-dasharray="2.98883 1.99255" stroke-miterlimit="10" d="M 41.930667 89.919042 L 76.000979 -63.773667 " transform="matrix(1.5, 0, 0, -1.5, 149.979, 213.9645)"/>
<path fill="none" stroke-width="0.79701" stroke-linecap="round" stroke-linejoin="miter" stroke="rgb(100%, 0%, 0%)" stroke-opacity="1" stroke-dasharray="2.98883 1.99255" stroke-miterlimit="10" d="M 76.000979 -63.773667 L -32.306313 -93.807521 " transform="matrix(1.5, 0, 0, -1.5, 149.979, 213.9645)"/>
<path fill="none" stroke-width="0.79701" stroke-linecap="round" stroke-linejoin="miter" stroke="rgb(100%, 0%, 0%)" stroke-opacity="1" stroke-dasharray="2.98883 1.99255" stroke-miterlimit="10" d="M -76.001625 -63.773667 L 5.396812 -99.067938 " transform="matrix(1.5, 0, 0, -1.5, 149.979, 213.9645)"/>
<path fill-rule="nonzero" fill="rgb(0%, 0%, 0%)" fill-opacity="1" stroke-width="0.3985" stroke-linecap="butt" stroke-linejoin="miter" stroke="rgb(0%, 0%, 0%)" stroke-opacity="1" stroke-miterlimit="10" d="M 42.925458 89.919042 C 42.925458 90.468521 42.480146 90.913833 41.930667 90.913833 C 41.378583 90.913833 40.933271 90.468521 40.933271 89.919042 C 40.933271 89.366958 41.378583 88.921646 41.930667 88.921646 C 42.480146 88.921646 42.925458 89.366958 42.925458 89.919042 Z M 42.925458 89.919042 " transform="matrix(1.5, 0, 0, -1.5, 149.979, 213.9645)"/>
<path fill-rule="nonzero" fill="rgb(0%, 0%, 0%)" fill-opacity="1" stroke-width="0.3985" stroke-linecap="butt" stroke-linejoin="miter" stroke="rgb(0%, 0%, 0%)" stroke-opacity="1" stroke-miterlimit="10" d="M -45.762042 87.504979 C -45.762042 88.054458 -46.207354 88.499771 -46.759438 88.499771 C -47.308917 88.499771 -47.754229 88.054458 -47.754229 87.504979 C -47.754229 86.9555 -47.308917 86.507583 -46.759438 86.507583 C -46.207354 86.507583 -45.762042 86.9555 -45.762042 87.504979 Z M -45.762042 87.504979 " transform="matrix(1.5, 0, 0, -1.5, 149.979, 213.9645)"/>
<path fill-rule="nonzero" fill="rgb(0%, 0%, 0%)" fill-opacity="1" stroke-width="0.3985" stroke-linecap="butt" stroke-linejoin="miter" stroke="rgb(0%, 0%, 0%)" stroke-opacity="1" stroke-miterlimit="10" d="M -75.006833 -63.773667 C -75.006833 -63.224188 -75.452146 -62.776271 -76.001625 -62.776271 C -76.551104 -62.776271 -76.999021 -63.224188 -76.999021 -63.773667 C -76.999021 -64.323146 -76.551104 -64.768458 -76.001625 -64.768458 C -75.452146 -64.768458 -75.006833 -64.323146 -75.006833 -63.773667 Z M -75.006833 -63.773667 " transform="matrix(1.5, 0, 0, -1.5, 149.979, 213.9645)"/>
<path fill-rule="nonzero" fill="rgb(0%, 0%, 0%)" fill-opacity="1" stroke-width="0.3985" stroke-linecap="butt" stroke-linejoin="miter" stroke="rgb(0%, 0%, 0%)" stroke-opacity="1" stroke-miterlimit="10" d="M 76.998375 -63.773667 C 76.998375 -63.224188 76.553062 -62.776271 76.000979 -62.776271 C 75.4515 -62.776271 75.006187 -63.224188 75.006187 -63.773667 C 75.006187 -64.323146 75.4515 -64.768458 76.000979 -64.768458 C 76.553062 -64.768458 76.998375 -64.323146 76.998375 -63.773667 Z M 76.998375 -63.773667 " transform="matrix(1.5, 0, 0, -1.5, 149.979, 213.9645)"/>
<path fill-rule="nonzero" fill="rgb(0%, 0%, 0%)" fill-opacity="1" stroke-width="0.3985" stroke-linecap="butt" stroke-linejoin="miter" stroke="rgb(0%, 0%, 0%)" stroke-opacity="1" stroke-miterlimit="10" d="M 99.967125 -6.927313 C 99.967125 -6.377833 99.521812 -5.932521 98.972333 -5.932521 C 98.42025 -5.932521 97.974937 -6.377833 97.974937 -6.927313 C 97.974937 -7.479396 98.42025 -7.924708 98.972333 -7.924708 C 99.521812 -7.924708 99.967125 -7.479396 99.967125 -6.927313 Z M 99.967125 -6.927313 " transform="matrix(1.5, 0, 0, -1.5, 149.979, 213.9645)"/>
<path fill-rule="nonzero" fill="rgb(0%, 0%, 0%)" fill-opacity="1" stroke-width="0.3985" stroke-linecap="butt" stroke-linejoin="miter" stroke="rgb(0%, 0%, 0%)" stroke-opacity="1" stroke-miterlimit="10" d="M 6.391604 -99.067938 C 6.391604 -98.515854 5.946292 -98.070542 5.396812 -98.070542 C 4.847333 -98.070542 4.399417 -98.515854 4.399417 -99.067938 C 4.399417 -99.617417 4.847333 -100.062729 5.396812 -100.062729 C 5.946292 -100.062729 6.391604 -99.617417 6.391604 -99.067938 Z M 6.391604 -99.067938 " transform="matrix(1.5, 0, 0, -1.5, 149.979, 213.9645)"/>
<path fill-rule="nonzero" fill="rgb(0%, 0%, 0%)" fill-opacity="1" stroke-width="0.3985" stroke-linecap="butt" stroke-linejoin="miter" stroke="rgb(0%, 0%, 0%)" stroke-opacity="1" stroke-miterlimit="10" d="M -31.311521 -93.807521 C -31.311521 -93.255438 -31.756833 -92.810125 -32.306313 -92.810125 C -32.858396 -92.810125 -33.303708 -93.255438 -33.303708 -93.807521 C -33.303708 -94.357 -32.858396 -94.802313 -32.306313 -94.802313 C -31.756833 -94.802313 -31.311521 -94.357 -31.311521 -93.807521 Z M -31.311521 -93.807521 " transform="matrix(1.5, 0, 0, -1.5, 149.979, 213.9645)"/>
<path fill-rule="nonzero" fill="rgb(0%, 0%, 0%)" fill-opacity="1" stroke-width="0.3985" stroke-linecap="butt" stroke-linejoin="miter" stroke="rgb(0%, 0%, 0%)" stroke-opacity="1" stroke-miterlimit="10" d="M 0.995771 -63.773667 C 0.995771 -63.224188 0.550458 -62.776271 0.000979167 -62.776271 C -0.551104 -62.776271 -0.996417 -63.224188 -0.996417 -63.773667 C -0.996417 -64.323146 -0.551104 -64.768458 0.000979167 -64.768458 C 0.550458 -64.768458 0.995771 -64.323146 0.995771 -63.773667 Z M 0.995771 -63.773667 " transform="matrix(1.5, 0, 0, -1.5, 149.979, 213.9645)"/>
<path fill-rule="nonzero" fill="rgb(0%, 0%, 0%)" fill-opacity="1" stroke-width="0.3985" stroke-linecap="butt" stroke-linejoin="miter" stroke="rgb(0%, 0%, 0%)" stroke-opacity="1" stroke-miterlimit="10" d="M -38.001625 127.656021 C -38.001625 128.2055 -38.446938 128.650812 -38.996417 128.650812 C -39.545896 128.650812 -39.993813 128.2055 -39.993813 127.656021 C -39.993813 127.103937 -39.545896 126.658625 -38.996417 126.658625 C -38.446938 126.658625 -38.001625 127.103937 -38.001625 127.656021 Z M -38.001625 127.656021 " transform="matrix(1.5, 0, 0, -1.5, 149.979, 213.9645)"/>
<path fill-rule="nonzero" fill="rgb(0%, 0%, 0%)" fill-opacity="1" stroke-width="0.3985" stroke-linecap="butt" stroke-linejoin="miter" stroke="rgb(0%, 0%, 0%)" stroke-opacity="1" stroke-miterlimit="10" d="M 123.852542 52.182062 C 123.852542 52.731542 123.407229 53.176854 122.855146 53.176854 C 122.305667 53.176854 121.860354 52.731542 121.860354 52.182062 C 121.860354 51.632583 122.305667 51.184667 122.855146 51.184667 C 123.407229 51.184667 123.852542 51.632583 123.852542 52.182062 Z M 123.852542 52.182062 " transform="matrix(1.5, 0, 0, -1.5, 149.979, 213.9645)"/>
<g fill="rgb(0%, 0%, 0%)" fill-opacity="1">
<use xlink:href="#glyph-0-0" x="152.8065" y="377.5395"/>
</g>
<g fill="rgb(0%, 0%, 0%)" fill-opacity="1">
<use xlink:href="#glyph-0-1" x="96.042" y="369.6495"/>
</g>
<g fill="rgb(0%, 0%, 0%)" fill-opacity="1">
<use xlink:href="#glyph-0-2" x="143.4555" y="324.6015"/>
</g>
<g fill="rgb(0%, 0%, 0%)" fill-opacity="1">
<use xlink:href="#glyph-0-3" x="339.54" y="141.429"/>
</g>
<g fill="rgb(0%, 0%, 0%)" fill-opacity="1">
<use xlink:href="#glyph-1-0" x="348.6705" y="136.005"/>
<use xlink:href="#glyph-1-0" x="351.711594" y="136.005"/>
</g>
<g fill="rgb(0%, 0%, 0%)" fill-opacity="1">
<use xlink:href="#glyph-0-4" x="303.714" y="229.2045"/>
</g>
<g fill="rgb(0%, 0%, 0%)" fill-opacity="1">
<use xlink:href="#glyph-0-3" x="73.2855" y="17.2035"/>
</g>
<g fill="rgb(0%, 0%, 0%)" fill-opacity="1">
<use xlink:href="#glyph-1-0" x="82.4175" y="11.7795"/>
</g>
<g fill="rgb(0%, 0%, 0%)" fill-opacity="1">
<use xlink:href="#glyph-0-5" x="65.433" y="77.4285"/>
</g>
<g fill="rgb(0%, 0%, 0%)" fill-opacity="1">
<use xlink:href="#glyph-0-3" x="218.1525" y="73.809"/>
</g>
<g fill="rgb(0%, 0%, 0%)" fill-opacity="1">
<use xlink:href="#glyph-0-6" x="19.908" y="324.945"/>
</g>
<g fill="rgb(0%, 0%, 0%)" fill-opacity="1">
<use xlink:href="#glyph-0-7" x="269.2605" y="324.945"/>
</g>
</svg>
