<svg xmlns="http://www.w3.org/2000/svg" xmlns:xlink="http://www.w3.org/1999/xlink" width="522.976" height="392.83" viewBox="0 0 392.232 294.623"><defs><path id="c" d="M13.047-9.75h-2.5L5.53-2.39l-.828-7.36H2v.234c.75.047 1.11.204 1.11.547 0 .125-.063.344-.157.625-.031.047-.062.219-.125.438-.015.047-.031.11-.047.172L1.187-2.187C.734-.625.517-.328-.266-.234V0h2.954v-.234c-.766-.063-1.063-.25-1.063-.657 0-.156.063-.546.14-.796l1.766-6.47L4.437 0h.25l5.641-8.375-1.937 7.016c-.235.797-.532 1.015-1.5 1.125V0h4.078v-.234C9.953-.328 9.813-.422 9.813-.875c0-.266.03-.453.171-.922l1.829-6.61c.265-.905.343-.968 1.234-1.109Zm0 0"/><path id="d" d="m10.578-9.89-.219-.063c-.265.36-.515.515-.906.515-.14 0-.328-.046-.656-.156-.75-.234-1.39-.36-2-.36-3.156 0-6.016 3-6.016 6.282 0 1.016.422 2.063 1.125 2.781.766.75 1.86 1.157 3.157 1.157 1.312 0 2.39-.282 3.546-.922l.72-2.797c.25-.828.483-1.016 1.452-1.078v-.235H6.812v.235c.172.015.375.047.438.047.484.046.734.203.734.468 0 .329-.093.75-.421 1.844C7.234-1.094 7.188-.969 7-.797c-.328.328-.89.516-1.562.516-1.922 0-3.016-1.11-3.016-3.063 0-1.844.734-3.734 1.906-4.984a3.6 3.6 0 0 1 2.594-1.11c.969 0 1.781.407 2.234 1.094.235.375.344.703.422 1.36l.266.03Zm0 0"/><path id="e" d="M9.64-9.75H2.204v.234c.969.094 1.14.188 1.14.61 0 .234-.062.594-.155.953l-1.844 6.61C1.078-.454.969-.36.125-.235V0h3.766v-.234C3.016-.281 2.75-.454 2.75-.891c0-.125.047-.343.14-.671l.922-3.344c.547.031.876.047 1.204.047.578 0 .687.015.828.078.218.125.328.312.328.61 0 .25-.031.421-.125.89l.25.062 1.14-3.484-.265-.078c-.672 1.343-.719 1.36-3.234 1.39l.984-3.484c.094-.297.312-.39.922-.39 2.5 0 3.047.203 3.047 1.124 0 .094 0 .157-.016.36-.016.093-.016.11-.031.281l.312.031Zm0 0"/><path id="f" d="M8.422-.234c-.844-.078-.938-.203-1.125-1.297L5.89-9.984H5.5L1.172-2.516C-.016-.516-.172-.359-.766-.234V0h2.797v-.234c-.765-.078-.875-.157-.875-.532 0-.28.032-.421.297-.921l.844-1.688h3.297l.297 1.953c.015.14.03.266.03.39 0 .563-.218.704-1.171.798V0h3.672ZM2.609-3.906l2.25-3.89.657 3.89Zm0 0"/><path id="g" d="M-.125 0h4.219c2.343 0 3.953-1.219 3.953-2.984 0-.563-.172-1.078-.5-1.407-.297-.343-.594-.53-1.375-.859 1.062-.25 1.484-.422 1.969-.844.422-.36.64-.86.64-1.468 0-1.422-1.062-2.188-2.984-2.188h-3.86v.234c.938.079 1.157.188 1.157.61 0 .234-.063.594-.172.953l-1.828 6.61C.828-.485.719-.392-.125-.235Zm3.688-4.937c.968 0 1.593.046 1.89.171.61.25.984.907.984 1.72 0 1.608-1.109 2.593-2.921 2.593-.625 0-.97-.219-.97-.625 0-.172.188-.89.532-2.094.188-.672.281-1.015.485-1.765m1.109-3.954c.094-.328.266-.421.86-.421 1.187 0 1.75.515 1.75 1.624 0 .844-.36 1.5-1 1.86-.516.297-1.235.406-2.579.406Zm0 0"/><path id="h" d="M9.469-9.75H2.047v.234c.922.094 1.156.204 1.156.61 0 .172-.094.687-.172.953l-1.844 6.61C.938-.5.829-.392-.016-.235V0h7.579l.921-2.422-.234-.125c-.703.969-1.094 1.36-1.734 1.656-.563.25-1.578.391-2.688.391-.844 0-1.203-.14-1.203-.5 0-.172.172-.86.547-2.187.187-.657.328-1.141.469-1.72.53.032.984.048 1.172.048.578-.016 1 .078 1.156.234.078.063.11.203.11.453 0 .266-.032.453-.11.781l.312.079 1.016-3.47-.281-.062c-.563 1.266-.703 1.36-2.063 1.422-.172 0-.656.016-1.172.031l.985-3.484c.093-.328.25-.39 1.093-.39 2.344 0 2.86.203 2.86 1.093 0 .188-.016.422-.031.672L9-7.469Zm0 0"/><path id="i" d="m9.734-6.953.563-2.969h-.313c-.125.25-.28.328-.578.328-.11 0-.297-.031-.61-.094-.671-.171-1.265-.265-1.75-.265-3.171 0-6.062 3-6.062 6.328 0 2.281 1.61 3.89 3.907 3.89 1.53 0 2.734-.656 4.078-2.218l-.266-.219C7.36-.844 6.5-.406 5.266-.406c-1.657 0-2.61-1.125-2.61-3.063 0-1.781.719-3.578 1.89-4.797.72-.734 1.657-1.14 2.641-1.14 1.375 0 2.141.797 2.282 2.422Zm0 0"/><path id="j" d="M1.938-9.516c.937.094 1.156.204 1.156.61 0 .234-.063.594-.172.953l-1.828 6.61C.828-.485.719-.392-.125-.235V0h3.781C5.406 0 7-.469 8.156-1.297 9.61-2.359 10.453-4 10.453-5.734c0-2.453-1.703-4.016-4.36-4.016H1.939Zm2.734.641c.094-.328.312-.437.922-.437.843 0 1.593.203 2.062.562.735.531 1.14 1.469 1.14 2.656 0 1.61-.624 3.282-1.64 4.297-.875.906-2.093 1.344-3.64 1.344-.688 0-.97-.156-.97-.547 0-.187.063-.531.329-1.422Zm0 0"/><clipPath id="a"><path d="M0 0h306v294.621H0Zm0 0"/></clipPath><clipPath id="b"><path d="M139 41h253.23v253.621H139Zm0 0"/></clipPath></defs><path fill="none" stroke="#000" stroke-miterlimit="10" stroke-width=".5985" d="m209.273 273.316 6.672-5.273-5.273-6.672-6.672 5.274 5.273 6.671"/><path fill="none" stroke="#000" stroke-linecap="round" stroke-linejoin="round" stroke-miterlimit="10" stroke-width="1.1955" d="M260.172 59.059 80.39 273.316h257.765Zm0 0"/><path fill="none" stroke="#000" stroke-linecap="round" stroke-miterlimit="10" stroke-width="1.1955" d="M209.273 273.316 260.172 59.06M209.273 273.316l100.094-79.101M209.273 273.316l-62.507-79.101"/><g clip-path="url(#a)"><path fill="none" stroke="#000" stroke-miterlimit="10" stroke-width="1.1955" d="M288.32 144.832c0-79.246-64.242-143.488-143.488-143.488S1.344 65.586 1.344 144.832c0 79.25 64.242 143.488 143.488 143.488S288.32 224.082 288.32 144.832Zm0 0"/></g><g clip-path="url(#b)"><path fill="none" stroke="#000" stroke-miterlimit="10" stroke-width="1.1955" d="M390.887 175.45c0-64.712-52.461-117.169-117.172-117.169S156.547 110.738 156.547 175.45c0 64.715 52.457 117.172 117.168 117.172 64.71 0 117.172-52.457 117.172-117.172Zm0 0"/></g><path fill="none" stroke="#000" stroke-dasharray="4.483245 2.9888250000000003" stroke-miterlimit="10" stroke-width="1.1955" d="M321.918 147.277c0-51.836-42.02-93.855-93.852-93.855-51.836 0-93.855 42.02-93.855 93.855s42.02 93.856 93.855 93.856c51.832 0 93.852-42.02 93.852-93.856Zm0 0"/><path stroke="#000" stroke-miterlimit="10" stroke-width=".5985" d="M261.668 59.059c0-.825-.668-1.493-1.496-1.493-.824 0-1.492.668-1.492 1.493a1.494 1.494 0 1 0 2.988 0ZM81.887 273.316c0-.824-.668-1.496-1.496-1.496a1.495 1.495 0 1 0 1.496 1.496ZM339.652 273.316c0-.824-.672-1.496-1.496-1.496s-1.496.672-1.496 1.496c0 .825.672 1.496 1.496 1.496s1.496-.671 1.496-1.496ZM256.437 237.227c0-.825-.671-1.497-1.496-1.497a1.495 1.495 0 1 0 1.496 1.497ZM165.102 215.527a1.495 1.495 0 0 0-2.989 0c0 .825.668 1.496 1.492 1.496.825 0 1.497-.671 1.497-1.496ZM310.86 194.215a1.495 1.495 0 1 0-1.492 1.496c.823 0 1.491-.668 1.491-1.496ZM148.258 194.215c0-.824-.668-1.492-1.492-1.492a1.494 1.494 0 1 0 1.492 1.492ZM210.77 273.316c0-.824-.672-1.496-1.497-1.496a1.495 1.495 0 1 0 1.497 1.496Zm0 0"/><use xlink:href="#c" x="202.752" y="288.294"/><use xlink:href="#d" x="130.696" y="199.112"/><use xlink:href="#e" x="314.646" y="199.066"/><use xlink:href="#f" x="265.454" y="53.782"/><use xlink:href="#g" x="65.984" y="288.294"/><use xlink:href="#h" x="148.106" y="230.506"/><use xlink:href="#i" x="342.687" y="288.637"/><use xlink:href="#j" x="260.221" y="252.204"/></svg>