<svg xmlns="http://www.w3.org/2000/svg" xmlns:xlink="http://www.w3.org/1999/xlink" width="955.188" height="632.806" viewBox="0 0 716.391 474.604"><defs><path id="c" d="M-.125 0h4.219c2.343 0 3.953-1.219 3.953-2.984 0-.563-.172-1.078-.5-1.407-.297-.343-.594-.53-1.375-.859 1.062-.25 1.484-.422 1.969-.844.422-.36.64-.86.64-1.468 0-1.422-1.062-2.188-2.984-2.188h-3.86v.234c.938.079 1.157.188 1.157.61 0 .234-.063.594-.172.953l-1.828 6.61C.828-.485.719-.392-.125-.235Zm3.688-4.937c.968 0 1.593.046 1.89.171.61.25.984.907.984 1.72 0 1.608-1.109 2.593-2.921 2.593-.625 0-.97-.219-.97-.625 0-.172.188-.89.532-2.094.188-.672.281-1.015.485-1.765m1.109-3.954c.094-.328.266-.421.86-.421 1.187 0 1.75.515 1.75 1.624 0 .844-.36 1.5-1 1.86-.516.297-1.235.406-2.579.406Zm0 0"/><path id="d" d="M13.047-9.75h-2.5L5.53-2.39l-.828-7.36H2v.234c.75.047 1.11.204 1.11.547 0 .125-.063.344-.157.625-.031.047-.062.219-.125.438-.015.047-.031.11-.047.172L1.187-2.187C.734-.625.517-.328-.266-.234V0h2.954v-.234c-.766-.063-1.063-.25-1.063-.657 0-.156.063-.546.14-.796l1.766-6.47L4.437 0h.25l5.641-8.375-1.937 7.016c-.235.797-.532 1.015-1.5 1.125V0h4.078v-.234C9.953-.328 9.813-.422 9.813-.875c0-.266.03-.453.171-.922l1.829-6.61c.265-.905.343-.968 1.234-1.109Zm0 0"/><path id="e" d="M1.938-9.516c.937.094 1.156.204 1.156.61 0 .234-.063.594-.172.953l-1.828 6.61C.828-.485.719-.392-.125-.235V0h3.781C5.406 0 7-.469 8.156-1.297 9.61-2.359 10.453-4 10.453-5.734c0-2.453-1.703-4.016-4.36-4.016H1.939Zm2.734.641c.094-.328.312-.437.922-.437.843 0 1.593.203 2.062.562.735.531 1.14 1.469 1.14 2.656 0 1.61-.624 3.282-1.64 4.297-.875.906-2.093 1.344-3.64 1.344-.688 0-.97-.156-.97-.547 0-.187.063-.531.329-1.422Zm0 0"/><path id="g" d="M9.469-9.75H2.047v.234c.922.094 1.156.204 1.156.61 0 .172-.094.687-.172.953l-1.844 6.61C.938-.5.829-.392-.016-.235V0h7.579l.921-2.422-.234-.125c-.703.969-1.094 1.36-1.734 1.656-.563.25-1.578.391-2.688.391-.844 0-1.203-.14-1.203-.5 0-.172.172-.86.547-2.187.187-.657.328-1.141.469-1.72.53.032.984.048 1.172.048.578-.016 1 .078 1.156.234.078.063.11.203.11.453 0 .266-.032.453-.11.781l.312.079 1.016-3.47-.281-.062c-.563 1.266-.703 1.36-2.063 1.422-.172 0-.656.016-1.172.031l.985-3.484c.093-.328.25-.39 1.093-.39 2.344 0 2.86.203 2.86 1.093 0 .188-.016.422-.031.672L9-7.469Zm0 0"/><path id="h" d="m10.578-9.89-.219-.063c-.265.36-.515.515-.906.515-.14 0-.328-.046-.656-.156-.75-.234-1.39-.36-2-.36-3.156 0-6.016 3-6.016 6.282 0 1.016.422 2.063 1.125 2.781.766.75 1.86 1.157 3.157 1.157 1.312 0 2.39-.282 3.546-.922l.72-2.797c.25-.828.483-1.016 1.452-1.078v-.235H6.812v.235c.172.015.375.047.438.047.484.046.734.203.734.468 0 .329-.093.75-.421 1.844C7.234-1.094 7.188-.969 7-.797c-.328.328-.89.516-1.562.516-1.922 0-3.016-1.11-3.016-3.063 0-1.844.734-3.734 1.906-4.984a3.6 3.6 0 0 1 2.594-1.11c.969 0 1.781.407 2.234 1.094.235.375.344.703.422 1.36l.266.03Zm0 0"/><path id="i" d="M9.64-9.75H2.204v.234c.969.094 1.14.188 1.14.61 0 .234-.062.594-.155.953l-1.844 6.61C1.078-.454.969-.36.125-.235V0h3.766v-.234C3.016-.281 2.75-.454 2.75-.891c0-.125.047-.343.14-.671l.922-3.344c.547.031.876.047 1.204.047.578 0 .687.015.828.078.218.125.328.312.328.61 0 .25-.031.421-.125.89l.25.062 1.14-3.484-.265-.078c-.672 1.343-.719 1.36-3.234 1.39l.984-3.484c.094-.297.312-.39.922-.39 2.5 0 3.047.203 3.047 1.124 0 .094 0 .157-.016.36-.016.093-.016.11-.031.281l.312.031Zm0 0"/><path id="j" d="M9.781-9.75h-3.11v.234c.735.094.923.188.923.532 0 .203-.094.375-.297.625L5.125-5.875 4.25-8.062c-.172-.391-.234-.641-.234-.844 0-.375.234-.5 1.062-.61v-.234H1.141v.234c.859.079 1.078.22 1.375.907l1.578 3.937c-.547.625-1.047 1.203-1.235 1.453C.781-.78.36-.406-.437-.234V0h3.203v-.234c-.72 0-.97-.141-.97-.516 0-.219.11-.469.313-.703l2.25-2.563 1 2.47c.11.265.172.5.172.718 0 .437-.156.516-1.14.594V0h4.078v-.234c-1.047-.125-1.172-.22-1.547-1.11L5.39-5.204l2.53-2.89c.766-.875 1.22-1.219 1.86-1.422Zm0 0"/><path id="k" d="M8.422-.234c-.844-.078-.938-.203-1.125-1.297L5.89-9.984H5.5L1.172-2.516C-.016-.516-.172-.359-.766-.234V0h2.797v-.234c-.765-.078-.875-.157-.875-.532 0-.28.032-.421.297-.921l.844-1.688h3.297l.297 1.953c.015.14.03.266.03.39 0 .563-.218.704-1.171.798V0h3.672ZM2.609-3.906l2.25-3.89.657 3.89Zm0 0"/><path id="l" d="m9.734-6.953.563-2.969h-.313c-.125.25-.28.328-.578.328-.11 0-.297-.031-.61-.094-.671-.171-1.265-.265-1.75-.265-3.171 0-6.062 3-6.062 6.328 0 2.281 1.61 3.89 3.907 3.89 1.53 0 2.734-.656 4.078-2.218l-.266-.219C7.36-.844 6.5-.406 5.266-.406c-1.657 0-2.61-1.125-2.61-3.063 0-1.781.719-3.578 1.89-4.797.72-.734 1.657-1.14 2.641-1.14 1.375 0 2.141.797 2.282 2.422Zm0 0"/><path id="f" d="M2.797-5.25c.062-.14.094-.234.094-.344 0-.328-.282-.593-.625-.593-.313 0-.5.218-.578.5L.359-.86c0 .03-.03.156-.03.156 0 .125.28.203.374.203.063 0 .078-.031.14-.172Zm0 0"/><clipPath id="a"><path d="M0 0h486v474.605H0Zm0 0"/></clipPath><clipPath id="b"><path d="M329 67h387.39v404H329Zm0 0"/></clipPath></defs><path fill="none" stroke="#000" stroke-miterlimit="10" stroke-width=".5985" d="m382.688 326.477 6.671-5.274-5.27-6.672-6.671 5.274 5.27 6.672"/><path fill="none" stroke="#000" stroke-linecap="round" stroke-linejoin="round" stroke-miterlimit="10" stroke-width="1.1955" d="M433.59 112.219 253.809 326.477H511.57Zm0 0"/><path fill="none" stroke="#000" stroke-linecap="round" stroke-miterlimit="10" stroke-width="1.1955" d="m382.688 326.477 50.902-214.258M382.688 326.477l100.093-79.102M382.688 326.477l-62.508-79.102"/><path fill="none" stroke="#000" stroke-miterlimit="10" stroke-width="1.1955" d="M461.734 197.992c0-79.246-64.238-143.488-143.488-143.488-79.246 0-143.488 64.242-143.488 143.488 0 79.25 64.242 143.488 143.488 143.488 79.25 0 143.488-64.238 143.488-143.488Zm0 0"/><path fill="none" stroke="#000" stroke-miterlimit="10" stroke-width="1.1955" d="M564.3 228.61c0-64.712-52.456-117.169-117.171-117.169-64.711 0-117.168 52.457-117.168 117.168 0 64.715 52.457 117.172 117.168 117.172 64.715 0 117.172-52.457 117.172-117.172Zm0 0"/><path fill="none" stroke="#000" stroke-dasharray="4.483245 2.9888250000000003" stroke-miterlimit="10" stroke-width="1.1955" d="M495.336 200.438c0-51.836-42.02-93.856-93.856-93.856s-93.855 42.02-93.855 93.856 42.02 93.855 93.855 93.855 93.856-42.02 93.856-93.855Zm0 0"/><path fill="none" stroke="#00adef" stroke-miterlimit="10" stroke-width="1.1955" d="M531.375 252.066c0-82.117-66.566-148.687-148.687-148.687-82.118 0-148.684 66.57-148.684 148.687s66.566 148.688 148.684 148.688c82.12 0 148.687-66.57 148.687-148.688Zm0 0"/><g clip-path="url(#a)"><path fill="none" stroke="#ff7f00" stroke-miterlimit="10" stroke-width="1.1955" d="M468.387 234.867c0-128.972-104.547-233.523-233.52-233.523-128.972 0-233.523 104.55-233.523 233.523s104.55 233.524 233.523 233.524 233.52-104.551 233.52-233.524Zm0 0"/></g><g clip-path="url(#b)"><path fill="none" stroke="#ff7f00" stroke-miterlimit="10" stroke-width="1.1955" d="M715.047 269.266c0-101.918-82.617-184.536-184.535-184.536-101.914 0-184.535 82.618-184.535 184.536 0 101.914 82.62 184.53 184.535 184.53 101.918 0 184.535-82.616 184.535-184.53Zm0 0"/></g><path fill="none" stroke="#00b200" stroke-linecap="round" stroke-miterlimit="10" stroke-width="1.1955" d="M253.809 326.477 148.589 451.87M148.59 451.871h408.62M557.21 451.871l-45.64-125.394M253.809 326.477 503.816 451.87M511.57 326.477 321.14 451.87"/><path fill="none" stroke="red" stroke-dasharray="4.483245 2.9888250000000003" stroke-linecap="round" stroke-miterlimit="10" stroke-width="1.1955" d="M433.59 112.219 394.074 451.87"/><path fill="none" stroke="#ec008c" stroke-dasharray="4.483245 2.9888250000000003" stroke-linecap="round" stroke-miterlimit="10" stroke-width="1.1955" d="m433.59 112.219-5.235 178.168M433.59 112.219l-96.57 156.469M482.781 247.375H320.18"/><path stroke="#000" stroke-miterlimit="10" stroke-width=".5985" d="M435.082 112.219c0-.824-.668-1.492-1.492-1.492a1.494 1.494 0 1 0 1.492 1.492ZM255.3 326.477a1.495 1.495 0 1 0-2.99-.002 1.495 1.495 0 0 0 2.99.002ZM513.066 326.477c0-.825-.668-1.497-1.496-1.497a1.495 1.495 0 1 0 1.496 1.497ZM429.852 290.387a1.495 1.495 0 1 0-2.986-.001 1.495 1.495 0 0 0 2.986 0ZM338.516 268.688c0-.825-.668-1.497-1.496-1.497a1.495 1.495 0 1 0 1.496 1.497ZM484.277 247.375a1.495 1.495 0 0 0-2.988 0c0 .828.668 1.496 1.492 1.496s1.496-.668 1.496-1.496ZM321.672 247.375c0-.824-.668-1.492-1.492-1.492a1.495 1.495 0 1 0 0 2.988c.824 0 1.492-.668 1.492-1.496ZM384.184 326.477a1.495 1.495 0 1 0-2.986-.001 1.495 1.495 0 0 0 2.986 0Zm0 0"/><path fill="#00b200" stroke="#004c00" stroke-miterlimit="10" stroke-width=".5985" d="M322.637 451.871a1.493 1.493 0 1 0-2.988 0c0 .824.667 1.492 1.492 1.492.824 0 1.496-.668 1.496-1.492ZM505.309 451.871a1.494 1.494 0 1 0-2.99-.005 1.494 1.494 0 0 0 2.99.005ZM150.086 451.871a1.496 1.496 0 0 0-2.992 0 1.495 1.495 0 0 0 2.992 0ZM558.707 451.871a1.496 1.496 0 0 0-2.992 0 1.495 1.495 0 0 0 2.992 0ZM401.617 399.863a1.494 1.494 0 1 0-2.99-.005 1.494 1.494 0 0 0 2.99.005Zm0 0"/><path fill="#b20000" stroke="#4c0000" stroke-miterlimit="10" stroke-width=".5985" d="M395.566 451.871a1.494 1.494 0 1 0-2.99-.005 1.494 1.494 0 0 0 2.99.005ZM402.977 247.375a1.495 1.495 0 1 0-2.991.006 1.495 1.495 0 0 0 2.99-.006Zm0 0"/><use xlink:href="#c" x="249.243" y="341.454"/><use xlink:href="#d" x="376.167" y="341.454"/><use xlink:href="#e" x="313.854" y="468.62"/><use xlink:href="#f" x="324.644" y="463.195"/><use xlink:href="#g" x="496.809" y="468.62"/><use xlink:href="#f" x="507.03" y="463.195"/><use xlink:href="#h" x="304.111" y="252.27"/><use xlink:href="#d" x="378.009" y="405.597"/><use xlink:href="#f" x="391.055" y="400.173"/><use xlink:href="#i" x="488.061" y="252.226"/><use xlink:href="#j" x="385.665" y="242.097"/><use xlink:href="#k" x="438.868" y="106.942"/><use xlink:href="#g" x="321.521" y="283.665"/><use xlink:href="#i" x="129.139" y="468.62"/><use xlink:href="#f" x="139.525" y="463.195"/><use xlink:href="#l" x="516.102" y="341.798"/><use xlink:href="#e" x="433.637" y="305.364"/><use xlink:href="#h" x="562.488" y="468.62"/><use xlink:href="#f" x="573.278" y="463.195"/></svg>