<?xml version="1.0" encoding="UTF-8"?>
<svg xmlns="http://www.w3.org/2000/svg" xmlns:xlink="http://www.w3.org/1999/xlink" width="392.232pt" height="294.6225pt" viewBox="0 0 392.232 294.6225">
<defs>
<g>
<g id="glyph-0-0">
<path d="M 13.046875 -9.75 L 10.546875 -9.75 L 5.53125 -2.390625 L 4.703125 -9.75 L 2 -9.75 L 2 -9.515625 C 2.75 -9.46875 3.109375 -9.3125 3.109375 -8.96875 C 3.109375 -8.84375 3.046875 -8.625 2.953125 -8.34375 C 2.921875 -8.296875 2.890625 -8.125 2.828125 -7.90625 C 2.8125 -7.859375 2.796875 -7.796875 2.78125 -7.734375 L 1.1875 -2.1875 C 0.734375 -0.625 0.515625 -0.328125 -0.265625 -0.234375 L -0.265625 0 L 2.6875 0 L 2.6875 -0.234375 C 1.921875 -0.296875 1.625 -0.484375 1.625 -0.890625 C 1.625 -1.046875 1.6875 -1.4375 1.765625 -1.6875 L 3.53125 -8.15625 L 4.4375 0 L 4.6875 0 L 10.328125 -8.375 L 8.390625 -1.359375 C 8.15625 -0.5625 7.859375 -0.34375 6.890625 -0.234375 L 6.890625 0 L 10.96875 0 L 10.96875 -0.234375 C 9.953125 -0.328125 9.8125 -0.421875 9.8125 -0.875 C 9.8125 -1.140625 9.84375 -1.328125 9.984375 -1.796875 L 11.8125 -8.40625 C 12.078125 -9.3125 12.15625 -9.375 13.046875 -9.515625 Z M 13.046875 -9.75 "/>
</g>
<g id="glyph-0-1">
<path d="M 10.578125 -9.890625 L 10.359375 -9.953125 C 10.09375 -9.59375 9.84375 -9.4375 9.453125 -9.4375 C 9.3125 -9.4375 9.125 -9.484375 8.796875 -9.59375 C 8.046875 -9.828125 7.40625 -9.953125 6.796875 -9.953125 C 3.640625 -9.953125 0.78125 -6.953125 0.78125 -3.671875 C 0.78125 -2.65625 1.203125 -1.609375 1.90625 -0.890625 C 2.671875 -0.140625 3.765625 0.265625 5.0625 0.265625 C 6.375 0.265625 7.453125 -0.015625 8.609375 -0.65625 L 9.328125 -3.453125 C 9.578125 -4.28125 9.8125 -4.46875 10.78125 -4.53125 L 10.78125 -4.765625 L 6.8125 -4.765625 L 6.8125 -4.53125 C 6.984375 -4.515625 7.1875 -4.484375 7.25 -4.484375 C 7.734375 -4.4375 7.984375 -4.28125 7.984375 -4.015625 C 7.984375 -3.6875 7.890625 -3.265625 7.5625 -2.171875 C 7.234375 -1.09375 7.1875 -0.96875 7 -0.796875 C 6.671875 -0.46875 6.109375 -0.28125 5.4375 -0.28125 C 3.515625 -0.28125 2.421875 -1.390625 2.421875 -3.34375 C 2.421875 -5.1875 3.15625 -7.078125 4.328125 -8.328125 C 5 -9.03125 5.9375 -9.4375 6.921875 -9.4375 C 7.890625 -9.4375 8.703125 -9.03125 9.15625 -8.34375 C 9.390625 -7.96875 9.5 -7.640625 9.578125 -6.984375 L 9.84375 -6.953125 Z M 10.578125 -9.890625 "/>
</g>
<g id="glyph-0-2">
<path d="M 9.640625 -9.75 L 2.203125 -9.75 L 2.203125 -9.515625 C 3.171875 -9.421875 3.34375 -9.328125 3.34375 -8.90625 C 3.34375 -8.671875 3.28125 -8.3125 3.1875 -7.953125 L 1.34375 -1.34375 C 1.078125 -0.453125 0.96875 -0.359375 0.125 -0.234375 L 0.125 0 L 3.890625 0 L 3.890625 -0.234375 C 3.015625 -0.28125 2.75 -0.453125 2.75 -0.890625 C 2.75 -1.015625 2.796875 -1.234375 2.890625 -1.5625 L 3.8125 -4.90625 C 4.359375 -4.875 4.6875 -4.859375 5.015625 -4.859375 C 5.59375 -4.859375 5.703125 -4.84375 5.84375 -4.78125 C 6.0625 -4.65625 6.171875 -4.46875 6.171875 -4.171875 C 6.171875 -3.921875 6.140625 -3.75 6.046875 -3.28125 L 6.296875 -3.21875 L 7.4375 -6.703125 L 7.171875 -6.78125 C 6.5 -5.4375 6.453125 -5.421875 3.9375 -5.390625 L 4.921875 -8.875 C 5.015625 -9.171875 5.234375 -9.265625 5.84375 -9.265625 C 8.34375 -9.265625 8.890625 -9.0625 8.890625 -8.140625 C 8.890625 -8.046875 8.890625 -7.984375 8.875 -7.78125 C 8.859375 -7.6875 8.859375 -7.671875 8.84375 -7.5 L 9.15625 -7.46875 Z M 9.640625 -9.75 "/>
</g>
<g id="glyph-0-3">
<path d="M 8.421875 -0.234375 C 7.578125 -0.3125 7.484375 -0.4375 7.296875 -1.53125 L 5.890625 -9.984375 L 5.5 -9.984375 L 1.171875 -2.515625 C -0.015625 -0.515625 -0.171875 -0.359375 -0.765625 -0.234375 L -0.765625 0 L 2.03125 0 L 2.03125 -0.234375 C 1.265625 -0.3125 1.15625 -0.390625 1.15625 -0.765625 C 1.15625 -1.046875 1.1875 -1.1875 1.453125 -1.6875 L 2.296875 -3.375 L 5.59375 -3.375 L 5.890625 -1.421875 C 5.90625 -1.28125 5.921875 -1.15625 5.921875 -1.03125 C 5.921875 -0.46875 5.703125 -0.328125 4.75 -0.234375 L 4.75 0 L 8.421875 0 Z M 2.609375 -3.90625 L 4.859375 -7.796875 L 5.515625 -3.90625 Z M 2.609375 -3.90625 "/>
</g>
<g id="glyph-0-4">
<path d="M -0.125 0 L 4.09375 0 C 6.4375 0 8.046875 -1.21875 8.046875 -2.984375 C 8.046875 -3.546875 7.875 -4.0625 7.546875 -4.390625 C 7.25 -4.734375 6.953125 -4.921875 6.171875 -5.25 C 7.234375 -5.5 7.65625 -5.671875 8.140625 -6.09375 C 8.5625 -6.453125 8.78125 -6.953125 8.78125 -7.5625 C 8.78125 -8.984375 7.71875 -9.75 5.796875 -9.75 L 1.9375 -9.75 L 1.9375 -9.515625 C 2.875 -9.4375 3.09375 -9.328125 3.09375 -8.90625 C 3.09375 -8.671875 3.03125 -8.3125 2.921875 -7.953125 L 1.09375 -1.34375 C 0.828125 -0.484375 0.71875 -0.390625 -0.125 -0.234375 Z M 3.5625 -4.9375 C 4.53125 -4.9375 5.15625 -4.890625 5.453125 -4.765625 C 6.0625 -4.515625 6.4375 -3.859375 6.4375 -3.046875 C 6.4375 -1.4375 5.328125 -0.453125 3.515625 -0.453125 C 2.890625 -0.453125 2.546875 -0.671875 2.546875 -1.078125 C 2.546875 -1.25 2.734375 -1.96875 3.078125 -3.171875 C 3.265625 -3.84375 3.359375 -4.1875 3.5625 -4.9375 Z M 4.671875 -8.890625 C 4.765625 -9.21875 4.9375 -9.3125 5.53125 -9.3125 C 6.71875 -9.3125 7.28125 -8.796875 7.28125 -7.6875 C 7.28125 -6.84375 6.921875 -6.1875 6.28125 -5.828125 C 5.765625 -5.53125 5.046875 -5.421875 3.703125 -5.421875 Z M 4.671875 -8.890625 "/>
</g>
<g id="glyph-0-5">
<path d="M 9.46875 -9.75 L 2.046875 -9.75 L 2.046875 -9.515625 C 2.96875 -9.421875 3.203125 -9.3125 3.203125 -8.90625 C 3.203125 -8.734375 3.109375 -8.21875 3.03125 -7.953125 L 1.1875 -1.34375 C 0.9375 -0.5 0.828125 -0.390625 -0.015625 -0.234375 L -0.015625 0 L 7.5625 0 L 8.484375 -2.421875 L 8.25 -2.546875 C 7.546875 -1.578125 7.15625 -1.1875 6.515625 -0.890625 C 5.953125 -0.640625 4.9375 -0.5 3.828125 -0.5 C 2.984375 -0.5 2.625 -0.640625 2.625 -1 C 2.625 -1.171875 2.796875 -1.859375 3.171875 -3.1875 C 3.359375 -3.84375 3.5 -4.328125 3.640625 -4.90625 C 4.171875 -4.875 4.625 -4.859375 4.8125 -4.859375 C 5.390625 -4.875 5.8125 -4.78125 5.96875 -4.625 C 6.046875 -4.5625 6.078125 -4.421875 6.078125 -4.171875 C 6.078125 -3.90625 6.046875 -3.71875 5.96875 -3.390625 L 6.28125 -3.3125 L 7.296875 -6.78125 L 7.015625 -6.84375 C 6.453125 -5.578125 6.3125 -5.484375 4.953125 -5.421875 C 4.78125 -5.421875 4.296875 -5.40625 3.78125 -5.390625 L 4.765625 -8.875 C 4.859375 -9.203125 5.015625 -9.265625 5.859375 -9.265625 C 8.203125 -9.265625 8.71875 -9.0625 8.71875 -8.171875 C 8.71875 -7.984375 8.703125 -7.75 8.6875 -7.5 L 9 -7.46875 Z M 9.46875 -9.75 "/>
</g>
<g id="glyph-0-6">
<path d="M 9.734375 -6.953125 L 10.296875 -9.921875 L 9.984375 -9.921875 C 9.859375 -9.671875 9.703125 -9.59375 9.40625 -9.59375 C 9.296875 -9.59375 9.109375 -9.625 8.796875 -9.6875 C 8.125 -9.859375 7.53125 -9.953125 7.046875 -9.953125 C 3.875 -9.953125 0.984375 -6.953125 0.984375 -3.625 C 0.984375 -1.34375 2.59375 0.265625 4.890625 0.265625 C 6.421875 0.265625 7.625 -0.390625 8.96875 -1.953125 L 8.703125 -2.171875 C 7.359375 -0.84375 6.5 -0.40625 5.265625 -0.40625 C 3.609375 -0.40625 2.65625 -1.53125 2.65625 -3.46875 C 2.65625 -5.25 3.375 -7.046875 4.546875 -8.265625 C 5.265625 -9 6.203125 -9.40625 7.1875 -9.40625 C 8.5625 -9.40625 9.328125 -8.609375 9.46875 -6.984375 Z M 9.734375 -6.953125 "/>
</g>
<g id="glyph-0-7">
<path d="M 1.9375 -9.515625 C 2.875 -9.421875 3.09375 -9.3125 3.09375 -8.90625 C 3.09375 -8.671875 3.03125 -8.3125 2.921875 -7.953125 L 1.09375 -1.34375 C 0.828125 -0.484375 0.71875 -0.390625 -0.125 -0.234375 L -0.125 0 L 3.65625 0 C 5.40625 0 7 -0.46875 8.15625 -1.296875 C 9.609375 -2.359375 10.453125 -4 10.453125 -5.734375 C 10.453125 -8.1875 8.75 -9.75 6.09375 -9.75 L 1.9375 -9.75 Z M 4.671875 -8.875 C 4.765625 -9.203125 4.984375 -9.3125 5.59375 -9.3125 C 6.4375 -9.3125 7.1875 -9.109375 7.65625 -8.75 C 8.390625 -8.21875 8.796875 -7.28125 8.796875 -6.09375 C 8.796875 -4.484375 8.171875 -2.8125 7.15625 -1.796875 C 6.28125 -0.890625 5.0625 -0.453125 3.515625 -0.453125 C 2.828125 -0.453125 2.546875 -0.609375 2.546875 -1 C 2.546875 -1.1875 2.609375 -1.53125 2.875 -2.421875 Z M 4.671875 -8.875 "/>
</g>
</g>
<clipPath id="clip-0">
<path clip-rule="nonzero" d="M 0 0 L 306 0 L 306 294.621094 L 0 294.621094 Z M 0 0 "/>
</clipPath>
<clipPath id="clip-1">
<path clip-rule="nonzero" d="M 139 41 L 392.230469 41 L 392.230469 294.621094 L 139 294.621094 Z M 139 41 "/>
</clipPath>
</defs>
<path fill="none" stroke-width="0.3985" stroke-linecap="butt" stroke-linejoin="miter" stroke="rgb(0%, 0%, 0%)" stroke-opacity="1" stroke-miterlimit="10" d="M -0.000375 -49.606938 L 4.447542 -46.091313 L 0.931917 -41.643396 L -3.516 -45.159021 L -0.000375 -49.606938 " transform="matrix(1.5, 0, 0, -1.5, 209.274, 198.906)"/>
<path fill="none" stroke-width="0.79701" stroke-linecap="round" stroke-linejoin="round" stroke="rgb(0%, 0%, 0%)" stroke-opacity="1" stroke-miterlimit="10" d="M 33.931917 93.231604 L -85.92225 -49.606938 L 85.9215 -49.606938 Z M 33.931917 93.231604 " transform="matrix(1.5, 0, 0, -1.5, 209.274, 198.906)"/>
<path fill="none" stroke-width="0.79701" stroke-linecap="round" stroke-linejoin="miter" stroke="rgb(0%, 0%, 0%)" stroke-opacity="1" stroke-miterlimit="10" d="M -0.000375 -49.606938 L 33.931917 93.231604 " transform="matrix(1.5, 0, 0, -1.5, 209.274, 198.906)"/>
<path fill="none" stroke-width="0.79701" stroke-linecap="round" stroke-linejoin="miter" stroke="rgb(0%, 0%, 0%)" stroke-opacity="1" stroke-miterlimit="10" d="M -0.000375 -49.606938 L 66.728792 3.127437 " transform="matrix(1.5, 0, 0, -1.5, 209.274, 198.906)"/>
<path fill="none" stroke-width="0.79701" stroke-linecap="round" stroke-linejoin="miter" stroke="rgb(0%, 0%, 0%)" stroke-opacity="1" stroke-miterlimit="10" d="M -0.000375 -49.606938 L -41.67225 3.127437 " transform="matrix(1.5, 0, 0, -1.5, 209.274, 198.906)"/>
<g clip-path="url(#clip-0)">
<path fill="none" stroke-width="0.79701" stroke-linecap="butt" stroke-linejoin="miter" stroke="rgb(0%, 0%, 0%)" stroke-opacity="1" stroke-miterlimit="10" d="M 52.697542 36.049312 C 52.697542 88.880042 9.869417 131.708167 -42.961312 131.708167 C -95.792042 131.708167 -138.620167 88.880042 -138.620167 36.049312 C -138.620167 -16.784021 -95.792042 -59.609542 -42.961312 -59.609542 C 9.869417 -59.609542 52.697542 -16.784021 52.697542 36.049312 Z M 52.697542 36.049312 " transform="matrix(1.5, 0, 0, -1.5, 209.274, 198.906)"/>
</g>
<g clip-path="url(#clip-1)">
<path fill="none" stroke-width="0.79701" stroke-linecap="butt" stroke-linejoin="miter" stroke="rgb(0%, 0%, 0%)" stroke-opacity="1" stroke-miterlimit="10" d="M 121.075146 15.637854 C 121.075146 58.778479 86.101188 93.749833 42.960563 93.749833 C -0.180062 93.749833 -35.151417 58.778479 -35.151417 15.637854 C -35.151417 -27.505375 -0.180062 -62.476729 42.960563 -62.476729 C 86.101188 -62.476729 121.075146 -27.505375 121.075146 15.637854 Z M 121.075146 15.637854 " transform="matrix(1.5, 0, 0, -1.5, 209.274, 198.906)"/>
</g>
<path fill="none" stroke-width="0.79701" stroke-linecap="butt" stroke-linejoin="miter" stroke="rgb(0%, 0%, 0%)" stroke-opacity="1" stroke-dasharray="2.98883 1.99255" stroke-miterlimit="10" d="M 75.095979 34.419104 C 75.095979 68.976396 47.082958 96.989417 12.528271 96.989417 C -22.029021 96.989417 -50.042042 68.976396 -50.042042 34.419104 C -50.042042 -0.138188 -22.029021 -28.151208 12.528271 -28.151208 C 47.082958 -28.151208 75.095979 -0.138188 75.095979 34.419104 Z M 75.095979 34.419104 " transform="matrix(1.5, 0, 0, -1.5, 209.274, 198.906)"/>
<path fill-rule="nonzero" fill="rgb(0%, 0%, 0%)" fill-opacity="1" stroke-width="0.3985" stroke-linecap="butt" stroke-linejoin="miter" stroke="rgb(0%, 0%, 0%)" stroke-opacity="1" stroke-miterlimit="10" d="M 34.929313 93.231604 C 34.929313 93.781083 34.484 94.226396 33.931917 94.226396 C 33.382438 94.226396 32.937125 93.781083 32.937125 93.231604 C 32.937125 92.679521 33.382438 92.234208 33.931917 92.234208 C 34.484 92.234208 34.929313 92.679521 34.929313 93.231604 Z M 34.929313 93.231604 " transform="matrix(1.5, 0, 0, -1.5, 209.274, 198.906)"/>
<path fill-rule="nonzero" fill="rgb(0%, 0%, 0%)" fill-opacity="1" stroke-width="0.3985" stroke-linecap="butt" stroke-linejoin="miter" stroke="rgb(0%, 0%, 0%)" stroke-opacity="1" stroke-miterlimit="10" d="M -84.924854 -49.606938 C -84.924854 -49.057458 -85.370167 -48.609542 -85.92225 -48.609542 C -86.471729 -48.609542 -86.917042 -49.057458 -86.917042 -49.606938 C -86.917042 -50.156417 -86.471729 -50.604333 -85.92225 -50.604333 C -85.370167 -50.604333 -84.924854 -50.156417 -84.924854 -49.606938 Z M -84.924854 -49.606938 " transform="matrix(1.5, 0, 0, -1.5, 209.274, 198.906)"/>
<path fill-rule="nonzero" fill="rgb(0%, 0%, 0%)" fill-opacity="1" stroke-width="0.3985" stroke-linecap="butt" stroke-linejoin="miter" stroke="rgb(0%, 0%, 0%)" stroke-opacity="1" stroke-miterlimit="10" d="M 86.918896 -49.606938 C 86.918896 -49.057458 86.470979 -48.609542 85.9215 -48.609542 C 85.372021 -48.609542 84.924104 -49.057458 84.924104 -49.606938 C 84.924104 -50.156417 85.372021 -50.604333 85.9215 -50.604333 C 86.470979 -50.604333 86.918896 -50.156417 86.918896 -49.606938 Z M 86.918896 -49.606938 " transform="matrix(1.5, 0, 0, -1.5, 209.274, 198.906)"/>
<path fill-rule="nonzero" fill="rgb(0%, 0%, 0%)" fill-opacity="1" stroke-width="0.3985" stroke-linecap="butt" stroke-linejoin="miter" stroke="rgb(0%, 0%, 0%)" stroke-opacity="1" stroke-miterlimit="10" d="M 31.442333 -25.547042 C 31.442333 -24.997563 30.994417 -24.549646 30.444938 -24.549646 C 29.895458 -24.549646 29.450146 -24.997563 29.450146 -25.547042 C 29.450146 -26.096521 29.895458 -26.544438 30.444938 -26.544438 C 30.994417 -26.544438 31.442333 -26.096521 31.442333 -25.547042 Z M 31.442333 -25.547042 " transform="matrix(1.5, 0, 0, -1.5, 209.274, 198.906)"/>
<path fill-rule="nonzero" fill="rgb(0%, 0%, 0%)" fill-opacity="1" stroke-width="0.3985" stroke-linecap="butt" stroke-linejoin="miter" stroke="rgb(0%, 0%, 0%)" stroke-opacity="1" stroke-miterlimit="10" d="M -29.448292 -11.080896 C -29.448292 -10.531417 -29.896208 -10.086104 -30.445687 -10.086104 C -30.995167 -10.086104 -31.440479 -10.531417 -31.440479 -11.080896 C -31.440479 -11.630375 -30.995167 -12.078292 -30.445687 -12.078292 C -29.896208 -12.078292 -29.448292 -11.630375 -29.448292 -11.080896 Z M -29.448292 -11.080896 " transform="matrix(1.5, 0, 0, -1.5, 209.274, 198.906)"/>
<path fill-rule="nonzero" fill="rgb(0%, 0%, 0%)" fill-opacity="1" stroke-width="0.3985" stroke-linecap="butt" stroke-linejoin="miter" stroke="rgb(0%, 0%, 0%)" stroke-opacity="1" stroke-miterlimit="10" d="M 67.723583 3.127437 C 67.723583 3.676917 67.278271 4.122229 66.728792 4.122229 C 66.179313 4.122229 65.731396 3.676917 65.731396 3.127437 C 65.731396 2.575354 66.179313 2.130042 66.728792 2.130042 C 67.278271 2.130042 67.723583 2.575354 67.723583 3.127437 Z M 67.723583 3.127437 " transform="matrix(1.5, 0, 0, -1.5, 209.274, 198.906)"/>
<path fill-rule="nonzero" fill="rgb(0%, 0%, 0%)" fill-opacity="1" stroke-width="0.3985" stroke-linecap="butt" stroke-linejoin="miter" stroke="rgb(0%, 0%, 0%)" stroke-opacity="1" stroke-miterlimit="10" d="M -40.677458 3.127437 C -40.677458 3.676917 -41.122771 4.122229 -41.67225 4.122229 C -42.224333 4.122229 -42.669646 3.676917 -42.669646 3.127437 C -42.669646 2.575354 -42.224333 2.130042 -41.67225 2.130042 C -41.122771 2.130042 -40.677458 2.575354 -40.677458 3.127437 Z M -40.677458 3.127437 " transform="matrix(1.5, 0, 0, -1.5, 209.274, 198.906)"/>
<path fill-rule="nonzero" fill="rgb(0%, 0%, 0%)" fill-opacity="1" stroke-width="0.3985" stroke-linecap="butt" stroke-linejoin="miter" stroke="rgb(0%, 0%, 0%)" stroke-opacity="1" stroke-miterlimit="10" d="M 0.997021 -49.606938 C 0.997021 -49.057458 0.549104 -48.609542 -0.000375 -48.609542 C -0.549854 -48.609542 -0.995167 -49.057458 -0.995167 -49.606938 C -0.995167 -50.156417 -0.549854 -50.604333 -0.000375 -50.604333 C 0.549104 -50.604333 0.997021 -50.156417 0.997021 -49.606938 Z M 0.997021 -49.606938 " transform="matrix(1.5, 0, 0, -1.5, 209.274, 198.906)"/>
<g fill="rgb(0%, 0%, 0%)" fill-opacity="1">
<use xlink:href="#glyph-0-0" x="202.752" y="288.294"/>
</g>
<g fill="rgb(0%, 0%, 0%)" fill-opacity="1">
<use xlink:href="#glyph-0-1" x="130.6965" y="199.1115"/>
</g>
<g fill="rgb(0%, 0%, 0%)" fill-opacity="1">
<use xlink:href="#glyph-0-2" x="314.646" y="199.0665"/>
</g>
<g fill="rgb(0%, 0%, 0%)" fill-opacity="1">
<use xlink:href="#glyph-0-3" x="265.4535" y="53.7825"/>
</g>
<g fill="rgb(0%, 0%, 0%)" fill-opacity="1">
<use xlink:href="#glyph-0-4" x="65.9835" y="288.294"/>
</g>
<g fill="rgb(0%, 0%, 0%)" fill-opacity="1">
<use xlink:href="#glyph-0-5" x="148.1055" y="230.5065"/>
</g>
<g fill="rgb(0%, 0%, 0%)" fill-opacity="1">
<use xlink:href="#glyph-0-6" x="342.687" y="288.6375"/>
</g>
<g fill="rgb(0%, 0%, 0%)" fill-opacity="1">
<use xlink:href="#glyph-0-7" x="260.2215" y="252.204"/>
</g>
</svg>
