<svg xmlns="http://www.w3.org/2000/svg" xmlns:xlink="http://www.w3.org/1999/xlink" width="320.524" height="437.361" viewBox="0 0 240.393 328.021"><defs><path id="b" d="M1.297-6.344c.61.047.766.14.766.407 0 .14-.032.39-.11.64L.734-.89c-.187.579-.25.625-.812.735V0h2.516c1.171 0 2.234-.312 3-.875.968-.703 1.546-1.797 1.546-2.953 0-1.64-1.14-2.688-2.921-2.688H1.297Zm1.828.422c.063-.219.203-.281.61-.281.562 0 1.062.125 1.374.36.5.359.766.984.766 1.78 0 1.079-.422 2.188-1.094 2.86-.593.61-1.406.906-2.437.906-.453 0-.656-.11-.656-.375 0-.125.062-.344.218-.937Zm0 0"/><path id="c" d="M6.313-6.516H1.359v.172c.625.047.782.14.782.407 0 .109-.063.453-.11.64L.797-.89c-.172.563-.25.625-.813.735V0h5.063l.61-1.61-.157-.077c-.469.625-.719.89-1.156 1.093-.36.172-1.047.266-1.797.266-.547 0-.797-.094-.797-.344 0-.11.11-.578.36-1.453.14-.437.218-.766.328-1.14.343.015.656.03.765.03.39-.015.672.047.781.141.047.047.079.14.079.313 0 .172-.032.297-.079.515l.204.047.671-2.312-.171-.032c-.375.844-.47.907-1.375.938-.126 0-.438.016-.797.031l.672-2.328c.046-.219.156-.266.718-.266 1.563 0 1.922.141 1.922.735 0 .125-.016.281-.031.453l.219.016Zm0 0"/><path id="e" d="M6.438-6.516h-4.97v.172c.641.047.766.11.766.407 0 .14-.046.39-.109.64L.891-.89c-.172.594-.25.657-.813.735V0h2.516v-.156c-.578-.031-.766-.14-.766-.438 0-.078.031-.234.094-.453l.625-2.219c.36.016.578.032.797.032.39 0 .469 0 .547.046.156.079.218.204.218.407 0 .156-.015.281-.078.594l.172.046.766-2.328-.188-.062c-.437.906-.468.906-2.156.937l.672-2.328c.047-.203.187-.266.594-.266 1.687 0 2.047.141 2.047.75 0 .063 0 .11-.016.25-.016.047-.016.063-.016.188l.203.016Zm0 0"/><path id="f" d="M1.453-6.344c.578.063.703.157.703.407 0 .14-.031.359-.156.796L.813-.89C.64-.297.563-.234 0-.156V0h2.438v-.156c-.626-.094-.672-.125-.672-.469 0-.11.015-.219.125-.578l.515-1.922c.25.063.516.078.922.078.813 0 1.485-.156 1.922-.469.484-.375.781-.921.781-1.515 0-.953-.75-1.485-2.11-1.485H1.454Zm1.75.407c.063-.204.188-.266.469-.266.39 0 .765.094.969.234.25.172.359.469.359.938 0 .656-.219 1.11-.656 1.375-.313.172-.703.25-1.328.25-.172 0-.25-.016-.516-.047Zm0 0"/><path id="g" d="M5.625-.156c-.578-.047-.625-.14-.766-.86l-.937-5.64h-.25L.782-1.672C-.017-.344-.11-.234-.517-.156V0H1.36v-.156C.844-.203.766-.266.766-.516c0-.187.03-.265.203-.609L1.53-2.25h2.203l.188 1.297c.015.094.031.187.031.265 0 .375-.14.47-.781.532V0h2.453ZM1.75-2.61l1.484-2.594.438 2.594Zm0 0"/><path id="h" d="M-.078 0h2.812c1.563 0 2.641-.812 2.641-2 0-.36-.125-.719-.344-.937-.203-.22-.39-.344-.922-.563.72-.172 1-.281 1.329-.562q.42-.375.421-.985c0-.937-.703-1.469-1.984-1.469H1.297v.172c.61.047.766.125.766.407 0 .14-.032.39-.11.64L.734-.89c-.187.579-.25.625-.812.735Zm2.453-3.297c.64 0 1.063.031 1.266.11.406.171.656.609.656 1.156 0 1.078-.734 1.734-1.953 1.734-.422 0-.64-.156-.64-.422 0-.125.124-.593.343-1.39.14-.453.203-.688.328-1.188m.75-2.64c.063-.22.172-.266.563-.266.796 0 1.171.328 1.171 1.062 0 .579-.25 1.016-.671 1.25-.344.204-.813.266-1.72.266Zm0 0"/><path id="i" d="m6.5-4.64.375-1.985h-.219c-.078.172-.172.219-.375.219a2 2 0 0 1-.406-.063c-.453-.11-.844-.172-1.172-.172-2.125 0-4.047 2-4.047 4.22 0 1.53 1.078 2.593 2.61 2.593 1.015 0 1.812-.438 2.718-1.484l-.171-.141c-.891.89-1.47 1.187-2.297 1.187-1.11 0-1.735-.765-1.735-2.046 0-1.188.469-2.391 1.25-3.204.485-.484 1.11-.765 1.766-.765.922 0 1.422.547 1.516 1.61Zm0 0"/><path id="d" d="M1.86-3.5c.046-.094.077-.156.077-.234 0-.22-.203-.391-.421-.391-.203 0-.344.14-.391.328L.25-.562c0 .015-.031.093-.031.093 0 .078.187.14.25.14.047 0 .047-.03.094-.124Zm0 0"/><clipPath id="a"><path d="M74 0h166.395v166H74Zm0 0"/></clipPath></defs><path fill="#fff" d="M0 0h240.395v328.02H0Zm0 0"/><path fill="none" stroke="#000" stroke-linecap="round" stroke-linejoin="round" stroke-miterlimit="10" stroke-width=".797" d="M86.246 37.98 55.117 154.148h147.297Zm0 0"/><path fill="none" stroke="#000" stroke-linecap="round" stroke-miterlimit="10" stroke-width=".797" d="m86.246 37.98 24.547 91.618M55.117 154.148l49.098-49.097M202.414 154.148l-91.621-24.55"/><path fill="none" stroke="#000" stroke-miterlimit="10" stroke-width=".797" d="M213.77 111.629c0-46.95-38.06-85.004-85.004-85.004-46.946 0-85.004 38.055-85.004 85.004 0 46.945 38.058 85 85.004 85 46.945 0 85.004-38.055 85.004-85Zm0 0"/><path fill="none" stroke="#000" stroke-miterlimit="10" stroke-width=".797" d="M122.496 93.656c0-33.578-27.223-60.8-60.8-60.8-33.579 0-60.798 27.222-60.798 60.8s27.22 60.797 60.797 60.797c33.578 0 60.801-27.219 60.801-60.797Zm0 0"/><g clip-path="url(#a)"><path fill="none" stroke="#000" stroke-miterlimit="10" stroke-width=".797" d="M95.11.898c-24.114 55.63 1.433 120.274 57.062 144.387a109.82 109.82 0 0 0 87.324 0"/></g><path fill="none" stroke="#00b200" stroke-dasharray="2.98883 1.99255" stroke-linecap="round" stroke-miterlimit="10" stroke-width=".797" d="m55.117 154.148 85.04 85.04M202.414 154.148l-42.523 158.688M110.793 129.598l49.098 183.238"/><path fill="none" stroke="#00f" stroke-dasharray="2.98883 1.99255" stroke-linecap="round" stroke-miterlimit="10" stroke-width=".797" d="m55.117 154.148 104.774 158.688M202.414 154.148l-77.445 105.79"/><path stroke="#000" stroke-miterlimit="10" stroke-width=".399" d="M87.242 37.98a.995.995 0 1 0-1.99-.001.995.995 0 0 0 1.99.001ZM56.113 154.148a.995.995 0 1 0-1.99-.001.995.995 0 0 0 1.99.001ZM203.41 154.148a.995.995 0 1 0-1.994-.002.995.995 0 0 0 1.994.002ZM129.762 154.148a.995.995 0 1 0-1.99-.001.995.995 0 0 0 1.99.001ZM105.21 105.05c0-.55-.444-1-.995-1a.999.999 0 0 0 0 1.997c.55 0 .996-.45.996-.996ZM111.79 129.598a.995.995 0 1 0-1.991-.002.995.995 0 0 0 1.99.002ZM117.383 120.328a.995.995 0 1 0-1.99-.002.995.995 0 0 0 1.99.002Zm0 0"/><path fill="#00b200" stroke="#004c00" stroke-miterlimit="10" stroke-width=".399" d="M160.887 312.836a.995.995 0 1 0-1.99-.002.995.995 0 0 0 1.99.002ZM141.156 239.188a.999.999 0 0 0-1.996 0 .998.998 0 0 0 1.996 0ZM125.965 259.938a1 1 0 0 0-.996-.997c-.551 0-.996.45-.996.997a.995.995 0 1 0 1.992 0Zm0 0"/><use xlink:href="#b" x="125.169" y="164.331"/><use xlink:href="#c" x="155.222" y="324.2"/><use xlink:href="#d" x="162.036" y="320.584"/><use xlink:href="#c" x="93.683" y="108.282"/><use xlink:href="#e" x="100.151" y="132.831"/><use xlink:href="#f" x="120.106" y="123.561"/><use xlink:href="#e" x="143.877" y="243.011"/><use xlink:href="#d" x="150.801" y="239.394"/><use xlink:href="#g" x="76.439" y="34.262"/><use xlink:href="#h" x="45.313" y="164.331"/><use xlink:href="#f" x="112.636" y="271.305"/><use xlink:href="#d" x="118.723" y="267.689"/><use xlink:href="#i" x="205.633" y="164.561"/></svg>