<svg xmlns="http://www.w3.org/2000/svg" xmlns:xlink="http://www.w3.org/1999/xlink" width="480.786" height="395.056" viewBox="0 0 360.589 296.292"><defs><path id="c" d="M1.938-9.516c.937.094 1.156.204 1.156.61 0 .234-.063.594-.172.953l-1.828 6.61C.828-.485.719-.392-.125-.235V0h3.781C5.406 0 7-.469 8.156-1.297 9.61-2.359 10.453-4 10.453-5.734c0-2.453-1.703-4.016-4.36-4.016H1.939Zm2.734.641c.094-.328.312-.437.922-.437.843 0 1.593.203 2.062.562.735.531 1.14 1.469 1.14 2.656 0 1.61-.624 3.282-1.64 4.297-.875.906-2.093 1.344-3.64 1.344-.688 0-.97-.156-.97-.547 0-.187.063-.531.329-1.422Zm0 0"/><path id="d" d="M9.469-9.75H2.047v.234c.922.094 1.156.204 1.156.61 0 .172-.094.687-.172.953l-1.844 6.61C.938-.5.829-.392-.016-.235V0h7.579l.921-2.422-.234-.125c-.703.969-1.094 1.36-1.734 1.656-.563.25-1.578.391-2.688.391-.844 0-1.203-.14-1.203-.5 0-.172.172-.86.547-2.187.187-.657.328-1.141.469-1.72.53.032.984.048 1.172.048.578-.016 1 .078 1.156.234.078.063.11.203.11.453 0 .266-.032.453-.11.781l.312.079 1.016-3.47-.281-.062c-.563 1.266-.703 1.36-2.063 1.422-.172 0-.656.016-1.172.031l.985-3.484c.093-.328.25-.39 1.093-.39 2.344 0 2.86.203 2.86 1.093 0 .188-.016.422-.031.672L9-7.469Zm0 0"/><path id="e" d="M9.64-9.75H2.204v.234c.969.094 1.14.188 1.14.61 0 .234-.062.594-.155.953l-1.844 6.61C1.078-.454.969-.36.125-.235V0h3.766v-.234C3.016-.281 2.75-.454 2.75-.891c0-.125.047-.343.14-.671l.922-3.344c.547.031.876.047 1.204.047.578 0 .687.015.828.078.218.125.328.312.328.61 0 .25-.031.421-.125.89l.25.062 1.14-3.484-.265-.078c-.672 1.343-.719 1.36-3.234 1.39l.984-3.484c.094-.297.312-.39.922-.39 2.5 0 3.047.203 3.047 1.124 0 .094 0 .157-.016.36-.016.093-.016.11-.031.281l.312.031Zm0 0"/><path id="f" d="M2.188-9.516c.843.11 1.046.235 1.046.625 0 .22-.046.532-.25 1.204L1.22-1.344C.953-.454.844-.359 0-.234V0h3.656v-.234C2.72-.375 2.641-.422 2.641-.922c0-.187.03-.328.187-.875l.781-2.875c.375.094.766.11 1.375.11 1.235 0 2.235-.25 2.875-.704.75-.562 1.172-1.375 1.172-2.265 0-1.438-1.11-2.219-3.14-2.219H2.188Zm2.625.625c.093-.312.265-.421.687-.421.578 0 1.14.156 1.453.359.375.281.547.719.547 1.422 0 .968-.344 1.656-1 2.047-.469.25-1.047.375-1.969.375-.265 0-.375-.016-.781-.079Zm0 0"/><path id="g" d="M8.422-.234c-.844-.078-.938-.203-1.125-1.297L5.89-9.984H5.5L1.172-2.516C-.016-.516-.172-.359-.766-.234V0h2.797v-.234c-.765-.078-.875-.157-.875-.532 0-.28.032-.421.297-.921l.844-1.688h3.297l.297 1.953c.015.14.03.266.03.39 0 .563-.218.704-1.171.798V0h3.672ZM2.609-3.906l2.25-3.89.657 3.89Zm0 0"/><path id="h" d="M-.125 0h4.219c2.343 0 3.953-1.219 3.953-2.984 0-.563-.172-1.078-.5-1.407-.297-.343-.594-.53-1.375-.859 1.062-.25 1.484-.422 1.969-.844.422-.36.64-.86.64-1.468 0-1.422-1.062-2.188-2.984-2.188h-3.86v.234c.938.079 1.157.188 1.157.61 0 .234-.063.594-.172.953l-1.828 6.61C.828-.485.719-.392-.125-.235Zm3.688-4.937c.968 0 1.593.046 1.89.171.61.25.984.907.984 1.72 0 1.608-1.109 2.593-2.921 2.593-.625 0-.97-.219-.97-.625 0-.172.188-.89.532-2.094.188-.672.281-1.015.485-1.765m1.109-3.954c.094-.328.266-.421.86-.421 1.187 0 1.75.515 1.75 1.624 0 .844-.36 1.5-1 1.86-.516.297-1.235.406-2.579.406Zm0 0"/><path id="i" d="m9.734-6.953.563-2.969h-.313c-.125.25-.28.328-.578.328-.11 0-.297-.031-.61-.094-.671-.171-1.265-.265-1.75-.265-3.171 0-6.062 3-6.062 6.328 0 2.281 1.61 3.89 3.907 3.89 1.53 0 2.734-.656 4.078-2.218l-.266-.219C7.36-.844 6.5-.406 5.266-.406c-1.657 0-2.61-1.125-2.61-3.063 0-1.781.719-3.578 1.89-4.797.72-.734 1.657-1.14 2.641-1.14 1.375 0 2.141.797 2.282 2.422Zm0 0"/><clipPath id="a"><path d="M48 23h290v273.293H48Zm0 0"/></clipPath><clipPath id="b"><path d="M112 0h248.59v249H112Zm0 0"/></clipPath></defs><path fill="none" stroke="#000" stroke-linecap="round" stroke-linejoin="round" stroke-miterlimit="10" stroke-width="1.1955" d="m129.367 56.973-46.691 174.25h220.941Zm0 0"/><path fill="none" stroke="#000" stroke-linecap="round" stroke-miterlimit="10" stroke-width="1.1955" d="m129.367 56.973 36.824 137.425M82.676 231.223l73.648-73.649M303.617 231.223l-137.426-36.825"/><g clip-path="url(#a)"><path fill="none" stroke="#000" stroke-miterlimit="10" stroke-width="1.1955" d="M320.652 167.441c0-70.418-57.086-127.503-127.504-127.503-70.421 0-127.503 57.085-127.503 127.503 0 70.422 57.082 127.504 127.503 127.504 70.418 0 127.504-57.082 127.504-127.504Zm0 0"/></g><path fill="none" stroke="#000" stroke-miterlimit="10" stroke-width="1.1955" d="M183.742 140.484c0-50.367-40.832-91.199-91.199-91.199s-91.2 40.832-91.2 91.2c0 50.37 40.833 91.199 91.2 91.199s91.2-40.829 91.2-91.2Zm0 0"/><g clip-path="url(#b)"><path fill="none" stroke="#000" stroke-miterlimit="10" stroke-width="1.1955" d="M142.664 1.348c-36.172 83.441 2.152 180.41 85.598 216.578a164.68 164.68 0 0 0 130.98 0"/></g><path stroke="#000" stroke-miterlimit="10" stroke-width=".5985" d="M130.863 56.973a1.496 1.496 0 0 0-2.992 0 1.495 1.495 0 0 0 2.992 0ZM84.172 231.223c0-.825-.672-1.496-1.496-1.496a1.495 1.495 0 0 0 0 2.988c.824 0 1.496-.668 1.496-1.492ZM305.113 231.223c0-.825-.668-1.496-1.496-1.496a1.495 1.495 0 1 0 1.496 1.496ZM194.64 231.223a1.495 1.495 0 1 0-2.988 0c0 .824.668 1.492 1.496 1.492.825 0 1.493-.668 1.493-1.492ZM157.816 157.574c0-.824-.668-1.492-1.492-1.492s-1.496.668-1.496 1.492.672 1.496 1.496 1.496 1.492-.672 1.492-1.496ZM167.684 194.398c0-.824-.668-1.496-1.493-1.496-.824 0-1.496.672-1.496 1.496 0 .825.672 1.497 1.496 1.497.825 0 1.493-.672 1.493-1.497ZM176.074 180.492c0-.824-.668-1.492-1.496-1.492-.824 0-1.492.668-1.492 1.492a1.494 1.494 0 1 0 2.988 0Zm0 0"/><use xlink:href="#c" x="187.754" y="246.498"/><use xlink:href="#d" x="140.524" y="162.423"/><use xlink:href="#e" x="150.226" y="199.246"/><use xlink:href="#f" x="180.159" y="185.341"/><use xlink:href="#g" x="114.659" y="51.393"/><use xlink:href="#h" x="67.969" y="246.498"/><use xlink:href="#i" x="308.45" y="246.841"/></svg>