<?xml version="1.0" standalone="no"?>
<!DOCTYPE svg PUBLIC "-//W3C//DTD SVG 20010904//EN"
 "http://www.w3.org/TR/2001/REC-SVG-20010904/DTD/svg10.dtd">
<svg version="1.0" xmlns="http://www.w3.org/2000/svg"
 width="512.000000pt" height="512.000000pt" viewBox="0 0 512.000000 512.000000"
 preserveAspectRatio="xMidYMid meet">
<metadata>
Created by potrace 1.16, written by Peter Selinger 2001-2019
</metadata>
<g transform="translate(0.000000,512.000000) scale(0.100000,-0.100000)"
fill="#000000" stroke="none">
<path d="M143 3859 c-3 -12 -11 -18 -19 -15 -8 3 -14 1 -14 -5 0 -6 -4 -8 -9
-4 -5 3 -16 -4 -24 -15 -12 -18 -15 -18 -35 -4 -24 16 -26 12 -22 -33 1 -13
-3 -23 -9 -23 -8 0 -11 -550 -11 -1880 l0 -1880 2560 0 2560 0 0 909 c0 993 4
933 -56 911 -34 -13 -34 -14 -34 18 0 21 -2 24 -10 12 -9 -13 -10 -13 -10 0 0
10 -3 11 -8 4 -4 -6 -16 -16 -27 -22 -18 -11 -18 -12 6 -6 17 3 30 1 35 -8 4
-7 4 -10 0 -7 -4 4 -27 2 -53 -2 -29 -6 -50 -5 -58 1 -9 8 -14 6 -19 -5 -3 -9
-10 -14 -15 -10 -26 16 33 61 64 49 9 -4 15 -2 13 4 -2 6 14 31 34 55 25 31
36 52 32 64 -5 15 -4 15 5 3 5 -8 13 -11 17 -7 4 4 2 13 -4 19 -17 17 -15 24
16 54 20 20 22 24 6 16 -11 -6 -32 -9 -45 -8 -36 6 -89 29 -89 40 0 13 -32 35
-53 36 -15 0 -16 3 -5 23 7 12 17 25 22 28 4 4 3 9 -2 13 -6 4 -14 0 -19 -7
-15 -27 -38 -24 -56 5 -22 36 -40 27 -35 -18 3 -22 -1 -35 -10 -39 -20 -7 -22
-6 -22 8 0 7 -8 17 -19 24 -13 8 -17 19 -14 37 3 15 1 26 -6 26 -6 0 -12 -7
-12 -15 -1 -8 -3 -19 -4 -25 -1 -5 -3 -14 -4 -20 -3 -22 -31 -9 -31 14 0 31
-46 86 -72 86 -11 0 -28 10 -39 23 l-19 22 5 -50 5 -50 -13 48 c-17 57 -27 70
-27 33 0 -15 -4 -25 -9 -22 -11 7 -44 -42 -36 -54 3 -6 1 -10 -4 -10 -14 0
-14 11 -1 44 8 21 6 26 -6 26 -8 0 -17 -8 -21 -18 -3 -9 -13 -25 -21 -34 -10
-12 -11 -18 -4 -18 7 0 12 5 12 11 0 5 5 7 10 4 6 -3 10 -10 10 -16 0 -14 -37
-11 -53 6 -13 13 -16 13 -21 -1 -5 -12 -10 -13 -19 -5 -14 11 -57 9 -90 -4
-12 -5 -16 -14 -12 -26 4 -11 0 -26 -9 -34 -13 -13 -16 -13 -30 1 -14 14 -18
14 -38 -2 -16 -11 -17 -15 -5 -11 12 5 17 1 17 -13 0 -22 -10 -26 -26 -10 -13
13 -13 -31 1 -47 7 -8 14 -7 27 4 10 9 18 12 18 6 0 -17 -61 -55 -78 -48 -9 4
-31 9 -49 11 -26 3 -31 1 -27 -11 5 -11 2 -14 -12 -9 -11 4 -25 11 -31 17 -18
13 -44 1 -37 -18 3 -8 1 -15 -5 -15 -6 0 -8 -6 -5 -14 3 -8 -8 -30 -25 -49
-17 -19 -31 -42 -31 -51 0 -19 -20 -21 -40 -4 -12 11 -12 10 -1 -4 14 -19 8
-23 -29 -19 -10 1 -11 -1 -4 -6 19 -14 9 -54 -17 -69 -57 -31 -99 -45 -118
-39 -12 3 -21 11 -21 16 0 6 7 6 19 -1 27 -14 38 -13 44 4 4 10 1 13 -9 9 -7
-3 -14 0 -14 6 0 6 6 11 14 11 8 0 17 6 19 13 3 6 6 2 6 -10 2 -37 17 -26 18
13 1 29 -2 34 -16 29 -9 -4 -28 -8 -44 -10 -25 -4 -27 -2 -21 23 4 15 14 33
23 40 14 12 10 13 -29 10 -43 -3 -45 -2 -43 22 1 14 -1 19 -3 12 -9 -19 -24
-4 -24 24 0 14 4 22 10 19 6 -3 10 1 10 10 0 9 -4 13 -10 10 -5 -3 -7 0 -4 9
3 8 1 23 -5 34 -8 14 -5 28 10 56 18 34 18 39 4 59 -8 12 -19 22 -23 22 -4 0
-6 3 -5 8 4 9 -11 9 -21 0 -13 -14 -38 -12 -32 3 3 8 1 14 -5 14 -6 0 -7 5 -4
10 3 6 -1 10 -10 10 -14 0 -14 -3 -1 -29 9 -16 13 -31 10 -34 -3 -3 -3 -11 1
-17 6 -9 9 -9 15 0 6 10 13 9 31 -4 13 -9 21 -16 19 -17 -3 0 -24 -2 -47 -4
-34 -2 -42 0 -46 17 -5 18 -7 19 -37 3 -17 -9 -28 -20 -25 -25 6 -9 -10 -15
-67 -26 -25 -4 -38 -2 -38 5 0 6 -9 11 -20 11 -21 0 -26 -16 -11 -39 7 -11 13
-12 23 -3 8 6 36 14 63 17 27 4 52 8 55 10 4 3 16 -2 26 -10 19 -14 19 -14 -1
-16 -11 -1 -23 -1 -26 -1 -4 1 -35 -5 -70 -12 -58 -11 -64 -15 -67 -39 -2 -16
2 -27 8 -27 7 0 10 7 6 15 -3 8 -1 15 4 15 6 0 10 -4 10 -9 0 -5 3 -16 6 -24
3 -8 -2 -17 -11 -21 -9 -3 -13 -2 -10 4 3 6 -1 10 -9 10 -9 0 -16 -4 -16 -8 0
-5 -22 -9 -50 -9 -43 -1 -50 2 -50 18 0 12 -7 19 -19 19 -22 0 -45 25 -37 39
4 5 21 13 38 16 30 7 31 8 13 21 -11 8 -26 12 -33 9 -8 -3 -25 4 -39 15 -19
15 -22 20 -9 20 9 0 21 11 26 25 6 15 21 28 42 34 18 5 25 10 14 10 -11 1 -16
6 -13 15 3 8 1 17 -6 20 -9 5 -9 7 1 12 14 7 16 60 2 69 -6 4 -8 10 -5 15 3 5
1 19 -5 31 -9 16 -8 24 6 40 9 10 22 19 29 19 6 0 11 15 11 35 0 20 -4 34 -11
32 -5 -3 -19 0 -29 6 -15 7 -22 6 -31 -6 -10 -14 -15 -10 -38 26 -15 23 -24
43 -20 44 5 0 20 4 36 7 25 6 39 26 17 26 -15 0 -47 35 -53 57 -4 16 -5 16 -6
-2 -1 -21 -33 -55 -51 -55 -16 0 -21 19 -10 40 9 16 8 20 -5 20 -10 0 -13 -5
-9 -12 5 -8 0 -9 -17 -5 -13 4 -28 7 -34 7 -5 0 -11 14 -12 31 -2 26 0 29 19
23 15 -4 18 -3 13 6 -4 7 -1 16 6 21 9 6 10 9 2 9 -6 0 -15 -5 -18 -10 -4 -6
-11 -8 -16 -5 -5 4 -9 1 -9 -4 0 -6 -7 -11 -16 -11 -12 0 -14 4 -7 13 17 22
24 49 10 41 -9 -5 -9 -4 0 6 6 7 9 18 7 25 -3 7 4 20 16 28 33 23 120 4 120
-27 0 -17 35 -27 48 -14 6 6 17 6 32 -2 19 -10 21 -10 11 8 -8 14 -18 18 -43
14 -30 -5 -32 -4 -19 12 16 19 60 14 73 -7 12 -19 9 -75 -4 -80 -7 -3 -3 -6 9
-6 16 -1 27 -14 44 -51 12 -27 26 -50 30 -50 5 0 14 -19 20 -42 l12 -43 8 42
c8 44 27 88 35 80 3 -2 9 -18 14 -36 8 -29 7 -31 -16 -31 -29 0 -31 -13 -6
-38 10 -10 21 -26 25 -35 3 -9 12 -14 20 -11 10 4 13 -3 9 -27 -4 -26 -2 -31
11 -26 10 4 18 -1 22 -14 4 -10 10 -17 15 -14 5 3 14 -3 19 -14 8 -13 17 -17
32 -14 20 6 20 7 5 18 -9 7 -16 15 -16 19 0 12 32 6 48 -11 15 -15 17 -14 22
8 5 19 2 25 -14 27 -23 4 -69 33 -62 39 2 3 13 0 24 -6 11 -6 22 -8 25 -4 11
10 -13 43 -31 43 -9 0 -34 5 -55 11 -33 9 -36 12 -23 25 8 7 23 14 33 15 14 0
12 3 -7 11 l-25 11 33 10 c41 13 43 32 2 24 -30 -6 -30 -6 -30 39 0 36 3 45
14 41 8 -3 20 1 26 9 10 11 8 14 -10 14 -21 0 -22 1 -8 18 9 9 13 23 11 30 -7
18 -43 15 -43 -4 0 -9 5 -12 13 -8 9 5 9 4 0 -6 -15 -16 -43 -6 -50 19 -3 14
-13 18 -36 17 -22 -1 -32 4 -35 17 -2 10 3 17 13 17 9 0 14 4 10 9 -6 10 21
41 36 41 5 0 9 -4 9 -10 0 -5 7 -10 15 -10 8 0 15 5 15 11 0 6 8 8 18 5 12 -4
29 3 46 19 15 14 34 25 42 25 7 0 14 4 14 10 0 16 -48 42 -62 34 -7 -4 -10 -4
-6 1 5 5 -1 15 -13 23 -11 8 -18 20 -15 28 4 9 -3 18 -17 23 -28 11 -33 6 -16
-16 12 -15 12 -16 -4 -10 -10 4 -22 7 -27 7 -17 0 -19 32 -4 56 15 22 15 24 0
24 -9 0 -16 6 -16 14 0 16 21 26 54 26 12 0 31 7 42 16 19 15 19 16 -1 8 -41
-14 -75 -16 -75 -4 0 9 -4 9 -12 2 -14 -11 -65 -5 -73 8 -7 11 5 40 16 40 5 0
9 -7 9 -15 0 -8 9 -19 20 -25 15 -8 21 -6 30 9 21 40 13 51 -34 51 -36 0 -46
-4 -51 -20 -3 -11 -13 -20 -21 -20 -8 0 -14 -5 -14 -11 0 -6 7 -9 15 -5 24 9
17 -12 -10 -30 -28 -18 -60 -12 -51 11 3 8 2 15 -3 15 -11 0 -34 51 -35 80 -2
29 -8 32 -60 23 -31 -5 -41 -12 -50 -35 -6 -17 -16 -26 -24 -23 -8 3 -18 5
-23 5 -5 0 -12 18 -15 41 l-7 40 -18 -42 c-23 -50 -23 -49 -4 -49 9 0 12 6 9
15 -4 8 -2 15 4 15 15 0 21 -22 10 -42 -7 -14 -5 -16 8 -11 11 4 15 2 11 -4
-4 -6 -2 -13 5 -15 13 -5 -29 -48 -47 -48 -6 0 -19 6 -29 13 -16 12 -17 17 -7
38 12 23 12 23 -4 4 -11 -13 -14 -30 -11 -49 7 -34 17 -46 23 -28 3 6 18 12
34 12 18 0 28 -4 24 -10 -3 -5 -17 -10 -30 -10 -31 0 -41 -27 -13 -36 16 -5
27 -1 39 14 15 19 20 20 48 9 17 -6 31 -16 31 -21 0 -5 8 -15 18 -23 16 -14
16 -14 0 -9 -12 3 -18 0 -18 -9 0 -8 -4 -15 -10 -15 -5 0 -10 14 -10 30 0 20
-5 30 -15 30 -16 0 -21 -35 -5 -45 5 -3 7 -12 4 -19 -8 -22 15 -30 34 -12 16
14 18 13 20 -10 1 -13 9 -38 17 -54 14 -26 18 -28 41 -19 32 12 32 11 40 -31
7 -32 7 -33 -25 -28 -17 3 -34 1 -37 -4 -9 -14 -21 -9 -27 11 -4 17 -9 18 -43
10 -52 -12 -54 -11 -48 6 7 17 -11 21 -21 5 -10 -17 -25 -11 -18 7 5 12 2 15
-9 10 -10 -3 -19 1 -23 10 -6 18 13 35 29 26 5 -4 7 1 3 11 -4 10 -7 33 -7 52
0 19 -4 34 -9 34 -5 0 -8 -19 -6 -41 l4 -42 -20 22 c-11 12 -18 25 -15 30 3 4
-3 16 -14 26 -19 17 -20 17 -20 -2 0 -11 7 -34 16 -52 13 -26 13 -35 3 -47
-10 -12 -14 -12 -20 -2 -12 20 -22 2 -10 -19 6 -10 11 -14 11 -10 0 5 6 2 14
-6 15 -15 11 -61 -4 -52 -5 3 -11 1 -14 -4 -3 -5 -15 -7 -26 -4 -14 4 -20 14
-20 32 1 26 1 26 13 4 9 -15 16 -19 26 -13 12 7 12 10 0 23 -23 22 -56 37 -83
37 -32 0 -43 -17 -16 -25 24 -8 26 -30 4 -39 -22 -8 -22 -8 -27 17 -3 13 -5 7
-6 -16 0 -22 7 -52 16 -68 17 -28 46 -38 57 -20 3 5 15 11 26 14 14 4 20 0 20
-12 0 -21 -60 -52 -89 -46 -11 2 -25 -3 -32 -11 -9 -11 -8 -14 4 -14 9 0 19
-5 23 -11 5 -9 -1 -10 -20 -5 -19 5 -26 3 -26 -8 0 -8 -8 -22 -17 -32 -10 -10
-19 -21 -19 -26 -3 -21 -5 -22 -15 -5 -6 9 -15 15 -21 11 -7 -4 -5 -10 3 -16
10 -7 4 -8 -18 -4 -24 4 -31 2 -27 -8 3 -7 -2 -19 -10 -26 -9 -7 -13 -16 -10
-21 5 -8 -2 -20 -38 -59 -12 -13 -13 -20 -5 -24 16 -6 -11 -26 -35 -26 -14 0
-18 8 -18 36 0 33 2 36 25 30 23 -6 23 -5 14 22 -8 24 -14 28 -39 24 -18 -3
-30 0 -30 7 0 6 -9 11 -20 11 -11 0 -20 5 -20 10 0 6 8 10 18 10 10 0 24 6 31
12 11 11 12 9 6 -9 -4 -14 -2 -23 4 -23 6 0 11 6 11 14 0 19 51 31 61 14 11
-18 19 -6 12 20 -3 15 -13 22 -29 22 -13 0 -24 4 -24 9 0 5 -13 12 -30 16 -26
6 -29 10 -24 31 4 17 2 24 -7 24 -22 -1 -52 -27 -44 -39 8 -15 -8 -14 -23 1
-8 8 -15 8 -26 -1 -21 -18 -55 -4 -62 24 -7 30 2 45 26 45 10 0 25 9 34 21 9
14 21 19 33 15 16 -5 19 -1 19 31 1 21 -1 30 -3 21 -5 -19 -33 -25 -33 -7 0 5
-4 8 -9 5 -10 -6 -24 35 -15 44 3 3 12 -3 19 -14 8 -10 18 -15 24 -11 17 10
13 21 -14 35 -14 8 -28 24 -31 37 -4 13 -13 23 -21 23 -8 0 -11 -5 -7 -12 4
-7 3 -8 -5 -4 -6 4 -9 10 -7 14 2 4 -4 23 -14 42 -13 24 -20 30 -23 20 -3 -8
-10 -33 -16 -55 -6 -22 -16 -47 -21 -55 -9 -13 -13 -12 -25 5 -43 62 -45 62
-43 33 2 -16 8 -28 16 -28 9 0 11 -7 7 -20 -4 -13 0 -23 14 -32 12 -7 21 -23
21 -35 0 -12 5 -25 11 -29 6 -3 9 -15 6 -25 -3 -12 0 -19 9 -19 18 0 18 -15
-2 -34 -20 -20 -54 -21 -54 -1 0 9 -6 12 -15 9 -18 -7 -21 21 -4 32 7 4 9 23
5 50 -4 31 -2 44 7 44 6 0 4 5 -5 11 -34 19 -80 -36 -47 -57 6 -3 9 -17 6 -30
-2 -13 0 -21 4 -18 5 3 9 -2 9 -10 0 -41 -50 -1 -51 41 -1 28 -1 28 -8 3 -4
-14 -10 -24 -14 -22 -4 1 -11 2 -16 2 -5 0 -11 10 -14 22 -6 22 23 60 53 70
10 3 11 6 2 12 -7 4 -22 -3 -36 -18 -39 -43 -64 -31 -43 23 8 23 18 31 37 31
21 1 23 2 10 13 -9 7 -14 20 -12 30 4 19 22 23 22 5 1 -19 30 23 30 41 0 12
-11 16 -41 17 l-41 0 6 -34 c3 -24 -1 -47 -16 -76 -11 -22 -20 -42 -19 -43 5
-10 -1 -23 -10 -23 -6 0 -9 6 -6 14 3 8 3 17 -1 21 -4 4 -7 12 -7 18 0 7 -8
11 -17 9 -9 -1 -19 2 -23 8 -3 6 3 10 16 10 21 0 21 1 -5 21 -15 12 -31 17
-38 13 -10 -6 -10 -5 -1 7 15 18 2 75 -16 71 -16 -3 -14 7 6 26 17 18 19 18
56 21 15 2 9 6 -22 16 -24 7 -49 11 -57 8 -17 -6 -29 21 -19 44 5 10 9 25 11
33 2 8 7 16 13 18 6 2 6 12 -1 28 -9 19 -8 28 6 43 17 18 16 19 -29 23 -32 2
-50 -1 -58 -11 -10 -12 -6 -13 30 -8 38 6 41 5 36 -13 -8 -30 -19 -33 -54 -14
-25 12 -37 14 -55 5 -13 -6 -24 -16 -24 -22 0 -7 -9 -4 -22 7 -19 17 -21 17
-15 2 8 -23 -32 -53 -48 -37 -7 8 -6 13 3 16 6 3 12 9 12 14 0 6 -5 7 -10 4
-6 -3 -10 -1 -10 5 0 7 6 10 13 7 6 -2 27 2 45 10 18 7 37 11 42 8 10 -6 50
24 50 37 0 5 -7 8 -17 8 -14 0 -14 2 2 20 21 23 44 28 25 5 -11 -13 -10 -14 4
-9 9 3 23 1 31 -6 14 -12 118 -21 143 -12 6 2 12 8 12 14 0 5 -5 6 -12 2 -8
-5 -9 -2 -5 9 5 12 1 17 -13 17 -10 0 -22 5 -25 10 -4 6 -15 8 -26 5 -14 -5
-17 -2 -13 9 3 8 12 12 20 9 8 -3 14 -2 14 1 0 13 -41 46 -56 46 -12 0 -14 4
-7 13 5 6 10 23 11 35 1 18 -3 22 -16 18 -11 -4 -9 1 7 14 18 15 19 20 7 20
-9 0 -16 -4 -16 -10 0 -5 -7 -10 -15 -10 -13 0 -20 -19 -16 -44 1 -5 -4 -6
-11 -4 -8 4 -14 -3 -14 -18 -1 -15 3 -21 12 -17 8 3 14 1 14 -5 0 -12 -28 -36
-47 -38 -28 -4 -44 -27 -39 -56 3 -20 0 -31 -10 -35 -23 -9 -38 11 -25 34 7
14 7 23 -1 31 -6 6 -12 19 -13 29 -1 10 -7 28 -14 41 -9 18 -9 22 1 20 21 -5
16 55 -7 71 -30 23 -83 23 -105 1 -10 -10 -15 -20 -11 -22 5 -2 12 -19 15 -38
6 -27 5 -32 -4 -20 -9 12 -10 9 -5 -15 4 -16 11 -32 16 -35 5 -4 5 -19 0 -36
-5 -18 -5 -37 1 -47 6 -11 5 -17 -1 -17 -5 0 -13 9 -16 20 -8 25 -17 25 -32 1
-9 -15 -9 -21 -1 -23 24 -8 -3 -25 -39 -24 -29 1 -38 5 -37 18 1 9 -4 14 -11
12 -7 -3 -34 9 -61 25 -26 17 -41 31 -33 31 12 0 14 8 11 30 -4 30 -22 42 -22
15 0 -8 -4 -15 -10 -15 -5 0 -10 -8 -10 -17 0 -14 -2 -15 -9 -4 -6 9 -18 11
-36 7 -19 -5 -25 -3 -20 5 9 14 -12 29 -42 29 -13 0 -23 5 -23 10 0 6 -15 10
-34 10 -21 0 -36 6 -40 16 -3 8 -10 12 -16 9 -19 -12 -22 23 -4 50 15 23 15
28 3 36 -9 6 -15 4 -17 -6 -3 -12 -8 -13 -24 -4 -14 8 -18 8 -14 0 9 -13 -12
-53 -24 -46 -4 3 -19 1 -33 -4 -19 -8 -29 -5 -46 10 -21 20 -21 20 -21 -1 0
-22 -18 -27 -26 -7 -6 16 -60 21 -70 6 -4 -8 -9 -7 -15 2 -6 10 -9 11 -9 2 0
-7 -10 -13 -22 -12 -13 0 -17 3 -10 6 6 2 12 11 12 19 0 9 5 12 10 9 6 -3 10
-2 10 4 0 14 -23 26 -27 14 -6 -17 -36 -4 -56 23 -18 24 -18 24 8 22 14 -1 25
-8 25 -16 0 -7 4 -11 9 -8 5 3 20 -3 33 -14 14 -11 28 -16 32 -13 3 3 6 1 6
-5 0 -7 4 -12 9 -12 5 0 4 11 -2 25 -7 14 -17 25 -23 25 -6 0 -18 7 -25 16 -7
9 -24 20 -37 25 -16 6 -22 15 -18 24 5 13 2 14 -16 4 -15 -8 -17 -13 -9 -19 9
-5 6 -9 -8 -13 -12 -3 -21 -13 -21 -22 0 -20 -38 -54 -60 -55 -9 0 -21 12 -28
28 -23 50 -49 92 -54 86 -3 -3 -8 2 -12 11 -4 10 -2 14 5 9 7 -4 10 -1 7 7 -3
8 -10 13 -16 12 -6 -2 -9 4 -6 12 4 8 2 15 -4 15 -5 0 -13 11 -16 25 -4 14
-11 22 -19 19 -7 -2 -19 7 -27 21 -17 32 -28 32 -32 -2 -2 -14 -9 -29 -17 -31
-9 -3 -11 0 -6 8 5 9 4 11 -3 6 -20 -12 -13 -36 11 -37 13 -1 16 -3 6 -6 -8
-2 -25 0 -38 5 l-22 8 23 34 c33 49 28 117 -7 103 -10 -3 -15 2 -15 17 0 20
-1 20 -16 5 -13 -12 -14 -18 -4 -31 7 -8 10 -17 6 -21 -3 -3 -6 -1 -6 6 0 8
-6 9 -17 4 -16 -8 -25 -8 -57 -4 -11 1 33 35 57 44 22 8 22 19 -2 34 -16 10
-23 8 -46 -13 l-27 -25 4 30 c3 17 1 31 -4 31 -4 0 -8 -4 -8 -10 0 -5 -5 -10
-11 -10 -6 0 -9 7 -5 15 3 8 3 15 0 15 -3 0 -8 -9 -11 -21z m87 -119 c0 -5 -5
-10 -11 -10 -5 0 -7 5 -4 10 3 6 8 10 11 10 2 0 4 -4 4 -10z m43 -24 c-3 -4
-9 -2 -14 5 -13 22 -11 31 5 17 8 -7 12 -17 9 -22z m387 -246 c0 -5 -2 -10 -4
-10 -3 0 -8 5 -11 10 -3 6 -1 10 4 10 6 0 11 -4 11 -10z m920 -16 c0 -8 -4
-12 -10 -9 -5 3 -10 10 -10 16 0 5 5 9 10 9 6 0 10 -7 10 -16z m299 -163 c9
-16 8 -18 -9 -14 -21 5 -25 15 -13 26 9 10 11 9 22 -12z m-44 -1 c3 -5 1 -10
-4 -10 -6 0 -11 5 -11 10 0 6 2 10 4 10 3 0 8 -4 11 -10z m-455 -89 c0 -6 -4
-13 -10 -16 -5 -3 -10 1 -10 9 0 9 5 16 10 16 6 0 10 -4 10 -9z m92 -5 c7 4 8
2 4 -4 -11 -18 -26 -14 -25 6 0 10 3 12 6 4 2 -6 10 -9 15 -6z m38 -40 c0 -8
-4 -17 -9 -21 -12 -7 -24 12 -16 25 9 15 25 12 25 -4z m290 4 c0 -5 -11 -20
-25 -34 -22 -22 -26 -23 -40 -10 -19 19 -10 37 15 29 11 -3 20 0 24 10 6 16
26 21 26 5z m1205 -58 c-3 -4 -11 0 -16 8 -8 11 -9 10 -4 -7 4 -14 2 -23 -4
-23 -17 0 -13 31 7 53 17 19 17 19 20 -3 2 -12 1 -25 -3 -28z m209 -41 c18
-33 10 -44 -37 -55 l-29 -7 26 26 c30 30 33 40 8 26 -15 -8 -18 -5 -20 15 -3
35 33 32 52 -5z m-92 -13 c-7 -7 -12 -8 -12 -2 0 14 12 26 19 19 2 -3 -1 -11
-7 -17z m-1346 -44 c-4 -11 -2 -15 7 -11 17 7 43 -51 29 -65 -7 -7 -12 -3 -17
12 -6 18 -9 20 -17 9 -7 -10 -8 -8 -5 9 5 22 4 23 -17 9 -20 -14 -24 -13 -34
4 -16 26 -15 34 3 19 16 -14 35 -6 35 16 0 8 5 14 11 14 6 0 8 -7 5 -16z
m1461 -25 c-8 -19 -24 -40 -35 -48 -11 -8 -18 -20 -15 -28 5 -14 -18 -18 -31
-6 -4 4 -15 8 -24 8 -10 0 -18 9 -20 23 -2 12 1 22 7 22 6 0 11 -9 11 -19 0
-14 5 -18 20 -14 19 5 20 7 5 29 -8 13 -15 26 -15 29 0 10 36 5 49 -7 10 -11
12 -9 9 7 -2 14 3 21 20 23 12 2 22 8 22 14 0 6 3 9 6 6 3 -3 -1 -21 -9 -39z
m-1554 -4 c-5 -13 -23 -22 -23 -11 0 15 14 35 21 31 4 -3 6 -12 2 -20z m-67
-43 c-3 -2 -12 2 -20 10 -11 12 -12 18 -3 27 9 9 13 6 19 -10 5 -12 6 -24 4
-27z m1764 13 c10 -12 10 -15 -4 -15 -9 0 -16 7 -16 15 0 8 2 15 4 15 2 0 9
-7 16 -15z m-1846 -27 c8 -30 7 -38 -1 -38 -11 0 -32 48 -25 55 11 10 20 5 26
-17z m186 -29 c0 -6 -4 -7 -10 -4 -5 3 -10 11 -10 16 0 6 5 7 10 4 6 -3 10
-11 10 -16z m40 -4 c0 -8 -2 -15 -4 -15 -2 0 -6 7 -10 15 -3 8 -1 15 4 15 6 0
10 -7 10 -15z m82 -20 c10 -4 16 -11 13 -15 -7 -12 -55 1 -55 15 0 14 12 14
42 0z m-303 -2 c0 -5 -4 -17 -9 -28 -8 -18 -9 -17 -9 8 -1 15 4 27 9 27 6 0
10 -3 9 -7z m176 -2 c7 -12 -12 -24 -25 -16 -11 7 -4 25 10 25 5 0 11 -4 15
-9z m30 -21 c3 -5 1 -10 -4 -10 -6 0 -11 5 -11 10 0 6 2 10 4 10 3 0 8 -4 11
-10z m-111 -52 c-2 -3 2 -9 8 -11 10 -4 10 -6 1 -6 -18 -1 -53 36 -53 54 0 12
6 10 24 -7 13 -13 22 -26 20 -30z m126 1 c0 -5 -11 -8 -25 -7 -24 2 -31 9 -19
20 8 8 44 -3 44 -13z m124 -10 c14 -17 26 -37 26 -45 0 -8 4 -14 8 -14 5 0 9
-6 9 -12 0 -7 4 -22 9 -32 6 -15 4 -18 -7 -14 -10 4 -15 -1 -15 -13 0 -13 5
-18 15 -14 8 3 35 9 59 12 29 4 39 9 30 14 -10 7 -9 9 5 9 9 0 17 -5 17 -11 0
-6 7 -8 16 -5 21 8 95 -14 112 -34 8 -8 11 -9 7 -2 -3 6 -2 12 4 12 6 0 13
-15 16 -33 8 -42 59 -77 101 -69 28 5 28 5 11 -13 -11 -10 -15 -24 -11 -34 3
-9 9 -27 12 -41 3 -14 12 -30 21 -37 14 -10 12 -12 -11 -18 -16 -4 -35 -5 -43
-1 -9 3 -15 0 -15 -9 0 -8 -4 -15 -10 -15 -15 0 -12 30 4 36 31 12 -13 101
-61 123 -17 8 -23 17 -19 29 7 20 -6 21 -51 7 -26 -8 -30 -30 -9 -38 12 -5 34
-72 38 -114 1 -7 8 -13 17 -14 11 0 9 -4 -6 -11 -17 -8 -21 -17 -17 -33 7 -27
-15 -38 -48 -26 -20 8 -21 10 -5 16 28 12 19 27 -15 25 -53 -3 -56 -1 -51 21
5 19 4 20 -14 10 -16 -8 -24 -7 -33 5 -11 12 -10 17 6 29 10 8 22 15 25 15 14
0 17 40 4 40 -7 0 -16 6 -18 13 -3 6 -6 2 -6 -10 -1 -25 -21 -32 -21 -8 0 11
-9 14 -34 11 -23 -3 -36 0 -40 10 -8 20 9 26 58 19 55 -9 73 0 51 25 -12 14
-13 19 -3 28 9 7 19 5 35 -8 12 -9 20 -20 17 -23 -3 -2 3 -8 13 -11 9 -4 14
-4 11 0 -4 4 4 16 19 27 24 19 24 21 8 34 -18 12 -18 13 0 33 18 20 18 20 -23
16 -46 -5 -65 -13 -57 -27 10 -15 -12 -10 -30 7 -18 18 -45 12 -45 -11 0 -8
-4 -15 -10 -15 -5 0 -10 -6 -10 -14 0 -18 -30 -25 -59 -14 -15 5 -21 13 -17
23 3 9 1 15 -7 14 -27 -3 -48 2 -42 10 3 5 18 9 33 9 16 -1 37 4 48 10 16 10
14 11 -19 12 -44 0 -41 16 4 28 l31 7 -28 30 c-16 17 -29 33 -30 38 -1 4 -2
13 -3 20 -1 6 -6 2 -11 -10 l-9 -23 -26 26 c-32 32 -32 42 3 47 54 8 61 6 86
-24z m1342 6 c10 0 19 -6 21 -12 7 -19 -28 -15 -43 5 -7 9 -13 22 -14 27 0 6
5 3 10 -5 5 -8 17 -15 26 -15z m-1546 -5 c0 -5 -5 -10 -11 -10 -5 0 -7 5 -4
10 3 6 8 10 11 10 2 0 4 -4 4 -10z m-265 -10 c3 -5 2 -10 -4 -10 -5 0 -13 5
-16 10 -3 6 -2 10 4 10 5 0 13 -4 16 -10z m551 -21 c3 -6 2 -15 -4 -21 -7 -7
-14 -3 -21 11 -10 17 -9 21 3 21 8 0 18 -5 22 -11z m334 7 c0 -3 -4 -8 -10
-11 -5 -3 -10 -1 -10 4 0 6 5 11 10 11 6 0 10 -2 10 -4z m588 -25 c1 -37 -15
-51 -50 -44 -34 6 -35 19 -6 50 31 33 55 30 56 -6z m-1176 -11 c7 -16 16 -30
20 -30 12 0 4 -24 -12 -37 -13 -11 -13 -12 1 -13 21 0 31 -24 16 -39 -14 -14
-6 -14 30 -1 26 9 27 9 9 -5 -11 -8 -32 -15 -48 -15 -18 0 -28 -5 -28 -15 0
-28 -27 -27 -56 1 -19 18 -23 25 -11 21 10 -4 23 -7 28 -7 6 0 7 -4 4 -10 -10
-17 4 -11 25 10 16 16 18 24 9 47 -12 32 -18 123 -8 123 4 0 13 -13 21 -30z
m1603 10 c-3 -5 -16 -10 -28 -9 -21 0 -21 1 -2 9 28 12 37 12 30 0z m-65 -14
c0 -3 -4 -8 -10 -11 -5 -3 -10 -1 -10 4 0 6 5 11 10 11 6 0 10 -2 10 -4z
m-1930 -27 c0 -6 -4 -7 -10 -4 -5 3 -10 11 -10 16 0 6 5 7 10 4 6 -3 10 -11
10 -16z m670 6 c11 -13 10 -14 -4 -9 -9 3 -16 10 -16 15 0 13 6 11 20 -6z
m-732 -51 c-2 -22 -7 -37 -13 -34 -5 3 -8 10 -7 15 2 6 4 25 4 44 0 21 3 30
10 23 5 -5 8 -27 6 -48z m330 26 c-7 -11 -16 -20 -20 -20 -5 0 -3 9 4 20 7 11
16 20 20 20 5 0 3 -9 -4 -20z m1212 6 c0 -2 -7 -7 -16 -10 -8 -3 -12 -2 -9 4
6 10 25 14 25 6z m-1185 -16 c3 -5 1 -10 -4 -10 -6 0 -11 5 -11 10 0 6 2 10 4
10 3 0 8 -4 11 -10z m215 3 c0 -5 -4 -15 -10 -23 -11 -18 -25 -7 -17 15 6 15
27 21 27 8z m-200 -49 c0 -8 -4 -12 -10 -9 -5 3 -10 13 -10 21 0 8 5 12 10 9
6 -3 10 -13 10 -21z m750 -9 c0 -8 5 -15 10 -15 6 0 10 -4 10 -10 0 -5 -7 -10
-15 -10 -8 0 -15 4 -15 9 0 5 -3 16 -6 25 -3 9 -1 16 5 16 6 0 11 -7 11 -15z
m-1272 -47 c9 -9 12 -9 12 0 0 17 27 15 34 -3 4 -11 0 -15 -12 -13 -11 2 -16
-3 -14 -14 2 -11 -3 -18 -14 -18 -10 0 -14 3 -11 7 4 3 -3 17 -15 30 -16 17
-18 23 -7 23 8 0 20 -5 27 -12z m505 -27 c-4 -3 -8 -15 -8 -26 0 -11 -7 -20
-15 -20 -8 0 -15 9 -15 20 0 11 -4 23 -9 26 -20 15 5 28 30 17 13 -6 21 -14
17 -17z m672 20 c3 -5 1 -12 -5 -16 -5 -3 -10 1 -10 9 0 18 6 21 15 7z m58 -4
c-2 -4 -5 -7 -8 -7 -3 0 -12 0 -20 0 -8 0 -15 4 -15 10 0 5 10 8 23 6 12 -1
21 -6 20 -9z m-463 -42 c0 0 -9 -1 -20 -2 -11 -1 -20 2 -20 7 0 5 -3 16 -7 25
-5 14 0 12 20 -6 15 -12 27 -23 27 -24z m110 25 c0 -5 -4 -10 -10 -10 -5 0
-10 5 -10 10 0 6 5 10 10 10 6 0 10 -4 10 -10z m-274 -10 c8 0 14 -4 14 -10 0
-16 -36 -11 -51 7 -12 15 -12 16 4 10 10 -4 25 -7 33 -7z m-506 -118 c0 -7 -5
-10 -10 -7 -6 4 -17 1 -25 -5 -17 -14 -35 -5 -35 17 0 10 6 14 20 10 17 -4 20
0 20 25 0 26 -2 29 -15 18 -10 -8 -15 -9 -15 -2 0 6 8 16 18 21 9 6 13 11 9
11 -5 0 -5 5 -1 12 7 11 33 -67 34 -100z m620 104 c0 -3 -4 -8 -10 -11 -5 -3
-10 -1 -10 4 0 6 5 11 10 11 6 0 10 -2 10 -4z m-586 -30 c3 -13 9 -32 13 -42
4 -12 3 -15 -5 -10 -7 4 -12 2 -12 -3 0 -6 -4 -11 -10 -11 -5 0 -10 7 -10 15
0 8 5 15 10 15 6 0 10 7 10 15 0 8 -7 15 -15 15 -16 0 -20 12 -8 23 12 13 21
7 27 -17z m636 7 c-1 -21 -19 -35 -39 -28 -26 8 -27 22 -3 28 28 8 42 7 42 0z
m-93 -29 c-3 -3 -12 -4 -19 -1 -8 3 -5 6 6 6 11 1 17 -2 13 -5z m623 -14 c0
-5 -4 -10 -10 -10 -5 0 -10 5 -10 10 0 6 5 10 10 10 6 0 10 -4 10 -10z m-547
-17 c-7 -2 -19 -2 -25 0 -7 3 -2 5 12 5 14 0 19 -2 13 -5z m-1163 -18 c0 -8
-2 -15 -4 -15 -2 0 -6 7 -10 15 -3 8 -1 15 4 15 6 0 10 -7 10 -15z m1120 -39
c0 -18 -3 -16 -19 9 -10 17 -16 34 -13 39 7 13 32 -24 32 -48z m-710 34 c0 -5
-4 -10 -10 -10 -5 0 -10 5 -10 10 0 6 5 10 10 10 6 0 10 -4 10 -10z m1110 -10
c0 -5 -2 -10 -4 -10 -3 0 -8 5 -11 10 -3 6 -1 10 4 10 6 0 11 -4 11 -10z
m-955 -30 c3 -5 1 -10 -4 -10 -6 0 -11 5 -11 10 0 6 2 10 4 10 3 0 8 -4 11
-10z m-155 -20 c0 -5 -8 -10 -17 -10 -15 0 -16 2 -3 10 19 12 20 12 20 0z
m267 -22 c-3 -7 -5 -2 -5 12 0 14 2 19 5 13 2 -7 2 -19 0 -25z m-177 7 c0 -8
-7 -15 -16 -15 -14 0 -14 3 -4 15 7 8 14 15 16 15 2 0 4 -7 4 -15z m690 -38
c0 -18 -2 -19 -10 -7 -13 20 -13 43 0 35 6 -3 10 -16 10 -28z m410 -17 c0 -5
-4 -10 -10 -10 -5 0 -10 5 -10 10 0 6 5 10 10 10 6 0 10 -4 10 -10z m-85 -10
c-3 -5 -14 -10 -23 -9 -14 0 -13 2 3 9 27 11 27 11 20 0z m925 0 c0 -5 -4 -10
-10 -10 -5 0 -10 5 -10 10 0 6 5 10 10 10 6 0 10 -4 10 -10z m-1224 -68 c3
-29 9 -36 24 -27 6 4 8 16 4 27 -4 15 -2 19 7 16 8 -3 15 -13 17 -24 7 -41 14
-50 22 -29 8 19 9 19 9 -2 1 -12 6 -25 12 -29 18 -11 38 18 43 65 5 43 16 69
16 39 0 -10 8 -15 23 -14 15 1 21 7 19 19 -2 9 2 17 8 17 5 0 11 -10 12 -22 0
-13 2 -28 2 -35 2 -18 24 -39 23 -22 0 8 1 27 1 43 3 44 16 22 17 -27 1 -24 4
-47 7 -52 11 -17 -4 -105 -17 -105 -19 0 -38 -27 -25 -35 5 -3 10 -15 10 -26
0 -11 7 -27 15 -35 16 -16 21 -49 6 -40 -5 3 -13 0 -19 -7 -8 -9 -4 -12 15
-14 14 0 30 -6 37 -13 8 -9 6 -11 -9 -10 -37 4 -45 0 -45 -20 0 -18 -16 -25
-42 -21 -5 0 -8 -6 -8 -14 0 -8 -4 -15 -10 -15 -5 0 -7 7 -4 15 4 8 1 22 -5
29 -10 11 -8 16 10 21 16 5 18 9 8 15 -10 7 -10 11 0 24 8 9 10 16 6 16 -4 0
-2 7 5 15 8 10 9 15 2 15 -6 0 -9 6 -6 14 3 8 -3 23 -14 34 -11 11 -18 23 -14
26 5 6 -14 10 -32 7 -15 -3 -34 19 -40 49 -5 29 -8 30 -53 27 l-47 -2 -12 70
c-7 39 -13 79 -13 90 -1 18 1 17 16 -5 9 -13 18 -35 19 -48z m2664 7 c0 -12
-27 -11 -35 1 -11 17 5 32 21 19 8 -6 14 -15 14 -20z m-2295 1 c6 -9 -18 -18
-64 -23 -13 -1 -26 3 -28 10 -3 7 10 13 34 16 21 2 41 4 45 5 4 1 10 -2 13 -8z
m-785 -8 c0 -5 -7 -9 -15 -9 -8 0 -15 4 -15 9 0 4 7 8 15 8 8 0 15 -4 15 -8z
m321 -14 c28 -33 41 -67 30 -85 -6 -12 -10 -7 -15 20 -4 19 -13 37 -20 40 -12
5 -30 47 -19 47 3 0 14 -10 24 -22z m2785 -4 c-3 -8 1 -14 9 -14 8 0 15 -8 15
-18 0 -28 -10 -33 -30 -14 -14 14 -18 42 -11 70 1 2 6 0 12 -3 6 -4 8 -13 5
-21z m-322 -9 c-9 -14 -20 -25 -25 -25 -16 0 -10 29 9 39 28 17 33 12 16 -14z
m270 19 c20 -8 21 -24 2 -24 -8 0 -16 7 -20 15 -6 17 -4 18 18 9z m-2919 -21
c-9 -24 -13 -43 -14 -70 -1 -36 -18 -27 -24 13 -7 42 -1 61 21 67 10 3 19 5
21 6 2 0 0 -7 -4 -16z m2702 -8 c-4 -8 -11 -15 -17 -15 -14 0 -13 27 3 33 16
6 21 1 14 -18z m68 5 c35 -17 45 -28 45 -54 0 -15 -3 -16 -15 -6 -8 7 -15 18
-15 25 0 8 -13 16 -30 20 -17 4 -30 13 -30 22 0 8 3 13 8 11 4 -2 21 -10 37
-18z m-3930 0 c-3 -5 -10 -10 -16 -10 -5 0 -9 5 -9 10 0 6 7 10 16 10 8 0 12
-4 9 -10z m1805 -14 c0 -2 -7 -6 -15 -10 -8 -3 -15 -1 -15 4 0 6 7 10 15 10 8
0 15 -2 15 -4z m777 -22 c-3 -3 -12 -4 -19 -1 -8 3 -5 6 6 6 11 1 17 -2 13 -5z
m1343 -8 c0 -3 -4 -8 -10 -11 -5 -3 -10 -1 -10 4 0 6 5 11 10 11 6 0 10 -2 10
-4z m-2930 -13 c-1 -18 -19 -35 -29 -28 -9 5 -7 11 6 21 21 16 23 16 23 7z
m347 1 c-3 -3 -12 -4 -19 -1 -8 3 -5 6 6 6 11 1 17 -2 13 -5z m-427 -54 c5 0
10 -8 10 -17 -1 -15 -4 -14 -20 6 -11 13 -20 31 -19 40 0 11 3 9 9 -6 5 -13
14 -23 20 -23z m2140 20 c0 -5 -7 -10 -16 -10 -8 0 -12 5 -9 10 3 6 10 10 16
10 5 0 9 -4 9 -10z m-105 -50 c4 -6 -5 -10 -19 -10 -18 0 -26 -5 -26 -17 0
-13 -3 -14 -11 -6 -7 7 -9 19 -6 27 7 18 52 22 62 6z m52 4 c-3 -3 -12 -4 -19
-1 -8 3 -5 6 6 6 11 1 17 -2 13 -5z m43 -45 c0 -11 5 -19 10 -19 6 0 10 -9 10
-21 0 -14 -4 -18 -12 -12 -21 13 -37 12 -32 -2 7 -16 -24 -14 -34 2 -10 15
-62 4 -62 -13 0 -8 -4 -14 -10 -14 -14 0 1 33 22 48 10 7 16 18 13 23 -4 5 1
9 9 9 9 0 16 -7 16 -15 0 -20 16 -19 24 1 3 8 2 12 -4 9 -6 -3 -10 1 -10 9 0
9 7 16 15 16 8 0 15 5 15 11 0 8 5 8 15 -1 8 -7 15 -21 15 -31z m555 21 c3 -5
1 -10 -4 -10 -6 0 -11 5 -11 10 0 6 2 10 4 10 3 0 8 -4 11 -10z m143 -18 c2
-7 -6 -12 -17 -12 -21 0 -27 11 -14 24 9 9 26 2 31 -12z m-2795 -11 c3 -14 -2
-20 -19 -24 -29 -5 -33 -1 -27 24 7 25 39 25 46 0z m1716 -12 c-10 -6 -7 -9
11 -10 18 -1 20 -3 7 -6 -24 -6 -18 -35 10 -49 51 -25 110 -144 72 -144 -6 0
-9 -7 -6 -15 4 -8 2 -17 -3 -20 -6 -4 -10 -14 -10 -25 0 -13 -5 -17 -20 -13
-11 3 -20 0 -20 -6 0 -6 -3 -10 -7 -9 -5 1 -18 -3 -31 -10 -28 -16 -78 -12
-75 6 2 6 -5 12 -14 12 -13 0 -14 3 -5 12 15 15 16 32 2 23 -5 -3 -10 0 -10 7
0 16 92 60 134 63 15 2 35 10 44 19 17 17 15 18 -38 30 -17 3 -31 17 -42 41
-8 19 -12 35 -8 35 5 0 3 11 -3 25 -13 27 -32 33 -40 11 -6 -16 -61 -26 -79
-14 -7 4 -8 8 -3 9 41 4 72 12 85 23 19 17 42 25 54 18 4 -2 2 -8 -5 -13z
m-209 1 c0 -5 -5 -10 -11 -10 -5 0 -7 5 -4 10 3 6 8 10 11 10 2 0 4 -4 4 -10z
m2065 0 c8 -13 -14 -42 -26 -34 -5 3 -8 0 -7 -6 2 -7 -6 -17 -17 -23 -10 -7
-28 -22 -38 -35 -10 -12 -22 -20 -27 -17 -4 3 -11 -2 -14 -11 -4 -10 -12 -14
-23 -10 -10 4 -14 4 -10 0 8 -8 -11 -34 -25 -34 -6 0 -4 8 3 17 10 11 10 14 2
9 -8 -4 -13 -1 -13 8 0 9 4 16 10 16 5 0 7 6 4 14 -3 9 3 17 16 21 12 4 50 27
84 51 66 47 72 49 81 34z m-3195 -47 c0 -7 -4 -13 -9 -13 -10 0 -21 25 -21 48
1 15 3 14 15 -2 8 -11 15 -26 15 -33z m2186 32 c-8 -8 -18 -15 -22 -15 -3 0
-1 7 6 15 7 8 17 15 22 15 5 0 3 -7 -6 -15z m-2574 -57 c-10 -10 -15 -10 -23
2 -8 11 -12 12 -16 3 -6 -17 -34 -17 -27 0 8 22 47 35 64 20 11 -10 12 -15 2
-25z m413 23 c3 -5 1 -12 -5 -16 -5 -3 -10 1 -10 9 0 18 6 21 15 7z m120 -1
c3 -5 1 -10 -4 -10 -6 0 -11 5 -11 10 0 6 2 10 4 10 3 0 8 -4 11 -10z m1400
-11 c-4 -5 -13 -9 -21 -9 -8 0 -12 -4 -9 -10 3 -5 16 -10 28 -10 19 -1 20 -2
6 -13 -9 -7 -34 -12 -55 -12 -33 0 -38 3 -36 19 5 26 24 43 53 48 29 5 41 0
34 -13z m108 0 c4 -15 11 -20 21 -16 9 4 16 2 16 -3 0 -16 -28 -12 -50 7 -23
20 -26 33 -6 33 7 0 16 -10 19 -21z m-353 -9 c0 -5 -12 -10 -27 -10 -22 0 -25
2 -13 10 20 13 40 13 40 0z m-1555 -45 c24 -26 36 -50 42 -89 l10 -54 -39 2
c-29 1 -38 5 -38 19 0 19 -15 23 -26 6 -3 -6 -17 -9 -30 -6 -16 3 -24 0 -24
-9 0 -8 -5 -14 -11 -14 -6 0 -9 -6 -6 -13 4 -10 -1 -13 -16 -10 -15 3 -25 -2
-32 -17 -15 -32 -82 -67 -97 -52 -18 18 4 47 35 47 23 -1 25 3 25 44 0 24 -3
54 -8 66 -5 14 -4 27 3 34 14 14 30 15 22 1 -8 -13 44 9 68 28 11 10 17 11 17
4 0 -7 5 -12 11 -12 5 0 7 5 4 10 -3 6 2 13 12 17 10 3 22 12 26 20 11 19 14
17 52 -22z m325 25 c0 -5 -4 -10 -10 -10 -5 0 -10 5 -10 10 0 6 5 10 10 10 6
0 10 -4 10 -10z m184 -40 c7 -24 6 -24 -8 -6 -9 11 -16 27 -16 35 0 21 16 2
24 -29z m1911 30 c-3 -5 -10 -10 -16 -10 -5 0 -9 5 -9 10 0 6 7 10 16 10 8 0
12 -4 9 -10z m35 6 c0 -3 -4 -8 -10 -11 -5 -3 -10 -1 -10 4 0 6 5 11 10 11 6
0 10 -2 10 -4z m-2136 -48 c8 -31 -3 -42 -24 -23 -16 15 -18 15 -24 0 -9 -23
3 -38 25 -32 11 3 19 3 19 0 0 -11 -30 -33 -44 -33 -9 0 -16 -4 -16 -10 0 -5
14 -10 31 -10 17 0 28 -4 24 -10 -3 -5 -3 -10 2 -10 4 0 14 -4 22 -9 12 -8 12
-12 2 -25 -17 -20 -51 -21 -51 -1 0 8 -4 15 -10 15 -15 0 -12 -35 7 -75 21
-44 10 -57 -50 -61 -42 -2 -44 -1 -45 27 0 16 3 27 8 24 5 -3 14 4 20 15 8 15
8 20 -1 20 -6 0 -9 7 -5 15 3 8 -4 24 -16 35 -25 23 -43 123 -27 152 13 24 36
23 44 -2 3 -11 11 -20 16 -20 5 0 9 -12 9 -27 0 -22 2 -25 10 -13 5 8 10 30
10 48 0 18 4 31 9 27 5 -3 12 -1 16 4 9 15 32 2 39 -21z m106 0 c0 -5 -4 -8
-10 -8 -5 0 -10 10 -10 23 0 18 2 19 10 7 5 -8 10 -18 10 -22z m2608 -14 c-4
-3 -12 5 -18 18 -12 22 -12 22 6 6 10 -10 15 -20 12 -24z m-1167 16 c24 0 42
-7 54 -20 18 -20 18 -21 -1 -15 -18 6 -18 6 -1 -8 19 -16 23 -37 7 -37 -5 0
-10 6 -10 14 0 7 -9 16 -19 19 -29 7 -35 -5 -10 -19 20 -10 15 -13 -43 -23
-83 -14 -81 -14 -75 9 3 12 0 20 -8 20 -7 0 -18 7 -25 15 -10 13 -9 19 6 36
15 16 26 19 54 14 19 -3 51 -6 71 -5z m534 0 c3 -5 1 -10 -4 -10 -6 0 -11 5
-11 10 0 6 2 10 4 10 3 0 8 -4 11 -10z m-1875 -40 c0 -11 -4 -20 -10 -20 -5 0
-10 2 -10 4 0 2 -3 11 -6 20 -4 11 -1 16 10 16 9 0 16 -8 16 -20z m-760 -11
c0 -6 -4 -7 -10 -4 -5 3 -10 11 -10 16 0 6 5 7 10 4 6 -3 10 -11 10 -16z m669
-5 c3 -16 1 -17 -13 -5 -19 16 -21 34 -3 29 6 -3 14 -13 16 -24z m986 -4 c3
-5 1 -10 -4 -10 -6 0 -11 5 -11 10 0 6 2 10 4 10 3 0 8 -4 11 -10z m-1665 -24
c0 -8 -4 -17 -9 -20 -10 -7 -23 19 -14 28 11 11 23 6 23 -8z m814 -30 c-8 -33
-25 -41 -53 -26 -27 14 -28 50 -1 50 18 0 25 -10 21 -32 0 -5 4 -8 9 -8 6 0
10 14 10 32 0 22 3 29 11 21 6 -6 7 -22 3 -37z m1396 40 c0 -3 -4 -8 -10 -11
-5 -3 -10 -1 -10 4 0 6 5 11 10 11 6 0 10 -2 10 -4z m-1505 -58 c24 -53 31
-59 75 -57 42 2 70 -8 70 -26 0 -21 11 -24 60 -15 48 9 70 0 70 -28 0 -12 -3
-13 -12 -4 -18 18 -59 15 -123 -10 -40 -15 -52 -24 -43 -30 10 -8 10 -11 1
-15 -16 -6 -17 -33 -2 -33 5 0 7 5 3 11 -5 8 -1 8 14 0 14 -7 18 -17 15 -31
-4 -14 0 -20 11 -20 20 0 20 -7 1 -26 -16 -17 -14 -19 -30 31 -8 25 -23 17
-17 -10 2 -14 0 -25 -6 -25 -6 0 -14 17 -18 37 -6 31 -8 34 -14 18 -6 -15 -9
-10 -15 24 -6 39 -9 43 -20 28 -15 -21 -45 -22 -45 -3 0 15 -20 15 -73 1 -22
-6 -31 -3 -42 11 -17 25 -3 43 30 36 20 -3 25 0 25 17 0 11 5 21 10 21 6 0 9
-3 9 -7 -4 -27 2 -33 21 -23 14 7 19 17 15 29 -3 9 1 26 9 36 8 12 11 26 6 35
-11 23 -21 82 -12 76 5 -3 17 -24 27 -48z m2209 17 c-4 -8 -8 -15 -10 -15 -2
0 -4 7 -4 15 0 8 4 15 10 15 5 0 7 -7 4 -15z m-764 -5 c0 -5 -7 -10 -16 -10
-8 0 -12 5 -9 10 3 6 10 10 16 10 5 0 9 -4 9 -10z m800 -10 c0 -5 -5 -10 -11
-10 -5 0 -7 5 -4 10 3 6 8 10 11 10 2 0 4 -4 4 -10z m668 -33 c2 -11 -3 -17
-16 -17 -15 0 -19 5 -15 20 6 24 26 21 31 -3z m-698 3 c0 -5 -4 -10 -9 -10 -6
0 -13 5 -16 10 -3 6 1 10 9 10 9 0 16 -4 16 -10z m-2704 -125 c12 -18 20 -22
32 -16 19 11 52 2 52 -14 0 -14 -96 -44 -122 -37 -20 5 -34 35 -19 40 6 2 11
10 11 18 0 8 5 14 11 14 5 0 7 5 4 10 -14 22 16 8 31 -15z m2774 11 c0 -3 -4
-8 -10 -11 -5 -3 -10 -1 -10 4 0 6 5 11 10 11 6 0 10 -2 10 -4z m-2842 -24 c2
-7 -3 -12 -12 -12 -9 0 -16 7 -16 16 0 17 22 14 28 -4z m-34 -11 c9 -7 13 -18
10 -23 -4 -5 -13 -3 -22 5 -10 8 -23 12 -29 10 -7 -3 -13 -1 -13 5 0 23 27 25
54 3z m3163 -3 c-3 -8 -6 -5 -6 6 -1 11 2 17 5 13 3 -3 4 -12 1 -19z m-3219
-22 c-1 -1 -20 -15 -40 -30 -21 -16 -38 -24 -38 -19 0 5 3 13 8 17 4 4 7 11 8
14 3 23 19 42 30 38 8 -3 14 0 14 7 0 7 5 4 11 -6 6 -10 9 -20 7 -21z m-68 10
c0 -2 -8 -10 -17 -17 -16 -13 -17 -12 -4 4 13 16 21 21 21 13z m123 -79 c4
-11 1 -28 -8 -40 l-15 -21 0 21 c0 23 -20 43 -20 21 0 -8 -5 -6 -11 5 -5 9
-17 17 -25 17 -8 0 -12 -4 -9 -10 3 -5 2 -10 -4 -10 -22 0 -18 18 10 49 l30
33 23 -23 c12 -13 26 -32 29 -42z m1207 45 c0 -4 -5 -13 -11 -19 -9 -9 -9 -23
0 -58 8 -32 8 -51 1 -65 -9 -17 -8 -20 10 -20 11 0 20 -5 20 -11 0 -6 6 -7 13
-2 6 4 4 -5 -6 -21 -13 -20 -15 -31 -8 -40 6 -7 8 -16 4 -19 -12 -13 -51 -7
-57 9 -3 8 -10 12 -16 9 -5 -3 -10 1 -10 9 0 13 -4 12 -20 -4 -11 -11 -20 -24
-20 -30 0 -5 -12 -10 -27 -11 -43 -1 -85 -9 -106 -21 -30 -16 -46 7 -20 29 11
10 22 25 25 33 4 11 9 8 18 -11 7 -16 19 -25 29 -23 62 12 71 16 71 31 0 13
-3 14 -12 5 -15 -15 -58 -16 -58 -2 0 6 7 10 15 10 8 0 22 11 31 25 9 14 23
25 31 25 8 0 12 4 9 9 -12 19 -14 84 -3 98 43 54 97 90 97 65z m2367 -34 c-3
-7 -5 -2 -5 12 0 14 2 19 5 13 2 -7 2 -19 0 -25z m-4782 12 c-3 -5 1 -25 9
-45 11 -25 21 -35 38 -36 52 -1 -27 -20 -94 -23 -62 -2 -69 0 -91 25 -21 24
-22 29 -8 31 9 2 24 -8 33 -22 10 -14 18 -19 18 -12 0 6 6 12 13 12 17 1 63
41 70 63 4 9 9 17 12 17 4 0 4 -4 0 -10z m1270 -37 c26 -43 29 -45 41 -28 13
17 14 17 14 2 0 -9 -5 -17 -12 -17 -6 0 -3 -7 8 -16 10 -8 13 -13 7 -9 -7 3
-13 1 -13 -4 0 -6 -15 -10 -32 -10 -31 2 -31 2 -5 6 29 5 38 23 11 23 -9 0
-18 9 -21 20 -6 23 -31 27 -39 5 -4 -8 -10 -15 -15 -15 -5 0 -2 11 6 24 9 13
15 28 14 32 -2 14 1 34 5 34 2 0 16 -21 31 -47z m-269 -1 c-17 -16 -18 -16 -5
5 7 12 15 20 18 17 3 -2 -3 -12 -13 -22z m3724 18 c0 -5 -5 -10 -11 -10 -5 0
-7 5 -4 10 3 6 8 10 11 10 2 0 4 -4 4 -10z m25 -9 c3 -5 1 -12 -5 -16 -5 -3
-10 1 -10 9 0 18 6 21 15 7z m-2895 -28 c1 -5 6 -14 12 -21 12 -14 5 -25 -17
-28 -11 -2 -15 8 -15 33 0 29 13 40 20 16z m-705 -12 c3 -5 1 -12 -5 -16 -5
-3 -10 1 -10 9 0 18 6 21 15 7z m3418 -11 c-3 -12 -8 -19 -11 -16 -5 6 5 36
12 36 2 0 2 -9 -1 -20z m-2743 6 c0 -3 -4 -8 -10 -11 -5 -3 -10 -1 -10 4 0 6
5 11 10 11 6 0 10 -2 10 -4z m116 -31 c19 -17 24 -25 14 -26 -8 -1 -4 -5 10
-9 24 -8 23 -8 -7 -9 -18 -1 -33 4 -33 9 0 6 -9 10 -19 10 -26 0 -35 16 -19
34 18 20 20 20 54 -9z m2963 -11 c2 -2 -18 -4 -45 -3 -36 0 -44 3 -29 9 18 7
63 3 74 -6z m-3136 -14 c-3 -12 -8 -19 -11 -16 -5 6 5 36 12 36 2 0 2 -9 -1
-20z m62 -27 l2 -38 -14 33 c-7 18 -11 38 -7 43 10 16 16 3 19 -38z m331 11
c8 3 14 -1 14 -8 0 -9 -7 -12 -20 -9 -13 3 -20 13 -19 27 1 18 2 18 6 3 3 -11
11 -16 19 -13z m2087 11 c-3 -9 -8 -14 -10 -11 -3 3 -2 9 2 15 9 16 15 13 8
-4z m-3883 -5 c0 -5 -2 -10 -4 -10 -3 0 -8 5 -11 10 -3 6 -1 10 4 10 6 0 11
-4 11 -10z m-270 -10 c0 -5 -5 -10 -11 -10 -5 0 -7 5 -4 10 3 6 8 10 11 10 2
0 4 -4 4 -10z m130 -5 c0 -8 -4 -15 -10 -15 -5 0 -10 7 -10 15 0 8 5 15 10 15
6 0 10 -7 10 -15z m4147 0 c0 -8 -4 -15 -9 -15 -4 0 -8 7 -8 15 0 8 4 15 8 15
5 0 9 -7 9 -15z m-2153 -21 c5 -14 4 -15 -9 -4 -17 14 -19 20 -6 20 5 0 12 -7
15 -16z m2011 6 c-3 -5 -15 -10 -26 -10 -11 0 -17 5 -14 10 3 6 15 10 26 10
11 0 17 -4 14 -10z m145 -24 c0 -3 -4 -8 -10 -11 -5 -3 -10 -1 -10 4 0 6 5 11
10 11 6 0 10 -2 10 -4z m-2730 -10 c0 -3 -4 -8 -10 -11 -5 -3 -10 -1 -10 4 0
6 5 11 10 11 6 0 10 -2 10 -4z m3190 -18 c0 -13 -23 -5 -28 10 -2 7 2 10 12 6
9 -3 16 -11 16 -16z m-3690 8 c0 -2 -8 -10 -17 -17 -16 -13 -17 -12 -4 4 13
16 21 21 21 13z m788 -19 c17 -18 19 -26 10 -35 -17 -17 -31 -15 -51 8 -17 21
-13 50 7 50 7 0 22 -10 34 -23z m-1578 -17 c0 -11 -2 -20 -4 -20 -2 0 -6 9 -9
20 -3 11 -1 20 4 20 5 0 9 -9 9 -20z m830 10 c0 -5 -5 -10 -11 -10 -5 0 -7 5
-4 10 3 6 8 10 11 10 2 0 4 -4 4 -10z m3720 0 c0 -5 -7 -10 -16 -10 -8 0 -12
5 -9 10 3 6 10 10 16 10 5 0 9 -4 9 -10z m-3235 -9 c7 -12 -12 -24 -25 -16
-11 7 -4 25 10 25 5 0 11 -4 15 -9z m2305 -31 c0 -5 -4 -10 -10 -10 -5 0 -10
5 -10 10 0 6 5 10 10 10 6 0 10 -4 10 -10z m-2580 -4 c0 -3 -4 -8 -10 -11 -5
-3 -10 -1 -10 4 0 6 5 11 10 11 6 0 10 -2 10 -4z m2945 -56 c-3 -5 -16 -10
-28 -9 -21 0 -21 1 -2 9 28 12 37 12 30 0z m-219 -57 c-8 -15 -15 -25 -16 -21
0 12 23 58 27 54 3 -2 -2 -17 -11 -33z m784 2 c0 -14 -4 -25 -9 -25 -4 0 -6
11 -3 25 2 14 6 25 8 25 2 0 4 -11 4 -25z m-637 -35 c10 -16 14 -30 10 -30 -5
0 -17 14 -26 30 -10 17 -14 30 -10 30 5 0 17 -13 26 -30z m-17 -49 c-10 -16
-23 -13 -29 7 -2 9 -8 26 -12 37 -6 17 -3 16 20 -6 15 -15 24 -32 21 -38z
m-175 2 c-8 -15 -10 -15 -11 -2 0 17 10 32 18 25 2 -3 -1 -13 -7 -23z m-3464
-15 c-3 -8 -6 -5 -6 6 -1 11 2 17 5 13 3 -3 4 -12 1 -19z m3278 -68 c-3 -5
-10 -10 -16 -10 -5 0 -9 5 -9 10 0 6 7 10 16 10 8 0 12 -4 9 -10z m519 -126
c5 -14 4 -15 -9 -4 -17 14 -19 20 -6 20 5 0 12 -7 15 -16z m-4010 -184 c-33
-46 -54 -68 -54 -56 0 2 6 11 13 18 6 7 25 30 40 51 42 55 43 45 1 -13z m-484
-24 c0 -15 -29 -30 -39 -20 -3 3 3 12 13 20 24 17 26 17 26 0z m297 -8 c-3 -8
-6 -5 -6 6 -1 11 2 17 5 13 3 -3 4 -12 1 -19z m-20 -115 c-3 -10 -5 -2 -5 17
0 19 2 27 5 18 2 -10 2 -26 0 -35z m1233 -93 c0 -5 -8 -10 -17 -10 -15 0 -16
2 -3 10 19 12 20 12 20 0z m-60 -24 c0 -3 -4 -8 -10 -11 -5 -3 -10 -1 -10 4 0
6 5 11 10 11 6 0 10 -2 10 -4z m1300 -6 c0 -5 -5 -10 -11 -10 -5 0 -7 5 -4 10
3 6 8 10 11 10 2 0 4 -4 4 -10z m-1350 -44 c0 -3 -4 -8 -10 -11 -5 -3 -10 -1
-10 4 0 6 5 11 10 11 6 0 10 -2 10 -4z m1430 -6 c0 -5 -4 -10 -9 -10 -6 0 -13
5 -16 10 -3 6 1 10 9 10 9 0 16 -4 16 -10z m-1518 -52 c-7 -7 -12 -8 -12 -2 0
14 12 26 19 19 2 -3 -1 -11 -7 -17z m1643 -48 c3 -5 2 -10 -4 -10 -5 0 -13 5
-16 10 -3 6 -2 10 4 10 5 0 13 -4 16 -10z m125 -51 c0 -5 -9 -13 -20 -19 -16
-9 -20 -8 -20 5 0 9 -4 14 -9 10 -5 -3 -12 -1 -16 5 -3 5 9 9 30 8 19 -1 35
-5 35 -9z m-150 -3 c0 -2 -7 -6 -15 -10 -8 -3 -15 -1 -15 4 0 6 7 10 15 10 8
0 15 -2 15 -4z m170 -41 c0 -9 -57 -34 -64 -28 -12 12 -6 25 9 20 8 -4 17 -2
20 3 6 10 35 14 35 5z"/>
<path d="M2140 2600 c-13 -8 -12 -10 3 -10 9 0 17 5 17 10 0 12 -1 12 -20 0z"/>
<path d="M2280 2461 c0 -5 5 -13 10 -16 6 -3 10 -2 10 4 0 5 -4 13 -10 16 -5
3 -10 2 -10 -4z"/>
<path d="M2835 2720 c-3 -5 -1 -10 4 -10 6 0 11 5 11 10 0 6 -2 10 -4 10 -3 0
-8 -4 -11 -10z"/>
<path d="M3140 1705 c0 -14 5 -25 10 -25 6 0 10 8 10 19 0 14 6 17 25 13 15
-2 25 0 25 7 0 6 -16 11 -35 11 -31 0 -35 -3 -35 -25z"/>
<path d="M1770 1730 c0 -5 5 -10 10 -10 6 0 10 5 10 10 0 6 -4 10 -10 10 -5 0
-10 -4 -10 -10z"/>
<path d="M2540 1335 c0 -8 5 -15 10 -15 6 0 10 7 10 15 0 8 -4 15 -10 15 -5 0
-10 -7 -10 -15z"/>
<path d="M2380 1190 c0 -5 4 -10 9 -10 6 0 13 5 16 10 3 6 -1 10 -9 10 -9 0
-16 -4 -16 -10z"/>
<path d="M1062 3504 c-7 -8 -8 -14 -3 -14 10 0 25 19 20 25 -2 1 -10 -3 -17
-11z"/>
<path d="M1659 3464 c-8 -29 0 -39 32 -39 18 -1 25 4 22 12 -3 8 -13 11 -23 8
-14 -4 -19 0 -22 17 -3 23 -3 23 -9 2z"/>
<path d="M3099 3365 c17 -34 31 -51 31 -39 0 7 -9 22 -21 35 -16 19 -18 20
-10 4z"/>
<path d="M1851 3366 c2 -2 14 -9 26 -15 19 -10 22 -9 17 4 -4 8 -15 15 -27 15
-11 0 -18 -2 -16 -4z"/>
<path d="M1311 3334 c0 -11 3 -14 6 -6 3 7 2 16 -1 19 -3 4 -6 -2 -5 -13z"/>
<path d="M1890 3320 c0 -5 5 -10 10 -10 6 0 10 5 10 10 0 6 -4 10 -10 10 -5 0
-10 -4 -10 -10z"/>
<path d="M1320 3302 c0 -4 9 -13 20 -20 16 -10 20 -10 20 2 0 8 -7 17 -16 20
-20 8 -24 8 -24 -2z"/>
<path d="M1470 3300 c0 -5 5 -10 11 -10 5 0 7 5 4 10 -3 6 -8 10 -11 10 -2 0
-4 -4 -4 -10z"/>
<path d="M2905 3300 c-3 -5 -1 -10 4 -10 6 0 11 5 11 10 0 6 -2 10 -4 10 -3 0
-8 -4 -11 -10z"/>
<path d="M2960 3290 c0 -5 5 -10 10 -10 6 0 10 5 10 10 0 6 -4 10 -10 10 -5 0
-10 -4 -10 -10z"/>
<path d="M3226 3265 c4 -8 7 -15 9 -15 2 0 5 7 9 15 3 9 0 15 -9 15 -9 0 -12
-6 -9 -15z"/>
<path d="M2956 3255 c-3 -8 -1 -15 3 -15 5 0 7 -10 5 -22 -2 -13 -2 -17 2 -10
3 6 10 10 15 6 5 -3 9 9 9 25 0 33 -23 43 -34 16z"/>
<path d="M3120 3250 c0 -5 5 -10 11 -10 5 0 7 5 4 10 -3 6 -8 10 -11 10 -2 0
-4 -4 -4 -10z"/>
<path d="M1895 3181 c-8 -7 -6 -21 3 -21 5 0 17 6 28 14 18 14 18 15 -4 13
-13 -1 -25 -3 -27 -6z"/>
<path d="M3585 3180 c3 -5 10 -10 16 -10 5 0 9 5 9 10 0 6 -7 10 -16 10 -8 0
-12 -4 -9 -10z"/>
<path d="M3330 3144 c0 -14 3 -14 15 -4 8 7 15 14 15 16 0 2 -7 4 -15 4 -8 0
-15 -7 -15 -16z"/>
<path d="M3450 3150 l-35 -8 43 1 c23 0 42 5 42 9 0 9 1 9 -50 -2z"/>
<path d="M3540 3139 c0 -14 44 -17 62 -4 18 12 16 13 -21 12 -23 -1 -41 -5
-41 -8z"/>
<path d="M3528 3109 c-10 -5 -18 -7 -18 -2 0 4 -7 -3 -16 -15 -13 -18 -19 -21
-30 -11 -8 7 -14 7 -14 1 0 -15 23 -30 50 -34 14 -2 30 -6 35 -10 6 -4 17 -3
25 3 12 7 10 9 -7 9 -12 0 -27 9 -33 20 -8 16 -8 20 4 20 7 0 16 7 20 15 6 17
6 17 -16 4z"/>
<path d="M1820 3100 c0 -5 9 -10 21 -10 11 0 17 5 14 10 -3 6 -13 10 -21 10
-8 0 -14 -4 -14 -10z"/>
<path d="M2100 3080 c0 -5 7 -7 15 -4 8 4 15 8 15 10 0 2 -7 4 -15 4 -8 0 -15
-4 -15 -10z"/>
<path d="M1921 3063 c-1 -17 16 -25 25 -12 4 7 3 9 -4 5 -5 -3 -13 0 -15 6 -4
9 -6 10 -6 1z"/>
<path d="M1995 3040 c27 -12 43 -12 25 0 -8 5 -22 9 -30 9 -10 0 -8 -3 5 -9z"/>
<path d="M2055 3019 c6 -30 15 -37 15 -11 0 11 -4 23 -9 27 -6 3 -8 -4 -6 -16z"/>
<path d="M2930 2970 c0 -5 4 -10 9 -10 6 0 13 5 16 10 3 6 -1 10 -9 10 -9 0
-16 -4 -16 -10z"/>
<path d="M1925 2960 c-3 -5 1 -10 9 -10 9 0 16 5 16 10 0 6 -4 10 -9 10 -6 0
-13 -4 -16 -10z"/>
<path d="M3490 2954 c0 -2 14 -11 31 -19 29 -16 31 -15 27 2 -2 12 -13 18 -31
19 -15 1 -27 0 -27 -2z"/>
<path d="M1910 2929 c0 -5 5 -7 10 -4 6 3 10 8 10 11 0 2 -4 4 -10 4 -5 0 -10
-5 -10 -11z"/>
<path d="M2060 2923 c0 -5 5 -15 10 -23 8 -12 10 -11 10 8 0 12 -4 22 -10 22
-5 0 -10 -3 -10 -7z"/>
<path d="M2770 2889 c0 -5 5 -7 10 -4 6 3 10 8 10 11 0 2 -4 4 -10 4 -5 0 -10
-5 -10 -11z"/>
<path d="M2070 2850 c-9 -6 -10 -10 -3 -10 6 0 15 5 18 10 8 12 4 12 -15 0z"/>
<path d="M2026 2785 c4 -8 8 -15 10 -15 2 0 4 7 4 15 0 8 -4 15 -10 15 -5 0
-7 -7 -4 -15z"/>
<path d="M2950 2730 c0 -6 7 -10 15 -10 8 0 15 2 15 4 0 2 -7 6 -15 10 -8 3
-15 1 -15 -4z"/>
<path d="M3110 2689 c0 -5 5 -7 10 -4 6 3 10 8 10 11 0 2 -4 4 -10 4 -5 0 -10
-5 -10 -11z"/>
<path d="M3080 2680 c0 -5 5 -10 11 -10 5 0 7 5 4 10 -3 6 -8 10 -11 10 -2 0
-4 -4 -4 -10z"/>
<path d="M3465 2590 c3 -5 10 -10 16 -10 5 0 9 5 9 10 0 6 -7 10 -16 10 -8 0
-12 -4 -9 -10z"/>
<path d="M3530 2490 c0 -5 5 -10 11 -10 5 0 7 5 4 10 -3 6 -8 10 -11 10 -2 0
-4 -4 -4 -10z"/>
<path d="M3270 2461 c0 -33 14 -42 24 -15 3 8 -1 22 -9 30 -13 14 -15 12 -15
-15z"/>
<path d="M3280 2406 c0 -8 4 -17 9 -20 5 -4 7 3 4 14 -6 23 -13 26 -13 6z"/>
<path d="M3426 2313 c-17 -4 -16 -6 5 -17 17 -9 26 -9 31 -2 17 25 7 30 -36
19z"/>
<path d="M3497 2279 c-4 -16 -3 -18 9 -8 16 13 19 29 5 29 -5 0 -11 -9 -14
-21z"/>
<path d="M3517 2266 c-4 -10 -1 -13 9 -9 7 3 14 9 14 14 0 14 -17 10 -23 -5z"/>
<path d="M3415 2260 c3 -5 8 -10 11 -10 2 0 4 5 4 10 0 6 -5 10 -11 10 -5 0
-7 -4 -4 -10z"/>
<path d="M3451 2253 c0 -10 4 -27 8 -38 7 -18 8 -17 13 6 2 13 3 30 0 37 -6
18 -22 14 -21 -5z"/>
<path d="M3560 2220 c-8 -5 -10 -10 -5 -10 6 0 17 5 25 10 8 5 11 10 5 10 -5
0 -17 -5 -25 -10z"/>
<path d="M3320 2210 c-8 -5 -12 -12 -9 -15 4 -3 12 1 19 10 14 17 11 19 -10 5z"/>
<path d="M3323 2173 c9 -2 25 -2 35 0 9 3 1 5 -18 5 -19 0 -27 -2 -17 -5z"/>
<path d="M3225 2160 c4 -6 11 -8 16 -5 14 9 11 15 -7 15 -8 0 -12 -5 -9 -10z"/>
<path d="M3339 2128 c-9 -30 -5 -38 19 -38 15 0 34 5 42 10 12 8 11 10 -7 10
-12 0 -25 5 -28 10 -5 9 -24 14 -26 8z"/>
<path d="M3978 2063 c7 -3 16 -2 19 1 4 3 -2 6 -13 5 -11 0 -14 -3 -6 -6z"/>
<path d="M5047 2012 c-18 -19 -17 -20 15 -24 23 -4 36 0 45 11 14 19 7 29 -9
13 -16 -16 -26 -15 -30 4 -3 14 -5 13 -21 -4z"/>
<path d="M3884 1969 c-10 -16 18 -30 34 -17 11 9 11 13 0 19 -18 12 -26 11
-34 -2z"/>
<path d="M3805 1940 c3 -5 8 -10 11 -10 2 0 4 5 4 10 0 6 -5 10 -11 10 -5 0
-7 -4 -4 -10z"/>
<path d="M5070 1939 c0 -5 5 -7 10 -4 6 3 10 8 10 11 0 2 -4 4 -10 4 -5 0 -10
-5 -10 -11z"/>
<path d="M3830 1932 c0 -5 11 -12 25 -15 16 -3 24 0 22 7 -4 14 -47 21 -47 8z"/>
<path d="M3690 1910 c0 -5 4 -10 9 -10 6 0 13 5 16 10 3 6 -1 10 -9 10 -9 0
-16 -4 -16 -10z"/>
<path d="M5030 1910 c0 -5 5 -10 11 -10 5 0 7 5 4 10 -3 6 -8 10 -11 10 -2 0
-4 -4 -4 -10z"/>
</g>
</svg>
