<svg xmlns="http://www.w3.org/2000/svg" xmlns:xlink="http://www.w3.org/1999/xlink" width="180.232" height="188.833" viewBox="0 0 135.174 141.625"><defs><path id="a" d="M5.625-.156c-.578-.047-.625-.14-.766-.86l-.937-5.64h-.25L.782-1.672C-.017-.344-.11-.234-.517-.156V0H1.36v-.156C.844-.203.766-.266.766-.516c0-.187.03-.265.203-.609L1.53-2.25h2.203l.188 1.297c.015.094.031.187.031.265 0 .375-.14.47-.781.532V0h2.453ZM1.75-2.61l1.484-2.594.438 2.594Zm0 0"/><path id="b" d="m6.5-4.64.375-1.985h-.219c-.078.172-.172.219-.375.219a2 2 0 0 1-.406-.063c-.453-.11-.844-.172-1.172-.172-2.125 0-4.047 2-4.047 4.22 0 1.53 1.078 2.593 2.61 2.593 1.015 0 1.812-.438 2.718-1.484l-.171-.141c-.891.89-1.47 1.187-2.297 1.187-1.11 0-1.735-.765-1.735-2.046 0-1.188.469-2.391 1.25-3.204.485-.484 1.11-.765 1.766-.765.922 0 1.422.547 1.516 1.61Zm0 0"/><path id="c" d="M1.297-6.344c.61.047.766.14.766.407 0 .14-.032.39-.11.64L.734-.89c-.187.579-.25.625-.812.735V0h2.516c1.171 0 2.234-.312 3-.875.968-.703 1.546-1.797 1.546-2.953 0-1.64-1.14-2.688-2.921-2.688H1.297Zm1.828.422c.063-.219.203-.281.61-.281.562 0 1.062.125 1.374.36.5.359.766.984.766 1.78 0 1.079-.422 2.188-1.094 2.86-.593.61-1.406.906-2.437.906-.453 0-.656-.11-.656-.375 0-.125.062-.344.218-.937Zm0 0"/><path id="d" d="M-.078 0h2.812c1.563 0 2.641-.812 2.641-2 0-.36-.125-.719-.344-.937-.203-.22-.39-.344-.922-.563.72-.172 1-.281 1.329-.562q.42-.375.421-.985c0-.937-.703-1.469-1.984-1.469H1.297v.172c.61.047.766.125.766.407 0 .14-.032.39-.11.64L.734-.89c-.187.579-.25.625-.812.735Zm2.453-3.297c.64 0 1.063.031 1.266.11.406.171.656.609.656 1.156 0 1.078-.734 1.734-1.953 1.734-.422 0-.64-.156-.64-.422 0-.125.124-.593.343-1.39.14-.453.203-.688.328-1.188m.75-2.64c.063-.22.172-.266.563-.266.796 0 1.171.328 1.171 1.062 0 .579-.25 1.016-.671 1.25-.344.204-.813.266-1.72.266Zm0 0"/><path id="e" d="M5.766-4.984 4.89-3.266c-.063-1.203-.563-1.843-1.47-1.843-.452 0-.983.187-1.405.5C1.375-4.141.984-3.422.813-2.437.547-.844 1.188.124 2.484.124c.875 0 1.579-.437 2.141-1.328.016.187.063.36.125.61.172.562.313.718.64.718.329 0 .594-.203.782-.625.11-.234.172-.453.281-1h-.266c-.093.5-.343.875-.593.875-.328 0-.578-.531-.578-1.219l1.64-3.14ZM4.453-2.406l-.344.656c-.515 1.016-.984 1.5-1.484 1.5a.77.77 0 0 1-.703-.484c-.156-.407-.172-1.047-.047-1.766.11-.703.36-1.312.688-1.75.234-.297.484-.437.796-.437.704 0 1.063.578 1.079 1.703Zm0 0"/><path id="f" d="M.672.625a8.4 8.4 0 0 1-.438 1.594h.813c.187-.235.25-.5.375-1.281l.234-1.36c.453.406.875.547 1.453.547 1.188 0 2.157-.875 2.375-2.156.172-1.063-.234-1.813-1.25-2.281.813-.407 1.25-.875 1.344-1.438.156-.89-.61-1.625-1.672-1.625-1.078 0-2.015.703-2.172 1.656Zm1.875-6.453c.125-.688.625-1.188 1.219-1.188.625 0 .984.579.843 1.391-.078.516-.468 1.094-.734 1.094-.031 0-.047 0-.203-.047-.14-.031-.219-.031-.297-.031-.25 0-.453.156-.484.343-.032.188.125.313.375.313.062 0 .109-.016.234-.031.11-.032.219-.047.297-.047.125 0 .187.031.234.078.39.422.532 1.187.39 2-.171 1-.702 1.578-1.437 1.578-.5 0-.968-.219-1.234-.61Zm0 0"/><path id="g" d="M.594.219C1.704.094 2.25-.094 2.938-.594c1.03-.75 1.64-1.984 1.64-3.328 0-1.656-.922-2.812-2.203-2.812-1.187 0-2.078 1-2.078 2.343 0 1.22.719 2.032 1.797 2.032.547 0 .969-.157 1.5-.578C3.188-1.313 2.078-.235.563.015Zm3.015-3.75c0 .187-.046.281-.156.375a1.54 1.54 0 0 1-1 .36c-.765 0-1.234-.735-1.234-1.923 0-.578.156-1.172.36-1.437a.95.95 0 0 1 .718-.297c.86 0 1.312.844 1.312 2.531Zm0 0"/><path id="h" d="M2.531-6.734c-.547 0-.969.172-1.328.515-.578.563-.969 1.703-.969 2.875 0 1.078.329 2.25.797 2.813A1.87 1.87 0 0 0 2.5.14c.5 0 .922-.172 1.281-.516.578-.547.969-1.703.969-2.922 0-2.031-.906-3.437-2.219-3.437m-.031.25c.844 0 1.281 1.125 1.281 3.218 0 2.079-.437 3.141-1.281 3.141-.86 0-1.297-1.062-1.297-3.14 0-2.11.438-3.22 1.297-3.22m0 0"/><path id="i" d="M3.281-1.844c0-.797-.656-1.437-1.437-1.437-.797 0-1.438.656-1.438 1.437 0 .782.64 1.438 1.438 1.438.781 0 1.437-.64 1.437-1.438M1.844-.704c-.64 0-1.14-.515-1.14-1.14s.5-1.14 1.14-1.14c.61 0 1.14.5 1.14 1.14s-.53 1.14-1.14 1.14m0 0"/><path id="j" d="M6.563-2.297c.171 0 .359 0 .359-.203 0-.187-.188-.187-.36-.187h-5.39c-.172 0-.344 0-.344.187 0 .203.172.203.344.203Zm0 0"/></defs><path fill="#fff" d="M0 0h135.176v141.625H0Zm0 0"/><path fill="none" stroke="#000" stroke-miterlimit="10" stroke-width=".399" d="m13.426 94.688 3.586 2.285 2.285-3.586-3.586-2.285-2.285 3.585M120.64 80.574l-2.73-3.258-3.258 2.73 2.73 3.259 3.259-2.73"/><path fill="none" stroke="#000" stroke-linecap="round" stroke-linejoin="round" stroke-miterlimit="10" stroke-width=".797" d="M64.809 14.035 13.426 94.687l51.383 32.735 55.832-46.848Zm0 0"/><path fill="none" stroke="#000" stroke-linecap="round" stroke-miterlimit="10" stroke-width=".797" d="M64.809 14.035v113.387M13.426 94.688 120.64 80.574"/><path fill="none" stroke="#000" stroke-miterlimit="10" stroke-width=".797" d="M121.504 70.727c0-31.309-25.383-56.692-56.695-56.692S8.117 39.418 8.117 70.727c0 31.312 25.38 56.695 56.692 56.695s56.695-25.383 56.695-56.695Zm0 0"/><path fill="#7f7f7f" stroke="#000" stroke-miterlimit="10" stroke-width=".399" d="M65.805 14.035a.995.995 0 1 0-1.99-.002.995.995 0 0 0 1.99.002ZM14.422 94.688a.995.995 0 1 0-1.99-.002.995.995 0 0 0 1.99.001ZM65.805 127.422a.995.995 0 1 0-1.99-.002.995.995 0 0 0 1.99.002ZM121.637 80.574a.995.995 0 1 0-1.99-.001.995.995 0 0 0 1.99.001Zm0 0"/><use xlink:href="#a" x="61.765" y="10.515"/><use xlink:href="#b" x="61.128" y="137.635"/><use xlink:href="#c" x="124.16" y="83.805"/><use xlink:href="#d" x="3.821" y="104.672"/><path fill="none" stroke="red" stroke-miterlimit="10" stroke-width=".399" d="M57.957 24.793a12.75 12.75 0 0 0 6.852 1.996M107.996 82.238a12.74 12.74 0 0 0 2.875 6.535"/><use xlink:href="#e" x="56.097" y="34.097" fill="red"/><use xlink:href="#e" x="100.22" y="90.366" fill="red"/><path fill="none" stroke="#00f" stroke-miterlimit="10" stroke-width=".399" d="M64.809 28.207c3.332 0 6.558-1.176 9.109-3.316M25.379 102.3a14.16 14.16 0 0 0 2.098-9.464"/><use xlink:href="#f" x="68.248" y="35.266" fill="#00f"/><use xlink:href="#f" x="29.451" y="101.567" fill="#00f"/><path fill="none" stroke="#00b200" stroke-miterlimit="10" stroke-width=".399" d="M26.074 93.023a12.76 12.76 0 0 0-5.793-9.093M74.582 119.223a12.77 12.77 0 0 0-9.773-4.559"/><g fill="#00b200"><use xlink:href="#g" x="24.119" y="84.352"/><use xlink:href="#h" x="29.1" y="84.352"/></g><use xlink:href="#i" x="34.082" y="80.736" fill="#00b200"/><use xlink:href="#j" x="39.65" y="84.352" fill="#00b200"/><use xlink:href="#f" x="48.774" y="84.352" fill="#00b200"/><g fill="#00b200"><use xlink:href="#g" x="71.923" y="113.947"/><use xlink:href="#h" x="76.904" y="113.947"/></g><use xlink:href="#i" x="81.885" y="110.331" fill="#00b200"/><use xlink:href="#j" x="87.453" y="113.947" fill="#00b200"/><use xlink:href="#f" x="96.578" y="113.947" fill="#00b200"/><path fill="none" stroke="#bf0040" stroke-miterlimit="10" stroke-width=".399" d="M111.531 69.715a14.17 14.17 0 0 0-4.941 12.707M64.809 113.25a14.17 14.17 0 0 0-11.954 6.559"/><g fill="#bf0040"><use xlink:href="#g" x="74.785" y="72.116"/><use xlink:href="#h" x="79.766" y="72.116"/></g><use xlink:href="#i" x="84.748" y="68.5" fill="#bf0040"/><use xlink:href="#j" x="90.316" y="72.116" fill="#bf0040"/><use xlink:href="#e" x="99.441" y="72.116" fill="#bf0040"/><g fill="#bf0040"><use xlink:href="#g" x="35.178" y="111.462"/><use xlink:href="#h" x="40.159" y="111.462"/></g><use xlink:href="#i" x="45.14" y="107.846" fill="#bf0040"/><use xlink:href="#j" x="50.708" y="111.462" fill="#bf0040"/><use xlink:href="#e" x="59.833" y="111.462" fill="#bf0040"/></svg>