<svg xmlns="http://www.w3.org/2000/svg" xmlns:xlink="http://www.w3.org/1999/xlink" width="231.578" height="285.18" viewBox="0 0 173.684 213.885"><defs><path id="a" d="M10.86-9.75H7.89v.234c.844.079 1.048.22 1.048.766 0 .172-.032.36-.141.656-.016.047-.031.11-.031.11L7.25-2.297 4.14-9.75H1.735v.234c.704.063 1.016.25 1.282.844L1.234-2.453C.672-.531.547-.36-.296-.234V0h2.952v-.234C1.891-.297 1.61-.47 1.61-.875c0-.203.047-.5.141-.812l1.703-6.297L6.891.219h.265l2.157-7.516c.546-1.922.609-2.016 1.546-2.219Zm0 0"/><path id="b" d="M13.047-9.75h-2.5L5.53-2.39l-.828-7.36H2v.234c.75.047 1.11.204 1.11.547 0 .125-.063.344-.157.625-.031.047-.062.219-.125.438-.015.047-.031.11-.047.172L1.187-2.187C.734-.625.517-.328-.266-.234V0h2.954v-.234c-.766-.063-1.063-.25-1.063-.657 0-.156.063-.546.14-.796l1.766-6.47L4.437 0h.25l5.641-8.375-1.937 7.016c-.235.797-.532 1.015-1.5 1.125V0h4.078v-.234C9.953-.328 9.813-.422 9.813-.875c0-.266.03-.453.171-.922l1.829-6.61c.265-.905.343-.968 1.234-1.109Zm0 0"/><path id="c" d="M1.938-9.516c.937.094 1.156.204 1.156.61 0 .234-.063.594-.172.953l-1.828 6.61C.828-.485.719-.392-.125-.235V0h3.781C5.406 0 7-.469 8.156-1.297 9.61-2.359 10.453-4 10.453-5.734c0-2.453-1.703-4.016-4.36-4.016H1.939Zm2.734.641c.094-.328.312-.437.922-.437.843 0 1.593.203 2.062.562.735.531 1.14 1.469 1.14 2.656 0 1.61-.624 3.282-1.64 4.297-.875.906-2.093 1.344-3.64 1.344-.688 0-.97-.156-.97-.547 0-.187.063-.531.329-1.422Zm0 0"/><path id="d" d="M8.422-.234c-.844-.078-.938-.203-1.125-1.297L5.89-9.984H5.5L1.172-2.516C-.016-.516-.172-.359-.766-.234V0h2.797v-.234c-.765-.078-.875-.157-.875-.532 0-.28.032-.421.297-.921l.844-1.688h3.297l.297 1.953c.015.14.03.266.03.39 0 .563-.218.704-1.171.798V0h3.672ZM2.609-3.906l2.25-3.89.657 3.89Zm0 0"/><path id="e" d="m9.734-6.953.563-2.969h-.313c-.125.25-.28.328-.578.328-.11 0-.297-.031-.61-.094-.671-.171-1.265-.265-1.75-.265-3.171 0-6.062 3-6.062 6.328 0 2.281 1.61 3.89 3.907 3.89 1.53 0 2.734-.656 4.078-2.218l-.266-.219C7.36-.844 6.5-.406 5.266-.406c-1.657 0-2.61-1.125-2.61-3.063 0-1.781.719-3.578 1.89-4.797.72-.734 1.657-1.14 2.641-1.14 1.375 0 2.141.797 2.282 2.422Zm0 0"/><path id="f" d="M-.125 0h4.219c2.343 0 3.953-1.219 3.953-2.984 0-.563-.172-1.078-.5-1.407-.297-.343-.594-.53-1.375-.859 1.062-.25 1.484-.422 1.969-.844.422-.36.64-.86.64-1.468 0-1.422-1.062-2.188-2.984-2.188h-3.86v.234c.938.079 1.157.188 1.157.61 0 .234-.063.594-.172.953l-1.828 6.61C.828-.485.719-.392-.125-.235Zm3.688-4.937c.968 0 1.593.046 1.89.171.61.25.984.907.984 1.72 0 1.608-1.109 2.593-2.921 2.593-.625 0-.97-.219-.97-.625 0-.172.188-.89.532-2.094.188-.672.281-1.015.485-1.765m1.109-3.954c.094-.328.266-.421.86-.421 1.187 0 1.75.515 1.75 1.624 0 .844-.36 1.5-1 1.86-.516.297-1.235.406-2.579.406Zm0 0"/><path id="g" d="M8.656-7.469 7.312-4.906c-.078-1.797-.828-2.75-2.187-2.75-.687 0-1.469.281-2.11.75-.953.703-1.546 1.781-1.796 3.265C.829-1.266 1.766.188 3.703.188c1.313 0 2.39-.672 3.219-2 .031.28.094.562.187.937.266.828.485 1.063.954 1.063.5 0 .89-.313 1.187-.938.172-.344.266-.672.422-1.5h-.39c-.157.75-.532 1.313-.907 1.313-.5 0-.844-.797-.86-1.829l2.47-4.703Zm-2 3.875-.5.969c-.765 1.516-1.5 2.25-2.234 2.25-.469 0-.89-.297-1.047-.734-.234-.61-.25-1.547-.062-2.625.171-1.078.53-1.985 1.03-2.641.345-.437.72-.64 1.188-.64 1.063 0 1.594.843 1.625 2.546Zm0 0"/><path id="h" d="M1.031.922C.906 1.719.61 2.75.36 3.312h1.235c.234-.343.36-.75.547-1.906l.343-2.031c.688.594 1.313.813 2.172.813 1.782 0 3.219-1.313 3.547-3.235.266-1.594-.328-2.719-1.86-3.422 1.235-.61 1.891-1.297 2.032-2.156.219-1.328-.937-2.422-2.531-2.422-1.61 0-2.985 1.047-3.219 2.469Zm2.797-9.64C4-9.767 4.75-10.5 5.641-10.5c.937 0 1.468.86 1.265 2.063-.125.796-.687 1.64-1.078 1.64-.047 0-.094 0-.328-.062a2 2 0 0 0-.437-.063c-.36 0-.704.25-.75.531s.203.454.578.454c.093 0 .172 0 .343-.032.172-.047.329-.062.438-.062.203 0 .297.031.375.11.562.64.781 1.765.578 3-.25 1.483-1.047 2.374-2.156 2.374a2.23 2.23 0 0 1-1.844-.937Zm0 0"/><path id="i" d="M6.11-3.437h4.171c.203 0 .485 0 .485-.297s-.282-.297-.485-.297H6.11V-8.22c0-.203 0-.484-.296-.484-.297 0-.297.281-.297.484v4.188H1.328c-.203 0-.484 0-.484.297s.281.297.484.297h4.188V.75c0 .203 0 .484.297.484.296 0 .296-.28.296-.484Zm0 0"/><path id="j" d="m4.344-10.094-2.688 1.36v.203c.188-.078.344-.125.407-.156.265-.11.515-.172.671-.172.313 0 .454.218.454.703v6.765c0 .5-.126.844-.36.97-.234.14-.437.187-1.062.202V0H5.89v-.219c-1.188-.015-1.422-.172-1.422-.89v-8.953Zm0 0"/><path id="k" d="m-3.469-3.484-1.515.046v.126l.03.015c.079.094.079.11.079.156a.9.9 0 0 1-.062.297c-.094.25-.141.485-.141.781 0 .876.562 1.5 1.36 1.5.624 0 1.062-.359 1.593-1.296l.36-.641c.234-.39.5-.578.843-.578.485 0 .797.36.797.922 0 .375-.156.719-.39.922-.282.234-.532.343-1.172.484v.172H.046v-.14c-.11-.079-.14-.126-.14-.25 0-.11.03-.266.093-.516.063-.313.11-.61.11-.813 0-.844-.641-1.547-1.422-1.547-.547 0-.907.266-1.313.922l-.703 1.203c-.172.297-.453.469-.75.469-.453 0-.75-.344-.75-.86 0-.624.375-.953 1.36-1.203Zm0 0"/><path id="l" d="m-5.094-1.937.61 1.718h.172l-.016-.093a4 4 0 0 1-.031-.375c0-.266.172-.36.672-.36h2.562c.797 0 .922.11.953.875H0v-2.625h-.172c-.047.735-.156.813-.953.813h-3.937Zm-2.468.515c0 .297.265.563.578.563a.57.57 0 0 0 .562-.563.56.56 0 0 0-.562-.562.574.574 0 0 0-.578.562m0 0"/><path id="m" d="M-4.406-.172a.9.9 0 0 1-.047-.297c0-.312.172-.422.719-.422H-1c.64 0 .797.125.828.688H0v-2.344h-.172c-.031.563-.172.735-.562.735h-3.11c-.5-.532-.64-.782-.64-1.141 0-.547.343-.813 1.078-.813h2.312c.703 0 .89.141.922.704H0V-5.36h-.172c-.047.53-.187.672-.719.672h-2.53c-1.048 0-1.673.484-1.673 1.296 0 .516.188.86.907 1.61h-.875l-.032.078c.203.547.328.922.5 1.531Zm0 0"/><path id="n" d="M2.656-3.656c-.031 0-.062 0-.25.187-1.39 1.375-3.484 1.735-5.172 1.735-1.921 0-3.843-.422-5.234-1.782-.125-.14-.156-.14-.187-.14-.079 0-.11.031-.11.11 0 .108.75 1.108 2.156 1.75 1.22.562 2.454.702 3.375.702.86 0 2.204-.125 3.454-.734 1.359-.656 2.078-1.61 2.078-1.719 0-.078-.032-.11-.11-.11m0 0"/><path id="p" d="M-2.547-4.531V-7.61c0-.157 0-.36-.219-.36-.218 0-.218.203-.218.36v3.078h-3.094c-.156 0-.375 0-.375.234 0 .219.219.219.375.219h3.094v3.094c0 .156 0 .359.218.359.22 0 .22-.203.22-.36v-3.093H.546c.156 0 .375 0 .375-.219 0-.234-.219-.234-.375-.234Zm0 0"/><path id="r" d="M-2.766-3.203c-.859 0-2.203.125-3.453.734-1.36.672-2.078 1.61-2.078 1.735 0 .062.047.109.11.109.03 0 .062 0 .25-.219 1.093-1.078 2.859-1.719 5.171-1.719 1.891 0 3.844.422 5.235 1.782.125.156.156.156.187.156.063 0 .11-.047.11-.11 0-.124-.75-1.109-2.157-1.765-1.218-.562-2.453-.703-3.375-.703m0 0"/><path id="o" d="m-5.531-6.406 1.906.984c-1.344.063-2.047.625-2.047 1.625 0 .516.203 1.094.563 1.563.515.703 1.312 1.14 2.406 1.328C-.938-.61.14-1.296.14-2.734c0-.97-.5-1.782-1.485-2.391.219-.031.422-.078.688-.156.625-.172.797-.328.797-.688s-.235-.656-.688-.89c-.265-.125-.5-.188-1.125-.297v.281c.563.11.969.39.969.672 0 .36-.578.625-1.344.64L-5.53-7.39Zm2.86 1.468.718.375c1.14.579 1.672 1.11 1.672 1.657a.85.85 0 0 1-.531.781c-.454.156-1.157.188-1.954.047-.796-.125-1.468-.39-1.953-.766-.328-.25-.484-.547-.484-.89 0-.782.64-1.172 1.89-1.188Zm0 0"/><path id="q" d="M.688-.766c.578.11 1.343.329 1.765.5v-.906c-.25-.172-.547-.281-1.406-.422l-1.516-.25c.453-.5.61-.953.61-1.593 0-1.329-.97-2.407-2.391-2.641-1.187-.203-2.016.25-2.547 1.39-.453-.921-.953-1.406-1.594-1.515-.984-.172-1.796.687-1.796 1.86 0 1.202.78 2.234 1.843 2.406Zm-7.141-2.078c-.781-.125-1.328-.672-1.328-1.328 0-.703.64-1.094 1.531-.953.594.11 1.219.516 1.219.813 0 .03 0 .062-.047.234-.031.156-.047.25-.047.328 0 .266.188.516.39.547.204.047.344-.14.344-.422 0-.078-.015-.125-.03-.234a2 2 0 0 1-.048-.36c0-.14.016-.218.094-.265.453-.422 1.297-.578 2.203-.422 1.11.187 1.766.781 1.766 1.61 0 .546-.25 1.046-.688 1.343Zm0 0"/><path id="s" d="M4.406-1.719C3.875-.953 3.47-.687 2.844-.687c-1 0-1.719-.891-1.719-2.157 0-1.14.61-1.922 1.516-1.922.39 0 .53.125.64.532L3.36-4c.079.313.282.516.516.516.281 0 .531-.203.531-.47 0-.608-.781-1.14-1.703-1.14-.547 0-1.11.219-1.562.625-.547.485-.86 1.235-.86 2.11 0 1.437.875 2.468 2.094 2.468.5 0 .938-.171 1.344-.515.297-.266.5-.563.844-1.219Zm0 0"/><path id="t" d="M2.766-5.094C1.328-5.094.328-4.03.328-2.5.328-1 1.344.11 2.75.11c1.39 0 2.453-1.172 2.453-2.704 0-1.437-1.016-2.5-2.437-2.5m-.141.313c.922 0 1.578 1.062 1.578 2.578 0 1.25-.5 2-1.328 2-.437 0-.844-.266-1.078-.703-.297-.578-.484-1.344-.484-2.14 0-1.048.53-1.735 1.312-1.735m0 0"/><path id="u" d="m3.484-3.469-.046-1.515h-.126l-.015.03c-.094.079-.11.079-.156.079a.9.9 0 0 1-.297-.062 2.1 2.1 0 0 0-.781-.141c-.876 0-1.5.562-1.5 1.36 0 .624.359 1.062 1.296 1.593l.641.36c.39.234.578.5.578.843 0 .485-.36.797-.922.797-.375 0-.719-.156-.922-.39C1-.798.891-1.048.75-1.688H.578V.046h.14c.079-.11.126-.14.25-.14.11 0 .266.03.516.093.313.063.61.11.813.11.844 0 1.547-.641 1.547-1.422 0-.547-.266-.907-.922-1.313l-1.203-.703c-.297-.172-.469-.453-.469-.75 0-.453.344-.75.86-.75.624 0 .953.375 1.203 1.36Zm0 0"/><path id="P" d="m1.938-5.094-1.72.61v.172l.095-.016c.125-.016.28-.031.375-.031.265 0 .359.172.359.672v2.562c0 .797-.11.922-.875.953V0h2.625v-.172c-.735-.047-.813-.156-.813-.953v-3.937Zm-.516-2.468a.584.584 0 0 0-.563.578c0 .297.25.562.563.562a.56.56 0 0 0 .562-.562.574.574 0 0 0-.562-.578m0 0"/><path id="Q" d="M.172-4.406a.9.9 0 0 1 .297-.047c.312 0 .422.172.422.719V-1c0 .64-.125.797-.688.828V0h2.344v-.172c-.563-.031-.735-.172-.735-.562v-3.11c.532-.5.782-.64 1.141-.64.547 0 .813.343.813 1.078v2.312c0 .703-.141.89-.703.922V0h2.296v-.172c-.53-.047-.671-.187-.671-.719v-2.53c0-1.048-.485-1.673-1.297-1.673-.516 0-.86.188-1.61.907v-.875l-.078-.032c-.547.203-.922.328-1.531.5Zm0 0"/><path id="v" d="M3.656 2.656c0-.031 0-.062-.187-.25-1.375-1.39-1.735-3.484-1.735-5.172 0-1.921.422-3.843 1.782-5.234.14-.125.14-.156.14-.187 0-.079-.031-.11-.11-.11-.108 0-1.108.75-1.75 2.156-.562 1.22-.702 2.454-.702 3.375 0 .86.125 2.204.734 3.454.656 1.359 1.61 2.078 1.719 2.078.078 0 .11-.032.11-.11m0 0"/><path id="x" d="M4.531-2.547H7.61c.157 0 .36 0 .36-.219 0-.218-.203-.218-.36-.218H4.531v-3.094c0-.156 0-.375-.234-.375-.219 0-.219.219-.219.375v3.094H.984c-.156 0-.359 0-.359.218 0 .22.203.22.36.22h3.093V.546c0 .156 0 .375.219.375.234 0 .234-.219.234-.375Zm0 0"/><path id="z" d="M3.203-2.766c0-.859-.125-2.203-.734-3.453C1.797-7.579.859-8.297.734-8.297a.107.107 0 0 0-.109.11c0 .03 0 .062.219.25 1.078 1.093 1.719 2.859 1.719 5.171C2.563-.875 2.14 1.078.78 2.47c-.156.125-.156.156-.156.187 0 .063.047.11.11.11.124 0 1.109-.75 1.765-2.157.563-1.218.703-2.453.703-3.375m0 0"/><path id="w" d="m6.406-5.531-.984 1.906c-.063-1.344-.625-2.047-1.625-2.047-.516 0-1.094.203-1.563.563-.703.515-1.14 1.312-1.328 2.406C.61-.938 1.296.14 2.734.14c.97 0 1.782-.5 2.391-1.485.031.219.078.422.156.688.172.625.328.797.688.797s.656-.235.89-.688c.125-.265.188-.5.297-1.125h-.281c-.11.563-.39.969-.672.969-.36 0-.625-.578-.64-1.344L7.39-5.53Zm-1.468 2.86-.375.718C3.984-.813 3.452-.281 2.906-.281a.85.85 0 0 1-.781-.531c-.156-.454-.187-1.157-.047-1.954.125-.796.39-1.468.766-1.953.25-.328.547-.484.89-.484.782 0 1.172.64 1.188 1.89Zm0 0"/><path id="y" d="M.766.688c-.11.578-.328 1.343-.5 1.765h.906c.172-.25.281-.547.422-1.406l.25-1.516c.5.453.953.61 1.594.61 1.328 0 2.406-.97 2.64-2.391.203-1.187-.25-2.016-1.39-2.547.921-.453 1.406-.953 1.515-1.594.172-.984-.687-1.796-1.86-1.796-1.202 0-2.234.78-2.405 1.843Zm2.078-7.141c.125-.781.672-1.328 1.328-1.328.703 0 1.094.64.953 1.531-.11.594-.516 1.219-.812 1.219-.032 0-.063 0-.235-.047a2 2 0 0 0-.328-.047c-.266 0-.516.188-.547.39-.047.204.14.344.422.344.078 0 .125-.015.234-.03a2 2 0 0 1 .36-.048c.14 0 .218.016.265.094.422.453.579 1.297.422 2.203-.187 1.11-.781 1.766-1.61 1.766-.546 0-1.046-.25-1.343-.688Zm0 0"/><path id="A" d="M2.719-3.875c-.031.922-.203 1.375-.735 1.719-.828.562-1.921.219-2.625-.828-.625-.953-.562-1.953.204-2.453.312-.22.5-.188.828.109l.187.14c.235.22.516.266.703.125.235-.156.344-.437.203-.671-.343-.5-1.296-.516-2.062 0-.453.297-.797.78-.953 1.39-.172.703-.032 1.5.453 2.219.797 1.203 2.11 1.578 3.11.906.421-.281.687-.672.843-1.187.094-.39.11-.75.016-1.485Zm0 0"/><path id="B" d="M-.531-5.766c-1.188.797-1.438 2.22-.594 3.5.828 1.25 2.313 1.61 3.469.829 1.156-.766 1.39-2.344.547-3.61C2.094-6.25.656-6.563-.531-5.766m.062.329c.766-.516 1.906.015 2.75 1.28.688 1.032.688 1.938 0 2.391-.36.235-.86.25-1.281.016-.578-.312-1.156-.86-1.594-1.516-.578-.875-.531-1.734.125-2.171m0 0"/><path id="C" d="m.984-4.828-.89-1.219-.11.063.016.03c-.031.11-.047.126-.094.157a.7.7 0 0 1-.281.11 2 2 0 0 0-.719.328c-.734.484-.937 1.297-.5 1.953.344.515.89.687 1.969.61l.719-.063c.468-.032.765.109.953.39.265.406.156.844-.313 1.156-.312.22-.687.282-.984.204-.36-.11-.594-.266-1.062-.72l-.141.095.969 1.437.109-.078c0-.11.031-.172.14-.234.079-.063.235-.125.47-.22.296-.124.562-.234.734-.359.703-.453.937-1.374.5-2.03-.297-.454-.719-.61-1.485-.594l-1.39.093c-.344.031-.64-.11-.813-.36-.25-.374-.125-.827.297-1.109.531-.343 1-.218 1.75.454Zm0 0"/><path id="D" d="M1.016.156c.25.532.484 1.282.562 1.735l.75-.5c.031-.313-.062-.61-.422-1.407l-.625-1.406c.672.11 1.14-.016 1.672-.375 1.094-.734 1.453-2.125.86-3.437-.485-1.094-1.329-1.532-2.579-1.36.516-.89.657-1.562.391-2.156-.406-.906-1.594-1.125-2.562-.469-1 .656-1.407 1.89-.97 2.875Zm-2.235-7.11c-.312-.718-.172-1.468.375-1.827.594-.39 1.266-.094 1.64.734.25.547.25 1.297 0 1.469-.03.016-.062.031-.218.078-.156.078-.234.125-.297.156-.219.157-.328.453-.25.64.078.188.313.188.547.032a.5.5 0 0 0 .172-.156 2 2 0 0 1 .281-.219c.11-.078.188-.125.282-.078.593.14 1.187.766 1.562 1.594.469 1.031.328 1.906-.36 2.36-.453.312-1 .374-1.5.171Zm0 0"/><path id="E" d="m4.828.984 1.219-.89-.063-.11-.03.016c-.11-.031-.126-.047-.157-.094a.7.7 0 0 1-.11-.281 2 2 0 0 0-.328-.719c-.484-.734-1.296-.937-1.953-.5-.515.344-.687.89-.61 1.969l.063.719c.032.468-.109.765-.39.953-.406.265-.844.156-1.156-.313-.22-.312-.282-.687-.204-.984.094-.36.266-.594.72-1.062l-.095-.141L.297.516l.078.109c.11 0 .172.031.234.14.063.079.125.235.22.47.124.296.234.562.359.734.453.703 1.375.937 2.03.5.454-.297.61-.719.595-1.485l-.094-1.39c-.031-.344.11-.64.36-.813.374-.25.827-.125 1.109.297.343.531.218 1-.454 1.75Zm0 0"/><path id="F" d="M5.313-1.219 3.859-2.297l-.14.094.047.062c.093.094.187.22.234.297.156.219.063.39-.36.672L1.517.25C.844.688.688.672.234.047L.094.14l1.453 2.187.14-.094c-.359-.64-.328-.765.344-1.203l3.282-2.187ZM7.078-3c-.156-.25-.516-.328-.781-.156a.575.575 0 0 0-.172.781c.188.25.516.328.781.156.266-.172.36-.531.172-.781m0 0"/><path id="G" d="M3.766-2.297c.062.031.14.125.203.219.172.265.094.437-.36.734L1.33.188C.796.53.593.53.25.078L.11.172l1.296 1.953.14-.094c-.28-.484-.265-.703.063-.922L4.203-.609c.703.156.969.28 1.172.578.297.453.156.875-.453 1.281L3 2.531c-.578.39-.812.375-1.156-.078l-.14.094 1.265 1.906.14-.094c-.25-.468-.218-.656.22-.953l2.109-1.39C6.313 1.422 6.563.672 6.109 0c-.28-.437-.625-.61-1.64-.844l.734-.484-.031-.078a17 17 0 0 1-1.25-1Zm0 0"/><path id="H" d="M-.156 1.016a8 8 0 0 1-1.735.562l.5.75c.313.031.61-.062 1.407-.422l1.406-.625c-.11.672.016 1.14.375 1.672.734 1.094 2.125 1.453 3.437.86 1.094-.485 1.532-1.329 1.36-2.579.89.516 1.562.657 2.156.391.906-.406 1.125-1.594.469-2.562-.656-1-1.89-1.407-2.875-.97Zm7.11-2.235c.718-.312 1.468-.172 1.827.375.39.594.094 1.266-.734 1.64-.547.25-1.297.25-1.469 0C6.562.767 6.547.735 6.5.579 6.422.422 6.375.344 6.344.281c-.157-.219-.453-.328-.64-.25-.188.078-.188.313-.032.547a.5.5 0 0 0 .156.172c.11.125.172.203.219.281.078.11.125.188.078.282-.14.593-.766 1.187-1.594 1.562-1.031.469-1.906.328-2.36-.36-.312-.453-.374-1-.171-1.5Zm0 0"/><path id="I" d="m3.469 3.484 1.515-.046v-.126l-.03-.015c-.079-.094-.079-.11-.079-.156 0-.063.016-.172.063-.297.093-.25.14-.485.14-.781 0-.876-.562-1.5-1.36-1.5-.624 0-1.062.359-1.593 1.296l-.36.641c-.234.39-.5.578-.843.578-.485 0-.797-.36-.797-.922 0-.375.156-.719.39-.922C.798 1 1.048.891 1.688.75V.578H-.046v.14c.11.079.14.126.14.25 0 .11-.03.266-.093.516-.062.313-.11.61-.11.813 0 .844.641 1.547 1.423 1.547.546 0 .906-.266 1.312-.922l.703-1.203c.172-.297.453-.469.75-.469.453 0 .75.344.75.86 0 .624-.375.953-1.36 1.203Zm0 0"/><path id="J" d="m5.094 1.938-.61-1.72h-.171l.015.095c.016.125.031.28.031.375 0 .265-.171.359-.671.359H1.124c-.797 0-.922-.11-.953-.875H0v2.625h.172c.047-.735.156-.813.953-.813h3.938Zm2.468-.516a.584.584 0 0 0-.578-.563.57.57 0 0 0-.562.563c0 .312.25.562.562.562s.579-.25.579-.562m0 0"/><path id="K" d="M4.406.172a.9.9 0 0 1 .047.297c0 .312-.172.422-.719.422H1C.36.89.203.766.172.203H0v2.344h.172c.031-.563.172-.735.562-.735h3.11c.5.532.64.782.64 1.141 0 .547-.343.813-1.078.813H1.094c-.703 0-.89-.141-.922-.703H0v2.296h.172c.047-.53.187-.671.719-.671h2.53c1.048 0 1.673-.485 1.673-1.297 0-.516-.188-.86-.907-1.61h.875l.032-.078a18 18 0 0 1-.5-1.531Zm0 0"/><path id="M" d="M1.719 4.406C.953 3.875.688 3.47.688 2.844c0-1 .89-1.719 2.156-1.719 1.14 0 1.922.61 1.922 1.516 0 .39-.125.53-.532.64L4 3.36c-.312.079-.516.282-.516.516 0 .281.204.531.47.531.608 0 1.14-.781 1.14-1.703 0-.547-.219-1.11-.625-1.562C3.984.594 3.234.28 2.359.28c-1.437 0-2.468.875-2.468 2.094 0 .5.172.938.515 1.344.266.297.563.5 1.219.844Zm0 0"/><path id="N" d="M5.094 2.766C5.094 1.328 4.03.328 2.5.328 1 .328-.11 1.344-.11 2.75c0 1.39 1.173 2.453 2.704 2.453 1.437 0 2.5-1.016 2.5-2.437m-.313-.141c0 .922-1.062 1.578-2.578 1.578-1.25 0-2-.5-2-1.328 0-.437.266-.844.703-1.078.578-.297 1.344-.484 2.14-.484 1.048 0 1.735.53 1.735 1.312m0 0"/><path id="L" d="m5.531 6.406-1.906-.984c1.344-.063 2.047-.625 2.047-1.625 0-.516-.203-1.094-.563-1.563-.515-.703-1.312-1.14-2.406-1.328C.938.61-.14 1.296-.14 2.734c0 .97.5 1.782 1.485 2.391a5 5 0 0 0-.688.156c-.625.172-.797.328-.797.688s.235.656.688.89c.265.125.5.188 1.125.297v-.281c-.563-.11-.969-.39-.969-.672 0-.36.578-.625 1.344-.64L5.53 7.39Zm-2.86-1.468-.718-.375C.813 3.984.281 3.452.281 2.906c0-.344.219-.656.532-.781.453-.156 1.156-.187 1.953-.047.797.125 1.468.39 1.953.766.328.25.484.547.484.89 0 .782-.64 1.172-1.89 1.188Zm0 0"/><path id="O" d="M-.687.766a11 11 0 0 1-1.766-.5v.906c.25.172.547.281 1.406.422l1.516.25c-.453.5-.61.953-.61 1.594 0 1.328.97 2.406 2.391 2.64 1.188.203 2.016-.25 2.547-1.39.453.921.953 1.406 1.594 1.515.984.172 1.797-.687 1.797-1.86 0-1.202-.782-2.234-1.844-2.405Zm7.14 2.078c.781.125 1.328.672 1.328 1.328 0 .703-.64 1.094-1.531.953-.594-.11-1.219-.516-1.219-.812 0-.032 0-.063.047-.235.031-.156.047-.25.047-.328 0-.266-.187-.516-.39-.547-.204-.047-.344.14-.344.422 0 .078.015.125.03.234.032.157.048.266.048.36 0 .14-.016.218-.094.265-.453.422-1.297.579-2.203.422C1.062 4.72.406 4.125.406 3.296c0-.546.25-1.046.688-1.343Zm0 0"/></defs><path fill="#fff" d="M0 0h173.684v213.887H0Zm0 0"/><path fill="none" stroke="#000" stroke-miterlimit="10" stroke-width=".5985" d="m149.629 107.11-5.895-8.848-8.843 5.898 5.894 8.844 8.844-5.895M149.629 192.148V181.52H139v10.628h10.629M149.629 22.066H139V32.7h10.629V22.066M22.07 22.066V32.7H32.7V22.066H22.07"/><path fill="none" stroke="#000" stroke-linecap="round" stroke-linejoin="round" stroke-miterlimit="10" stroke-width="1.1955" d="M22.07 192.148H149.63V22.066H22.07Zm0 0"/><path fill="none" stroke="#000" stroke-linecap="round" stroke-linejoin="round" stroke-miterlimit="10" stroke-width="1.1955" d="M22.07 192.148 149.63 107.11 92.937 22.066Zm0 0"/><path fill="#7f7f7f" stroke="#000" stroke-miterlimit="10" stroke-width=".5985" d="M23.562 192.148c0-.824-.667-1.496-1.492-1.496-.824 0-1.496.672-1.496 1.496 0 .825.672 1.497 1.496 1.497.825 0 1.492-.672 1.492-1.497ZM151.125 192.148c0-.824-.668-1.496-1.496-1.496a1.495 1.495 0 1 0 1.496 1.496ZM151.125 22.066c0-.824-.668-1.492-1.496-1.492-.824 0-1.492.668-1.492 1.492a1.494 1.494 0 1 0 2.988 0ZM23.562 22.066c0-.824-.667-1.492-1.492-1.492a1.495 1.495 0 1 0 0 2.988c.825 0 1.492-.667 1.492-1.496ZM151.125 107.11a1.494 1.494 0 1 0-2.987-.005 1.494 1.494 0 0 0 2.987.004ZM94.43 22.066a1.495 1.495 0 1 0-1.492 1.496c.824 0 1.492-.667 1.492-1.496Zm0 0"/><use xlink:href="#a" x="87.502" y="16.536"/><use xlink:href="#b" x="154.908" y="111.959"/><use xlink:href="#c" x="6" y="16.79"/><use xlink:href="#d" x="7.659" y="207.47"/><use xlink:href="#e" x="154.161" y="16.536"/><use xlink:href="#f" x="154.908" y="207.126"/><path fill="none" stroke="red" stroke-miterlimit="10" stroke-width=".5985" d="M43.328 192.148c0-4.195-1.242-8.3-3.57-11.793"/><use xlink:href="#g" x="45.219" y="187.084" fill="red"/><path fill="none" stroke="red" stroke-miterlimit="10" stroke-width=".5985" d="M149.629 85.848c-4.195 0-8.3 1.246-11.79 3.57"/><use xlink:href="#g" x="135.669" y="82.183" fill="red"/><path fill="none" stroke="#00f" stroke-miterlimit="10" stroke-width=".5985" d="M41.527 179.176a23.37 23.37 0 0 0-10.465-8.614"/><use xlink:href="#h" x="37.316" y="171.408" fill="#00f"/><path fill="none" stroke="#bf0040" stroke-miterlimit="10" stroke-width=".5985" d="M71.676 22.066a21.26 21.26 0 0 0 13.086 19.625"/><use xlink:href="#g" x="36.474" y="43.242" fill="#bf0040"/><use xlink:href="#i" x="49.219" y="43.242" fill="#bf0040"/><use xlink:href="#h" x="62.907" y="43.242" fill="#bf0040"/><path fill="#ff7f00" stroke="#000" stroke-miterlimit="10" stroke-width=".5985" d="M73.926 97.535c0-7.308-5.926-13.234-13.239-13.234-7.308 0-13.238 5.926-13.238 13.234 0 7.313 5.93 13.238 13.238 13.238 7.313 0 13.239-5.925 13.239-13.238Zm0 0"/><use xlink:href="#j" x="56.95" y="102.535"/><use xlink:href="#k" x="14.025" y="129.811"/><use xlink:href="#l" x="14.025" y="125.51"/><use xlink:href="#m" x="14.025" y="122.435"/><use xlink:href="#n" x="14.025" y="116.907"/><use xlink:href="#o" x="14.025" y="112.615"/><use xlink:href="#p" x="14.025" y="104.721"/><use xlink:href="#q" x="14.025" y="96.127"/><use xlink:href="#r" x="14.025" y="88.697"/><use xlink:href="#s" x="33.882" y="14.025"/><use xlink:href="#t" x="38.792" y="14.025"/><use xlink:href="#u" x="44.321" y="14.025"/><use xlink:href="#v" x="48.623" y="14.025"/><use xlink:href="#w" x="52.913" y="14.025"/><use xlink:href="#x" x="60.809" y="14.025"/><use xlink:href="#y" x="69.4" y="14.025"/><use xlink:href="#z" x="76.832" y="14.025"/><use xlink:href="#A" x="71.802" y="149.65"/><use xlink:href="#B" x="75.887" y="146.927"/><use xlink:href="#C" x="80.488" y="143.86"/><use xlink:href="#D" x="85.089" y="140.793"/><use xlink:href="#E" x="104.058" y="63.112"/><use xlink:href="#F" x="106.444" y="66.692"/><use xlink:href="#G" x="108.149" y="69.25"/><use xlink:href="#H" x="111.898" y="74.873"/><use xlink:href="#s" x="61.6" y="205.661"/><use xlink:href="#t" x="66.51" y="205.661"/><use xlink:href="#u" x="72.04" y="205.661"/><use xlink:href="#w" x="77.571" y="205.661"/><use xlink:href="#s" x="86.695" y="205.661"/><use xlink:href="#t" x="91.605" y="205.661"/><use xlink:href="#u" x="97.135" y="205.661"/><use xlink:href="#y" x="102.665" y="205.661"/><use xlink:href="#I" x="157.401" y="126.299"/><use xlink:href="#J" x="157.401" y="130.6"/><use xlink:href="#K" x="157.401" y="133.675"/><use xlink:href="#L" x="157.401" y="140.433"/><use xlink:href="#M" x="157.401" y="149.558"/><use xlink:href="#N" x="157.401" y="154.467"/><use xlink:href="#I" x="157.401" y="159.997"/><use xlink:href="#O" x="157.401" y="165.526"/><use xlink:href="#M" x="157.401" y="41.259"/><use xlink:href="#N" x="157.401" y="46.169"/><use xlink:href="#I" x="157.401" y="51.698"/><use xlink:href="#L" x="157.401" y="57.228"/><use xlink:href="#I" x="157.401" y="66.353"/><use xlink:href="#J" x="157.401" y="70.654"/><use xlink:href="#K" x="157.401" y="73.729"/><use xlink:href="#O" x="157.401" y="80.487"/><use xlink:href="#u" x="98.87" y="14.296"/><use xlink:href="#P" x="103.171" y="14.296"/><use xlink:href="#Q" x="106.246" y="14.296"/><use xlink:href="#w" x="113.004" y="14.296"/><use xlink:href="#u" x="122.129" y="14.296"/><use xlink:href="#P" x="126.43" y="14.296"/><use xlink:href="#Q" x="129.505" y="14.296"/><use xlink:href="#y" x="136.262" y="14.296"/></svg>