<svg xmlns="http://www.w3.org/2000/svg" xmlns:xlink="http://www.w3.org/1999/xlink" width="190.811" height="152.029" viewBox="0 0 143.108 114.022"><defs><path id="a" d="m7.063-6.594-.157-.047c-.172.235-.343.344-.593.344-.11 0-.22-.031-.438-.11-.5-.155-.937-.234-1.344-.234-2.093 0-4.015 2-4.015 4.188 0 .672.297 1.375.765 1.86.5.5 1.235.765 2.094.765.875 0 1.594-.188 2.36-.61l.5-1.859c.156-.562.312-.687.968-.719v-.171H4.547v.171c.125 0 .25.032.281.032.328.03.5.125.5.297 0 .218-.062.5-.281 1.234-.219.719-.25.812-.375.922-.219.219-.594.344-1.047.344-1.281 0-2.016-.735-2.016-2.047 0-1.22.5-2.485 1.282-3.328a2.38 2.38 0 0 1 1.718-.735c.657 0 1.204.266 1.5.719.157.266.235.469.282.906l.172.031Zm0 0"/><path id="b" d="M7.64-6.516H5.189v.172c.578.063.687.14.687.422 0 .14-.031.375-.11.625l-.452 1.625H2.469l.547-1.937c.14-.516.406-.703 1-.735v-.172h-2.72v.172c.61.047.767.14.767.422 0 .14-.032.375-.11.625L.734-.89c-.187.579-.25.625-.812.735V0h2.453v-.156c-.594-.078-.703-.156-.703-.438 0-.078 0-.156.016-.219l.671-2.437h2.829L4.547-.89c-.156.515-.36.656-1.016.734V0h2.735v-.156c-.641-.063-.782-.14-.782-.422 0-.094.016-.156.032-.235l1.312-4.796c.172-.578.25-.641.813-.735Zm0 0"/><path id="c" d="M6.438-6.516h-4.97v.172c.641.047.766.11.766.407 0 .14-.046.39-.109.64L.891-.89c-.172.594-.25.657-.813.735V0h2.516v-.156c-.578-.031-.766-.14-.766-.438 0-.078.031-.234.094-.453l.625-2.219c.36.016.578.032.797.032.39 0 .469 0 .547.046.156.079.218.204.218.407 0 .156-.015.281-.078.594l.172.046.766-2.328-.188-.062c-.437.906-.468.906-2.156.937l.672-2.328c.047-.203.187-.266.594-.266 1.687 0 2.047.141 2.047.75 0 .063 0 .11-.016.25-.016.047-.016.063-.016.188l.203.016Zm0 0"/><path id="d" d="M1.297-6.344c.61.047.766.14.766.407 0 .14-.032.39-.11.64L.734-.89c-.187.579-.25.625-.812.735V0h2.516c1.171 0 2.234-.312 3-.875.968-.703 1.546-1.797 1.546-2.953 0-1.64-1.14-2.688-2.921-2.688H1.297Zm1.828.422c.063-.219.203-.281.61-.281.562 0 1.062.125 1.374.36.5.359.766.984.766 1.78 0 1.079-.422 2.188-1.094 2.86-.593.61-1.406.906-2.437.906-.453 0-.656-.11-.656-.375 0-.125.062-.344.218-.937Zm0 0"/><path id="e" d="M5.625-.156c-.578-.047-.625-.14-.766-.86l-.937-5.64h-.25L.782-1.672C-.017-.344-.11-.234-.517-.156V0H1.36v-.156C.844-.203.766-.266.766-.516c0-.187.03-.265.203-.609L1.53-2.25h2.203l.188 1.297c.015.094.031.187.031.265 0 .375-.14.47-.781.532V0h2.453ZM1.75-2.61l1.484-2.594.438 2.594Zm0 0"/><path id="f" d="m6.5-4.64.375-1.985h-.219c-.078.172-.172.219-.375.219a2 2 0 0 1-.406-.063c-.453-.11-.844-.172-1.172-.172-2.125 0-4.047 2-4.047 4.22 0 1.53 1.078 2.593 2.61 2.593 1.015 0 1.812-.438 2.718-1.484l-.171-.141c-.891.89-1.47 1.187-2.297 1.187-1.11 0-1.735-.765-1.735-2.046 0-1.188.469-2.391 1.25-3.204.485-.484 1.11-.765 1.766-.765.922 0 1.422.547 1.516 1.61Zm0 0"/><path id="g" d="M-.078 0h2.812c1.563 0 2.641-.812 2.641-2 0-.36-.125-.719-.344-.937-.203-.22-.39-.344-.922-.563.72-.172 1-.281 1.329-.562q.42-.375.421-.985c0-.937-.703-1.469-1.984-1.469H1.297v.172c.61.047.766.125.766.407 0 .14-.032.39-.11.64L.734-.89c-.187.579-.25.625-.812.735Zm2.453-3.297c.64 0 1.063.031 1.266.11.406.171.656.609.656 1.156 0 1.078-.734 1.734-1.953 1.734-.422 0-.64-.156-.64-.422 0-.125.124-.593.343-1.39.14-.453.203-.688.328-1.188m.75-2.64c.063-.22.172-.266.563-.266.796 0 1.171.328 1.171 1.062 0 .579-.25 1.016-.671 1.25-.344.204-.813.266-1.72.266Zm0 0"/><path id="h" d="M5.766-4.984 4.89-3.266c-.063-1.203-.563-1.843-1.47-1.843-.452 0-.983.187-1.405.5C1.375-4.141.984-3.422.813-2.437.547-.844 1.188.124 2.484.124c.875 0 1.579-.437 2.141-1.328.016.187.063.36.125.61.172.562.313.718.64.718.329 0 .594-.203.782-.625.11-.234.172-.453.281-1h-.266c-.093.5-.343.875-.593.875-.328 0-.578-.531-.578-1.219l1.64-3.14ZM4.453-2.406l-.344.656c-.515 1.016-.984 1.5-1.484 1.5a.77.77 0 0 1-.703-.484c-.156-.407-.172-1.047-.047-1.766.11-.703.36-1.312.688-1.75.234-.297.484-.437.796-.437.704 0 1.063.578 1.079 1.703Zm0 0"/><path id="i" d="M.672.625a8.4 8.4 0 0 1-.438 1.594h.813c.187-.235.25-.5.375-1.281l.234-1.36c.453.406.875.547 1.453.547 1.188 0 2.157-.875 2.375-2.156.172-1.063-.234-1.813-1.25-2.281.813-.407 1.25-.875 1.344-1.438.156-.89-.61-1.625-1.672-1.625-1.078 0-2.015.703-2.172 1.656Zm1.875-6.453c.125-.688.625-1.188 1.219-1.188.625 0 .984.579.843 1.391-.078.516-.468 1.094-.734 1.094-.031 0-.047 0-.203-.047-.14-.031-.219-.031-.297-.031-.25 0-.453.156-.484.343-.032.188.125.313.375.313.062 0 .109-.016.234-.031.11-.032.219-.047.297-.047.125 0 .187.031.234.078.39.422.532 1.187.39 2-.171 1-.702 1.578-1.437 1.578-.5 0-.968-.219-1.234-.61Zm0 0"/><path id="j" d="M4.078-2.297H6.86c.141 0 .329 0 .329-.203 0-.187-.188-.187-.329-.187H4.08v-2.797c0-.141 0-.328-.204-.328s-.203.187-.203.328v2.797H.89c-.141 0-.328 0-.328.187 0 .203.187.203.328.203h2.78V.5c0 .14 0 .328.204.328S4.078.641 4.078.5Zm0 0"/><path id="k" d="m2.906-6.734-1.797.906v.14c.11-.046.22-.093.266-.109a1.2 1.2 0 0 1 .453-.11c.203 0 .297.141.297.47v4.515c0 .328-.078.547-.234.64-.157.094-.297.126-.72.126V0h2.75v-.156c-.78 0-.937-.11-.937-.578V-6.72Zm0 0"/><path id="l" d="M2.938-1.156c-.36.515-.626.703-1.047.703C1.219-.453.75-1.047.75-1.891c0-.765.406-1.28 1-1.28.266 0 .36.077.438.343l.046.172c.063.203.188.328.344.328.188 0 .36-.14.36-.313 0-.406-.516-.75-1.141-.75-.36 0-.734.141-1.031.407-.375.328-.578.828-.578 1.406C.188-.61.766.078 1.578.078c.344 0 .64-.125.906-.344.188-.187.329-.39.547-.812Zm0 0"/><path id="m" d="M1.844-3.39C.89-3.39.219-2.688.219-1.673c0 1 .687 1.75 1.61 1.75.937 0 1.64-.781 1.64-1.797 0-.968-.688-1.672-1.625-1.672m-.094.203c.625 0 1.047.703 1.047 1.718 0 .828-.328 1.344-.875 1.344-.297 0-.563-.187-.719-.484C1-.984.875-1.5.875-2.031c0-.703.344-1.156.875-1.156m0 0"/><path id="n" d="m2.328-2.312-.031-1h-.078l-.016.015c-.078.047-.078.047-.11.047a.6.6 0 0 1-.202-.047 1.3 1.3 0 0 0-.516-.094c-.578 0-1 .375-1 .907 0 .422.234.718.86 1.062l.437.25c.25.14.375.328.375.547 0 .328-.235.531-.61.531-.25 0-.484-.093-.624-.25C.656-.53.593-.704.5-1.125H.39V.031h.094c.047-.078.079-.093.172-.093.063 0 .156.015.328.062.204.047.407.078.547.078.563 0 1.032-.437 1.032-.953 0-.36-.172-.61-.61-.875l-.797-.469c-.218-.125-.328-.297-.328-.5 0-.297.235-.5.578-.5.422 0 .64.25.813.906Zm0 0"/><path id="o" d="m4.266-3.687-.657 1.265c-.046-.89-.421-1.36-1.093-1.36-.328 0-.72.141-1.032.376-.453.344-.765.875-.89 1.61C.406-.626.875.093 1.828.093c.656 0 1.188-.328 1.61-.985 0 .141.03.266.078.454.125.421.234.53.468.53s.438-.155.579-.468c.093-.156.14-.328.218-.734h-.203c-.078.375-.266.64-.437.64-.25 0-.438-.39-.422-.89l1.203-2.328Zm-.97 1.906-.25.484c-.39.75-.75 1.11-1.108 1.11-.235 0-.422-.141-.516-.36-.11-.297-.125-.765-.031-1.297.078-.531.265-.984.515-1.312.157-.203.344-.313.578-.313.516 0 .797.422.797 1.266Zm0 0"/><path id="p" d="M.5.453C.438.843.297 1.36.172 1.641h.594c.14-.172.187-.375.297-.953l.156-1c.343.296.656.406 1.078.406.875 0 1.594-.64 1.75-1.594.14-.797-.172-1.344-.922-1.687.61-.313.938-.641 1-1.063.11-.656-.453-1.203-1.25-1.203-.781 0-1.469.516-1.594 1.219Zm1.39-4.765c.094-.516.454-.875.891-.875.453 0 .735.437.64 1.015-.077.39-.358.813-.546.813-.016 0-.047 0-.156-.032-.11-.015-.156-.03-.219-.03-.172 0-.344.124-.36.265-.03.14.079.234.282.234.031 0 .078-.015.172-.031.078-.016.156-.031.219-.031.093 0 .14.015.171.062.282.313.391.875.297 1.469-.125.75-.531 1.187-1.078 1.187-.36 0-.703-.171-.906-.468Zm0 0"/><path id="q" d="m-2.312-2.328-1 .031v.078l.015.016c.047.078.047.078.047.11a.6.6 0 0 1-.047.202 1.3 1.3 0 0 0-.094.516c0 .578.375 1 .907 1 .422 0 .718-.234 1.062-.86l.25-.437c.14-.25.328-.375.547-.375.328 0 .531.235.531.61 0 .25-.093.484-.25.625-.187.156-.36.218-.781.312v.11H.031v-.094c-.078-.047-.093-.079-.093-.172 0-.063.015-.156.062-.328.047-.203.078-.407.078-.547 0-.563-.437-1.031-.953-1.031-.36 0-.61.171-.875.609l-.469.797c-.125.218-.297.328-.5.328-.297 0-.5-.235-.5-.578 0-.422.25-.64.906-.813Zm0 0"/><path id="r" d="m-3.39-1.297.406 1.156h.109l-.016-.062c0-.094-.015-.188-.015-.25 0-.188.125-.25.437-.25H-.75c.531 0 .61.078.64.578H0v-1.734h-.11c-.03.484-.109.547-.64.547h-2.625Zm-1.641.36c0 .187.156.359.375.359a.367.367 0 0 0 .375-.36.384.384 0 0 0-.375-.39c-.219 0-.375.172-.375.39m0 0"/><path id="s" d="M-2.937-.125a.5.5 0 0 1-.032-.187c0-.22.11-.282.469-.282h1.844c.406 0 .515.078.547.469H0v-1.578h-.11c-.03.39-.124.5-.39.5h-2.062c-.329-.36-.422-.516-.422-.766 0-.36.218-.531.718-.531h1.532c.468 0 .593.094.625.453H0v-1.531h-.11c-.03.36-.124.453-.484.453H-2.28c-.703 0-1.11.328-1.11.875 0 .328.125.563.594 1.063h-.578l-.016.046c.125.36.22.61.329 1.016Zm0 0"/><path id="t" d="m-3.687-4.266 1.265.657c-.89.046-1.36.422-1.36 1.093 0 .329.141.72.376 1.032.344.453.875.765 1.61.89C-.626-.406.093-.875.093-1.828c0-.656-.328-1.188-.985-1.61.141 0 .266-.03.454-.078.421-.125.53-.234.53-.468s-.155-.438-.468-.578c-.156-.094-.328-.141-.734-.22v.204c.375.078.64.266.64.437 0 .25-.39.438-.89.422l-2.328-1.203Zm1.906.97.484.25c.75.39 1.11.75 1.11 1.108 0 .235-.141.422-.36.516-.297.11-.765.125-1.297.031-.531-.078-.984-.265-1.312-.515-.203-.157-.313-.344-.313-.578 0-.516.422-.797 1.266-.797Zm0 0"/><path id="u" d="M.453-.5c.39.063.906.203 1.188.328v-.594c-.172-.14-.375-.187-.953-.296l-1-.157c.296-.343.406-.656.406-1.078 0-.875-.64-1.594-1.594-1.75-.797-.14-1.344.172-1.687.922-.313-.61-.641-.937-1.063-1-.656-.11-1.203.453-1.203 1.25 0 .781.516 1.469 1.219 1.594Zm-4.765-1.39c-.516-.094-.875-.454-.875-.891 0-.453.437-.735 1.015-.64.39.077.813.358.813.546 0 .016 0 .047-.032.156-.015.11-.03.156-.03.219 0 .172.124.344.265.36.14.03.234-.079.234-.282 0-.031-.015-.078-.031-.172-.016-.078-.031-.156-.031-.219 0-.093.015-.14.062-.171.313-.282.875-.391 1.469-.297.75.125 1.187.531 1.187 1.078 0 .36-.171.703-.468.906Zm0 0"/><path id="v" d="m2.313 2.328 1-.031v-.078l-.016-.016c-.047-.078-.047-.078-.047-.11 0-.046.016-.124.047-.202a1.3 1.3 0 0 0 .094-.516c0-.578-.375-1-.907-1-.421 0-.718.234-1.062.86l-.25.437c-.14.25-.328.375-.547.375-.328 0-.531-.235-.531-.61 0-.25.094-.484.25-.624C.53.656.704.593 1.125.5V.39H-.031v.094c.078.047.094.079.094.172C.063.72.047.812 0 .984a2.7 2.7 0 0 0-.078.547c0 .563.437 1.032.953 1.032.36 0 .61-.172.875-.61l.469-.797c.125-.218.297-.328.5-.328.297 0 .5.235.5.578 0 .422-.25.64-.906.813Zm0 0"/><path id="w" d="M3.39 1.297 2.985.14h-.109l.016.062c0 .094.015.188.015.25 0 .188-.125.25-.437.25H.75C.219.703.14.625.11.125H0v1.734h.11c.03-.484.109-.546.64-.546h2.625Zm1.641-.36a.367.367 0 0 0-.375-.359.367.367 0 0 0-.375.36c0 .218.172.39.375.39.219 0 .375-.172.375-.39m0 0"/><path id="x" d="M2.938.125a.5.5 0 0 1 .03.188c0 .218-.109.28-.468.28H.656C.25.594.141.517.11.126H0v1.578h.11c.03-.39.124-.5.39-.5h2.063c.328.36.421.516.421.766 0 .36-.218.531-.718.531H.734c-.468 0-.593-.094-.625-.453H0v1.531h.11c.03-.36.124-.453.484-.453H2.28c.703 0 1.11-.328 1.11-.875 0-.328-.125-.562-.594-1.062h.578l.016-.047C3.266.78 3.17.53 3.063.125Zm0 0"/><path id="y" d="m3.688 4.266-1.266-.657c.89-.046 1.36-.421 1.36-1.093 0-.328-.141-.72-.376-1.032-.344-.453-.875-.765-1.61-.89C.626.406-.093.875-.093 1.828c0 .656.328 1.188.985 1.61-.141 0-.266.03-.453.078-.422.125-.532.234-.532.468s.157.438.469.579c.156.093.328.14.734.218v-.203C.734 4.5.47 4.312.47 4.141c0-.25.39-.438.89-.422l2.329 1.203Zm-1.907-.97-.484-.25c-.75-.39-1.11-.75-1.11-1.108 0-.235.141-.422.36-.516.297-.11.766-.125 1.297-.031.531.078.984.265 1.312.515.203.157.313.344.313.578 0 .516-.422.797-1.266.797Zm0 0"/><path id="z" d="M-.453.5C-.843.438-1.36.297-1.641.172v.594c.172.14.375.187.954.297l1 .156c-.297.343-.407.656-.407 1.078 0 .875.64 1.594 1.594 1.75.797.14 1.344-.172 1.688-.922.312.61.64.938 1.062 1 .656.11 1.203-.453 1.203-1.25 0-.781-.516-1.469-1.219-1.594Zm4.766 1.39c.515.094.875.454.875.891 0 .453-.438.735-1.016.64-.39-.077-.813-.358-.813-.546 0-.016 0-.047.032-.156.015-.11.03-.156.03-.219 0-.172-.124-.344-.265-.36-.14-.03-.234.079-.234.282 0 .031.015.078.031.172.016.078.031.156.031.219 0 .093-.015.14-.062.171-.313.282-.875.391-1.469.297C.703 3.156.266 2.75.266 2.203c0-.36.172-.703.468-.906Zm0 0"/></defs><path fill="#fff" d="M0 0h143.11v114.023H0Zm0 0"/><path fill="none" stroke="#000" stroke-miterlimit="10" stroke-width=".399" d="M128.617 99.531v-7.086h-7.086v7.086h7.086M128.617 14.492h-7.086v7.086h7.086v-7.086M15.23 14.492v7.086h7.086v-7.086H15.23M15.23 99.531v-7.086h7.086v7.086H15.23"/><path fill="none" stroke="#000" stroke-linecap="round" stroke-linejoin="round" stroke-miterlimit="10" stroke-width=".797" d="M15.23 99.531h113.387V14.492H15.23Zm0 0"/><path fill="none" stroke="#000" stroke-linecap="round" stroke-linejoin="round" stroke-miterlimit="10" stroke-width=".797" d="m57.75 99.531 70.867-28.347-42.52-56.692L15.23 42.836Zm0 0"/><path fill="#7f7f7f" stroke="#000" stroke-miterlimit="10" stroke-width=".399" d="M16.227 99.531a.995.995 0 1 0-1.991-.001.995.995 0 0 0 1.99.001ZM129.613 99.531a.995.995 0 1 0-1.99-.001.995.995 0 0 0 1.99.001ZM129.613 14.492a.995.995 0 1 0-1.99-.001.995.995 0 0 0 1.99.001ZM16.227 14.492a.995.995 0 1 0-1.991-.001.995.995 0 0 0 1.99.001ZM58.746 99.531a.995.995 0 1 0-1.99-.001.995.995 0 0 0 1.99.001ZM129.613 71.184a.995.995 0 1 0-1.99-.002.995.995 0 0 0 1.99.002ZM87.094 14.492a.995.995 0 1 0-1.99-.001.995.995 0 0 0 1.99.001ZM16.227 42.836a1 1 0 0 0-.997-.996.995.995 0 1 0 .996.996Zm0 0"/><use xlink:href="#a" x="82.5" y="10.802"/><use xlink:href="#b" x="3.821" y="46.071"/><use xlink:href="#c" x="132.136" y="74.417"/><use xlink:href="#d" x="4.518" y="10.972"/><use xlink:href="#e" x="5.624" y="109.745"/><use xlink:href="#f" x="131.638" y="10.802"/><use xlink:href="#g" x="132.136" y="109.516"/><path fill="none" stroke="red" stroke-miterlimit="10" stroke-width=".399" d="M49.246 88.191a14.18 14.18 0 0 0-5.668 11.34"/><use xlink:href="#h" x="36.447" y="93.031" fill="red"/><path fill="none" stroke="red" stroke-miterlimit="10" stroke-width=".399" d="M94.602 25.828a14.18 14.18 0 0 0 5.668-11.336"/><use xlink:href="#h" x="100.286" y="25.738" fill="red"/><path fill="none" stroke="#00f" stroke-miterlimit="10" stroke-width=".399" d="M76.176 99.531c0-2.344-.45-4.668-1.317-6.844"/><use xlink:href="#i" x="78.062" y="97.56" fill="#00f"/><path fill="none" stroke="#00f" stroke-miterlimit="10" stroke-width=".399" d="M67.672 14.492c0 2.34.45 4.664 1.32 6.84"/><use xlink:href="#i" x="59.09" y="21.633" fill="#00f"/><path fill="none" stroke="#bf0040" stroke-miterlimit="10" stroke-width=".399" d="M22.035 51.906a11.34 11.34 0 0 0 3.723-13.281"/><use xlink:href="#h" x="27.635" y="52.311" fill="#bf0040"/><use xlink:href="#j" x="36.132" y="52.311" fill="#bf0040"/><use xlink:href="#i" x="45.257" y="52.311" fill="#bf0040"/><path fill="#ff7f00" stroke="#000" stroke-miterlimit="10" stroke-width=".399" d="M44.61 70.473a8.82 8.82 0 0 0-8.825-8.825 8.82 8.82 0 0 0-8.824 8.825 8.82 8.82 0 0 0 8.824 8.824 8.82 8.82 0 0 0 8.824-8.824Zm0 0"/><use xlink:href="#k" x="33.294" y="73.805"/><path fill="#ff7f00" stroke="#000" stroke-miterlimit="10" stroke-width=".399" d="M115.477 42.125a8.825 8.825 0 1 0-17.65.001 8.825 8.825 0 0 0 17.65-.001Zm0 0"/><use xlink:href="#k" x="104.161" y="45.459"/><path fill="#ff7f00" stroke="#000" stroke-miterlimit="10" stroke-width=".399" d="M108.383 81.813a8.82 8.82 0 0 0-8.824-8.825 8.825 8.825 0 1 0 8.824 8.824Zm0 0"/><use xlink:href="#k" x="97.067" y="85.144"/><path fill="#ff7f00" stroke="#000" stroke-miterlimit="10" stroke-width=".399" d="M58.777 27.953a8.82 8.82 0 0 0-8.824-8.824 8.825 8.825 0 1 0 8.824 8.824Zm0 0"/><use xlink:href="#k" x="47.462" y="31.285"/><use xlink:href="#l" x="28.535" y="106.689"/><use xlink:href="#m" x="31.808" y="106.689"/><use xlink:href="#n" x="35.494" y="106.689"/><use xlink:href="#o" x="39.182" y="106.689"/><use xlink:href="#l" x="85.383" y="108.539"/><use xlink:href="#m" x="88.656" y="108.539"/><use xlink:href="#n" x="92.342" y="108.539"/><use xlink:href="#p" x="96.029" y="108.539"/><use xlink:href="#l" x="42.863" y="9.309"/><use xlink:href="#m" x="46.136" y="9.309"/><use xlink:href="#n" x="49.822" y="9.309"/><use xlink:href="#p" x="53.51" y="9.309"/><use xlink:href="#l" x="99.401" y="10.846"/><use xlink:href="#m" x="102.674" y="10.846"/><use xlink:href="#n" x="106.36" y="10.846"/><use xlink:href="#o" x="110.048" y="10.846"/><use xlink:href="#q" x="11.586" y="78.527"/><use xlink:href="#r" x="11.586" y="75.659"/><use xlink:href="#s" x="11.586" y="73.61"/><use xlink:href="#t" x="11.586" y="69.105"/><use xlink:href="#q" x="10.048" y="35.853"/><use xlink:href="#r" x="10.048" y="32.985"/><use xlink:href="#s" x="10.048" y="30.936"/><use xlink:href="#u" x="10.048" y="26.43"/><use xlink:href="#v" x="132.261" y="35.495"/><use xlink:href="#w" x="132.261" y="38.363"/><use xlink:href="#x" x="132.261" y="40.412"/><use xlink:href="#y" x="132.261" y="44.918"/><use xlink:href="#v" x="133.799" y="78.169"/><use xlink:href="#w" x="133.799" y="81.037"/><use xlink:href="#x" x="133.799" y="83.086"/><use xlink:href="#z" x="133.799" y="87.591"/></svg>