<svg xmlns="http://www.w3.org/2000/svg" xmlns:xlink="http://www.w3.org/1999/xlink" width="270.348" height="283.25" viewBox="0 0 202.761 212.438"><defs><path id="a" d="M8.422-.234c-.844-.078-.938-.203-1.125-1.297L5.89-9.984H5.5L1.172-2.516C-.016-.516-.172-.359-.766-.234V0h2.797v-.234c-.765-.078-.875-.157-.875-.532 0-.28.032-.421.297-.921l.844-1.688h3.297l.297 1.953c.015.14.03.266.03.39 0 .563-.218.704-1.171.798V0h3.672ZM2.609-3.906l2.25-3.89.657 3.89Zm0 0"/><path id="b" d="m9.734-6.953.563-2.969h-.313c-.125.25-.28.328-.578.328-.11 0-.297-.031-.61-.094-.671-.171-1.265-.265-1.75-.265-3.171 0-6.062 3-6.062 6.328 0 2.281 1.61 3.89 3.907 3.89 1.53 0 2.734-.656 4.078-2.218l-.266-.219C7.36-.844 6.5-.406 5.266-.406c-1.657 0-2.61-1.125-2.61-3.063 0-1.781.719-3.578 1.89-4.797.72-.734 1.657-1.14 2.641-1.14 1.375 0 2.141.797 2.282 2.422Zm0 0"/><path id="c" d="M1.938-9.516c.937.094 1.156.204 1.156.61 0 .234-.063.594-.172.953l-1.828 6.61C.828-.485.719-.392-.125-.235V0h3.781C5.406 0 7-.469 8.156-1.297 9.61-2.359 10.453-4 10.453-5.734c0-2.453-1.703-4.016-4.36-4.016H1.939Zm2.734.641c.094-.328.312-.437.922-.437.843 0 1.593.203 2.062.562.735.531 1.14 1.469 1.14 2.656 0 1.61-.624 3.282-1.64 4.297-.875.906-2.093 1.344-3.64 1.344-.688 0-.97-.156-.97-.547 0-.187.063-.531.329-1.422Zm0 0"/><path id="d" d="M-.125 0h4.219c2.343 0 3.953-1.219 3.953-2.984 0-.563-.172-1.078-.5-1.407-.297-.343-.594-.53-1.375-.859 1.062-.25 1.484-.422 1.969-.844.422-.36.64-.86.64-1.468 0-1.422-1.062-2.188-2.984-2.188h-3.86v.234c.938.079 1.157.188 1.157.61 0 .234-.063.594-.172.953l-1.828 6.61C.828-.485.719-.392-.125-.235Zm3.688-4.937c.968 0 1.593.046 1.89.171.61.25.984.907.984 1.72 0 1.608-1.109 2.593-2.921 2.593-.625 0-.97-.219-.97-.625 0-.172.188-.89.532-2.094.188-.672.281-1.015.485-1.765m1.109-3.954c.094-.328.266-.421.86-.421 1.187 0 1.75.515 1.75 1.624 0 .844-.36 1.5-1 1.86-.516.297-1.235.406-2.579.406Zm0 0"/><path id="e" d="M8.656-7.469 7.312-4.906c-.078-1.797-.828-2.75-2.187-2.75-.687 0-1.469.281-2.11.75-.953.703-1.546 1.781-1.796 3.265C.829-1.266 1.766.188 3.703.188c1.313 0 2.39-.672 3.219-2 .031.28.094.562.187.937.266.828.485 1.063.954 1.063.5 0 .89-.313 1.187-.938.172-.344.266-.672.422-1.5h-.39c-.157.75-.532 1.313-.907 1.313-.5 0-.844-.797-.86-1.829l2.47-4.703Zm-2 3.875-.5.969c-.765 1.516-1.5 2.25-2.234 2.25-.469 0-.89-.297-1.047-.734-.234-.61-.25-1.547-.062-2.625.171-1.078.53-1.985 1.03-2.641.345-.437.72-.64 1.188-.64 1.063 0 1.594.843 1.625 2.546Zm0 0"/><path id="f" d="M1.031.922C.906 1.719.61 2.75.36 3.312h1.235c.234-.343.36-.75.547-1.906l.343-2.031c.688.594 1.313.813 2.172.813 1.782 0 3.219-1.313 3.547-3.235.266-1.594-.328-2.719-1.86-3.422 1.235-.61 1.891-1.297 2.032-2.156.219-1.328-.937-2.422-2.531-2.422-1.61 0-2.985 1.047-3.219 2.469Zm2.797-9.64C4-9.767 4.75-10.5 5.641-10.5c.937 0 1.468.86 1.265 2.063-.125.796-.687 1.64-1.078 1.64-.047 0-.094 0-.328-.062a2 2 0 0 0-.437-.063c-.36 0-.704.25-.75.531s.203.454.578.454c.093 0 .172 0 .343-.032.172-.047.329-.062.438-.062.203 0 .297.031.375.11.562.64.781 1.765.578 3-.25 1.483-1.047 2.374-2.156 2.374a2.23 2.23 0 0 1-1.844-.937Zm0 0"/><path id="g" d="M.875.328c1.672-.187 2.5-.484 3.516-1.203 1.547-1.14 2.468-3 2.468-5.016 0-2.453-1.375-4.203-3.296-4.203-1.782 0-3.11 1.5-3.11 3.516 0 1.828 1.078 3.031 2.688 3.031.812 0 1.437-.234 2.234-.844C4.765-1.953 3.109-.359.844.031Zm4.531-5.625c0 .297-.062.422-.218.563-.422.359-.97.547-1.516.547-1.125 0-1.844-1.11-1.844-2.891 0-.86.234-1.75.547-2.14.25-.298.625-.454 1.063-.454 1.296 0 1.968 1.281 1.968 3.781Zm0 0"/><path id="h" d="M3.797-10.094c-.828 0-1.453.25-2 .766C.922-8.484.359-6.766.359-5.016.36-3.39.844-1.64 1.547-.812A2.83 2.83 0 0 0 3.734.202c.766 0 1.407-.25 1.938-.766.875-.828 1.437-2.562 1.437-4.359 0-3.062-1.359-5.172-3.312-5.172m-.047.39c1.25 0 1.922 1.688 1.922 4.798 0 3.125-.656 4.734-1.938 4.734-1.28 0-1.937-1.61-1.937-4.719 0-3.156.672-4.812 1.953-4.812m0 0"/><path id="i" d="M4.906-2.766c0-1.187-.984-2.14-2.14-2.14-1.188 0-2.157.984-2.157 2.14 0 1.172.97 2.141 2.157 2.141 1.156 0 2.14-.953 2.14-2.14m-2.14 1.704a1.71 1.71 0 0 1-1.72-1.704 1.72 1.72 0 0 1 1.72-1.703c.922 0 1.703.75 1.703 1.703s-.782 1.704-1.703 1.704m0 0"/><path id="j" d="M9.844-3.437c.25 0 .515 0 .515-.297s-.265-.297-.515-.297H1.766c-.25 0-.532 0-.532.297s.282.297.532.297Zm0 0"/></defs><path fill="none" stroke="#000" stroke-miterlimit="10" stroke-width=".5985" d="m20.14 142.031 5.38 3.426 3.425-5.379-5.379-3.426-3.425 5.38M180.96 120.86l-4.097-4.887-4.886 4.101 4.101 4.883 4.883-4.098"/><path fill="none" stroke="#000" stroke-linecap="round" stroke-linejoin="round" stroke-miterlimit="10" stroke-width="1.1955" d="M97.215 21.05 20.14 142.032l77.074 49.102 83.746-70.274Zm0 0"/><path fill="none" stroke="#000" stroke-linecap="round" stroke-miterlimit="10" stroke-width="1.1955" d="M97.215 21.05v170.083M20.14 142.031l160.82-21.172"/><path fill="none" stroke="#000" stroke-miterlimit="10" stroke-width="1.1955" d="M182.254 106.094c0-46.969-38.074-85.043-85.04-85.043-46.968 0-85.042 38.074-85.042 85.043 0 46.965 38.074 85.039 85.043 85.039 46.965 0 85.039-38.074 85.039-85.04Zm0 0"/><path fill="#7f7f7f" stroke="#000" stroke-miterlimit="10" stroke-width=".5985" d="M98.707 21.05c0-.823-.668-1.491-1.492-1.491-.828 0-1.496.668-1.496 1.492s.668 1.496 1.496 1.496c.824 0 1.492-.672 1.492-1.496ZM21.637 142.031c0-.824-.672-1.496-1.496-1.496-.825 0-1.496.672-1.496 1.496s.671 1.496 1.496 1.496c.824 0 1.496-.672 1.496-1.496ZM98.707 191.133a1.495 1.495 0 1 0-2.988 0c0 .824.668 1.492 1.496 1.492.824 0 1.492-.668 1.492-1.492ZM182.457 120.86c0-.825-.668-1.497-1.496-1.497a1.495 1.495 0 0 0 0 2.989c.828 0 1.496-.668 1.496-1.493Zm0 0"/><use xlink:href="#a" x="92.647" y="15.773"/><use xlink:href="#b" x="91.692" y="206.452"/><use xlink:href="#c" x="186.24" y="125.707"/><use xlink:href="#d" x="5.731" y="157.008"/><path fill="none" stroke="red" stroke-miterlimit="10" stroke-width=".5985" d="M86.934 37.188a19.13 19.13 0 0 0 10.28 2.996M161.992 123.355a19.15 19.15 0 0 0 4.313 9.801"/><use xlink:href="#e" x="84.145" y="51.145" fill="red"/><use xlink:href="#e" x="150.33" y="135.549" fill="red"/><path fill="none" stroke="#00f" stroke-miterlimit="10" stroke-width=".5985" d="M97.215 42.312a21.25 21.25 0 0 0 13.664-4.976M38.07 153.453a21.27 21.27 0 0 0 3.149-14.195"/><use xlink:href="#f" x="102.372" y="52.899" fill="#00f"/><use xlink:href="#f" x="44.176" y="152.351" fill="#00f"/><path fill="none" stroke="#00b200" stroke-miterlimit="10" stroke-width=".5985" d="M39.11 139.535a19.15 19.15 0 0 0-8.688-13.64M111.871 178.832A19.14 19.14 0 0 0 97.215 172"/><g fill="#00b200"><use xlink:href="#g" x="36.178" y="126.528"/><use xlink:href="#h" x="43.65" y="126.528"/></g><use xlink:href="#i" x="51.123" y="121.104" fill="#00b200"/><use xlink:href="#j" x="59.475" y="126.528" fill="#00b200"/><use xlink:href="#f" x="73.161" y="126.528" fill="#00b200"/><g fill="#00b200"><use xlink:href="#g" x="107.885" y="170.921"/><use xlink:href="#h" x="115.356" y="170.921"/></g><use xlink:href="#i" x="122.828" y="165.496" fill="#00b200"/><use xlink:href="#j" x="131.179" y="170.921" fill="#00b200"/><use xlink:href="#f" x="144.867" y="170.921" fill="#00b200"/><path fill="none" stroke="#bf0040" stroke-miterlimit="10" stroke-width=".5985" d="M167.297 104.574a21.26 21.26 0 0 0-7.41 19.059M97.215 169.871a21.26 21.26 0 0 0-17.93 9.84"/><g fill="#bf0040"><use xlink:href="#g" x="112.177" y="108.174"/><use xlink:href="#h" x="119.649" y="108.174"/></g><use xlink:href="#i" x="127.122" y="102.75" fill="#bf0040"/><use xlink:href="#j" x="135.474" y="108.174" fill="#bf0040"/><use xlink:href="#e" x="149.161" y="108.174" fill="#bf0040"/><g fill="#bf0040"><use xlink:href="#g" x="52.767" y="167.193"/><use xlink:href="#h" x="60.239" y="167.193"/></g><use xlink:href="#i" x="67.71" y="161.769" fill="#bf0040"/><use xlink:href="#j" x="76.062" y="167.193" fill="#bf0040"/><use xlink:href="#e" x="89.749" y="167.193" fill="#bf0040"/></svg>