<svg xmlns="http://www.w3.org/2000/svg" xmlns:xlink="http://www.w3.org/1999/xlink" width="154.385" height="190.12" viewBox="0 0 115.789 142.59"><defs><path id="a" d="M7.25-6.516H5.266v.172c.562.047.703.14.703.5 0 .125-.032.235-.094.438-.016.031-.016.078-.016.078L4.83-1.531 2.765-6.516h-1.61v.172c.469.032.672.157.86.547L.828-1.64C.453-.359.375-.234-.203-.156V0H1.78v-.156c-.515-.047-.703-.156-.703-.438 0-.125.031-.328.094-.531l1.125-4.203L4.594.156h.187l1.422-5.015c.375-1.297.422-1.344 1.047-1.485Zm0 0"/><path id="b" d="M8.703-6.516H7.031L3.688-1.594 3.14-6.516H1.328v.172c.5.032.75.14.75.36 0 .078-.047.234-.11.406a3 3 0 0 0-.077.297.3.3 0 0 0-.032.125L.797-1.453C.484-.422.344-.22-.172-.156V0h1.969v-.156c-.516-.047-.703-.156-.703-.438 0-.11.031-.36.078-.531l1.187-4.312L2.953 0h.172l3.766-5.594L5.609-.906c-.171.531-.359.672-1.015.75V0h2.718v-.156c-.671-.063-.765-.125-.765-.438 0-.156.016-.297.11-.61L7.89-5.608c.172-.594.218-.657.812-.735Zm0 0"/><path id="c" d="M1.297-6.344c.61.047.766.14.766.407 0 .14-.032.39-.11.64L.734-.89c-.187.579-.25.625-.812.735V0h2.516c1.171 0 2.234-.312 3-.875.968-.703 1.546-1.797 1.546-2.953 0-1.64-1.14-2.688-2.921-2.688H1.297Zm1.828.422c.063-.219.203-.281.61-.281.562 0 1.062.125 1.374.36.5.359.766.984.766 1.78 0 1.079-.422 2.188-1.094 2.86-.593.61-1.406.906-2.437.906-.453 0-.656-.11-.656-.375 0-.125.062-.344.218-.937Zm0 0"/><path id="d" d="M5.625-.156c-.578-.047-.625-.14-.766-.86l-.937-5.64h-.25L.782-1.672C-.017-.344-.11-.234-.517-.156V0H1.36v-.156C.844-.203.766-.266.766-.516c0-.187.03-.265.203-.609L1.53-2.25h2.203l.188 1.297c.015.094.031.187.031.265 0 .375-.14.47-.781.532V0h2.453ZM1.75-2.61l1.484-2.594.438 2.594Zm0 0"/><path id="e" d="m6.5-4.64.375-1.985h-.219c-.078.172-.172.219-.375.219a2 2 0 0 1-.406-.063c-.453-.11-.844-.172-1.172-.172-2.125 0-4.047 2-4.047 4.22 0 1.53 1.078 2.593 2.61 2.593 1.015 0 1.812-.438 2.718-1.484l-.171-.141c-.891.89-1.47 1.187-2.297 1.187-1.11 0-1.735-.765-1.735-2.046 0-1.188.469-2.391 1.25-3.204.485-.484 1.11-.765 1.766-.765.922 0 1.422.547 1.516 1.61Zm0 0"/><path id="f" d="M-.078 0h2.812c1.563 0 2.641-.812 2.641-2 0-.36-.125-.719-.344-.937-.203-.22-.39-.344-.922-.563.72-.172 1-.281 1.329-.562q.42-.375.421-.985c0-.937-.703-1.469-1.984-1.469H1.297v.172c.61.047.766.125.766.407 0 .14-.032.39-.11.64L.734-.89c-.187.579-.25.625-.812.735Zm2.453-3.297c.64 0 1.063.031 1.266.11.406.171.656.609.656 1.156 0 1.078-.734 1.734-1.953 1.734-.422 0-.64-.156-.64-.422 0-.125.124-.593.343-1.39.14-.453.203-.688.328-1.188m.75-2.64c.063-.22.172-.266.563-.266.796 0 1.171.328 1.171 1.062 0 .579-.25 1.016-.671 1.25-.344.204-.813.266-1.72.266Zm0 0"/><path id="g" d="M5.766-4.984 4.89-3.266c-.063-1.203-.563-1.843-1.47-1.843-.452 0-.983.187-1.405.5C1.375-4.141.984-3.422.813-2.437.547-.844 1.188.124 2.484.124c.875 0 1.579-.437 2.141-1.328.016.187.063.36.125.61.172.562.313.718.64.718.329 0 .594-.203.782-.625.11-.234.172-.453.281-1h-.266c-.093.5-.343.875-.593.875-.328 0-.578-.531-.578-1.219l1.64-3.14ZM4.453-2.406l-.344.656c-.515 1.016-.984 1.5-1.484 1.5a.77.77 0 0 1-.703-.484c-.156-.407-.172-1.047-.047-1.766.11-.703.36-1.312.688-1.75.234-.297.484-.437.796-.437.704 0 1.063.578 1.079 1.703Zm0 0"/><path id="h" d="M.672.625a8.4 8.4 0 0 1-.438 1.594h.813c.187-.235.25-.5.375-1.281l.234-1.36c.453.406.875.547 1.453.547 1.188 0 2.157-.875 2.375-2.156.172-1.063-.234-1.813-1.25-2.281.813-.407 1.25-.875 1.344-1.438.156-.89-.61-1.625-1.672-1.625-1.078 0-2.015.703-2.172 1.656Zm1.875-6.453c.125-.688.625-1.188 1.219-1.188.625 0 .984.579.843 1.391-.078.516-.468 1.094-.734 1.094-.031 0-.047 0-.203-.047-.14-.031-.219-.031-.297-.031-.25 0-.453.156-.484.343-.032.188.125.313.375.313.062 0 .109-.016.234-.031.11-.032.219-.047.297-.047.125 0 .187.031.234.078.39.422.532 1.187.39 2-.171 1-.702 1.578-1.437 1.578-.5 0-.968-.219-1.234-.61Zm0 0"/><path id="i" d="M4.078-2.297H6.86c.141 0 .329 0 .329-.203 0-.187-.188-.187-.329-.187H4.08v-2.797c0-.141 0-.328-.204-.328s-.203.187-.203.328v2.797H.89c-.141 0-.328 0-.328.187 0 .203.187.203.328.203h2.78V.5c0 .14 0 .328.204.328S4.078.641 4.078.5Zm0 0"/><path id="j" d="m2.906-6.734-1.797.906v.14c.11-.046.22-.093.266-.109a1.2 1.2 0 0 1 .453-.11c.203 0 .297.141.297.47v4.515c0 .328-.078.547-.234.64-.157.094-.297.126-.72.126V0h2.75v-.156c-.78 0-.937-.11-.937-.578V-6.72Zm0 0"/><path id="k" d="m-2.312-2.328-1 .031v.078l.015.016c.047.078.047.078.047.11a.6.6 0 0 1-.047.202 1.3 1.3 0 0 0-.094.516c0 .578.375 1 .907 1 .422 0 .718-.234 1.062-.86l.25-.437c.14-.25.328-.375.547-.375.328 0 .531.235.531.61 0 .25-.093.484-.25.625-.187.156-.36.218-.781.312v.11H.031v-.094c-.078-.047-.093-.079-.093-.172 0-.063.015-.156.062-.328.047-.203.078-.407.078-.547 0-.563-.437-1.031-.953-1.031-.36 0-.61.171-.875.609l-.469.797c-.125.218-.297.328-.5.328-.297 0-.5-.235-.5-.578 0-.422.25-.64.906-.813Zm0 0"/><path id="l" d="m-3.39-1.297.406 1.156h.109l-.016-.062c0-.094-.015-.188-.015-.25 0-.188.125-.25.437-.25H-.75c.531 0 .61.078.64.578H0v-1.734h-.11c-.03.484-.109.547-.64.547h-2.625Zm-1.641.36c0 .187.156.359.375.359a.367.367 0 0 0 .375-.36.384.384 0 0 0-.375-.39c-.219 0-.375.172-.375.39m0 0"/><path id="m" d="M-2.937-.125a.5.5 0 0 1-.032-.187c0-.22.11-.282.469-.282h1.844c.406 0 .515.078.547.469H0v-1.578h-.11c-.03.39-.124.5-.39.5h-2.062c-.329-.36-.422-.516-.422-.766 0-.36.218-.531.718-.531h1.532c.468 0 .593.094.625.453H0v-1.531h-.11c-.03.36-.124.453-.484.453H-2.28c-.703 0-1.11.328-1.11.875 0 .328.125.563.594 1.063h-.578l-.016.046c.125.36.22.61.329 1.016Zm0 0"/><path id="n" d="M1.766-2.437c-.016 0-.032 0-.157.124-.937.922-2.328 1.157-3.453 1.157-1.281 0-2.562-.282-3.484-1.188-.094-.094-.11-.094-.125-.094-.063 0-.078.032-.078.063 0 .078.5.75 1.437 1.188.813.375 1.625.453 2.25.453.578 0 1.469-.079 2.297-.485.906-.437 1.39-1.078 1.39-1.156 0-.031-.015-.062-.077-.062m0 0"/><path id="p" d="M-1.703-3.016v-2.062c0-.094 0-.234-.14-.234s-.141.14-.141.234v2.062h-2.078c-.094 0-.235 0-.235.141 0 .156.14.156.234.156h2.079v2.063c0 .11 0 .25.14.25s.14-.14.14-.25V-2.72H.376c.094 0 .234 0 .234-.156 0-.14-.14-.14-.234-.14Zm0 0"/><path id="r" d="M-1.844-2.125c-.578 0-1.468.078-2.297.484-.906.438-1.39 1.079-1.39 1.141 0 .047.031.078.078.078.016 0 .031 0 .172-.14.718-.72 1.89-1.141 3.437-1.141 1.266 0 2.563.266 3.485 1.187.093.094.109.094.125.094.046 0 .078-.031.078-.078 0-.062-.5-.734-1.438-1.172-.812-.375-1.625-.453-2.25-.453m0 0"/><path id="o" d="m-3.687-4.266 1.265.657c-.89.046-1.36.422-1.36 1.093 0 .329.141.72.376 1.032.344.453.875.765 1.61.89C-.626-.406.093-.875.093-1.828c0-.656-.328-1.188-.985-1.61.141 0 .266-.03.454-.078.421-.125.53-.234.53-.468s-.155-.438-.468-.578c-.156-.094-.328-.141-.734-.22v.204c.375.078.64.266.64.437 0 .25-.39.438-.89.422l-2.328-1.203Zm1.906.97.484.25c.75.39 1.11.75 1.11 1.108 0 .235-.141.422-.36.516-.297.11-.765.125-1.297.031-.531-.078-.984-.265-1.312-.515-.203-.157-.313-.344-.313-.578 0-.516.422-.797 1.266-.797Zm0 0"/><path id="q" d="M.453-.5c.39.063.906.203 1.188.328v-.594c-.172-.14-.375-.187-.953-.296l-1-.157c.296-.343.406-.656.406-1.078 0-.875-.64-1.594-1.594-1.75-.797-.14-1.344.172-1.687.922-.313-.61-.641-.937-1.063-1-.656-.11-1.203.453-1.203 1.25 0 .781.516 1.469 1.219 1.594Zm-4.765-1.39c-.516-.094-.875-.454-.875-.891 0-.453.437-.735 1.015-.64.39.077.813.358.813.546 0 .016 0 .047-.032.156-.015.11-.03.156-.03.219 0 .172.124.344.265.36.14.03.234-.079.234-.282 0-.031-.015-.078-.031-.172-.016-.078-.031-.156-.031-.219 0-.093.015-.14.062-.171.313-.282.875-.391 1.469-.297.75.125 1.187.531 1.187 1.078 0 .36-.171.703-.468.906Zm0 0"/><path id="s" d="M2.938-1.156c-.36.515-.626.703-1.047.703C1.219-.453.75-1.047.75-1.891c0-.765.406-1.28 1-1.28.266 0 .36.077.438.343l.046.172c.063.203.188.328.344.328.188 0 .36-.14.36-.313 0-.406-.516-.75-1.141-.75-.36 0-.734.141-1.031.407-.375.328-.578.828-.578 1.406C.188-.61.766.078 1.578.078c.344 0 .64-.125.906-.344.188-.187.329-.39.547-.812Zm0 0"/><path id="t" d="M1.844-3.39C.89-3.39.219-2.688.219-1.673c0 1 .687 1.75 1.61 1.75.937 0 1.64-.781 1.64-1.797 0-.968-.688-1.672-1.625-1.672m-.094.203c.625 0 1.047.703 1.047 1.718 0 .828-.328 1.344-.875 1.344-.297 0-.563-.187-.719-.484C1-.984.875-1.5.875-2.031c0-.703.344-1.156.875-1.156m0 0"/><path id="u" d="m2.328-2.312-.031-1h-.078l-.016.015c-.078.047-.078.047-.11.047a.6.6 0 0 1-.202-.047 1.3 1.3 0 0 0-.516-.094c-.578 0-1 .375-1 .907 0 .422.234.718.86 1.062l.437.25c.25.14.375.328.375.547 0 .328-.235.531-.61.531-.25 0-.484-.093-.624-.25C.656-.53.593-.704.5-1.125H.39V.031h.094c.047-.078.079-.093.172-.093.063 0 .156.015.328.062.204.047.407.078.547.078.563 0 1.032-.437 1.032-.953 0-.36-.172-.61-.61-.875l-.797-.469c-.218-.125-.328-.297-.328-.5 0-.297.235-.5.578-.5.422 0 .64.25.813.906Zm0 0"/><path id="P" d="M1.297-3.39.14-2.985v.109l.062-.016c.094 0 .188-.015.25-.015.188 0 .25.125.25.437V-.75c0 .531-.078.61-.578.64V0h1.734v-.11c-.484-.03-.546-.109-.546-.64v-2.625Zm-.36-1.641a.367.367 0 0 0-.359.375c0 .203.156.375.36.375.218 0 .39-.172.39-.375 0-.219-.172-.375-.39-.375m0 0"/><path id="Q" d="M.125-2.937a.5.5 0 0 1 .188-.032c.218 0 .28.11.28.469v1.844c0 .406-.077.515-.468.547V0h1.578v-.11c-.39-.03-.5-.124-.5-.39v-2.062c.36-.329.516-.422.766-.422.36 0 .531.218.531.718v1.532c0 .468-.094.593-.453.625V0h1.531v-.11c-.36-.03-.453-.124-.453-.484V-2.28c0-.703-.328-1.11-.875-1.11-.328 0-.562.125-1.062.594v-.578l-.047-.016c-.36.125-.61.22-1.016.329Zm0 0"/><path id="v" d="M2.438 1.766c0-.016 0-.032-.126-.157C1.392.672 1.157-.719 1.157-1.844c0-1.281.282-2.562 1.188-3.484.094-.094.094-.11.094-.125 0-.063-.032-.078-.063-.078-.078 0-.75.5-1.187 1.437-.375.813-.454 1.625-.454 2.25 0 .578.079 1.469.485 2.297.437.906 1.078 1.39 1.156 1.39.031 0 .063-.015.063-.077m0 0"/><path id="x" d="M3.016-1.703h2.062c.094 0 .234 0 .234-.14s-.14-.141-.234-.141H3.016v-2.078c0-.094 0-.235-.141-.235-.156 0-.156.14-.156.234v2.079H.656c-.11 0-.25 0-.25.14s.14.14.25.14H2.72V.376c0 .094 0 .234.156.234.14 0 .14-.14.14-.234Zm0 0"/><path id="z" d="M2.125-1.844c0-.578-.078-1.468-.484-2.297C1.203-5.047.563-5.53.5-5.53c-.047 0-.078.031-.078.078 0 .016 0 .031.14.172.72.718 1.141 1.89 1.141 3.437C1.703-.578 1.437.72.516 1.641c-.094.093-.094.109-.094.125 0 .046.031.078.078.078.063 0 .734-.5 1.172-1.438.375-.812.453-1.625.453-2.25m0 0"/><path id="w" d="m4.266-3.687-.657 1.265c-.046-.89-.421-1.36-1.093-1.36-.328 0-.72.141-1.032.376-.453.344-.765.875-.89 1.61C.406-.626.875.093 1.828.093c.656 0 1.188-.328 1.61-.985 0 .141.03.266.078.454.125.421.234.53.468.53s.438-.155.579-.468c.093-.156.14-.328.218-.734h-.203c-.078.375-.266.64-.437.64-.25 0-.438-.39-.422-.89l1.203-2.328Zm-.97 1.906-.25.484c-.39.75-.75 1.11-1.108 1.11-.235 0-.422-.141-.516-.36-.11-.297-.125-.765-.031-1.297.078-.531.265-.984.515-1.312.157-.203.344-.313.578-.313.516 0 .797.422.797 1.266Zm0 0"/><path id="y" d="M.5.453C.438.843.297 1.36.172 1.641h.594c.14-.172.187-.375.297-.953l.156-1c.343.296.656.406 1.078.406.875 0 1.594-.64 1.75-1.594.14-.797-.172-1.344-.922-1.687.61-.313.938-.641 1-1.063.11-.656-.453-1.203-1.25-1.203-.781 0-1.469.516-1.594 1.219Zm1.39-4.765c.094-.516.454-.875.891-.875.453 0 .735.437.64 1.015-.077.39-.358.813-.546.813-.016 0-.047 0-.156-.032-.11-.015-.156-.03-.219-.03-.172 0-.344.124-.36.265-.03.14.079.234.282.234.031 0 .078-.015.172-.031.078-.016.156-.031.219-.031.093 0 .14.015.171.062.282.313.391.875.297 1.469-.125.75-.531 1.187-1.078 1.187-.36 0-.703-.171-.906-.468Zm0 0"/><path id="A" d="M1.797-2.594c-.016.625-.125.938-.469 1.172C.766-1.047.047-1.297-.422-2c-.422-.625-.375-1.281.11-1.61.218-.156.343-.14.562.032l.14.14c.157.11.329.157.454.063.156-.094.219-.297.125-.453-.219-.328-.828-.344-1.344 0a1.66 1.66 0 0 0-.64.922c-.126.484-.032 1 .296 1.484.532.813 1.406 1.063 2.078.61.282-.188.454-.454.563-.782.047-.265.062-.515 0-.984Zm0 0"/><path id="B" d="M-.344-3.844c-.797.516-.953 1.485-.39 2.328.547.829 1.53 1.079 2.297.563.78-.516.937-1.547.375-2.406-.532-.797-1.5-1.016-2.282-.485m.031.219c.516-.344 1.266.016 1.829.86.453.687.468 1.28.015 1.593-.234.156-.578.156-.875 0-.375-.203-.75-.562-1.047-1-.39-.594-.359-1.156.079-1.453m0 0"/><path id="C" d="M.656-3.219.063-4.03 0-3.984v.015c-.031.094-.031.094-.062.11a1 1 0 0 1-.188.062 1.3 1.3 0 0 0-.484.203c-.485.328-.625.875-.328 1.328.234.344.578.454 1.312.391l.484-.016c.282-.03.5.047.625.235.172.265.11.578-.203.781a.9.9 0 0 1-.672.14C.25-.796.11-.905-.203-1.218l-.094.063.64.968.079-.046C.406-.328.438-.36.516-.406c.046-.047.125-.078.297-.14.203-.079.39-.157.515-.235.453-.313.594-.938.313-1.375-.203-.297-.485-.406-.985-.375l-.922.047q-.375.023-.562-.235c-.156-.25-.063-.547.219-.734.343-.235.672-.156 1.172.297Zm0 0"/><path id="D" d="M.672.094c.156.36.328.86.39 1.172l.5-.328C1.579.718 1.5.516 1.25-.016L.844-.937c.453.062.765-.016 1.11-.25.734-.485.968-1.422.577-2.313-.328-.734-.89-1.016-1.703-.89.344-.594.422-1.048.25-1.438-.281-.594-1.047-.75-1.703-.313-.656.438-.937 1.25-.656 1.891Zm-1.5-4.735c-.203-.484-.094-.984.265-1.218.375-.25.86-.047 1.094.484.156.36.156.875 0 .984-.015 0-.031.032-.14.047-.11.047-.157.078-.22.11-.14.093-.202.297-.14.422.063.14.188.14.36.03.03-.015.062-.062.109-.109.078-.062.14-.125.188-.156.078-.047.125-.062.171-.047.422.125.813.516 1.047 1.063.313.687.235 1.281-.218 1.578a1.1 1.1 0 0 1-1.032.125Zm0 0"/><path id="E" d="M3.219.656 4.03.063 3.984 0H3.97c-.094-.031-.094-.031-.11-.062a1 1 0 0 1-.062-.188 1.3 1.3 0 0 0-.203-.484c-.328-.485-.875-.625-1.328-.328-.344.234-.453.578-.391 1.312l.016.484c.03.282-.047.5-.235.625-.265.172-.578.11-.781-.203a.9.9 0 0 1-.14-.672C.796.25.905.11 1.218-.203l-.063-.094-.968.64.046.079C.328.406.36.438.406.516c.047.046.078.125.14.297.079.203.157.39.235.515.313.453.938.594 1.375.313.297-.203.406-.485.375-.985l-.047-.922q-.023-.375.235-.562c.25-.156.547-.063.734.219.235.343.156.672-.297 1.172Zm0 0"/><path id="F" d="m3.547-.797-.985-.75-.093.063.047.046c.062.079.125.157.156.204.11.156.031.265-.235.437L1.017.156C.578.453.453.438.156.046L.063.11l.968 1.438.094-.063C.875 1.063.922.97 1.359.672L3.547-.781Zm1.156-1.219c-.094-.156-.312-.203-.5-.078-.172.11-.234.328-.125.5.125.188.36.235.531.125.188-.125.22-.36.094-.547m0 0"/><path id="G" d="M2.5-1.516c.047 0 .094.063.14.141.126.172.063.281-.234.484L.875.141C.531.359.391.344.156.047L.063.109l.875 1.313.093-.063C.844 1.016.86.875 1.094.72l1.703-1.14c.469.108.64.202.781.405.203.297.11.563-.297.844L2 1.672c-.39.266-.562.25-.766-.031l-.093.062.843 1.281.094-.062c-.187-.328-.156-.453.156-.656l1.391-.938c.594-.39.75-.875.453-1.328-.187-.281-.422-.406-1.094-.562l.485-.329-.016-.03c-.297-.235-.515-.407-.844-.673Zm0 0"/><path id="H" d="M-.094.672c-.36.156-.86.328-1.172.39l.329.5c.218.016.421-.062.953-.312L.938.844c-.063.453.015.765.25 1.11.484.734 1.421.968 2.312.577.734-.328 1.016-.89.89-1.703.594.344 1.048.422 1.438.25.594-.281.75-1.047.313-1.703-.438-.656-1.25-.937-1.891-.656Zm4.735-1.5c.484-.203.984-.094 1.218.265.25.375.047.86-.484 1.094-.36.156-.875.156-.984 0 0-.015-.032-.031-.047-.14-.047-.11-.078-.157-.11-.22-.093-.14-.296-.202-.421-.14-.141.063-.141.188-.032.36.016.03.063.062.11.109.062.078.125.14.156.188.047.078.062.125.047.171-.125.422-.516.813-1.063 1.047-.687.313-1.281.235-1.578-.218A1.1 1.1 0 0 1 1.328.656Zm0 0"/><path id="I" d="m2.313 2.328 1-.031v-.078l-.016-.016c-.047-.078-.047-.078-.047-.11 0-.046.016-.124.047-.202a1.3 1.3 0 0 0 .094-.516c0-.578-.375-1-.907-1-.421 0-.718.234-1.062.86l-.25.437c-.14.25-.328.375-.547.375-.328 0-.531-.235-.531-.61 0-.25.094-.484.25-.624C.53.656.704.593 1.125.5V.39H-.031v.094c.078.047.094.079.094.172C.063.72.047.812 0 .984a2.7 2.7 0 0 0-.078.547c0 .563.437 1.032.953 1.032.36 0 .61-.172.875-.61l.469-.797c.125-.218.297-.328.5-.328.297 0 .5.235.5.578 0 .422-.25.64-.906.813Zm0 0"/><path id="J" d="M3.39 1.297 2.985.14h-.109l.016.062c0 .094.015.188.015.25 0 .188-.125.25-.437.25H.75C.219.703.14.625.11.125H0v1.734h.11c.03-.484.109-.546.64-.546h2.625Zm1.641-.36a.367.367 0 0 0-.375-.359.367.367 0 0 0-.375.36c0 .218.172.39.375.39.219 0 .375-.172.375-.39m0 0"/><path id="K" d="M2.938.125a.5.5 0 0 1 .03.188c0 .218-.109.28-.468.28H.656C.25.594.141.517.11.126H0v1.578h.11c.03-.39.124-.5.39-.5h2.063c.328.36.421.516.421.766 0 .36-.218.531-.718.531H.734c-.468 0-.593-.094-.625-.453H0v1.531h.11c.03-.36.124-.453.484-.453H2.28c.703 0 1.11-.328 1.11-.875 0-.328-.125-.562-.594-1.062h.578l.016-.047C3.266.78 3.17.53 3.063.125Zm0 0"/><path id="M" d="M1.156 2.938C.641 2.578.453 2.312.453 1.89c0-.672.594-1.141 1.438-1.141.765 0 1.28.406 1.28 1 0 .266-.077.36-.343.438l-.172.046c-.203.063-.328.188-.328.344 0 .188.14.36.313.36.406 0 .75-.516.75-1.141 0-.36-.141-.734-.407-1.031C2.656.39 2.156.188 1.578.188.61.188-.078.766-.078 1.578c0 .344.125.64.344.906.187.188.39.329.812.547Zm0 0"/><path id="N" d="M3.39 1.844C3.39.89 2.688.219 1.673.219c-1 0-1.75.687-1.75 1.61 0 .937.781 1.64 1.797 1.64.968 0 1.672-.688 1.672-1.625m-.203-.094c0 .625-.703 1.047-1.718 1.047-.828 0-1.344-.328-1.344-.875 0-.297.188-.563.484-.719C.984 1 1.5.875 2.031.875c.703 0 1.156.344 1.156.875m0 0"/><path id="L" d="m3.688 4.266-1.266-.657c.89-.046 1.36-.421 1.36-1.093 0-.328-.141-.72-.376-1.032-.344-.453-.875-.765-1.61-.89C.626.406-.093.875-.093 1.828c0 .656.328 1.188.985 1.61-.141 0-.266.03-.453.078-.422.125-.532.234-.532.468s.157.438.469.579c.156.093.328.14.734.218v-.203C.734 4.5.47 4.312.47 4.141c0-.25.39-.438.89-.422l2.329 1.203Zm-1.907-.97-.484-.25c-.75-.39-1.11-.75-1.11-1.108 0-.235.141-.422.36-.516.297-.11.766-.125 1.297-.031.531.078.984.265 1.312.515.203.157.313.344.313.578 0 .516-.422.797-1.266.797Zm0 0"/><path id="O" d="M-.453.5C-.843.438-1.36.297-1.641.172v.594c.172.14.375.187.954.297l1 .156c-.297.343-.407.656-.407 1.078 0 .875.64 1.594 1.594 1.75.797.14 1.344-.172 1.688-.922.312.61.64.938 1.062 1 .656.11 1.203-.453 1.203-1.25 0-.781-.516-1.469-1.219-1.594Zm4.766 1.39c.515.094.875.454.875.891 0 .453-.438.735-1.016.64-.39-.077-.813-.358-.813-.546 0-.016 0-.047.032-.156.015-.11.03-.156.03-.219 0-.172-.124-.344-.265-.36-.14-.03-.234.079-.234.282 0 .031.015.078.031.172.016.078.031.156.031.219 0 .093-.015.14-.062.171-.313.282-.875.391-1.469.297C.703 3.156.266 2.75.266 2.203c0-.36.172-.703.468-.906Zm0 0"/></defs><path fill="#fff" d="M0 0h115.79v142.59H0Zm0 0"/><path fill="none" stroke="#000" stroke-miterlimit="10" stroke-width=".399" d="m99.754 71.406-3.93-5.898-5.898 3.933 3.93 5.895 5.898-3.93M99.754 128.098v-7.086h-7.086v7.086h7.086M99.754 14.71h-7.086v7.087h7.086V14.71M14.715 14.71v7.087H21.8V14.71h-7.086"/><path fill="none" stroke="#000" stroke-linecap="round" stroke-linejoin="round" stroke-miterlimit="10" stroke-width=".797" d="M14.715 128.098h85.039V14.71h-85.04Zm0 0"/><path fill="none" stroke="#000" stroke-linecap="round" stroke-linejoin="round" stroke-miterlimit="10" stroke-width=".797" d="m14.715 128.098 85.039-56.692-37.797-56.695Zm0 0"/><path fill="#7f7f7f" stroke="#000" stroke-miterlimit="10" stroke-width=".399" d="M15.71 128.098a.998.998 0 0 0-1.995 0 .999.999 0 0 0 1.996 0ZM100.75 128.098a.995.995 0 1 0-1.99-.002.995.995 0 0 0 1.99.002ZM100.75 14.71a.995.995 0 1 0-1.99 0 .995.995 0 0 0 1.99 0ZM15.71 14.71a.998.998 0 0 0-1.995 0 .999.999 0 0 0 1.996 0ZM100.75 71.406a.995.995 0 1 0-1.99-.001.995.995 0 0 0 1.99.001ZM62.953 14.71a.995.995 0 1 0-1.99 0 .995.995 0 0 0 1.99 0Zm0 0"/><use xlink:href="#a" x="58.335" y="11.024"/><use xlink:href="#b" x="103.272" y="74.639"/><use xlink:href="#c" x="4" y="11.193"/><use xlink:href="#d" x="5.106" y="138.313"/><use xlink:href="#e" x="102.774" y="11.024"/><use xlink:href="#f" x="103.272" y="138.084"/><path fill="none" stroke="red" stroke-miterlimit="10" stroke-width=".399" d="M28.887 128.098a14.15 14.15 0 0 0-2.383-7.86"/><use xlink:href="#g" x="30.146" y="124.723" fill="red"/><path fill="none" stroke="red" stroke-miterlimit="10" stroke-width=".399" d="M99.754 57.23c-2.797 0-5.535.832-7.863 2.383"/><use xlink:href="#g" x="90.446" y="54.789" fill="red"/><path fill="none" stroke="#00f" stroke-miterlimit="10" stroke-width=".399" d="M27.684 119.453a15.57 15.57 0 0 0-6.977-5.746"/><use xlink:href="#h" x="24.877" y="114.272" fill="#00f"/><path fill="none" stroke="#bf0040" stroke-miterlimit="10" stroke-width=".399" d="M47.785 14.71a14.17 14.17 0 0 0 8.723 13.083"/><use xlink:href="#g" x="24.316" y="28.828" fill="#bf0040"/><use xlink:href="#i" x="32.813" y="28.828" fill="#bf0040"/><use xlink:href="#h" x="41.938" y="28.828" fill="#bf0040"/><path fill="#ff7f00" stroke="#000" stroke-miterlimit="10" stroke-width=".399" d="M49.285 65.023c0-4.87-3.953-8.824-8.828-8.824a8.825 8.825 0 0 0 0 17.648c4.875 0 8.828-3.949 8.828-8.824Zm0 0"/><use xlink:href="#j" x="37.967" y="68.357"/><use xlink:href="#k" x="9.35" y="86.541"/><use xlink:href="#l" x="9.35" y="83.673"/><use xlink:href="#m" x="9.35" y="81.624"/><use xlink:href="#n" x="9.35" y="77.938"/><use xlink:href="#o" x="9.35" y="75.077"/><use xlink:href="#p" x="9.35" y="69.814"/><use xlink:href="#q" x="9.35" y="64.085"/><use xlink:href="#r" x="9.35" y="59.131"/><use xlink:href="#s" x="22.588" y="9.35"/><use xlink:href="#t" x="25.861" y="9.35"/><use xlink:href="#u" x="29.547" y="9.35"/><use xlink:href="#v" x="32.415" y="9.35"/><use xlink:href="#w" x="35.275" y="9.35"/><use xlink:href="#x" x="40.539" y="9.35"/><use xlink:href="#y" x="46.267" y="9.35"/><use xlink:href="#z" x="51.221" y="9.35"/><use xlink:href="#A" x="47.868" y="99.767"/><use xlink:href="#B" x="50.591" y="97.951"/><use xlink:href="#C" x="53.658" y="95.907"/><use xlink:href="#D" x="56.726" y="93.862"/><use xlink:href="#E" x="69.372" y="42.075"/><use xlink:href="#F" x="70.963" y="44.461"/><use xlink:href="#G" x="72.099" y="46.166"/><use xlink:href="#H" x="74.599" y="49.915"/><use xlink:href="#s" x="41.067" y="137.107"/><use xlink:href="#t" x="44.34" y="137.107"/><use xlink:href="#u" x="48.026" y="137.107"/><use xlink:href="#w" x="51.714" y="137.107"/><use xlink:href="#s" x="57.797" y="137.107"/><use xlink:href="#t" x="61.07" y="137.107"/><use xlink:href="#u" x="64.756" y="137.107"/><use xlink:href="#y" x="68.443" y="137.107"/><use xlink:href="#I" x="104.934" y="84.199"/><use xlink:href="#J" x="104.934" y="87.067"/><use xlink:href="#K" x="104.934" y="89.116"/><use xlink:href="#L" x="104.934" y="93.622"/><use xlink:href="#M" x="104.934" y="99.705"/><use xlink:href="#N" x="104.934" y="102.978"/><use xlink:href="#I" x="104.934" y="106.664"/><use xlink:href="#O" x="104.934" y="110.351"/><use xlink:href="#M" x="104.934" y="27.506"/><use xlink:href="#N" x="104.934" y="30.779"/><use xlink:href="#I" x="104.934" y="34.465"/><use xlink:href="#L" x="104.934" y="38.152"/><use xlink:href="#I" x="104.934" y="44.235"/><use xlink:href="#J" x="104.934" y="47.103"/><use xlink:href="#K" x="104.934" y="49.152"/><use xlink:href="#O" x="104.934" y="53.658"/><use xlink:href="#u" x="65.913" y="9.531"/><use xlink:href="#P" x="68.781" y="9.531"/><use xlink:href="#Q" x="70.83" y="9.531"/><use xlink:href="#w" x="75.336" y="9.531"/><use xlink:href="#u" x="81.419" y="9.531"/><use xlink:href="#P" x="84.287" y="9.531"/><use xlink:href="#Q" x="86.336" y="9.531"/><use xlink:href="#y" x="90.841" y="9.531"/></svg>