<svg xmlns="http://www.w3.org/2000/svg" xmlns:xlink="http://www.w3.org/1999/xlink" width="286.216" height="228.044" viewBox="0 0 214.662 171.033"><defs><path id="a" d="m10.578-9.89-.219-.063c-.265.36-.515.515-.906.515-.14 0-.328-.046-.656-.156-.75-.234-1.39-.36-2-.36-3.156 0-6.016 3-6.016 6.282 0 1.016.422 2.063 1.125 2.781.766.75 1.86 1.157 3.157 1.157 1.312 0 2.39-.282 3.546-.922l.72-2.797c.25-.828.483-1.016 1.452-1.078v-.235H6.812v.235c.172.015.375.047.438.047.484.046.734.203.734.468 0 .329-.093.75-.421 1.844C7.234-1.094 7.188-.969 7-.797c-.328.328-.89.516-1.562.516-1.922 0-3.016-1.11-3.016-3.063 0-1.844.734-3.734 1.906-4.984a3.6 3.6 0 0 1 2.594-1.11c.969 0 1.781.407 2.234 1.094.235.375.344.703.422 1.36l.266.03Zm0 0"/><path id="b" d="M11.453-9.75H7.766v.234c.875.11 1.047.22 1.047.641 0 .219-.063.563-.157.922L7.97-5.5H3.703l.813-2.906c.218-.766.609-1.047 1.5-1.11v-.234H1.938v.234c.937.094 1.156.204 1.156.641 0 .219-.063.563-.172.922l-1.828 6.61C.828-.485.719-.392-.125-.235V0h3.688v-.234C2.656-.36 2.5-.47 2.5-.891c0-.109.016-.234.047-.328l.984-3.656h4.25l-.968 3.531c-.235.782-.532 1-1.516 1.11V0h4.078v-.234c-.953-.094-1.156-.22-1.156-.625 0-.157.015-.25.047-.36l1.968-7.187c.25-.875.375-.953 1.22-1.11Zm0 0"/><path id="c" d="M9.64-9.75H2.204v.234c.969.094 1.14.188 1.14.61 0 .234-.062.594-.155.953l-1.844 6.61C1.078-.454.969-.36.125-.235V0h3.766v-.234C3.016-.281 2.75-.454 2.75-.891c0-.125.047-.343.14-.671l.922-3.344c.547.031.876.047 1.204.047.578 0 .687.015.828.078.218.125.328.312.328.61 0 .25-.031.421-.125.89l.25.062 1.14-3.484-.265-.078c-.672 1.343-.719 1.36-3.234 1.39l.984-3.484c.094-.297.312-.39.922-.39 2.5 0 3.047.203 3.047 1.124 0 .094 0 .157-.016.36-.016.093-.016.11-.031.281l.312.031Zm0 0"/><path id="d" d="M1.938-9.516c.937.094 1.156.204 1.156.61 0 .234-.063.594-.172.953l-1.828 6.61C.828-.485.719-.392-.125-.235V0h3.781C5.406 0 7-.469 8.156-1.297 9.61-2.359 10.453-4 10.453-5.734c0-2.453-1.703-4.016-4.36-4.016H1.939Zm2.734.641c.094-.328.312-.437.922-.437.843 0 1.593.203 2.062.562.735.531 1.14 1.469 1.14 2.656 0 1.61-.624 3.282-1.64 4.297-.875.906-2.093 1.344-3.64 1.344-.688 0-.97-.156-.97-.547 0-.187.063-.531.329-1.422Zm0 0"/><path id="e" d="M8.422-.234c-.844-.078-.938-.203-1.125-1.297L5.89-9.984H5.5L1.172-2.516C-.016-.516-.172-.359-.766-.234V0h2.797v-.234c-.765-.078-.875-.157-.875-.532 0-.28.032-.421.297-.921l.844-1.688h3.297l.297 1.953c.015.14.03.266.03.39 0 .563-.218.704-1.171.798V0h3.672ZM2.609-3.906l2.25-3.89.657 3.89Zm0 0"/><path id="f" d="m9.734-6.953.563-2.969h-.313c-.125.25-.28.328-.578.328-.11 0-.297-.031-.61-.094-.671-.171-1.265-.265-1.75-.265-3.171 0-6.062 3-6.062 6.328 0 2.281 1.61 3.89 3.907 3.89 1.53 0 2.734-.656 4.078-2.218l-.266-.219C7.36-.844 6.5-.406 5.266-.406c-1.657 0-2.61-1.125-2.61-3.063 0-1.781.719-3.578 1.89-4.797.72-.734 1.657-1.14 2.641-1.14 1.375 0 2.141.797 2.282 2.422Zm0 0"/><path id="g" d="M-.125 0h4.219c2.343 0 3.953-1.219 3.953-2.984 0-.563-.172-1.078-.5-1.407-.297-.343-.594-.53-1.375-.859 1.062-.25 1.484-.422 1.969-.844.422-.36.64-.86.64-1.468 0-1.422-1.062-2.188-2.984-2.188h-3.86v.234c.938.079 1.157.188 1.157.61 0 .234-.063.594-.172.953l-1.828 6.61C.828-.485.719-.392-.125-.235Zm3.688-4.937c.968 0 1.593.046 1.89.171.61.25.984.907.984 1.72 0 1.608-1.109 2.593-2.921 2.593-.625 0-.97-.219-.97-.625 0-.172.188-.89.532-2.094.188-.672.281-1.015.485-1.765m1.109-3.954c.094-.328.266-.421.86-.421 1.187 0 1.75.515 1.75 1.624 0 .844-.36 1.5-1 1.86-.516.297-1.235.406-2.579.406Zm0 0"/><path id="h" d="M8.656-7.469 7.312-4.906c-.078-1.797-.828-2.75-2.187-2.75-.687 0-1.469.281-2.11.75-.953.703-1.546 1.781-1.796 3.265C.829-1.266 1.766.188 3.703.188c1.313 0 2.39-.672 3.219-2 .031.28.094.562.187.937.266.828.485 1.063.954 1.063.5 0 .89-.313 1.187-.938.172-.344.266-.672.422-1.5h-.39c-.157.75-.532 1.313-.907 1.313-.5 0-.844-.797-.86-1.829l2.47-4.703Zm-2 3.875-.5.969c-.765 1.516-1.5 2.25-2.234 2.25-.469 0-.89-.297-1.047-.734-.234-.61-.25-1.547-.062-2.625.171-1.078.53-1.985 1.03-2.641.345-.437.72-.64 1.188-.64 1.063 0 1.594.843 1.625 2.546Zm0 0"/><path id="i" d="M1.031.922C.906 1.719.61 2.75.36 3.312h1.235c.234-.343.36-.75.547-1.906l.343-2.031c.688.594 1.313.813 2.172.813 1.782 0 3.219-1.313 3.547-3.235.266-1.594-.328-2.719-1.86-3.422 1.235-.61 1.891-1.297 2.032-2.156.219-1.328-.937-2.422-2.531-2.422-1.61 0-2.985 1.047-3.219 2.469Zm2.797-9.64C4-9.767 4.75-10.5 5.641-10.5c.937 0 1.468.86 1.265 2.063-.125.796-.687 1.64-1.078 1.64-.047 0-.094 0-.328-.062a2 2 0 0 0-.437-.063c-.36 0-.704.25-.75.531s.203.454.578.454c.093 0 .172 0 .343-.032.172-.047.329-.062.438-.062.203 0 .297.031.375.11.562.64.781 1.765.578 3-.25 1.483-1.047 2.374-2.156 2.374a2.23 2.23 0 0 1-1.844-.937Zm0 0"/><path id="j" d="M6.11-3.437h4.171c.203 0 .485 0 .485-.297s-.282-.297-.485-.297H6.11V-8.22c0-.203 0-.484-.296-.484-.297 0-.297.281-.297.484v4.188H1.328c-.203 0-.484 0-.484.297s.281.297.484.297h4.188V.75c0 .203 0 .484.297.484.296 0 .296-.28.296-.484Zm0 0"/><path id="k" d="m4.344-10.094-2.688 1.36v.203c.188-.078.344-.125.407-.156.265-.11.515-.172.671-.172.313 0 .454.218.454.703v6.765c0 .5-.126.844-.36.97-.234.14-.437.187-1.062.202V0H5.89v-.219c-1.188-.015-1.422-.172-1.422-.89v-8.953Zm0 0"/><path id="l" d="M4.406-1.719C3.875-.953 3.47-.687 2.844-.687c-1 0-1.719-.891-1.719-2.157 0-1.14.61-1.922 1.516-1.922.39 0 .53.125.64.532L3.36-4c.079.313.282.516.516.516.281 0 .531-.203.531-.47 0-.608-.781-1.14-1.703-1.14-.547 0-1.11.219-1.562.625-.547.485-.86 1.235-.86 2.11 0 1.437.875 2.468 2.094 2.468.5 0 .938-.171 1.344-.515.297-.266.5-.563.844-1.219Zm0 0"/><path id="m" d="M2.766-5.094C1.328-5.094.328-4.03.328-2.5.328-1 1.344.11 2.75.11c1.39 0 2.453-1.172 2.453-2.704 0-1.437-1.016-2.5-2.437-2.5m-.141.313c.922 0 1.578 1.062 1.578 2.578 0 1.25-.5 2-1.328 2-.437 0-.844-.266-1.078-.703-.297-.578-.484-1.344-.484-2.14 0-1.048.53-1.735 1.312-1.735m0 0"/><path id="n" d="m3.484-3.469-.046-1.515h-.126l-.015.03c-.094.079-.11.079-.156.079a.9.9 0 0 1-.297-.062 2.1 2.1 0 0 0-.781-.141c-.876 0-1.5.562-1.5 1.36 0 .624.359 1.062 1.296 1.593l.641.36c.39.234.578.5.578.843 0 .485-.36.797-.922.797-.375 0-.719-.156-.922-.39C1-.798.891-1.048.75-1.688H.578V.046h.14c.079-.11.126-.14.25-.14.11 0 .266.03.516.093.313.063.61.11.813.11.844 0 1.547-.641 1.547-1.422 0-.547-.266-.907-.922-1.313l-1.203-.703c-.297-.172-.469-.453-.469-.75 0-.453.344-.75.86-.75.624 0 .953.375 1.203 1.36Zm0 0"/><path id="o" d="m6.406-5.531-.984 1.906c-.063-1.344-.625-2.047-1.625-2.047-.516 0-1.094.203-1.563.563-.703.515-1.14 1.312-1.328 2.406C.61-.938 1.296.14 2.734.14c.97 0 1.782-.5 2.391-1.485.031.219.078.422.156.688.172.625.328.797.688.797s.656-.235.89-.688c.125-.265.188-.5.297-1.125h-.281c-.11.563-.39.969-.672.969-.36 0-.625-.578-.64-1.344L7.39-5.53Zm-1.468 2.86-.375.718C3.984-.813 3.452-.281 2.906-.281a.85.85 0 0 1-.781-.531c-.156-.454-.187-1.157-.047-1.954.125-.796.39-1.468.766-1.953.25-.328.547-.484.89-.484.782 0 1.172.64 1.188 1.89Zm0 0"/><path id="p" d="M.766.688c-.11.578-.328 1.343-.5 1.765h.906c.172-.25.281-.547.422-1.406l.25-1.516c.5.453.953.61 1.594.61 1.328 0 2.406-.97 2.64-2.391.203-1.187-.25-2.016-1.39-2.547.921-.453 1.406-.953 1.515-1.594.172-.984-.687-1.796-1.86-1.796-1.202 0-2.234.78-2.405 1.843Zm2.078-7.141c.125-.781.672-1.328 1.328-1.328.703 0 1.094.64.953 1.531-.11.594-.516 1.219-.812 1.219-.032 0-.063 0-.235-.047a2 2 0 0 0-.328-.047c-.266 0-.516.188-.547.39-.047.204.14.344.422.344.078 0 .125-.015.234-.03a2 2 0 0 1 .36-.048c.14 0 .218.016.265.094.422.453.579 1.297.422 2.203-.187 1.11-.781 1.766-1.61 1.766-.546 0-1.046-.25-1.343-.688Zm0 0"/><path id="q" d="m-3.469-3.484-1.515.046v.126l.03.015c.079.094.079.11.079.156a.9.9 0 0 1-.062.297c-.094.25-.141.485-.141.781 0 .876.562 1.5 1.36 1.5.624 0 1.062-.359 1.593-1.296l.36-.641c.234-.39.5-.578.843-.578.485 0 .797.36.797.922 0 .375-.156.719-.39.922-.282.234-.532.343-1.172.484v.172H.046v-.14c-.11-.079-.14-.126-.14-.25 0-.11.03-.266.093-.516.063-.313.11-.61.11-.813 0-.844-.641-1.547-1.422-1.547-.547 0-.907.266-1.313.922l-.703 1.203c-.172.297-.453.469-.75.469-.453 0-.75-.344-.75-.86 0-.624.375-.953 1.36-1.203Zm0 0"/><path id="r" d="m-5.094-1.937.61 1.718h.172l-.016-.093a4 4 0 0 1-.031-.375c0-.266.172-.36.672-.36h2.562c.797 0 .922.11.953.875H0v-2.625h-.172c-.047.735-.156.813-.953.813h-3.937Zm-2.468.515c0 .297.265.563.578.563a.57.57 0 0 0 .562-.563.56.56 0 0 0-.562-.562.574.574 0 0 0-.578.562m0 0"/><path id="s" d="M-4.406-.172a.9.9 0 0 1-.047-.297c0-.312.172-.422.719-.422H-1c.64 0 .797.125.828.688H0v-2.344h-.172c-.031.563-.172.735-.562.735h-3.11c-.5-.532-.64-.782-.64-1.141 0-.547.343-.813 1.078-.813h2.312c.703 0 .89.141.922.704H0V-5.36h-.172c-.047.53-.187.672-.719.672h-2.53c-1.048 0-1.673.484-1.673 1.296 0 .516.188.86.907 1.61h-.875l-.032.078c.203.547.328.922.5 1.531Zm0 0"/><path id="t" d="m-5.531-6.406 1.906.984c-1.344.063-2.047.625-2.047 1.625 0 .516.203 1.094.563 1.563.515.703 1.312 1.14 2.406 1.328C-.938-.61.14-1.296.14-2.734c0-.97-.5-1.782-1.485-2.391.219-.031.422-.078.688-.156.625-.172.797-.328.797-.688s-.235-.656-.688-.89c-.265-.125-.5-.188-1.125-.297v.281c.563.11.969.39.969.672 0 .36-.578.625-1.344.64L-5.53-7.39Zm2.86 1.468.718.375c1.14.579 1.672 1.11 1.672 1.657a.85.85 0 0 1-.531.781c-.454.156-1.157.188-1.954.047-.796-.125-1.468-.39-1.953-.766-.328-.25-.484-.547-.484-.89 0-.782.64-1.172 1.89-1.188Zm0 0"/><path id="u" d="M.688-.766c.578.11 1.343.329 1.765.5v-.906c-.25-.172-.547-.281-1.406-.422l-1.516-.25c.453-.5.61-.953.61-1.593 0-1.329-.97-2.407-2.391-2.641-1.187-.203-2.016.25-2.547 1.39-.453-.921-.953-1.406-1.594-1.515-.984-.172-1.796.687-1.796 1.86 0 1.202.78 2.234 1.843 2.406Zm-7.141-2.078c-.781-.125-1.328-.672-1.328-1.328 0-.703.64-1.094 1.531-.953.594.11 1.219.516 1.219.813 0 .03 0 .062-.047.234-.031.156-.047.25-.047.328 0 .266.188.516.39.547.204.047.344-.14.344-.422 0-.078-.015-.125-.03-.234a2 2 0 0 1-.048-.36c0-.14.016-.218.094-.265.453-.422 1.297-.578 2.203-.422 1.11.187 1.766.781 1.766 1.61 0 .546-.25 1.046-.688 1.343Zm0 0"/><path id="v" d="m3.469 3.484 1.515-.046v-.126l-.03-.015c-.079-.094-.079-.11-.079-.156 0-.063.016-.172.063-.297.093-.25.14-.485.14-.781 0-.876-.562-1.5-1.36-1.5-.624 0-1.062.359-1.593 1.296l-.36.641c-.234.39-.5.578-.843.578-.485 0-.797-.36-.797-.922 0-.375.156-.719.39-.922C.798 1 1.048.891 1.688.75V.578H-.046v.14c.11.079.14.126.14.25 0 .11-.03.266-.093.516-.062.313-.11.61-.11.813 0 .844.641 1.547 1.423 1.547.546 0 .906-.266 1.312-.922l.703-1.203c.172-.297.453-.469.75-.469.453 0 .75.344.75.86 0 .624-.375.953-1.36 1.203Zm0 0"/><path id="w" d="m5.094 1.938-.61-1.72h-.171l.015.095c.016.125.031.28.031.375 0 .265-.171.359-.671.359H1.124c-.797 0-.922-.11-.953-.875H0v2.625h.172c.047-.735.156-.813.953-.813h3.938Zm2.468-.516a.584.584 0 0 0-.578-.563.57.57 0 0 0-.562.563c0 .312.25.562.562.562s.579-.25.579-.562m0 0"/><path id="x" d="M4.406.172a.9.9 0 0 1 .047.297c0 .312-.172.422-.719.422H1C.36.89.203.766.172.203H0v2.344h.172c.031-.563.172-.735.562-.735h3.11c.5.532.64.782.64 1.141 0 .547-.343.813-1.078.813H1.094c-.703 0-.89-.141-.922-.703H0v2.296h.172c.047-.53.187-.671.719-.671h2.53c1.048 0 1.673-.485 1.673-1.297 0-.516-.188-.86-.907-1.61h.875l.032-.078a18 18 0 0 1-.5-1.531Zm0 0"/><path id="y" d="m5.531 6.406-1.906-.984c1.344-.063 2.047-.625 2.047-1.625 0-.516-.203-1.094-.563-1.563-.515-.703-1.312-1.14-2.406-1.328C.938.61-.14 1.296-.14 2.734c0 .97.5 1.782 1.485 2.391a5 5 0 0 0-.688.156c-.625.172-.797.328-.797.688s.235.656.688.89c.265.125.5.188 1.125.297v-.281c-.563-.11-.969-.39-.969-.672 0-.36.578-.625 1.344-.64L5.53 7.39Zm-2.86-1.468-.718-.375C.813 3.984.281 3.452.281 2.906c0-.344.219-.656.532-.781.453-.156 1.156-.187 1.953-.047.797.125 1.468.39 1.953.766.328.25.484.547.484.89 0 .782-.64 1.172-1.89 1.188Zm0 0"/><path id="z" d="M-.687.766a11 11 0 0 1-1.766-.5v.906c.25.172.547.281 1.406.422l1.516.25c-.453.5-.61.953-.61 1.594 0 1.328.97 2.406 2.391 2.64 1.188.203 2.016-.25 2.547-1.39.453.921.953 1.406 1.594 1.515.984.172 1.797-.687 1.797-1.86 0-1.202-.782-2.234-1.844-2.405Zm7.14 2.078c.781.125 1.328.672 1.328 1.328 0 .703-.64 1.094-1.531.953-.594-.11-1.219-.516-1.219-.812 0-.032 0-.063.047-.235.031-.156.047-.25.047-.328 0-.266-.187-.516-.39-.547-.204-.047-.344.14-.344.422 0 .078.015.125.03.234.032.157.048.266.048.36 0 .14-.016.218-.094.265-.453.422-1.297.579-2.203.422C1.062 4.72.406 4.125.406 3.296c0-.546.25-1.046.688-1.343Zm0 0"/></defs><path fill="none" stroke="#000" stroke-miterlimit="10" stroke-width=".5985" d="M192.926 149.297v-10.629h-10.63v10.629h10.63M192.926 21.734h-10.63v10.633h10.63V21.734M22.848 21.734v10.633h10.629V21.734h-10.63M22.848 149.297v-10.629h10.629v10.629h-10.63"/><path fill="none" stroke="#000" stroke-linecap="round" stroke-linejoin="round" stroke-miterlimit="10" stroke-width="1.1955" d="M22.848 149.297h170.078V21.734H22.848Zm0 0"/><path fill="none" stroke="#000" stroke-linecap="round" stroke-linejoin="round" stroke-miterlimit="10" stroke-width="1.1955" d="m86.625 149.297 106.3-42.52-63.777-85.043-106.3 42.524Zm0 0"/><path fill="#7f7f7f" stroke="#000" stroke-miterlimit="10" stroke-width=".5985" d="M24.34 149.297a1.495 1.495 0 1 0-2.988 0c0 .824.668 1.492 1.496 1.492.824 0 1.492-.668 1.492-1.492ZM194.422 149.297c0-.824-.668-1.496-1.496-1.496a1.495 1.495 0 0 0 0 2.988c.828 0 1.496-.668 1.496-1.492ZM194.422 21.734c0-.824-.668-1.492-1.496-1.492-.824 0-1.492.668-1.492 1.492a1.494 1.494 0 1 0 2.988 0ZM24.34 21.734c0-.824-.668-1.492-1.492-1.492a1.494 1.494 0 1 0 1.492 1.492ZM88.121 149.297c0-.824-.668-1.496-1.496-1.496a1.495 1.495 0 0 0 0 2.988c.828 0 1.496-.668 1.496-1.492ZM194.422 106.777a1.494 1.494 0 1 0-2.988-.004 1.494 1.494 0 0 0 2.988.004ZM130.64 21.734c0-.824-.667-1.492-1.492-1.492a1.494 1.494 0 1 0 1.492 1.492ZM24.34 64.258a1.494 1.494 0 1 0-2.99-.005 1.494 1.494 0 0 0 2.99.005Zm0 0"/><use xlink:href="#a" x="123.75" y="16.203"/><use xlink:href="#b" x="5.731" y="69.106"/><use xlink:href="#c" x="198.204" y="111.626"/><use xlink:href="#d" x="6.777" y="16.458"/><use xlink:href="#e" x="8.436" y="164.618"/><use xlink:href="#f" x="197.457" y="16.203"/><use xlink:href="#g" x="198.204" y="164.274"/><path fill="none" stroke="red" stroke-miterlimit="10" stroke-width=".5985" d="M73.871 132.29a21.27 21.27 0 0 0-8.504 17.007"/><use xlink:href="#h" x="54.67" y="139.547" fill="red"/><path fill="none" stroke="red" stroke-miterlimit="10" stroke-width=".5985" d="M141.902 38.742a21.26 21.26 0 0 0 8.504-17.008"/><use xlink:href="#h" x="150.429" y="38.607" fill="red"/><path fill="none" stroke="#00f" stroke-miterlimit="10" stroke-width=".5985" d="M114.266 149.297c0-3.516-.676-7-1.98-10.266"/><use xlink:href="#i" x="117.093" y="146.34" fill="#00f"/><path fill="none" stroke="#00f" stroke-miterlimit="10" stroke-width=".5985" d="M101.508 21.734c0 3.516.676 7.004 1.98 10.266"/><use xlink:href="#i" x="88.635" y="32.45" fill="#00f"/><path fill="none" stroke="#bf0040" stroke-miterlimit="10" stroke-width=".5985" d="M33.05 77.863a17.01 17.01 0 0 0 5.587-19.922"/><use xlink:href="#h" x="41.453" y="78.466" fill="#bf0040"/><use xlink:href="#j" x="54.198" y="78.466" fill="#bf0040"/><use xlink:href="#i" x="67.885" y="78.466" fill="#bf0040"/><path fill="#ff7f00" stroke="#000" stroke-miterlimit="10" stroke-width=".5985" d="M66.914 105.71c0-7.312-5.926-13.237-13.234-13.237-7.313 0-13.239 5.925-13.239 13.238 0 7.309 5.926 13.234 13.239 13.234 7.308 0 13.234-5.925 13.234-13.234Zm0 0"/><use xlink:href="#k" x="49.941" y="110.707"/><path fill="#ff7f00" stroke="#000" stroke-miterlimit="10" stroke-width=".5985" d="M173.215 63.188c0-7.31-5.926-13.235-13.235-13.235-7.312 0-13.238 5.926-13.238 13.235 0 7.312 5.926 13.238 13.238 13.238 7.31 0 13.235-5.926 13.235-13.238Zm0 0"/><use xlink:href="#k" x="156.242" y="68.189"/><path fill="#ff7f00" stroke="#000" stroke-miterlimit="10" stroke-width=".5985" d="M162.574 122.719c0-7.313-5.926-13.239-13.234-13.239-7.313 0-13.238 5.926-13.238 13.239 0 7.308 5.925 13.234 13.238 13.234 7.308 0 13.234-5.926 13.234-13.234Zm0 0"/><use xlink:href="#k" x="145.601" y="127.716"/><path fill="#ff7f00" stroke="#000" stroke-miterlimit="10" stroke-width=".5985" d="M88.168 41.93c0-7.313-5.926-13.239-13.238-13.239-7.313 0-13.239 5.926-13.239 13.239 0 7.308 5.926 13.234 13.239 13.234 7.312 0 13.238-5.926 13.238-13.234Zm0 0"/><use xlink:href="#k" x="71.193" y="46.928"/><use xlink:href="#l" x="42.803" y="160.034"/><use xlink:href="#m" x="47.712" y="160.034"/><use xlink:href="#n" x="53.242" y="160.034"/><use xlink:href="#o" x="58.773" y="160.034"/><use xlink:href="#l" x="128.075" y="162.809"/><use xlink:href="#m" x="132.984" y="162.809"/><use xlink:href="#n" x="138.514" y="162.809"/><use xlink:href="#p" x="144.043" y="162.809"/><use xlink:href="#l" x="64.294" y="13.963"/><use xlink:href="#m" x="69.204" y="13.963"/><use xlink:href="#n" x="74.734" y="13.963"/><use xlink:href="#p" x="80.265" y="13.963"/><use xlink:href="#l" x="149.101" y="16.269"/><use xlink:href="#m" x="154.011" y="16.269"/><use xlink:href="#n" x="159.541" y="16.269"/><use xlink:href="#o" x="165.072" y="16.269"/><use xlink:href="#q" x="17.379" y="117.79"/><use xlink:href="#r" x="17.379" y="113.489"/><use xlink:href="#s" x="17.379" y="110.414"/><use xlink:href="#t" x="17.379" y="103.657"/><use xlink:href="#q" x="15.072" y="53.779"/><use xlink:href="#r" x="15.072" y="49.478"/><use xlink:href="#s" x="15.072" y="46.403"/><use xlink:href="#u" x="15.072" y="39.645"/><use xlink:href="#v" x="198.392" y="53.242"/><use xlink:href="#w" x="198.392" y="57.544"/><use xlink:href="#x" x="198.392" y="60.619"/><use xlink:href="#y" x="198.392" y="67.377"/><use xlink:href="#v" x="200.698" y="117.254"/><use xlink:href="#w" x="200.698" y="121.555"/><use xlink:href="#x" x="200.698" y="124.63"/><use xlink:href="#z" x="200.698" y="131.387"/></svg>