<svg xmlns="http://www.w3.org/2000/svg" xmlns:xlink="http://www.w3.org/1999/xlink" width="206.341" height="131.892" viewBox="0 0 154.756 98.919"><defs><path id="a" d="M4-1.11c-.078.094-.125.157-.219.266-.219.313-.344.407-.453.407-.14 0-.234-.125-.312-.407-.016-.078-.032-.14-.032-.172-.25-1.015-.359-1.468-.359-1.609.438-.781.797-1.219.969-1.219.062 0 .14.031.25.078.11.079.187.094.265.094.204 0 .344-.14.344-.36 0-.202-.172-.359-.406-.359-.438 0-.813.36-1.5 1.422l-.11-.547c-.14-.687-.25-.875-.53-.875-.22 0-.548.079-1.157.282l-.11.046.032.141c.39-.078.469-.11.562-.11.25 0 .313.095.454.688l.28 1.235-.812 1.156C.953-.641.75-.47.641-.47a.55.55 0 0 1-.25-.094.76.76 0 0 0-.328-.093c-.188 0-.329.14-.329.344 0 .265.204.421.5.421s.422-.093.922-.703c.266-.312.485-.578.89-1.156L2.36-.562c.125.515.25.671.579.671.374 0 .624-.234 1.203-1.14Zm0 0"/><path id="c" d="M.156-3.984c.125-.032.188-.047.297-.047.578 0 .719.25 1.188 1.968.156.641.406 1.813.406 1.985 0 .156-.063.312-.219.5-.297.406-.5.672-.61.781C1 1.422.892 1.5.75 1.5c-.047 0-.125-.031-.234-.11-.141-.109-.25-.171-.36-.171a.387.387 0 0 0-.39.39c0 .25.218.438.5.438.64 0 1.953-1.485 3.03-3.469.673-1.219.954-1.937.954-2.422a.554.554 0 0 0-.547-.547c-.234 0-.39.141-.39.36 0 .156.078.265.28.39.188.11.25.204.25.344 0 .39-.359 1.172-1.218 2.578l-.187-1.156c-.157-.875-.72-2.516-.86-2.516h-.125l-.984.172a2 2 0 0 1-.313.063Zm0 0"/><path id="i" d="M8.703-6.516H7.031L3.688-1.594 3.14-6.516H1.328v.172c.5.032.75.14.75.36 0 .078-.047.234-.11.406a3 3 0 0 0-.077.297.3.3 0 0 0-.032.125L.797-1.453C.484-.422.344-.22-.172-.156V0h1.969v-.156c-.516-.047-.703-.156-.703-.438 0-.11.031-.36.078-.531l1.187-4.312L2.953 0h.172l3.766-5.594L5.609-.906c-.171.531-.359.672-1.015.75V0h2.718v-.156c-.671-.063-.765-.125-.765-.438 0-.156.016-.297.11-.61L7.89-5.608c.172-.594.218-.657.812-.735Zm0 0"/><path id="j" d="M1.453-6.344c.578.063.703.157.703.407 0 .14-.031.359-.156.796L.813-.89C.64-.297.563-.234 0-.156V0h2.438v-.156c-.626-.094-.672-.125-.672-.469 0-.11.015-.219.125-.578l.515-1.922c.25.063.516.078.922.078.813 0 1.485-.156 1.922-.469.484-.375.781-.921.781-1.515 0-.953-.75-1.485-2.11-1.485H1.454Zm1.75.407c.063-.204.188-.266.469-.266.39 0 .765.094.969.234.25.172.359.469.359.938 0 .656-.219 1.11-.656 1.375-.313.172-.703.25-1.328.25-.172 0-.25-.016-.516-.047Zm0 0"/><path id="k" d="M5.625-.156c-.578-.047-.625-.14-.766-.86l-.937-5.64h-.25L.782-1.672C-.017-.344-.11-.234-.517-.156V0H1.36v-.156C.844-.203.766-.266.766-.516c0-.187.03-.265.203-.609L1.53-2.25h2.203l.188 1.297c.015.094.031.187.031.265 0 .375-.14.47-.781.532V0h2.453ZM1.75-2.61l1.484-2.594.438 2.594Zm0 0"/><path id="l" d="M-.078 0h2.812c1.563 0 2.641-.812 2.641-2 0-.36-.125-.719-.344-.937-.203-.22-.39-.344-.922-.563.72-.172 1-.281 1.329-.562q.42-.375.421-.985c0-.937-.703-1.469-1.984-1.469H1.297v.172c.61.047.766.125.766.407 0 .14-.032.39-.11.64L.734-.89c-.187.579-.25.625-.812.735Zm2.453-3.297c.64 0 1.063.031 1.266.11.406.171.656.609.656 1.156 0 1.078-.734 1.734-1.953 1.734-.422 0-.64-.156-.64-.422 0-.125.124-.593.343-1.39.14-.453.203-.688.328-1.188m.75-2.64c.063-.22.172-.266.563-.266.796 0 1.171.328 1.171 1.062 0 .579-.25 1.016-.671 1.25-.344.204-.813.266-1.72.266Zm0 0"/><path id="m" d="M4.719-6.64c-.828 0-1.735.406-2.532 1.124-1 .938-1.593 2.141-1.593 3.313C.594-.813 1.5.172 2.766.172c2.078 0 4.093-2.078 4.203-4.344.062-1.406-.907-2.469-2.25-2.469m-.078.327c.78 0 1.28.579 1.28 1.516 0 1.078-.468 2.531-1.109 3.469C4.25-.531 3.641-.156 2.938-.156c-.828 0-1.296-.594-1.296-1.672 0-.938.5-2.422 1.093-3.297.563-.812 1.172-1.187 1.907-1.187m0 0"/><path id="d" d="M.672.625a8.4 8.4 0 0 1-.438 1.594h.813c.187-.235.25-.5.375-1.281l.234-1.36c.453.406.875.547 1.453.547 1.188 0 2.157-.875 2.375-2.156.172-1.063-.234-1.813-1.25-2.281.813-.407 1.25-.875 1.344-1.438.156-.89-.61-1.625-1.672-1.625-1.078 0-2.015.703-2.172 1.656Zm1.875-6.453c.125-.688.625-1.188 1.219-1.188.625 0 .984.579.843 1.391-.078.516-.468 1.094-.734 1.094-.031 0-.047 0-.203-.047-.14-.031-.219-.031-.297-.031-.25 0-.453.156-.484.343-.032.188.125.313.375.313.062 0 .109-.016.234-.031.11-.032.219-.047.297-.047.125 0 .187.031.234.078.39.422.532 1.187.39 2-.171 1-.702 1.578-1.437 1.578-.5 0-.968-.219-1.234-.61Zm0 0"/><path id="e" d="M5.766-4.984 4.89-3.266c-.063-1.203-.563-1.843-1.47-1.843-.452 0-.983.187-1.405.5C1.375-4.141.984-3.422.813-2.437.547-.844 1.188.124 2.484.124c.875 0 1.579-.437 2.141-1.328.016.187.063.36.125.61.172.562.313.718.64.718.329 0 .594-.203.782-.625.11-.234.172-.453.281-1h-.266c-.093.5-.343.875-.593.875-.328 0-.578-.531-.578-1.219l1.64-3.14ZM4.453-2.406l-.344.656c-.515 1.016-.984 1.5-1.484 1.5a.77.77 0 0 1-.703-.484c-.156-.407-.172-1.047-.047-1.766.11-.703.36-1.312.688-1.75.234-.297.484-.437.796-.437.704 0 1.063.578 1.079 1.703Zm0 0"/><path id="f" d="m4.266-3.687-.657 1.265c-.046-.89-.421-1.36-1.093-1.36-.328 0-.72.141-1.032.376-.453.344-.765.875-.89 1.61C.406-.626.875.093 1.828.093c.656 0 1.188-.328 1.61-.985 0 .141.03.266.078.454.125.421.234.53.468.53s.438-.155.579-.468c.093-.156.14-.328.218-.734h-.203c-.078.375-.266.64-.437.64-.25 0-.438-.39-.422-.89l1.203-2.328Zm-.97 1.906-.25.484c-.39.75-.75 1.11-1.108 1.11-.235 0-.422-.141-.516-.36-.11-.297-.125-.765-.031-1.297.078-.531.265-.984.515-1.312.157-.203.344-.313.578-.313.516 0 .797.422.797 1.266Zm0 0"/><path id="h" d="M.5.453C.438.843.297 1.36.172 1.641h.594c.14-.172.187-.375.297-.953l.156-1c.343.296.656.406 1.078.406.875 0 1.594-.64 1.75-1.594.14-.797-.172-1.344-.922-1.687.61-.313.938-.641 1-1.063.11-.656-.453-1.203-1.25-1.203-.781 0-1.469.516-1.594 1.219Zm1.39-4.765c.094-.516.454-.875.891-.875.453 0 .735.437.64 1.015-.077.39-.358.813-.546.813-.016 0-.047 0-.156-.032-.11-.015-.156-.03-.219-.03-.172 0-.344.124-.36.265-.03.14.079.234.282.234.031 0 .078-.015.172-.031.078-.016.156-.031.219-.031.093 0 .14.015.171.062.282.313.391.875.297 1.469-.125.75-.531 1.187-1.078 1.187-.36 0-.703-.171-.906-.468Zm0 0"/><path id="g" d="M4.86-1.703c.124 0 .265 0 .265-.14s-.14-.141-.266-.141H.875c-.125 0-.266 0-.266.14s.141.14.266.14Zm0 0"/><clipPath id="b"><path d="M71 8h1v90.918h-1Zm0 0"/></clipPath></defs><path fill="#fff" d="M0 0h154.758v98.918H0Zm0 0"/><path fill="none" stroke="#000" stroke-miterlimit="10" stroke-width=".399" d="M.7 84.047h146.648"/><path d="M150.938 84.047c-1.063-.2-2.79-.797-3.989-1.496v2.992c1.2-.7 2.926-1.297 3.988-1.496"/><use xlink:href="#a" x="148.709" y="92.36"/><g clip-path="url(#b)"><path fill="none" stroke="#000" stroke-miterlimit="10" stroke-width=".399" d="M71.566 98.219V8.262"/></g><path d="M71.566 4.676c-.199 1.062-.796 2.789-1.496 3.984h2.989c-.696-1.195-1.293-2.922-1.493-3.984"/><use xlink:href="#c" x="63.157" y="5.825"/><path fill="none" stroke="#00b200" stroke-dasharray="2.98883 1.99255" stroke-miterlimit="10" stroke-width=".797" d="M128.258 84.047c0-31.313-25.383-56.695-56.692-56.695-31.312 0-56.695 25.382-56.695 56.695"/><path fill="none" stroke="#000" stroke-linecap="round" stroke-linejoin="round" stroke-miterlimit="10" stroke-width=".797" d="m71.566 84.047-36.441-43.43 89.715 24.04Zm0 0"/><path fill="none" stroke="#00f" stroke-miterlimit="10" stroke-width=".399" d="M91.406 84.047c0-2.313-.406-4.613-1.195-6.785"/><use xlink:href="#d" x="96.134" y="81.71" fill="#00f"/><path fill="none" stroke="red" stroke-miterlimit="10" stroke-width=".399" d="M88.574 84.047c0-9.395-7.617-17.008-17.008-17.008-4 0-7.87 1.41-10.933 3.98"/><use xlink:href="#e" x="77.593" y="65.868" fill="red"/><path fill="none" stroke="#000" stroke-miterlimit="10" stroke-width=".399" d="M76.89 82.11a5.67 5.67 0 0 0-8.968-2.407"/><use xlink:href="#f" x="66.527" y="75.008"/><use xlink:href="#g" x="71.79" y="75.008"/><use xlink:href="#h" x="77.519" y="75.008"/><path fill="none" stroke="#ec008c" stroke-linecap="round" stroke-linejoin="round" stroke-miterlimit="10" stroke-width=".797" d="M71.566 84.047h56.692L52.176 30.773Zm0 0"/><path fill="none" stroke="#ec008c" stroke-miterlimit="10" stroke-width=".399" d="M78.652 84.047a7.088 7.088 0 0 0-9.511-6.66"/><path fill="#f57fc5" stroke="#ec008c" stroke-miterlimit="10" stroke-width=".399" d="M129.254 84.047a.995.995 0 1 0-1.99-.002.995.995 0 0 0 1.99.002ZM53.172 30.773a.995.995 0 1 0-1.99-.001.995.995 0 0 0 1.99.001Zm0 0"/><path fill="#7f7f7f" stroke="#000" stroke-miterlimit="10" stroke-width=".399" d="M36.121 40.617a.995.995 0 1 0-1.994-.002.995.995 0 0 0 1.994.002ZM125.836 64.656a.995.995 0 1 0-1.99-.001.995.995 0 0 0 1.99.001Zm0 0"/><use xlink:href="#i" x="123.91" y="94.231" fill="#ec008c"/><use xlink:href="#j" x="42.369" y="27.054" fill="#ec008c"/><use xlink:href="#k" x="25.318" y="36.898"/><use xlink:href="#l" x="128.558" y="60.938"/><use xlink:href="#m" x="75.284" y="94.46"/></svg>