<svg xmlns="http://www.w3.org/2000/svg" xmlns:xlink="http://www.w3.org/1999/xlink" width="149.564" height="75.448" viewBox="0 0 112.173 56.586"><defs><path id="a" d="M5.625-.156c-.578-.047-.625-.14-.766-.86l-.937-5.64h-.25L.782-1.672C-.017-.344-.11-.234-.517-.156V0H1.36v-.156C.844-.203.766-.266.766-.516c0-.187.03-.265.203-.609L1.53-2.25h2.203l.188 1.297c.015.094.031.187.031.265 0 .375-.14.47-.781.532V0h2.453ZM1.75-2.61l1.484-2.594.438 2.594Zm0 0"/><path id="b" d="M-.078 0h2.812c1.563 0 2.641-.812 2.641-2 0-.36-.125-.719-.344-.937-.203-.22-.39-.344-.922-.563.72-.172 1-.281 1.329-.562q.42-.375.421-.985c0-.937-.703-1.469-1.984-1.469H1.297v.172c.61.047.766.125.766.407 0 .14-.032.39-.11.64L.734-.89c-.187.579-.25.625-.812.735Zm2.453-3.297c.64 0 1.063.031 1.266.11.406.171.656.609.656 1.156 0 1.078-.734 1.734-1.953 1.734-.422 0-.64-.156-.64-.422 0-.125.124-.593.343-1.39.14-.453.203-.688.328-1.188m.75-2.64c.063-.22.172-.266.563-.266.796 0 1.171.328 1.171 1.062 0 .579-.25 1.016-.671 1.25-.344.204-.813.266-1.72.266Zm0 0"/><path id="c" d="m6.5-4.64.375-1.985h-.219c-.078.172-.172.219-.375.219a2 2 0 0 1-.406-.063c-.453-.11-.844-.172-1.172-.172-2.125 0-4.047 2-4.047 4.22 0 1.53 1.078 2.593 2.61 2.593 1.015 0 1.812-.438 2.718-1.484l-.171-.141c-.891.89-1.47 1.187-2.297 1.187-1.11 0-1.735-.765-1.735-2.046 0-1.188.469-2.391 1.25-3.204.485-.484 1.11-.765 1.766-.765.922 0 1.422.547 1.516 1.61Zm0 0"/><path id="d" d="M1.297-6.344c.61.047.766.14.766.407 0 .14-.032.39-.11.64L.734-.89c-.187.579-.25.625-.812.735V0h2.516c1.171 0 2.234-.312 3-.875.968-.703 1.546-1.797 1.546-2.953 0-1.64-1.14-2.688-2.921-2.688H1.297Zm1.828.422c.063-.219.203-.281.61-.281.562 0 1.062.125 1.374.36.5.359.766.984.766 1.78 0 1.079-.422 2.188-1.094 2.86-.593.61-1.406.906-2.437.906-.453 0-.656-.11-.656-.375 0-.125.062-.344.218-.937Zm0 0"/><path id="e" d="M5.766-4.984 4.89-3.266c-.063-1.203-.563-1.843-1.47-1.843-.452 0-.983.187-1.405.5C1.375-4.141.984-3.422.813-2.437.547-.844 1.188.124 2.484.124c.875 0 1.579-.437 2.141-1.328.016.187.063.36.125.61.172.562.313.718.64.718.329 0 .594-.203.782-.625.11-.234.172-.453.281-1h-.266c-.093.5-.343.875-.593.875-.328 0-.578-.531-.578-1.219l1.64-3.14ZM4.453-2.406l-.344.656c-.515 1.016-.984 1.5-1.484 1.5a.77.77 0 0 1-.703-.484c-.156-.407-.172-1.047-.047-1.766.11-.703.36-1.312.688-1.75.234-.297.484-.437.796-.437.704 0 1.063.578 1.079 1.703Zm0 0"/><path id="f" d="M.672.625a8.4 8.4 0 0 1-.438 1.594h.813c.187-.235.25-.5.375-1.281l.234-1.36c.453.406.875.547 1.453.547 1.188 0 2.157-.875 2.375-2.156.172-1.063-.234-1.813-1.25-2.281.813-.407 1.25-.875 1.344-1.438.156-.89-.61-1.625-1.672-1.625-1.078 0-2.015.703-2.172 1.656Zm1.875-6.453c.125-.688.625-1.188 1.219-1.188.625 0 .984.579.843 1.391-.078.516-.468 1.094-.734 1.094-.031 0-.047 0-.203-.047-.14-.031-.219-.031-.297-.031-.25 0-.453.156-.484.343-.032.188.125.313.375.313.062 0 .109-.016.234-.031.11-.032.219-.047.297-.047.125 0 .187.031.234.078.39.422.532 1.187.39 2-.171 1-.702 1.578-1.437 1.578-.5 0-.968-.219-1.234-.61Zm0 0"/></defs><path fill="#fff" d="M0 0h112.172v56.586H0Zm0 0"/><path fill="none" stroke="#000" stroke-miterlimit="10" stroke-width=".399" d="M70.121 42.383v-4.254h-4.254v4.254h4.254"/><path fill="none" stroke="#000" stroke-linecap="round" stroke-linejoin="round" stroke-miterlimit="10" stroke-width=".797" d="M70.121 14.035 13.426 42.383h85.043Zm0 0"/><path fill="none" stroke="#000" stroke-linecap="round" stroke-miterlimit="10" stroke-width=".797" d="M70.121 14.035v28.348"/><path fill="#7f7f7f" stroke="#000" stroke-miterlimit="10" stroke-width=".399" d="M71.117 14.035a.995.995 0 1 0-1.99-.002.995.995 0 0 0 1.99.002ZM14.422 42.383a.995.995 0 1 0-1.99-.002.995.995 0 0 0 1.99.002ZM99.465 42.383a.995.995 0 1 0-1.99-.002.995.995 0 0 0 1.99.002ZM71.117 42.383a.995.995 0 1 0-1.99-.002.995.995 0 0 0 1.99.002Zm0 0"/><use xlink:href="#a" x="67.077" y="10.515"/><use xlink:href="#b" x="3.821" y="52.367"/><use xlink:href="#c" x="101.488" y="52.596"/><use xlink:href="#d" x="66.524" y="52.367"/><path fill="none" stroke="red" stroke-miterlimit="10" stroke-width=".399" d="M61.246 18.473a9.93 9.93 0 0 0 8.875 5.484"/><path fill="none" stroke="#00f" stroke-miterlimit="10" stroke-width=".399" d="M70.121 22.54a8.5 8.5 0 0 0 6.012-2.493"/><use xlink:href="#e" x="58.368" y="29.67" fill="red"/><use xlink:href="#f" x="72.196" y="29.714" fill="#00f"/></svg>