<svg xmlns="http://www.w3.org/2000/svg" xmlns:xlink="http://www.w3.org/1999/xlink" width="309.512" height="197.838" viewBox="0 0 232.134 148.379"><defs><path id="a" d="M6-1.656a6 6 0 0 0-.328.406c-.344.438-.516.594-.688.594-.218 0-.359-.188-.453-.61-.031-.125-.047-.218-.062-.265-.375-1.5-.547-2.188-.547-2.407C4.578-5.093 5.125-5.75 5.39-5.75c.093 0 .203.047.359.125.188.094.281.125.406.125.313 0 .516-.219.516-.531s-.25-.563-.61-.563c-.656 0-1.218.547-2.25 2.14l-.171-.812c-.203-1.015-.375-1.328-.766-1.328-.328 0-.844.14-1.75.438l-.172.062.063.219c.562-.125.703-.156.843-.156.36 0 .454.125.672 1.031l.422 1.828-1.219 1.75c-.296.453-.593.719-.765.719-.094 0-.235-.047-.39-.14a1.2 1.2 0 0 0-.47-.141.51.51 0 0 0-.515.515c0 .39.297.64.75.64.469 0 .64-.14 1.39-1.046.407-.484.72-.89 1.344-1.75l.453 1.781c.188.766.375 1.016.86 1.016.562 0 .953-.36 1.828-1.703Zm0 0"/><path id="b" d="M.219-5.969c.203-.047.297-.062.469-.062.843 0 1.078.375 1.765 2.937.25.969.61 2.719.61 2.969s-.094.484-.313.75c-.469.61-.766 1-.922 1.188-.312.328-.5.437-.687.437-.094 0-.203-.047-.36-.156-.234-.188-.39-.25-.562-.25a.567.567 0 0 0-.578.578c0 .375.328.656.765.656.953 0 2.907-2.234 4.516-5.203 1.016-1.828 1.437-2.906 1.437-3.64a.83.83 0 0 0-.812-.829c-.344 0-.594.235-.594.563 0 .218.125.39.422.578.281.172.39.297.39.516 0 .593-.546 1.75-1.827 3.859L3.64-2.812c-.22-1.313-1.063-3.782-1.282-3.782h-.062c-.016.016-.078.016-.125.016-.14.016-.672.11-1.469.266-.078.015-.265.046-.484.078Zm0 0"/><path id="h" d="M8.422-.234c-.844-.078-.938-.203-1.125-1.297L5.89-9.984H5.5L1.172-2.516C-.016-.516-.172-.359-.766-.234V0h2.797v-.234c-.765-.078-.875-.157-.875-.532 0-.28.032-.421.297-.921l.844-1.688h3.297l.297 1.953c.015.14.03.266.03.39 0 .563-.218.704-1.171.798V0h3.672ZM2.609-3.906l2.25-3.89.657 3.89Zm0 0"/><path id="i" d="M-.125 0h4.219c2.343 0 3.953-1.219 3.953-2.984 0-.563-.172-1.078-.5-1.407-.297-.343-.594-.53-1.375-.859 1.062-.25 1.484-.422 1.969-.844.422-.36.64-.86.64-1.468 0-1.422-1.062-2.188-2.984-2.188h-3.86v.234c.938.079 1.157.188 1.157.61 0 .234-.063.594-.172.953l-1.828 6.61C.828-.485.719-.392-.125-.235Zm3.688-4.937c.968 0 1.593.046 1.89.171.61.25.984.907.984 1.72 0 1.608-1.109 2.593-2.921 2.593-.625 0-.97-.219-.97-.625 0-.172.188-.89.532-2.094.188-.672.281-1.015.485-1.765m1.109-3.954c.094-.328.266-.421.86-.421 1.187 0 1.75.515 1.75 1.624 0 .844-.36 1.5-1 1.86-.516.297-1.235.406-2.579.406Zm0 0"/><path id="j" d="M7.078-9.953c-1.25 0-2.594.61-3.797 1.687-1.5 1.391-2.39 3.22-2.39 4.97C.89-1.204 2.25.265 4.156.265c3.11 0 6.125-3.141 6.282-6.516.109-2.094-1.36-3.703-3.36-3.703m-.125.5c1.172 0 1.922.86 1.922 2.265 0 1.61-.703 3.797-1.672 5.204C6.375-.812 5.453-.22 4.406-.22c-1.25 0-1.937-.922-1.937-2.531 0-1.406.75-3.625 1.64-4.922.829-1.219 1.75-1.781 2.844-1.781m0 0"/><path id="c" d="M1.031.922C.906 1.719.61 2.75.36 3.312h1.235c.234-.343.36-.75.547-1.906l.343-2.031c.688.594 1.313.813 2.172.813 1.782 0 3.219-1.313 3.547-3.235.266-1.594-.328-2.719-1.86-3.422 1.235-.61 1.891-1.297 2.032-2.156.219-1.328-.937-2.422-2.531-2.422-1.61 0-2.985 1.047-3.219 2.469Zm2.797-9.64C4-9.767 4.75-10.5 5.641-10.5c.937 0 1.468.86 1.265 2.063-.125.796-.687 1.64-1.078 1.64-.047 0-.094 0-.328-.062a2 2 0 0 0-.437-.063c-.36 0-.704.25-.75.531s.203.454.578.454c.093 0 .172 0 .343-.032.172-.047.329-.062.438-.062.203 0 .297.031.375.11.562.64.781 1.765.578 3-.25 1.483-1.047 2.374-2.156 2.374a2.23 2.23 0 0 1-1.844-.937Zm0 0"/><path id="d" d="M8.656-7.469 7.312-4.906c-.078-1.797-.828-2.75-2.187-2.75-.687 0-1.469.281-2.11.75-.953.703-1.546 1.781-1.796 3.265C.829-1.266 1.766.188 3.703.188c1.313 0 2.39-.672 3.219-2 .031.28.094.562.187.937.266.828.485 1.063.954 1.063.5 0 .89-.313 1.187-.938.172-.344.266-.672.422-1.5h-.39c-.157.75-.532 1.313-.907 1.313-.5 0-.844-.797-.86-1.829l2.47-4.703Zm-2 3.875-.5.969c-.765 1.516-1.5 2.25-2.234 2.25-.469 0-.89-.297-1.047-.734-.234-.61-.25-1.547-.062-2.625.171-1.078.53-1.985 1.03-2.641.345-.437.72-.64 1.188-.64 1.063 0 1.594.843 1.625 2.546Zm0 0"/><path id="e" d="m6.406-5.531-.984 1.906c-.063-1.344-.625-2.047-1.625-2.047-.516 0-1.094.203-1.563.563-.703.515-1.14 1.312-1.328 2.406C.61-.938 1.296.14 2.734.14c.97 0 1.782-.5 2.391-1.485.031.219.078.422.156.688.172.625.328.797.688.797s.656-.235.89-.688c.125-.265.188-.5.297-1.125h-.281c-.11.563-.39.969-.672.969-.36 0-.625-.578-.64-1.344L7.39-5.53Zm-1.468 2.86-.375.718C3.984-.813 3.452-.281 2.906-.281a.85.85 0 0 1-.781-.531c-.156-.454-.187-1.157-.047-1.954.125-.796.39-1.468.766-1.953.25-.328.547-.484.89-.484.782 0 1.172.64 1.188 1.89Zm0 0"/><path id="g" d="M.766.688c-.11.578-.328 1.343-.5 1.765h.906c.172-.25.281-.547.422-1.406l.25-1.516c.5.453.953.61 1.594.61 1.328 0 2.406-.97 2.64-2.391.203-1.187-.25-2.016-1.39-2.547.921-.453 1.406-.953 1.515-1.594.172-.984-.687-1.796-1.86-1.796-1.202 0-2.234.78-2.405 1.843Zm2.078-7.141c.125-.781.672-1.328 1.328-1.328.703 0 1.094.64.953 1.531-.11.594-.516 1.219-.812 1.219-.032 0-.063 0-.235-.047a2 2 0 0 0-.328-.047c-.266 0-.516.188-.547.39-.047.204.14.344.422.344.078 0 .125-.015.234-.03a2 2 0 0 1 .36-.048c.14 0 .218.016.265.094.422.453.579 1.297.422 2.203-.187 1.11-.781 1.766-1.61 1.766-.546 0-1.046-.25-1.343-.688Zm0 0"/><path id="f" d="M7.297-2.547c.187 0 .375 0 .375-.219 0-.218-.188-.218-.375-.218H1.313c-.188 0-.391 0-.391.218 0 .22.203.22.39.22Zm0 0"/></defs><path fill="#fff" d="M0 0h232.133v148.379H0Zm0 0"/><path fill="none" stroke="#000" stroke-miterlimit="10" stroke-width=".5985" d="M1.047 126.07h219.976"/><path d="M226.402 126.07c-1.593-.297-4.183-1.195-5.976-2.242v4.484c1.793-1.046 4.383-1.94 5.976-2.242"/><use xlink:href="#a" x="223.064" y="138.54"/><path fill="none" stroke="#000" stroke-miterlimit="10" stroke-width=".5985" d="M107.348 147.332V12.395"/><path d="M107.348 7.016c-.301 1.593-1.196 4.183-2.243 5.976h4.485c-1.047-1.793-1.945-4.383-2.242-5.976"/><use xlink:href="#b" x="94.736" y="8.738"/><path fill="none" stroke="#00b200" stroke-dasharray="4.483245 2.9888250000000003" stroke-miterlimit="10" stroke-width="1.1955" d="M192.387 126.07c0-46.968-38.07-85.039-85.04-85.039-46.968 0-85.038 38.07-85.038 85.04"/><path fill="none" stroke="#000" stroke-linecap="round" stroke-linejoin="round" stroke-miterlimit="10" stroke-width="1.1955" d="M107.348 126.07 52.684 60.926l134.574 36.058Zm0 0"/><path fill="none" stroke="#00f" stroke-miterlimit="10" stroke-width=".5985" d="M137.113 126.07c0-3.468-.61-6.918-1.797-10.18"/><use xlink:href="#c" x="144.201" y="122.565" fill="#00f"/><path fill="none" stroke="red" stroke-miterlimit="10" stroke-width=".5985" d="M132.86 126.07c0-14.09-11.423-25.511-25.512-25.511a25.5 25.5 0 0 0-16.399 5.968"/><use xlink:href="#d" x="116.389" y="98.802" fill="red"/><path fill="none" stroke="#000" stroke-miterlimit="10" stroke-width=".5985" d="M115.34 123.164a8.51 8.51 0 0 0-6.516-5.469 8.5 8.5 0 0 0-6.941 1.864"/><use xlink:href="#e" x="99.79" y="112.512"/><use xlink:href="#f" x="107.685" y="112.512"/><use xlink:href="#g" x="116.278" y="112.512"/><path fill="#7f7f7f" stroke="#000" stroke-miterlimit="10" stroke-width=".5985" d="M54.18 60.926c0-.824-.668-1.496-1.496-1.496a1.495 1.495 0 1 0 1.496 1.496ZM188.754 96.984c0-.824-.668-1.492-1.496-1.492-.824 0-1.492.668-1.492 1.492a1.495 1.495 0 1 0 2.988 0Zm0 0"/><use xlink:href="#h" x="37.977" y="55.347"/><use xlink:href="#i" x="192.837" y="91.407"/><use xlink:href="#j" x="112.926" y="141.69"/></svg>