<svg xmlns="http://www.w3.org/2000/svg" xmlns:xlink="http://www.w3.org/1999/xlink" width="447.046" height="366.254" viewBox="0 0 335.284 274.69"><defs><path id="a" d="M8.422-.234c-.844-.078-.938-.203-1.125-1.297L5.89-9.984H5.5L1.172-2.516C-.016-.516-.172-.359-.766-.234V0h2.797v-.234c-.765-.078-.875-.157-.875-.532 0-.28.032-.421.297-.921l.844-1.688h3.297l.297 1.953c.015.14.03.266.03.39 0 .563-.218.704-1.171.798V0h3.672ZM2.609-3.906l2.25-3.89.657 3.89Zm0 0"/><path id="b" d="M7.078-9.953c-1.25 0-2.594.61-3.797 1.687-1.5 1.391-2.39 3.22-2.39 4.97C.89-1.204 2.25.265 4.156.265c3.11 0 6.125-3.141 6.282-6.516.109-2.094-1.36-3.703-3.36-3.703m-.125.5c1.172 0 1.922.86 1.922 2.265 0 1.61-.703 3.797-1.672 5.204C6.375-.812 5.453-.22 4.406-.22c-1.25 0-1.937-.922-1.937-2.531 0-1.406.75-3.625 1.64-4.922.829-1.219 1.75-1.781 2.844-1.781m0 0"/><path id="c" d="m6.984-6.984.61-2.985H7.25c-.219.313-.344.39-.672.39-.187 0-.344-.046-.687-.155-.328-.141-.813-.22-1.282-.22-1.546 0-2.656 1.032-2.656 2.5 0 .813.234 1.235 1.125 2.188.14.141.328.344.578.641.266.281.485.5.594.625.688.734.89 1.11.89 1.766C5.14-1.125 4.298-.25 3.22-.25c-1.25 0-2.188-1.062-2.188-2.484 0-.125.016-.235.032-.344L.766-3.11.25.219h.266c.109-.344.28-.485.578-.485.156 0 .39.063.765.188.688.25 1.094.344 1.563.344 1.719 0 3.016-1.297 3.016-2.985 0-.969-.344-1.547-1.688-2.906S3.266-7.203 3.266-7.937c0-.938.64-1.516 1.656-1.516.547 0 1.016.187 1.328.547.328.375.438.89.469 1.875Zm0 0"/><path id="d" d="M10.86-9.75H7.89v.234c.844.079 1.048.22 1.048.766 0 .172-.032.36-.141.656-.016.047-.031.11-.031.11L7.25-2.297 4.14-9.75H1.735v.234c.704.063 1.016.25 1.282.844L1.234-2.453C.672-.531.547-.36-.296-.234V0h2.952v-.234C1.891-.297 1.61-.47 1.61-.875c0-.203.047-.5.141-.812l1.703-6.297L6.891.219h.265l2.157-7.516c.546-1.922.609-2.016 1.546-2.219Zm0 0"/><path id="e" d="M1.36-9.516c.843.125.874.172 1.14.985l1.14 4.015-.906 3.172c-.25.813-.578 1.047-1.562 1.11V0h4.312v-.234a8 8 0 0 1-.546-.047c-.579-.031-.782-.188-.782-.563 0-.312.094-.75.453-1.922.047-.125.079-.234.094-.296l.438-1.516L8.406-8.61c.485-.594.594-.703 1.047-.907v-.234H6.625v.234c.188.016.344.032.406.047.438.047.625.156.625.422 0 .39-.687 1.375-2.234 3.172-.25.297-.344.422-.563.688-.187-.657-.234-.844-.468-1.641-.375-1.281-.532-1.922-.532-2.156 0-.344.172-.438 1.063-.532v-.234H1.359Zm0 0"/><path id="f" d="M9.453-9.75H1.516L.875-7.453l.281.062C1.938-9 2.422-9.266 4.703-9.234l-2.156 7.89C2.312-.547 1.953-.312.969-.234V0h4.328v-.234c-.25-.016-.469-.047-.563-.047-.593-.047-.78-.188-.78-.625 0-.203.046-.375.187-.89l2.078-7.438h.812c1.078 0 1.563.375 1.563 1.218 0 .188-.016.407-.047.672l.25.032Zm0 0"/><path id="h" d="M13.047-9.75h-2.5L5.53-2.39l-.828-7.36H2v.234c.75.047 1.11.204 1.11.547 0 .125-.063.344-.157.625-.031.047-.062.219-.125.438-.015.047-.031.11-.047.172L1.187-2.187C.734-.625.517-.328-.266-.234V0h2.954v-.234c-.766-.063-1.063-.25-1.063-.657 0-.156.063-.546.14-.796l1.766-6.47L4.437 0h.25l5.641-8.375-1.937 7.016c-.235.797-.532 1.015-1.5 1.125V0h4.078v-.234C9.953-.328 9.813-.422 9.813-.875c0-.266.03-.453.171-.922l1.829-6.61c.265-.905.343-.968 1.234-1.109Zm0 0"/><path id="i" d="M9.781-9.75h-3.11v.234c.735.094.923.188.923.532 0 .203-.094.375-.297.625L5.125-5.875 4.25-8.062c-.172-.391-.234-.641-.234-.844 0-.375.234-.5 1.062-.61v-.234H1.141v.234c.859.079 1.078.22 1.375.907l1.578 3.937c-.547.625-1.047 1.203-1.235 1.453C.781-.78.36-.406-.437-.234V0h3.203v-.234c-.72 0-.97-.141-.97-.516 0-.219.11-.469.313-.703l2.25-2.563 1 2.47c.11.265.172.5.172.718 0 .437-.156.516-1.14.594V0h4.078v-.234c-1.047-.125-1.172-.22-1.547-1.11L5.39-5.204l2.53-2.89c.766-.875 1.22-1.219 1.86-1.422Zm0 0"/><path id="j" d="M-.125 0h4.219c2.343 0 3.953-1.219 3.953-2.984 0-.563-.172-1.078-.5-1.407-.297-.343-.594-.53-1.375-.859 1.062-.25 1.484-.422 1.969-.844.422-.36.64-.86.64-1.468 0-1.422-1.062-2.188-2.984-2.188h-3.86v.234c.938.079 1.157.188 1.157.61 0 .234-.063.594-.172.953l-1.828 6.61C.828-.485.719-.392-.125-.235Zm3.688-4.937c.968 0 1.593.046 1.89.171.61.25.984.907.984 1.72 0 1.608-1.109 2.593-2.921 2.593-.625 0-.97-.219-.97-.625 0-.172.188-.89.532-2.094.188-.672.281-1.015.485-1.765m1.109-3.954c.094-.328.266-.421.86-.421 1.187 0 1.75.515 1.75 1.624 0 .844-.36 1.5-1 1.86-.516.297-1.235.406-2.579.406Zm0 0"/><path id="k" d="m9.734-6.953.563-2.969h-.313c-.125.25-.28.328-.578.328-.11 0-.297-.031-.61-.094-.671-.171-1.265-.265-1.75-.265-3.171 0-6.062 3-6.062 6.328 0 2.281 1.61 3.89 3.907 3.89 1.53 0 2.734-.656 4.078-2.218l-.266-.219C7.36-.844 6.5-.406 5.266-.406c-1.657 0-2.61-1.125-2.61-3.063 0-1.781.719-3.578 1.89-4.797.72-.734 1.657-1.14 2.641-1.14 1.375 0 2.141.797 2.282 2.422Zm0 0"/><path id="g" d="M2.797-5.25c.062-.14.094-.234.094-.344 0-.328-.282-.593-.625-.593-.313 0-.5.218-.578.5L.359-.86c0 .03-.03.156-.03.156 0 .125.28.203.374.203.063 0 .078-.031.14-.172Zm0 0"/></defs><path fill="none" stroke="#000" stroke-linecap="round" stroke-linejoin="round" stroke-miterlimit="10" stroke-width="1.1955" d="M252.473 21.05 20.14 253.388h294.586Zm0 0"/><path fill="none" stroke="#000" stroke-dasharray="4.483245 2.9888250000000003" stroke-miterlimit="10" stroke-width="1.1955" d="M308.883 110.414c0-54.64-44.293-98.93-98.93-98.93s-98.93 44.29-98.93 98.93c0 54.637 44.293 98.926 98.93 98.926s98.93-44.29 98.93-98.926Zm0 0"/><path fill="none" stroke="#ec008c" stroke-dasharray="4.483245 2.9888250000000003" stroke-miterlimit="10" stroke-width="1.1955" d="M284.422 126.129c0-41.129-33.34-74.473-74.469-74.473S135.484 85 135.484 126.13s33.34 74.469 74.47 74.469c41.128 0 74.468-33.34 74.468-74.47Zm0 0"/><path fill="none" stroke="red" stroke-dasharray="4.483245 2.9888250000000003" stroke-linecap="round" stroke-miterlimit="10" stroke-width="1.1955" d="M209.953 110.414v15.715M136.305 137.219h147.297"/><path stroke="#000" stroke-miterlimit="10" stroke-width=".5985" d="M253.969 21.05c0-.823-.672-1.495-1.496-1.495a1.495 1.495 0 1 0 1.496 1.496ZM21.633 253.387a1.494 1.494 0 1 0-2.99-.005 1.494 1.494 0 0 0 2.99.005ZM316.223 253.387a1.493 1.493 0 1 0-2.988 0c0 .824.667 1.492 1.492 1.492.824 0 1.496-.668 1.496-1.492ZM137.8 137.219a1.494 1.494 0 1 0-2.987-.005 1.494 1.494 0 0 0 2.988.005ZM285.094 137.219a1.494 1.494 0 1 0-2.99-.005 1.494 1.494 0 0 0 2.99.005ZM211.45 110.414a1.496 1.496 0 0 0-2.993 0 1.495 1.495 0 0 0 2.992 0Zm0 0"/><path fill="#00b200" stroke="#004c00" stroke-miterlimit="10" stroke-width=".5985" d="M222.54 52.48a1.495 1.495 0 1 0-2.986-.001 1.495 1.495 0 0 0 2.985.001ZM269.684 79.7c0-.825-.672-1.497-1.496-1.497a1.495 1.495 0 1 0 1.496 1.496ZM122.086 152.934a1.494 1.494 0 1 0-2.988-.005 1.494 1.494 0 0 0 2.988.005ZM292.953 166.543c0-.824-.672-1.496-1.496-1.496a1.495 1.495 0 0 0 0 2.988c.824 0 1.496-.668 1.496-1.492Zm0 0"/><path fill="#b20000" stroke="#4c0000" stroke-miterlimit="10" stroke-width=".5985" d="M211.45 126.129a1.496 1.496 0 0 0-2.993 0 1.495 1.495 0 0 0 2.992 0Zm0 0"/><use xlink:href="#a" x="247.908" y="15.773"/><use xlink:href="#b" x="204.558" y="104.879"/><use xlink:href="#c" x="107.721" y="157.827"/><use xlink:href="#d" x="288.879" y="141.94"/><use xlink:href="#e" x="272.719" y="84.549"/><use xlink:href="#f" x="296.736" y="171.392"/><use xlink:href="#b" x="215.232" y="131.738"/><use xlink:href="#g" x="226.022" y="126.314"/><use xlink:href="#h" x="117.981" y="131.939"/><use xlink:href="#i" x="205.228" y="47.202"/><use xlink:href="#j" x="5.731" y="268.362"/><use xlink:href="#k" x="319.259" y="268.705"/></svg>