<svg xmlns="http://www.w3.org/2000/svg" xmlns:xlink="http://www.w3.org/1999/xlink" width="519.554" height="516.08" viewBox="0 0 389.666 387.06"><defs><path id="b" d="M8.422-.234c-.844-.078-.938-.203-1.125-1.297L5.89-9.984H5.5L1.172-2.516C-.016-.516-.172-.359-.766-.234V0h2.797v-.234c-.765-.078-.875-.157-.875-.532 0-.28.032-.421.297-.921l.844-1.688h3.297l.297 1.953c.015.14.03.266.03.39 0 .563-.218.704-1.171.798V0h3.672ZM2.609-3.906l2.25-3.89.657 3.89Zm0 0"/><path id="c" d="M10.781-9.75H7.47v.234c.172.016.343.047.406.047.36.031.5.125.5.281 0 .36-.812 1.172-2.14 2.094L3.952-5.516l.797-2.89c.219-.75.625-1.047 1.516-1.11v-.234H2.188v.234c.921.094 1.14.204 1.14.641 0 .219-.062.563-.156.922l-1.844 6.61C1.062-.454.984-.376.11-.235V0h3.704v-.234c-.938-.11-1.079-.203-1.079-.657 0-.156.032-.296.125-.593l.079-.313.937-3.406 1.797 3.11c.36.609.578 1.14.578 1.421 0 .219-.219.344-.687.39-.079 0-.25.016-.438.048V0h4.11v-.234c-.938-.094-1.032-.141-1.454-.844L5.188-5.594l4.484-3.39c.406-.313.75-.47 1.11-.532Zm0 0"/><path id="d" d="M6.016-9.75H1.938v.234c.937.094 1.156.204 1.156.641 0 .219-.063.563-.172.922l-1.828 6.61C.828-.485.719-.392-.125-.235V0h7.61l.859-2.672-.297-.094C7.53-1.687 7.125-1.203 6.469-.875c-.532.25-1.14.344-2.438.344-1.14 0-1.5-.125-1.5-.516 0-.11.063-.469.14-.75l1.845-6.61c.218-.765.609-1.046 1.5-1.109Zm0 0"/><path id="e" d="M10.86-9.75H7.89v.234c.844.079 1.048.22 1.048.766 0 .172-.032.36-.141.656-.016.047-.031.11-.031.11L7.25-2.297 4.14-9.75H1.735v.234c.704.063 1.016.25 1.282.844L1.234-2.453C.672-.531.547-.36-.296-.234V0h2.952v-.234C1.891-.297 1.61-.47 1.61-.875c0-.203.047-.5.141-.812l1.703-6.297L6.891.219h.265l2.157-7.516c.546-1.922.609-2.016 1.546-2.219Zm0 0"/><path id="f" d="M1.36-9.516c.843.125.874.172 1.14.985l1.14 4.015-.906 3.172c-.25.813-.578 1.047-1.562 1.11V0h4.312v-.234a8 8 0 0 1-.546-.047c-.579-.031-.782-.188-.782-.563 0-.312.094-.75.453-1.922.047-.125.079-.234.094-.296l.438-1.516L8.406-8.61c.485-.594.594-.703 1.047-.907v-.234H6.625v.234c.188.016.344.032.406.047.438.047.625.156.625.422 0 .39-.687 1.375-2.234 3.172-.25.297-.344.422-.563.688-.187-.657-.234-.844-.468-1.641-.375-1.281-.532-1.922-.532-2.156 0-.344.172-.438 1.063-.532v-.234H1.359Zm0 0"/><path id="g" d="M13.047-9.75h-2.5L5.53-2.39l-.828-7.36H2v.234c.75.047 1.11.204 1.11.547 0 .125-.063.344-.157.625-.031.047-.062.219-.125.438-.015.047-.031.11-.047.172L1.187-2.187C.734-.625.517-.328-.266-.234V0h2.954v-.234c-.766-.063-1.063-.25-1.063-.657 0-.156.063-.546.14-.796l1.766-6.47L4.437 0h.25l5.641-8.375-1.937 7.016c-.235.797-.532 1.015-1.5 1.125V0h4.078v-.234C9.953-.328 9.813-.422 9.813-.875c0-.266.03-.453.171-.922l1.829-6.61c.265-.905.343-.968 1.234-1.109Zm0 0"/><path id="h" d="M9.781-9.75h-3.11v.234c.735.094.923.188.923.532 0 .203-.094.375-.297.625L5.125-5.875 4.25-8.062c-.172-.391-.234-.641-.234-.844 0-.375.234-.5 1.062-.61v-.234H1.141v.234c.859.079 1.078.22 1.375.907l1.578 3.937c-.547.625-1.047 1.203-1.235 1.453C.781-.78.36-.406-.437-.234V0h3.203v-.234c-.72 0-.97-.141-.97-.516 0-.219.11-.469.313-.703l2.25-2.563 1 2.47c.11.265.172.5.172.718 0 .437-.156.516-1.14.594V0h4.078v-.234c-1.047-.125-1.172-.22-1.547-1.11L5.39-5.204l2.53-2.89c.766-.875 1.22-1.219 1.86-1.422Zm0 0"/><path id="i" d="M-.125 0h4.219c2.343 0 3.953-1.219 3.953-2.984 0-.563-.172-1.078-.5-1.407-.297-.343-.594-.53-1.375-.859 1.062-.25 1.484-.422 1.969-.844.422-.36.64-.86.64-1.468 0-1.422-1.062-2.188-2.984-2.188h-3.86v.234c.938.079 1.157.188 1.157.61 0 .234-.063.594-.172.953l-1.828 6.61C.828-.485.719-.392-.125-.235Zm3.688-4.937c.968 0 1.593.046 1.89.171.61.25.984.907.984 1.72 0 1.608-1.109 2.593-2.921 2.593-.625 0-.97-.219-.97-.625 0-.172.188-.89.532-2.094.188-.672.281-1.015.485-1.765m1.109-3.954c.094-.328.266-.421.86-.421 1.187 0 1.75.515 1.75 1.624 0 .844-.36 1.5-1 1.86-.516.297-1.235.406-2.579.406Zm0 0"/><path id="j" d="m9.734-6.953.563-2.969h-.313c-.125.25-.28.328-.578.328-.11 0-.297-.031-.61-.094-.671-.171-1.265-.265-1.75-.265-3.171 0-6.062 3-6.062 6.328 0 2.281 1.61 3.89 3.907 3.89 1.53 0 2.734-.656 4.078-2.218l-.266-.219C7.36-.844 6.5-.406 5.266-.406c-1.657 0-2.61-1.125-2.61-3.063 0-1.781.719-3.578 1.89-4.797.72-.734 1.657-1.14 2.641-1.14 1.375 0 2.141.797 2.282 2.422Zm0 0"/><path id="k" d="m4.875 0-.281-2.312C3.437-2.97 2.687-4.297 2.687-5.703c0-.781.22-1.656.61-2.36.547-.968 1.437-1.53 2.453-1.53s1.906.562 2.453 1.53c.39.704.61 1.579.61 2.36 0 1.406-.75 2.734-1.907 3.39L6.625 0H11v-2.281h-.36c-.109.656-.437.937-1.03.937H7.421l.047-.562c.515-.203.843-.344 1.187-.578 1.14-.735 1.828-1.938 1.828-3.22 0-.984-.437-2.093-1.156-2.937-.906-1.03-2.156-1.609-3.578-1.609s-2.672.578-3.578 1.61c-.719.843-1.156 1.953-1.156 2.937 0 1.281.687 2.484 1.828 3.219.344.234.656.375 1.187.578l.047.562H1.891c-.594 0-.922-.281-1.032-.937H.516V0Zm0 0"/><path id="l" d="M3.219-7.484 1.234-6.47v.157c.125-.063.25-.11.297-.125.188-.079.375-.125.5-.125q.328 0 .328.515v5.016c0 .375-.093.625-.265.718-.172.11-.328.141-.781.141V0h3.046v-.172c-.875 0-1.046-.11-1.046-.64v-6.641Zm0 0"/><path id="m" d="m5.25-1.516-.14-.062c-.407.64-.548.734-1.048.734h-2.64l1.86-1.937c.984-1.031 1.406-1.875 1.406-2.735 0-1.109-.891-1.968-2.047-1.968-.61 0-1.188.25-1.594.687-.344.375-.516.734-.703 1.516l.234.062c.438-1.093.844-1.437 1.594-1.437.937 0 1.562.625 1.562 1.562 0 .86-.5 1.89-1.437 2.875L.328-.125V0h4.313Zm0 0"/><path id="n" d="M1.688-3.656c.656 0 .906.031 1.171.125.688.25 1.125.875 1.125 1.64 0 .922-.625 1.641-1.453 1.641-.297 0-.515-.078-.922-.344-.343-.187-.53-.265-.718-.265-.25 0-.422.156-.422.39 0 .375.484.625 1.25.625.86 0 1.734-.281 2.25-.75a2.39 2.39 0 0 0 .812-1.828c0-.562-.172-1.078-.5-1.422-.218-.25-.437-.375-.922-.594.766-.515 1.047-.921 1.047-1.53 0-.891-.718-1.516-1.734-1.516-.547 0-1.031.187-1.438.547-.328.296-.5.593-.734 1.25l.156.046c.469-.812.953-1.171 1.656-1.171.72 0 1.22.484 1.22 1.187 0 .39-.173.797-.438 1.063-.344.343-.656.5-1.406.765Zm0 0"/><clipPath id="a"><path d="M140 39h249.664v262H140Zm0 0"/></clipPath></defs><path fill="red" fill-opacity=".3" d="m43.828 260.45 27.867-19.509a34 34 0 0 0-3.812-4.543ZM338.418 260.45l-8.805-32.856a34 34 0 0 0-5.57 2.027Zm0 0"/><path fill="none" stroke="red" stroke-miterlimit="10" stroke-width=".5985" d="M71.695 240.941a34 34 0 0 0-3.812-4.543M329.613 227.594a34 34 0 0 0-5.57 2.027"/><path fill="#00f" fill-opacity=".3" d="m43.828 260.45 20.461-5.778a21.3 21.3 0 0 0-3.043-6.414ZM307.293 144.281l-1.57 21.203a21.4 21.4 0 0 0 7.07-.664Zm0 0"/><path fill="none" stroke="#00f" stroke-miterlimit="10" stroke-width=".5985" d="M64.29 254.672a21.3 21.3 0 0 0-3.044-6.414M305.723 165.484a21.4 21.4 0 0 0 7.07-.664"/><path fill="#007f7f" fill-opacity=".3" d="m159.996 144.281-13.527 13.531a19.12 19.12 0 0 0 12.27 5.563ZM338.418 260.45l-8.086-17.34a19.13 19.13 0 0 0-9.422 9.628Zm0 0"/><path fill="none" stroke="#007f7f" stroke-miterlimit="10" stroke-width=".5985" d="M146.469 157.812a19.12 19.12 0 0 0 12.27 5.563M330.332 243.11a19.13 19.13 0 0 0-9.422 9.628"/><path fill="none" stroke="#000" stroke-linecap="round" stroke-linejoin="round" stroke-miterlimit="10" stroke-width="1.1955" d="M276.164 28.117 43.828 260.45h294.59Zm0 0"/><path fill="none" stroke="#000" stroke-linecap="round" stroke-miterlimit="10" stroke-width="1.1955" d="m43.828 260.45 113.762-79.653M338.418 260.45 157.59 180.796M159.996 144.281l-2.406 36.516M43.828 260.45l260.309-73.516M338.418 260.45l-34.281-73.516M307.293 144.281l-3.156 42.653"/><path fill="none" stroke="#00b200" stroke-dasharray="4.483245 2.9888250000000003" stroke-linecap="round" stroke-miterlimit="10" stroke-width="1.1955" d="M304.137 186.934 244.734 59.547M157.59 180.797l134.289-94.031"/><path fill="none" stroke="#00adef" stroke-dasharray="4.483245 2.9888250000000003" stroke-miterlimit="10" stroke-width="1.1955" d="M307.496 154.422c0-84.543-68.535-153.078-153.078-153.078-84.54 0-153.074 68.535-153.074 153.078 0 84.539 68.535 153.074 153.074 153.074 84.543 0 153.078-68.535 153.078-153.074Zm0 0"/><g clip-path="url(#a)"><path fill="none" stroke="#00adef" stroke-dasharray="4.483245 2.9888250000000003" stroke-miterlimit="10" stroke-width="1.1955" d="M383.61 169.895c0-62.551-50.708-113.258-113.262-113.258-62.551 0-113.262 50.707-113.262 113.258 0 62.554 50.71 113.261 113.262 113.261 62.554 0 113.261-50.707 113.261-113.261Zm0 0"/></g><path fill="none" stroke="#00b200" stroke-dasharray="4.483245 2.9888250000000003" stroke-miterlimit="10" stroke-width="1.1955" d="M347.79 206.84c0-86.524-70.142-156.664-156.665-156.664S34.461 120.316 34.461 206.84s70.14 156.664 156.664 156.664 156.664-70.14 156.664-156.664Zm0 0"/><path stroke="#000" stroke-miterlimit="10" stroke-width=".5985" d="M277.66 28.117a1.493 1.493 0 1 0-2.988 0c0 .824.668 1.492 1.492 1.492s1.496-.668 1.496-1.492ZM45.324 260.45c0-.825-.668-1.493-1.496-1.493-.824 0-1.492.668-1.492 1.492a1.494 1.494 0 1 0 2.988 0ZM339.914 260.45a1.495 1.495 0 1 0-2.99.006 1.495 1.495 0 0 0 2.99-.007ZM161.492 144.281a1.495 1.495 0 0 0-2.988 0c0 .828.668 1.496 1.492 1.496s1.496-.668 1.496-1.496ZM308.785 144.281c0-.824-.668-1.492-1.492-1.492a1.494 1.494 0 1 0 1.492 1.492ZM159.082 180.797c0-.828-.668-1.496-1.492-1.496s-1.496.668-1.496 1.496a1.495 1.495 0 0 0 2.988 0ZM305.633 186.934a1.495 1.495 0 0 0-2.988 0c0 .828.667 1.496 1.492 1.496.824 0 1.496-.668 1.496-1.496Zm0 0"/><path fill="#00b200" stroke="#004c00" stroke-miterlimit="10" stroke-width=".5985" d="M246.23 59.547a1.493 1.493 0 1 0-2.988 0c0 .824.668 1.492 1.492 1.492.825 0 1.496-.668 1.496-1.492ZM293.375 86.766a1.496 1.496 0 0 0-2.992 0 1.495 1.495 0 0 0 2.992 0Zm0 0"/><use xlink:href="#b" x="271.599" y="22.839"/><use xlink:href="#c" x="152.196" y="195.774"/><use xlink:href="#d" x="299.959" y="201.913"/><use xlink:href="#e" x="312.57" y="149.006"/><use xlink:href="#f" x="296.411" y="91.615"/><use xlink:href="#g" x="141.672" y="139.004"/><use xlink:href="#h" x="228.919" y="54.267"/><use xlink:href="#i" x="29.422" y="275.428"/><use xlink:href="#j" x="342.95" y="275.772"/><use xlink:href="#k" x="182.249" y="379.072" fill="#00b200"/><use xlink:href="#l" x="193.725" y="381.329" fill="#00b200"/><use xlink:href="#k" x="46.173" y="19.563" fill="#00adef"/><use xlink:href="#m" x="57.65" y="21.82" fill="#00adef"/><use xlink:href="#k" x="366.18" y="94.121" fill="#00adef"/><use xlink:href="#n" x="377.658" y="96.376" fill="#00adef"/></svg>