<svg xmlns="http://www.w3.org/2000/svg" xmlns:xlink="http://www.w3.org/1999/xlink" width="513.274" height="416.656" viewBox="0 0 384.955 312.492"><defs><path id="c" d="M8.422-.234c-.844-.078-.938-.203-1.125-1.297L5.89-9.984H5.5L1.172-2.516C-.016-.516-.172-.359-.766-.234V0h2.797v-.234c-.765-.078-.875-.157-.875-.532 0-.28.032-.421.297-.921l.844-1.688h3.297l.297 1.953c.015.14.03.266.03.39 0 .563-.218.704-1.171.798V0h3.672ZM2.609-3.906l2.25-3.89.657 3.89Zm0 0"/><path id="d" d="M6.016-9.75H1.938v.234c.937.094 1.156.204 1.156.641 0 .219-.063.563-.172.922l-1.828 6.61C.828-.485.719-.392-.125-.235V0h7.61l.859-2.672-.297-.094C7.53-1.687 7.125-1.203 6.469-.875c-.532.25-1.14.344-2.438.344-1.14 0-1.5-.125-1.5-.516 0-.11.063-.469.14-.75l1.845-6.61c.218-.765.609-1.046 1.5-1.109Zm0 0"/><path id="f" d="M10.781-9.75H7.47v.234c.172.016.343.047.406.047.36.031.5.125.5.281 0 .36-.812 1.172-2.14 2.094L3.952-5.516l.797-2.89c.219-.75.625-1.047 1.516-1.11v-.234H2.188v.234c.921.094 1.14.204 1.14.641 0 .219-.062.563-.156.922l-1.844 6.61C1.062-.454.984-.376.11-.235V0h3.704v-.234c-.938-.11-1.079-.203-1.079-.657 0-.156.032-.296.125-.593l.079-.313.937-3.406 1.797 3.11c.36.609.578 1.14.578 1.421 0 .219-.219.344-.687.39-.079 0-.25.016-.438.048V0h4.11v-.234c-.938-.094-1.032-.141-1.454-.844L5.188-5.594l4.484-3.39c.406-.313.75-.47 1.11-.532Zm0 0"/><path id="g" d="m6.984-6.984.61-2.985H7.25c-.219.313-.344.39-.672.39-.187 0-.344-.046-.687-.155-.328-.141-.813-.22-1.282-.22-1.546 0-2.656 1.032-2.656 2.5 0 .813.234 1.235 1.125 2.188.14.141.328.344.578.641.266.281.485.5.594.625.688.734.89 1.11.89 1.766C5.14-1.125 4.298-.25 3.22-.25c-1.25 0-2.188-1.062-2.188-2.484 0-.125.016-.235.032-.344L.766-3.11.25.219h.266c.109-.344.28-.485.578-.485.156 0 .39.063.765.188.688.25 1.094.344 1.563.344 1.719 0 3.016-1.297 3.016-2.985 0-.969-.344-1.547-1.688-2.906S3.266-7.203 3.266-7.937c0-.938.64-1.516 1.656-1.516.547 0 1.016.187 1.328.547.328.375.438.89.469 1.875Zm0 0"/><path id="h" d="M10.86-9.75H7.89v.234c.844.079 1.048.22 1.048.766 0 .172-.032.36-.141.656-.016.047-.031.11-.031.11L7.25-2.297 4.14-9.75H1.735v.234c.704.063 1.016.25 1.282.844L1.234-2.453C.672-.531.547-.36-.296-.234V0h2.952v-.234C1.891-.297 1.61-.47 1.61-.875c0-.203.047-.5.141-.812l1.703-6.297L6.891.219h.265l2.157-7.516c.546-1.922.609-2.016 1.546-2.219Zm0 0"/><path id="i" d="M1.36-9.516c.843.125.874.172 1.14.985l1.14 4.015-.906 3.172c-.25.813-.578 1.047-1.562 1.11V0h4.312v-.234a8 8 0 0 1-.546-.047c-.579-.031-.782-.188-.782-.563 0-.312.094-.75.453-1.922.047-.125.079-.234.094-.296l.438-1.516L8.406-8.61c.485-.594.594-.703 1.047-.907v-.234H6.625v.234c.188.016.344.032.406.047.438.047.625.156.625.422 0 .39-.687 1.375-2.234 3.172-.25.297-.344.422-.563.688-.187-.657-.234-.844-.468-1.641-.375-1.281-.532-1.922-.532-2.156 0-.344.172-.438 1.063-.532v-.234H1.359Zm0 0"/><path id="j" d="M9.453-9.75H1.516L.875-7.453l.281.062C1.938-9 2.422-9.266 4.703-9.234l-2.156 7.89C2.312-.547 1.953-.312.969-.234V0h4.328v-.234c-.25-.016-.469-.047-.563-.047-.593-.047-.78-.188-.78-.625 0-.203.046-.375.187-.89l2.078-7.438h.812c1.078 0 1.563.375 1.563 1.218 0 .188-.016.407-.047.672l.25.032Zm0 0"/><path id="k" d="M13.047-9.75h-2.5L5.53-2.39l-.828-7.36H2v.234c.75.047 1.11.204 1.11.547 0 .125-.063.344-.157.625-.031.047-.062.219-.125.438-.015.047-.031.11-.047.172L1.187-2.187C.734-.625.517-.328-.266-.234V0h2.954v-.234c-.766-.063-1.063-.25-1.063-.657 0-.156.063-.546.14-.796l1.766-6.47L4.437 0h.25l5.641-8.375-1.937 7.016c-.235.797-.532 1.015-1.5 1.125V0h4.078v-.234C9.953-.328 9.813-.422 9.813-.875c0-.266.03-.453.171-.922l1.829-6.61c.265-.905.343-.968 1.234-1.109Zm0 0"/><path id="l" d="M9.781-9.75h-3.11v.234c.735.094.923.188.923.532 0 .203-.094.375-.297.625L5.125-5.875 4.25-8.062c-.172-.391-.234-.641-.234-.844 0-.375.234-.5 1.062-.61v-.234H1.141v.234c.859.079 1.078.22 1.375.907l1.578 3.937c-.547.625-1.047 1.203-1.235 1.453C.781-.78.36-.406-.437-.234V0h3.203v-.234c-.72 0-.97-.141-.97-.516 0-.219.11-.469.313-.703l2.25-2.563 1 2.47c.11.265.172.5.172.718 0 .437-.156.516-1.14.594V0h4.078v-.234c-1.047-.125-1.172-.22-1.547-1.11L5.39-5.204l2.53-2.89c.766-.875 1.22-1.219 1.86-1.422Zm0 0"/><path id="m" d="M-.125 0h4.219c2.343 0 3.953-1.219 3.953-2.984 0-.563-.172-1.078-.5-1.407-.297-.343-.594-.53-1.375-.859 1.062-.25 1.484-.422 1.969-.844.422-.36.64-.86.64-1.468 0-1.422-1.062-2.188-2.984-2.188h-3.86v.234c.938.079 1.157.188 1.157.61 0 .234-.063.594-.172.953l-1.828 6.61C.828-.485.719-.392-.125-.235Zm3.688-4.937c.968 0 1.593.046 1.89.171.61.25.984.907.984 1.72 0 1.608-1.109 2.593-2.921 2.593-.625 0-.97-.219-.97-.625 0-.172.188-.89.532-2.094.188-.672.281-1.015.485-1.765m1.109-3.954c.094-.328.266-.421.86-.421 1.187 0 1.75.515 1.75 1.624 0 .844-.36 1.5-1 1.86-.516.297-1.235.406-2.579.406Zm0 0"/><path id="n" d="m9.734-6.953.563-2.969h-.313c-.125.25-.28.328-.578.328-.11 0-.297-.031-.61-.094-.671-.171-1.265-.265-1.75-.265-3.171 0-6.062 3-6.062 6.328 0 2.281 1.61 3.89 3.907 3.89 1.53 0 2.734-.656 4.078-2.218l-.266-.219C7.36-.844 6.5-.406 5.266-.406c-1.657 0-2.61-1.125-2.61-3.063 0-1.781.719-3.578 1.89-4.797.72-.734 1.657-1.14 2.641-1.14 1.375 0 2.141.797 2.282 2.422Zm0 0"/><path id="e" d="M2.797-5.25c.062-.14.094-.234.094-.344 0-.328-.282-.593-.625-.593-.313 0-.5.218-.578.5L.359-.86c0 .03-.03.156-.03.156 0 .125.28.203.374.203.063 0 .078-.031.14-.172Zm0 0"/><clipPath id="a"><path d="M0 0h325v312.492H0Zm0 0"/></clipPath><clipPath id="b"><path d="M140 43h244.957v261H140Zm0 0"/></clipPath></defs><path fill="none" stroke="#000" stroke-linecap="round" stroke-linejoin="round" stroke-miterlimit="10" stroke-width="1.1955" d="M276.164 31.766 43.828 264.102h294.59Zm0 0"/><path fill="none" stroke="#000" stroke-linecap="round" stroke-miterlimit="10" stroke-width="1.1955" d="m43.828 264.102 113.762-79.657M338.418 264.102l-34.281-73.516"/><path fill="none" stroke="#000" stroke-dasharray="4.483245 2.9888250000000003" stroke-miterlimit="10" stroke-width="1.1955" d="M332.574 121.129c0-54.637-44.293-98.93-98.93-98.93-54.636 0-98.93 44.293-98.93 98.93s44.294 98.926 98.93 98.926 98.93-44.29 98.93-98.926Zm0 0"/><path fill="none" stroke="#00b200" stroke-dasharray="4.483245 2.9888250000000003" stroke-linecap="round" stroke-miterlimit="10" stroke-width="1.1955" d="M304.137 190.586 225.75 22.48M157.59 184.445 319.156 71.316"/><g clip-path="url(#a)"><path fill="none" stroke="#00adef" stroke-dasharray="4.483245 2.9888250000000003" stroke-miterlimit="10" stroke-width="1.1955" d="M307.496 158.07c0-84.539-68.535-153.074-153.078-153.074-84.54 0-153.074 68.535-153.074 153.074 0 84.543 68.535 153.078 153.074 153.078 84.543 0 153.078-68.535 153.078-153.078Zm0 0"/></g><g clip-path="url(#b)"><path fill="none" stroke="#00adef" stroke-dasharray="4.483245 2.9888250000000003" stroke-miterlimit="10" stroke-width="1.1955" d="M383.61 173.547c0-62.555-50.708-113.262-113.262-113.262-62.551 0-113.262 50.707-113.262 113.262s50.71 113.262 113.262 113.262c62.554 0 113.261-50.707 113.261-113.262Zm0 0"/></g><path stroke="#000" stroke-miterlimit="10" stroke-width=".5985" d="M277.66 31.766a1.495 1.495 0 1 0-2.99.006 1.495 1.495 0 0 0 2.99-.006ZM45.324 264.102c0-.825-.668-1.497-1.496-1.497a1.495 1.495 0 1 0 1.496 1.497ZM339.914 264.102c0-.825-.672-1.497-1.496-1.497s-1.496.672-1.496 1.497c0 .824.672 1.496 1.496 1.496s1.496-.672 1.496-1.496ZM161.492 147.934c0-.825-.672-1.496-1.496-1.496a1.495 1.495 0 1 0 1.496 1.496ZM308.785 147.934a1.495 1.495 0 1 0-2.99-.002 1.495 1.495 0 0 0 2.99.002ZM159.082 184.445c0-.824-.668-1.492-1.492-1.492s-1.496.668-1.496 1.492c0 .825.672 1.496 1.496 1.496s1.492-.671 1.492-1.496ZM305.633 190.586c0-.824-.672-1.496-1.496-1.496a1.495 1.495 0 1 0 1.496 1.496Zm0 0"/><path fill="#00b200" stroke="#004c00" stroke-miterlimit="10" stroke-width=".5985" d="M246.23 63.195a1.495 1.495 0 1 0-2.99.007 1.495 1.495 0 0 0 2.99-.007ZM293.375 90.414a1.495 1.495 0 1 0-2.99.006 1.495 1.495 0 0 0 2.99-.006ZM320.648 71.316c0-.824-.668-1.496-1.492-1.496s-1.496.672-1.496 1.496c0 .825.672 1.497 1.496 1.497s1.492-.672 1.492-1.497ZM227.242 22.48c0-.824-.668-1.492-1.492-1.492a1.495 1.495 0 1 0 0 2.989c.824 0 1.492-.668 1.492-1.497ZM145.777 163.648c0-.824-.668-1.496-1.496-1.496a1.495 1.495 0 1 0 1.496 1.496ZM316.645 177.258a1.495 1.495 0 1 0-2.991.006 1.495 1.495 0 0 0 2.99-.006Zm0 0"/><use xlink:href="#c" x="271.599" y="26.488"/><use xlink:href="#d" x="219.679" y="17.203"/><use xlink:href="#e" x="228.033" y="11.78"/><use xlink:href="#f" x="152.196" y="199.423"/><use xlink:href="#d" x="299.959" y="205.563"/><use xlink:href="#g" x="131.412" y="168.543"/><use xlink:href="#h" x="312.57" y="152.656"/><use xlink:href="#i" x="296.411" y="95.265"/><use xlink:href="#j" x="320.427" y="182.107"/><use xlink:href="#k" x="141.672" y="142.655"/><use xlink:href="#l" x="228.919" y="57.918"/><use xlink:href="#f" x="324.435" y="66.037"/><use xlink:href="#e" x="335.223" y="60.614"/><use xlink:href="#m" x="29.422" y="279.078"/><use xlink:href="#n" x="342.95" y="279.421"/></svg>