<svg xmlns="http://www.w3.org/2000/svg" xmlns:xlink="http://www.w3.org/1999/xlink" width="534.519" height="361.703" viewBox="0 0 400.889 271.277"><defs><path id="b" d="M.906-6.344c.563.078.594.11.766.657l.766 2.671-.61 2.125c-.172.532-.39.688-1.047.735V0h2.875v-.156c-.156-.016-.297-.016-.36-.031-.39-.016-.53-.125-.53-.375 0-.204.078-.5.312-1.282.031-.093.047-.156.063-.203l.28-1L5.61-5.734c.329-.407.407-.47.704-.61v-.172H4.422v.172c.125 0 .234.016.266.032.296.015.421.109.421.265 0 .281-.453.922-1.484 2.125-.172.203-.234.281-.39.469-.11-.438-.141-.578-.297-1.11-.25-.843-.36-1.28-.36-1.421 0-.25.11-.313.719-.36v-.172H.907Zm0 0"/><path id="c" d="m6.5-4.64.375-1.985h-.219c-.078.172-.172.219-.375.219a2 2 0 0 1-.406-.063c-.453-.11-.844-.172-1.172-.172-2.125 0-4.047 2-4.047 4.22 0 1.53 1.078 2.593 2.61 2.593 1.015 0 1.812-.438 2.718-1.484l-.171-.141c-.891.89-1.47 1.187-2.297 1.187-1.11 0-1.735-.765-1.735-2.046 0-1.188.469-2.391 1.25-3.204.485-.484 1.11-.765 1.766-.765.922 0 1.422.547 1.516 1.61Zm0 0"/><path id="d" d="M-.078 0h2.437v-.156c-.578-.078-.687-.14-.687-.406 0-.188.016-.313.11-.641L3.015-5.61c.172-.578.25-.641.812-.735v-.172H1.36v.172c.579.063.704.14.704.422 0 .14-.032.375-.11.625L.734-.89c-.187.579-.25.625-.812.735Zm0 0"/><path id="e" d="M7.25-6.516H5.266v.172c.562.047.703.14.703.5 0 .125-.032.235-.094.438-.016.031-.016.078-.016.078L4.83-1.531 2.765-6.516h-1.61v.172c.469.032.672.157.86.547L.828-1.64C.453-.359.375-.234-.203-.156V0H1.78v-.156c-.515-.047-.703-.156-.703-.438 0-.125.031-.328.094-.531l1.125-4.203L4.594.156h.187l1.422-5.015c.375-1.297.422-1.344 1.047-1.485Zm0 0"/><path id="f" d="M1.297-6.344c.61.047.766.14.766.407 0 .14-.032.39-.11.64L.734-.89c-.187.579-.25.625-.812.735V0h2.516c1.171 0 2.234-.312 3-.875.968-.703 1.546-1.797 1.546-2.953 0-1.64-1.14-2.688-2.921-2.688H1.297Zm1.828.422c.063-.219.203-.281.61-.281.562 0 1.062.125 1.374.36.5.359.766.984.766 1.78 0 1.079-.422 2.188-1.094 2.86-.593.61-1.406.906-2.437.906-.453 0-.656-.11-.656-.375 0-.125.062-.344.218-.937Zm0 0"/><path id="g" d="M4.89-6.516H2.36v.172c.624.047.765.14.765.407 0 .14-.031.359-.11.64L1.704-.672c-.11.39-.25.547-.484.547-.235 0-.344-.14-.344-.406v-.235a.49.49 0 0 0-.469-.468c-.281 0-.468.218-.468.53 0 .532.468.876 1.171.876.5 0 .954-.188 1.266-.563.266-.312.469-.765.672-1.515L4.078-5.61c.172-.594.25-.657.813-.735Zm0 0"/><path id="h" d="M5.625-.156c-.578-.047-.625-.14-.766-.86l-.937-5.64h-.25L.782-1.672C-.017-.344-.11-.234-.517-.156V0H1.36v-.156C.844-.203.766-.266.766-.516c0-.187.03-.265.203-.609L1.53-2.25h2.203l.188 1.297c.015.094.031.187.031.265 0 .375-.14.47-.781.532V0h2.453ZM1.75-2.61l1.484-2.594.438 2.594Zm0 0"/><path id="i" d="M6.313-6.516H1.359v.172c.625.047.782.14.782.407 0 .109-.063.453-.11.64L.797-.89c-.172.563-.25.625-.813.735V0h5.063l.61-1.61-.157-.077c-.469.625-.719.89-1.156 1.093-.36.172-1.047.266-1.797.266-.547 0-.797-.094-.797-.344 0-.11.11-.578.36-1.453.14-.437.218-.766.328-1.14.343.015.656.03.765.03.39-.015.672.047.781.141.047.047.079.14.079.313 0 .172-.032.297-.079.515l.204.047.671-2.312-.171-.032c-.375.844-.47.907-1.375.938-.126 0-.438.016-.797.031l.672-2.328c.046-.219.156-.266.718-.266 1.563 0 1.922.141 1.922.735 0 .125-.016.281-.031.453l.219.016Zm0 0"/><path id="j" d="M-.078 0h2.812c1.563 0 2.641-.812 2.641-2 0-.36-.125-.719-.344-.937-.203-.22-.39-.344-.922-.563.72-.172 1-.281 1.329-.562q.42-.375.421-.985c0-.937-.703-1.469-1.984-1.469H1.297v.172c.61.047.766.125.766.407 0 .14-.032.39-.11.64L.734-.89c-.187.579-.25.625-.812.735Zm2.453-3.297c.64 0 1.063.031 1.266.11.406.171.656.609.656 1.156 0 1.078-.734 1.734-1.953 1.734-.422 0-.64-.156-.64-.422 0-.125.124-.593.343-1.39.14-.453.203-.688.328-1.188m.75-2.64c.063-.22.172-.266.563-.266.796 0 1.171.328 1.171 1.062 0 .579-.25 1.016-.671 1.25-.344.204-.813.266-1.72.266Zm0 0"/><path id="k" d="M8.703-6.516H7.031L3.688-1.594 3.14-6.516H1.328v.172c.5.032.75.14.75.36 0 .078-.047.234-.11.406a3 3 0 0 0-.077.297.3.3 0 0 0-.032.125L.797-1.453C.484-.422.344-.22-.172-.156V0h1.969v-.156c-.516-.047-.703-.156-.703-.438 0-.11.031-.36.078-.531l1.187-4.312L2.953 0h.172l3.766-5.594L5.609-.906c-.171.531-.359.672-1.015.75V0h2.718v-.156c-.671-.063-.765-.125-.765-.438 0-.156.016-.297.11-.61L7.89-5.608c.172-.594.218-.657.812-.735Zm0 0"/><path id="l" d="M4.719-6.64c-.828 0-1.735.406-2.532 1.124-1 .938-1.593 2.141-1.593 3.313C.594-.813 1.5.172 2.766.172c2.078 0 4.093-2.078 4.203-4.344.062-1.406-.907-2.469-2.25-2.469m-.078.327c.78 0 1.28.579 1.28 1.516 0 1.078-.468 2.531-1.109 3.469C4.25-.531 3.641-.156 2.938-.156c-.828 0-1.296-.594-1.296-1.672 0-.938.5-2.422 1.093-3.297.563-.812 1.172-1.187 1.907-1.187m0 0"/><path id="m" d="M2.266-1.219C2.187-1.109 2.094-1 2-.89c-.312.422-.5.579-.687.579-.094 0-.141-.079-.141-.188 0-.062.031-.187.078-.39 0-.032.016-.079.031-.094l1.5-5.782-.047-.046c-.593.14-.968.203-1.562.265v.172c.484 0 .687.063.687.219a.8.8 0 0 1-.046.187L.452-.703c-.031.11-.047.203-.047.25 0 .36.156.562.485.562.515 0 .859-.28 1.515-1.25Zm0 0"/><clipPath id="a"><path d="M31 43h239v228.277H31Zm0 0"/></clipPath></defs><path fill="#fff" d="M0 0h400.89v271.277H0Zm0 0"/><path fill="none" stroke="#000" stroke-miterlimit="10" stroke-width=".797" d="M240.145 123.426c0-62.621-50.762-113.383-113.383-113.383S13.379 60.805 13.379 123.426 64.14 236.809 126.762 236.809s113.383-50.762 113.383-113.383Zm0 0"/><g clip-path="url(#a)"><path fill="none" stroke="#000" stroke-miterlimit="10" stroke-width=".797" d="M258.27 162.715c0-59.465-48.204-107.668-107.668-107.668-59.461 0-107.664 48.203-107.664 107.668 0 59.46 48.203 107.664 107.664 107.664 59.464 0 107.668-48.203 107.668-107.664Zm0 0"/></g><path fill="none" stroke="#000" stroke-linecap="round" stroke-linejoin="round" stroke-miterlimit="10" stroke-width=".797" d="M78.844 20.664 53.879 210.285l72.883 26.528Zm0 0"/><path fill="none" stroke="#000" stroke-linecap="round" stroke-miterlimit="10" stroke-width=".797" d="M53.879 210.285 167.262 56.22M53.879 210.285 237.46 98.887M86.266 190.633l80.996-134.414M.898 93.102l286.727-63.567"/><path fill="none" stroke="#00b200" stroke-dasharray="2.98883 1.99255" stroke-linecap="round" stroke-miterlimit="10" stroke-width=".797" d="M237.46 98.887 78.845 20.664M237.46 98.887 126.763 236.813M237.46 98.887 90.5 73.238"/><path fill="none" stroke="#00f" stroke-dasharray="2.98883 1.99255" stroke-linecap="round" stroke-miterlimit="10" stroke-width=".797" d="m237.46 98.887 151.2-91.75M269.703 33.508 388.66 7.137"/><path fill="none" stroke="red" stroke-dasharray="2.98883 1.99255" stroke-linecap="round" stroke-miterlimit="10" stroke-width=".797" d="m237.46 98.887-70.198-42.668M237.46 98.887 16.064 147.969M167.262 56.219l-151.2 91.75M86.266 190.633l-70.203-42.664"/><path fill="none" stroke="#ec008c" stroke-dasharray="2.98883 1.99255" stroke-linecap="round" stroke-miterlimit="10" stroke-width=".797" d="M53.879 210.285 90.5 73.238M86.266 190.633l16.539-61.895"/><path stroke="#000" stroke-miterlimit="10" stroke-width=".399" d="M79.84 20.664a.995.995 0 1 0-1.99-.002.995.995 0 0 0 1.99.002ZM54.875 210.285a1 1 0 0 0-.996-.996.995.995 0 1 0 .996.996ZM127.758 236.813a1 1 0 0 0-.996-.997.995.995 0 1 0 .996.996ZM238.457 98.887a.995.995 0 1 0-1.99-.002.995.995 0 0 0 1.99.002ZM91.496 73.238a.995.995 0 1 0-1.99-.001.995.995 0 0 0 1.99.001ZM87.262 190.633a1 1 0 0 0-.996-.996.998.998 0 0 0 0 1.996c.55 0 .996-.45.996-1ZM127.758 123.426a.995.995 0 1 0-1.99-.002.995.995 0 0 0 1.99.002ZM168.258 56.219a.995.995 0 1 0-1.99-.002.995.995 0 0 0 1.99.002Zm0 0"/><path fill="#0000b2" stroke="#00004c" stroke-miterlimit="10" stroke-width=".399" d="M389.656 7.137a.995.995 0 1 0-1.99-.002.995.995 0 0 0 1.99.002Zm0 0"/><path fill="#b20000" stroke="#4c0000" stroke-miterlimit="10" stroke-width=".399" d="M17.059 147.969a.995.995 0 1 0-1.99-.002.995.995 0 0 0 1.99.002ZM103.8 128.738a.995.995 0 1 0-1.99-.001.995.995 0 0 0 1.99.001Zm0 0"/><use xlink:href="#b" x="163.61" y="52.7"/><use xlink:href="#c" x="123.082" y="247.027"/><use xlink:href="#d" x="84.352" y="200.619"/><use xlink:href="#e" x="5.302" y="151.116"/><use xlink:href="#f" x="240.981" y="102.119"/><use xlink:href="#g" x="392.177" y="10.286"/><use xlink:href="#h" x="69.237" y="17.145"/><use xlink:href="#i" x="80.165" y="69.718"/><use xlink:href="#j" x="44.273" y="220.271"/><use xlink:href="#k" x="90.587" y="138.724"/><use xlink:href="#l" x="130.283" y="133.641"/><use xlink:href="#m" x="4.636" y="88.28"/></svg>