<svg xmlns="http://www.w3.org/2000/svg" xmlns:xlink="http://www.w3.org/1999/xlink" width="801.778" height="542.554" viewBox="0 0 601.333 406.916"><defs><path id="b" d="M1.36-9.516c.843.125.874.172 1.14.985l1.14 4.015-.906 3.172c-.25.813-.578 1.047-1.562 1.11V0h4.312v-.234a8 8 0 0 1-.546-.047c-.579-.031-.782-.188-.782-.563 0-.312.094-.75.453-1.922.047-.125.079-.234.094-.296l.438-1.516L8.406-8.61c.485-.594.594-.703 1.047-.907v-.234H6.625v.234c.188.016.344.032.406.047.438.047.625.156.625.422 0 .39-.687 1.375-2.234 3.172-.25.297-.344.422-.563.688-.187-.657-.234-.844-.468-1.641-.375-1.281-.532-1.922-.532-2.156 0-.344.172-.438 1.063-.532v-.234H1.359Zm0 0"/><path id="c" d="m9.734-6.953.563-2.969h-.313c-.125.25-.28.328-.578.328-.11 0-.297-.031-.61-.094-.671-.171-1.265-.265-1.75-.265-3.171 0-6.062 3-6.062 6.328 0 2.281 1.61 3.89 3.907 3.89 1.53 0 2.734-.656 4.078-2.218l-.266-.219C7.36-.844 6.5-.406 5.266-.406c-1.657 0-2.61-1.125-2.61-3.063 0-1.781.719-3.578 1.89-4.797.72-.734 1.657-1.14 2.641-1.14 1.375 0 2.141.797 2.282 2.422Zm0 0"/><path id="d" d="M-.125 0h3.656v-.234c-.86-.11-1.015-.203-1.015-.61 0-.297.03-.468.156-.953l1.844-6.61c.265-.874.375-.952 1.218-1.109v-.234H2.047v.234c.86.11 1.047.22 1.047.641 0 .219-.063.563-.172.922l-1.828 6.61C.828-.485.719-.392-.125-.235Zm0 0"/><path id="e" d="M13.047-9.75h-2.5L5.53-2.39l-.828-7.36H2v.234c.75.047 1.11.204 1.11.547 0 .125-.063.344-.157.625-.031.047-.062.219-.125.438-.015.047-.031.11-.047.172L1.187-2.187C.734-.625.517-.328-.266-.234V0h2.954v-.234c-.766-.063-1.063-.25-1.063-.657 0-.156.063-.546.14-.796l1.766-6.47L4.437 0h.25l5.641-8.375-1.937 7.016c-.235.797-.532 1.015-1.5 1.125V0h4.078v-.234C9.953-.328 9.813-.422 9.813-.875c0-.266.03-.453.171-.922l1.829-6.61c.265-.905.343-.968 1.234-1.109Zm0 0"/><path id="f" d="M1.938-9.516c.937.094 1.156.204 1.156.61 0 .234-.063.594-.172.953l-1.828 6.61C.828-.485.719-.392-.125-.235V0h3.781C5.406 0 7-.469 8.156-1.297 9.61-2.359 10.453-4 10.453-5.734c0-2.453-1.703-4.016-4.36-4.016H1.939Zm2.734.641c.094-.328.312-.437.922-.437.843 0 1.593.203 2.062.562.735.531 1.14 1.469 1.14 2.656 0 1.61-.624 3.282-1.64 4.297-.875.906-2.093 1.344-3.64 1.344-.688 0-.97-.156-.97-.547 0-.187.063-.531.329-1.422Zm0 0"/><path id="g" d="M7.328-9.75H3.547v.234c.937.094 1.14.204 1.14.61 0 .219-.062.547-.171.953L2.546-1c-.155.578-.358.813-.718.813s-.531-.204-.531-.61c0-.062 0-.125.016-.219v-.14c0-.375-.344-.703-.72-.703-.405 0-.687.328-.687.812 0 .781.703 1.313 1.75 1.313.766 0 1.438-.297 1.907-.844.39-.485.687-1.156 1.015-2.297L6.11-8.406c.266-.906.375-.985 1.22-1.11Zm0 0"/><path id="h" d="M8.422-.234c-.844-.078-.938-.203-1.125-1.297L5.89-9.984H5.5L1.172-2.516C-.016-.516-.172-.359-.766-.234V0h2.797v-.234c-.765-.078-.875-.157-.875-.532 0-.28.032-.421.297-.921l.844-1.688h3.297l.297 1.953c.015.14.03.266.03.39 0 .563-.218.704-1.171.798V0h3.672ZM2.609-3.906l2.25-3.89.657 3.89Zm0 0"/><path id="i" d="M9.469-9.75H2.047v.234c.922.094 1.156.204 1.156.61 0 .172-.094.687-.172.953l-1.844 6.61C.938-.5.829-.392-.016-.235V0h7.579l.921-2.422-.234-.125c-.703.969-1.094 1.36-1.734 1.656-.563.25-1.578.391-2.688.391-.844 0-1.203-.14-1.203-.5 0-.172.172-.86.547-2.187.187-.657.328-1.141.469-1.72.53.032.984.048 1.172.048.578-.016 1 .078 1.156.234.078.063.11.203.11.453 0 .266-.032.453-.11.781l.312.079 1.016-3.47-.281-.062c-.563 1.266-.703 1.36-2.063 1.422-.172 0-.656.016-1.172.031l.985-3.484c.093-.328.25-.39 1.093-.39 2.344 0 2.86.203 2.86 1.093 0 .188-.016.422-.031.672L9-7.469Zm0 0"/><path id="j" d="M-.125 0h4.219c2.343 0 3.953-1.219 3.953-2.984 0-.563-.172-1.078-.5-1.407-.297-.343-.594-.53-1.375-.859 1.062-.25 1.484-.422 1.969-.844.422-.36.64-.86.64-1.468 0-1.422-1.062-2.188-2.984-2.188h-3.86v.234c.938.079 1.157.188 1.157.61 0 .234-.063.594-.172.953l-1.828 6.61C.828-.485.719-.392-.125-.235Zm3.688-4.937c.968 0 1.593.046 1.89.171.61.25.984.907.984 1.72 0 1.608-1.109 2.593-2.921 2.593-.625 0-.97-.219-.97-.625 0-.172.188-.89.532-2.094.188-.672.281-1.015.485-1.765m1.109-3.954c.094-.328.266-.421.86-.421 1.187 0 1.75.515 1.75 1.624 0 .844-.36 1.5-1 1.86-.516.297-1.235.406-2.579.406Zm0 0"/><path id="k" d="M7.078-9.953c-1.25 0-2.594.61-3.797 1.687-1.5 1.391-2.39 3.22-2.39 4.97C.89-1.204 2.25.265 4.156.265c3.11 0 6.125-3.141 6.282-6.516.109-2.094-1.36-3.703-3.36-3.703m-.125.5c1.172 0 1.922.86 1.922 2.265 0 1.61-.703 3.797-1.672 5.204C6.375-.812 5.453-.22 4.406-.22c-1.25 0-1.937-.922-1.937-2.531 0-1.406.75-3.625 1.64-4.922.829-1.219 1.75-1.781 2.844-1.781m0 0"/><path id="l" d="M3.406-1.844c-.14.172-.265.328-.406.516-.469.625-.766.844-1.031.844-.14 0-.219-.094-.219-.266 0-.094.047-.281.11-.578.015-.047.03-.125.046-.156l2.266-8.641-.078-.078c-.875.187-1.453.297-2.328.406v.235c.718 0 1.015.109 1.015.343a.9.9 0 0 1-.062.266L.672-1.063a2 2 0 0 0-.078.391c0 .531.25.844.734.844.781 0 1.297-.438 2.266-1.875Zm0 0"/><clipPath id="a"><path d="M47 65h358v341.914H47Zm0 0"/></clipPath></defs><path fill="#fff" d="M0 0h601.332v406.914H0Zm0 0"/><path fill="none" stroke="#000" stroke-miterlimit="10" stroke-width="1.1955" d="M360.219 185.14c0-93.93-76.145-170.074-170.074-170.074S20.07 91.211 20.07 185.141s76.145 170.074 170.075 170.074S360.219 279.07 360.219 185.14Zm0 0"/><g clip-path="url(#a)"><path fill="none" stroke="#000" stroke-miterlimit="10" stroke-width="1.1955" d="M387.402 244.07c0-89.191-72.304-161.496-161.496-161.496-89.195 0-161.5 72.305-161.5 161.496 0 89.196 72.305 161.5 161.5 161.5 89.192 0 161.496-72.304 161.496-161.5Zm0 0"/></g><path fill="none" stroke="#000" stroke-linecap="round" stroke-linejoin="round" stroke-miterlimit="10" stroke-width="1.1955" d="M118.266 30.996 80.82 315.43l109.325 39.793Zm0 0"/><path fill="none" stroke="#000" stroke-linecap="round" stroke-miterlimit="10" stroke-width="1.1955" d="M80.82 315.43 250.89 84.328M80.82 315.43l275.375-167.102M129.398 285.953 250.891 84.328M1.344 139.652l430.094-95.347"/><path fill="none" stroke="#00b200" stroke-dasharray="4.483245 2.9888250000000003" stroke-linecap="round" stroke-miterlimit="10" stroke-width="1.1955" d="M356.195 148.328 118.265 30.996M356.195 148.328l-166.05 206.895M356.195 148.328 135.75 109.855"/><path fill="none" stroke="#00f" stroke-dasharray="4.483245 2.9888250000000003" stroke-linecap="round" stroke-miterlimit="10" stroke-width="1.1955" d="M356.195 148.328 582.992 10.703M404.555 50.262l178.437-39.559"/><path fill="none" stroke="red" stroke-dasharray="4.483245 2.9888250000000003" stroke-linecap="round" stroke-miterlimit="10" stroke-width="1.1955" d="M356.195 148.328 154.207 193.11"/><path fill="none" stroke="#ec008c" stroke-dasharray="4.483245 2.9888250000000003" stroke-linecap="round" stroke-miterlimit="10" stroke-width="1.1955" d="m80.82 315.43 54.93-205.575M129.398 285.953l24.809-92.844"/><path stroke="#000" stroke-miterlimit="10" stroke-width=".5985" d="M119.758 30.996c0-.828-.668-1.496-1.492-1.496-.825 0-1.496.668-1.496 1.496a1.495 1.495 0 0 0 2.988 0ZM82.312 315.43c0-.825-.667-1.492-1.492-1.492-.828 0-1.496.667-1.496 1.492 0 .824.668 1.496 1.496 1.496.825 0 1.492-.672 1.492-1.496ZM191.64 355.223a1.496 1.496 0 0 0-2.992 0 1.495 1.495 0 0 0 2.993 0ZM357.687 148.328c0-.824-.667-1.492-1.492-1.492-.828 0-1.496.668-1.496 1.492s.668 1.496 1.496 1.496c.825 0 1.492-.672 1.492-1.496ZM137.242 109.855a1.495 1.495 0 1 0-2.99 0 1.495 1.495 0 0 0 2.99 0ZM130.89 285.953a1.494 1.494 0 1 0-2.99-.005 1.494 1.494 0 0 0 2.99.005ZM191.64 185.14c0-.824-.671-1.495-1.495-1.495s-1.497.671-1.497 1.496c0 .824.672 1.496 1.497 1.496.824 0 1.496-.672 1.496-1.496ZM252.387 84.328c0-.824-.668-1.492-1.496-1.492-.825 0-1.493.668-1.493 1.492a1.495 1.495 0 1 0 2.989 0Zm0 0"/><path fill="#0000b2" stroke="#00004c" stroke-miterlimit="10" stroke-width=".5985" d="M584.484 10.703c0-.824-.668-1.492-1.492-1.492a1.494 1.494 0 1 0 1.492 1.492Zm0 0"/><path fill="#b20000" stroke="#4c0000" stroke-miterlimit="10" stroke-width=".5985" d="M155.7 193.11a1.494 1.494 0 1 0-2.99-.005 1.494 1.494 0 0 0 2.99.004Zm0 0"/><use xlink:href="#b" x="245.415" y="79.05"/><use xlink:href="#c" x="184.623" y="370.541"/><use xlink:href="#d" x="126.528" y="300.928"/><use xlink:href="#e" x="135.881" y="197.957"/><use xlink:href="#f" x="361.471" y="153.179"/><use xlink:href="#g" x="588.265" y="15.429"/><use xlink:href="#h" x="103.856" y="25.718"/><use xlink:href="#i" x="120.248" y="104.577"/><use xlink:href="#j" x="66.409" y="330.406"/><use xlink:href="#k" x="195.424" y="200.462"/><use xlink:href="#l" x="6.954" y="132.42"/></svg>