<svg xmlns="http://www.w3.org/2000/svg" xmlns:xlink="http://www.w3.org/1999/xlink" width="577.042" height="681.1" viewBox="0 0 432.781 510.825"><defs><path id="c" d="M9.047-9.75h-7.25l-.688 2.172.282.078c.312-.656.484-.906.78-1.156.423-.36 1.22-.563 2.345-.563h2.547L-.095-.203V0h7.547l.813-2.516-.282-.03c-.484.952-.75 1.312-1.265 1.593-.5.297-1.25.422-2.469.422H1.844l7.203-9.016Zm0 0"/><path id="d" d="M1.36-9.516c.843.125.874.172 1.14.985l1.14 4.015-.906 3.172c-.25.813-.578 1.047-1.562 1.11V0h4.312v-.234a8 8 0 0 1-.546-.047c-.579-.031-.782-.188-.782-.563 0-.312.094-.75.453-1.922.047-.125.079-.234.094-.296l.438-1.516L8.406-8.61c.485-.594.594-.703 1.047-.907v-.234H6.625v.234c.188.016.344.032.406.047.438.047.625.156.625.422 0 .39-.687 1.375-2.234 3.172-.25.297-.344.422-.563.688-.187-.657-.234-.844-.468-1.641-.375-1.281-.532-1.922-.532-2.156 0-.344.172-.438 1.063-.532v-.234H1.359Zm0 0"/><path id="e" d="m9.734-6.953.563-2.969h-.313c-.125.25-.28.328-.578.328-.11 0-.297-.031-.61-.094-.671-.171-1.265-.265-1.75-.265-3.171 0-6.062 3-6.062 6.328 0 2.281 1.61 3.89 3.907 3.89 1.53 0 2.734-.656 4.078-2.218l-.266-.219C7.36-.844 6.5-.406 5.266-.406c-1.657 0-2.61-1.125-2.61-3.063 0-1.781.719-3.578 1.89-4.797.72-.734 1.657-1.14 2.641-1.14 1.375 0 2.141.797 2.282 2.422Zm0 0"/><path id="f" d="M-.125 0h3.656v-.234c-.86-.11-1.015-.203-1.015-.61 0-.297.03-.468.156-.953l1.844-6.61c.265-.874.375-.952 1.218-1.109v-.234H2.047v.234c.86.11 1.047.22 1.047.641 0 .219-.063.563-.172.922l-1.828 6.61C.828-.485.719-.392-.125-.235Zm0 0"/><path id="g" d="M1.938-9.516c.937.094 1.156.204 1.156.61 0 .234-.063.594-.172.953l-1.828 6.61C.828-.485.719-.392-.125-.235V0h3.781C5.406 0 7-.469 8.156-1.297 9.61-2.359 10.453-4 10.453-5.734c0-2.453-1.703-4.016-4.36-4.016H1.939Zm2.734.641c.094-.328.312-.437.922-.437.843 0 1.593.203 2.062.562.735.531 1.14 1.469 1.14 2.656 0 1.61-.624 3.282-1.64 4.297-.875.906-2.093 1.344-3.64 1.344-.688 0-.97-.156-.97-.547 0-.187.063-.531.329-1.422Zm0 0"/><path id="h" d="M8.422-.234c-.844-.078-.938-.203-1.125-1.297L5.89-9.984H5.5L1.172-2.516C-.016-.516-.172-.359-.766-.234V0h2.797v-.234c-.765-.078-.875-.157-.875-.532 0-.28.032-.421.297-.921l.844-1.688h3.297l.297 1.953c.015.14.03.266.03.39 0 .563-.218.704-1.171.798V0h3.672ZM2.609-3.906l2.25-3.89.657 3.89Zm0 0"/><path id="i" d="M9.469-9.75H2.047v.234c.922.094 1.156.204 1.156.61 0 .172-.094.687-.172.953l-1.844 6.61C.938-.5.829-.392-.016-.235V0h7.579l.921-2.422-.234-.125c-.703.969-1.094 1.36-1.734 1.656-.563.25-1.578.391-2.688.391-.844 0-1.203-.14-1.203-.5 0-.172.172-.86.547-2.187.187-.657.328-1.141.469-1.72.53.032.984.048 1.172.048.578-.016 1 .078 1.156.234.078.063.11.203.11.453 0 .266-.032.453-.11.781l.312.079 1.016-3.47-.281-.062c-.563 1.266-.703 1.36-2.063 1.422-.172 0-.656.016-1.172.031l.985-3.484c.093-.328.25-.39 1.093-.39 2.344 0 2.86.203 2.86 1.093 0 .188-.016.422-.031.672L9-7.469Zm0 0"/><path id="j" d="M-.125 0h4.219c2.343 0 3.953-1.219 3.953-2.984 0-.563-.172-1.078-.5-1.407-.297-.343-.594-.53-1.375-.859 1.062-.25 1.484-.422 1.969-.844.422-.36.64-.86.64-1.468 0-1.422-1.062-2.188-2.984-2.188h-3.86v.234c.938.079 1.157.188 1.157.61 0 .234-.063.594-.172.953l-1.828 6.61C.828-.485.719-.392-.125-.235Zm3.688-4.937c.968 0 1.593.046 1.89.171.61.25.984.907.984 1.72 0 1.608-1.109 2.593-2.921 2.593-.625 0-.97-.219-.97-.625 0-.172.188-.89.532-2.094.188-.672.281-1.015.485-1.765m1.109-3.954c.094-.328.266-.421.86-.421 1.187 0 1.75.515 1.75 1.624 0 .844-.36 1.5-1 1.86-.516.297-1.235.406-2.579.406Zm0 0"/><path id="k" d="M7.078-9.953c-1.25 0-2.594.61-3.797 1.687-1.5 1.391-2.39 3.22-2.39 4.97C.89-1.204 2.25.265 4.156.265c3.11 0 6.125-3.141 6.282-6.516.109-2.094-1.36-3.703-3.36-3.703m-.125.5c1.172 0 1.922.86 1.922 2.265 0 1.61-.703 3.797-1.672 5.204C6.375-.812 5.453-.22 4.406-.22c-1.25 0-1.937-.922-1.937-2.531 0-1.406.75-3.625 1.64-4.922.829-1.219 1.75-1.781 2.844-1.781m0 0"/><path id="l" d="M9.781-9.75h-3.11v.234c.735.094.923.188.923.532 0 .203-.094.375-.297.625L5.125-5.875 4.25-8.062c-.172-.391-.234-.641-.234-.844 0-.375.234-.5 1.062-.61v-.234H1.141v.234c.859.079 1.078.22 1.375.907l1.578 3.937c-.547.625-1.047 1.203-1.235 1.453C.781-.78.36-.406-.437-.234V0h3.203v-.234c-.72 0-.97-.141-.97-.516 0-.219.11-.469.313-.703l2.25-2.563 1 2.47c.11.265.172.5.172.718 0 .437-.156.516-1.14.594V0h4.078v-.234c-1.047-.125-1.172-.22-1.547-1.11L5.39-5.204l2.53-2.89c.766-.875 1.22-1.219 1.86-1.422Zm0 0"/><path id="m" d="M3.406-1.844c-.14.172-.265.328-.406.516-.469.625-.766.844-1.031.844-.14 0-.219-.094-.219-.266 0-.094.047-.281.11-.578.015-.047.03-.125.046-.156l2.266-8.641-.078-.078c-.875.187-1.453.297-2.328.406v.235c.718 0 1.015.109 1.015.343a.9.9 0 0 1-.062.266L.672-1.063a2 2 0 0 0-.078.391c0 .531.25.844.734.844.781 0 1.297-.438 2.266-1.875Zm0 0"/><clipPath id="a"><path d="M47 169h358v341.824H47Zm0 0"/></clipPath><clipPath id="b"><path d="M0 131h432.781v130H0Zm0 0"/></clipPath></defs><path fill="#fff" d="M0 0h432.781v510.824H0Zm0 0"/><path fill="none" stroke="#000" stroke-miterlimit="10" stroke-width="1.1955" d="M360.219 289.05c0-93.933-76.145-170.073-170.074-170.073S20.07 195.117 20.07 289.05c0 93.93 76.145 170.074 170.075 170.074s170.074-76.145 170.074-170.074Zm0 0"/><path fill="none" stroke="#000" stroke-miterlimit="10" stroke-width="1.1955" d="M404.602 144.54c0-79.087-64.106-143.196-143.192-143.196s-143.195 64.11-143.195 143.195c0 79.086 64.11 143.195 143.195 143.195 79.086 0 143.192-64.109 143.192-143.195Zm0 0"/><g clip-path="url(#a)"><path fill="none" stroke="#000" stroke-miterlimit="10" stroke-width="1.1955" d="M387.402 347.98c0-89.195-72.304-161.5-161.496-161.5-89.195 0-161.5 72.305-161.5 161.5 0 89.196 72.305 161.5 161.5 161.5 89.192 0 161.496-72.304 161.496-161.5Zm0 0"/></g><path fill="none" stroke="#000" stroke-miterlimit="10" stroke-width="1.1955" d="M373.633 321.465c0-79.031-64.07-143.098-143.102-143.098-79.031 0-143.097 64.067-143.097 143.098S151.5 464.562 230.53 464.562s143.102-64.066 143.102-143.097Zm0 0"/><path fill="none" stroke="#000" stroke-linecap="round" stroke-linejoin="round" stroke-miterlimit="10" stroke-width="1.1955" d="M118.266 134.906 80.82 419.34l109.325 39.793Zm0 0"/><path fill="none" stroke="#000" stroke-linecap="round" stroke-miterlimit="10" stroke-width="1.1955" d="m118.266 134.906 286.289 19.266M80.82 419.34l170.07-231.102M190.145 459.133l80.777-275.336M80.82 419.34l275.375-167.102M129.398 389.863l121.493-201.625"/><g clip-path="url(#b)"><path fill="none" stroke="#000" stroke-linecap="round" stroke-miterlimit="10" stroke-width="1.1955" d="m1.344 243.563 430.094-95.348"/></g><path fill="none" stroke="#00b200" stroke-dasharray="4.483245 2.9888250000000003" stroke-linecap="round" stroke-miterlimit="10" stroke-width="1.1955" d="m356.195 252.238-237.93-117.332M356.195 252.238l-166.05 206.895M356.195 252.238 135.75 213.766"/><path stroke="#000" stroke-miterlimit="10" stroke-width=".5985" d="M119.758 134.906c0-.828-.668-1.496-1.492-1.496-.825 0-1.496.668-1.496 1.496a1.495 1.495 0 0 0 2.988 0ZM82.312 419.34a1.495 1.495 0 1 0-2.988 0c0 .824.668 1.492 1.496 1.492.825 0 1.492-.668 1.492-1.492ZM191.64 459.133a1.496 1.496 0 0 0-2.992 0 1.495 1.495 0 0 0 2.993 0ZM357.687 252.238a1.495 1.495 0 1 0-2.99-.001 1.495 1.495 0 0 0 2.99.001ZM137.242 213.766a1.495 1.495 0 1 0-2.988 0c0 .824.668 1.492 1.496 1.492.824 0 1.492-.668 1.492-1.492ZM130.89 389.863a1.494 1.494 0 1 0-2.99-.005 1.494 1.494 0 0 0 2.99.005ZM191.64 289.05c0-.823-.671-1.495-1.495-1.495s-1.497.672-1.497 1.496a1.495 1.495 0 0 0 2.993 0ZM406.05 154.172a1.495 1.495 0 1 0-2.99.006 1.495 1.495 0 0 0 2.99-.006ZM252.387 188.238c0-.824-.668-1.496-1.496-1.496a1.495 1.495 0 1 0 1.496 1.496ZM272.414 183.797c0-.824-.668-1.492-1.492-1.492a1.494 1.494 0 1 0 1.492 1.492Zm0 0"/><use xlink:href="#c" x="266.391" y="178.519"/><use xlink:href="#d" x="245.415" y="182.959"/><use xlink:href="#e" x="184.623" y="474.45"/><use xlink:href="#f" x="126.528" y="404.838"/><use xlink:href="#g" x="361.471" y="257.088"/><use xlink:href="#h" x="103.856" y="129.627"/><use xlink:href="#i" x="120.248" y="208.487"/><use xlink:href="#j" x="66.409" y="434.316"/><use xlink:href="#k" x="195.424" y="304.371"/><use xlink:href="#l" x="409.832" y="169.152"/><use xlink:href="#m" x="6.954" y="236.329"/></svg>