<svg xmlns="http://www.w3.org/2000/svg" xmlns:xlink="http://www.w3.org/1999/xlink" width="251.756" height="255.572" viewBox="0 0 188.817 191.679"><defs><path id="a" d="M6-1.656a6 6 0 0 0-.328.406c-.344.438-.516.594-.688.594-.218 0-.359-.188-.453-.61-.031-.125-.047-.218-.062-.265-.375-1.5-.547-2.188-.547-2.407C4.578-5.093 5.125-5.75 5.39-5.75c.093 0 .203.047.359.125.188.094.281.125.406.125.313 0 .516-.219.516-.531s-.25-.563-.61-.563c-.656 0-1.218.547-2.25 2.14l-.171-.812c-.203-1.015-.375-1.328-.766-1.328-.328 0-.844.14-1.75.438l-.172.062.063.219c.562-.125.703-.156.843-.156.36 0 .454.125.672 1.031l.422 1.828-1.219 1.75c-.296.453-.593.719-.765.719-.094 0-.235-.047-.39-.14a1.2 1.2 0 0 0-.47-.141.51.51 0 0 0-.515.515c0 .39.297.64.75.64.469 0 .64-.14 1.39-1.046.407-.484.72-.89 1.344-1.75l.453 1.781c.188.766.375 1.016.86 1.016.562 0 .953-.36 1.828-1.703Zm0 0"/><path id="b" d="M.219-5.969c.203-.047.297-.062.469-.062.843 0 1.078.375 1.765 2.937.25.969.61 2.719.61 2.969s-.094.484-.313.75c-.469.61-.766 1-.922 1.188-.312.328-.5.437-.687.437-.094 0-.203-.047-.36-.156-.234-.188-.39-.25-.562-.25a.567.567 0 0 0-.578.578c0 .375.328.656.765.656.953 0 2.907-2.234 4.516-5.203 1.016-1.828 1.437-2.906 1.437-3.64a.83.83 0 0 0-.812-.829c-.344 0-.594.235-.594.563 0 .218.125.39.422.578.281.172.39.297.39.516 0 .593-.546 1.75-1.827 3.859L3.64-2.812c-.22-1.313-1.063-3.782-1.282-3.782h-.062c-.016.016-.078.016-.125.016-.14.016-.672.11-1.469.266-.078.015-.265.046-.484.078Zm0 0"/><path id="f" d="M7.078-9.953c-1.25 0-2.594.61-3.797 1.687-1.5 1.391-2.39 3.22-2.39 4.97C.89-1.204 2.25.265 4.156.265c3.11 0 6.125-3.141 6.282-6.516.109-2.094-1.36-3.703-3.36-3.703m-.125.5c1.172 0 1.922.86 1.922 2.265 0 1.61-.703 3.797-1.672 5.204C6.375-.812 5.453-.22 4.406-.22c-1.25 0-1.937-.922-1.937-2.531 0-1.406.75-3.625 1.64-4.922.829-1.219 1.75-1.781 2.844-1.781m0 0"/><path id="c" d="m4.344-10.094-2.688 1.36v.203c.188-.078.344-.125.407-.156.265-.11.515-.172.671-.172.313 0 .454.218.454.703v6.765c0 .5-.126.844-.36.97-.234.14-.437.187-1.062.202V0H5.89v-.219c-1.188-.015-1.422-.172-1.422-.89v-8.953Zm0 0"/><path id="d" d="m7.094-2.047-.188-.078c-.562.86-.75.984-1.422.984H1.906l2.516-2.625C5.75-5.156 6.328-6.28 6.328-7.453c0-1.5-1.203-2.64-2.766-2.64-.812 0-1.593.327-2.14.921-.484.516-.703.985-.953 2.047l.312.078C1.375-8.516 1.906-9 2.938-9c1.265 0 2.109.86 2.109 2.11 0 1.171-.688 2.562-1.938 3.89L.453-.172V0h5.828Zm0 0"/><path id="e" d="M2.281-4.922c.89 0 1.235.016 1.594.156.922.329 1.5 1.188 1.5 2.22 0 1.25-.844 2.218-1.953 2.218-.406 0-.703-.11-1.25-.469-.453-.265-.703-.375-.969-.375-.344 0-.562.219-.562.531 0 .516.64.844 1.687.844 1.156 0 2.328-.375 3.031-1 .704-.61 1.094-1.469 1.094-2.469 0-.765-.234-1.468-.672-1.937-.297-.328-.578-.5-1.234-.781 1.031-.703 1.39-1.266 1.39-2.063 0-1.219-.953-2.047-2.328-2.047-.734 0-1.406.25-1.937.735-.453.39-.672.78-1 1.687l.219.047c.625-1.078 1.297-1.578 2.234-1.578.969 0 1.64.656 1.64 1.594a2.07 2.07 0 0 1-.593 1.453c-.453.453-.875.672-1.89 1.031Zm0 0"/></defs><path fill="none" stroke="#000" stroke-miterlimit="10" stroke-width=".5985" d="M1.047 169.371H170.53"/><path fill="none" stroke="#000" stroke-linecap="round" stroke-linejoin="round" stroke-miterlimit="10" stroke-width=".5985" d="M167.723 165.785c.566 2.152 1.832 3.168 3.105 3.586-1.273.418-2.539 1.434-3.105 3.586"/><use xlink:href="#a" x="176.407" y="172.535"/><path fill="none" stroke="#000" stroke-miterlimit="10" stroke-width=".5985" d="M22.309 190.633V21.148"/><path fill="none" stroke="#000" stroke-linecap="round" stroke-linejoin="round" stroke-miterlimit="10" stroke-width=".5985" d="M18.723 23.957c2.152-.566 3.168-1.832 3.586-3.11.418 1.278 1.433 2.544 3.586 3.11"/><use xlink:href="#b" x="18.991" y="12.223"/><path fill="none" stroke="#000" stroke-miterlimit="10" stroke-width=".5985" d="M64.828 167.875v1.496"/><use xlink:href="#c" x="61.092" y="184.647"/><path fill="none" stroke="#000" stroke-miterlimit="10" stroke-width=".5985" d="M107.348 167.875v1.496"/><use xlink:href="#d" x="103.612" y="184.647"/><path fill="none" stroke="#000" stroke-miterlimit="10" stroke-width=".5985" d="M149.867 167.875v1.496"/><use xlink:href="#e" x="146.131" y="184.647"/><path fill="none" stroke="#000" stroke-miterlimit="10" stroke-width=".5985" d="M23.8 126.852H22.31"/><use xlink:href="#c" x="9.556" y="131.85"/><path fill="none" stroke="#000" stroke-miterlimit="10" stroke-width=".5985" d="M23.8 84.332H22.31"/><use xlink:href="#d" x="9.556" y="89.329"/><path fill="none" stroke="#000" stroke-miterlimit="10" stroke-width=".5985" d="M23.8 41.809H22.31"/><use xlink:href="#e" x="9.556" y="46.695"/><use xlink:href="#f" x="6.24" y="184.692"/><path fill="none" stroke="#00f" stroke-miterlimit="10" stroke-width=".5985" d="M43.566 169.371 22.31 63.071M64.828 169.371l-42.52-85.039M86.09 169.371 22.309 105.59M107.348 169.371l-85.04-42.52M128.61 169.371 22.308 148.11"/><path fill="none" stroke="red" stroke-miterlimit="10" stroke-width=".5985" d="M32.937 169.371 22.31 52.441M54.2 169.371 22.308 73.7M75.457 169.371l-53.148-74.41M96.719 169.371l-74.41-53.148M117.977 169.371l-95.668-31.89M139.238 169.371l-116.93-10.629"/></svg>