<svg xmlns="http://www.w3.org/2000/svg" xmlns:xlink="http://www.w3.org/1999/xlink" width="280.502" height="369.35" viewBox="0 0 210.376 277.012"><defs><path id="a" d="M6-1.656a6 6 0 0 0-.328.406c-.344.438-.516.594-.688.594-.218 0-.359-.188-.453-.61-.031-.125-.047-.218-.062-.265-.375-1.5-.547-2.188-.547-2.407C4.578-5.093 5.125-5.75 5.39-5.75c.093 0 .203.047.359.125.188.094.281.125.406.125.313 0 .516-.219.516-.531s-.25-.563-.61-.563c-.656 0-1.218.547-2.25 2.14l-.171-.812c-.203-1.015-.375-1.328-.766-1.328-.328 0-.844.14-1.75.438l-.172.062.063.219c.562-.125.703-.156.843-.156.36 0 .454.125.672 1.031l.422 1.828-1.219 1.75c-.296.453-.593.719-.765.719-.094 0-.235-.047-.39-.14a1.2 1.2 0 0 0-.47-.141.51.51 0 0 0-.515.515c0 .39.297.64.75.64.469 0 .64-.14 1.39-1.046.407-.484.72-.89 1.344-1.75l.453 1.781c.188.766.375 1.016.86 1.016.562 0 .953-.36 1.828-1.703Zm0 0"/><path id="b" d="M.219-5.969c.203-.047.297-.062.469-.062.843 0 1.078.375 1.765 2.937.25.969.61 2.719.61 2.969s-.094.484-.313.75c-.469.61-.766 1-.922 1.188-.312.328-.5.437-.687.437-.094 0-.203-.047-.36-.156-.234-.188-.39-.25-.562-.25a.567.567 0 0 0-.578.578c0 .375.328.656.765.656.953 0 2.907-2.234 4.516-5.203 1.016-1.828 1.437-2.906 1.437-3.64a.83.83 0 0 0-.812-.829c-.344 0-.594.235-.594.563 0 .218.125.39.422.578.281.172.39.297.39.516 0 .593-.546 1.75-1.827 3.859L3.64-2.812c-.22-1.313-1.063-3.782-1.282-3.782h-.062c-.016.016-.078.016-.125.016-.14.016-.672.11-1.469.266-.078.015-.265.046-.484.078Zm0 0"/><path id="e" d="M9.64-9.75H2.204v.234c.969.094 1.14.188 1.14.61 0 .234-.062.594-.155.953l-1.844 6.61C1.078-.454.969-.36.125-.235V0h3.766v-.234C3.016-.281 2.75-.454 2.75-.891c0-.125.047-.343.14-.671l.922-3.344c.547.031.876.047 1.204.047.578 0 .687.015.828.078.218.125.328.312.328.61 0 .25-.031.421-.125.89l.25.062 1.14-3.484-.265-.078c-.672 1.343-.719 1.36-3.234 1.39l.984-3.484c.094-.297.312-.39.922-.39 2.5 0 3.047.203 3.047 1.124 0 .094 0 .157-.016.36-.016.093-.016.11-.031.281l.312.031Zm0 0"/><path id="f" d="M10.781-9.75H7.47v.234c.172.016.343.047.406.047.36.031.5.125.5.281 0 .36-.812 1.172-2.14 2.094L3.952-5.516l.797-2.89c.219-.75.625-1.047 1.516-1.11v-.234H2.188v.234c.921.094 1.14.204 1.14.641 0 .219-.062.563-.156.922l-1.844 6.61C1.062-.454.984-.376.11-.235V0h3.704v-.234c-.938-.11-1.079-.203-1.079-.657 0-.156.032-.296.125-.593l.079-.313.937-3.406 1.797 3.11c.36.609.578 1.14.578 1.421 0 .219-.219.344-.687.39-.079 0-.25.016-.438.048V0h4.11v-.234c-.938-.094-1.032-.141-1.454-.844L5.188-5.594l4.484-3.39c.406-.313.75-.47 1.11-.532Zm0 0"/><path id="g" d="M8.422-.234c-.844-.078-.938-.203-1.125-1.297L5.89-9.984H5.5L1.172-2.516C-.016-.516-.172-.359-.766-.234V0h2.797v-.234c-.765-.078-.875-.157-.875-.532 0-.28.032-.421.297-.921l.844-1.688h3.297l.297 1.953c.015.14.03.266.03.39 0 .563-.218.704-1.171.798V0h3.672ZM2.609-3.906l2.25-3.89.657 3.89Zm0 0"/><path id="h" d="M-.125 0h4.219c2.343 0 3.953-1.219 3.953-2.984 0-.563-.172-1.078-.5-1.407-.297-.343-.594-.53-1.375-.859 1.062-.25 1.484-.422 1.969-.844.422-.36.64-.86.64-1.468 0-1.422-1.062-2.188-2.984-2.188h-3.86v.234c.938.079 1.157.188 1.157.61 0 .234-.063.594-.172.953l-1.828 6.61C.828-.485.719-.392-.125-.235Zm3.688-4.937c.968 0 1.593.046 1.89.171.61.25.984.907.984 1.72 0 1.608-1.109 2.593-2.921 2.593-.625 0-.97-.219-.97-.625 0-.172.188-.89.532-2.094.188-.672.281-1.015.485-1.765m1.109-3.954c.094-.328.266-.421.86-.421 1.187 0 1.75.515 1.75 1.624 0 .844-.36 1.5-1 1.86-.516.297-1.235.406-2.579.406Zm0 0"/><path id="i" d="M9.453-9.75H1.516L.875-7.453l.281.062C1.938-9 2.422-9.266 4.703-9.234l-2.156 7.89C2.312-.547 1.953-.312.969-.234V0h4.328v-.234c-.25-.016-.469-.047-.563-.047-.593-.047-.78-.188-.78-.625 0-.203.046-.375.187-.89l2.078-7.438h.812c1.078 0 1.563.375 1.563 1.218 0 .188-.016.407-.047.672l.25.032Zm0 0"/><path id="j" d="M13.047-9.75h-2.5L5.53-2.39l-.828-7.36H2v.234c.75.047 1.11.204 1.11.547 0 .125-.063.344-.157.625-.031.047-.062.219-.125.438-.015.047-.031.11-.047.172L1.187-2.187C.734-.625.517-.328-.266-.234V0h2.954v-.234c-.766-.063-1.063-.25-1.063-.657 0-.156.063-.546.14-.796l1.766-6.47L4.437 0h.25l5.641-8.375-1.937 7.016c-.235.797-.532 1.015-1.5 1.125V0h4.078v-.234C9.953-.328 9.813-.422 9.813-.875c0-.266.03-.453.171-.922l1.829-6.61c.265-.905.343-.968 1.234-1.109Zm0 0"/><path id="k" d="M10.86-9.75H7.89v.234c.844.079 1.048.22 1.048.766 0 .172-.032.36-.141.656-.016.047-.031.11-.031.11L7.25-2.297 4.14-9.75H1.735v.234c.704.063 1.016.25 1.282.844L1.234-2.453C.672-.531.547-.36-.296-.234V0h2.952v-.234C1.891-.297 1.61-.47 1.61-.875c0-.203.047-.5.141-.812l1.703-6.297L6.891.219h.265l2.157-7.516c.546-1.922.609-2.016 1.546-2.219Zm0 0"/><clipPath id="c"><path d="M56 12h114v265.012H56Zm0 0"/></clipPath><clipPath id="d"><path d="M0 109h168v168.012H0Zm0 0"/></clipPath></defs><path fill="none" stroke="#000" stroke-miterlimit="10" stroke-width=".5985" d="M1.348 148.113H192.09"/><path fill="none" stroke="#000" stroke-linecap="round" stroke-linejoin="round" stroke-miterlimit="10" stroke-width=".5985" d="M189.281 144.523c.567 2.153 1.832 3.168 3.11 3.59-1.278.418-2.543 1.434-3.11 3.586"/><use xlink:href="#a" x="197.965" y="151.275"/><path fill="none" stroke="#000" stroke-miterlimit="10" stroke-width=".5985" d="M65.129 275.672V21.148"/><path fill="none" stroke="#000" stroke-linecap="round" stroke-linejoin="round" stroke-miterlimit="10" stroke-width=".5985" d="M61.54 23.957c2.151-.566 3.167-1.832 3.589-3.105.418 1.273 1.433 2.539 3.586 3.105"/><use xlink:href="#b" x="61.809" y="12.223"/><g clip-path="url(#c)"><path fill="none" stroke="#00f" stroke-miterlimit="10" stroke-width=".5985" d="m160.797 275.672-15.281-10.629-13.95-10.633-12.625-10.629-11.293-10.629-9.968-10.629-8.637-10.632-7.305-10.63-5.98-10.628L71.105 180l-3.32-10.629-1.992-10.629-.664-10.629.664-10.633 1.992-10.628 3.32-10.63 4.653-10.632 5.98-10.63 7.305-10.628 8.637-10.633 9.968-10.629 11.293-10.629 12.625-10.629 13.95-10.632 15.28-10.63"/></g><path fill="none" stroke="#ff7f00" stroke-miterlimit="10" stroke-width="1.1955" d="m1.348 169.371 6.199-6.2 6.2-6.202 6.202-6.2 37.203-37.203 6.2-6.203 6.203-6.199 55.804-55.805 6.2-6.203 6.203-6.199 12.402-12.402"/><g clip-path="url(#d)"><path fill="none" stroke="#ff7f00" stroke-miterlimit="10" stroke-width="1.1955" d="m1.348 126.852 6.199 6.199 6.2 6.203 6.202 6.2 18.602 18.6 6.199 6.204 6.203 6.199 6.2 6.2 6.199 6.202 6.203 6.2 37.203 37.203 6.199 6.203 6.203 6.2 6.2 6.198 6.199 6.203 6.203 6.2 12.402 12.402"/></g><path fill="none" stroke="red" stroke-miterlimit="10" stroke-width="1.1955" d="m22.605 211.89 8.149-16.296 4.078-8.149 8.148-16.297 4.075-8.152 24.445-48.89 4.074-8.153 8.149-16.297 4.078-8.148 8.148-16.297 4.074-8.152 20.372-40.743"/><path fill="none" stroke="#000" stroke-miterlimit="10" stroke-width=".5985" d="M107.648 146.617v1.496"/><use xlink:href="#e" x="102.454" y="163.089"/><path fill="none" stroke="#000" stroke-miterlimit="10" stroke-width=".5985" d="M22.605 146.617v1.496"/><use xlink:href="#f" x="17.212" y="163.089"/><path stroke="#000" stroke-miterlimit="10" stroke-width=".5985" d="M109.14 63.07c0-.824-.667-1.492-1.492-1.492-.828 0-1.496.668-1.496 1.492 0 .825.668 1.496 1.496 1.496.825 0 1.493-.671 1.493-1.496Zm0 0"/><use xlink:href="#g" x="112.926" y="68.093"/><path stroke="#000" stroke-miterlimit="10" stroke-width=".5985" d="M109.14 233.152a1.495 1.495 0 1 0-2.988 0c0 .825.668 1.493 1.496 1.493.825 0 1.493-.668 1.493-1.493Zm0 0"/><use xlink:href="#h" x="112.926" y="237.999"/><path stroke="#000" stroke-miterlimit="10" stroke-width=".5985" d="M77.25 105.59c0-.824-.668-1.492-1.492-1.492a1.495 1.495 0 1 0 1.492 1.492Zm0 0"/><use xlink:href="#i" x="81.037" y="110.441"/><path fill="red" stroke="red" stroke-miterlimit="10" stroke-width=".5985" d="M87.883 84.332a1.493 1.493 0 1 0-2.988 0c0 .824.668 1.492 1.492 1.492s1.496-.668 1.496-1.492Zm0 0"/><use xlink:href="#j" x="68.061" y="89.181"/><path fill="red" stroke="red" stroke-miterlimit="10" stroke-width=".5985" d="M45.363 169.371a1.495 1.495 0 1 0-1.496 1.496c.824 0 1.496-.672 1.496-1.496Zm0 0"/><use xlink:href="#k" x="38.436" y="188.832"/></svg>