<svg xmlns="http://www.w3.org/2000/svg" xmlns:xlink="http://www.w3.org/1999/xlink" width="320.202" height="325.876" viewBox="0 0 240.151 244.407"><defs><path id="a" d="M6-1.656a6 6 0 0 0-.328.406c-.344.438-.516.594-.688.594-.218 0-.359-.188-.453-.61-.031-.125-.047-.218-.062-.265-.375-1.5-.547-2.188-.547-2.407C4.578-5.093 5.125-5.75 5.39-5.75c.093 0 .203.047.359.125.188.094.281.125.406.125.313 0 .516-.219.516-.531s-.25-.563-.61-.563c-.656 0-1.218.547-2.25 2.14l-.171-.812c-.203-1.015-.375-1.328-.766-1.328-.328 0-.844.14-1.75.438l-.172.062.063.219c.562-.125.703-.156.843-.156.36 0 .454.125.672 1.031l.422 1.828-1.219 1.75c-.296.453-.593.719-.765.719-.094 0-.235-.047-.39-.14a1.2 1.2 0 0 0-.47-.141.51.51 0 0 0-.515.515c0 .39.297.64.75.64.469 0 .64-.14 1.39-1.046.407-.484.72-.89 1.344-1.75l.453 1.781c.188.766.375 1.016.86 1.016.562 0 .953-.36 1.828-1.703Zm0 0"/><path id="b" d="M.219-5.969c.203-.047.297-.062.469-.062.843 0 1.078.375 1.765 2.937.25.969.61 2.719.61 2.969s-.094.484-.313.75c-.469.61-.766 1-.922 1.188-.312.328-.5.437-.687.437-.094 0-.203-.047-.36-.156-.234-.188-.39-.25-.562-.25a.567.567 0 0 0-.578.578c0 .375.328.656.765.656.953 0 2.907-2.234 4.516-5.203 1.016-1.828 1.437-2.906 1.437-3.64a.83.83 0 0 0-.812-.829c-.344 0-.594.235-.594.563 0 .218.125.39.422.578.281.172.39.297.39.516 0 .593-.546 1.75-1.827 3.859L3.64-2.812c-.22-1.313-1.063-3.782-1.282-3.782h-.062c-.016.016-.078.016-.125.016-.14.016-.672.11-1.469.266-.078.015-.265.046-.484.078Zm0 0"/><path id="e" d="M7.078-9.953c-1.25 0-2.594.61-3.797 1.687-1.5 1.391-2.39 3.22-2.39 4.97C.89-1.204 2.25.265 4.156.265c3.11 0 6.125-3.141 6.282-6.516.109-2.094-1.36-3.703-3.36-3.703m-.125.5c1.172 0 1.922.86 1.922 2.265 0 1.61-.703 3.797-1.672 5.204C6.375-.812 5.453-.22 4.406-.22c-1.25 0-1.937-.922-1.937-2.531 0-1.406.75-3.625 1.64-4.922.829-1.219 1.75-1.781 2.844-1.781m0 0"/><path id="d" d="M2.281-4.922c.89 0 1.235.016 1.594.156.922.329 1.5 1.188 1.5 2.22 0 1.25-.844 2.218-1.953 2.218-.406 0-.703-.11-1.25-.469-.453-.265-.703-.375-.969-.375-.344 0-.562.219-.562.531 0 .516.64.844 1.687.844 1.156 0 2.328-.375 3.031-1 .704-.61 1.094-1.469 1.094-2.469 0-.765-.234-1.468-.672-1.937-.297-.328-.578-.5-1.234-.781 1.031-.703 1.39-1.266 1.39-2.063 0-1.219-.953-2.047-2.328-2.047-.734 0-1.406.25-1.937.735-.453.39-.672.78-1 1.687l.219.047c.625-1.078 1.297-1.578 2.234-1.578.969 0 1.64.656 1.64 1.594a2.07 2.07 0 0 1-.593 1.453c-.453.453-.875.672-1.89 1.031Zm0 0"/><clipPath id="c"><path d="M1 0h239.152v240H1Zm0 0"/></clipPath></defs><path fill="none" stroke="#000" stroke-miterlimit="10" stroke-width=".5985" d="M7.852 223.102h222.632"/><path fill="none" stroke="#000" stroke-linecap="round" stroke-linejoin="round" stroke-miterlimit="10" stroke-width=".5985" d="M227.676 219.516c.57 2.152 1.836 3.168 3.11 3.586-1.274.418-2.54 1.433-3.11 3.585"/><use xlink:href="#a" x="227.74" y="234.873"/><path fill="none" stroke="#000" stroke-miterlimit="10" stroke-width=".5985" d="M18.484 233.73V11.098"/><path fill="none" stroke="#000" stroke-linecap="round" stroke-linejoin="round" stroke-miterlimit="10" stroke-width=".5985" d="M14.895 13.906c2.152-.566 3.171-1.832 3.59-3.11.417 1.278 1.433 2.544 3.585 3.11"/><use xlink:href="#b" x="6.567" y="12.225"/><g clip-path="url(#c)"><path fill="none" stroke="#00f" stroke-miterlimit="10" stroke-width="1.1955" d="M59.3 16.457 48.997 40.578l-8.808 22.625-7.313 21.125-5.816 19.633-4.317 18.133-2.824 16.636-1.324 15.145.172 13.645 1.664 12.148 3.164 10.652 4.66 9.157 6.156 7.66 7.649 6.164 9.148 4.668 10.645 3.172 12.14 1.672 13.64.18 15.134-1.317 16.629-2.817 18.125-4.308 19.625-5.809 21.117-7.3 22.613-8.801 24.113-10.297"/></g><path fill="none" stroke="#000" stroke-miterlimit="10" stroke-width=".5985" d="M82.262 222.355v.747"/><use xlink:href="#d" x="78.526" y="238.377"/><path fill="none" stroke="#000" stroke-miterlimit="10" stroke-width=".5985" d="M19.23 159.32h-.746"/><use xlink:href="#d" x="5.731" y="164.203"/><use xlink:href="#e" x="23.762" y="238.422"/></svg>