<svg xmlns="http://www.w3.org/2000/svg" xmlns:xlink="http://www.w3.org/1999/xlink" width="432.216" height="425.652" viewBox="0 0 324.162 319.239"><defs><path id="a" d="M2.281-4.922c.89 0 1.235.016 1.594.156.922.329 1.5 1.188 1.5 2.22 0 1.25-.844 2.218-1.953 2.218-.406 0-.703-.11-1.25-.469-.453-.265-.703-.375-.969-.375-.344 0-.562.219-.562.531 0 .516.64.844 1.687.844 1.156 0 2.328-.375 3.031-1 .704-.61 1.094-1.469 1.094-2.469 0-.765-.234-1.468-.672-1.937-.297-.328-.578-.5-1.234-.781 1.031-.703 1.39-1.266 1.39-2.063 0-1.219-.953-2.047-2.328-2.047-.734 0-1.406.25-1.937.735-.453.39-.672.78-1 1.687l.219.047c.625-1.078 1.297-1.578 2.234-1.578.969 0 1.64.656 1.64 1.594a2.07 2.07 0 0 1-.593 1.453c-.453.453-.875.672-1.89 1.031Zm0 0"/><path id="b" d="M2.375-10.672c0-.265 0-.531-.297-.531s-.297.265-.297.531V3.203c0 .266 0 .531.297.531s.297-.265.297-.53Zm0 0"/><path id="g" d="M9.844-3.437c.25 0 .515 0 .515-.297s-.265-.297-.515-.297H1.766c-.25 0-.532 0-.532.297s.282.297.532.297Zm0 0"/><path id="c" d="M6-1.656a6 6 0 0 0-.328.406c-.344.438-.516.594-.688.594-.218 0-.359-.188-.453-.61-.031-.125-.047-.218-.062-.265-.375-1.5-.547-2.188-.547-2.407C4.578-5.093 5.125-5.75 5.39-5.75c.093 0 .203.047.359.125.188.094.281.125.406.125.313 0 .516-.219.516-.531s-.25-.563-.61-.563c-.656 0-1.218.547-2.25 2.14l-.171-.812c-.203-1.015-.375-1.328-.766-1.328-.328 0-.844.14-1.75.438l-.172.062.063.219c.562-.125.703-.156.843-.156.36 0 .454.125.672 1.031l.422 1.828-1.219 1.75c-.296.453-.593.719-.765.719-.094 0-.235-.047-.39-.14a1.2 1.2 0 0 0-.47-.141.51.51 0 0 0-.515.515c0 .39.297.64.75.64.469 0 .64-.14 1.39-1.046.407-.484.72-.89 1.344-1.75l.453 1.781c.188.766.375 1.016.86 1.016.562 0 .953-.36 1.828-1.703Zm0 0"/><path id="e" d="M.219-5.969c.203-.047.297-.062.469-.062.843 0 1.078.375 1.765 2.937.25.969.61 2.719.61 2.969s-.094.484-.313.75c-.469.61-.766 1-.922 1.188-.312.328-.5.437-.687.437-.094 0-.203-.047-.36-.156-.234-.188-.39-.25-.562-.25a.567.567 0 0 0-.578.578c0 .375.328.656.765.656.953 0 2.907-2.234 4.516-5.203 1.016-1.828 1.437-2.906 1.437-3.64a.83.83 0 0 0-.812-.829c-.344 0-.594.235-.594.563 0 .218.125.39.422.578.281.172.39.297.39.516 0 .593-.546 1.75-1.827 3.859L3.64-2.812c-.22-1.313-1.063-3.782-1.282-3.782h-.062c-.016.016-.078.016-.125.016-.14.016-.672.11-1.469.266-.078.015-.265.046-.484.078Zm0 0"/><path id="h" d="M7.078-9.953c-1.25 0-2.594.61-3.797 1.687-1.5 1.391-2.39 3.22-2.39 4.97C.89-1.204 2.25.265 4.156.265c3.11 0 6.125-3.141 6.282-6.516.109-2.094-1.36-3.703-3.36-3.703m-.125.5c1.172 0 1.922.86 1.922 2.265 0 1.61-.703 3.797-1.672 5.204C6.375-.812 5.453-.22 4.406-.22c-1.25 0-1.937-.922-1.937-2.531 0-1.406.75-3.625 1.64-4.922.829-1.219 1.75-1.781 2.844-1.781m0 0"/><path id="d" d="M6.11-3.437h4.171c.203 0 .485 0 .485-.297s-.282-.297-.485-.297H6.11V-8.22c0-.203 0-.484-.296-.484-.297 0-.297.281-.297.484v4.188H1.328c-.203 0-.484 0-.484.297s.281.297.484.297h4.188V.75c0 .203 0 .484.297.484.296 0 .296-.28.296-.484Zm0 0"/><path id="f" d="M10.266-4.89c.218 0 .5 0 .5-.298 0-.296-.282-.296-.485-.296H1.328c-.203 0-.484 0-.484.297 0 .296.281.296.5.296Zm.015 2.906c.203 0 .485 0 .485-.297s-.282-.297-.5-.297H1.344c-.219 0-.5 0-.5.297s.281.297.484.297Zm0 0"/></defs><path fill="#cceffc" stroke="#00f" stroke-miterlimit="10" stroke-width=".5985" d="M285.215 169.371 157.652 41.81 30.094 169.37 157.652 296.93Zm0 0"/><use xlink:href="#a" x="290.491" y="184.649"/><use xlink:href="#a" x="162.933" y="36.301"/><use xlink:href="#b" x="226.712" y="96.576"/><use xlink:href="#c" x="230.851" y="96.576"/><use xlink:href="#b" x="237.531" y="96.576"/><use xlink:href="#d" x="243.745" y="96.576"/><use xlink:href="#b" x="257.433" y="96.576"/><use xlink:href="#e" x="261.572" y="96.576"/><use xlink:href="#b" x="268.207" y="96.576"/><use xlink:href="#f" x="275.667" y="96.576"/><use xlink:href="#a" x="290.599" y="96.576"/><use xlink:href="#g" x="5.731" y="184.649"/><use xlink:href="#a" x="17.341" y="184.649"/><use xlink:href="#g" x="162.933" y="312.207"/><use xlink:href="#a" x="174.543" y="312.207"/><path fill="none" stroke="#000" stroke-miterlimit="10" stroke-width=".5985" d="M8.832 169.371h297.043"/><path fill="none" stroke="#000" stroke-linecap="round" stroke-linejoin="round" stroke-miterlimit="10" stroke-width=".5985" d="M303.066 165.785c.567 2.152 1.832 3.168 3.11 3.586-1.278.418-2.543 1.434-3.11 3.586"/><use xlink:href="#c" x="311.751" y="172.536"/><path fill="none" stroke="#000" stroke-miterlimit="10" stroke-width=".5985" d="M157.652 318.191V21.148"/><path fill="none" stroke="#000" stroke-linecap="round" stroke-linejoin="round" stroke-miterlimit="10" stroke-width=".5985" d="M154.066 23.957c2.153-.566 3.168-1.832 3.586-3.11.418 1.278 1.434 2.544 3.586 3.11"/><use xlink:href="#e" x="154.335" y="12.225"/><use xlink:href="#h" x="162.933" y="184.694"/></svg>