<svg xmlns="http://www.w3.org/2000/svg" xmlns:xlink="http://www.w3.org/1999/xlink" width="447.728" height="362.313" viewBox="0 0 335.796 271.735"><defs><path id="a" d="M4.719-6.64c-.828 0-1.735.406-2.532 1.124-1 .938-1.593 2.141-1.593 3.313C.594-.813 1.5.172 2.766.172c2.078 0 4.093-2.078 4.203-4.344.062-1.406-.907-2.469-2.25-2.469m-.078.327c.78 0 1.28.579 1.28 1.516 0 1.078-.468 2.531-1.109 3.469C4.25-.531 3.641-.156 2.938-.156c-.828 0-1.296-.594-1.296-1.672 0-.938.5-2.422 1.093-3.297.563-.812 1.172-1.187 1.907-1.187m0 0"/><path id="b" d="M1.453-6.344c.578.063.703.157.703.407 0 .14-.031.359-.156.796L.813-.89C.64-.297.563-.234 0-.156V0h2.438v-.156c-.626-.094-.672-.125-.672-.469 0-.11.015-.219.125-.578l.515-1.922c.25.063.516.078.922.078.813 0 1.485-.156 1.922-.469.484-.375.781-.921.781-1.515 0-.953-.75-1.485-2.11-1.485H1.454Zm1.75.407c.063-.204.188-.266.469-.266.39 0 .765.094.969.234.25.172.359.469.359.938 0 .656-.219 1.11-.656 1.375-.313.172-.703.25-1.328.25-.172 0-.25-.016-.516-.047Zm0 0"/><path id="c" d="M-.078 0h2.812c1.563 0 2.641-.812 2.641-2 0-.36-.125-.719-.344-.937-.203-.22-.39-.344-.922-.563.72-.172 1-.281 1.329-.562q.42-.375.421-.985c0-.937-.703-1.469-1.984-1.469H1.297v.172c.61.047.766.125.766.407 0 .14-.032.39-.11.64L.734-.89c-.187.579-.25.625-.812.735Zm2.453-3.297c.64 0 1.063.031 1.266.11.406.171.656.609.656 1.156 0 1.078-.734 1.734-1.953 1.734-.422 0-.64-.156-.64-.422 0-.125.124-.593.343-1.39.14-.453.203-.688.328-1.188m.75-2.64c.063-.22.172-.266.563-.266.796 0 1.171.328 1.171 1.062 0 .579-.25 1.016-.671 1.25-.344.204-.813.266-1.72.266Zm0 0"/><path id="d" d="M6.438-6.516h-4.97v.172c.641.047.766.11.766.407 0 .14-.046.39-.109.64L.891-.89c-.172.594-.25.657-.813.735V0h2.516v-.156c-.578-.031-.766-.14-.766-.438 0-.078.031-.234.094-.453l.625-2.219c.36.016.578.032.797.032.39 0 .469 0 .547.046.156.079.218.204.218.407 0 .156-.015.281-.078.594l.172.046.766-2.328-.188-.062c-.437.906-.468.906-2.156.937l.672-2.328c.047-.203.187-.266.594-.266 1.687 0 2.047.141 2.047.75 0 .063 0 .11-.016.25-.016.047-.016.063-.016.188l.203.016Zm0 0"/><path id="e" d="m6.5-4.64.375-1.985h-.219c-.078.172-.172.219-.375.219a2 2 0 0 1-.406-.063c-.453-.11-.844-.172-1.172-.172-2.125 0-4.047 2-4.047 4.22 0 1.53 1.078 2.593 2.61 2.593 1.015 0 1.812-.438 2.718-1.484l-.171-.141c-.891.89-1.47 1.187-2.297 1.187-1.11 0-1.735-.765-1.735-2.046 0-1.188.469-2.391 1.25-3.204.485-.484 1.11-.765 1.766-.765.922 0 1.422.547 1.516 1.61Zm0 0"/><path id="f" d="M5.625-.156c-.578-.047-.625-.14-.766-.86l-.937-5.64h-.25L.782-1.672C-.017-.344-.11-.234-.517-.156V0H1.36v-.156C.844-.203.766-.266.766-.516c0-.187.03-.265.203-.609L1.53-2.25h2.203l.188 1.297c.015.094.031.187.031.265 0 .375-.14.47-.781.532V0h2.453ZM1.75-2.61l1.484-2.594.438 2.594Zm0 0"/><path id="g" d="M1.297-6.344c.61.047.766.14.766.407 0 .14-.032.39-.11.64L.734-.89c-.187.579-.25.625-.812.735V0h2.516c1.171 0 2.234-.312 3-.875.968-.703 1.546-1.797 1.546-2.953 0-1.64-1.14-2.688-2.921-2.688H1.297Zm1.828.422c.063-.219.203-.281.61-.281.562 0 1.062.125 1.374.36.5.359.766.984.766 1.78 0 1.079-.422 2.188-1.094 2.86-.593.61-1.406.906-2.437.906-.453 0-.656-.11-.656-.375 0-.125.062-.344.218-.937Zm0 0"/><path id="h" d="M6.313-6.516H1.359v.172c.625.047.782.14.782.407 0 .109-.063.453-.11.64L.797-.89c-.172.563-.25.625-.813.735V0h5.063l.61-1.61-.157-.077c-.469.625-.719.89-1.156 1.093-.36.172-1.047.266-1.797.266-.547 0-.797-.094-.797-.344 0-.11.11-.578.36-1.453.14-.437.218-.766.328-1.14.343.015.656.03.765.03.39-.015.672.047.781.141.047.047.079.14.079.313 0 .172-.032.297-.079.515l.204.047.671-2.312-.171-.032c-.375.844-.47.907-1.375.938-.126 0-.438.016-.797.031l.672-2.328c.046-.219.156-.266.718-.266 1.563 0 1.922.141 1.922.735 0 .125-.016.281-.031.453l.219.016Zm0 0"/><path id="i" d="M7.203-6.516H4.984v.172c.125 0 .235.032.266.032.25.015.344.078.344.187 0 .234-.547.766-1.438 1.39L2.641-3.671l.53-1.937c.142-.5.423-.703 1-.735v-.172H1.454v.172c.625.047.766.14.766.422 0 .14-.031.375-.11.625L.891-.89C.703-.297.656-.25.063-.156V0h2.484v-.156c-.64-.078-.719-.14-.719-.438 0-.11.016-.187.078-.39l.063-.22.61-2.265L3.78-1.39c.25.407.39.75.39.938 0 .156-.14.234-.468.266-.047 0-.156.015-.281.03V0h2.734v-.156C5.531-.22 5.47-.25 5.188-.72L3.452-3.734l3-2.25c.281-.22.5-.328.75-.36Zm0 0"/><path id="j" d="M4.89-6.516H2.36v.172c.624.047.765.14.765.407 0 .14-.031.359-.11.64L1.704-.672c-.11.39-.25.547-.484.547-.235 0-.344-.14-.344-.406v-.235a.49.49 0 0 0-.469-.468c-.281 0-.468.218-.468.53 0 .532.468.876 1.171.876.5 0 .954-.188 1.266-.563.266-.312.469-.765.672-1.515L4.078-5.61c.172-.594.25-.657.813-.735Zm0 0"/></defs><path fill="#fff" d="M0 0h335.797v271.734H0Zm0 0"/><path fill="none" stroke="#000" stroke-linecap="round" stroke-linejoin="round" stroke-miterlimit="10" stroke-width=".797" d="M79.84 14.035 48.71 130.203h147.298Zm0 0"/><path fill="none" stroke="#000" stroke-miterlimit="10" stroke-width=".797" d="M207.363 87.68c0-46.946-38.058-85-85.004-85-46.945 0-85.004 38.054-85.004 85 0 46.949 38.06 85.004 85.004 85.004 46.946 0 85.004-38.055 85.004-85.004Zm0 0"/><path fill="none" stroke="#000" stroke-miterlimit="10" stroke-width=".797" d="M164.234 122.465c0-32.043-25.976-58.02-58.02-58.02-32.042 0-58.019 25.977-58.019 58.02s25.977 58.02 58.02 58.02 58.02-25.977 58.02-58.02Zm0 0"/><path fill="none" stroke="#000" stroke-miterlimit="10" stroke-width=".797" d="M202.664 99.988c0-39.574-32.078-71.656-71.652-71.656S59.355 60.414 59.355 99.988s32.083 71.657 71.657 71.657 71.652-32.083 71.652-71.657Zm0 0"/><path fill="none" stroke="#000" stroke-linecap="round" stroke-miterlimit="10" stroke-width=".797" d="m79.84 14.035 57.59 157.34M48.71 130.203l98.532-48.765M196.008 130.203 61.778 81.438"/><path fill="none" stroke="#00b200" stroke-dasharray="2.98883 1.99255" stroke-linecap="round" stroke-miterlimit="10" stroke-width=".797" d="m48.71 130.203 274.856 127.559M196.008 130.203l127.558 127.559M48.71 130.203 14.532 257.762M196.008 130.203 14.53 257.762"/><path fill="none" stroke="red" stroke-dasharray="2.98883 1.99255" stroke-linecap="round" stroke-miterlimit="10" stroke-width=".797" d="M122.36 87.68v42.523"/><path fill="none" stroke="#00f" stroke-dasharray="2.98883 1.99255" stroke-linecap="round" stroke-linejoin="round" stroke-miterlimit="10" stroke-width=".797" d="m122.36 130.203 201.206 127.559H14.531Zm0 0"/><path fill="none" stroke="#ec008c" stroke-dasharray="2.98883 1.99255" stroke-linecap="round" stroke-miterlimit="10" stroke-width=".797" d="M147.242 81.438H61.777"/><path stroke="#000" stroke-miterlimit="10" stroke-width=".399" d="M80.836 14.035a.995.995 0 1 0-1.99-.002.995.995 0 0 0 1.99.002ZM49.707 130.203c0-.55-.445-1-.996-1a.999.999 0 0 0 0 1.996c.55 0 .996-.449.996-.996ZM197.004 130.203c0-.55-.45-1-.996-1a.999.999 0 0 0 0 1.996 1 1 0 0 0 .996-.996ZM123.355 130.203c0-.55-.445-1-.996-1a.999.999 0 0 0 0 1.996c.551 0 .996-.449.996-.996ZM148.238 81.438a.995.995 0 1 0-1.99-.002.995.995 0 0 0 1.99.001ZM62.773 81.438a.995.995 0 1 0-1.99-.002.995.995 0 0 0 1.99.001ZM138.426 171.375a.995.995 0 1 0-1.99-.002.995.995 0 0 0 1.99.002Zm0 0"/><path fill="#00b200" stroke="#004c00" stroke-miterlimit="10" stroke-width=".399" d="M324.563 257.762a.995.995 0 1 0-1.991-.002.995.995 0 0 0 1.99.002ZM15.527 257.762a.995.995 0 1 0-1.99-.002.995.995 0 0 0 1.99.002Zm0 0"/><path fill="#b20000" stroke="#4c0000" stroke-miterlimit="10" stroke-width=".399" d="M123.355 87.68a.995.995 0 1 0-1.99-.002.995.995 0 0 0 1.99.002Zm0 0"/><use xlink:href="#a" x="118.762" y="83.992"/><use xlink:href="#b" x="134.386" y="181.36"/><use xlink:href="#c" x="39.105" y="133.434"/><use xlink:href="#d" x="51.334" y="84.671"/><use xlink:href="#e" x="199.027" y="133.464"/><use xlink:href="#f" x="70.232" y="10.515"/><use xlink:href="#g" x="125.878" y="126.681"/><use xlink:href="#h" x="150.762" y="77.919"/><use xlink:href="#i" x="3.821" y="267.745"/><use xlink:href="#j" x="327.084" y="267.745"/></svg>